<svg xmlns="http://www.w3.org/2000/svg" viewBox="0 0 278.34 115.94"><defs><style>.cls-1{fill:#fff;}.cls-2{fill:#c4e3f2;}.cls-3{fill:#5aa3cf;}</style></defs><g id="Layer_2" data-name="Layer 2"><g id="Layer_1-2" data-name="Layer 1"><path class="cls-1" d="M265.59,82.87a35,35,0,0,1-25.35,4,22.4,22.4,0,0,1-37.68,9.4C196.18,105,187,111,176.12,112.37a40.28,40.28,0,0,1-26.23-6,11.29,11.29,0,0,1-10.25-3.3,45.73,45.73,0,0,1-60.78-.1,16,16,0,0,1-10.24,5.2c-7.2.68-13.87-3.81-17.35-10.85-23.76,4.4-45.47-4.63-49.33-21a23,23,0,0,1,.16-11c3.41-13.49,18.13-26,37.82-30.69.94-.21,1.86-.42,2.79-.59a19.26,19.26,0,0,1,.76-2.17c3.57-8.53,12.71-13.1,22-11.75C73.71,6.83,88.15-.81,102.82,1.89,114,4,123,11.59,127.9,21.91a18.68,18.68,0,0,1,30.17-1.2c6.82-5.67,14.82-8.37,22.75-6.91,8.66,1.59,15.64,7.84,20,16.72a24.44,24.44,0,0,1,28.68,10c13.42-3.35,34.24,3.74,42.18,11.87a19.16,19.16,0,0,1,2.56,3.24C280,64.63,276.64,76.18,265.59,82.87Z"/><path class="cls-2" d="M265.59,82.87a35,35,0,0,1-25.35,4,22.4,22.4,0,0,1-37.68,9.4C196.18,105,187,111,176.12,112.37a40.28,40.28,0,0,1-26.23-6,11.29,11.29,0,0,1-10.25-3.3,45.73,45.73,0,0,1-60.78-.1,16,16,0,0,1-10.24,5.2c-7.2.68-13.87-3.81-17.35-10.85-23.76,4.4-45.47-4.63-49.33-21a23,23,0,0,1,.16-11c6.51,13.24,31.07,15.5,43,3.52,14.45,19.9,57.17,5.94,60.55-7.72C93.29,63.28,78.93,58.68,78,53.55c9.07,5.16,39.54.79,57.08-11.07-.75,4.15-8.37,13.74-15.08,16.64-.91,9.17,3.87,18.83,12,22.76,13.84,6.72,24.89-1.89,32.28-7,6,6.27,15.28,13.54,23.43,10.59,13.31-4.81,17-11.88,18.94-19,11,3.93,18.53-2.78,20.59-10.58,7.29,8.08,14.16,12.8,25,11.53A34.9,34.9,0,0,0,274.2,55.61C280,64.63,276.64,76.18,265.59,82.87Z"/><path class="cls-3" d="M3.86,84.17a26.81,26.81,0,0,0,2.58,3.32,30.23,30.23,0,0,0,6.37,5.32,44,44,0,0,0,15.26,5.9,60.22,60.22,0,0,0,16.24.89c1.35-.11,2.7-.24,4-.44.68-.08,1.35-.19,2-.3l.17,0h0l.18.35c.08.16.19.3.28.45l.54.88,0,0c.41.56.78,1.15,1.24,1.68a21.79,21.79,0,0,0,3,3,18.56,18.56,0,0,0,7.6,3.87A16.72,16.72,0,0,0,72,108.9a17.07,17.07,0,0,0,4-1.76,19.3,19.3,0,0,0,1.77-1.23c.28-.22.56-.45.82-.69a4.48,4.48,0,0,0,.4-.36l.06,0h0c.49.43,1,.86,1.59,1.27s1.09.82,1.65,1.21,1.12.78,1.7,1.14a46.8,46.8,0,0,0,47,2.25,48.39,48.39,0,0,0,6.93-4.37c.54-.41,1.1-.81,1.62-1.26l.22-.19.37.3c.29.21.58.44.89.64a13.89,13.89,0,0,0,1.93,1.06,12.33,12.33,0,0,0,4.33,1.09,11.56,11.56,0,0,0,2.27-.11l.22,0,.7.41a44.17,44.17,0,0,0,7.46,3.43A40.27,40.27,0,0,0,174,113.92a38.4,38.4,0,0,0,15.76-4.56,41.58,41.58,0,0,0,12.52-10.55l.15-.18.08-.11.16-.21,0,0,.27.25a25.2,25.2,0,0,0,3.4,2.5,23.77,23.77,0,0,0,34.73-12.52l0-.1h0l.54.1,1,.16a35.57,35.57,0,0,0,4.12.34,38.5,38.5,0,0,0,8.23-.68,33.34,33.34,0,0,0,14.91-7,25.51,25.51,0,0,0,5.51-6.33,20.35,20.35,0,0,0,2.74-8,18.14,18.14,0,0,0-1-8.45,20.83,20.83,0,0,0-3.8-6.3c-.41-.46-1.13-1.19-1.57-1.6a38.5,38.5,0,0,0-7.92-5.42,59.27,59.27,0,0,0-9.72-4,52.73,52.73,0,0,0-20.83-2.71l-1.34.13c-.44.06-.89.17-1.33.25l-.59.11-.11-.17a25.84,25.84,0,0,0-23.53-10.92,24.22,24.22,0,0,0-2.69.4c-.44.09-.89.19-1.33.3l-.65.18-.32.09-.31-.6c-.44-.76-.86-1.55-1.35-2.29a32.56,32.56,0,0,0-7-8,24.86,24.86,0,0,0-4.51-3,24.4,24.4,0,0,0-5-2,25,25,0,0,0-10.78-.56,29.47,29.47,0,0,0-10.08,3.69c-.78.44-1.53.92-2.27,1.42-.37.25-.72.52-1.08.78l-.46.33-.1.08-.15.12L158,18.5a17.45,17.45,0,0,0-2-1.91,19.69,19.69,0,0,0-10.07-4.19,20.43,20.43,0,0,0-10.77,1.66A19.45,19.45,0,0,0,130.44,17a19,19,0,0,0-2,1.94l-.36.41-.93-1.6c-.72-1.17-1.49-2.32-2.32-3.42a38.26,38.26,0,0,0-5.65-6A34.54,34.54,0,0,0,104.56.88c-1.35-.33-2.72-.49-4.09-.69C99.78.11,99.09.1,98.4.06L97.4,0h-.08l-1,0a33.29,33.29,0,0,0-8.19,1.14A38.42,38.42,0,0,0,73.57,8.73a46.57,46.57,0,0,0-5.79,5.79l0,.05c-.81,1.09-1.7,2.12-2.42,3.27l-.56.83-.13,0-.26,0a9.26,9.26,0,0,0-1-.07A23.43,23.43,0,0,0,55,19.68a22.14,22.14,0,0,0-7.35,4.19,20.16,20.16,0,0,0-5.08,6.78,16,16,0,0,0-.77,2l-.07.21-.23,0-2,.43-2,.5A66.35,66.35,0,0,0,22.44,39.9,53.69,53.69,0,0,0,9.51,49.83a35.45,35.45,0,0,0-8.43,14.1,24.13,24.13,0,0,0,.81,16.51A26,26,0,0,0,3.86,84.17Zm-1.34-18a29.62,29.62,0,0,1,4.6-10.28A48.39,48.39,0,0,1,24.49,41.06a63.93,63.93,0,0,1,10.69-4.44c1.75-.54,3.51-1,5.28-1.42a1,1,0,0,0,.95.41,32.92,32.92,0,0,1,16.46,2.52,1.06,1.06,0,0,0,1.39-.51l.23-.49a1.06,1.06,0,0,0-.6-1.45,26.28,26.28,0,0,0-3.27-.9c-1.8-.39-3.79-.66-5.52-.9h0c-1.73-.29-3.7-.62-5.54-.79L43.78,33l.28-.81a.36.36,0,0,0,0-.09c.18-.41.39-.82.58-1.22a18.44,18.44,0,0,1,7.68-7.84A20.43,20.43,0,0,1,63,20.64a10.24,10.24,0,0,1,1.36.09l1,.11.28,0h.13c.05,0,.1,0,.11,0l.31-.45L67.05,19c.26-.38.5-.77.78-1.13.57-.72,1.12-1.46,1.7-2.17s1.21-1.36,1.82-2A39.07,39.07,0,0,1,79.73,7a33.18,33.18,0,0,1,19.6-4.68,32,32,0,0,1,9.36,2.19,32.9,32.9,0,0,1,7.94,4.64,34.8,34.8,0,0,1,6.11,6.21L124,17.08c.37.59.76,1.16,1.12,1.74l.51.9.25.44.13.22.06.11.1.2.8,1.56c-.57.14-1.13.29-1.66.44h0a35.64,35.64,0,0,0-5.65,1.82,20.19,20.19,0,0,0-3.25,1.73,1.06,1.06,0,0,0-.22,1.57l.35.41a1.06,1.06,0,0,0,1.47.14,23.16,23.16,0,0,1,16.5-4.43,1.07,1.07,0,0,0,1.19-.88l.07-.46a1.07,1.07,0,0,0-1-1.3,21,21,0,0,0-3.68.17c-.59.07-1.2.17-1.81.28l.4-.54a2.6,2.6,0,0,1,.25-.33l.14-.16.28-.32c.18-.22.4-.42.59-.62a16.84,16.84,0,0,1,2.62-2.15A17.91,17.91,0,0,1,152.23,17a16.05,16.05,0,0,1,2.57,1.81c.4.33.76.71,1.13,1.07l.52.57c.34.4.63.78,1,1.17l.47.57c0,.09.08,0,.12,0l.14-.1.26-.21,1.05-.83.53-.42.34-.25.64-.46a31.14,31.14,0,0,1,2.65-1.69,26.43,26.43,0,0,1,11.45-3.61,22.56,22.56,0,0,1,11.16,2.17,26.3,26.3,0,0,1,8.61,6.77A35.49,35.49,0,0,1,198,27.87l.66,1.15c.11.2.23.38.32.58l.37.71.51,1a26.74,26.74,0,0,0-6-.08A19.25,19.25,0,0,0,189,32.33a1.06,1.06,0,0,0-.58,1.47l.26.5a1,1,0,0,0,1.37.47,20.54,20.54,0,0,1,21,3.17,1.07,1.07,0,0,0,1.45,0l.33-.35a1.08,1.08,0,0,0-.07-1.64,19.2,19.2,0,0,0-4.29-2.48,28.47,28.47,0,0,0-6.92-1.88l.5-.16.38-.11.31-.09a23.19,23.19,0,0,1,25,9.08c.17.24.33.49.5.74l-1.59.78h0c-1.34.59-2.89,1.22-4.27,1.9a25,25,0,0,0-2.31,1.25,1.05,1.05,0,0,0-.26,1.56l.33.41a1.07,1.07,0,0,0,1.47.17A32.32,32.32,0,0,1,234,41.34a1,1,0,0,0,.5-.28l.6-.05,2.11,0a46.49,46.49,0,0,1,8.18.79,61.39,61.39,0,0,1,14.41,4.47,38.67,38.67,0,0,1,10.19,6.39A18.44,18.44,0,0,1,271.32,54a19.26,19.26,0,0,1,2.91,4.39,16,16,0,0,1,0,13.24,21,21,0,0,1-4.3,6.14,29.38,29.38,0,0,1-14.32,7.69,34.65,34.65,0,0,1-8.74.89,36.18,36.18,0,0,1-4.51-.42l-.56-.1-1-.19-1.12-.22-.28-.06-.09.28-.18.54L238.55,88a6.39,6.39,0,0,1-.42,1,21.09,21.09,0,0,1-5.32,7.46,21.19,21.19,0,0,1-17.95,5.11,21.14,21.14,0,0,1-9.1-4c-.33-.26-.67-.52-1-.8l-.24-.21-.39-.37-.81-.77-.87-.85a7,7,0,0,0-.66.81l-1.32,1.73a44,44,0,0,1-3.55,3.93,38.4,38.4,0,0,1-8.6,6.32,36.16,36.16,0,0,1-21.22,4,39.63,39.63,0,0,1-10.83-2.83,42.78,42.78,0,0,1-5.07-2.53c-.28-.08-1.18-1-1.84-.54l-.26,0-.17,0-.33,0c-.22,0-.44,0-.65,0a9.38,9.38,0,0,1-2.63-.32,10.89,10.89,0,0,1-2.48-1c-.31-.17-.6-.37-.9-.57l.13,0A18.16,18.16,0,0,0,155,100.11a1.08,1.08,0,0,0,.16-1.56l-.37-.42a1.05,1.05,0,0,0-1.46-.12,17,17,0,0,1-3.92,2.53,14.26,14.26,0,0,1-7.09,1.3h0a14.29,14.29,0,0,1-6.66-2.75,17,17,0,0,1-3.3-3.29,1.06,1.06,0,0,0-1.45-.19l-.39.29a1.09,1.09,0,0,0-.23,1.61,18.24,18.24,0,0,0,8.12,5.45l-.59.49c-.18.15-.36.31-.56.45-.76.59-1.52,1.17-2.32,1.72a44.07,44.07,0,0,1-4.93,3,42.55,42.55,0,0,1-5.3,2.36,44.41,44.41,0,0,1-23,2.14,45.66,45.66,0,0,1-21.09-9.65L80,103c.32-.7.6-1.43.86-2.07h0A27,27,0,0,0,82,98.43c.11-.29.21-.58.29-.86a1.05,1.05,0,0,0-1.08-1.31h-.36a1.08,1.08,0,0,0-1.07,1,8.64,8.64,0,0,1-2.35,5.31,1,1,0,0,0-.25,1,18,18,0,0,1-2,1.56,14.7,14.7,0,0,1-16.08.06,18.14,18.14,0,0,1-4.3-3.71,21.09,21.09,0,0,1-1.7-2.28c-.25-.41-.53-.8-.74-1.22l-.48-.91c-.09-.16-.17-.32-.26-.47l-.54.09L49.36,97c-.47.09-1,.14-1.44.21-1,.14-1.92.24-2.88.33-1.92.17-3.85.28-5.77.26A50.2,50.2,0,0,1,17.18,93a31.43,31.43,0,0,1-8.95-6.48,22.93,22.93,0,0,1-5.42-9.31l0,0h0A22,22,0,0,1,2.52,66.19Z"/><path class="cls-3" d="M76.58,52.91a67.46,67.46,0,0,0,40.53.55c1.71-.45,3.35-1.11,5-1.68.82-.31,1.62-.68,2.44-1s1.62-.67,2.4-1.09l2.37-1.18c.78-.4,1.53-.87,2.3-1.3s1.54-.86,2.26-1.37l1.1-.74.47-.31.09.1,0,0,.23.2.52.46a18.28,18.28,0,0,0,2.24,1.66,19.57,19.57,0,0,0,5.05,2.26,19.22,19.22,0,0,0,9.93.26,1,1,0,0,0,.73-1.33l-.17-.57a1.06,1.06,0,0,0-1.26-.71,17.41,17.41,0,0,1-15.23-3.56l-.25-.21a3.23,3.23,0,0,1-.31-.29l-.79-.8-.4-.4s-.06-.08-.1-.08l-.13.08-.25.18-1,.69L132,44.42a.1.1,0,0,0-.05,0c-1.63,1-3.24,2-5,2.87s-3.45,1.66-5.17,2.42l-.06,0c-1.76.64-3.47,1.35-5.19,1.8h0A62.82,62.82,0,0,1,94.1,53.86l-2.68-.25h-.06L87.57,53l-.06,0-1.2-.25L84,52.27c-1.49-.4-2.88-.77-4.14-1.14l-2.38-.79a1.06,1.06,0,0,0-1.33.65l-.2.55A1.06,1.06,0,0,0,76.58,52.91Z"/><path class="cls-3" d="M146.47,66.88a1.07,1.07,0,0,0-1.47.18l-.36.46a1,1,0,0,0,.18,1.5,36.2,36.2,0,0,0,17.93,6.91,1,1,0,0,0,0,1.39,25.75,25.75,0,0,0,10.66,7.22,26.83,26.83,0,0,0,13.87,1.06,27.64,27.64,0,0,0,12.61-5.87,26.56,26.56,0,0,0,7.61-10.38,1.05,1.05,0,0,0-.63-1.38l-.55-.2a1.06,1.06,0,0,0-1.34.6,26.92,26.92,0,0,1-1.66,3.51A25,25,0,0,1,199.41,77a24.37,24.37,0,0,1-12.51,6.68h0a23.74,23.74,0,0,1-14-1.86,24,24,0,0,1-5.36-3.51,22,22,0,0,1-2.22-2.2,36.42,36.42,0,0,0,19.82-4.79,1.05,1.05,0,0,0,.35-1.48l-.31-.49A1.06,1.06,0,0,0,183.7,69a36.24,36.24,0,0,1-7.44,3.5,32,32,0,0,1-11.53,1.64h0a32.15,32.15,0,0,1-11.27-2.94A36.72,36.72,0,0,1,146.47,66.88Z"/><path class="cls-3" d="M23,78A26.4,26.4,0,0,0,46,71.93a41.94,41.94,0,0,0,41.82,4.72,1.06,1.06,0,0,0,.5-1.43l-.25-.52a1.05,1.05,0,0,0-1.39-.5,43.46,43.46,0,0,1-8.17,2.92A36.33,36.33,0,0,1,66.33,78h0a36.52,36.52,0,0,1-11.65-3.62A41.24,41.24,0,0,1,47.92,70c.2-.22.41-.44.6-.67a.77.77,0,0,0,.12-.24,19,19,0,0,0,10.89-2.64,1,1,0,0,0,.28-1.5l-.33-.46A1.05,1.05,0,0,0,58,64.22a17.67,17.67,0,0,1-3.49,1.88,14.88,14.88,0,0,1-6.29,1h0a14.87,14.87,0,0,1-6-2,17.88,17.88,0,0,1-3.14-2.4,1.05,1.05,0,0,0-1.47,0l-.4.41a1,1,0,0,0,0,1.52,18.73,18.73,0,0,0,8.32,4A24.16,24.16,0,0,1,43,71.39a20.86,20.86,0,0,1-6.65,4h0a21.21,21.21,0,0,1-7.69.9,26.71,26.71,0,0,1-5-.85,1.05,1.05,0,0,0-1.29.74l-.13.47A1.07,1.07,0,0,0,23,78Z"/></g></g></svg>