<svg xmlns="http://www.w3.org/2000/svg" viewBox="0 0 312.27 142.39"><defs><style>.cls-1{fill:#fff;}.cls-2{fill:#c4e3f2;}.cls-3{fill:#5aa3cf;}</style></defs><g id="Layer_2" data-name="Layer 2"><g id="Layer_1-2" data-name="Layer 1"><path class="cls-1" d="M1.4,86.34c0,2.68,1.74,5.21,4.54,7.51,7.87,6.48,24.14,11,33.67,11a28.81,28.81,0,0,0,6.91-.83c7.92,7.69,20,12,33.19,10.8a45.62,45.62,0,0,0,11.1-2.45c4.52,7.59,13.75,12.33,23.89,11.36a27,27,0,0,0,8.89-2.41A58,58,0,0,0,166.8,141c17.21,0,32.73-7.77,43.65-20.18a41.83,41.83,0,0,0,43.28-15.33c4.92.61,9.78.91,14.18,1.17,8.27.5,16.74,0,24.44-3s14.53-9,17.29-16.75c.21-.62.39-1.22.56-1.8,3-11.17-3.76-19.59-13.62-24.39-13.33-6.49-30.2-11.09-45.63-9.25a41.8,41.8,0,0,0-28.63-13.19,25.81,25.81,0,0,0-42.8-13.06C168.38,5.38,144.43-3.84,123,4.48a44.79,44.79,0,0,0-23.1,20.25,26.65,26.65,0,0,0-10.38-1.06C76,25,65.85,36,67,48.35c0,.36.12.73.17,1.11C55.5,52.18,46,59.21,41,68.2l-1.39-.36C20,62.9,1.4,76.11,1.4,86.34Z"/><path class="cls-2" d="M5.94,93.85c7.87,6.47,24.14,11,33.67,11a28.81,28.81,0,0,0,6.91-.82c7.92,7.69,20,12,33.19,10.8a45.62,45.62,0,0,0,11.1-2.45c4.52,7.59,13.75,12.33,23.89,11.36a26.77,26.77,0,0,0,8.89-2.42A58,58,0,0,0,166.8,141c17.21,0,32.73-7.77,43.65-20.19a41.85,41.85,0,0,0,43.28-15.32c4.92.6,9.78.91,14.18,1.17,8.27.49,16.74,0,24.44-3s14.53-8.94,17.29-16.74c.21-.62.39-1.22.56-1.81-5.22,3.49-14.32,7-21.91-2.72-16.38,10.7-37.89-1-45.5-19,.63,19-20.28,35.45-38.62,30.34A18.41,18.41,0,0,0,217,81.83a60,60,0,0,1-51.59-3.19c3.8,6.36,13,12.94,21.6,13.68-2.83,8.24-8.58,10.16-17.23,11.18A23.8,23.8,0,0,1,147.4,92.86c-4.64,6.87-13.73,8.12-22,7.15-13.14-1.55-23.6-13.21-22.72-21.48-8.56,7.7-14.13,5.06-17.41-6A22.36,22.36,0,0,1,45.51,79C41.82,88.29,28.61,102.13,5.94,93.85Z"/><path class="cls-3" d="M.08,87.61a9.69,9.69,0,0,0,1.51,3.66,16.59,16.59,0,0,0,3.28,3.54,37.06,37.06,0,0,0,7.82,4.84,74.65,74.65,0,0,0,17.17,5.53,54.18,54.18,0,0,0,9,1.06,27.69,27.69,0,0,0,4.63-.23c.77-.09,1.53-.22,2.29-.38l.29-.06.34.31a40.5,40.5,0,0,0,16,8.75,47.3,47.3,0,0,0,18.1,1.53,47.85,47.85,0,0,0,8.93-1.84l.77-.25.21.32c.21.33.47.63.7,1a23.24,23.24,0,0,0,3.22,3.43,27,27,0,0,0,17.15,6.49,28.63,28.63,0,0,0,9.19-1.3c.75-.23,1.48-.5,2.2-.79l.36-.15,1.44,1.52,1.63,1.57a59.45,59.45,0,0,0,32.13,15.67,58.75,58.75,0,0,0,18.1-.2,63.36,63.36,0,0,0,8.8-2.23,60.12,60.12,0,0,0,8.34-3.57,61.66,61.66,0,0,0,14.6-10.66c.54-.53,1.09-1,1.59-1.61l.77-.83.19-.21.09-.1,1.27.27c.75.15,1.51.26,2.26.37a43,43,0,0,0,9.14.29,43.39,43.39,0,0,0,25-10.31c1.16-1,2.26-2.06,3.31-3.16.52-.56,1-1.14,1.53-1.71l.72-.89.18-.22,0,0,2.8.3,3.58.31c2.39.19,4.78.33,7.16.47a73,73,0,0,0,14.54-.44,42.54,42.54,0,0,0,14-4.36,32,32,0,0,0,11.24-9.66,24.92,24.92,0,0,0,3.42-6.72c.17-.6.4-1.17.53-1.8l.38-1.83a.36.36,0,0,0,0-.11l.19-1.81s0-.06,0-.09c0-.63,0-1.26,0-1.9a17.59,17.59,0,0,0-2.07-7.42,25.09,25.09,0,0,0-4.59-6,48.32,48.32,0,0,0-5.67-4.69A58.13,58.13,0,0,0,280.17,52a77.57,77.57,0,0,0-14.35-2.36c-2.42-.13-4.84-.22-7.26-.15l-1.82.05-1.81.11c-.61,0-1.21.07-1.82.14l-1.63.16c-.24-.26-1.12-1.16-1.74-1.7q-.68-.65-1.38-1.23c-.48-.39-.94-.8-1.44-1.16a41.2,41.2,0,0,0-6.19-4,43.62,43.62,0,0,0-14-4.61L224.59,37h-.06l-1-.07h-.13s0,0,0-.08a18.69,18.69,0,0,0-.55-1.8,26.9,26.9,0,0,0-3.45-6.67,26.22,26.22,0,0,0-5.14-5.48,29.13,29.13,0,0,0-3-2.15l-.08-.05A30.31,30.31,0,0,0,207.83,19a25.74,25.74,0,0,0-7.25-2,27.85,27.85,0,0,0-7.52.08,27.51,27.51,0,0,0-7.2,2.14,29.38,29.38,0,0,0-3.31,1.8c-.53.34-1,.7-1.55,1.07l-.75.57-.4.33-.11-.17-.25-.39-1-1.52a.43.43,0,0,0,0-.07c-.35-.49-.72-1-1.08-1.45a48.94,48.94,0,0,0-4.8-5.57,46.81,46.81,0,0,0-11.89-8.58A46.5,46.5,0,0,0,132.13.59a30,30,0,0,0-3.61.73l-1.74.41a.38.38,0,0,0-.1,0l-1.7.56a42.91,42.91,0,0,0-6.81,2.79,45.3,45.3,0,0,0-11.83,8.69,46.31,46.31,0,0,0-4.74,5.63c-.71,1-1.38,2-2,3.08l-.31.54-.8-.2a28.36,28.36,0,0,0-14.85.58,26.64,26.64,0,0,0-12.47,8.13,22.57,22.57,0,0,0-4,6.44,21.47,21.47,0,0,0-1.66,7.41,13.54,13.54,0,0,0,0,1.91l0,1.08-.08,0c-.6.14-1.19.31-1.78.51a43.26,43.26,0,0,0-6.84,2.71A41.15,41.15,0,0,0,45,60.35a36,36,0,0,0-4.52,5.89l-.19.31-.09,0L40,66.47l-.78-.18C38,66,36.8,65.8,35.57,65.64a37.65,37.65,0,0,0-14.71,1.09A36.28,36.28,0,0,0,7.67,73.38a25.27,25.27,0,0,0-5.15,5.51A14.67,14.67,0,0,0,.06,85.08,11.27,11.27,0,0,0,.08,87.61ZM2.9,85.38A12.09,12.09,0,0,1,5,80.29,23.42,23.42,0,0,1,10.19,75a34.63,34.63,0,0,1,15-6.37,35.21,35.21,0,0,1,8.85-.36,33.85,33.85,0,0,1,4.53.72l.56.13.16,0,.25.07.5.13,1,.26.5.13a.08.08,0,0,0,.12,0,17.68,17.68,0,0,1,8.15,6.2,1.1,1.1,0,0,0,1.48.32l.4-.25A1.14,1.14,0,0,0,52,74.25a18.56,18.56,0,0,0-1.41-1.33c-1-.85-2.19-1.66-3.19-2.38h0c-1-.77-2.07-1.67-3.17-2.41-.4-.27-.78-.5-1.16-.72.15-.26.3-.47.49-.75A34.15,34.15,0,0,1,50,59.48,39,39,0,0,1,58.33,54a42.59,42.59,0,0,1,4.76-2c.82-.28,1.66-.54,2.5-.78l1.82-.48a6.51,6.51,0,0,0,1.2-.36l-.19-1.27-.09-.64,0-.24V48l0-.64-.05-1.21a.29.29,0,0,1,0-.13c.08-.83.07-1.68.23-2.5A17.21,17.21,0,0,1,69,41c.13-.41.23-.84.39-1.25l.5-1.21A23.55,23.55,0,0,1,86.35,25.41a25.52,25.52,0,0,1,11.24-.1l.7.16.26.07a19.31,19.31,0,0,0-10.14,8,1.14,1.14,0,0,0,.42,1.6l.53.27A1.1,1.1,0,0,0,90.84,35a18,18,0,0,1,3.37-4.32,15.33,15.33,0,0,1,7.35-3.87h0a15.43,15.43,0,0,1,8.24,1,18.36,18.36,0,0,1,4.67,2.84,1.11,1.11,0,0,0,1.55-.11l.39-.45a1.12,1.12,0,0,0-.17-1.64,19.27,19.27,0,0,0-15-3.68v0l.49-.84c.12-.21.24-.42.38-.62l.78-1.25a47.72,47.72,0,0,1,3.59-4.69,43.35,43.35,0,0,1,20-12.95,25.36,25.36,0,0,1,3-.8,25.63,25.63,0,0,1,3-.61c1-.13,2-.29,3-.41h.08l3.05-.15A47.39,47.39,0,0,1,151,4a48.78,48.78,0,0,1,11.54,4.95,45.08,45.08,0,0,1,9.82,8c.7.8,1.47,1.53,2.11,2.39l1.93,2.54c.33.41.58.89.87,1.33l1,1.56.28.45c-.42-.1-.83-.2-1.26-.28a24.16,24.16,0,0,0-21.64,7.17,1.1,1.1,0,0,0,.11,1.6l.47.4a1.12,1.12,0,0,0,1.53-.09,22.28,22.28,0,0,1,11-6.5,20.09,20.09,0,0,1,16.91,3.3h0a21.13,21.13,0,0,1,4.81,5,20.39,20.39,0,0,1,1.6,2.78l0,.07c.2.47.37.84.58,1.37.27.74.52,1.44.77,2.11.43-.17.85-.35,1.29-.5l.65-.23.4-.11a10.32,10.32,0,0,1,1.43-.22,9.93,9.93,0,0,1,2.74.14,9.29,9.29,0,0,1,4.32,2.07,10,10,0,0,1,3.16,5.09,1.13,1.13,0,0,0,1.25.85l.6-.09a1.13,1.13,0,0,0,.93-1.39,12.41,12.41,0,0,0-6-7.7,12.24,12.24,0,0,0-5.37-1.48,12.44,12.44,0,0,0-2.79.19l-.69.15-.62.17h0l0-.1-.63-1.35a.25.25,0,0,1,0-.07l-.72-1.3,0-.06-.82-1.28a24.51,24.51,0,0,0-4.15-4.6,24.07,24.07,0,0,0-8-4.6l.43-.38.5-.43.35-.29a25,25,0,0,1,11.37-5.18,22.12,22.12,0,0,1,3.15-.32,27.07,27.07,0,0,1,3.12,0h.08a24.82,24.82,0,0,1,6.14,1.31,23.92,23.92,0,0,1,5.66,2.81,26.62,26.62,0,0,1,2.49,1.88l.08.06a28.67,28.67,0,0,1,2.2,2.21,24,24,0,0,1,3.59,5.19L220.1,34l0,.09.55,1.43.28.74.21.76.27.93.16.6.09.3s0,.11.05.14h.15l2.09.14c.53,0,1.06.12,1.59.17,1.06.11,2.11.31,3.15.51a40.51,40.51,0,0,1,6.13,1.76,41.12,41.12,0,0,1,11,6.21c.82.67,1.64,1.33,2.41,2.06l.56.53a24.87,24.87,0,0,0-15.54-.21,1.11,1.11,0,0,0-.69,1.44l.22.57a1.12,1.12,0,0,0,1.41.67,23.79,23.79,0,0,1,6.45-1.35,20.46,20.46,0,0,1,9.55,1.65h0a20.35,20.35,0,0,1,7.41,6.24,24,24,0,0,1,3.13,5.79,1.12,1.12,0,0,0,1.42.66l.49-.18a1.13,1.13,0,0,0,.75-1.48A24.9,24.9,0,0,0,252.5,52l.28,0c.53,0,1.06-.12,1.59-.14,1-.06,2.11-.16,3.17-.18a75.08,75.08,0,0,1,24.77,3.16,58.16,58.16,0,0,1,11.28,4.83c.88.51,1.73,1.06,2.59,1.58s1.7,1.12,2.51,1.72a44.2,44.2,0,0,1,4.69,3.77l0,0h0a21.4,21.4,0,0,1,6.16,9.1,16.5,16.5,0,0,1,.6,5.46L310,82.65c0,.46-.18.91-.26,1.37a23.42,23.42,0,0,1-.76,2.69A25.14,25.14,0,0,1,303,96a32,32,0,0,1-9.07,6.23c-6.66,3.05-13.95,3.91-20.75,3.88-3.41,0-6.75-.27-10-.49-1.62-.11-3.2-.24-4.76-.38l-2.31-.24-1.62-.19a1.12,1.12,0,0,0-.77-.65,30.47,30.47,0,0,1-14.49-8.22,1.1,1.1,0,0,0-1.55-.06l-.42.38a1.11,1.11,0,0,0,0,1.66,26.64,26.64,0,0,0,2.72,2c1.56,1,3.35,2,4.91,2.88h0c1.53.9,3.29,1.93,5,2.73.72.35,1.43.65,2.09.91-.16.2-.32.4-.5.59-.58.66-1.17,1.32-1.8,1.94a42.49,42.49,0,0,1-3.95,3.51,41.67,41.67,0,0,1-9.05,5.34,41.21,41.21,0,0,1-20.46,3.07c-.86-.08-1.72-.21-2.57-.35l-1.27-.24c-.47-.1-.72-.15-1.52-.34-.76-.48-1.15.48-1.62.88l-.89.95c-.58.65-1.21,1.24-1.83,1.85a61.81,61.81,0,0,1-8,6.54,56.89,56.89,0,0,1-18.57,8.23,55.53,55.53,0,0,1-38.44-4.67,58.2,58.2,0,0,1-8.12-5.07,63.08,63.08,0,0,1-7.09-6.23l-1.06-1.12c.83-.82,1.67-1.74,2.44-2.5h0c.88-.77,1.93-1.61,2.86-2.44.47-.42.91-.84,1.27-1.23a1.11,1.11,0,0,0-.21-1.69l-.43-.28a1.13,1.13,0,0,0-1.53.31,25.91,25.91,0,0,1-7.41,6.93,1.27,1.27,0,0,0-.37.4l-.52.2a25.54,25.54,0,0,1-4.35,1.21,26.12,26.12,0,0,1-8.86.09,24.34,24.34,0,0,1-8.19-2.85A22.6,22.6,0,0,1,93.45,114l-.63-.84c-.22-.29-.31-.47-.76-1.16l-.56-.86-.14-.21c0-.06-.06-.06-.1,0l-.12,0-.49.16-1.62.55c-1.36.43-2.73.79-4.1,1.08a45.16,45.16,0,0,1-8.3,1,43,43,0,0,1-15.8-2.47A39.18,39.18,0,0,1,53.88,108l-1.59-1c-.52-.36-1-.73-1.52-1.09s-1.11-.91-1.68-1.34a.15.15,0,0,1-.06,0l-1.14-1-.69-.63-.17-.16c-.06,0-.11-.14-.19-.09l-.45.1-.89.21-.44.09c-.59.11-1.18.21-1.77.29a30,30,0,0,1-3.53.23,46.58,46.58,0,0,1-7-.63,68.13,68.13,0,0,1-6.71-1.42c-2.18-.56-4.29-1.22-6.32-1.94a50.21,50.21,0,0,1-11-5.35,19.34,19.34,0,0,1-4.11-3.6,7.35,7.35,0,0,1-1.66-3.26A6.3,6.3,0,0,1,2.9,85.38Z"/><path class="cls-3" d="M94.72,76.3a22.05,22.05,0,0,0,4.91,1.84c.74.18,1.5.33,2.26.48a1.09,1.09,0,0,0-.66,1A15.71,15.71,0,0,0,103.51,87,26.81,26.81,0,0,0,111,95.08a29.66,29.66,0,0,0,11,5,30.94,30.94,0,0,0,6,.78,38.26,38.26,0,0,0,5.79-.16h0a21.43,21.43,0,0,0,11.14-4l1.16-1,.08-.07.9-.94.37-.43c.11.15.21.34.3.49l.06.09.23.31.47.61c.31.41.67.77,1,1.15s.7.73,1.06,1.08.73.69,1.11,1a25.56,25.56,0,0,0,9.78,5.16,24.08,24.08,0,0,0,7.4.79,1.12,1.12,0,0,0,1-1.25l-.07-.61a1.12,1.12,0,0,0-1.2-1,22.71,22.71,0,0,1-17-6.46,21.79,21.79,0,0,1-1.64-1.84l-.2-.24-.09-.12s-.17-.2-.21-.26l-.75-1.09-.75-1.1-.38-.54c-.06-.17-.13,0-.19.08l-.2.27L145.52,93a8.05,8.05,0,0,1-.58.65l-.4.44a14.77,14.77,0,0,1-1.84,1.51,19.49,19.49,0,0,1-9.2,3.11,35.42,35.42,0,0,1-5.05.13c-.85,0-1.69-.11-2.54-.2s-1.64-.27-2.46-.39a27.61,27.61,0,0,1-16.37-10.71,19.11,19.11,0,0,1-2.28-4.3,12,12,0,0,1-.7-3.59,1.1,1.1,0,0,0-.28-.69,64.36,64.36,0,0,0,6.85.66h0c1.75.09,3.62.15,5.51.1a54.16,54.16,0,0,0,5.61-.47,39.61,39.61,0,0,0,7.67-1.85,1.11,1.11,0,0,0,.63-1.48l-.24-.57a1.11,1.11,0,0,0-1.44-.59,42.92,42.92,0,0,1-17.64,2.81,44.8,44.8,0,0,1-9.42-1.5,18.25,18.25,0,0,1-7.23-3.53,1.1,1.1,0,0,0-1.48.06L92.2,73a1.12,1.12,0,0,0,0,1.65A14,14,0,0,0,94.72,76.3Z"/></g></g></svg>