<svg xmlns="http://www.w3.org/2000/svg" viewBox="0 0 225.07 131.79"><defs><style>.cls-1{fill:#fff;}.cls-2{fill:#c4e3f2;}.cls-3{fill:#5aa3cf;}</style></defs><g id="Layer_2" data-name="Layer 2"><g id="Layer_1-2" data-name="Layer 1"><path class="cls-1" d="M1.45,70.65A26.17,26.17,0,0,0,5.36,82.16a29,29,0,0,0,20.18,13C28,104,36.82,110.14,46.84,109.44c8.85,12.74,23.06,21,39.09,21a47.16,47.16,0,0,0,35.59-16.53c6.19,3.62,13.35,4.47,19.69,1.66a20.17,20.17,0,0,0,9.55-9,21.34,21.34,0,0,0,16,7.66c10.36,0,19.14-8.09,22.13-19.27,2.23,0,4.42,0,6.52-.2,8.33-.65,16.82-3.88,22.51-10.68.47-.56.91-1.12,1.31-1.69h0c10.82-15,.37-32.48-14.45-38.18a52,52,0,0,0-25.07-2.85,22.21,22.21,0,0,0-13-11.23A22.55,22.55,0,0,0,156,29.5a12.48,12.48,0,0,0-12.43-7.09,13.28,13.28,0,0,0-1.92.35,33.16,33.16,0,0,0-63.57,5.31,27.16,27.16,0,0,0-16-3.36c-10.64,1-19.23,7.81-22.48,16.72a30.75,30.75,0,0,0-11.51-1.08C11.92,41.87,0,55.44,1.45,70.65Z"/><path class="cls-2" d="M5.36,82.16a29,29,0,0,0,20.18,13C28,104,36.82,110.14,46.84,109.44c8.85,12.74,23.06,21,39.09,21a47.16,47.16,0,0,0,35.59-16.53c6.19,3.62,13.35,4.47,19.69,1.66a20.12,20.12,0,0,0,9.55-9,21.34,21.34,0,0,0,16,7.66c10.36,0,19.14-8.09,22.13-19.27a63.38,63.38,0,0,0,6.52-.2c8.33-.65,16.82-3.87,22.51-10.68.47-.56.91-1.11,1.31-1.69-.53.09-1,.16-1.59.2a20.32,20.32,0,0,1-20.14-12.87c-3.2,6.77-14.32,7.55-18.42,1.3a9.83,9.83,0,0,0,7.64-7,14.77,14.77,0,0,1-19.22-1A15.8,15.8,0,0,0,176,71.45c-6.93,10.31-23.66,12-32.48,3.23a7.16,7.16,0,0,1-13.42,5A21.85,21.85,0,0,1,90.63,72a20.79,20.79,0,0,0,16.48-9.85,32.34,32.34,0,0,1-33.2-2.52,18.37,18.37,0,0,0,10,11c-3.57,9.06-17.65,11.44-24,4a14.13,14.13,0,0,1-14.86,5.58A14.15,14.15,0,0,1,34.83,68.16a10.83,10.83,0,0,1-13.21,2,15.08,15.08,0,0,1-10,11.47A14.69,14.69,0,0,1,5.36,82.16Z"/><path class="cls-3" d="M220.36,54.82a31.88,31.88,0,0,0-6.88-7.22,33,33,0,0,0-8.72-4.8,50.8,50.8,0,0,0-9.51-2.48,53.46,53.46,0,0,0-9.79-.71,45,45,0,0,0-4.92.34c-.1,0,0,0-.07,0l-.06-.11-.2-.33a21.34,21.34,0,0,0-1.39-2.11,23,23,0,0,0-17.25-9.52c-.84-.05-1.69-.06-2.53,0-.43,0-.85.05-1.27.09l-.63.06-.31,0h-.09l-.44-.7a13.23,13.23,0,0,0-1.65-2.08,13.72,13.72,0,0,0-9.47-4.2,10.16,10.16,0,0,0-2.64.2h-.1l-.08-.18a38.51,38.51,0,0,0-2.29-4.42A36.7,36.7,0,0,0,133.7,9a33.71,33.71,0,0,0-8.22-5.56,35.4,35.4,0,0,0-9.47-3A34.22,34.22,0,0,0,81.62,15.86a35.73,35.73,0,0,0-4.13,9,10.66,10.66,0,0,0-.31,1.16v0L77,26a28.43,28.43,0,0,0-4.72-1.74,29.37,29.37,0,0,0-19.65,1.61,28.38,28.38,0,0,0-8.24,5.69,26.56,26.56,0,0,0-3.2,3.9c-.5.66-.87,1.41-1.31,2.12l0,.06-.55,1.1-.28.57-.21.53h0l-.1,0c-.81-.2-1.63-.37-2.45-.51a32,32,0,0,0-5-.42,27.64,27.64,0,0,0-5,.38L25,39.43c-.41.06-.81.18-1.22.27-.8.22-1.63.35-2.42.63a31.4,31.4,0,0,0-16,11.44A28.62,28.62,0,0,0,0,69.7c0,.59.12,1.57.2,2.16A27.46,27.46,0,0,0,3.85,82.27,29.51,29.51,0,0,0,12,91.13a30.89,30.89,0,0,0,11,5,15,15,0,0,0,1.48.31h.05l.05.15.12.37a6.24,6.24,0,0,0,.27.72c.21.48.41,1,.63,1.43a20.49,20.49,0,0,0,3.57,5,21.88,21.88,0,0,0,10.56,6,22.36,22.36,0,0,0,6.09.66h.38l.66.9c.57.81,1.22,1.56,1.85,2.32A50.09,50.09,0,0,0,67.6,128.09a47.52,47.52,0,0,0,23.33,3.44,48,48,0,0,0,22.1-8.22,55.14,55.14,0,0,0,4.68-3.67c.74-.65,1.48-1.32,2.17-2,.35-.35.71-.69,1.05-1l.87-1,.12.07.14.08.66.32a25.6,25.6,0,0,0,2.81,1.17,23.45,23.45,0,0,0,6,1.28,20.87,20.87,0,0,0,16.81-6.31,22.19,22.19,0,0,0,2-2.36,7.07,7.07,0,0,0,.44-.63l.27-.39.44.44.61.55a23.29,23.29,0,0,0,2.61,2,22.84,22.84,0,0,0,6,2.86,21.17,21.17,0,0,0,13.1-.27,24.31,24.31,0,0,0,10.64-7.53,32.06,32.06,0,0,0,3.56-5.47,31.33,31.33,0,0,0,1.29-3,14.66,14.66,0,0,0,.54-1.53l.12-.39,0-.16h1.16c.73,0,1.46,0,2.19-.07,1.45-.06,2.9-.18,4.37-.36a38.75,38.75,0,0,0,8.6-2.11,32.45,32.45,0,0,0,7.84-4.22,29.54,29.54,0,0,0,5.84-5.82H220l.39-.56a29.48,29.48,0,0,0,2.55-4.35,25.23,25.23,0,0,0,1.63-4.81,23,23,0,0,0-.08-10.1A26.93,26.93,0,0,0,220.36,54.82ZM24.5,96.4Zm198-22.14a23,23,0,0,1-3.57,7.61l-.16.22a27,27,0,0,1-6.58,6.44,30.66,30.66,0,0,1-7.79,3.84,37.22,37.22,0,0,1-7.93,1.68c-1.29.13-2.58.21-3.84.25l-1.86,0h-1.54a1.06,1.06,0,0,0-1,.75l-.47,1.54c-.19.58-.43,1.15-.65,1.72a25.33,25.33,0,0,1-1.56,3.23,26.31,26.31,0,0,1-4.1,5.52,21.3,21.3,0,0,1-10.87,6.06,20.4,20.4,0,0,1-5.76.24,19.44,19.44,0,0,1-5.28-1.37,21.4,21.4,0,0,1-4.5-2.6,22.88,22.88,0,0,1-1.91-1.61,5.93,5.93,0,0,1-.44-.43l-.3-.29-.36-.38-.92-1a25.43,25.43,0,0,0,3.77-1.87,18.81,18.81,0,0,0,3.26-2.48,1.06,1.06,0,0,0-.07-1.59l-.42-.34a1.08,1.08,0,0,0-1.47.13,19.54,19.54,0,0,1-17,6,1.06,1.06,0,0,0-1.22.82l-.12.52a1.06,1.06,0,0,0,.93,1.28,18.64,18.64,0,0,0,4.11-.09,29,29,0,0,0,6.21-1.59h0l1.09-.4-.26.45-.4.67a6.06,6.06,0,0,1-.35.56c-.34.5-.69,1-1.06,1.46a19.69,19.69,0,0,1-2.49,2.59,18.27,18.27,0,0,1-6.12,3.51,20,20,0,0,1-13.69-.44c-.39-.14-.77-.31-1.15-.47a1,1,0,0,0-.63-.72,16.44,16.44,0,0,1-1.77-.77,10.56,10.56,0,0,1-3.1-2.31h0a10.68,10.68,0,0,1-1.76-3.44,18.54,18.54,0,0,1-.45-1.88,1.05,1.05,0,0,0-1.28-.82l-.5.12a1.06,1.06,0,0,0-.76,1.37,17.15,17.15,0,0,0,5.65,8.24c-.36.39-.7.78-1.08,1.15a52.16,52.16,0,0,1-5.19,4.58,46.33,46.33,0,0,1-11.81,6.55,44.68,44.68,0,0,1-25.38,1.84,46.25,46.25,0,0,1-21-10.91c-.72-.64-1.39-1.33-2.07-2s-1.29-1.39-1.94-2.08-1.19-1.44-1.79-2.15c-.29-.36-.55-.75-.83-1.12l-1-1.43-.2-.27c-.07-.07-.1-.23-.24-.18h-.67l-1.83,0H44.7c-.54-.07-1.09-.05-1.63-.12L41.78,108a21.7,21.7,0,0,1-4.89-1.51,21,21,0,0,1-4.23-2.63,19.53,19.53,0,0,1-3.29-3.52,17.94,17.94,0,0,1-2.17-4.13l-.54-1.65-.09-.29-.05-.14s-.09,0-.14,0l-.59-.11-1-.18c-.77-.13-1.52-.34-2.26-.52A27.73,27.73,0,0,1,8.31,84a25.12,25.12,0,0,1-5.4-12.43c-.08-.57-.16-1.49-.19-2.07a24.67,24.67,0,0,1,1.55-10,26.85,26.85,0,0,1,7.06-10.41,28.71,28.71,0,0,1,12.24-6.59L25.31,42l.1,0,1.79-.26A23.53,23.53,0,0,1,31,41.48a29.33,29.33,0,0,1,3.84.24c.64.07,1.28.18,1.92.3.32.07.64.13,1,.21l.51.12,1,.25.95.26c.07,0,.18.08.22,0l.09-.23.19-.45.65-1.6c.24-.61.57-1.19.85-1.78a24.92,24.92,0,0,1,2.19-3.34,25.32,25.32,0,0,1,6-5.51,26.84,26.84,0,0,1,16.28-4.19,26.19,26.19,0,0,1,6.57,1.29,16.69,16.69,0,0,0-9.28,4.24,1.07,1.07,0,0,0,0,1.57l.4.38a1.05,1.05,0,0,0,1.47,0A15.19,15.19,0,0,1,69,30.66a12.77,12.77,0,0,1,6.38-1.77h0a10.66,10.66,0,0,1,2.86.49l.27.14.23.12s.08,0,.08,0v-.05A13.38,13.38,0,0,1,81.66,31a15.2,15.2,0,0,1,3.17,2.73,1,1,0,0,0,1.46.09l.43-.37a1.07,1.07,0,0,0,0-1.57,16.8,16.8,0,0,0-7.46-4.3l.24-1A33.39,33.39,0,0,1,81,22.2,32.57,32.57,0,0,1,92.54,7.87a31.68,31.68,0,0,1,8.53-4.15,32.63,32.63,0,0,1,9.49-1.45,32.55,32.55,0,0,1,25.51,12.49,20.46,20.46,0,0,1,1.46,2l.67,1a.56.56,0,0,1,.05.08l.59,1A21.7,21.7,0,0,1,140,21.06l.53,1.18.42.93.21.46a2.89,2.89,0,0,0,.49-.07l1.64-.3a9.4,9.4,0,0,1,1.19-.11,11.78,11.78,0,0,1,6.76,2,12,12,0,0,1,3.33,3.39l.32.5.18.35a18.72,18.72,0,0,0-13.82,2.4,1.06,1.06,0,0,0-.27,1.5l.34.47a1,1,0,0,0,1.44.25,17.85,17.85,0,0,1,4.49-2.23,14.86,14.86,0,0,1,7.65-.44h0a14.7,14.7,0,0,1,6.63,3.82,17.2,17.2,0,0,1,3,4,1.07,1.07,0,0,0,1.41.41l.5-.27a1.06,1.06,0,0,0,.4-1.51,18.73,18.73,0,0,0-9.41-7.71c.68-.08,1.34-.13,2-.15a20.95,20.95,0,0,1,17.16,7.94c.51.63,1,1.3,1.43,2,.22.37.41.65.66,1.1l.42.77.22.39c0,.09.11.05.19,0l.23,0,1.56-.2,1.24-.11c.82-.08,1.64-.12,2.47-.15a52.13,52.13,0,0,1,9.83.65c6.44,1.06,12.8,3.12,17.77,7.15a27.29,27.29,0,0,1,10,15.42v0h0A20.7,20.7,0,0,1,222.48,74.26Z"/><path class="cls-3" d="M176.18,71.66a1.07,1.07,0,0,0-1.48,0,24,24,0,0,1-28.14,2.79,17.42,17.42,0,0,0,2.61-1A12.83,12.83,0,0,0,152,71.58a1.05,1.05,0,0,0,0-1.61l-.4-.34a1.06,1.06,0,0,0-1.41.05,13.14,13.14,0,0,1-13.9,2.8,1.05,1.05,0,0,0-1.32.5l-.24.47a1.05,1.05,0,0,0,.6,1.49,12.63,12.63,0,0,0,3.28.6,20.32,20.32,0,0,0,5.39-.5,1,1,0,0,0,.44,1.21,24.19,24.19,0,0,0,6.53,2.62,30.12,30.12,0,0,0,9.92.71h0a30,30,0,0,0,9.67-2.32,24,24,0,0,0,6-3.65,1,1,0,0,0,.06-1.54Z"/><path class="cls-3" d="M88.11,92.05a1.08,1.08,0,0,0-1.5-.33,24.69,24.69,0,0,1-35.69-9.81,15,15,0,0,0,2.75-1.13,14,14,0,0,0,6.08-6.36A1.08,1.08,0,0,0,59.13,73l-.55-.19a1.05,1.05,0,0,0-1.31.58,11.28,11.28,0,0,1-2.05,3.06A12.29,12.29,0,0,1,50,79.74a11.78,11.78,0,0,1-3.42.57,10.48,10.48,0,0,1-3.49-.62,11.57,11.57,0,0,1-5.48-4.31h0a11.7,11.7,0,0,1-1.8-4.3A11,11,0,0,1,35.63,70c0-.13,0-.48-.05-.76a6.25,6.25,0,0,1,0-.95c.1-1.34.27-2.61.41-3.74-.59.61-1.1,1.19-1.76,1.84l-1,1a6.7,6.7,0,0,1-.94.75,10.6,10.6,0,0,1-2.27,1.12,11.41,11.41,0,0,1-4.43.56,10.69,10.69,0,0,1-3.6-.87A9.07,9.07,0,0,1,20.46,68a1.05,1.05,0,0,0-1.42.17l-.38.45a1.07,1.07,0,0,0,.21,1.57,12.89,12.89,0,0,0,8.42,2.08,13.51,13.51,0,0,0,4.76-1.34l1.1-.61.41-.29h0l0,.49.24,1.24a14.72,14.72,0,0,0,2,4.59,13.83,13.83,0,0,0,8,5.83,12.91,12.91,0,0,0,4.33.29.38.38,0,0,0,0,.1,25.68,25.68,0,0,0,5.92,7.74,29.47,29.47,0,0,0,11.61,6.38h0A29.54,29.54,0,0,0,79,97.4,25.86,25.86,0,0,0,88.11,94a1.05,1.05,0,0,0,.29-1.51Z"/></g></g></svg>