<svg xmlns="http://www.w3.org/2000/svg" viewBox="0 0 335.01 139.41"><defs><style>.cls-1{fill:#fff;}.cls-2{fill:#c4e3f2;}.cls-3{fill:#5aa3cf;}</style></defs><g id="Layer_2" data-name="Layer 2"><g id="Layer_1-2" data-name="Layer 1"><path class="cls-1" d="M333.64,70.7c-.82,19.57-19.08,34.7-40.8,33.8a41,41,0,0,1-4.32-.41c0,.47,0,.92-.11,1.39a12.39,12.39,0,0,1-20.84,7.3,26.19,26.19,0,0,1-25.42,10.93,27.63,27.63,0,0,1-8.56-2.62c-9.33,11.11-23.06,17.89-38.1,17.25S167.36,129.86,159,118a10,10,0,0,1-7.85-.29,10.58,10.58,0,0,1-5.57-9.21,26.29,26.29,0,0,1-4.95.27,27.37,27.37,0,0,1-18.54-8.54A27.81,27.81,0,0,1,78.9,90.89C73.18,96.23,64.39,99.05,55,97.78a30.64,30.64,0,0,1-17.15-8.09,54.57,54.57,0,0,1-7.83.22c-10.6-.44-19.8-3.73-25-8.37-2.94-2.63-4.6-5.7-4.47-8.9C1,63.8,14.76,57.19,31.39,57.88a57.09,57.09,0,0,1,6.7.69A28.86,28.86,0,0,1,57.74,52c3.66-6.29,9.58-10.62,16.58-11.28C82,40,89.26,43.91,94.08,50.44a19.63,19.63,0,0,1,20-15.51l.46,0c2.46-7.71,8-13.73,15.66-15.82,6.65-1.82,13.64-.33,19.6,3.55a12.42,12.42,0,0,1,20.34,2.67c10.56-16.24,30.41-23,46.54-15.1a32,32,0,0,1,9.08,6.65A33.22,33.22,0,0,1,262,2.17a32.88,32.88,0,0,1,22.66,20.37,12.38,12.38,0,0,1,18.31,12c13.75,2.88,24.69,12.2,28.87,24.1A32.29,32.29,0,0,1,333.64,70.7Z"/><path class="cls-2" d="M333.64,70.7c-.82,19.57-19.08,34.7-40.8,33.8a41,41,0,0,1-4.32-.41c0,.47,0,.92-.11,1.39a12.39,12.39,0,0,1-20.84,7.3,26.19,26.19,0,0,1-25.42,10.93,27.63,27.63,0,0,1-8.56-2.62c-9.33,11.11-23.06,17.89-38.1,17.25S167.36,129.86,159,118a10,10,0,0,1-7.85-.29,10.58,10.58,0,0,1-5.57-9.21,26.29,26.29,0,0,1-4.95.27,27.37,27.37,0,0,1-18.54-8.54A27.81,27.81,0,0,1,78.9,90.89C73.18,96.23,64.39,99.05,55,97.78a30.64,30.64,0,0,1-17.15-8.09,54.57,54.57,0,0,1-7.83.22c-10.6-.44-19.8-3.73-25-8.37A34.54,34.54,0,0,0,28.7,75.16C43.54,87.42,66.53,88.54,82.49,77.8L75.15,67.28c14.95,13.53,40,14,55.48,1.12a29.42,29.42,0,0,1-13.35-11.23,53.16,53.16,0,0,0,50.9,3.56,26.9,26.9,0,0,1-27.25,11.61c5.91,9,14.29,17.49,25,19.1S188.94,84.7,188,74A30.84,30.84,0,0,0,219,63.37c6.88,9.71,22.56,11.48,31.43,3.55,9.18,9,27.29,5.1,31.88-7A18.61,18.61,0,0,1,269,54.73,37.67,37.67,0,0,0,299,50a11.88,11.88,0,0,1-7.83,8.31c6.15,12.19,22.47,8.91,26.9-2.6,5.52,6.58,9.82,5.92,13.77,2.87A32.29,32.29,0,0,1,333.64,70.7Z"/><path class="cls-3" d="M335,69.68a32.85,32.85,0,0,0-2.2-12.22,36.87,36.87,0,0,0-9.31-13.81,42,42,0,0,0-19.1-10.13l-.09,0s0,0,0-.06v-.13l0-.77a13.49,13.49,0,0,0-.67-3.46,13.86,13.86,0,0,0-4.1-6.1,14.27,14.27,0,0,0-3.31-2.09,14.57,14.57,0,0,0-3.89-1.08,13.37,13.37,0,0,0-4.18.13,13.9,13.9,0,0,0-2.08.56l-.51.19-.16.07-.06,0v0l-.09-.19c-.24-.6-.59-1.24-.93-2a36,36,0,0,0-3.09-4.94,34.33,34.33,0,0,0-13-10.56A34.59,34.59,0,0,0,258,.23a34.15,34.15,0,0,0-11.87.7A35.26,35.26,0,0,0,234.31,6.3c-.91.65-1.79,1.35-2.66,2.08,0,0,0,0,0,0-.83.77-1.71,1.5-2.47,2.36-.39.43-.8.84-1.18,1.28l-1.1,1.37a13.39,13.39,0,0,0-1,1.43l-.21.3a1.88,1.88,0,0,0-.2-.19c-.46-.43-1-.9-1.59-1.4a33.93,33.93,0,0,0-4.52-3.15,23.16,23.16,0,0,0-3-1.5,28.3,28.3,0,0,0-3.44-1.33L211,7c-.65-.17-1.33-.28-2-.42A30.45,30.45,0,0,0,204.69,6a37,37,0,0,0-19.06,4.06,42,42,0,0,0-9,6.18c-.71.61-1.34,1.31-2,2-.33.34-.68.65-1,1l-.92,1.09-1,1.17a1,1,0,0,0-.79.42,16.12,16.12,0,0,0-.95,1.4l-.37-.51a13.08,13.08,0,0,0-2-2.05,13.32,13.32,0,0,0-17.67.49l-.12.11-.07.07-.12.14a2.22,2.22,0,0,1-.44-.25l-.11-.07-.24-.13-.5-.28c-.33-.19-.67-.36-1-.53a25.68,25.68,0,0,0-9.24-2.67A22.67,22.67,0,0,0,128,19a22.21,22.21,0,0,0-8.81,6.14A25.36,25.36,0,0,0,116,29.67a24.78,24.78,0,0,0-1.22,2.48c-.17.43-.36.85-.51,1.29l-.16.45a1,1,0,0,1-.1.26,1.77,1.77,0,0,0-.32,0h-.77a12.42,12.42,0,0,0-1.72.11,11.2,11.2,0,0,0-1.71.25l-.86.16-.85.24A20.33,20.33,0,0,0,101.33,38a20.61,20.61,0,0,0-5.12,5.4c-.35.51-.63,1.07-.94,1.61l0,.06c-.28.55-.52,1.11-.78,1.67l0,.09-.31.87a4.63,4.63,0,0,0-.15.44l-.11.42-.06.21s0,.1,0,.09l-.07-.09a8.77,8.77,0,0,0-.56-.68l-.19-.22c-.11-.12-.21-.25-.33-.36l-.69-.71a25,25,0,0,0-3-2.57,22.76,22.76,0,0,0-7.25-3.54A20.49,20.49,0,0,0,65.51,43a23.88,23.88,0,0,0-6.3,5.69c-.44.55-.84,1.14-1.25,1.74l-.47.76c-.06.06-.07.2-.17.18H56l-1.07,0c-.71,0-1.43.09-2.14.2a30.27,30.27,0,0,0-8.31,2.23,28.71,28.71,0,0,0-3.84,2c-.6.39-1.21.8-1.78,1.24l-.43.33-.37.31c-.08,0-.14.15-.23.15l-.28,0a56.22,56.22,0,0,0-17.13,0,42.15,42.15,0,0,0-8.29,2.17A26.56,26.56,0,0,0,4.7,64.25l0,0h0a14.25,14.25,0,0,0-3.5,4.2A9.56,9.56,0,0,0,.05,74,11.12,11.12,0,0,0,2.1,79.14,18.35,18.35,0,0,0,6,83.07a33.34,33.34,0,0,0,9.77,5,51.21,51.21,0,0,0,10.77,2.26c1.83.19,3.68.29,5.53.31.92,0,1.84,0,2.77,0l1.39-.08,1.26-.1h.18l.14.12.8.74a.12.12,0,0,0,0,0,32.32,32.32,0,0,0,2.91,2.17,29.59,29.59,0,0,0,5,2.67,33.12,33.12,0,0,0,22.15,1.31,28,28,0,0,0,5.26-2.16c.42-.21.83-.46,1.24-.7s.81-.5,1.2-.77A13.58,13.58,0,0,0,77.53,93l.56-.44c.07,0,.16-.14.24-.2.4-.56.49.09.77.53.47.82,1,1.64,1.5,2.42a29.27,29.27,0,0,0,3.67,4.34,28.49,28.49,0,0,0,9.52,6.09,26.57,26.57,0,0,0,5.47,1.51,28.32,28.32,0,0,0,16.59-2.09q.95-.44,1.86-.93a1.06,1.06,0,0,0,1.16,0,17.62,17.62,0,0,0,1.67-1.48l.59-.63.52-.39c.17-.1.37-.44.51-.16s1,1,1.7,1.54a28.57,28.57,0,0,0,9.7,5.38,27.4,27.4,0,0,0,5.44,1.13c.92.08,1.84.15,2.77.14q.69,0,1.38,0l.69,0,.55,0,.23,0c.06,0,.19-.08.17,0a3.91,3.91,0,0,0,.07.63,13.34,13.34,0,0,0,.78,2.74,11,11,0,0,0,3.42,4.55,10.08,10.08,0,0,0,4.73,2,1,1,0,0,0,.86.39,14.7,14.7,0,0,0,3.07-.52l.19,0,.34-.08.15,0,.23-.07s.08.11.12.15l1.18,1.59,0,0c.66.76,1.27,1.56,1.94,2.29s1.19,1.3,1.8,1.92,1.25,1.23,1.89,1.82a48.63,48.63,0,0,0,8.36,6.13,46.88,46.88,0,0,0,38.27,4,49.24,49.24,0,0,0,16-9c.85-.66,1.56-1.47,2.43-2.09a.58.58,0,0,0,.18-.17c.66-.83,1.49-1.51,2.17-2.31l.91-1s.07,0,.19.08l.91.39q1,.42,2,.75a27.74,27.74,0,0,0,4.16,1,28.73,28.73,0,0,0,16-1.89,26.82,26.82,0,0,0,6.53-4l2-1.8.1-.11,1.7-2,.25-.34.06.06.32.24.52.35a13.59,13.59,0,0,0,6.9,2.2,13.9,13.9,0,0,0,8.65-2.67,13.7,13.7,0,0,0,4.93-6.92,13,13,0,0,0,.47-2l.05-.23v-.07s0-.09,0-.07h0l.72.07,1.83.17a43.5,43.5,0,0,0,24.51-5.89A39.47,39.47,0,0,0,325,93.42l0,0a35.05,35.05,0,0,0,3.06-3.63c.45-.63.94-1.22,1.34-1.86L330.59,86a33.47,33.47,0,0,0,4.34-14.13C335,71.24,335,70.27,335,69.68Zm-2.8,2a33.08,33.08,0,0,1-2.33,9.64A31.68,31.68,0,0,1,324,90.54a37.22,37.22,0,0,1-3.93,3.81l-.07.05L317.82,96c-.74.56-1.56,1-2.34,1.48a38,38,0,0,1-10.18,4.27,40.72,40.72,0,0,1-11,1.35h-1.44l-1.33-.12-1.77-.17a1,1,0,0,0-.35-.08c-.48,0-1,0-1.63-.1a9.82,9.82,0,0,1-3.37-1h0a9.61,9.61,0,0,1-2.55-2.42,15.87,15.87,0,0,1-.9-1.36,1,1,0,0,0-1.5-.32l-.41.27a1.08,1.08,0,0,0-.23,1.55,16.51,16.51,0,0,0,8.27,5.52l0,.36c-.09.45-.15.85-.25,1.27a11,11,0,0,1-.92,2.37,11.14,11.14,0,0,1-8,5.81,11.5,11.5,0,0,1-5.05-.33,11.8,11.8,0,0,1-2.33-1,12.24,12.24,0,0,1-1.06-.71c-.39-.29-.83-.68-1.27-1.08a1,1,0,0,0-1.56.16l-1.14,1.57,0,.06-1,1.23,0,.06-1.1,1.13-.06,0-1.2,1.08a24.62,24.62,0,0,1-5.61,3.49,25.89,25.89,0,0,1-13,2.09,25,25,0,0,1-6-1.25,19.59,19.59,0,0,0,10.34-8.45,1.06,1.06,0,0,0-.42-1.5l-.52-.26a1.06,1.06,0,0,0-1.4.43,19,19,0,0,1-1.4,2.17,17.28,17.28,0,0,1-3.37,3.36,16.93,16.93,0,0,1-6.32,3l-.13-.06-.79-.38-.19-.09c-.06,0-.1.09-.15.14l-.29.32-.35.4a14.34,14.34,0,0,1-1.72.08h0a16.38,16.38,0,0,1-9.73-4,17.39,17.39,0,0,1-3.17-3.55,19.21,19.21,0,0,1-1.27-2.24,1.07,1.07,0,0,0-1.38-.52l-.53.23a1.08,1.08,0,0,0-.51,1.49,19.61,19.61,0,0,0,16.5,10.5l-.62.63A51.87,51.87,0,0,1,225,127.5a49.69,49.69,0,0,1-5.68,3.74,44.45,44.45,0,0,1-39.26,2.26,46.41,46.41,0,0,1-11.53-7.1,49.62,49.62,0,0,1-4.89-4.73c-.75-.84-1.48-1.72-2.18-2.61l-.71-1a18.78,18.78,0,0,0,3-2h0a18.65,18.65,0,0,0,4.31-4.33,13.08,13.08,0,0,0,1.72-3.49,1.06,1.06,0,0,0-.87-1.36l-.55-.08a1,1,0,0,0-1.16.78,12.63,12.63,0,0,1-4.63,6.93,13.09,13.09,0,0,1-8,2.61.94.94,0,0,0-.29.06,7.82,7.82,0,0,1-2.65-.79,8.48,8.48,0,0,1-4-4.39,10.11,10.11,0,0,1-.48-1.47c-.07-.25-.11-.5-.16-.76l0-.1,0-.19-.05-.38-.08-.78-.08-.88,0-.43c0-.1,0-.15-.11-.11l-.22,0-1.76.25c-.71.08-.85.09-1.15.11l-.82.06a24.37,24.37,0,0,1-6.59-.62,26,26,0,0,1-11.65-6.13l-.31-.28-.15-.14a2.26,2.26,0,0,1-.22-.2l-.58-.57,0,0h0a36,36,0,0,0,2.59-3.28A15,15,0,0,0,127,94.26a1.06,1.06,0,0,0-.67-1.46l-.49-.14a1.06,1.06,0,0,0-1.28.64,16.51,16.51,0,0,1-5.68,7.68c-.47.33-.95.63-1.46.92a26.44,26.44,0,0,1-31-3.13,26.63,26.63,0,0,1-4.35-5,15.81,15.81,0,0,1-.88-1.41L81,92a4.93,4.93,0,0,1-.28-.51l-.79-1.55-.39-.77-.2-.39c-.09,0-.22.16-.32.23l-1.32,1.15-.66.57a5.34,5.34,0,0,1-.46.37l-.66.51a27.05,27.05,0,0,1-12.26,4.83,31.36,31.36,0,0,1-13.27-1.05,29.74,29.74,0,0,1-6.14-2.63,28.4,28.4,0,0,1-2.79-1.82c-.44-.33-.89-.67-1.31-1-.2-.18-.42-.36-.62-.55l-1-.91-.16-.15-.22,0-.44,0-.7.06-.85.07c-.56,0-1.13.07-1.7.09-1.14,0-2.28.05-3.41,0a57.23,57.23,0,0,1-6.8-.59,43.09,43.09,0,0,1-12.93-3.93A24.94,24.94,0,0,1,5.83,80.4a12.15,12.15,0,0,1-3.52-5.12,7.6,7.6,0,0,1,.51-5.78,13.25,13.25,0,0,1,4.26-4.61,32.3,32.3,0,0,1,12.4-4.84,53.32,53.32,0,0,1,13.59-.72q1.7.12,3.39.36l.86.12c.56,0,1.21.39,1.6-.19l.9-.73.66-.49a25,25,0,0,1,5.83-3.14,28.69,28.69,0,0,1,6.47-1.63,30.91,30.91,0,0,1,3.33-.26h2.35c.06,0,.09-.11.13-.17l.8-1.29c.14-.24.29-.47.45-.7a21.1,21.1,0,0,1,10.07-8.11,18.4,18.4,0,0,1,12.77.11,20.86,20.86,0,0,1,5.69,3.23,21.53,21.53,0,0,1,2.45,2.23,8.08,8.08,0,0,1,.57.6l.48.55c.19.2.37.45.56.69l1,1.27a25.56,25.56,0,0,0-2.84,1.36,16.79,16.79,0,0,0-2.51,1.71,1.05,1.05,0,0,0,0,1.59l.39.35a1.06,1.06,0,0,0,1.47,0,18,18,0,0,1,13.16-5,1.08,1.08,0,0,0,1.13-1l.05-.52a1.05,1.05,0,0,0-1.08-1.17,16.31,16.31,0,0,0-3,.41,30.85,30.85,0,0,0-4.87,1.59l.28-1,.23-.89.26-.73.28-.77L97,46.2l0-.09.79-1.37a18.47,18.47,0,0,1,4.4-4.76A18.21,18.21,0,0,1,108,37a16.47,16.47,0,0,1,3.18-.65,14.71,14.71,0,0,1,1.62-.12h.86a7.65,7.65,0,0,1,1,0,1.06,1.06,0,0,0,1.11-.7l.41-1.18c.1-.32.23-.63.36-.94.24-.63.53-1.24.82-1.84a24.17,24.17,0,0,1,2.08-3.42,21,21,0,0,1,5.77-5.43,20.59,20.59,0,0,1,15.31-2.6A25.11,25.11,0,0,1,148,23.14l1.59,1,.4.25c.07.09.13-.05.19-.09l.19-.19.74-.76a4.54,4.54,0,0,1,.38-.38l.18-.17c.11-.11.23-.21.35-.31s.5-.39.75-.57a10.87,10.87,0,0,1,3.41-1.6,11.07,11.07,0,0,1,10.52,2.61,12.08,12.08,0,0,1,1.26,1.41l.15.22c.1.15.2.28.3.44s.26.44.39.67c-.67,1.42-1.26,2.94-1.75,4.3h0a40.77,40.77,0,0,0-1.75,5.31,22.14,22.14,0,0,0-.56,3.36,1.06,1.06,0,0,0,1.11,1.13l.53,0a1.07,1.07,0,0,0,1-1.08,23.48,23.48,0,0,1,3.35-11.87,1.14,1.14,0,0,0,.28-.26l1.36-1.92.61-.86a7.68,7.68,0,0,1,.6-.78l1.26-1.5A18.16,18.16,0,0,1,176.13,20,34.48,34.48,0,0,1,179,17.34l1.46-1.24.07-.05,1.56-1.11a36.71,36.71,0,0,1,3.31-2.08,19.08,19.08,0,0,1,1.74-.9c.59-.27,1.17-.57,1.76-.84a37,37,0,0,1,7.47-2.22,33.7,33.7,0,0,1,7.7-.54h.09a32.42,32.42,0,0,1,7.57,1.41c.61.22,1.25.34,1.84.62l1.78.77a23.44,23.44,0,0,1,3.44,1.8,30.5,30.5,0,0,1,3.15,2.25c.51.41,1,.84,1.47,1.27l.4.38.73.72.37.38a25.93,25.93,0,0,0-5.16,2.2,20.4,20.4,0,0,0-4.63,3.6,1.07,1.07,0,0,0,.12,1.58l.41.32a1.1,1.1,0,0,0,1.47-.13,21.07,21.07,0,0,1,23.79-5.27,1.09,1.09,0,0,0,1.38-.5l.24-.46a1.06,1.06,0,0,0-.56-1.48,20.14,20.14,0,0,0-5.71-1.31,27.62,27.62,0,0,0-8.51.69h0l-.63.15,1-1.52c.42-.61.91-1.16,1.36-1.74s1-1.09,1.47-1.64a19.14,19.14,0,0,1,1.58-1.54,32.73,32.73,0,0,1,7.23-5,31.73,31.73,0,0,1,17.07-3.25l2.15.27h.08l2.11.44c.73.15,1.42.39,2.13.58s1.38.49,2.08.73A31.42,31.42,0,0,1,273,9a30.72,30.72,0,0,1,6.13,6.29,20.13,20.13,0,0,1,1.24,1.82c.41.61.77,1.25,1.12,1.9s.71,1.42,1.07,2.12l0,.07.45,1.08.87,2.11,1.11-.58.56-.3.51-.23a4.23,4.23,0,0,1,.67-.28l.51-.18a11.22,11.22,0,0,1,2.13-.45,10.9,10.9,0,0,1,4.32.42,11.06,11.06,0,0,1,6.58,5.37,10.85,10.85,0,0,1,1.24,4.15l0,.55,0,.27v.42l-.05,1.13,0,.57v.28l.15,0a14,14,0,0,1-1.58,6.33,1,1,0,0,0,.4,1.36l.38.24a1.07,1.07,0,0,0,1.57-.58,10.94,10.94,0,0,0,.29-1.13c.22-1,.36-2,.53-3h0c.21-.83.49-1.78.7-2.69l1.13.27A40.63,40.63,0,0,1,313.87,40a36.85,36.85,0,0,1,13.64,12.77,31.48,31.48,0,0,1,4.79,16.86C332.31,70.19,332.26,71.1,332.21,71.67Z"/><path class="cls-3" d="M232.76,60.9a1.07,1.07,0,0,0-1.38-.55,22.16,22.16,0,0,1-4.28,1.35,17.65,17.65,0,0,1-7,0h0a17.61,17.61,0,0,1-6.31-3.09,21.39,21.39,0,0,1-3.25-3.11,1.05,1.05,0,0,0-1.47-.11l-.44.37a1.05,1.05,0,0,0-.11,1.52,21.94,21.94,0,0,0,8.1,5.39,1,1,0,0,0-.61.4,25.76,25.76,0,0,1-5.26,5.47,27.49,27.49,0,0,1-10.13,5,25.44,25.44,0,0,1-6.2.79,27.83,27.83,0,0,1-3.15-.17h-.08l-1.95-.33-.32-.06-.16,0c-.05,0-.12,0-.13,0l-.25.6-.45,1.08A23.4,23.4,0,0,1,180.15,85h0a24.17,24.17,0,0,1-11.58,4.48,22.61,22.61,0,0,1-12.25-2.28,25.33,25.33,0,0,1-8.68-7.1A24.17,24.17,0,0,1,144,73.54a1.06,1.06,0,0,0-1.3-.65l-.55.17a1.07,1.07,0,0,0-.7,1.36,27,27,0,0,0,16.38,16,24.32,24.32,0,0,0,12.23,1A24.83,24.83,0,0,0,176,89.66a27.26,27.26,0,0,0,9.88-7.2,24.31,24.31,0,0,0,3.46-5.11,6.38,6.38,0,0,0,.35-.69l.27-.62h0l.14,0,.76.14c.51.07,1,.11,1.54.17a26.82,26.82,0,0,0,6.14-.14A29.15,29.15,0,0,0,218.2,64.6a1,1,0,0,0-.29-1.49,22.34,22.34,0,0,0,14.51-.28,1.05,1.05,0,0,0,.57-1.41ZM189.91,76Z"/><path class="cls-3" d="M81.14,77.55a1.06,1.06,0,0,0-1.48,0A25,25,0,0,1,55.8,83.27a1.08,1.08,0,0,0-1.33.66l-.18.52A1.06,1.06,0,0,0,55,85.83a23.87,23.87,0,0,0,5.63.68,33.93,33.93,0,0,0,8.26-1.07h0a33.8,33.8,0,0,0,7.85-2.79,23.46,23.46,0,0,0,4.73-3.17,1.05,1.05,0,0,0,0-1.55Z"/></g></g></svg>