<svg xmlns="http://www.w3.org/2000/svg" viewBox="0 0 247.34 130.59"><defs><style>.cls-1{fill:#fff;}.cls-2{fill:#c4e3f2;}.cls-3{fill:#5aa3cf;}</style></defs><g id="Layer_2" data-name="Layer 2"><g id="Layer_1-2" data-name="Layer 1"><path class="cls-1" d="M246,80.4a18.41,18.41,0,0,1-19.18,17.65,3.87,3.87,0,0,1-.45,0c-2.3,7.24-7.49,12.88-14.67,14.85-6.24,1.7-12.79.28-18.37-3.35A11.64,11.64,0,0,1,174.21,107c-9.9,15.22-28.53,21.57-43.65,14.16a30.19,30.19,0,0,1-8.52-6.25,30.83,30.83,0,0,1-54.95-4.55A11.62,11.62,0,0,1,48,104.43c-2,.1-4,.13-6.11,0C19.22,103.52,1.21,90.78.6,75.64c0-.53,0-1.06,0-1.6.65-15.41,19.2-27.22,41.83-26.93,3.15-8.36,11.24-14.45,20.89-15.4A11.62,11.62,0,0,1,82.85,25a24.59,24.59,0,0,1,23.84-10.26,25.91,25.91,0,0,1,8,2.48,43.59,43.59,0,0,1,70,2.85,9.36,9.36,0,0,1,7.36.28A10,10,0,0,1,197.3,29a23.72,23.72,0,0,1,4.63-.25c15.23.63,27,15.15,26.4,32.46a18.4,18.4,0,0,1,16.2,11.23A18,18,0,0,1,246,80.4Z"/><path class="cls-2" d="M246,80.4a18.41,18.41,0,0,1-19.18,17.65,3.87,3.87,0,0,1-.45,0c-2.3,7.24-7.49,12.88-14.67,14.85-6.24,1.7-12.79.28-18.37-3.35A11.64,11.64,0,0,1,174.21,107c-9.9,15.22-28.53,21.57-43.65,14.16a30.19,30.19,0,0,1-8.52-6.25,30.83,30.83,0,0,1-54.95-4.55A11.62,11.62,0,0,1,48,104.43c-2,.1-4,.13-6.11,0C19.22,103.52,1.21,90.78.6,75.64c9.75,8.11,28.7,6.85,38.13.44C33.49,73.26,30.34,69.3,30.38,63c8.89,10.59,26.2,12.73,41.3,2.53C65.15,73.85,56,82.24,45.83,79.16c5,9.67,10,14.32,20.56,17s37.13-7.4,37.21-18.31c11,4,10.81,3.74,18.88-4.69,6,10.44,21.54,13.75,31.22,6.64,8.33,10,26.92,7.8,32.69-3.86a18.68,18.68,0,0,1-12.85-6.56,38.07,38.07,0,0,0,30.56-1.76,12,12,0,0,1-8.68,7.57c5,12.85,21.7,11.15,27.27,0,8.09,11.8,14.76,3.48,21.84-2.74A18,18,0,0,1,246,80.4Z"/><path class="cls-3" d="M247.34,79.33a19.8,19.8,0,0,0-11.12-17.45,18.65,18.65,0,0,0-4.37-1.52,9.1,9.1,0,0,0-1.18-.22l-.6-.09-.24,0h-.19v-.1c0-.82,0-1.66-.07-2.5s-.17-1.67-.25-2.53a.17.17,0,0,1,0-.07,38.4,38.4,0,0,0-1.18-5.26,33.76,33.76,0,0,0-5.35-10.65,28.67,28.67,0,0,0-10.42-8.72l-1.64-.75-.08,0c-.57-.21-1.16-.39-1.74-.59a27.66,27.66,0,0,0-3.69-.93h-.08c-.63-.11-1.28-.14-1.92-.21a19,19,0,0,0-2-.14q-1,0-2,.06l-.69.06h-.08v0a.25.25,0,0,0,0-.08c0-.1,0-.22-.06-.35A12.11,12.11,0,0,0,196.68,23a10.14,10.14,0,0,0-4.94-4.07,9.94,9.94,0,0,0-3.66-.65,11.13,11.13,0,0,0-1.91.18l-.47.1-.41.1-.15,0,0,0-.15-.19-.79-1.05c-.58-.7-1.22-1.46-1.92-2.26a51.83,51.83,0,0,0-5.27-5,45.39,45.39,0,0,0-17-8.69A44.36,44.36,0,0,0,148.6,0a42.35,42.35,0,0,0-12.33,1.82,45.36,45.36,0,0,0-6.14,2.32,47.74,47.74,0,0,0-5.85,3.3c-1,.6-1.84,1.31-2.77,2l0,0c-.87.73-1.79,1.42-2.62,2.21l-1.28,1.17-1.22,1.25c-.42.41-.82.83-1.2,1.28l-.68.78-.45-.2c-.4-.18-.84-.36-1.31-.54a27.73,27.73,0,0,0-3.26-1,24.85,24.85,0,0,0-4-.63c-.72-.09-1.47-.06-2.23-.09h-.07c-.77,0-1.56,0-2.36.12a25.61,25.61,0,0,0-10.08,3.07A23.67,23.67,0,0,0,86,20.18a12.46,12.46,0,0,0-1.05,1,14.69,14.69,0,0,0-1,1.08l-.47.56c-.15.18-.35.42-.38.47s-.27.4-.41.55c-.12-.11-.26-.22-.4-.33a10.68,10.68,0,0,0-1.11-.74,12.32,12.32,0,0,0-2.56-1.16,12.42,12.42,0,0,0-11.24,1.93,12.59,12.59,0,0,0-3.83,4.84A12.34,12.34,0,0,0,62.74,31s0,.09,0,.1h-.08l-.18,0-.57.08c-.51.05-1,.18-1.54.28a27.65,27.65,0,0,0-6,2,25.16,25.16,0,0,0-9.89,8.4,21.46,21.46,0,0,0-1.7,2.89c-.12.25-.26.5-.36.76l-.27.63c-.92-.21-6.15.53-7.39.68a55.33,55.33,0,0,0-13.13,3.07A42.14,42.14,0,0,0,9.75,56.48,26.86,26.86,0,0,0,1.53,67.12l0,0h0A20.59,20.59,0,0,0,.56,79.65,25.18,25.18,0,0,0,6.68,90.71a38.67,38.67,0,0,0,9.94,7.68A52.42,52.42,0,0,0,28.07,103a62.78,62.78,0,0,0,11.82,2c2,.17,3.91.1,5.83.11h1.65c.07,0,.07,0,.09.1l0,.17,0,.16.11.32c.09.23.16.47.27.69a12.58,12.58,0,0,0,.65,1.33,12.39,12.39,0,0,0,14.52,5.66,12.11,12.11,0,0,0,2.41-1.07l.3-.18a1.06,1.06,0,0,1,1.5.42c.43.86,1,2,1.58,2.88A35.43,35.43,0,0,0,72.12,120a31.79,31.79,0,0,0,7.94,6.46,31.86,31.86,0,0,0,17.81,4.09,32.06,32.06,0,0,0,15.15-5.1,31.22,31.22,0,0,0,5.63-4.61c.39-.42.79-.83,1.18-1.24l0-.06,1.06-1.31a13.36,13.36,0,0,0,1-1.32c.2.18.4.37.61.54a1.07,1.07,0,0,0,.87.23c.68.59,1.37,1.14,2.08,1.66a30.66,30.66,0,0,0,4.5,2.75,34.66,34.66,0,0,0,9.27,2.93,33.88,33.88,0,0,0,16.48-1.73,38.23,38.23,0,0,0,11.81-6.91c.4-.34.81-.65,1.18-1l1.09-1.07c.35-.36.71-.71,1.06-1.06s.64-.74,1-1.11c.61-.75,1.29-1.43,1.81-2.22l.41-.57s.06-.09.09-.1a1.06,1.06,0,0,0,.12.18l.06.1.23.29c.17.22.35.43.54.64a13.19,13.19,0,0,0,2.49,2.13,12.81,12.81,0,0,0,5.87,2,13,13,0,0,0,5.79-.81,12.84,12.84,0,0,0,2.5-1.29c.38-.26.75-.53,1.1-.82.17-.15.34-.29.51-.45l.11-.1s0,0,0,0l.11.07.14.08.53.31c.71.4,1.44.76,2.17,1.09a25.79,25.79,0,0,0,4.37,1.52,22.8,22.8,0,0,0,8.44.48,21.51,21.51,0,0,0,12.53-6.34,24.41,24.41,0,0,0,3.61-4.85,25.89,25.89,0,0,0,1.26-2.53c.18-.43.36-.85.52-1.28l.09-.25h1.46l.78-.08a21.26,21.26,0,0,0,2.91-.49l.08,0a19.69,19.69,0,0,0,4.88-2,19.41,19.41,0,0,0,6.25-5.63,19.11,19.11,0,0,0,2.8-5.65,18.17,18.17,0,0,0,.79-3.92C247.29,81,247.35,79.94,247.34,79.33Zm-8.36,13a17.22,17.22,0,0,1-5.82,3.43,16.74,16.74,0,0,1-3.27.78h-.06a15.24,15.24,0,0,1-1.67.14h-.86a5.22,5.22,0,0,1-1,0,1.07,1.07,0,0,0-1.13.7l-.37,1.06c-.13.39-.22.62-.35.93a18.82,18.82,0,0,1-.77,1.72,22.17,22.17,0,0,1-1.94,3.2,19.71,19.71,0,0,1-5.38,5.08A19.13,19.13,0,0,1,202,111.75a23.75,23.75,0,0,1-7-2.75l-1.53-.94-.39-.25c-.07-.08-.12.06-.18.1l-.17.17-.69.71a6.51,6.51,0,0,1-.57.56,4.28,4.28,0,0,1-.33.29,7.25,7.25,0,0,1-.7.54,10.26,10.26,0,0,1-10,1,10.52,10.52,0,0,1-2.92-1.93,12.47,12.47,0,0,1-1.18-1.32l-.23-.34a24.15,24.15,0,0,0,13-5.15,1.06,1.06,0,0,0,.12-1.51l-.38-.43a1.05,1.05,0,0,0-1.47-.11,24.47,24.47,0,0,1-4.72,3.18,19.89,19.89,0,0,1-7.72,2.14,1.05,1.05,0,0,0-1.48,0,20,20,0,0,1-7.26-1.88,24.22,24.22,0,0,1-4.81-3A1,1,0,0,0,160,101l-.36.44a1.06,1.06,0,0,0,.16,1.51,24.31,24.31,0,0,0,12.38,4.69l-.63.87a8.19,8.19,0,0,1-.55.73l-1.19,1.41a15.75,15.75,0,0,1-1.23,1.35,33.43,33.43,0,0,1-2.67,2.52l-1.37,1.15-.07.05-1.46,1a34.31,34.31,0,0,1-3.1,2,15.59,15.59,0,0,1-1.63.83c-.55.26-1.09.54-1.65.79a34.34,34.34,0,0,1-7,2.08,31.68,31.68,0,0,1-7.21.51h-.09a29.21,29.21,0,0,1-7.07-1.31,15.78,15.78,0,0,1-1.72-.58l-1.67-.71a22.9,22.9,0,0,1-3.21-1.7,28.85,28.85,0,0,1-3-2.1c-.47-.38-.92-.78-1.37-1.19-.12-.1-.69-.65-1.12-1.1l-.44-.45a1.05,1.05,0,0,0-.89-.3,14.77,14.77,0,0,1-2.48-3.08h0a13.75,13.75,0,0,1-1.42-4.22,8.19,8.19,0,0,1-.08-2.22,1.05,1.05,0,0,0-.82-1.11l-.51-.11a1.06,1.06,0,0,0-1.3,1,11.16,11.16,0,0,0,.61,3.59,22.32,22.32,0,0,0,1.82,4.07,26.25,26.25,0,0,0,2.48,3.64l.12.14-.54.79c-.39.56-.84,1.06-1.26,1.6a19.65,19.65,0,0,1-1.36,1.52l-.67.71-.06.06-.73.66a30.59,30.59,0,0,1-6.66,4.67,30,30,0,0,1-15.78,3.15,30.8,30.8,0,0,1-7.93-1.78,28.81,28.81,0,0,1-7.12-3.89,29.23,29.23,0,0,1-5.79-5.7c-.41-.55-.83-1.09-1.19-1.66a19.31,19.31,0,0,1-1.07-1.74c-.36-.57-.65-1.2-1-1.8l-.12-.22-.2-.45-.42-1-.26-.59a1.06,1.06,0,0,0-1.66-.37c-.44.38-.88.75-1.32,1.07l-.22.15-.14.1-.29.17c-.19.12-.39.22-.58.33a10.8,10.8,0,0,1-2.52.89,10.18,10.18,0,0,1-5.28-.26,10.33,10.33,0,0,1-4.46-2.86,10.09,10.09,0,0,1-1.52-2.19,7.81,7.81,0,0,1-.54-1.22l-.12-.32c-.06-.17-.13-.47-.2-.69l-.2-.73c-.08-.23-.07-.58-.4-.47l-6.85,0H41.8c-2-.1-3.93-.27-5.87-.54a57.15,57.15,0,0,1-11.48-2.82A46,46,0,0,1,14,94.43a32,32,0,0,1-8.27-8.08A20.59,20.59,0,0,1,2,75.77,18.94,18.94,0,0,1,4.77,65a28.08,28.08,0,0,1,7.94-8.28,43.09,43.09,0,0,1,10.46-5.25,54.49,54.49,0,0,1,11.51-2.58c2-.24,3.94-.34,5.92-.39h0a25,25,0,0,1,16.15,8.38,1.05,1.05,0,0,0,1.46.15l.37-.29a1.07,1.07,0,0,0,.16-1.62,22.64,22.64,0,0,0-2.57-2.24l0,0a17.31,17.31,0,0,1,10.2-1.42,1.07,1.07,0,0,0,1.24-.8c.06-.23.1-.41.1-.41a1.08,1.08,0,0,0-1-1.37,16.5,16.5,0,0,0-2,0c-7.55.59-10.45,2.29-10.35,2.8a40.9,40.9,0,0,0-4.68-2.56h0a39.5,39.5,0,0,0-5.74-2.4l.06-.14c.17-.44.41-.86.62-1.28a11.61,11.61,0,0,1,.7-1.24,22.63,22.63,0,0,1,8.15-7.85A25,25,0,0,1,58.86,34c.46-.12.92-.26,1.39-.37l1.46-.29.07,0L63.66,33l.75-.1c.12-.14.11-.41.17-.61L64.85,31c0-.13,0-.16.05-.22l0-.16.1-.32a4.75,4.75,0,0,1,.23-.63,8.31,8.31,0,0,1,.57-1.21,9.71,9.71,0,0,1,1.58-2.14,10.46,10.46,0,0,1,2-1.65l.09-.05A11.14,11.14,0,0,1,72,23.57a10.27,10.27,0,0,1,7.78.84,10.28,10.28,0,0,1,1.13.72l.15.11.3.25c.19.17.39.32.58.5l.28.26a1.06,1.06,0,0,0,1.57-.16l.52-.72.61-.84.34-.4.65-.78.06-.05.7-.73a21.27,21.27,0,0,1,3.25-2.67,23.12,23.12,0,0,1,7.71-3.37,24.32,24.32,0,0,1,8.42-.47,21.56,21.56,0,0,1,4.14.84c.68.2,1.35.44,2,.7l1,.41,1.18.56a1,1,0,0,0,1.24-.25l1.79-2,0,0,1.69-1.72,0,0,1.78-1.63s0,0,0,0l1.89-1.54a43.17,43.17,0,0,1,8.41-5.1,41.59,41.59,0,0,1,37.87,1.55,43.86,43.86,0,0,1,8,5.77l1.75,1.69a.08.08,0,0,1,0,0L180.52,17l0,0,1.55,1.85,0,.05,1,1.33c-.35.3-.69.59-1,.83h0c-.72.42-1.68.82-2.45,1.21a1.05,1.05,0,0,0-.27,1.68l.25.26a1.08,1.08,0,0,0,1.48,0,17.93,17.93,0,0,1,4.3-2.79,1.14,1.14,0,0,0,.39-.33,1.48,1.48,0,0,1,.3-.08,8.46,8.46,0,0,1,2.91-.2,7.31,7.31,0,0,1,3.53,1.37,7.84,7.84,0,0,1,2.43,3,8.68,8.68,0,0,1,.67,1.87,3.88,3.88,0,0,1,.11.49l0,.1A30.52,30.52,0,0,0,183.86,34a1,1,0,0,0-.17,1.34,28.58,28.58,0,0,0-9.46-1.94h0a28.28,28.28,0,0,0-12.07,2.18,24.57,24.57,0,0,0-7.49,4.89,1.06,1.06,0,0,0,0,1.54l.43.38a1.06,1.06,0,0,0,1.47,0,23.47,23.47,0,0,1,34.57,1.22,1.07,1.07,0,0,0,1.47.17l.45-.36a1.06,1.06,0,0,0,.15-1.53,24.56,24.56,0,0,0-7.13-5.41l-.69-.33a1.1,1.1,0,0,0,.26-.18c.48-.5,1.06-1.11,1.72-1.72A17.37,17.37,0,0,1,191,31.58h0a17.18,17.18,0,0,1,4.27-1.3c.36-.07.7-.12,1-.16a1.1,1.1,0,0,0,.86.28l1.4-.18.68-.06.59,0a16.76,16.76,0,0,1,2.35,0l2.3.23.11,0,2.25.48a24.55,24.55,0,0,1,8.43,4.17A28.13,28.13,0,0,1,221.76,42a31.19,31.19,0,0,1,3.93,8.7,33.44,33.44,0,0,1,1,4.65s0,0,0,.07l.23,2.36c.06.4,0,.8,0,1.2v2.67c.05.38-.16,1,.4.87l2.2.17h.08l1.07.17h.07l1.1.25a17.25,17.25,0,0,1,4.26,1.76,17.07,17.07,0,0,1,8.49,14.43C244.64,86.57,242.14,89.53,239,92.33Z"/><path class="cls-3" d="M106.93,23.53a1.06,1.06,0,0,0,1.47.11,25.37,25.37,0,0,1,17.86-5.43,1.06,1.06,0,0,0,1.16-.91l.07-.54a1.06,1.06,0,0,0-1-1.2,22.25,22.25,0,0,0-4,.28,40.57,40.57,0,0,0-6.19,1.52h0a40.7,40.7,0,0,0-6,2.18,22.56,22.56,0,0,0-3.51,2,1.06,1.06,0,0,0-.18,1.57Z"/><path class="cls-3" d="M128.75,69.35l-.47-.31a1.05,1.05,0,0,0-1.45.29,22.3,22.3,0,0,1-2.92,3.6,18.58,18.58,0,0,1-6,4h0a18.64,18.64,0,0,1-7.12,1,22.54,22.54,0,0,1-4.58-.71h0A36.45,36.45,0,0,0,109.07,70a1.05,1.05,0,0,0-.78-1.3l-.57-.14a1.06,1.06,0,0,0-1.27.75,40.53,40.53,0,0,1-1.38,4.35,35.93,35.93,0,0,1-3.31,6.54A34.12,34.12,0,0,1,90.11,91.3h0a34,34,0,0,1-15.63,4,35.84,35.84,0,0,1-7.3-.65,40.92,40.92,0,0,1-4.42-1.12,1,1,0,0,0-1.3.67l-.19.56A1.06,1.06,0,0,0,62,96.1a37.35,37.35,0,0,0,43-16.64,1,1,0,0,0,.61.42,23.54,23.54,0,0,0,23.45-9A1,1,0,0,0,128.75,69.35Z"/></g></g></svg>