<svg xmlns="http://www.w3.org/2000/svg" viewBox="0 0 181.84 300"><defs><style>.cls-1{isolation:isolate;}.cls-2{fill:#e11f26;}.cls-3,.cls-5{fill:#5b2f1a;}.cls-4{fill:#432918;}.cls-11,.cls-14,.cls-17,.cls-20,.cls-22,.cls-27,.cls-33,.cls-38,.cls-41,.cls-42,.cls-43,.cls-5,.cls-8{mix-blend-mode:multiply;}.cls-43,.cls-5,.cls-8{opacity:0.3;}.cls-6,.cls-8{fill:#3c3c3b;}.cls-7{fill:#1d1c1a;}.cls-11,.cls-9{fill:#7b1315;}.cls-10{fill:#4f1312;}.cls-11,.cls-25,.cls-35{opacity:0.4;}.cls-12,.cls-14,.cls-17{fill:#ededef;}.cls-13{fill:#c6c6c6;}.cls-15,.cls-44{fill:#fff;}.cls-16{fill:#dad9d8;}.cls-17,.cls-20,.cls-38,.cls-41,.cls-44{opacity:0.5;}.cls-18{fill:#f4b88b;}.cls-19{fill:#cd7c59;}.cls-20,.cls-22{fill:#fbc7a0;}.cls-21{fill:#b65e28;}.cls-22{opacity:0.8;}.cls-23{fill:#a33045;}.cls-24{fill:#ea5961;}.cls-25{fill:#fad1d0;}.cls-25,.cls-35{mix-blend-mode:screen;}.cls-26{fill:#b75339;}.cls-27{fill:#edc6ac;opacity:0.7;}.cls-28{fill:#b75438;}.cls-29{fill:#cdcdcd;}.cls-30{fill:#7b91a5;}.cls-31{fill:#9e6a3d;}.cls-32{fill:#f89a1c;opacity:0.6;}.cls-34{fill:#5f4728;}.cls-35{fill:#f2d1bb;}.cls-36,.cls-38{fill:#7b4222;}.cls-37{fill:#612d22;}.cls-39{fill:#8d191c;}.cls-40{fill:#a31e21;}.cls-41,.cls-42{fill:#bf2026;}</style></defs><g class="cls-1"><g id="Layer_2" data-name="Layer 2"><g id="Layer_1-2" data-name="Layer 1"><path class="cls-2" d="M117.05,279.63c-1.17.3-2.32.68-3.51.87-2.11.32-4.27.41-6.38.75a41.12,41.12,0,0,1-12.28.37c-.55-.08-1.18,0-1.67-.15a.49.49,0,0,0,.33-.73c-.86-1.37-.79-2.84-.93-4.38s-.37-3.17-.37-4.75c0-.71-.41-.56.32-.64.5,0,1-.05,1.55-.05a37.29,37.29,0,0,0,4.36-.13c3.48-.41,6.9-1.15,10.36-1.68s6.48-1.86,9.7-2.89c.76,4,1.55,8.12.94,12.15"/><path class="cls-2" d="M117.05,279.63c-1.17.3-2.32.68-3.51.87-2.11.32-4.27.41-6.38.75a41.12,41.12,0,0,1-12.28.37c-.55-.08-1.18,0-1.67-.15a.49.49,0,0,0,.33-.73c-.86-1.37-.79-2.84-.93-4.38s-.37-3.17-.37-4.75c0-.71-.41-.56.32-.64.5,0,1-.05,1.55-.05a37.29,37.29,0,0,0,4.36-.13c3.48-.41,6.9-1.15,10.36-1.68s6.48-1.86,9.7-2.89c.76,4,1.55,8.12.94,12.15"/><path class="cls-3" d="M139.1,289.82a10.62,10.62,0,0,0-4.35-3.83,20.86,20.86,0,0,0-3.82-1.09,47.15,47.15,0,0,1-8.41-3.17,4.08,4.08,0,0,1-2.67-3.75c0-.24,0-.47,0-.7a59.43,59.43,0,0,1-12.28,2.47,86.44,86.44,0,0,1-11.37.58c-1,0-2.08-.07-3.16-.19-.13,1.73-.15,3.46-.12,5.19,0,1.31-.3,6.45-.14,7.66.3,2.17,2.4,2.13,4.12,2.36,3.58.48,7,.42,10.52,1.57a41.53,41.53,0,0,0,9.49,2.45,72.64,72.64,0,0,0,17.37-.55,41,41,0,0,0,5.16-1.05c1.18-.33,1.76-.71,1.7-2.06A11.84,11.84,0,0,0,139.1,289.82Z"/><path class="cls-4" d="M123.31,300h0c-2.16,0-4.33-.1-6.46-.28a37.53,37.53,0,0,1-8.59-2.14l-1-.32a30.57,30.57,0,0,0-7.23-1.23c-1-.09-2.13-.19-3.22-.34l-.6-.07c-1.56-.17-3.52-.4-3.82-2.58a46.14,46.14,0,0,1,.06-5c0-1.13.09-2.21.08-2.69,0-1.9,0-3.61.11-5.22l0-.36.35,0c1,.11,2.08.15,3.08.18l1.76,0a96.13,96.13,0,0,0,9.62-.61A58.48,58.48,0,0,0,119.72,277l.42-.13,0,.44c0,.23,0,.47,0,.71a3.71,3.71,0,0,0,2.48,3.45,45.68,45.68,0,0,0,8.34,3.14l1.06.25a14.83,14.83,0,0,1,2.83.86,11,11,0,0,1,4.49,4,12.08,12.08,0,0,1,2.06,6.06c.08,1.54-.66,2.05-1.95,2.41a45.16,45.16,0,0,1-5.2,1.07A72.93,72.93,0,0,1,123.31,300Zm-30-19.48c-.1,1.49-.12,3.06-.09,4.8,0,.51,0,1.54-.08,2.74-.07,1.85-.17,4.17-.07,4.89.23,1.65,1.68,1.82,3.22,2l.61.08c1.07.14,2.15.24,3.19.33a32.23,32.23,0,0,1,7.39,1.26l1,.32a36.29,36.29,0,0,0,8.43,2.11,72.88,72.88,0,0,0,17.28-.54,47.4,47.4,0,0,0,5.13-1.05c1.13-.32,1.5-.61,1.44-1.72a11.45,11.45,0,0,0-1.94-5.71,10.33,10.33,0,0,0-4.21-3.71,12.61,12.61,0,0,0-2.7-.81l-1.07-.26a47.13,47.13,0,0,1-8.47-3.19A4.43,4.43,0,0,1,119.5,278a1.77,1.77,0,0,0,0-.24,60.09,60.09,0,0,1-11.92,2.34,87,87,0,0,1-11.41.59C95.24,280.64,94.29,280.61,93.33,280.52Z"/><path class="cls-4" d="M139,295.57a25.43,25.43,0,0,1-6.64,1.34c-4.79.48-9.77,1.11-14.58.42s-9-3.55-13.75-4.48c-2.83-.54-5.69-.56-8.54-.88-.94-.1-1.86-.16-2.77-.21a10.09,10.09,0,0,0,0,1.23c.3,2.17,2.4,2.13,4.12,2.36,3.58.48,7,.42,10.52,1.57a41.53,41.53,0,0,0,9.49,2.45,72.64,72.64,0,0,0,17.37-.55,41,41,0,0,0,5.16-1.05c1.18-.33,1.76-.71,1.7-2.06a9.39,9.39,0,0,0-.12-1.08A16.55,16.55,0,0,1,139,295.57Z"/><path class="cls-4" d="M123.31,300c-2.16,0-4.33-.1-6.46-.28a37.53,37.53,0,0,1-8.59-2.14l-1-.32a30.57,30.57,0,0,0-7.23-1.23c-1-.09-2.13-.19-3.22-.34l-.6-.07c-1.56-.17-3.52-.4-3.82-2.58a9.6,9.6,0,0,1,0-1.28v-.36h.36c1.07,0,2,.12,2.8.21,1,.12,2,.2,3.06.27a45.42,45.42,0,0,1,5.5.63,33.83,33.83,0,0,1,6.55,2.19,30.57,30.57,0,0,0,7.19,2.27,31.3,31.3,0,0,0,4.6.31,84.86,84.86,0,0,0,8.61-.59l1.29-.13a25.33,25.33,0,0,0,6.55-1.32,16.07,16.07,0,0,0,1.95-.93l.44-.24.08.49a10.51,10.51,0,0,1,.11,1.12c.08,1.54-.66,2.05-1.95,2.41a45.16,45.16,0,0,1-5.2,1.07A72.93,72.93,0,0,1,123.31,300Zm-30.26-7.87c0,.38,0,.65,0,.82.23,1.65,1.68,1.82,3.22,2l.61.08c1.07.14,2.15.24,3.19.33a32.23,32.23,0,0,1,7.39,1.26l1,.32a36.29,36.29,0,0,0,8.43,2.11,72.88,72.88,0,0,0,17.28-.54,47.4,47.4,0,0,0,5.13-1.05c1.13-.32,1.5-.61,1.44-1.72,0-.17,0-.36,0-.56a13.8,13.8,0,0,1-1.61.73,26,26,0,0,1-6.73,1.37l-1.27.13a86.44,86.44,0,0,1-8.69.59,32.62,32.62,0,0,1-4.7-.31,31.2,31.2,0,0,1-7.35-2.33,35.35,35.35,0,0,0-6.42-2.15,47.73,47.73,0,0,0-5.43-.61c-1-.07-2-.15-3.08-.27C94.71,292.23,93.94,292.17,93.05,292.13Z"/><path class="cls-5" d="M140,291.36c-.86,2.26-4.29,3.3-6.31,3.82-5.46,1.4-11.81,1.49-17-1-1.9-.93-3.73-2-5.71-2.76a36,36,0,0,0-8.11-1.54c-5.14-.36-2-2.82,3.94-2.6,6.73.23,13.24-.43,16.34-1.84,1.91-.87,1.19-2.39-1-3.87a3.94,3.94,0,0,1-2.29-3.55c0-.24,0-.47,0-.7a59.43,59.43,0,0,1-12.28,2.47,86.44,86.44,0,0,1-11.37.58c-1,0-2.08-.07-3.16-.19-.13,1.73-.15,3.46-.12,5.19,0,1.31-.3,6.45-.14,7.66.3,2.17,2.4,2.13,4.12,2.36,3.58.48,7,.42,10.52,1.57a41.53,41.53,0,0,0,9.49,2.45,72.64,72.64,0,0,0,17.37-.55,41,41,0,0,0,5.16-1.05c1.18-.33,1.76-.71,1.7-2.06A11.5,11.5,0,0,0,140,291.36Z"/><path class="cls-5" d="M129.33,297.85a26.89,26.89,0,0,1-11.57-.53c-2.08-.62-4.07-1.49-6.12-2.17s-6.37-2.69-8.62-2.85-8.73-.41-9-3.24c-.27-3.66,1.06-4.5,6.21-4.37,3.5.08,7-.86,10.34-1.25a27.28,27.28,0,0,0,6.88-1.38,6.27,6.27,0,0,0,3-1.9,3.75,3.75,0,0,1-.69-2.18c0-.24,0-.47,0-.7a59.43,59.43,0,0,1-12.28,2.47,86.44,86.44,0,0,1-11.37.58c-1,0-2.08-.07-3.16-.19-.13,1.73-.15,3.46-.12,5.19,0,1.31-.3,6.45-.14,7.66.3,2.17,2.4,2.13,4.12,2.36,3.58.48,7,.42,10.52,1.57a41.53,41.53,0,0,0,9.49,2.45,72.64,72.64,0,0,0,17.37-.55,41,41,0,0,0,5.16-1.05c1.18-.33,1.76-.71,1.7-2.06,0-.36-.06-.71-.11-1.06C137.77,296.86,133,297.33,129.33,297.85Z"/><path class="cls-6" d="M120,265.61a.45.45,0,0,0-.74-.1,22.66,22.66,0,0,0-5.13,1.27,48.37,48.37,0,0,1-6.51,1.4c-4.15.59-8.27,1.68-12.49,1.56a13.38,13.38,0,0,0-3.46.15c-1,.23-.51,6.89-.37,8.69s-.45,3.4,1.77,3.95a27.42,27.42,0,0,0,6.28.39A84.69,84.69,0,0,0,115,281.38a39.26,39.26,0,0,0,4.19-1c.55-.17,1.52-.45,1.84-.95a6.19,6.19,0,0,0,.44-2.57C121.61,275.68,121.12,267.81,120,265.61Z"/><path class="cls-7" d="M97.65,283.27a19.4,19.4,0,0,1-4.64-.41c-2-.5-2-1.77-2-3.13,0-.36,0-.74,0-1.13-.69-8.73.23-9,.63-9.05a9.17,9.17,0,0,1,2.09-.2c.39,0,.78,0,1.15,0h.32a44.19,44.19,0,0,0,8.82-.95c1.18-.21,2.4-.43,3.6-.59a50.27,50.27,0,0,0,6.47-1.39l1.33-.42a14.43,14.43,0,0,1,3.76-.87.81.81,0,0,1,1.18.28c1.14,2.29,1.62,10.26,1.49,11.46,0,.2,0,.43,0,.65a4.23,4.23,0,0,1-.45,2.07,3.75,3.75,0,0,1-2,1.08,38.48,38.48,0,0,1-4.25,1,84.55,84.55,0,0,1-15.45,1.55h-2Zm-4-13.22a7.89,7.89,0,0,0-1.93.18c-.25.2-.59,2.2-.11,8.32,0,.42,0,.82,0,1.19,0,1.34,0,2.08,1.48,2.46a19.39,19.39,0,0,0,4.47.38h2A84.16,84.16,0,0,0,115,281a39.75,39.75,0,0,0,4.16-1c.46-.13,1.39-.41,1.63-.8a3.55,3.55,0,0,0,.35-1.72c0-.24,0-.48,0-.7.13-1.13-.35-8.94-1.42-11.07,0-.05,0-.05-.07-.05a.18.18,0,0,0-.13.05l-.09.09h-.13a14.32,14.32,0,0,0-3.69.84c-.46.15-.92.31-1.36.43a49.53,49.53,0,0,1-6.55,1.41c-1.19.17-2.41.38-3.58.59a43.82,43.82,0,0,1-9,1h-.32Z"/><path class="cls-8" d="M104.55,279.93c2.52-2.12,6.47-2.62,9.6-3.24a32.85,32.85,0,0,0,7.3-1.9c-.14-2.83-.62-7.55-1.43-9.18a.45.45,0,0,0-.74-.1,22.66,22.66,0,0,0-5.13,1.27,48.37,48.37,0,0,1-6.51,1.4c-4.15.59-8.27,1.68-12.49,1.56a13.38,13.38,0,0,0-3.46.15c-1,.23-.51,6.89-.37,8.69s-.45,3.4,1.77,3.95a27.42,27.42,0,0,0,6.28.39c1,0,2.08,0,3.14-.07A6.89,6.89,0,0,1,104.55,279.93Z"/><path class="cls-8" d="M93.89,280.21c1.63-3.14,7.09-2.92,10.06-3.38,4.41-.69,8.68-1.9,13-3a17.21,17.21,0,0,1,4.4-.69c-.21-2.75-.65-6.18-1.32-7.52a.45.45,0,0,0-.74-.1,22.66,22.66,0,0,0-5.13,1.27,48.37,48.37,0,0,1-6.51,1.4c-4.15.59-8.27,1.68-12.49,1.56a13.38,13.38,0,0,0-3.46.15c-1,.23-.51,6.89-.37,8.69s-.45,3.4,1.77,3.95l.37.08A4.19,4.19,0,0,1,93.89,280.21Z"/><path class="cls-2" d="M53.49,278.37c-.61-4,.18-8.17.92-12.15,3.24,1,6.32,2.36,9.71,2.89s6.89,1.27,10.36,1.68a37.42,37.42,0,0,0,4.36.13c.52,0,1,0,1.56.05.72.08.31-.07.31.64,0,1.58-.22,3.18-.36,4.75s-.08,3-.93,4.38a.49.49,0,0,0,.32.73c-.49.12-1.12.07-1.66.15a41.19,41.19,0,0,1-12.29-.37c-2.11-.34-4.27-.43-6.38-.75-1.19-.19-2.34-.57-3.51-.87"/><path class="cls-2" d="M53.49,278.37c-.61-4,.18-8.17.92-12.15,3.24,1,6.32,2.36,9.71,2.89s6.89,1.27,10.36,1.68a37.42,37.42,0,0,0,4.36.13c.52,0,1,0,1.56.05.72.08.31-.07.31.64,0,1.58-.22,3.18-.36,4.75s-.08,3-.93,4.38a.49.49,0,0,0,.32.73c-.49.12-1.12.07-1.66.15a41.19,41.19,0,0,1-12.29-.37c-2.11-.34-4.27-.43-6.38-.75-1.19-.19-2.34-.57-3.51-.87"/><path class="cls-3" d="M33.85,289.82A10.62,10.62,0,0,1,38.2,286,21.19,21.19,0,0,1,42,284.9a47.15,47.15,0,0,0,8.41-3.17A4.09,4.09,0,0,0,53.11,278c0-.24,0-.47,0-.7a59.43,59.43,0,0,0,12.28,2.47,86.2,86.2,0,0,0,11.36.58c1,0,2.08-.07,3.17-.19.12,1.73.14,3.46.11,5.19,0,1.31.31,6.45.14,7.66-.3,2.17-2.39,2.13-4.12,2.36-3.57.48-7,.42-10.52,1.57a41.53,41.53,0,0,1-9.49,2.45,72.57,72.57,0,0,1-17.36-.55,41.17,41.17,0,0,1-5.17-1.05c-1.17-.33-1.76-.71-1.69-2.06A11.73,11.73,0,0,1,33.85,289.82Z"/><path class="cls-4" d="M49.65,300a73.06,73.06,0,0,1-11-.83,45.72,45.72,0,0,1-5.21-1.07c-1.29-.36-2-.87-1.94-2.41a12.2,12.2,0,0,1,2.07-6.06,10.92,10.92,0,0,1,4.48-4,14.7,14.7,0,0,1,2.84-.86l1-.25a45.68,45.68,0,0,0,8.34-3.14A3.69,3.69,0,0,0,52.76,278c0-.24,0-.48,0-.71l0-.44.42.13a58.38,58.38,0,0,0,12.21,2.45,84.13,84.13,0,0,0,11.32.58c1.06,0,2.09-.07,3.14-.18l.36,0,0,.36c.12,1.61.15,3.32.12,5.22,0,.48,0,1.55.08,2.68a48.42,48.42,0,0,1,.05,5c-.3,2.18-2.25,2.41-3.82,2.58l-.59.07c-1.09.15-2.18.25-3.22.34a30.65,30.65,0,0,0-7.24,1.23l-1,.32a37.66,37.66,0,0,1-8.59,2.14C54,299.9,51.8,300,49.65,300Zm3.81-22.25a2.09,2.09,0,0,1,0,.24A4.4,4.4,0,0,1,50.59,282a47.41,47.41,0,0,1-8.47,3.19l-1.08.26a13,13,0,0,0-2.7.81,10.24,10.24,0,0,0-4.2,3.71,11.46,11.46,0,0,0-2,5.71c0,1.11.31,1.4,1.44,1.72a47.89,47.89,0,0,0,5.13,1.05A72.92,72.92,0,0,0,56,299a36.25,36.25,0,0,0,8.44-2.11l1-.32a32.41,32.41,0,0,1,7.4-1.26c1-.09,2.12-.19,3.19-.33l.6-.08c1.54-.16,3-.33,3.22-2a47.42,47.42,0,0,0-.07-4.9c-.05-1.19-.09-2.22-.08-2.73,0-1.74,0-3.31-.08-4.8-1,.09-1.91.12-2.77.16l-1.78,0c-3.33,0-6.75-.32-9.7-.62A60.23,60.23,0,0,1,53.46,277.75Z"/><path class="cls-4" d="M34,295.57a25.36,25.36,0,0,0,6.63,1.34c4.79.48,9.77,1.11,14.59.42s9-3.55,13.75-4.48c2.83-.54,5.68-.56,8.54-.88.94-.1,1.85-.16,2.77-.21a9.66,9.66,0,0,1,0,1.23c-.3,2.17-2.39,2.13-4.12,2.36-3.57.48-7,.42-10.52,1.57a41.53,41.53,0,0,1-9.49,2.45,72.57,72.57,0,0,1-17.36-.55,41.17,41.17,0,0,1-5.17-1.05c-1.17-.33-1.76-.71-1.69-2.06a9.4,9.4,0,0,1,.11-1.08A16.69,16.69,0,0,0,34,295.57Z"/><path class="cls-4" d="M49.65,300a73.06,73.06,0,0,1-11-.83,45.72,45.72,0,0,1-5.21-1.07c-1.29-.36-2-.87-1.94-2.41a10.51,10.51,0,0,1,.12-1.12l.08-.49.43.25a18.52,18.52,0,0,0,2,.92,25.16,25.16,0,0,0,6.55,1.32l1.28.13a84.86,84.86,0,0,0,8.62.59,31.4,31.4,0,0,0,4.6-.31,30.49,30.49,0,0,0,7.18-2.27,33.83,33.83,0,0,1,6.55-2.19,45.58,45.58,0,0,1,5.51-.63c1-.07,2-.15,3.06-.27.84-.09,1.73-.16,2.79-.21h.36v.36a8.18,8.18,0,0,1,0,1.28c-.3,2.18-2.25,2.41-3.82,2.58l-.59.07c-1.09.15-2.18.25-3.22.34a30.65,30.65,0,0,0-7.24,1.23l-1,.32a37.66,37.66,0,0,1-8.59,2.14C54,299.9,51.8,300,49.65,300Zm-17.41-4.84c0,.2,0,.38-.05.56,0,1.11.31,1.4,1.44,1.72a47.89,47.89,0,0,0,5.13,1.05A72.92,72.92,0,0,0,56,299a36.25,36.25,0,0,0,8.44-2.11l1-.32a32.41,32.41,0,0,1,7.4-1.26c1-.09,2.12-.19,3.19-.33l.6-.08c1.54-.16,3-.33,3.22-2a5.48,5.48,0,0,0,0-.82c-.89,0-1.65.1-2.39.18-1,.12-2.07.2-3.08.27a47.81,47.81,0,0,0-5.42.61,35.09,35.09,0,0,0-6.42,2.15,31.13,31.13,0,0,1-7.36,2.33,32.58,32.58,0,0,1-4.69.31,86,86,0,0,1-8.69-.59l-1.28-.13a25.8,25.8,0,0,1-6.72-1.37A12.45,12.45,0,0,1,32.24,295.16Z"/><path class="cls-5" d="M33,291.36c.86,2.26,4.28,3.3,6.3,3.82,5.47,1.4,11.81,1.49,17-1,1.9-.93,3.73-2,5.71-2.76a36,36,0,0,1,8.11-1.54c5.13-.36,2-2.82-3.94-2.6-6.73.23-13.24-.43-16.34-1.84-1.92-.87-1.2-2.39,1-3.87A3.94,3.94,0,0,0,53.11,278c0-.24,0-.47,0-.7a59.43,59.43,0,0,0,12.28,2.47,86.2,86.2,0,0,0,11.36.58c1,0,2.08-.07,3.17-.19.12,1.73.14,3.46.11,5.19,0,1.31.31,6.45.14,7.66-.3,2.17-2.39,2.13-4.12,2.36-3.57.48-7,.42-10.52,1.57a41.53,41.53,0,0,1-9.49,2.45,72.57,72.57,0,0,1-17.36-.55,41.17,41.17,0,0,1-5.17-1.05c-1.17-.33-1.76-.71-1.69-2.06A11.5,11.5,0,0,1,33,291.36Z"/><path class="cls-5" d="M43.63,297.85a26.85,26.85,0,0,0,11.56-.53c2.08-.62,4.07-1.49,6.12-2.17s6.37-2.69,8.62-2.85,8.73-.41,8.94-3.24c.29-3.66-1.05-4.5-6.19-4.37-3.51.08-7-.86-10.35-1.25a27.28,27.28,0,0,1-6.88-1.38,6.24,6.24,0,0,1-3-1.9,3.75,3.75,0,0,0,.69-2.18c0-.24,0-.47,0-.7a59.43,59.43,0,0,0,12.28,2.47,86.2,86.2,0,0,0,11.36.58c1,0,2.08-.07,3.17-.19.12,1.73.14,3.46.11,5.19,0,1.31.31,6.45.14,7.66-.3,2.17-2.39,2.13-4.12,2.36-3.57.48-7,.42-10.52,1.57a41.53,41.53,0,0,1-9.49,2.45,72.57,72.57,0,0,1-17.36-.55,41.17,41.17,0,0,1-5.17-1.05c-1.17-.33-1.76-.71-1.69-2.06a7.47,7.47,0,0,1,.11-1.06C35.19,296.86,40,297.33,43.63,297.85Z"/><path class="cls-6" d="M51.48,276.87a6.19,6.19,0,0,0,.44,2.57,3.63,3.63,0,0,0,1.83.95,40.44,40.44,0,0,0,4.19,1,84.8,84.8,0,0,0,15.65,1.54,27.37,27.37,0,0,0,6.27-.39c2.22-.55,1.62-2,1.77-3.95s.63-8.46-.36-8.69a13.43,13.43,0,0,0-3.47-.15c-4.22.12-8.34-1-12.48-1.56a48.51,48.51,0,0,1-6.52-1.4,22.57,22.57,0,0,0-5.12-1.27.46.46,0,0,0-.75.1C51.83,267.81,51.34,275.68,51.48,276.87Z"/><path class="cls-7" d="M75.31,283.27h-2a84.64,84.64,0,0,1-15.45-1.55,39.73,39.73,0,0,1-4.22-1,3.75,3.75,0,0,1-2-1.09,4.13,4.13,0,0,1-.45-2.07c0-.22,0-.45,0-.65-.14-1.2.34-9.17,1.48-11.46a.82.82,0,0,1,1.18-.29,14.77,14.77,0,0,1,3.76.88l1.34.42a49.78,49.78,0,0,0,6.46,1.39c1.21.16,2.42.38,3.6.59a43.56,43.56,0,0,0,8.83.95h.31c.37,0,.76,0,1.15,0a9.27,9.27,0,0,1,2.1.2c.4.1,1.32.32.63,9.05a10.87,10.87,0,0,0,0,1.13c0,1.36,0,2.63-2,3.13A19.36,19.36,0,0,1,75.31,283.27Zm-1.48-.7h1.48a19.44,19.44,0,0,0,4.47-.38c1.49-.38,1.48-1.12,1.48-2.46,0-.37,0-.77,0-1.19.48-6.12.15-8.12-.13-8.34a8.75,8.75,0,0,0-1.91-.16l-1.13,0h-.31a43.92,43.92,0,0,1-9-1c-1.17-.21-2.39-.42-3.57-.59a49.67,49.67,0,0,1-6.56-1.41c-.44-.12-.89-.28-1.36-.43a14.25,14.25,0,0,0-3.68-.84h-.13l-.1-.09a.15.15,0,0,0-.12-.05s0,0-.07.05c-1.07,2.13-1.55,9.94-1.43,11.07,0,.22,0,.46,0,.7a3.44,3.44,0,0,0,.34,1.72c.24.39,1.17.67,1.61.8A41,41,0,0,0,58,281a84.05,84.05,0,0,0,15.32,1.53Z"/><path class="cls-8" d="M68.41,279.93c-2.53-2.12-6.48-2.62-9.61-3.24a33.13,33.13,0,0,1-7.3-1.9c.14-2.83.62-7.55,1.43-9.18a.46.46,0,0,1,.75-.1,22.57,22.57,0,0,1,5.12,1.27,48.51,48.51,0,0,0,6.52,1.4c4.14.59,8.26,1.68,12.48,1.56a13.43,13.43,0,0,1,3.47.15c1,.23.5,6.89.36,8.69s.45,3.4-1.77,3.95a27.37,27.37,0,0,1-6.27.39c-1,0-2.09,0-3.14-.07A6.89,6.89,0,0,0,68.41,279.93Z"/><path class="cls-8" d="M79.07,280.21c-1.63-3.14-7.1-2.92-10.06-3.38-4.42-.69-8.68-1.9-13-3a17.21,17.21,0,0,0-4.4-.69c.21-2.75.66-6.18,1.32-7.52a.46.46,0,0,1,.75-.1,22.57,22.57,0,0,1,5.12,1.27,48.51,48.51,0,0,0,6.52,1.4c4.14.59,8.26,1.68,12.48,1.56a13.43,13.43,0,0,1,3.47.15c1,.23.5,6.89.36,8.69s.45,3.4-1.77,3.95l-.36.08A4.28,4.28,0,0,0,79.07,280.21Z"/><path class="cls-9" d="M27.9,27C30.38,21.05,45.18,0,79.73.35a60.29,60.29,0,0,1,51.83,29c2.25,3.62,13.88,30.23,11.35,81.14s-30.87,13.59-67,19.58-37.78,3-43.08.69-1.15-6.22-4.14-9.1-13.1-7.5-13.71-21C14.08,81.55,21.51,42.16,27.9,27Z"/><path class="cls-9" d="M127.39,138.07c-4.66,0-10.1-1.58-16.39-3.39-8-2.3-17-4.91-26.76-4.91a50.29,50.29,0,0,0-8.31.67C61.64,132.8,51.56,134,45.12,134s-8.71-1.08-11.14-2.23l-1.32-.62c-3.23-1.4-3.18-3.49-3.14-5.33,0-1.38.07-2.7-1.11-3.83a27.21,27.21,0,0,0-2.22-1.77C22,117.09,15.1,111.91,14.6,100.75c-.89-19.66,6.68-58.95,13-73.93,1.27-3,5.62-9.73,13.81-15.65C51.85,3.62,64.72-.14,79.73,0a60.82,60.82,0,0,1,52,29.05l.09.14c.14.24,14.17,25.6,11.4,81.35-1,19.55-5.57,27.52-15.86,27.53Zm-43.15-9c9.87,0,19,2.62,27,4.94,6.24,1.8,11.62,3.35,16.19,3.35h0c9.82,0,14.22-7.79,15.17-26.87,2.76-55.54-11.15-80.71-11.3-80.94l-.09-.15A60.1,60.1,0,0,0,79.73.7h-.84c-14.47,0-27,3.71-37.1,11-8.07,5.83-12.32,12.4-13.57,15.36C22,42,14.4,81.13,15.28,100.72c.49,10.84,7.27,15.88,11.32,18.9a24.73,24.73,0,0,1,2.29,1.82c1.4,1.35,1.36,2.94,1.32,4.35,0,1.86-.08,3.46,2.72,4.69.47.19.91.41,1.35.61,2.35,1.12,4.57,2.18,10.84,2.18s16.44-1.15,30.69-3.51A51.84,51.84,0,0,1,84.24,129.08Z"/><path class="cls-10" d="M34.14,98.21c.48-6.68.91-13.39,1.57-20,0-.29-.47-.38-.52-.08-1.12,6.57-1.26,13.46-1.65,20.12-.21,3.72-.55,7.45-.53,11.19,0,2.79-.08,6.12,1,8.76,0,.06.13,0,.11-.05-.8-2.93-.68-6.31-.65-9.34C33.49,105.25,33.9,101.72,34.14,98.21Z"/><path class="cls-10" d="M57.17,97.62c0-.21-.33-.27-.37-.06a71.44,71.44,0,0,0-1,10.83,32.21,32.21,0,0,0,.63,9.3.14.14,0,0,0,.28-.07C55.52,111,56.8,104.26,57.17,97.62Z"/><path class="cls-10" d="M105.23,103.06c-.64-4.82-1-9.67-1.59-14.49,0-.27-.5-.23-.49.06a121.07,121.07,0,0,0,1.19,12.75c.31,2.24.67,4.46.82,6.71a24,24,0,0,1-1,7.81.13.13,0,0,0,.24.07A27.93,27.93,0,0,0,105.23,103.06Z"/><path class="cls-10" d="M124.35,93.27a91.17,91.17,0,0,0-2.73-16.91.26.26,0,0,0-.5.13,226.94,226.94,0,0,1,3.73,33c0,.1.17.11.17,0A137.06,137.06,0,0,0,124.35,93.27Z"/><path class="cls-11" d="M131.56,29.38A60.29,60.29,0,0,0,79.73.35C45.18,0,30.38,21.05,27.9,27c-6.39,15.21-13.82,54.6-13,73.78.44,9.64,5.74,14.75,9.82,17.93a16.51,16.51,0,0,1-2.8-9,23.34,23.34,0,0,1,1.31-8.29c.76-1.9,2.45-3.42,4.57-2.6,1.76.68,2.56,2.92,3,4.59a74.93,74.93,0,0,1,1.49,9.89c.11.84,1.15,9.22,3.51,7.56,1.26-.91,1.56-3.2,1.9-4.6a15.36,15.36,0,0,1,1.14-3.77c1.51-2.75,5-4.62,7.8-2.47,3.25,2.47,3.29,6.26,2.83,10-.42,3.38-1.39,7.66-4.76,9.34a15.76,15.76,0,0,1-14.44-.6,4.8,4.8,0,0,0,2.49,2c5.3,2.3,6.91,5.3,43.08-.69s64.5,31.33,67-19.58S133.81,33,131.56,29.38Zm-9.27,77.35c-.06,3.4-1.77,8.21-2.66,9.34.22.62-.07,1.3-1.28,1.83a.45.45,0,0,1-.61-.28.43.43,0,0,1-.16-.78,5.7,5.7,0,0,0,.53-.41c.12-.86-.26-1.25-1.17-1.17-.37,0-.74,0-1.11,0a16.64,16.64,0,0,1-1.73,0c-3.46-.19-7.6-3.9-3.46-6.77,1.3-.9,2.82-1.41,4.19-2.17s2.62-2.31,4.24-2.83C121.54,102.66,122.32,104.35,122.29,106.73Zm17-.73a15.56,15.56,0,0,1-3.42,5.63c-.25.25-2.93,2.9-2.86,1.08,0-.54.86-.54.84,0a2.19,2.19,0,0,1,.76-1.23c-2.63.22-5.82-1.88-5.23-4.83.2-1,.74-2,.89-3,.27-1.78-1-2.85-1.85-4.21a7.88,7.88,0,0,1-1.3-5.3c.28-1.67,1.75-3.92,3.73-3.42,1.79.45,1.87,2.63,2.66,4,1.08,1.81,3.2,1.89,4.93,2.75C141.89,99.11,140.4,103.25,139.32,106Z"/><path class="cls-11" d="M32.7,98.81c.14,1.1.28,2.19.41,3.28.9-2,2.75-3.48,5.24-2.54,2.32.86,3.95,2.62,5.62,4.37a40.51,40.51,0,0,0,6.58,5.1,14.57,14.57,0,0,1,5.55,8.16A6.43,6.43,0,0,1,64,113a12.17,12.17,0,0,1,5.87,3.78,25.05,25.05,0,0,0,5.59-.27,67.08,67.08,0,0,1,6.8-.11c5,.11,10,.8,15,.65a7.72,7.72,0,0,1,2.07-4.31c.72-.82,1.82-2.35,3.1-2.34s2,1,2.64,2.16c1.07-3.25,3.59-5.73,6.17-7.88,2.13-1.78,5-5.08,8-5.4,2.43-.27,4.28,1.6,5.59,3.67-1.1-5.06.42-17,6.85-15.35,2.3.59,3,2.37,3.94,4.34s2.24,2.35,4.13,2.86A6,6,0,0,1,143,96.58l.29.37c.1-42.09-9.66-64.29-11.7-67.57A60.29,60.29,0,0,0,79.73.35C45.18,0,30.38,21.05,27.9,27c-6.39,15.21-13.82,54.6-13,73.78a22,22,0,0,0,4,12,17.43,17.43,0,0,1,.25-8.17c1.23-4.3,4-9.27,7.43-12.13C31,88.73,32.29,95.76,32.7,98.81Z"/><path class="cls-6" d="M50.65,180.66l-3.51,3S34,261.74,33.37,271.54c0,0,2.54,1.73,4.84.46,0,0,4.72-28.45,4.95-32.25,0,0-1.27,30.75-.69,33.4,0,0,22.12,6,43.31,4.14s33.17-7.94,37.31-6.91c0,0,1.61-19.46,0-33.63,0,0,3,17.16,2.54,32.94,0,0,4,.81,6.79-.8,0,0-.17-24.94-4.49-46.71A382.69,382.69,0,0,0,117,180.66l-5.64-2.54S78.4,187.51,50.65,180.66Z"/><path class="cls-7" d="M77.3,278a151.8,151.8,0,0,1-34.92-4.51l-.2-.05,0-.21c-.4-1.85.06-16.81.4-26.11-1.4,9.41-3.84,24.1-4,24.94l0,.17-.14.08a4.15,4.15,0,0,1-2,.51,6.27,6.27,0,0,1-3.19-1l-.16-.11v-.19c.58-9.7,13.65-87.12,13.78-87.9l0-.12,3.74-3.22.17.05a95,95,0,0,0,22.57,2.49,156,156,0,0,0,38-5l.12,0,5.89,2.64,0,.15a382.42,382.42,0,0,1,11,41.56c4.28,21.56,4.49,46.53,4.5,46.77v.21l-.17.09a9.09,9.09,0,0,1-4.61,1.06,13.32,13.32,0,0,1-2.43-.21l-.28-.06v-.29a169.85,169.85,0,0,0-1.2-23.29c.34,11.92-.63,23.87-.64,24l0,.41-.4-.1a4.3,4.3,0,0,0-1-.11c-1.83,0-4.64.76-8.53,1.81a149.67,149.67,0,0,1-27.66,5.22C83.11,277.87,80.25,278,77.3,278Zm-34.53-5.12A151.63,151.63,0,0,0,77.3,277.3c2.93,0,5.77-.12,8.45-.35a148.86,148.86,0,0,0,27.53-5.2c4.53-1.22,7.65-2,9.5-1.78.21-2.8,1.43-20.3,0-33.17l.68-.11c0,.18,3,17.16,2.55,32.71a13.5,13.5,0,0,0,2,.15,9.13,9.13,0,0,0,4.09-.86c0-2.44-.43-26-4.49-46.44a382.48,382.48,0,0,0-10.89-41.34l-5.38-2.42a157.42,157.42,0,0,1-38,5A95.58,95.58,0,0,1,50.74,181l-3.28,2.82c-.59,3.5-13,77.19-13.73,87.49a5.52,5.52,0,0,0,2.63.76,3.43,3.43,0,0,0,1.53-.34c.4-2.37,4.71-28.46,4.92-32l.7,0C43.49,240.06,42.3,269.21,42.77,272.87Z"/><path class="cls-8" d="M127.93,222.18A382.69,382.69,0,0,0,117,180.66l-5.64-2.54s-32.95,9.39-60.7,2.54l-3.51,3S34,261.74,33.37,271.54c0,0,2.54,1.73,4.84.46,0,0,4.72-28.45,4.95-32.25,0,0-1.27,30.75-.69,33.4a151.93,151.93,0,0,0,32.28,4.46,16,16,0,0,0-2.14-1.19C61.44,271.56,57.85,260.19,56.25,249A101.19,101.19,0,0,1,55,229.44c.11-2,.71-7.68,4.11-6.87,1.77.42,3,1.76,4.61,2.6,11.61,6.32,25.37,1.25,36.45-3.71,2.47-1.12,6.07-2.43,8.34-.17,2.09,2.08,2.76,5.33,3.25,8.14,1.58,9.1,4.31,18.3,3.6,27.63a24.32,24.32,0,0,1-4,11.62,23.89,23.89,0,0,1-4.62,5.12c8.5-2.07,13.86-4,16.36-3.42,0,0,1.61-19.46,0-33.63,0,0,3,17.16,2.54,32.94,0,0,4,.81,6.79-.8C132.42,268.89,132.25,244,127.93,222.18Z"/><path class="cls-8" d="M127.93,222.18A382.69,382.69,0,0,0,117,180.66l-5.64-2.54s-32.95,9.39-60.7,2.54l-3.51,3S34,261.74,33.37,271.54c0,0,2.54,1.73,4.84.46,0,0,4.72-28.45,4.95-32.25,0,0-1.27,30.75-.69,33.4A152.42,152.42,0,0,0,71,277.47a48.7,48.7,0,0,1-11.1-3.67l-1.32-.66a18.41,18.41,0,0,1-5.34-2.55c-5.91-4.32-6.32-11.87-6.5-18.59a294.36,294.36,0,0,1,.69-30.87c.38-4.77.95-9.52,1.32-14.29.27-3.57.29-8.38,2.46-11.42,2-2.82,5.25-3.4,8.52-3.46,5.3-.09,10.59.32,15.88.44a112.33,112.33,0,0,0,16.5-.93,84.67,84.67,0,0,0,12.58-2.2c2.64-.75,5.62-2.05,8.18-.39,5.41,3.51,6,10.84,7.75,16.47a168,168,0,0,1,5.1,19.1c.53,2.9,1,5.8,1.47,8.71.36,2.34.75,4.69.91,7.05.2,3.12-4.71-13.39-6.58-11.14-1.3,1.56-.34,20.91-1.27,28.73a20.73,20.73,0,0,1-8.35,14.69c5.59-1.49,9.29-2.59,11.24-2.11,0,0,1.61-19.46,0-33.63,0,0,3,17.16,2.54,32.94,0,0,4,.81,6.79-.8C132.42,268.89,132.25,244,127.93,222.18Z"/><path class="cls-12" d="M169,107.79c-.69-4.12-3.16-8-5-11.63-2.49-5-5.53-11.24-11.3-13-.39,1.27-1.29,2.47-1.8,3.69-1.6,3.83-4.47,7.24-7.23,10.29A46.79,46.79,0,0,1,119,111.33a76.5,76.5,0,0,1-24,1.26,22.5,22.5,0,0,0-5,.09,2.51,2.51,0,0,0-.46-1.67c-.52-.55-1.89-.17-2.52-.12-1.91.16-3.84.09-5.76.24-3.49.28-7-.33-10.47.39-.7.15-1.32.14-1.4.94a14.31,14.31,0,0,0,.1,2.85c-1.17.29-2.32.7-3.46,1.06a41.86,41.86,0,0,0-6.81,3.37,28,28,0,0,0-9.77,8.51c-5.87,8.69-11.77,16.71-19.76,23.59a84.37,84.37,0,0,1-11.27,8.55c-.87.52-3.82,1.16-3.87,2.52-.08,2.19,1.19,4.63,2,6.64a61.72,61.72,0,0,0,6.83,13.21,36.77,36.77,0,0,0,4.51,5.37c1.32,1.29,3,3.17,5,3.31,2.73.21,3.9-2,5.68-3.69,2.56-2.4,5.12-4.75,7.56-7.3.39-.41.76-.83,1.14-1.25-.16,1.41-.33,2.81-.5,4.22,0,.22.19.17.34.26a56.82,56.82,0,0,0,10.92,4c16.17,3.24,34.55.57,50.29-3.59,1.38-.36,9-2.37,9.2-2.51a.52.52,0,0,0,.23-.69,10.32,10.32,0,0,0-.77-2.18c-.8-2.4-1.38-4.88-2.09-7.31a100.78,100.78,0,0,1-2.86-14.4c-.67-5-1.12-10.06-1.46-15.05,0-.64-.26-2.46-.29-3.1,5.41,2.19,14.63,2.88,21.55,1.18A50.67,50.67,0,0,0,148,133.17a60.51,60.51,0,0,0,14.06-12.79c2.61-3.33,5.34-7,7-11A5.83,5.83,0,0,0,169,107.79Z"/><path class="cls-13" d="M33.26,191.8H32.9c-1.93-.14-3.55-1.74-4.86-3l-.38-.38A36.07,36.07,0,0,1,23.1,183a62,62,0,0,1-6.86-13.28l-.5-1.22a14.07,14.07,0,0,1-1.49-5.57c0-1.21,1.69-1.85,3-2.36a7.26,7.26,0,0,0,1-.44,84.4,84.4,0,0,0,11.23-8.51c7.55-6.51,13.33-14.12,19.7-23.53a28,28,0,0,1,9.88-8.61l1.11-.62A33.24,33.24,0,0,1,66,116.05l.7-.23c.8-.27,1.64-.55,2.49-.77l0-.15a12.8,12.8,0,0,1-.06-2.48c.11-1,.84-1.08,1.42-1.19l.27,0a21.33,21.33,0,0,1,4.34-.37c.67,0,1.33,0,2,0l2,0c.85,0,1.54,0,2.2-.08,1-.07,1.94-.1,2.89-.12s1.92,0,2.87-.12l.46-.07a9.41,9.41,0,0,1,1.13-.11,1.62,1.62,0,0,1,1.22.41,2.47,2.47,0,0,1,.53,1.51,22.75,22.75,0,0,1,4.74,0c2.73.27,5.46.4,8.14.4A72.21,72.21,0,0,0,119,111a46.16,46.16,0,0,0,24.45-14c2.62-2.89,5.55-6.31,7.17-10.2a15.73,15.73,0,0,1,.81-1.58,11.5,11.5,0,0,0,1-2.07l.09-.33.34.1c5.76,1.72,8.84,7.84,11.31,12.76l.19.37c.4.8.83,1.6,1.26,2.41,1.59,3,3.24,6,3.78,9.32a6.51,6.51,0,0,1,0,1.71l0,.09c-1.64,4.07-4.36,7.69-7,11.06a60.5,60.5,0,0,1-14.14,12.86,50.28,50.28,0,0,1-16.27,6.91,36.6,36.6,0,0,1-8.7,1h0a37.49,37.49,0,0,1-12.55-2c0,.37.09.83.13,1.25s.11,1,.12,1.3c.41,5.88.87,10.66,1.46,15a97.4,97.4,0,0,0,2.86,14.35c.26.9.5,1.81.75,2.73.4,1.51.83,3.07,1.33,4.57a5.11,5.11,0,0,0,.21.51,6,6,0,0,1,.56,1.69,1,1,0,0,1,0,.67.75.75,0,0,1-.44.43h0c-.3.13-1.64.52-9.07,2.48l-.16,0c-12.68,3.35-24.4,5.05-34.86,5.05A79.56,79.56,0,0,1,58,188a56.22,56.22,0,0,1-11-4l-.07,0c-.41-.11-.47-.38-.44-.58.12-1,.25-2.1.37-3.14l-.42.45c-2.1,2.19-4.33,4.27-6.48,6.29l-1.09,1c-.4.37-.78.78-1.14,1.18C36.53,190.47,35.31,191.8,33.26,191.8Zm41.85-80.3a20.67,20.67,0,0,0-4.21.36l-.28,0c-.61.11-.81.17-.85.59a12.31,12.31,0,0,0,.06,2.34l.07.74-.29.07c-.92.22-1.83.52-2.73.82l-.7.24a32,32,0,0,0-5.63,2.71l-1.12.63a27.19,27.19,0,0,0-9.65,8.39C43.39,137.9,37.57,145.54,30,152.1a84.47,84.47,0,0,1-11.32,8.58,8.59,8.59,0,0,1-1.13.5c-1,.39-2.54,1-2.57,1.74a13.31,13.31,0,0,0,1.44,5.27c.17.43.35.84.5,1.23a61.44,61.44,0,0,0,6.79,13.15,37,37,0,0,0,4.47,5.31l.39.38c1.23,1.21,2.75,2.72,4.42,2.84,1.94.14,3-1,4.24-2.38.37-.41.75-.83,1.17-1.22l1.1-1c2.15-2,4.37-4.09,6.45-6.27l.88-1,1-1.08-.12,1.07c-.15,1.36-.32,2.71-.48,4.07l.15.07a56.66,56.66,0,0,0,10.82,4,79.09,79.09,0,0,0,15.45,1.43c10.4,0,22.06-1.69,34.68-5l.16,0c7.69-2,8.83-2.38,9-2.43l.09-.07a.25.25,0,0,0,0-.19l0-.1a5.14,5.14,0,0,0-.51-1.52c-.1-.23-.19-.43-.24-.58-.51-1.52-.93-3.09-1.34-4.61-.24-.91-.49-1.82-.75-2.72a100.08,100.08,0,0,1-2.87-14.44c-.59-4.39-1.06-9.19-1.46-15.08,0-.27-.08-.76-.13-1.27-.07-.72-.15-1.46-.17-1.84l0-.53.5.2a36.38,36.38,0,0,0,12.8,2.11h0a36.29,36.29,0,0,0,8.54-.95,50.21,50.21,0,0,0,16.05-6.81,60,60,0,0,0,14-12.71c2.6-3.32,5.28-6.88,6.89-10.86a5.09,5.09,0,0,0,0-1.46c-.53-3.17-2.14-6.19-3.7-9.11-.44-.82-.88-1.62-1.28-2.43l-.18-.36c-2.37-4.71-5.3-10.55-10.59-12.32a13.68,13.68,0,0,1-.93,1.88,13.48,13.48,0,0,0-.77,1.51c-1.66,4-4.64,7.46-7.3,10.4a46.92,46.92,0,0,1-24.81,14.25,73,73,0,0,1-15.86,1.67c-2.7,0-5.46-.13-8.2-.4a22.28,22.28,0,0,0-5,.08l-.38.06v-.4a2.27,2.27,0,0,0-.35-1.42,1,1,0,0,0-.72-.2,7.2,7.2,0,0,0-1,.11l-.5.07c-1,.07-2,.1-2.92.12s-1.9,0-2.85.12c-.67,0-1.38.08-2.25.08l-2,0C76.43,111.51,75.77,111.5,75.11,111.5Z"/><path class="cls-14" d="M104.45,134c-3.2,0-7,.62-10.18.53-1.73-.05-3.48-.46-5.21-.44a11.7,11.7,0,0,1-2.79-.18c-.92-.08-1.75-.1-1.76,1.27,0,.85.36,14.6.58,16.79-.07.7,2.57,2.16,4.75,2.73A47.85,47.85,0,0,0,96,156c1.47.11,7.87-2.36,9.84-4.21.43-.4-.15-4.87-.32-6.95S104.57,134,104.45,134Z"/><path class="cls-13" d="M152.37,84.05c-.11,10.18,8.86,19,16.69,25a6.32,6.32,0,0,0-.05-1.29c-.39-2.34-1.66-4.57-2.65-6.71a101.39,101.39,0,0,0-6-11.36c-2-2.94-4.43-5.54-7.71-6.52A6.45,6.45,0,0,1,152.37,84.05Z"/><path class="cls-13" d="M169.36,109.75l-.51-.39C157.6,100.73,151.94,92.21,152,84l0-.14a8.29,8.29,0,0,0,.32-.8l.09-.33.34.1c2.89.87,5.4,3,7.89,6.66a102.57,102.57,0,0,1,6,11.4c.2.43.41.85.62,1.29a21,21,0,0,1,2.06,5.51,6.12,6.12,0,0,1,.05,1.37ZM152.71,84.12c0,7.79,5.34,15.94,16,24.26a3.07,3.07,0,0,0-.05-.53,20.3,20.3,0,0,0-2-5.33c-.21-.44-.43-.87-.62-1.3a100.08,100.08,0,0,0-5.93-11.31c-2.29-3.4-4.59-5.4-7.2-6.28A4.8,4.8,0,0,1,152.71,84.12Z"/><path class="cls-13" d="M35.05,191c-.08-6.44-3.36-12.5-7.12-17.56-1.17-1.59-10.06-13.67-12.74-11.53a1.35,1.35,0,0,0-.6,1c-.08,2.19,1.19,4.63,2,6.64a61.72,61.72,0,0,0,6.83,13.21,36.77,36.77,0,0,0,4.51,5.37c1.32,1.29,3,3.17,5,3.31A3.83,3.83,0,0,0,35.05,191Z"/><path class="cls-13" d="M33.26,191.8H32.9c-1.93-.14-3.55-1.74-4.86-3l-.38-.38A36.07,36.07,0,0,1,23.1,183a62,62,0,0,1-6.86-13.28l-.5-1.22a14.07,14.07,0,0,1-1.49-5.57,1.67,1.67,0,0,1,.72-1.22,1.5,1.5,0,0,1,1-.32c3,0,8.92,7.4,12.19,11.82l.07.1c4.77,6.41,7.12,12.22,7.18,17.76v.21l-.19.1A4.24,4.24,0,0,1,33.26,191.8ZM16,162a.85.85,0,0,0-.55.18,1,1,0,0,0-.46.71,13.31,13.31,0,0,0,1.44,5.27c.17.43.35.84.5,1.23a61.44,61.44,0,0,0,6.79,13.15,37,37,0,0,0,4.47,5.31l.39.38c1.23,1.21,2.75,2.72,4.42,2.84h.31a3.5,3.5,0,0,0,1.44-.29c-.13-5.32-2.43-10.93-7-17.15l-.07-.09C22.22,166.35,17.88,162,16,162Z"/><path class="cls-15" d="M85.89,133.9c.27-.22,14.74.57,18.31.23,0,0,1.38,16.47,1.16,16.93s-8.07,3-9.1,2.88-9-1.15-9.68-1.84S85.31,134.36,85.89,133.9Z"/><path class="cls-16" d="M96.34,154.29h-.12c-.09,0-9-1.08-9.88-1.95s-1.16-14.06-1-17.28c.07-1.15.17-1.32.32-1.43s.19-.12.91-.12c1,0,2.89.07,5.1.14,3.06.1,6.88.22,9.6.22,1.32,0,2.29,0,2.88-.08l.35,0,0,.35c.63,7.56,1.34,16.66,1.11,17.12C105.31,151.94,97.37,154.29,96.34,154.29ZM86.13,134.21c-.44,1.85.15,16.69.72,17.67.54.49,7.23,1.47,9.44,1.72h0a43.91,43.91,0,0,0,8.71-2.72c.08-.85-.64-10.08-1.16-16.38-.62.05-1.48.06-2.6.06-2.74,0-6.55-.12-9.62-.22-2.21-.07-4.11-.13-5.08-.13Z"/><path class="cls-17" d="M105,143.85a17.73,17.73,0,0,1-.49,3.07,7,7,0,0,1-8.68,4.83c-3.74-.95-7.56-3.07-9-6.86-1.32-3.51-1.06-7.26-1-10.95-.54.93,0,17.48.71,18.16s8.64,1.73,9.68,1.84,8.87-2.42,9.1-2.88C105.46,150.85,105.25,147.51,105,143.85Z"/><path class="cls-13" d="M75.58,169.93a53.22,53.22,0,0,1,7.06.29,5.59,5.59,0,0,1-.12,2.58,51.63,51.63,0,0,1-6.65-.34C75.58,172.29,75.18,170.17,75.58,169.93Z"/><path class="cls-13" d="M82,173.17a48.94,48.94,0,0,1-6.32-.42c-.44-.26-.63-1.72-.63-2.23,0-.3,0-.72.35-.88.08,0,.16-.09,1-.09.06,0,6.11.07,6.46.43s.12,2.48.12,2.5c-.06.32-.13.54-.32.63S82.5,173.17,82,173.17Zm-5.94-1c.62.12,4.35.33,5.94.33h.28a8.6,8.6,0,0,0,.08-2c-.79-.11-4.19-.27-6-.27a6.69,6.69,0,0,0-.67,0A4.93,4.93,0,0,0,76.07,172.16Z"/><path class="cls-12" d="M69.53,115.31s4.56,5.8,9.1,5.63,11.12-6.79,11.41-8.26-.59-2.28-1.5-2.15-15.25.22-17.62.35S69.52,114.09,69.53,115.31Z"/><path class="cls-13" d="M78.43,121.29h0c-4.59,0-9-5.53-9.18-5.76l-.07-.1v-.11a8.47,8.47,0,0,0-.08-.87c-.14-1.09-.31-2.45.38-3.28a1.92,1.92,0,0,1,1.42-.64c1.14-.06,5-.11,8.82-.16s8.32-.12,8.77-.18a1.64,1.64,0,0,1,1.5.58,2.32,2.32,0,0,1,.39,2c-.32,1.64-7,8.37-11.73,8.55Zm-8.56-6.1c.59.71,4.72,5.57,8.75,5.4,4.32-.16,10.82-6.63,11.08-8a1.68,1.68,0,0,0-.24-1.4,1,1,0,0,0-.87-.34c-.46.07-3.81.12-8.86.19-3.77,0-7.67.1-8.8.16a1.24,1.24,0,0,0-.92.4c-.5.59-.34,1.84-.23,2.75C69.82,114.68,69.86,115,69.87,115.19Z"/><path class="cls-12" d="M88.54,110.53c-.51.07-5.15.13-9.6.19,0,1.43-.11,2.87-.14,4.3,0,2-.14,4-.23,5.92h.06c4.56-.17,11.12-6.79,11.41-8.26S89.45,110.4,88.54,110.53Z"/><path class="cls-13" d="M78.2,121.3l.07-1.41c.08-1.6.16-3.25.19-4.87,0-.6,0-1.2.07-1.79,0-.83.07-1.67.07-2.51v-.34H79.8c4.06-.06,8.24-.12,8.69-.18a1.63,1.63,0,0,1,1.5.58,2.32,2.32,0,0,1,.39,2c-.32,1.64-7,8.37-11.73,8.55H78.2Zm1.09-10.24c0,.74,0,1.48-.07,2.2s-.06,1.18-.07,1.77c0,1.63-.11,3.29-.18,4.89l0,.66c4.31-.45,10.51-6.65,10.77-8a1.68,1.68,0,0,0-.24-1.4,1,1,0,0,0-.87-.34c-.46.07-3.63.12-8.77.19Z"/><path class="cls-13" d="M62.43,128a48.75,48.75,0,0,0-6.29,10.82c.07-.79.13-1.57.22-2.29.29-2.26,1-4.43,1.35-6.68,0-.17-.24-.19-.29,0a26.9,26.9,0,0,0-1.5,5.51c-.15,1-.3,2-.41,2.94-.09.76-.07,1.51-.09,2.27a107.69,107.69,0,0,0-4.34,14c-1.18,4.76-1.85,9.58-2.59,14.43s-2.05,9.84-1.67,14.71a.14.14,0,0,0,.28,0c.5-4.66,1.25-9.33,2.11-13.93.92-5,1.49-10,2.71-15a89.19,89.19,0,0,1,4.15-13.59,110,110,0,0,1,6.75-12.91C63,128,62.61,127.79,62.43,128Z"/><path class="cls-13" d="M110.7,138.13c.34-4.28.63-8.65-.76-12.77,0-.15-.29-.1-.25.06a40.27,40.27,0,0,1,.74,6.3,33.74,33.74,0,0,1-.07,3.48,24.37,24.37,0,0,0-3.58-10.2.15.15,0,0,0-.27.15,27.78,27.78,0,0,1,3,9.75c.22,2,.55,3.93.64,5.95a22.76,22.76,0,0,0,.73,4.7c0,.13.26.12.25,0C111,143.09,110.92,140.6,110.7,138.13Z"/><path class="cls-13" d="M79.18,158.82c0-4.76-.25-9.58-.43-14.34-.17-4.54,0-9.11,0-13.65,0-2.08.09-4.16.07-6.25,0-1.91.51-4.09-.1-5.94a.23.23,0,0,0-.44.11c.33,2-.31,4.33-.34,6.38s-.12,4.15-.15,6.22c-.07,4.58-.24,9.15-.1,13.72s.37,9.16.38,13.72a79.54,79.54,0,0,0,.59,12.64c.08.47.89.39.84-.09C79.13,167.21,79.18,163,79.18,158.82Z"/><path class="cls-15" d="M75.8,123c-2,0-2.1,3.1-.09,3.1S77.81,123,75.8,123Z"/><path class="cls-16" d="M75.71,126.47a1.73,1.73,0,0,1-1.36-.59,1.9,1.9,0,0,1-.44-1.26,1.86,1.86,0,0,1,1.89-2,1.77,1.77,0,0,1,1.36.58,1.94,1.94,0,0,1,.44,1.27A1.86,1.86,0,0,1,75.71,126.47Zm.09-3.11a1.19,1.19,0,0,0-1.21,1.26,1.23,1.23,0,0,0,.29.81,1,1,0,0,0,.83.35,1.19,1.19,0,0,0,1.21-1.26,1.3,1.3,0,0,0-.28-.81A1.06,1.06,0,0,0,75.8,123.36Z"/><path class="cls-15" d="M75.8,138.05c-2,0-2.1,3.1-.09,3.1S77.81,138.05,75.8,138.05Z"/><path class="cls-16" d="M75.71,141.5a1.73,1.73,0,0,1-1.36-.59,1.9,1.9,0,0,1-.44-1.26,1.86,1.86,0,0,1,1.89-2,1.74,1.74,0,0,1,1.36.59,1.9,1.9,0,0,1,.44,1.26A1.86,1.86,0,0,1,75.71,141.5Zm.09-3.11a1.19,1.19,0,0,0-1.21,1.26,1.21,1.21,0,0,0,.29.81,1,1,0,0,0,.83.35,1.19,1.19,0,0,0,1.21-1.26,1.28,1.28,0,0,0-.28-.81A1.06,1.06,0,0,0,75.8,138.39Z"/><path class="cls-15" d="M75.8,151.26c-2,0-2.1,3.11-.09,3.11S77.81,151.26,75.8,151.26Z"/><path class="cls-16" d="M75.71,154.71a1.75,1.75,0,0,1-1.36-.58,1.9,1.9,0,0,1-.44-1.26,1.86,1.86,0,0,1,1.89-2,1.74,1.74,0,0,1,1.36.59,1.88,1.88,0,0,1,.44,1.26A1.85,1.85,0,0,1,75.71,154.71Zm.09-3.1a1.19,1.19,0,0,0-1.21,1.26,1.25,1.25,0,0,0,.29.81,1,1,0,0,0,.83.35,1.19,1.19,0,0,0,1.21-1.26,1.31,1.31,0,0,0-.28-.82A1.05,1.05,0,0,0,75.8,151.61Z"/><path class="cls-15" d="M75.72,163.79c-2,0-2.1,3.11-.09,3.11S77.72,163.79,75.72,163.79Z"/><path class="cls-16" d="M75.63,167.24a1.74,1.74,0,0,1-1.37-.58,2,2,0,0,1-.44-1.26,1.87,1.87,0,0,1,1.9-2,1.74,1.74,0,0,1,1.35.59,1.9,1.9,0,0,1,.45,1.26A1.86,1.86,0,0,1,75.63,167.24Zm.09-3.1a1.18,1.18,0,0,0-1.21,1.26,1.24,1.24,0,0,0,.28.81,1.08,1.08,0,0,0,.84.34,1.17,1.17,0,0,0,1.19-1.26,1.22,1.22,0,0,0-.27-.81A1,1,0,0,0,75.72,164.14Z"/><path class="cls-14" d="M70.51,120.21a2.77,2.77,0,0,1,2.34,1.58,3.92,3.92,0,0,1,.19,2,3.65,3.65,0,0,0,1.68,3.44c2.12,1.61,2.24,5.45,2,7.91a2.65,2.65,0,0,1-1.63,2.18c-1.37.77-4.15,2.6-2,4.42,1.23,1,2.83,1.39,3.09,3.22.19,1.3.56,3.29.18,4.55-.3,1-2,1.18-2.62,2-2.25,2.64,1,4,2.45,5.7a4.41,4.41,0,0,1,1,4c-.23,1.14-1.72,1.59-2.59,2-1.48.75-2.35,2.08-1.13,3.57a3.79,3.79,0,0,1,.86,1.35c.39,1.51.88,3.91,1.16,4.49,0,.56,7.26.64,7.24.45a3.68,3.68,0,0,0,0-3.4A5.88,5.88,0,0,1,81.56,168c-.36-1.58-.85-27.27-.94-31.76a46.72,46.72,0,0,1,.26-9.16,8.9,8.9,0,0,1,3.44-5.91c3-2.13,7.07-3.15,10.59-4.19,4-1.18,8.15-2.14,11.86-4.09a81.3,81.3,0,0,1-11.69-.32,22.5,22.5,0,0,0-5,.09,2.51,2.51,0,0,0-.46-1.67c-.52-.55-1.89-.17-2.52-.12-1.91.16-3.84.09-5.76.24-3.49.28-7-.33-10.47.39-.7.15-1.32.14-1.4.94a14.31,14.31,0,0,0,.1,2.85c-1.17.29-2.32.7-3.46,1.06a41.86,41.86,0,0,0-6.81,3.37c-.43.23-.85.49-1.27.74a11,11,0,0,0,3.62.63C64.62,121.2,67.52,119.89,70.51,120.21Z"/><path class="cls-14" d="M90,112.68a2.51,2.51,0,0,0-.46-1.67,1.49,1.49,0,0,0-1.15-.29,10.71,10.71,0,0,1-4.53,6.21c-.89.62-3.52,2.78-4.67,1.46a2.68,2.68,0,0,1-.39-.58,2.72,2.72,0,0,1-2.14.72c-3.21-.29-5.83-3.79-6.43-6.9-.45.09-.78.25-.84.83a14.31,14.31,0,0,0,.1,2.85l-.26.07c2,2.64,5.61,5,8.65,5.13a.35.35,0,0,1,.34.34,13.25,13.25,0,0,1,0,2.27c.51,3.29.07,6.68-.13,10-.24,4.26-.18,8.51-.17,12.77l.12,2.31c.23,4.49.39,9,.41,13.47,0,2.65-.07,5.31.07,8a5.16,5.16,0,0,0,.88,0c-.12-4.38-.07-8.77-.15-13.15-.12-6.88.16-13.75.26-20.63a84,84,0,0,1,.51-10.15c0-.12,0-.24,0-.35a6.39,6.39,0,0,1,2.79-5.52c2.52-1.52,6.39-4.07,7.38-7.17Z"/><path class="cls-14" d="M55.47,182.88c-2.21-4.49-2.72-9.65-2.7-14.59a88.44,88.44,0,0,1,1.46-16.48c1.51-7.67,4.62-14.82,7.58-22a9.33,9.33,0,0,1-2.58,2c-1.47.7-1.75-.52-1.67-1.94a27.26,27.26,0,0,0-4.41,6.3c-1.75,3-3.38,6-5,9-1.52,2.79-3.16,5.5-4.72,8.25-1.23,2.16-2.38,4.37-3.8,6.41-2.62,3.77-6.27,7.14-11.1,7.37A13.21,13.21,0,0,1,17.28,162c-.71,0-1.43,0-2.15,0a1.27,1.27,0,0,0-.54.92c-.08,2.19,1.19,4.63,2,6.64a61.72,61.72,0,0,0,6.83,13.21,36.77,36.77,0,0,0,4.51,5.37c1.32,1.29,3,3.17,5,3.31,2.73.21,3.9-2,5.68-3.69,2.56-2.4,5.12-4.75,7.56-7.3.39-.41.76-.83,1.14-1.25-.16,1.41-.33,2.81-.5,4.22,0,.22.19.17.34.26a56.82,56.82,0,0,0,10.92,4c.57.12,1.14.21,1.71.31A13.71,13.71,0,0,1,55.47,182.88Z"/><path class="cls-14" d="M50.66,182.18c-1.87-4.47-1.55-9.59-1.07-14.31.65-6.36,1.17-12.92,3.2-19a96.07,96.07,0,0,1,4.53-10.61c1-2.22,2.45-4.3,3.66-6.45.28-.66.55-1.33.83-2a9.33,9.33,0,0,1-2.58,2c-1.4.67-1.72-.41-1.67-1.75a80.82,80.82,0,0,0-4.66,11.55c-1.48,4.38-3.1,8.71-4.63,13.07-1.59,4.55-3.15,9.11-5,13.56A24.26,24.26,0,0,1,37.69,177c-3.86,3.55-9.13,6-14.31,5.78h0a36.77,36.77,0,0,0,4.51,5.37c1.32,1.29,3,3.17,5,3.31,2.73.21,3.9-2,5.68-3.69,2.56-2.4,5.12-4.75,7.56-7.3.39-.41.76-.83,1.14-1.25-.16,1.41-.33,2.81-.5,4.22,0,.22.19.17.34.26a51.51,51.51,0,0,0,7.23,2.93A9.61,9.61,0,0,1,50.66,182.18Z"/><path class="cls-14" d="M120.21,112.82A81.84,81.84,0,0,0,134.63,109a34,34,0,0,0,10.59-6.49c4.53-4.5,7.68-10.2,7.94-16.83a.28.28,0,0,1,.11-.24,13.74,13.74,0,0,0-.28-2.1l-.29-.1c-.39,1.27-1.29,2.47-1.8,3.69-1.6,3.83-4.47,7.24-7.23,10.29A46.79,46.79,0,0,1,119,111.33a67.7,67.7,0,0,1-9.76,1.41C112.69,113.9,116.86,113.41,120.21,112.82Z"/><path class="cls-14" d="M169,107.79a28.88,28.88,0,0,0-3.39-8.56,42.6,42.6,0,0,1-1.75,7.94,19,19,0,0,1-5.17,7.8,66.19,66.19,0,0,1-17.59,12.12c-5.91,2.67-12.11,4.43-18.65,3.91-4.44-.36-9.06-1.55-12.07-4.93a4.21,4.21,0,0,1-.45-.28,2.18,2.18,0,0,1-.52.71c-.63.53-1.32.17-2-.4a26.13,26.13,0,0,1,1,7.64c.09,3.91,0,7.84-.07,11.76-.08,7.89-1.35,16.07.86,23.77,1.28,4.4,4.33,11.4-.42,14.71,2.1-.56,8.59-2.27,8.76-2.4a.52.52,0,0,0,.23-.69,10.32,10.32,0,0,0-.77-2.18c-.8-2.4-1.38-4.88-2.09-7.31a100.78,100.78,0,0,1-2.86-14.4c-.67-5-1.12-10.06-1.46-15.05,0-.64-.26-2.46-.29-3.1,5.41,2.19,14.63,2.88,21.55,1.18A50.67,50.67,0,0,0,148,133.17a60.51,60.51,0,0,0,14.06-12.79c2.61-3.33,5.34-7,7-11A5.83,5.83,0,0,0,169,107.79Z"/><path class="cls-14" d="M147.65,131.54c-11.37,5.07-27.93,8.12-37-2.74l0,.13c-.56,1.58-1.43,1.17-2.25.29,1.51,5,1.59,10.32,1.51,15.65-.13,7.69-.47,15.62,1.41,23.16a36.7,36.7,0,0,0,4.19,9.58,6.25,6.25,0,0,1,1.09,4.27,10.28,10.28,0,0,0,1-.3.52.52,0,0,0,.23-.69,10.32,10.32,0,0,0-.77-2.18c-.8-2.4-1.38-4.88-2.09-7.31a100.78,100.78,0,0,1-2.86-14.4c-.67-5-1.12-10.06-1.46-15.05,0-.64-.26-2.46-.29-3.1,5.41,2.19,14.63,2.88,21.55,1.18A50.67,50.67,0,0,0,148,133.17a66.09,66.09,0,0,0,7.16-5.51A58.22,58.22,0,0,1,147.65,131.54Z"/><path class="cls-18" d="M25.46,187.1a2.44,2.44,0,0,0,.75-1.11,2.26,2.26,0,0,0,0-.52c-.1-.88-.39-1.73-.48-2.61a6.52,6.52,0,0,1,.91-3.78c.79-1.78-.54-3.26-.13-5a2.53,2.53,0,0,1,.75-1.21c-1.17-1.71-2.93-3.53-4.28-5.13a31.94,31.94,0,0,0-5.19-5.13c-.75.54-1.91.93-2.63,1.39-1.38.89-2.89,1.51-4.29,2.35a30.06,30.06,0,0,0-6.38,5.75c-1,1.07-2,2.17-3,3.24a3.7,3.7,0,0,0-1.15,2.73c0,.9.76,1,1.56.87-.73,2-1.52,6.45,1,6.9,0,1.24.38,2.64,1.89,2.47l.13,0c.6,1.67,3.36,1,4.45.26a13.33,13.33,0,0,0,2.51-3,25.58,25.58,0,0,1,3.47-4c1.23-1.06,3.29-2.22,5-1.85s1.07,4.43,1.22,5.66C21.81,187.53,23.82,188.5,25.46,187.1Z"/><path class="cls-19" d="M6.73,189.66a2.13,2.13,0,0,1-2-1H4.53c-.83,0-1.83-.45-2-2.55a2.13,2.13,0,0,1-1.23-1c-.86-1.51-.38-4.2.09-5.78A1.25,1.25,0,0,1,0,178.07a4,4,0,0,1,1.25-3l1.27-1.4,1.7-1.84.56-.6a26.87,26.87,0,0,1,5.9-5.22c.63-.38,1.3-.72,1.94-1s1.59-.82,2.34-1.3a9.71,9.71,0,0,1,1.21-.62,10.11,10.11,0,0,0,1.4-.75l.21-.15.21.15a31.39,31.39,0,0,1,5.24,5.18c.4.47.83.95,1.28,1.45a39.27,39.27,0,0,1,3,3.7l.16.24-.19.2a2.31,2.31,0,0,0-.67,1,4.55,4.55,0,0,0,.15,2.1,4.37,4.37,0,0,1,0,3l-.11.24a5.84,5.84,0,0,0-.76,3.37,10.61,10.61,0,0,0,.23,1.31c.09.42.19.85.24,1.29a2.29,2.29,0,0,1,0,.59v.09a3,3,0,0,1-.85,1.26,2.88,2.88,0,0,1-1.86.73h0a2.76,2.76,0,0,1-2.62-2.65c0-.32,0-.8,0-1.35,0-1.51.09-3.79-.93-4a3.08,3.08,0,0,0-.61-.06,7.08,7.08,0,0,0-4.1,1.83,23.29,23.29,0,0,0-3.12,3.51l-.3.39c-.21.26-.41.55-.62.85a8.13,8.13,0,0,1-2,2.2A5.54,5.54,0,0,1,6.73,189.66Zm-1.59-1.78.1.27c.19.54.69.82,1.49.82a4.85,4.85,0,0,0,2.44-.73,7.55,7.55,0,0,0,1.79-2c.21-.31.42-.6.63-.88l.31-.39a23.35,23.35,0,0,1,3.21-3.6,7.74,7.74,0,0,1,4.55-2,3.67,3.67,0,0,1,.75.08c1.59.33,1.53,2.85,1.48,4.69a12.34,12.34,0,0,0,0,1.26,2.1,2.1,0,0,0,1.93,2h0a2.31,2.31,0,0,0,2-1.5,2.8,2.8,0,0,0,0-.41c-.05-.4-.14-.8-.23-1.22a10.35,10.35,0,0,1-.26-1.39,6.59,6.59,0,0,1,.83-3.73l.11-.24a3.76,3.76,0,0,0,0-2.54,5.23,5.23,0,0,1-.15-2.41,2.54,2.54,0,0,1,.65-1.16C26,171.7,25,170.54,24,169.41c-.45-.5-.89-1-1.29-1.47A31.49,31.49,0,0,0,17.77,163a10.6,10.6,0,0,1-1.3.67,8.84,8.84,0,0,0-1.12.58c-.78.5-1.61.92-2.41,1.33-.63.32-1.28.66-1.89,1a26.77,26.77,0,0,0-5.76,5.1l-.56.6-1.68,1.84-1.28,1.4A3.32,3.32,0,0,0,.7,178c0,.37.15.61.69.61a2.9,2.9,0,0,0,.47,0l.59-.11-.21.57c-.55,1.55-1.09,4.35-.3,5.71a1.38,1.38,0,0,0,1,.73l.28.05v.28c.07,2.15,1,2.15,1.3,2.15h.22Z"/><path class="cls-20" d="M1.67,179c.65-1.42,2.3-2.8,3.11-3.67a49,49,0,0,1,4.34-4.06L8.85,171a7.34,7.34,0,0,0-2.54,1.11,51.72,51.72,0,0,0-4.13,4.63c-.32.43-1.07,1.5-1.78,1.57C.56,178.89,1.06,179,1.67,179Z"/><path class="cls-20" d="M26.51,174.06a2.53,2.53,0,0,1,.75-1.21c-1.17-1.71-2.93-3.53-4.28-5.13a31.94,31.94,0,0,0-5.19-5.13c-.75.54-1.91.93-2.63,1.39l-.48.28a4.29,4.29,0,0,1,1.93.56,18.39,18.39,0,0,1,4.81,3.64,10.53,10.53,0,0,1,2.43,5c.43,2.45-.32,4.72.15,7.15.14.74,1.17,6.15-.9,5.16-.83-.39-.69-2.93-.71-3.57-.06-1.53-.3-4-2.23-4.28a4.77,4.77,0,0,0-2.84.52A16.39,16.39,0,0,0,10,185.79c-.65,1.22-2.88,4.82-4.48,2.52-1-1.42,1.07-4.7,1.94-5.78a34.41,34.41,0,0,1,5.62-5.37,9.44,9.44,0,0,0,2.72-2.8,30.06,30.06,0,0,0-4.88,2.26,12,12,0,0,0-4.08,4.9c-.79,1.66-1.27,4.42-3.45,4.67-.25,0-.39-.22-.42-.43-.16-1.21.53-2.5,1-3.6a22.66,22.66,0,0,1,2.81-5A26.67,26.67,0,0,1,9,174.75c-.52.29-1,.58-1.56.91-1.86,1.19-2.7,2.83-4,4.54-.58.78-1.63,1.74-2,.39-.46,2.16-.5,4.88,1.43,5.23,0,1.24.38,2.64,1.89,2.47l.13,0c.6,1.67,3.36,1,4.45.26a13.33,13.33,0,0,0,2.51-3,25.58,25.58,0,0,1,3.47-4c1.23-1.06,3.29-2.22,5-1.85s1.07,4.43,1.22,5.66c.25,2.12,2.26,3.09,3.9,1.69a2.44,2.44,0,0,0,.75-1.11,2.26,2.26,0,0,0,0-.52c-.1-.88-.39-1.73-.48-2.61a6.52,6.52,0,0,1,.91-3.78C27.43,177.3,26.1,175.82,26.51,174.06Z"/><path class="cls-21" d="M15.75,174.12c-1.5,1.73-3.27,2.65-5.08,4a15.08,15.08,0,0,0-3.37,4.16c-.67,1-2.41,3.52-2.48,5.37-4.1.5.2-7.3,1-8.36,1.5-2.11,3.36-3.93,4.83-6.05,0,0,0-.1-.08-.06-2.69,3-5.77,5.74-7.24,9.54a10.8,10.8,0,0,0-.58,2.53c-2.49-2.44-.92-5.93,1.08-8.23,1.73-2,3.62-3.82,5.42-5.73A.12.12,0,0,0,9,171.1a46.24,46.24,0,0,0-7.18,7.42c-1.47,2-1.73,6,.81,7.32h0c0,1.5.44,2.81,2.21,2.45a1.48,1.48,0,0,0,1.22,1c-2.4-1.62,1.84-6.9,2.93-8.55,1.79-2.73,5.09-3.73,6.91-6.42C16,174.16,15.84,174,15.75,174.12Z"/><path class="cls-18" d="M181.48,83.72c-.28-2.3-3-2.14-4.68-2.21a17.67,17.67,0,0,0-6,.88c.09-.08.18-.14.27-.21,1.52-1.07,3.14-2,4.66-3a21.29,21.29,0,0,0,3.2-3,2.59,2.59,0,0,0,.83-2.46c-.82-2.44-3.28-1.74-5.14-.83A20,20,0,0,0,168.08,78c0-.06.08-.12.12-.17,1.17-1.67,2.54-3.2,3.77-4.83A43.65,43.65,0,0,0,175,68.24a3.28,3.28,0,0,0,.19-3.45c-2.34-4.11-9.84,6-12.81,10.34a51.35,51.35,0,0,1,2-4.87c1.27-2.66,3.53-6.3,2.25-9.33-1-2.44-4.79,2.12-5.35,2.89-2.29,3.14-3.49,7.05-4.45,10.79a12.23,12.23,0,0,0-1-2.09c-.92-1.53-4.26-4.71-6.18-2.89-.68.65.24,1.92.55,2.46,1.06,1.82,1,3.64,1,5.67a8.55,8.55,0,0,0-.13,2,5.32,5.32,0,0,0,.9,1.56,6.3,6.3,0,0,1,1.21,2.46,2,2,0,0,0,0,.2c-.24.24-.47.51-.7.79a.82.82,0,0,0-.12.2,22.52,22.52,0,0,0,5.56,13.23.48.48,0,0,0,.54-.21h0c1-1,1.75-2.26,2.7-3.36.63-.72,2.09-.26,2.91-.33a4.32,4.32,0,0,0,1.54-.59,11,11,0,0,0,4.89-4.93c.75-.33,1.5-.64,2.26-.93a27.81,27.81,0,0,1,4.76-1.09C179.12,86.43,181.71,85.67,181.48,83.72Z"/><path class="cls-19" d="M158.07,98.52a.82.82,0,0,1-.22,0l-.09,0-.07-.08A22.91,22.91,0,0,1,152,85v-.11l0-.09c.05-.08.1-.17.16-.25.2-.24.39-.46.6-.69a.08.08,0,0,0,0,0,4,4,0,0,0-.77-1.72c-.12-.19-.26-.39-.38-.6s-.24-.36-.35-.51a3,3,0,0,1-.59-1.15,3.12,3.12,0,0,1,0-1.33,3.63,3.63,0,0,0,.09-.71v-.47a9.2,9.2,0,0,0-.94-5l-.12-.2c-.41-.67-1.17-1.91-.37-2.68a2.26,2.26,0,0,1,1.62-.64c2,0,4.37,2.38,5.1,3.6a12.49,12.49,0,0,1,.64,1.2A29.89,29.89,0,0,1,161,63.61s2.8-3.74,4.69-3.74a1.33,1.33,0,0,1,1.26.92c1.18,2.78-.43,6-1.72,8.53l-.54,1.09c-.34.72-.68,1.47-1,2.28,3-4.15,7.27-9.2,10-9.2a2,2,0,0,1,1.82,1.13,3.63,3.63,0,0,1-.19,3.78,43.57,43.57,0,0,1-3.08,4.84l-1.09,1.38a20.51,20.51,0,0,1,3.31-2c2.95-1.45,4.92-1,5.62,1a2.84,2.84,0,0,1-.91,2.8,21,21,0,0,1-3.25,3c-.74.53-1.52,1-2.27,1.48l-1,.65a15.92,15.92,0,0,1,4.17-.38h.5c1.68,0,4.22.12,4.51,2.5.14,1.16-.47,2.68-4.2,3.39l-1,.18a19.72,19.72,0,0,0-3.7.88c-.68.26-1.35.54-2.13.88a11.29,11.29,0,0,1-5,5l-.34.17a3.35,3.35,0,0,1-1.33.46,5.86,5.86,0,0,1-.9,0c-.25,0-.53,0-.79,0a1.22,1.22,0,0,0-1,.3c-.38.43-.73.91-1.07,1.37a13.75,13.75,0,0,1-1.62,2A.8.8,0,0,1,158.07,98.52ZM152.73,85a22.3,22.3,0,0,0,5.37,12.82h0v0l.1-.1a13,13,0,0,0,1.59-1.92c.34-.47.7-1,1.1-1.41a1.89,1.89,0,0,1,1.5-.54,8.11,8.11,0,0,1,.86,0,4.48,4.48,0,0,0,.79,0,2.89,2.89,0,0,0,1.06-.38l.36-.19a10.67,10.67,0,0,0,4.73-4.78l.05-.11.12,0c.84-.37,1.54-.66,2.27-.94a21.42,21.42,0,0,1,3.82-.91l1-.19c1.77-.33,3.84-1.06,3.65-2.62s-1.87-1.83-3.85-1.89h-.51a17.09,17.09,0,0,0-5.88.86l-1.93.57L170.71,82a.91.91,0,0,1,.16-.13c.79-.56,1.62-1.08,2.42-1.58s1.52-.95,2.25-1.47a20.46,20.46,0,0,0,3.14-2.9c.32-.35,1-1.24.76-2.11-.58-1.7-2.16-1.87-4.66-.63a19.53,19.53,0,0,0-6.43,5l-.55-.41.12-.18c.69-1,1.46-1.94,2.21-2.86.53-.66,1.06-1.31,1.56-2a42.25,42.25,0,0,0,3-4.75,2.9,2.9,0,0,0,.18-3.11,1.33,1.33,0,0,0-1.21-.78c-2.1,0-6.21,4.16-11,11.14l-1.51,2.2.89-2.51a50.59,50.59,0,0,1,2-4.9c.17-.35.35-.72.55-1.11,1.22-2.43,2.75-5.45,1.69-7.94-.19-.44-.43-.5-.62-.5-1.22,0-3.48,2.58-4.13,3.46-2.26,3.11-3.45,7-4.4,10.67l-.26,1-.39-1a12.83,12.83,0,0,0-1-2c-.69-1.13-2.84-3.26-4.51-3.26a1.63,1.63,0,0,0-1.15.45c-.39.38.18,1.32.49,1.82l.13.21a9.9,9.9,0,0,1,1,5.38v.47a4.49,4.49,0,0,1-.1.83,2.63,2.63,0,0,0,0,1,2.2,2.2,0,0,0,.48.91,6,6,0,0,1,.38.56c.12.21.24.4.36.58a4.51,4.51,0,0,1,.89,2l0,.17,0,.19-.13.13c-.25.25-.46.5-.68.76Z"/><path class="cls-20" d="M169.72,85.21c-.21-1.88,3.73-2.49,4.89-2.67a11,11,0,0,1,6.74.65c-.61-1.74-3-1.62-4.55-1.68a17.67,17.67,0,0,0-6,.88c.09-.08.18-.14.27-.21,1.52-1.07,3.14-2,4.66-3a18.28,18.28,0,0,0,2.81-2.54,21.21,21.21,0,0,1-5.32,3.33c-.48.23-4.48,2.56-4.47.64,0-1.11.92-2,1.67-2.7a25.4,25.4,0,0,1,4.4-3.61c1.07-.65,2.86-1.82,4.27-1.63-1.11-1-3-.46-4.47.27A20,20,0,0,0,168.08,78c0-.06.08-.12.12-.17,1.17-1.67,2.54-3.2,3.77-4.83A43.65,43.65,0,0,0,175,68.24a3.51,3.51,0,0,0,.48-2.75,10.76,10.76,0,0,1-2.34,4c-1.23,1.59-2.57,3.08-3.9,4.59-.5.57-3.29,4.17-4.29,2.48-1.32-2.27,2.51-6.52,3.68-8.06s3.46-4.49,5.7-4.57c-3-1.3-9.29,7.28-12,11.16a51.35,51.35,0,0,1,2-4.87c1.18-2.48,3.22-5.8,2.47-8.69-.27,2.57-2.15,4.67-3.22,6.95a32.9,32.9,0,0,0-2,5.06A5.41,5.41,0,0,1,160.6,76c-.92.92-1.87.41-2.16-.67-.43-1.54.27-3.34,1.05-5a22.35,22.35,0,0,1,.83-2.47,21.06,21.06,0,0,1,4.08-7.1.71.71,0,0,1,.13-.12,14.3,14.3,0,0,0-3.22,3.17c-2.29,3.14-3.49,7.05-4.45,10.79a12.23,12.23,0,0,0-1-2.09.24.24,0,0,0-.06-.1c.89,2.2,1.31,5-.91,6.57-2.05,1.4-2.76-2-3-3.16a9.44,9.44,0,0,0-2.48-5.45,5.12,5.12,0,0,0,.78,1.71c1.06,1.82,1,3.64,1,5.67a8.55,8.55,0,0,0-.13,2,5.32,5.32,0,0,0,.9,1.56,6.3,6.3,0,0,1,1.21,2.46,2,2,0,0,0,0,.2c-.24.24-.47.51-.7.79a.82.82,0,0,0-.12.2,22.52,22.52,0,0,0,5.56,13.23.48.48,0,0,0,.54-.21h0c1-1,1.75-2.26,2.7-3.36.63-.72,2.09-.26,2.91-.33a4.32,4.32,0,0,0,1.54-.59,11,11,0,0,0,4.89-4.93c.75-.33,1.5-.64,2.26-.93a27.81,27.81,0,0,1,4.76-1.09c1.32-.25,3.37-.82,3.84-2.17C178.2,85.46,170,87.55,169.72,85.21Zm-11.9,3.91a11.92,11.92,0,0,1-.87-2.31c-.43-1.51-1.37-2.07-2.22-3.23a2.66,2.66,0,0,1,.35-3.77c1.17-1,2.91-.17,3.72.86a.47.47,0,0,0,.06.09c1.92,1.45,3,4.18,3.31,6.5C162.53,89.9,159.25,91.83,157.82,89.12Zm8.24-.24c-1,.32-1.59-.95-1.81-1.64-1-3.09-1.74-5.55-4.49-7.56a.57.57,0,0,1-.12-.15,2.84,2.84,0,0,1-1.11-1c-.36-.58.23-1.36.82-1.46,2.64-.46,5.88,1.37,7.32,3.52S169.39,87.79,166.06,88.88Z"/><path class="cls-21" d="M157.8,79.44c-1.17-.45-.79-1.18-.7-2.14a5.27,5.27,0,0,0-.33-2.51,9.82,9.82,0,0,0-2.51-3.88c-.07-.07-.21,0-.15.11a14.86,14.86,0,0,1,2.31,4.36c.41,1.35-.67,2.9,0,4.1.13.24.58.29.81.34a5.57,5.57,0,0,1,2.57,1.61c1.25,1.21,1.62,3.06,2.27,4.6.07.15.26,0,.25-.09A7.62,7.62,0,0,0,157.8,79.44Z"/><path class="cls-18" d="M35.24,55.73c-.43.18,5.07,8.11,5.07,10.57S36,84,38,91.35s15.19,22.58,40.24,23,45-18.82,45.16-24.9.58-20.7,2.47-23.59.28-10.57-14.48-13.61S63.46,43.72,35.24,55.73Z"/><path class="cls-19" d="M79.07,114.72l-.85,0c-25.69-.44-38.61-16.16-40.57-23.26-1.49-5.45.42-15,1.56-20.77A36.72,36.72,0,0,0,40,66.3c0-1.44-2.16-5.14-3.59-7.6s-1.57-2.76-1.48-3.05l0-.15.16-.09C46.69,50.48,60.35,48,75.69,48a176.33,176.33,0,0,1,35.76,3.94c10.56,2.17,13.83,6.54,14.83,9a5.59,5.59,0,0,1-.13,5.17c-.88,1.35-2,6.51-2.41,23.42C123.6,95.39,104.35,114.72,79.07,114.72ZM35.62,55.94c.2.45.8,1.49,1.35,2.41,1.55,2.67,3.68,6.32,3.68,7.95a35,35,0,0,1-.76,4.5c-1.13,5.67-3,15.16-1.57,20.45,1.91,7,14.61,22.33,39.92,22.77h.83c14.25,0,25.63-6.35,31.16-10.13,7.94-5.45,12.76-11.62,12.82-14.44.33-13.9,1.16-21.68,2.52-23.77a4.93,4.93,0,0,0,.08-4.53c-1-2.29-4.09-6.44-14.34-8.55a175.69,175.69,0,0,0-35.62-3.93C60.55,48.67,47.08,51.12,35.62,55.94Z"/><path class="cls-22" d="M103.73,62.36a8.68,8.68,0,0,0-8.85-2.28c-1.73.63-3.82,1.72-4.71,3.43a5.54,5.54,0,0,0-.45,1c.84,1,1.64,1.16,2.39.53.54-.33,1.08-.69,1.62-1,1.94-1.23,4.47-2.53,6.77-1.28.89.49,1.67,1.19,2.58,1.66,1.49.77,1.15-1.24.72-2A.86.86,0,0,0,103.73,62.36Z"/><path class="cls-22" d="M63.63,64.39c-2.12-2-4.65-2.57-7.38-2.63a7.08,7.08,0,0,0-4.61,2.35,4.63,4.63,0,0,0-.91,1.33c-.57,1.34,1.15,1.19,1.91.63,1.87-1.4,4-2.28,6.22-1.24a10.24,10.24,0,0,1,3.12,2c.25.27.51.53.78.79,1.65.3,2.3-.1,2-1.21A4.25,4.25,0,0,0,63.63,64.39Z"/><path class="cls-22" d="M111.38,52.26c-14.77-3-47.92-8.54-76.14,3.47-.43.18,5.07,8.11,5.07,10.57S36,84,38,91.35c.87,3.16,3.81,7.76,8.84,12a40.43,40.43,0,0,1-2.56-3.47,24.34,24.34,0,0,1-4-8.79c-.52-2.94.19-5.11,1.71-7.64s2-4.61,1.18-7.46c-.55-1.84-1.34-3.77-1.3-5.72a10,10,0,0,1,3.39-7.64c3.93-3.27,9.82-2.48,14.33-1.06,6,1.87,11.59,3,17.81,1.44C82,61.86,86.19,59,91,58.7s8.37,4,13.2,3.5c4-.41,11.49-5.15,14.31-.31a4.78,4.78,0,0,1,1.31,2.34,16.72,16.72,0,0,1,.18,6.46c-.49,3.41-1.85,6.9-.95,10.35.83,3.21,2.73,6.51,2.47,9.91A11.35,11.35,0,0,1,120,95.71c2.15-2.54,3.36-4.78,3.38-6.25.15-6.08.58-20.7,2.47-23.59S126.14,55.3,111.38,52.26Z"/><path class="cls-22" d="M111.38,52.26c-14.77-3-47.92-8.54-76.14,3.47-.3.13,2.35,4.11,3.93,7.32a12.59,12.59,0,0,1,3.93-3,22.86,22.86,0,0,1,15.29-1.14c3.1.93,6,2.38,9.29,2.22a27.75,27.75,0,0,0,8-1.89c5.38-1.94,10.81-3.69,16.61-3.18a14.85,14.85,0,0,1,7.08,2A11,11,0,0,0,102.91,60a8.54,8.54,0,0,0,4.74-.8c3.29-1.2,7.82-1.76,10.82.5a5.82,5.82,0,0,1,.72.67A6.07,6.07,0,0,1,121,61.91a4.7,4.7,0,0,1,1,3.15c-.06,2.21-1.27,3.42.44,5.48a8.53,8.53,0,0,1,1.76,3.38c.36-3.72.89-6.87,1.66-8C127.74,63,126.14,55.3,111.38,52.26Z"/><path class="cls-18" d="M132.29,75.63c-.84-1.58-2.37-4.58-4.29-5.11a3.44,3.44,0,0,0-3.46.76c-.28,5.46-1.37,11-1,16.41,1.19.67,3.87-.84,4.69-1.37C132,83.89,134.62,80,132.29,75.63Z"/><path class="cls-19" d="M124.27,88.2h0a1.87,1.87,0,0,1-.92-.21l-.17-.09v-.2a65,65,0,0,1,.51-10.52c.21-1.94.42-4,.52-5.92v-.14l.1-.09a3.81,3.81,0,0,1,3.78-.85c2,.56,3.5,3.4,4.4,5.1l.11.19c2.1,4,.53,8.12-4.2,11.14A9.85,9.85,0,0,1,124.27,88.2Zm-.42-.75a1.33,1.33,0,0,0,.42.06A9,9,0,0,0,128,86c4.39-2.81,5.87-6.63,3.95-10.23l-.1-.2c-.79-1.49-2.28-4.28-4-4.75a3.08,3.08,0,0,0-3,.59c-.1,1.94-.31,3.9-.51,5.81A64.57,64.57,0,0,0,123.85,87.45Z"/><path class="cls-22" d="M132.29,75.63c-.84-1.58-2.37-4.58-4.29-5.11a3.44,3.44,0,0,0-3.46.76c-.28,5.46-1.37,11-1,16.41,1.19.67,3.87-.84,4.69-1.37C132,83.89,134.62,80,132.29,75.63Z"/><path class="cls-22" d="M126.38,86c-2.27-1.22-1-5.91-.68-7.82.47-2.5,2-5.52,5.16-4.38l.51.21c-.87-1.47-2-3.06-3.37-3.44a3.44,3.44,0,0,0-3.46.76c-.28,5.46-1.37,11-1,16.41,1.19.67,3.87-.84,4.69-1.37l.06,0A3.28,3.28,0,0,1,126.38,86Z"/><path class="cls-18" d="M37.42,84a42.79,42.79,0,0,1,1.31-9.18,6.34,6.34,0,0,0-3-3.4c-1.91-.86-3.28.18-4.5,1.63-2.67,3.19-3.93,7.34-1.75,11.17a10.81,10.81,0,0,0,4.3,4.26c1,.51,2.82,1,3.42-.42a2.29,2.29,0,0,0,.12-.37l.09-.18v0A33.46,33.46,0,0,1,37.42,84Z"/><path class="cls-19" d="M35.68,89.32h0a5,5,0,0,1-2-.54,11.15,11.15,0,0,1-4.45-4.41c-2-3.57-1.38-7.79,1.79-11.56a4.72,4.72,0,0,1,3.42-2.07,3.55,3.55,0,0,1,1.48.35,6.49,6.49,0,0,1,3.18,3.57l0,.11,0,.12A42.32,42.32,0,0,0,37.77,84a30.17,30.17,0,0,0,0,3.43v.08l-.07.2,0,.09a2.65,2.65,0,0,1-.12.37A1.84,1.84,0,0,1,35.68,89.32ZM34.39,71.43c-1,0-1.84.56-2.9,1.82-3,3.54-3.59,7.47-1.71,10.78a10.61,10.61,0,0,0,4.15,4.13,4.33,4.33,0,0,0,1.75.47h0a1.17,1.17,0,0,0,1.2-.73,3,3,0,0,0,.1-.32l0-.09a.25.25,0,0,0,0-.07h0a33.37,33.37,0,0,1,0-3.47,44.17,44.17,0,0,1,1.28-9.13,5.79,5.79,0,0,0-2.77-3.1A2.92,2.92,0,0,0,34.39,71.43Z"/><path class="cls-22" d="M37.42,84a42.79,42.79,0,0,1,1.31-9.18,6.34,6.34,0,0,0-3-3.4c-1.91-.86-3.28.18-4.5,1.63-2.67,3.19-3.93,7.34-1.75,11.17a10.81,10.81,0,0,0,4.3,4.26c1,.51,2.82,1,3.42-.42a2.29,2.29,0,0,0,.12-.37l.09-.18v0A33.46,33.46,0,0,1,37.42,84Z"/><path class="cls-22" d="M38.73,74.8a6.34,6.34,0,0,0-3-3.4c-1.91-.86-3.28.18-4.5,1.63a13.85,13.85,0,0,0-1.16,1.6,2.68,2.68,0,0,1,1.29-.48c2.85-.23,3.85,3.82,4,6,.17,1.87,1.22,7.39-2,7.55a4.06,4.06,0,0,1-1-.1,7.69,7.69,0,0,0,1.4.89c1,.51,2.82,1,3.42-.42a2.29,2.29,0,0,0,.12-.37l.09-.18v0a33.46,33.46,0,0,1,0-3.47A42.79,42.79,0,0,1,38.73,74.8Z"/><path class="cls-22" d="M90.64,96.65a15.7,15.7,0,0,0-2.7,4.92c-1.2,3.28-2.63,7.59-7.91,8.62s-8.9-2.5-10.43-4.18a33.21,33.21,0,0,0-4.68-4.71s-.28-.81,4.6-.7,18.39-.54,18-4.51C87.54,96.09,89.32,97.33,90.64,96.65Z"/><path class="cls-21" d="M87.51,95.67a3.81,3.81,0,0,1-.3-.49.27.27,0,0,0-.52.12,2,2,0,0,0,1,1.67,12.32,12.32,0,0,1-5.23,2.81,25.42,25.42,0,0,1-7.11.92c-2.13,0-4.26-.09-6.38-.12-.78,0-2.62-.14-3.38.36s2.25,1,7.53,6.46c1.73,1.79,4.67,1.54,7,1.22,3.27-.46,4.6-2.2,5.82-4.76a63.1,63.1,0,0,0,2.76-6.52l0,0a2.71,2.71,0,0,0,1.13-.11.4.4,0,0,0,.06-.73A2.22,2.22,0,0,1,87.51,95.67Z"/><path class="cls-23" d="M86.27,100.94a19.47,19.47,0,0,1-2.22,4.62c-1.26,1.58-3.22,1.9-5.14,2.28-3.27.64-6.18-1.52-8.13-3.62a11.64,11.64,0,0,0-3.49-2.85c1.1-.07,2.24,0,3.52,0,2.47-.1,5,0,7.41-.17a19.92,19.92,0,0,0,9.31-2.89A26.79,26.79,0,0,0,86.27,100.94Z"/><path class="cls-15" d="M71.8,102c2.08,1.17,4.06,1.07,6.37.79s4.84-.65,6.33-2.52a8,8,0,0,0,.49-.7,22.32,22.32,0,0,1-6.77,1.57c-2.46.22-4.94.07-7.41.17h-.45A10.4,10.4,0,0,1,71.8,102Z"/><path class="cls-24" d="M80.8,104.94c-2.17-.17-4.57.65-5.63,2.49a6.5,6.5,0,0,0,3.74.41c1.68-.33,3.39-.62,4.63-1.74A4.85,4.85,0,0,0,80.8,104.94Z"/><path class="cls-25" d="M110.8,88.93c.9,1,.56,2.07-1.18,2.56s-3.53,0-5.22.43c-1.11.29-3.89,2.46-5,1.71-1.8-1.28.43-4.35,1.43-5.24A7.21,7.21,0,0,1,110.8,88.93Z"/><path class="cls-26" d="M52.53,69.89a5.73,5.73,0,0,1,3.94-1.79,7,7,0,0,1,3.88,1.14C63.22,71,64.3,74.64,64.64,78a0,0,0,1,1-.07,0c-.52-3.15-1.54-6.48-4.14-8.3a6.25,6.25,0,0,0-7.85.28S52.49,69.93,52.53,69.89Z"/><path class="cls-25" d="M44,89.28c-.92.9-.64,2,1.05,2.53s3.45.18,5.09.72c1.07.35,3.7,2.6,4.79,1.93,1.82-1.13-.25-4.23-1.19-5.15A7.11,7.11,0,0,0,44,89.28Z"/><path class="cls-27" d="M50.86,86.35a.32.32,0,0,0,.33-.43c-.11-.22-.21-.46-.32-.69a0,0,0,0,0,0,0C48.75,79.92,48.62,72,53.14,68.34c4-3.2,10.52.84,11.11,6.44a19.29,19.29,0,0,0-.77-3.49c1.91,2.78,3.89,12.91-.77,17.43a7.2,7.2,0,0,1-6.3,1.83s.55,2.68.55,3.2a11.93,11.93,0,0,0-3.15-5,7.37,7.37,0,0,0-2.28-1.2,15.82,15.82,0,0,0-4.27-.92A4.92,4.92,0,0,1,50.86,86.35Z"/><path class="cls-28" d="M48.9,86.47a8.8,8.8,0,0,1,3.62.72A13.65,13.65,0,0,1,51,83.33,18.38,18.38,0,0,1,51,75.62a9.29,9.29,0,0,1,3.6-5.92c1.92-1.37,4.1-1,6,.35s2.8,4.06,3.43,6.1a17.15,17.15,0,0,1,.16,8.48c-.45,2.06-2,4.44-3.93,5-1,.3-3.31.84-4.59.15a6.12,6.12,0,0,1,1,2.9s0,0,0,0a7.38,7.38,0,0,0-2.75-4.34,9,9,0,0,0-4.94-1.79C48.84,86.58,48.82,86.47,48.9,86.47Z"/><path class="cls-15" d="M54.36,88.33a5.8,5.8,0,0,1,.92,1c1.35.88,3.93.46,5.19-.19A7.25,7.25,0,0,0,64,83.57a16.19,16.19,0,0,0-3-12.69A4.69,4.69,0,0,0,54.75,70c-1.88,1.13-3,3.51-3.57,5.71a17.8,17.8,0,0,0-.31,5.74,13.72,13.72,0,0,0,1,3.78,9,9,0,0,0,1.12,2.17A8.24,8.24,0,0,1,54.36,88.33Z"/><path class="cls-29" d="M50.88,77.46a19.21,19.21,0,0,0,.81,5.07,7.43,7.43,0,0,0,4,4.92A5.23,5.23,0,0,0,61.3,87c3.27-2.73,3.2-7.86,1.84-12.28A17.64,17.64,0,0,1,64,83.57a7.25,7.25,0,0,1-3.53,5.55c-1.26.65-3.84,1.07-5.19.19a5.8,5.8,0,0,0-.92-1,8.24,8.24,0,0,0-1.42-.93,9,9,0,0,1-1.12-2.17,13.72,13.72,0,0,1-1-3.78A20.45,20.45,0,0,1,50.88,77.46Z"/><path class="cls-30" d="M62.42,78.84c.44,4.42-1.43,8.25-4.18,8.57s-5.34-3-5.79-7.41,1.43-8.24,4.18-8.56S62,74.43,62.42,78.84Z"/><path class="cls-31" d="M62.42,78.84c.44,4.42-1.43,8.25-4.18,8.57s-5.34-3-5.79-7.41,1.43-8.24,4.18-8.56S62,74.43,62.42,78.84Z"/><path class="cls-32" d="M61.26,79.28c.34,3.36-1.09,6.29-3.19,6.53S54,83.53,53.66,80.16s1.09-6.29,3.19-6.53S60.93,75.91,61.26,79.28Z"/><g class="cls-33"><path class="cls-34" d="M60.59,79c.27,2.66-.86,5-2.52,5.17s-3.22-1.81-3.48-4.47.86-5,2.51-5.16S60.32,76.38,60.59,79Z"/></g><g class="cls-33"><path class="cls-31" d="M52.39,78.73c0,.41,0,.84.06,1.27.45,4.41,3,7.73,5.79,7.41s4.62-4.15,4.18-8.57c-.05-.4-.11-.8-.19-1.19C59.48,80.4,55.17,81.46,52.39,78.73Z"/></g><path class="cls-15" d="M56.51,77.58c0,1.38-.65,2.5-1.52,2.51s-1.58-1.12-1.61-2.5.65-2.5,1.52-2.5S56.48,76.2,56.51,77.58Z"/><path class="cls-15" d="M56,82c0,.66-.3,1.2-.71,1.2s-.76-.53-.77-1.19.31-1.19.72-1.19S56,81.3,56,82Z"/><path class="cls-27" d="M103.93,85a.32.32,0,0,1-.33-.43c.12-.22.22-.46.32-.69,0,0,0,0,0,0C106,78.53,106.18,70.6,101.66,67c-4-3.2-10.52.84-11.12,6.44a20,20,0,0,1,.77-3.49c-1.91,2.78-3.88,12.9.77,17.43a7.21,7.21,0,0,0,6.31,1.82,32.55,32.55,0,0,0-.56,3.21A12.06,12.06,0,0,1,101,87.32a7.45,7.45,0,0,1,2.28-1.19,15.45,15.45,0,0,1,4.27-.92A4.92,4.92,0,0,0,103.93,85Z"/><path class="cls-28" d="M105.9,85.09a8.66,8.66,0,0,0-3.63.72A13.46,13.46,0,0,0,103.75,82a18.22,18.22,0,0,0,.06-7.71,9.26,9.26,0,0,0-3.6-5.93c-1.92-1.36-4.1-1-6,.35s-2.8,4.07-3.44,6.11a17,17,0,0,0-.15,8.48c.44,2.06,2,4.44,3.92,5,1,.3,3.32.83,4.59.15a6.23,6.23,0,0,0-1,2.9s0,0,0,0A7.4,7.4,0,0,1,101,87a8.92,8.92,0,0,1,4.94-1.79C106,85.2,106,85.09,105.9,85.09Z"/><path class="cls-15" d="M100.44,87a5.43,5.43,0,0,0-.92,1c-1.35.88-3.94.45-5.2-.19a7.21,7.21,0,0,1-3.52-5.56,16.17,16.17,0,0,1,3-12.68,4.69,4.69,0,0,1,6.23-.88c1.88,1.13,3,3.51,3.56,5.71a17.8,17.8,0,0,1,.31,5.74,13.35,13.35,0,0,1-.94,3.78A9.86,9.86,0,0,1,101.85,86,7.31,7.31,0,0,0,100.44,87Z"/><path class="cls-29" d="M103.91,76.07a18.74,18.74,0,0,1-.81,5.07,7.37,7.37,0,0,1-4,4.92,5.19,5.19,0,0,1-5.62-.49c-3.28-2.72-3.21-7.85-1.85-12.27a17.49,17.49,0,0,0-.85,8.88,7.21,7.21,0,0,0,3.52,5.56c1.26.64,3.85,1.07,5.2.19a5.43,5.43,0,0,1,.92-1,7.31,7.31,0,0,1,1.41-.93A9.86,9.86,0,0,0,103,83.85a13.35,13.35,0,0,0,.94-3.78A19.8,19.8,0,0,0,103.91,76.07Z"/><path class="cls-30" d="M102.37,78.26c-.26,4.42-2.71,7.91-5.48,7.79s-4.8-3.8-4.54-8.22,2.71-7.92,5.47-7.8S102.63,73.83,102.37,78.26Z"/><path class="cls-31" d="M102.37,78.26c-.26,4.42-2.71,7.91-5.48,7.79s-4.8-3.8-4.54-8.22,2.71-7.92,5.47-7.8S102.63,73.83,102.37,78.26Z"/><path class="cls-32" d="M101.17,78.5c-.2,3.38-2.08,6-4.19,6s-3.66-2.9-3.47-6.28,2.08-6,4.19-6S101.36,75.13,101.17,78.5Z"/><g class="cls-33"><path class="cls-34" d="M100.54,78.16c-.16,2.67-1.64,4.77-3.31,4.7s-2.89-2.29-2.73-5,1.64-4.76,3.3-4.69S100.69,75.49,100.54,78.16Z"/></g><g class="cls-33"><path class="cls-31" d="M92.5,76.56a10.26,10.26,0,0,0-.15,1.27c-.26,4.42,1.77,8.1,4.54,8.22s5.22-3.37,5.48-7.79c0-.41,0-.82,0-1.21C99.22,79.32,94.8,79.7,92.5,76.56Z"/></g><path class="cls-15" d="M96.74,76.07c-.2,1.37-1,2.37-1.89,2.24s-1.39-1.35-1.2-2.72,1-2.37,1.9-2.23S96.93,74.71,96.74,76.07Z"/><path class="cls-15" d="M95.54,80.31c-.09.65-.49,1.13-.9,1.06s-.66-.63-.57-1.29S94.56,79,95,79,95.63,79.66,95.54,80.31Z"/><path class="cls-22" d="M82.06,90.13c-.07-.16-.29-.13-.4,0a14,14,0,0,1-2.5,1.64c-.77.3-6.61.81-5.46-1.89.94-2.22,1.89-3.19,1.4-5.66a.16.16,0,0,0,0-.07,4.77,4.77,0,0,1-.21,2.6c-.74,1.72-2.36,2.21-3.54,3.52-1.67,1.88-.29,3.87,1.63,5.28a7.73,7.73,0,0,0,1.79.77C77.69,97.1,83.82,93.89,82.06,90.13Z"/><path class="cls-35" d="M79.65,87.87A3.41,3.41,0,0,0,76.84,87,3.14,3.14,0,0,0,74.3,88.8a1.13,1.13,0,0,1,0,.18,1.19,1.19,0,0,0-.22,1.29c.48,1,2.49,1.14,3.43,1a3.74,3.74,0,0,0,2.12-1.11A1.7,1.7,0,0,0,79.65,87.87Z"/><path class="cls-35" d="M81.06,88.51c-.48,0-.8.82-.24.85S81.62,88.54,81.06,88.51Z"/><path class="cls-21" d="M80.76,92.4a4.79,4.79,0,0,1-7.5,2,5.34,5.34,0,0,1-1.84-2.79c-.5-1.71,1.22-2,2.08-2.72A4.47,4.47,0,0,0,74,82.5s0,0,0,0a4.45,4.45,0,0,1,.44,4.88,4.73,4.73,0,0,1-2.15,2,2.3,2.3,0,0,0-.72.4c-1.15,1.18-.56,3.4.58,4.44a5.77,5.77,0,0,0,5.77,1.41,3.67,3.67,0,0,0,2.92-3.24C80.86,92.34,80.78,92.35,80.76,92.4Z"/><path class="cls-36" d="M100.89,58.83a7.14,7.14,0,0,0-2.64-.63,9.88,9.88,0,0,0-5,1.2,10.06,10.06,0,0,0-3.94,3.19,3.12,3.12,0,0,0-.55,2.69,1.53,1.53,0,0,0,1.94,1,6.19,6.19,0,0,0,1.64-1.43A12.34,12.34,0,0,1,95.57,62c1.49-.66,3.29-1.24,5-.31A6.86,6.86,0,0,1,104,64.89c.16.34.77,0,.79-.42A6.16,6.16,0,0,0,100.89,58.83Z"/><path class="cls-37" d="M90.17,66.68a2,2,0,0,1-1.75-1.26,3.41,3.41,0,0,1,.58-3,10.32,10.32,0,0,1,4.07-3.31,10.11,10.11,0,0,1,5.2-1.25,7.55,7.55,0,0,1,2.76.67,6.49,6.49,0,0,1,4.11,6,1,1,0,0,1-.91.9h0a.58.58,0,0,1-.53-.34,6.49,6.49,0,0,0-3.29-3,3.52,3.52,0,0,0-1.78-.45,7.45,7.45,0,0,0-2.92.77,7.71,7.71,0,0,0-2.39,1.93c-.25.27-.5.53-.76.78s-.25.25-.38.38a4.08,4.08,0,0,1-1.37,1.12A1.77,1.77,0,0,1,90.17,66.68Zm7.71-8.14a9.52,9.52,0,0,0-4.49,1.17,9.8,9.8,0,0,0-3.8,3.07,2.88,2.88,0,0,0-.53,2.38,1.19,1.19,0,0,0,1.49.76,3.63,3.63,0,0,0,1.13-1l.4-.41c.25-.25.5-.5.74-.76a8.63,8.63,0,0,1,2.61-2.08,8,8,0,0,1,3.2-.83,4.38,4.38,0,0,1,2.11.53,7.19,7.19,0,0,1,3.55,3.25.31.31,0,0,0,.16-.21,5.81,5.81,0,0,0-3.69-5.32,7.09,7.09,0,0,0-2.52-.6Z"/><path class="cls-38" d="M94.89,61.27c-1.57.8-3.71,3.92-5.69,3.47a.73.73,0,0,1-.57-.49,2,2,0,0,0,.11,1,1.53,1.53,0,0,0,1.94,1,6.19,6.19,0,0,0,1.64-1.43A12.34,12.34,0,0,1,95.57,62c1.49-.66,3.29-1.24,5-.31A6.86,6.86,0,0,1,104,64.89c.13.28.54.11.71-.18C103.76,60.55,98.48,59.46,94.89,61.27Z"/><path class="cls-36" d="M49.91,66.72c0,.41.62.76.78.42A6.83,6.83,0,0,1,54.14,64c1.7-.93,3.51-.36,5,.31a12.46,12.46,0,0,1,3.25,2.77A6,6,0,0,0,64,68.48a1.52,1.52,0,0,0,2-1,3.12,3.12,0,0,0-.56-2.69,10,10,0,0,0-3.94-3.19,9.77,9.77,0,0,0-5-1.21,7.2,7.2,0,0,0-2.64.64A6.14,6.14,0,0,0,49.91,66.72Z"/><path class="cls-37" d="M64.53,68.93a1.51,1.51,0,0,1-.63-.13,4.08,4.08,0,0,1-1.38-1.11c-.12-.14-.25-.27-.37-.39s-.51-.51-.77-.77A8,8,0,0,0,59,64.59a7.67,7.67,0,0,0-2.93-.76,3.6,3.6,0,0,0-1.77.44,6.51,6.51,0,0,0-3.29,3,.58.58,0,0,1-.54.33,1,1,0,0,1-.91-.9,6.54,6.54,0,0,1,4.11-6,7.43,7.43,0,0,1,2.77-.66,10,10,0,0,1,5.2,1.24,10.54,10.54,0,0,1,4.06,3.31,3.4,3.4,0,0,1,.59,3A2,2,0,0,1,64.53,68.93Zm-8.46-5.79a8.1,8.1,0,0,1,3.2.82,8.55,8.55,0,0,1,2.62,2.09c.24.26.48.51.74.76s.26.26.4.41a3.53,3.53,0,0,0,1.12.94,1.19,1.19,0,0,0,1.5-.76A2.89,2.89,0,0,0,65.12,65,9.94,9.94,0,0,0,61.32,62a9.35,9.35,0,0,0-4.86-1.17,6.78,6.78,0,0,0-2.5.6,5.81,5.81,0,0,0-3.71,5.31c0,.09.1.18.17.22A7.22,7.22,0,0,1,54,63.66,4.33,4.33,0,0,1,56.07,63.14Z"/><path class="cls-38" d="M64.51,67.07c-2.79-1.57-4.13-5-7.86-4.95-3,.06-6,2-6.55,5,.2.18.49.25.59,0A6.83,6.83,0,0,1,54.14,64c1.7-.93,3.51-.36,5,.31a12.46,12.46,0,0,1,3.25,2.77A6,6,0,0,0,64,68.48a1.52,1.52,0,0,0,2-1,2,2,0,0,0,.13-.73C66,67.38,65.5,67.62,64.51,67.07Z"/><path class="cls-21" d="M130.27,77.52c-.54-1.22-2.43-2.6-3.5-1.07-1.38,2-1,4.83-.6,7,0,.18.33.14.32,0,0-1.26,0-2.51.06-3.78a3.2,3.2,0,0,1,1.8,1.32.13.13,0,0,0,.23-.12,2.65,2.65,0,0,0-1.92-1.94c.08-.44.19-.87.31-1.29.22-.9.91-1.11,2.07-.62a4.36,4.36,0,0,1,.74.86C130,78.17,130.41,77.82,130.27,77.52Z"/><path class="cls-21" d="M34.91,76.91c-1.23-1.47-3.14-1.33-3.77.62-.14.4.4.6.63.29a1.6,1.6,0,0,1,2.55-.35A3.11,3.11,0,0,1,35,79.53a2.15,2.15,0,0,0-2.16.78c-.09.14.09.35.24.24a2.23,2.23,0,0,1,1.15-.39,1.55,1.55,0,0,1,.6.07.64.64,0,0,1,.18.1c0,.06,0,.12,0,.17,0,1.22-.35,2.42-.36,3.64,0,.15.24.19.27,0C35.32,82,36.56,78.88,34.91,76.91Z"/><path class="cls-2" d="M21,94.69a41.22,41.22,0,0,0,4.32-6.34,10,10,0,0,0,1.19-4,17.65,17.65,0,0,0-.63-3.88C25,76.12,28.54,74.37,31.46,72,32.61,71,34,69.74,34,68.1c0-1.21-.49-2.32-.49-3.53,0-1.95,1.92-3.65,3.28-4.73,4.26-3.35,9.53-3.62,14.61-2.32,6.61,1.69,12.74,4.11,19.5,1.55,2.89-1.1,5.68-2.73,8.7-3.47A25.43,25.43,0,0,1,88.11,55a31.59,31.59,0,0,1,8.29,2,19.3,19.3,0,0,0,5.22,1.41c2.42-.35,4.65-1.23,7-1.65,3.1-.55,6.1.24,9,1.31,2.25.83,4.86,1.9,6,4.17a3.9,3.9,0,0,1-.09,3.14c-.37,1-1.13,1.8.3,2.64A12.17,12.17,0,0,0,127,69.34c3.61,1,7.32,1.56,10.32,4,2.82,2.28,3,4.94,1.68,8.2-.82,2.06-2.51,4.42-1.9,6.77a9.42,9.42,0,0,0,2.81,4.21,16,16,0,0,1,3.28,3.69l.11.24c0-41.75-9.67-63.78-11.7-67.05A60.29,60.29,0,0,0,79.73.35C45.18,0,30.38,21.05,27.9,27c-6.39,15.21-13.82,54.6-13,73.78a22,22,0,0,0,3.64,11.52,25.92,25.92,0,0,1-1.12-4.39A16.84,16.84,0,0,1,21,94.69Z"/><path class="cls-39" d="M19.78,114.67l-1.49-2.23a22.5,22.5,0,0,1-3.69-11.69c-.89-19.66,6.68-58.95,13-73.93,1.27-3,5.62-9.74,13.81-15.65C51.84,3.62,64.74-.12,79.73,0a60.82,60.82,0,0,1,52,29.05l.09.14c.12.19,11.77,21.09,11.75,67.24V98l-.69-1.5-.07-.14a11.12,11.12,0,0,0-2.44-2.86l-.78-.74a9.88,9.88,0,0,1-2.89-4.38c-.5-1.9.42-3.81,1.23-5.48.25-.53.49-1,.68-1.5,1.38-3.46.91-5.79-1.58-7.8s-5.36-2.71-8.43-3.47l-1.76-.44a13.1,13.1,0,0,1-3.16-1.37c-1.46-.86-1-1.87-.65-2.61.06-.15.14-.3.19-.46a3.47,3.47,0,0,0,.11-2.86c-1.06-2.1-3.45-3.13-5.81-4a20.21,20.21,0,0,0-6.8-1.47,12.15,12.15,0,0,0-2,.17c-1.11.2-2.21.5-3.26.79a34.53,34.53,0,0,1-3.8.88h-.08a19.78,19.78,0,0,1-5.31-1.43,30.5,30.5,0,0,0-8.21-2,24.93,24.93,0,0,0-8.4.61A31.18,31.18,0,0,0,74.18,58c-1,.47-2.1.95-3.17,1.36a17.55,17.55,0,0,1-6.34,1.14,39.89,39.89,0,0,1-10.56-1.92c-.93-.26-1.86-.51-2.8-.75-5.65-1.45-10.59-.68-14.31,2.26-1.36,1.07-3.16,2.69-3.16,4.44a8.39,8.39,0,0,0,.24,1.71,9.84,9.84,0,0,1,.26,1.83c0,1.92-1.73,3.36-2.66,4.13-.47.39-1,.76-1.44,1.13-2.53,1.93-4.71,3.6-4,7,.08.35.15.7.23,1a11.36,11.36,0,0,1,.42,2.91,10.51,10.51,0,0,1-1.23,4.16,30.86,30.86,0,0,1-3.38,5.12c-.33.42-.65.85-1,1.27-3.1,4.19-4.19,8.29-3.47,12.92a24.87,24.87,0,0,0,1.11,4.33ZM78.89.69c-14.48,0-27,3.71-37.1,11-8.07,5.83-12.32,12.4-13.57,15.36C22,42,14.4,81.13,15.28,100.72a22.4,22.4,0,0,0,2.16,8.86c-.13-.56-.24-1.12-.32-1.66a17.22,17.22,0,0,1,3.6-13.44c.31-.43.64-.85,1-1.28a29.93,29.93,0,0,0,3.32-5,9.79,9.79,0,0,0,1.16-3.87,11.48,11.48,0,0,0-.4-2.74c-.08-.35-.16-.7-.23-1.07-.76-3.85,1.81-5.81,4.29-7.71.47-.37.95-.73,1.42-1.11,1.17-1,2.41-2.13,2.4-3.59a9.13,9.13,0,0,0-.23-1.7,9.07,9.07,0,0,1-.26-1.84c0-2,1.83-3.74,3.42-5A14.78,14.78,0,0,1,46,56.45a22.25,22.25,0,0,1,5.51.74c.94.24,1.89.5,2.81.75a39.33,39.33,0,0,0,10.38,1.9,16.87,16.87,0,0,0,6.1-1.1c1-.4,2.1-.87,3.13-1.34a31.82,31.82,0,0,1,5.6-2.13,26.1,26.1,0,0,1,8.64-.64,31.87,31.87,0,0,1,8.39,2,19.24,19.24,0,0,0,5.08,1.38,28.84,28.84,0,0,0,3.67-.85c1.08-.29,2.19-.59,3.33-.8a12.53,12.53,0,0,1,2.14-.18,20.88,20.88,0,0,1,7,1.51c2.49.93,5,2,6.18,4.34a4.12,4.12,0,0,1-.07,3.42c-.07.17-.14.33-.22.5-.35.76-.54,1.18.38,1.72a11.91,11.91,0,0,0,3,1.3l1.75.44c3,.75,6.12,1.52,8.7,3.6s3.28,4.86,1.78,8.6c-.2.5-.44,1-.7,1.54-.79,1.65-1.62,3.35-1.19,5a9,9,0,0,0,2.72,4l.76.73a16.71,16.71,0,0,1,2,2.17c-.2-45.07-11.53-65.4-11.65-65.59l-.09-.15A60.1,60.1,0,0,0,79.73.7Z"/><path class="cls-40" d="M29.27,61.34c0-.09-.13-.09-.15,0a21.21,21.21,0,0,1-1.76,4.87,34.16,34.16,0,0,0-1.78,5.52c-.56,2.29-1.17,4.69-.19,6.94a.1.1,0,0,0,.19,0,23.81,23.81,0,0,1,1-8.63C27.31,67.16,29.06,64.26,29.27,61.34Z"/><path class="cls-40" d="M37.45,47.6c0-.06-.1-.07-.1,0a20.59,20.59,0,0,1-.58,4.83c-.38,1.42-1.08,2.76-1.59,4.13a21.24,21.24,0,0,0-1.72,8.49.14.14,0,0,0,.27,0A51.91,51.91,0,0,1,36,56.12,19.87,19.87,0,0,0,37.45,47.6Z"/><path class="cls-40" d="M124.55,59.16a32.16,32.16,0,0,0-2.86-8.59c-.06-.11-.25,0-.2.08.81,2.25,1.48,4.48,2.09,6.8a16.14,16.14,0,0,1,.75,4.23,15.36,15.36,0,0,1-.81,3.72.1.1,0,0,0,.18.08A9.14,9.14,0,0,0,124.55,59.16Z"/><path class="cls-40" d="M139.8,75.39c-.2-1-.51-2-.75-3-.32-1.33-1-2.65-1.43-4s-.64-2.47-1-3.71c0,0-.1,0-.08,0a47.52,47.52,0,0,0,1.84,7.2,35.88,35.88,0,0,1,1.28,6.51.09.09,0,0,0,.17,0A15.54,15.54,0,0,0,139.8,75.39Z"/><path class="cls-40" d="M125.57,36c-.06-.07-.18,0-.13.09,1.11,1.75,2.18,3.46,3.13,5.3a25.35,25.35,0,0,1,2.33,7.81c0,.07.12,0,.11,0A26.59,26.59,0,0,0,125.57,36Z"/><path class="cls-40" d="M120.62,32.36c-1.11-1.56-2.5-3-4.47-2.07-.24.11-.08.51.18.44,4-1.06,6.09,5.44,6,8.49,0,.14.2.14.22,0A9.55,9.55,0,0,0,120.62,32.36Z"/><path class="cls-40" d="M109.11,30.67c-3,2.55-2.74,6.4-1,9.55,0,.1.19,0,.16-.09a14.26,14.26,0,0,1-1.09-4.35c-.14-1.86,1.18-3.45,2.25-4.81C109.66,30.75,109.3,30.5,109.11,30.67Z"/><path class="cls-40" d="M65.7,35.3c.18-.25-.2-.55-.41-.33-2.16,2.2-3,5-1.76,7.87.07.15.33,0,.27-.11a7,7,0,0,1-.11-4.34A13.77,13.77,0,0,1,65.7,35.3Z"/><path class="cls-40" d="M62.49,34.2a10.11,10.11,0,0,0-7.07,7.58.13.13,0,0,0,.24.07,14.1,14.1,0,0,1,2.12-4.16,10.23,10.23,0,0,1,4.8-3.12C62.81,34.49,62.74,34.13,62.49,34.2Z"/><path class="cls-40" d="M40,33.19c-4.64-.49-6.15,5.06-6.08,8.7a.11.11,0,0,0,.22,0c.19-3.49,1.49-8.46,5.85-8.23C40.3,33.7,40.31,33.22,40,33.19Z"/><path class="cls-40" d="M41.49,31.43c-2-1.58-3.43-2.54-3.6-5.28a11.23,11.23,0,0,1,1-5.21c0-.11-.13-.19-.19-.09a9.35,9.35,0,0,0-1.37,5.92c.28,2.54,1.7,3.95,3.94,5A.22.22,0,0,0,41.49,31.43Z"/><path class="cls-40" d="M67,34.27c-.71-1.19-1.5-2.29-2.1-3.56A11.34,11.34,0,0,1,64.08,25a.16.16,0,0,0-.31,0c-.52,3.5.16,7,2.84,9.58C66.79,34.71,67.11,34.51,67,34.27Z"/><path class="cls-40" d="M115.35,19.41c0-.05-.11,0-.07.06a8.9,8.9,0,0,1,1.28,4.37c.15,1.85-1.12,3.56-2.08,5-.11.17.14.38.27.22C117.1,26.24,117.75,22.44,115.35,19.41Z"/><path class="cls-41" d="M105.46,55.53A9,9,0,0,1,104.09,51c-.18-1.7-.18-4.66-1.6-6-1.35,2.53-.79,5.66-2.58,8.07-1.17,1.57-2.68,3.16-4.65,3.36.08.07.15.15.23.21.3.11.6.2.91.32a19.3,19.3,0,0,0,5.22,1.41c2-.3,3.92-1,5.9-1.42A3.77,3.77,0,0,1,105.46,55.53Z"/><path class="cls-41" d="M68.47,56.35c-1.5-1.92-2-4.23-3.38-6.2-.69-1-2-2-2.81-.36a14.31,14.31,0,0,0-.83,2.08,11.88,11.88,0,0,1-1.58,3.24,12.2,12.2,0,0,1-3.95,3.63c4.95,1.33,9.77,2.3,15,.33.24-.09.47-.2.71-.3A7.69,7.69,0,0,1,68.47,56.35Z"/><path class="cls-41" d="M141,92.55c-.68-2.93-.11-5.72.1-8.67a44.21,44.21,0,0,0-.35-8.6c-.79-6.22-2.32-12.34-3.72-18.46-1.87-8.21-4.62-16.32-5.52-24.73a6.88,6.88,0,0,1,0-2.75A60,60,0,0,0,122.63,18c-2.19,2-5,2.74-8.33.62-3.4,2.17-10,7.56-21.84,9.29-7.78,1.12-23.5-1-28-3.5a23.88,23.88,0,0,1-10.89,3.68c-6,.34-14.12-.88-15-7-2.13,1.78-4,4.11-5.13,1.65a5.35,5.35,0,0,1,0-4A32.71,32.71,0,0,0,27.9,27a103.24,103.24,0,0,0-4,12c1-1.37,2-2,3-1.49,3.22,1.66.87,8,.12,10.44-2.65,8.72-6.3,18.56-5.24,27.83.67,5.86,1.47,11.33-.77,17a10.7,10.7,0,0,1-.5,1c-.11.47-.22.93-.35,1.39s-.24.87-.34,1.28c.36-.58.75-1.16,1.17-1.73a41.22,41.22,0,0,0,4.32-6.34,10,10,0,0,0,1.19-4,17.65,17.65,0,0,0-.63-3.88,6,6,0,0,1-.09-1.91c-1.58-2.09.36-7,1-8.84.93-2.77,1.81-5.55,2.46-8.4.55-2.39.75-4.84,1.31-7.23.17-.73.59-2.8,1.8-2.47,1.37.38,1.37,2.56,1.36,3.66,0,2.23-.9,4.34-1,6.56a47.88,47.88,0,0,0,.11,8.88A4,4,0,0,0,34,68.1c0-1.21-.49-2.32-.49-3.53a4.5,4.5,0,0,1,1.25-2.83A7,7,0,0,0,35,60.2a15.6,15.6,0,0,1,.55-1.54,24.7,24.7,0,0,0,1.71-5.89c.52-3.57,1.12-6.78,3.79-9.4,2.26-2.22,5.36-4.26,8.71-3.87,2.08-.22,4,3.56,4.88,5.68,1.38-3.19,2.94-4,5-3.6,2.9.5,4,3,5.14,5.25,0,0-.78-3.81.35-5.19,1.85-2.28,4.41-.91,7.34-.78,8.37.38,11.42-.72,15.17-1,5.67-.5,13.36-3.12,18.26.62a14.41,14.41,0,0,1,4.06,4.41c-.17-2.5-.52-5.57,1-6.83a4,4,0,0,1,6,.23c1.86,2.07,2.6,4.86,3.61,7.39a54.62,54.62,0,0,1,2.78,9.1,18.72,18.72,0,0,1,.27,7.41.41.41,0,0,0,0,.09,3.9,3.9,0,0,1-.09,3.14c-.37,1-1.13,1.8.3,2.64A12.17,12.17,0,0,0,127,69.34l.64.16c1.29-3,.47-6.59-.41-9.63-1.66-5.68-2.25-11.58-3.11-17.41-.2-1.34-.93-3.88.26-5,1.47-1.37,3.75,3.05,4.11,3.82a76.42,76.42,0,0,1,3.84,11.56c.52,1.9,1,3.81,1.47,5.72s1,3.88,1.69,5.79a51.17,51.17,0,0,1,2.73,9.79c1.94,2.09,1.93,4.49.78,7.36-.82,2.06-2.51,4.42-1.9,6.77a9.42,9.42,0,0,0,2.81,4.21c.65.65,1.41,1.31,2.07,2A9.76,9.76,0,0,1,141,92.55Z"/><path class="cls-42" d="M124.61,20.11a7.88,7.88,0,0,1-2.94,2.15,5.07,5.07,0,0,1-5.78-1.35c-1.07,5.49-6.46,7.5-12.15,7.94-.92.12-1.84.24-2.74.41-3.45.66-6.94,1.1-10.44,1.49-6.48.7-13.92,1.71-20.25-.39l-.44-.15c-2.28-.66-5-1.71-6.09-3.83a16.64,16.64,0,0,1-12.17,4C47.15,30.07,40.07,28.5,37.83,24a5.73,5.73,0,0,1-2.68,1.17c-1.76.25-3.64-1.06-4.67-2.67A24.33,24.33,0,0,0,27.9,27c-.89,2.11-1.79,4.7-2.7,7.63,1.82,1.13,4.66,1.4,6.12,2.74a10.7,10.7,0,0,1,2.79,4.45c5.66-5.12,16.62-6,22.11-.45,1.41-1.35,3.42-2.55,5.22-1.54a7.84,7.84,0,0,1,2.28,2.09c1.28-3.15,6.15-4.87,9-5.3a34.68,34.68,0,0,1,9.16,0c.62.08,1.29.13,1.95.19,8.05-3.59,17-1.92,24.16,3,1.34-3.72,6.32-4.27,9.76-3.93a7.14,7.14,0,0,1,5,2.64c.14-2.59.74-5,3.16-6.69,1.77-1.25,3.77-2.39,5.58-2.06a3.38,3.38,0,0,1,.08-.34A60.2,60.2,0,0,0,124.61,20.11Z"/><path class="cls-9" d="M32.18,26.16c-1.89-.63-4-1.44-5.93-.83A3.79,3.79,0,0,0,24.07,30c1.19,3.62,6.07,5,9.18,5.55A215.34,215.34,0,0,0,82.32,38c23-1.29,41.81-6.13,47.34-10.1s2.94-8.64-3.54-5.62-28.51,7.82-48.06,8.86a174.62,174.62,0,0,1-29.34-1.28,73.2,73.2,0,0,1-8.18-1.41c-2.55-.6-5.08-1.3-7.58-2.05Z"/><path class="cls-9" d="M68.63,38.75a204.07,204.07,0,0,1-35.44-2.9c-5.25-.93-8.51-2.93-9.44-5.77a4.28,4.28,0,0,1,.3-3.22A3.62,3.62,0,0,1,26.15,25a4.78,4.78,0,0,1,1.59-.24,13.4,13.4,0,0,1,4.14.92l.41.14.77.24c2.77.84,5.24,1.51,7.55,2.05a76,76,0,0,0,8.16,1.41A173.59,173.59,0,0,0,78,30.81C98,29.74,119.78,24.87,126,22a9.37,9.37,0,0,1,3.87-1,2.93,2.93,0,0,1,3.06,1.8c.52,1.61-.64,3.69-3,5.4-5.48,4-24,8.86-47.52,10.18C77.77,38.61,73.15,38.75,68.63,38.75ZM27.74,25.46a4.65,4.65,0,0,0-1.38.2,3,3,0,0,0-1.69,1.52,3.56,3.56,0,0,0-.26,2.68c1.06,3.27,5.43,4.7,8.9,5.32a204.22,204.22,0,0,0,35.32,2.87c4.51,0,9.11-.12,13.67-.38,23.39-1.32,41.75-6.16,47.15-10,2.57-1.85,3.11-3.65,2.8-4.64a2.28,2.28,0,0,0-2.41-1.32,8.68,8.68,0,0,0-3.58.94c-6.24,2.91-28.11,7.82-48.17,8.88a174.05,174.05,0,0,1-29.41-1.27,77.06,77.06,0,0,1-8.22-1.43c-2.34-.54-4.82-1.22-7.6-2.05l-.78-.26-.41-.13A12.75,12.75,0,0,0,27.74,25.46Z"/><g class="cls-43"><path class="cls-9" d="M131.81,21.86c-5,4.7-12,7-18.76,8.25-4.38.85-8.8,1.37-13.23,1.89-5.52.63-11,1.44-16.53,2a171.42,171.42,0,0,1-20.13,1.1,127.89,127.89,0,0,1-19.33-1.94c-5.27-.95-11.56-1.72-16.26-4.49a7.45,7.45,0,0,1-2.76-2.3A4,4,0,0,0,24.07,30c1.19,3.62,6.07,5,9.18,5.55A215.34,215.34,0,0,0,82.32,38c23-1.29,41.81-6.13,47.34-10.1C132.93,25.55,133.36,23,131.81,21.86Z"/><path class="cls-9" d="M68.63,38.75h0a204.07,204.07,0,0,1-35.44-2.9c-5.25-.93-8.51-2.93-9.44-5.77a4.36,4.36,0,0,1,.79-4l.32-.38.25.42a7.32,7.32,0,0,0,2.64,2.19c4,2.36,9.3,3.26,14,4.06l2.17.38a125.94,125.94,0,0,0,19.28,1.93,166.51,166.51,0,0,0,19.53-1l.56-.06c3.47-.32,7-.77,10.37-1.2,2.05-.26,4.1-.52,6.15-.76,4.72-.54,9-1.06,13.21-1.87,8.45-1.64,14.35-4.24,18.59-8.17l.2-.2.23.17a2.33,2.33,0,0,1,1,2c0,1.5-1.15,3.19-3.16,4.63-5.48,4-24,8.86-47.52,10.18C77.77,38.61,73.15,38.75,68.63,38.75ZM24.8,26.93a3.58,3.58,0,0,0-.39,2.93c1.06,3.27,5.43,4.7,8.9,5.32a204.22,204.22,0,0,0,35.32,2.87h0c4.51,0,9.11-.12,13.67-.38,23.39-1.32,41.75-6.16,47.15-10,1.81-1.29,2.89-2.81,2.88-4.07a1.63,1.63,0,0,0-.51-1.23c-4.31,3.92-10.26,6.5-18.7,8.13-4.26.82-8.52,1.34-13.26,1.89-2,.23-4.1.5-6.15.76-3.4.43-6.91.88-10.39,1.2l-.56.05a167.64,167.64,0,0,1-19.61,1.06,127.24,127.24,0,0,1-19.38-1.95l-2.17-.37c-4.72-.82-10.08-1.73-14.2-4.16A9.07,9.07,0,0,1,24.8,26.93Z"/></g><g class="cls-43"><path class="cls-9" d="M126.28,28.08a62.15,62.15,0,0,1-13,4.23c-11.74,2.45-22.55,4.47-34.55,4.84-12.58.39-25.81-.53-38.35-1.5a36,36,0,0,1-13.11-3.87,9.7,9.7,0,0,1-3.37-2.63,4.4,4.4,0,0,0,.15.82c1.19,3.62,6.07,5,9.18,5.55A215.34,215.34,0,0,0,82.32,38c23-1.29,41.81-6.13,47.34-10.1,2.57-1.85,3.38-3.86,2.86-5.16A16.08,16.08,0,0,1,126.28,28.08Z"/><path class="cls-9" d="M68.63,38.75a204.07,204.07,0,0,1-35.44-2.9c-5.25-.93-8.51-2.93-9.44-5.77a4,4,0,0,1-.17-.89L23.5,28l.7.94a9.24,9.24,0,0,0,3.25,2.53,35.64,35.64,0,0,0,13,3.83c10.41.8,21.48,1.59,32.22,1.59,2.09,0,4.14,0,6.1-.09C91,36.43,102.06,34.3,113.23,32a62,62,0,0,0,12.9-4.21,15.79,15.79,0,0,0,6.11-5.22l.37-.52.23.6c.51,1.28,0,3.41-3,5.55-5.48,4-24,8.86-47.52,10.18C77.77,38.61,73.15,38.75,68.63,38.75Zm-44-8.32C26,33.3,30,34.59,33.31,35.18a204.22,204.22,0,0,0,35.32,2.87c4.51,0,9.11-.12,13.67-.38,23.39-1.32,41.75-6.16,47.15-10,2.12-1.52,2.86-3,2.87-4a16.36,16.36,0,0,1-5.9,4.8,62.63,62.63,0,0,1-13,4.25C102.17,35,91.1,37.12,78.76,37.49c-2,.06-4,.09-6.12.09-10.77,0-21.85-.78-32.27-1.58a36.33,36.33,0,0,1-13.24-3.91A12.47,12.47,0,0,1,24.63,30.43Z"/></g><path class="cls-44" d="M96.28,29.64c-5.64.88-11.35,1.32-17,2.19s-11.4.42-17.11.24c-10.34-.33-21.78-1.91-31.49-5.6-.35-.13-.56.39-.26.59,3.7,2.53,8.8,3.92,13.2,4.67,5.83,1,11.59,1.54,17.46,2.15a84.84,84.84,0,0,0,17.38-.17c6-.6,12.25-1.32,18-3.33A.38.38,0,0,0,96.28,29.64Z"/><path class="cls-44" d="M110.56,27c-3.61,0-7,1.79-10.6,2.34-.46.07-.32.72.09.76a23,23,0,0,0,10.8-1.9C111.45,27.91,111.17,26.94,110.56,27Z"/><path class="cls-44" d="M111.08,10.51C101.26,3.05,86.35,1,74.42,2.4A116.08,116.08,0,0,0,53.92,7c-6.25,2-10.77,5.31-15.71,9.45-.42.36.12,1.11.58.78,5.06-3.55,9.64-6.53,15.57-8.47A141.29,141.29,0,0,1,73.59,4.45C86.48,2.2,99,6.33,110.6,11.57,111.25,11.86,111.57,10.87,111.08,10.51Z"/><path class="cls-44" d="M116.48,15a8.37,8.37,0,0,0-3.35-2.83c-.53-.26-1.15.37-.68.85s1,.88,1.51,1.34a13.58,13.58,0,0,0,1.68,1.44C116.12,16.09,116.82,15.49,116.48,15Z"/><path class="cls-44" d="M23.87,44.87c0-.2-.3-.24-.34-.06-2,8.23-4,16.57-5.05,25-.55,4.36-1,8.75-1.4,13.14a49.32,49.32,0,0,0,.16,12.38c.06.4.75.33.72-.08-.81-8.46.5-17,1.48-25.41S22.6,53.21,23.87,44.87Z"/><path class="cls-44" d="M29.32,58.65c-.8,3.15-1.36,6.37-2.27,9.5A23.81,23.81,0,0,0,25.94,75c0,.18.3.24.33,0a72.94,72.94,0,0,1,1.62-7.37,52.1,52.1,0,0,0,1.7-9C29.61,58.54,29.36,58.5,29.32,58.65Z"/><path class="cls-44" d="M40.64,43.72a8.45,8.45,0,0,0-2,2.45,23.76,23.76,0,0,0-1.12,4.39A22.18,22.18,0,0,1,36.09,56a10.44,10.44,0,0,0-.59,2.21,7.69,7.69,0,0,1-.37,1.93c-.06.1.08.22.15.13.46-.51.44-1.3.65-1.93.52-1.58,1.22-3.1,1.71-4.7s.52-3.67,1-5.45a13.18,13.18,0,0,1,2.26-4.27C41,43.77,40.76,43.59,40.64,43.72Z"/><path class="cls-44" d="M55.78,45c-2.26,3.4-2,8.07-2.28,12,0,.15.25.2.28,0,.73-4,.73-8,2.35-11.84C56.22,44.94,55.9,44.81,55.78,45Z"/><path class="cls-44" d="M81.9,47.64A34.12,34.12,0,0,0,81.18,41a.13.13,0,0,0-.26,0c0,2.39.39,4.76.45,7.15a47,47,0,0,0,.46,5.56c0,.17.28.13.29,0C82.27,51.71,81.94,49.67,81.9,47.64Z"/><path class="cls-44" d="M115,55.6c-2.05-2.58-3.07-5.72-4.37-8.72,0-.13-.26,0-.22.09,1,3,2,6.6,4.4,8.82A.13.13,0,0,0,115,55.6Z"/><path class="cls-44" d="M121.74,52.08c-.94-2.81-2.13-5.56-3.27-8.3,0-.13-.26-.05-.22.08,2,5.56,4.39,11.3,5.27,17.17,0,.19.29.13.31,0C124.09,58,122.68,54.89,121.74,52.08Z"/><path class="cls-44" d="M141.93,75.47c-.32-4.19-.72-8.35-1.43-12.5-.69-4-1.56-7.9-2.49-11.83-.43-1.81-.83-3.64-1.19-5.47s-1.21-3.77-1.74-5.67a.12.12,0,1,0-.24.06c.86,3.55,1.83,7,2.54,10.59.77,4,1.59,7.87,2.32,11.83a126.06,126.06,0,0,1,1.56,13c.32,4.1.91,8.14,1.05,12.26,0,.17.26.18.26,0A116.46,116.46,0,0,0,141.93,75.47Z"/><path class="cls-44" d="M143.07,89a.3.3,0,0,0-.57,0,8.13,8.13,0,0,0,.13,2.91c.05.27.5.31.55,0A7.92,7.92,0,0,0,143.07,89Z"/><path class="cls-44" d="M126.69,38.46c-.11-.17-.39,0-.28.15a22.78,22.78,0,0,1,2.69,6.15,45.38,45.38,0,0,1,.94,7.7c0,.11.16.12.16,0C130.44,47.34,129.59,42.73,126.69,38.46Z"/><path class="cls-44" d="M134.45,63.72A81.1,81.1,0,0,1,131.56,55a.06.06,0,0,0-.12,0,44.21,44.21,0,0,0,2.14,8c.55,1.36,1.22,2.71,1.64,4.13s.79,3.2,1.33,4.76a.14.14,0,0,0,.27-.06A34.66,34.66,0,0,0,134.45,63.72Z"/><path class="cls-44" d="M100,59.31c-3.67-1.83-7.93,1-10,3.93-.09.12.09.25.2.15a18.8,18.8,0,0,1,4-2.92,9.7,9.7,0,0,1,5.57-.7C100.07,59.81,100.3,59.45,100,59.31Z"/><path class="cls-44" d="M102.23,60.22a1.54,1.54,0,0,0-1.09-.68.31.31,0,0,0-.17.56c.33.2.56.53.94.64A.32.32,0,0,0,102.23,60.22Z"/><path class="cls-44" d="M63.54,63.87c-2.29-2.72-6.31-4.39-9.52-2.19a.13.13,0,0,0,.12.22,7.28,7.28,0,0,1,5.39,0c1.42.4,2.37,1.73,3.65,2.43A.29.29,0,0,0,63.54,63.87Z"/><path class="cls-44" d="M64.55,64.42a.34.34,0,0,0-.5.47c.17.19.29.39.47.56a.29.29,0,0,0,.49-.27A1.47,1.47,0,0,0,64.55,64.42Z"/><path class="cls-44" d="M150.59,69.71c-.17.05-.15.32,0,.31,3.07-.23,4.1,3.42,4.75,5.7.06.22.42.2.41,0C155.66,73.24,153.69,68.87,150.59,69.71Z"/><path class="cls-44" d="M165.43,60.45c-2,.15-3,2.55-3.77,4.14-1.24,2.71-1.79,5.65-2.77,8.44-.07.21.26.37.37.16.91-1.88,1.42-4,2.28-5.92,1-2.37,1.58-4.95,4-6.34C165.75,60.81,165.7,60.42,165.43,60.45Z"/><path class="cls-44" d="M173.61,64.5c-1.7.18-3.18,2-4.18,3.24a26.07,26.07,0,0,0-3.66,6c-.07.18.23.31.32.14a32.89,32.89,0,0,1,2.75-4.45c1.12-1.52,3-3.78,4.83-4.35C174,65,173.94,64.47,173.61,64.5Z"/><path class="cls-44" d="M179.36,73.61c-1.92-2.06-6.13,2.54-7.26,3.73a.17.17,0,0,0,.23.24c1.57-1.47,4.39-4.44,6.79-3.57A.24.24,0,0,0,179.36,73.61Z"/><path class="cls-44" d="M180.58,83.24a8.34,8.34,0,0,0-7.78.17c-.1.07,0,.24.08.21a22.6,22.6,0,0,1,3.66-.54,9.53,9.53,0,0,1,3.84.61A.25.25,0,0,0,180.58,83.24Z"/><path class="cls-44" d="M165,78.62a9.49,9.49,0,0,0-2.73-1.47,4.94,4.94,0,0,0-2.56.11c-.18,0-.13.29,0,.3a8.57,8.57,0,0,1,4.53,1.37c1.6,1,2.43,2.73,3.27,4.38a.18.18,0,0,0,.33-.13A7.9,7.9,0,0,0,165,78.62Z"/><path class="cls-44" d="M157,79.74a.16.16,0,0,0-.17.28,10.9,10.9,0,0,1,3.41,3.28,16.09,16.09,0,0,1,1.45,4.13c.07.25.51.23.48-.06C161.88,83.82,160,81.54,157,79.74Z"/><path class="cls-44" d="M7.28,169.71A31.9,31.9,0,0,0,.91,177.2c-.07.11.09.25.17.15,1-1.17,1.77-2.45,2.79-3.58C5,172.45,6.34,171.28,7.52,170,7.66,169.8,7.45,169.56,7.28,169.71Z"/><path class="cls-44" d="M10,171a29.4,29.4,0,0,0-7.42,8.25c-.12.18.16.36.29.18a53,53,0,0,1,7.32-8.23C10.33,171.08,10.15,170.9,10,171Z"/><path class="cls-44" d="M12.12,172.65a31,31,0,0,0-7.86,10.63c-.09.19.17.36.28.17,1.08-1.89,2.23-3.76,3.46-5.57s3-3.31,4.35-5A.17.17,0,0,0,12.12,172.65Z"/><path class="cls-44" d="M16.32,175.3c-3.67,2.72-7.22,5.78-9.47,9.82a.17.17,0,0,0,.29.18,28,28,0,0,1,4.64-5.55c1.54-1.4,3.35-2.69,4.78-4.2A.17.17,0,0,0,16.32,175.3Z"/><path class="cls-44" d="M55.22,124.3c-6.29,4.79-8.9,12.74-14.29,18.43-1.31,1.37-2.48,2.87-3.8,4.24s-2.84,2.64-4.27,3.91c-2.95,2.62-6.57,4.34-9.47,7a.28.28,0,0,0,.32.45A93.48,93.48,0,0,0,33.14,152a57.38,57.38,0,0,0,8.09-8,78.33,78.33,0,0,0,7-9.33c1.1-1.71,2.12-3.47,3.19-5.19a31.27,31.27,0,0,1,4.13-4.83A.22.22,0,0,0,55.22,124.3Z"/><path class="cls-44" d="M22.54,158.86c.07-.05.06-.07,0,0a1,1,0,0,0-.23.05,1.76,1.76,0,0,0-.42.24,2.18,2.18,0,0,0-.75.76c-.19.31.26.71.51.41a5.39,5.39,0,0,1,.85-.72c.18-.14.51-.2.56-.47A.27.27,0,0,0,22.54,158.86Z"/><path class="cls-44" d="M76.2,123.55c-.21-.27-.67.07-.48.36s.48.5.56.84.54.26.58-.06C76.9,124.14,76.51,123.93,76.2,123.55Z"/><path class="cls-44" d="M76.78,139a1,1,0,0,0-.27-.32c-.05,0-.25-.09-.26-.14a.28.28,0,0,0-.54.07.61.61,0,0,0,.35.54c.19.12.27.55.38.74s.53.16.51-.12A2.32,2.32,0,0,0,76.78,139Z"/><path class="cls-44" d="M76.18,151.72c-.28-.1-.5.36-.22.49a1.54,1.54,0,0,1,.85.92c.09.23.46.12.45-.1A1.36,1.36,0,0,0,76.18,151.72Z"/><path class="cls-44" d="M75.34,164.14a.24.24,0,0,0,.17.44c.43-.07.53.58.63.85a.36.36,0,0,0,.26.28.42.42,0,0,0,.31,0,.37.37,0,0,0,.21-.34C76.94,164.56,76.14,163.62,75.34,164.14Z"/><path class="cls-44" d="M156.54,112.39c-5.88,4.82-12.09,9.22-19.37,11.65a91.13,91.13,0,0,1-10.37,2.9c-3.56.74-8.47,1.08-11.83-.51-.17-.08-.32.15-.16.25,3,1.78,6.9,1.6,10.27,1.32,3.78-.3,7.55-1.61,11.16-2.69A47.48,47.48,0,0,0,147,120.52,44.08,44.08,0,0,0,157,112.9.35.35,0,0,0,156.54,112.39Z"/><path class="cls-44" d="M160.18,109a30,30,0,0,0-2.14,2.35c-.18.22.19.51.38.31.75-.73,1.54-1.39,2.22-2.19C160.9,109.11,160.48,108.64,160.18,109Z"/><path class="cls-44" d="M64.28,129.52A35.37,35.37,0,0,0,60.34,137a56.27,56.27,0,0,0-3.16,10.25,69.36,69.36,0,0,0-1.76,22.14c0,.38.6.41.59,0a86.61,86.61,0,0,1,1.87-21.24,65.49,65.49,0,0,1,2.73-9.84,42.57,42.57,0,0,1,4-8.54C64.83,129.51,64.45,129.29,64.28,129.52Z"/><path class="cls-44" d="M56.75,172.82c-.08-.6-.26-1.22-.28-1.83a.3.3,0,0,0-.59,0,11.75,11.75,0,0,0,.16,1.44c.09.74.18,1.48.3,2.21,0,.34.64.28.6-.06C56.89,174,56.83,173.4,56.75,172.82Z"/><path class="cls-44" d="M74,273.48c-2.81-2.27-4.74-5.39-6.48-8.52a48.76,48.76,0,0,1-4.16-10c-2.11-7.16-2.27-14.46-2.78-21.84a.35.35,0,0,0-.69,0,66,66,0,0,0,2.75,22.68c2,6.57,5.56,13.87,11.13,18.12C74,274,74.19,273.66,74,273.48Z"/><path class="cls-44" d="M61.12,228.69c0-.27-.42-.18-.45.05a14,14,0,0,0,0,2.42.25.25,0,0,0,.5,0A14.78,14.78,0,0,0,61.12,228.69Z"/><path class="cls-44" d="M118.39,278.69c-1.84.52-3.7,1-5.58,1.37a30.22,30.22,0,0,1-6.37,1,.21.21,0,0,0,0,.41,23.2,23.2,0,0,0,5.91-.61,29.91,29.91,0,0,0,6.23-1.69C118.82,279,118.66,278.61,118.39,278.69Z"/><path class="cls-44" d="M63.87,280.81c-3.38-.87-6.78-1.13-10.07-2.44-.22-.09-.38.27-.17.38a25.93,25.93,0,0,0,10.16,2.56A.26.26,0,0,0,63.87,280.81Z"/><path class="cls-44" d="M66.56,281.05c-.18,0-.49,0-.65-.06s-.61.22-.37.45a1.1,1.1,0,0,0,1.08.16C67,281.53,66.85,281.09,66.56,281.05Z"/><path class="cls-44" d="M120.69,277.65a3.8,3.8,0,0,0-.6.31.29.29,0,0,0,.28.51,3.36,3.36,0,0,0,.54-.26C121.18,278,121,277.53,120.69,277.65Z"/><path class="cls-44" d="M137.48,290.15c-1.76-4.77-7.82-5-11.94-6.52-.21-.08-.35.25-.16.36a30.74,30.74,0,0,0,5.49,2.21,22.79,22.79,0,0,1,3.64,1.53c1.09.59,1.64,1.8,2.38,2.74C137.1,290.73,137.6,290.47,137.48,290.15Z"/><path class="cls-44" d="M138.25,291.54a3.49,3.49,0,0,1-.15-.34c0-.12-.16-.19-.19-.33a.33.33,0,0,0-.64.06,5.11,5.11,0,0,0,.43,1.34.35.35,0,0,0,.68-.07A1.26,1.26,0,0,0,138.25,291.54Z"/><path class="cls-44" d="M46.68,283.73c-1,.31-2.11.47-3.14.77-1.29.37-2.52,1-3.81,1.41-1.93.63-3.68,1.16-4.72,3-.21.37.27.8.58.48,1.74-1.78,3.74-2.32,6-3.16,1.73-.63,3.53-1.37,5.22-2.11C47.07,284,46.91,283.67,46.68,283.73Z"/><path class="cls-44" d="M34.5,289.67a2,2,0,0,0-.59,1,.31.31,0,0,0,.55.26,7.12,7.12,0,0,1,.49-.8A.33.33,0,0,0,34.5,289.67Z"/></g></g></g></svg>