<svg xmlns="http://www.w3.org/2000/svg" viewBox="0 0 162.46 300"><defs><style>.cls-1{isolation:isolate;}.cls-2{fill:#2d170e;}.cls-3{fill:#1c110c;}.cls-11,.cls-14,.cls-20,.cls-22,.cls-23,.cls-30,.cls-35,.cls-4{mix-blend-mode:multiply;}.cls-12,.cls-14,.cls-15,.cls-24,.cls-4,.cls-41{opacity:0.5;}.cls-5{fill:#4d2a1d;}.cls-6{fill:#6e4436;}.cls-14,.cls-15,.cls-7{fill:#c5753d;}.cls-8{fill:#89431e;}.cls-9{fill:#9f4499;}.cls-10,.cls-22{fill:#6d2776;}.cls-13,.cls-24{fill:#fff;}.cls-15,.cls-25,.cls-38,.cls-41,.cls-45,.cls-48{mix-blend-mode:screen;}.cls-16{fill:#f0dfc8;}.cls-17{fill:#9e9383;}.cls-18,.cls-25{fill:#de1d59;}.cls-19{fill:#9e1c42;}.cls-20,.cls-21{fill:#b91e4c;}.cls-23{fill:#b6b5b1;}.cls-24{mix-blend-mode:overlay;}.cls-26{fill:#fbde02;}.cls-27{fill:#bf842b;}.cls-28{fill:#a3542a;}.cls-29{fill:#d27d4d;}.cls-30{opacity:0.7;}.cls-31{fill:#e7b89a;}.cls-32{fill:#a53e2c;}.cls-33{fill:#e2793e;}.cls-34{fill:#aa4725;}.cls-35,.cls-38{opacity:0.4;}.cls-36{fill:#f1d5c1;}.cls-37{fill:#321a12;}.cls-39{fill:#c2c1c1;}.cls-40{fill:none;}.cls-42{fill:#835140;}.cls-43{fill:#7c92a6;}.cls-44{fill:#332c26;}.cls-46{fill:#0b0b0b;}.cls-47{fill:#333332;}.cls-48{opacity:0.8;}</style></defs><g class="cls-1"><g id="Layer_2" data-name="Layer 2"><g id="Layer_1-2" data-name="Layer 1"><path class="cls-2" d="M107,109.71s-8.75,6.08-4.87,14,6.39,19.15,4.83,24.75S106.48,165,114.89,167c-3.27-5.61-1.41-10.75.15-12.31-.78,4.21.63,8.4,5.62,10.59s10.74,5.45,5.44,11.68c8.41-.78,13.24-9.18,7-19.61,2.81,2.49,8.41,1.87,8.41,1.87s-7.78-.79-3.11-11.37c3.27-7.94.46-17.13-11.53-30.84,5,1.25,6.71-1.71,6.71-1.71s-4.06.93-5.93-3.74S116.84,104.42,107,109.71Z"/><path class="cls-3" d="M126.1,177.37a.39.39,0,0,1-.34-.2.38.38,0,0,1,0-.44c1.62-1.91,2.26-3.67,1.91-5.22-.61-2.63-4-4.43-7.22-5.84-4.13-1.82-6.27-5.19-6-9.43a11.06,11.06,0,0,0,.71,10.49.38.38,0,0,1,.13.29c0,.21-.19.44-.41.39h-.11a10.21,10.21,0,0,1-6.6-5c-2.58-4.37-2.64-10.32-1.62-14,1.44-5.16-.71-16.14-4.8-24.48-4-8.16,4.9-14.45,5-14.52a24,24,0,0,1,11.13-3c4.92,0,8.89,2,10.13,5.09s3.47,3.57,4.71,3.57a3.63,3.63,0,0,0,.75-.07.39.39,0,0,1,.4.16.36.36,0,0,1,0,.42,5.3,5.3,0,0,1-4.72,2.23,11.76,11.76,0,0,1-1.28-.1c10.92,12.7,14.25,22.1,10.86,30.38-1.66,3.73-1.91,6.59-.79,8.52a5,5,0,0,0,3.58,2.3.38.38,0,0,1,.35.38.4.4,0,0,1-.35.4,15.19,15.19,0,0,1-1.6.08,13.61,13.61,0,0,1-5.73-1.12c2.44,4.77,2.78,9.35.92,13a11,11,0,0,1-9,5.75Zm-11.06-23a.38.38,0,0,1,.19,0,.37.37,0,0,1,.2.42A8.7,8.7,0,0,0,120.82,165c3.4,1.48,7,3.4,7.67,6.4.36,1.57-.13,3.29-1.47,5.12a10,10,0,0,0,7.44-5.21c1.91-3.8,1.32-8.66-1.69-13.69a.4.4,0,0,1,.09-.51.42.42,0,0,1,.52,0c1.58,1.42,4.18,1.77,5.94,1.84a5.42,5.42,0,0,1-2-2c-1.26-2.16-1-5.26.74-9.24,3.35-8.13-.19-17.52-11.47-30.41a.42.42,0,0,1,0-.48.43.43,0,0,1,.44-.17,8.5,8.5,0,0,0,2.22.3,5.08,5.08,0,0,0,3.45-1.15c-1.44,0-4-.61-5.36-4.07-1.11-2.79-4.8-4.59-9.39-4.59a23,23,0,0,0-10.72,2.92c-.32.22-8.4,6-4.7,13.5s6.53,19,4.85,25c-1,3.53-.92,9.24,1.53,13.41a9.57,9.57,0,0,0,5.24,4.38c-2.81-5.59-.78-10.5.67-11.94A.36.36,0,0,1,115,154.33Z"/><g class="cls-4"><path class="cls-5" d="M141.52,159.24s-7.78-.79-3.11-11.37c3.27-7.94.46-17.13-11.53-30.84,5,1.25,6.71-1.71,6.71-1.71l-.3,0c-2.71.83-6.52.31-10.4.08,7.79,5,10.12,22.27,8,28.81,4.35-3.26,4.35-9,3.11-13.07,3.58,4.83,5,11.2,1.87,15.72s-3.74,3.27.62,9.81c-1.87-.47-4.67-5-8.57-3,8.25,5.92,7.48,13.87,3.44,19,3.26-4.67.46-10.58-7-11.68s-7.94-8.4-5.76-13.23c-5,2.49-8.73,7.31-7.94,13.7-3.12-5.92-.79-12.77,3-17.29s4.21-19.16,2.8-25.14c-.92-3.93-1-3.83-4.23-1.17s-7.85,2-5.59-3,8.83-2.46,12.38-6c1.72-1.77,4.22-1.2,6.3-.2-3.73-2.52-10.71-3-18.21,1,0,0-8.75,6.08-4.87,14s6.39,19.15,4.83,24.75S106.48,165,114.89,167c-3.27-5.61-1.41-10.75.15-12.31-.78,4.21.63,8.4,5.62,10.59s10.74,5.45,5.44,11.68c8.41-.78,13.24-9.18,7-19.61C135.92,159.86,141.52,159.24,141.52,159.24Z"/></g><path class="cls-6" d="M118.36,114.13s18.62,17.56,10,33.45c-2.3,2.93,5.65-1.05,6.9-8.36-1.46,9.62-3.14,10.87-7.11,12.12s-3.35,2.71,0,5a9.55,9.55,0,0,1,4.39,8c-1.88-4.17-5.22-6.05-9.62-6.89s-7.1-8.37,0-14.21a15.54,15.54,0,0,0-10,5s0-5,6.49-7.31S127.78,127.09,118.36,114.13Z"/><path class="cls-7" d="M46.63,288.94c3.84,2.92,16.09.66,28.74-10.93a14.47,14.47,0,0,0-.82-3.28c-.22-.14-22.22-.64-22.22-.64S53,278,50,280.24c-1.13.85-2.44,1.77-3.78,2.75C45.15,284.92,44.52,287.34,46.63,288.94Z"/><path class="cls-8" d="M51.09,290.41h0a7.85,7.85,0,0,1-4.67-1.21c-1.84-1.41-2-3.61-.51-6.37a.28.28,0,0,1,.09-.1l1.53-1.1c.79-.59,1.55-1.14,2.24-1.64,2.83-2.09,2.25-5.81,2.24-5.85a.29.29,0,0,1,.08-.26.32.32,0,0,1,.25-.12c22.09.5,22.29.62,22.39.69.4.28.94,3.37,1,3.5a.29.29,0,0,1-.1.3C65.8,287.21,56.52,290.41,51.09,290.41Zm-4.66-7.21c-1.31,2.46-1.18,4.3.39,5.48a7.05,7.05,0,0,0,4.27,1.09h0c5.27,0,14.33-3.12,23.93-11.87a17.67,17.67,0,0,0-.68-2.87c-1.43-.13-13.41-.43-21.65-.61a6.82,6.82,0,0,1-2.53,6.08c-.69.52-1.46,1.07-2.25,1.63Z"/><path class="cls-9" d="M46.63,288.94c-2.11-1.6-1.48-4-.44-5.95-5.49,4-11.77,8.9-10.62,12.23,1.43,4.16,13.53,7.46,25.14.07s14.92-9.17,15.06-12.54a22.77,22.77,0,0,0-.4-4.74C62.72,289.6,50.47,291.86,46.63,288.94Z"/><path class="cls-10" d="M46.32,300c-5.48,0-10.12-2-11.06-4.68C34,291.79,40.16,287,46,282.73a.33.33,0,0,1,.4,0,.34.34,0,0,1,.07.41c-1.35,2.48-1.23,4.33.35,5.53a7.05,7.05,0,0,0,4.27,1.09c5.3,0,14.42-3.15,24.07-12a.31.31,0,0,1,.32-.06.3.3,0,0,1,.21.24,24.92,24.92,0,0,1,.4,4.81c-.14,3.26-3,5.07-12.47,11.08l-2.73,1.73A27.21,27.21,0,0,1,46.32,300Zm-1-16c-5.64,4.17-10.45,8.33-9.49,11.13.71,2.05,4.61,4.24,10.45,4.24A26.48,26.48,0,0,0,60.54,295l2.74-1.73c9.25-5.86,12-7.63,12.16-10.55a22.37,22.37,0,0,0-.29-4.1c-9.63,8.68-18.72,11.77-24.06,11.77a7.85,7.85,0,0,1-4.67-1.21C44.85,288,44.5,286.21,45.36,284Z"/><g class="cls-4"><path class="cls-7" d="M74.55,274.73c-.22-.14-22.22-.64-22.22-.64S53,278,50,280.24c-.16.13-.33.25-.5.37a5.9,5.9,0,0,0,4.19-2.81c2.74,1.53,9.31,2.29,12.82,1.27,1.34-.25-8.36,7.91-14.1,8.61s-5.92-3.7-3.69-6.44l0,0L46.19,283c-1,1.93-1.67,4.35.44,5.95,3.84,2.92,16.09.66,28.74-10.93A14.47,14.47,0,0,0,74.55,274.73Z"/></g><g class="cls-11"><path class="cls-9" d="M75.37,278c-12.65,11.59-24.9,13.85-28.74,10.93-2.11-1.6-1.48-4-.44-5.95-1.47,1.07-3,2.2-4.41,3.34,1-.07,1.65.25,1.19,1.56-1.24,3.44,2.44,5.23,10,3.68s2.21,6.05-7.93,6.21c-9.16.15-10-4-7.86-7.13-1.39,1.67-2.12,3.24-1.65,4.57,1.43,4.16,13.53,7.46,25.14.07s14.92-9.17,15.06-12.54A22.77,22.77,0,0,0,75.37,278Z"/></g><g class="cls-12"><path class="cls-13" d="M43.77,296.34a10.43,10.43,0,0,1-3.91-.9c-1.3-.68-2.92-1.86-2.84-3.48,0-.13-.11,0-.13.05-.93,3.26,3.72,6.27,6.61,5.14C43.68,297.07,44.19,296.38,43.77,296.34Z"/><path class="cls-13" d="M46.16,296.17a.58.58,0,0,0-.38.11c-.22.11-.46.19-.69.29s-.42.63-.08.58.79,0,1.11-.39C46.22,296.64,46.43,296.2,46.16,296.17Z"/></g><path class="cls-7" d="M99.7,288c12.49,3.28,20.76-.05,14.74-8.31a11,11,0,0,1-6.07-5.24c-4.73.94-24.86-1.51-24.86-1.51a28,28,0,0,0-1.26,4.92C84.21,280.09,89.24,284.63,99.7,288Z"/><path class="cls-8" d="M108.31,289.56h0a35.3,35.3,0,0,1-8.69-1.26C89.17,285,84.1,280.46,82,278.07a.32.32,0,0,1-.08-.25,24.16,24.16,0,0,1,1.17-4.61c0-.17.09-.27.1-.33a.25.25,0,0,1,.1-.21.33.33,0,0,1,.26-.05c.14,0,14.25,1.72,21.5,1.72a18.05,18.05,0,0,0,3.26-.22.34.34,0,0,1,.35.17,10.58,10.58,0,0,0,5.9,5.09.26.26,0,0,1,.14.11c2.51,3.44,2.28,5.66,1.65,6.91C115.31,288.44,112.46,289.56,108.31,289.56ZM82.58,277.75c2.12,2.37,7.09,6.68,17.22,9.93a34.22,34.22,0,0,0,8.51,1.24c3.89,0,6.54-1,7.46-2.81.79-1.55.26-3.68-1.54-6.17a11.26,11.26,0,0,1-6-5.14,22.56,22.56,0,0,1-3.16.18c-6.73,0-19.32-1.45-21.31-1.7a.66.66,0,0,1,0,.15A23.85,23.85,0,0,0,82.58,277.75Z"/><path class="cls-9" d="M123.42,284.18c-3.47-2.5-6.46-3.42-9-4.5,6,8.26-2.25,11.59-14.74,8.31-10.46-3.36-15.49-7.9-17.45-10.14-.39,2.84-.16,6.27,2.48,8.42,5.09,4.15,21.06,10.45,30.53,9.67S130.3,289.13,123.42,284.18Z"/><path class="cls-10" d="M113.55,296.33h0c-9.71,0-24.31-5.95-29-9.81-2.26-1.84-3.13-4.78-2.6-8.7a.33.33,0,0,1,.24-.27.34.34,0,0,1,.33.09c2.05,2.34,7,6.75,17.31,10a34.21,34.21,0,0,0,8.5,1.24h0c3.89,0,6.54-1,7.46-2.81.8-1.57.25-3.73-1.59-6.24a.33.33,0,0,1,0-.39.32.32,0,0,1,.37-.1l1.58.65a32.46,32.46,0,0,1,7.47,3.89c2.55,1.83,3.63,4,3,6.11-.89,3.23-5.46,5.73-11.37,6.23C114.73,296.3,114.16,296.33,113.55,296.33ZM82.48,278.6c-.31,3.34.51,5.82,2.45,7.42,4.65,3.8,19,9.66,28.62,9.66h0q.89,0,1.68-.06c5.54-.46,10-2.83,10.8-5.77.51-1.85-.45-3.72-2.79-5.4a32.22,32.22,0,0,0-7.35-3.83l-.57-.23c1.85,2.93,1.6,4.88,1,6-1,2-3.88,3.16-8,3.16h0a35.3,35.3,0,0,1-8.68-1.26C89.89,285.18,84.83,281.07,82.48,278.6Z"/><g class="cls-4"><path class="cls-7" d="M114.44,279.68a18.28,18.28,0,0,1-2.21-1.12c5.65,8-4.19,10-14.33,5.95s-11.42-9-9.22-8.13c12,4.62,18.53,1.63,20.95,0a13,13,0,0,1-1.26-1.9c-4.73.94-24.86-1.51-24.86-1.51a28,28,0,0,0-1.26,4.92c2,2.24,7,6.78,17.45,10.14C112.19,291.27,120.46,287.94,114.44,279.68Z"/></g><g class="cls-11"><path class="cls-9" d="M110.17,290.79c7.45.57,11.89-2.16,9.46-6.61-.76-1.38-.21-1.83.91-1.8-2.28-1.23-4.3-1.92-6.1-2.7,6,8.26-2.25,11.59-14.74,8.31-10.46-3.36-15.49-7.9-17.45-10.14-.39,2.84-.16,6.27,2.48,8.42,5.09,4.15,21.06,10.45,30.53,9.67a18.73,18.73,0,0,0,7.43-2.06c-.43.14-.87.3-1.35.48C110.88,298.66,102.71,290.21,110.17,290.79Z"/></g><g class="cls-12"><path class="cls-13" d="M117.79,292.63a9.92,9.92,0,0,0,4.37-1.18c1.47-.87,3.27-2.42,3.18-4.53,0-.16.13,0,.16.08,1,4.22-4.18,8.16-7.4,6.68C117.88,293.58,117.31,292.69,117.79,292.63Z"/><path class="cls-13" d="M115.12,292.42c.18,0,.27,0,.42.13s.52.25.77.39.48.81.1.75-.9-.07-1.25-.53C115.05,293,114.81,292.45,115.12,292.42Z"/></g><path class="cls-7" d="M117.93,137.1l4,4.39s6.36-7.82,12.05-13.32c5.7-5.69,6.88-5.92,4.83-8.06s-3.22-3-1.92-6.12.72-5.25-.87-6.77c-1.18-1.15-.32-1.93.88-2.16s3.33.41,4.11,3.62a79.13,79.13,0,0,1,2.79-7.87c1.24-2.66,2.3-4.08,3.66-3.66s1.1,2.92.37,5.67-1.37,6.86-1.37,6.86,4.85-11.53,7.36-11,.88,4.39-.22,7.32-3.21,7.14-3.21,7.14,6.59-7.63,9.52-6.23-3.2,6.88-6.68,9.25c4.85-1.15,8.82-.13,8.92,1.33s-2.28,2.47-4.7,2.7a6.57,6.57,0,0,0-3.3.92s-3.34,7.45-9.11,5c0,0-8.42,14.7-13.5,21.38s-8,8.73-11.75,6.94-8.74-8.31-8.74-8.31Z"/><path class="cls-8" d="M122.21,155.41a6,6,0,0,1-2.58-.65c-3.75-1.8-8.65-8.14-8.85-8.4a.33.33,0,0,1,0-.39l6.91-9.06a.27.27,0,0,1,.24-.12.33.33,0,0,1,.25.1L121.9,141a170,170,0,0,1,11.84-13.06c1-1,1.92-1.9,2.69-2.63,3.45-3.33,3.53-3.51,2.13-5l-.45-.46c-1.76-1.83-2.81-2.93-1.54-6,1.11-2.72.86-4.82-.79-6.42-.7-.66-.73-1.22-.62-1.55a1.94,1.94,0,0,1,1.65-1.14,2.14,2.14,0,0,1,.52,0,4,4,0,0,1,3.65,2.89,66.74,66.74,0,0,1,2.51-6.92c1.09-2.35,2.11-3.92,3.5-3.92a2.81,2.81,0,0,1,.55.08c1.36.43,1.56,2.4.58,6.08-.35,1.31-.69,2.94-.93,4.28,1.56-3.32,4.44-8.83,6.43-8.83a.69.69,0,0,1,.25,0,1.79,1.79,0,0,1,1.3.91c.76,1.41-.22,4-1.08,6.24l-.22.58c-.61,1.66-1.56,3.75-2.27,5.23,1.9-1.92,5.2-4.92,7.47-4.92a2.45,2.45,0,0,1,1,.2A1.55,1.55,0,0,1,161,108c.17,2.17-3.89,5.73-6.38,7.64a16.63,16.63,0,0,1,2.69-.22c3,0,5.09.85,5.18,2.12.1,1.75-2.52,2.8-5,3a7.34,7.34,0,0,0-3.07.82c-.35.73-2.82,5.62-7.09,5.62a6,6,0,0,1-2.13-.4c-1.12,1.95-8.7,15-13.38,21.15C127.5,153.33,124.91,155.41,122.21,155.41Zm-10.78-9.25c.87,1.09,5.22,6.46,8.48,8a5.44,5.44,0,0,0,2.3.57c2.46,0,4.91-2,9-7.43,5-6.57,13.4-21.19,13.48-21.34a.32.32,0,0,1,.4-.13,5.64,5.64,0,0,0,2.15.45c4.1,0,6.51-5.26,6.54-5.33a.5.5,0,0,1,.1-.11,6.78,6.78,0,0,1,3.45-1c2.21-.2,4.51-1.12,4.43-2.35,0-.76-1.75-1.53-4.53-1.53a16.94,16.94,0,0,0-4,.49.36.36,0,0,1-.38-.18.34.34,0,0,1,.12-.41c3-2.07,7.45-6,7.3-7.91a.87.87,0,0,0-.58-.76,1.48,1.48,0,0,0-.68-.16c-3,0-8.4,6.23-8.46,6.3a.32.32,0,0,1-.42.05.31.31,0,0,1-.1-.4c0-.06,2.1-4.24,3.18-7.12l.23-.58c.76-2,1.73-4.57,1.11-5.71a1.23,1.23,0,0,0-.87-.6l-.12,0c-1.71,0-5.13,6.63-6.89,10.81a.32.32,0,0,1-.61-.18s.65-4.16,1.38-6.89c.85-3.17.79-5-.16-5.28s-2,.66-3.27,3.48a79.36,79.36,0,0,0-2.77,7.83.31.31,0,0,1-.32.23.35.35,0,0,1-.31-.25c-.6-2.51-2.12-3.4-3.34-3.4a2.29,2.29,0,0,0-.39,0c-.61.12-1.08.38-1.16.69s.19.66.45.91c1.87,1.8,2.17,4.13.93,7.12-1.11,2.69-.33,3.51,1.42,5.32l.45.47c1.89,2,1.18,2.66-2.16,5.89-.75.72-1.64,1.59-2.68,2.62a175.55,175.55,0,0,0-12,13.3.31.31,0,0,1-.24.12.37.37,0,0,1-.25-.1L118,137.61Z"/><path class="cls-8" d="M141,108.17c.13.42.2.85.29,1.28a11.39,11.39,0,0,1,.17,1.29,8.24,8.24,0,0,1,.09,1.31c0,.44,0,.88,0,1.32l-.22-.32,1.2.37c.21.07.41.12.6.2l.58.26.57.28c.19.09.36.21.55.32a9.21,9.21,0,0,1,1.05.71l.48.42a2.35,2.35,0,0,1,.44.45l.41.48a3.25,3.25,0,0,1,.37.52l.33.54c.09.19.16.4.24.6a2,2,0,0,1,.16.6l.09.62-.2-.59a2,2,0,0,0-.26-.55,4.4,4.4,0,0,0-.3-.52l-.37-.47a2.89,2.89,0,0,0-.38-.47l-.44-.41A1.85,1.85,0,0,0,146,116l-.47-.38a10.76,10.76,0,0,0-1-.63,5.39,5.39,0,0,0-.52-.3l-.55-.25-.55-.25a5.37,5.37,0,0,0-.56-.21l-1.15-.39h0a.3.3,0,0,1-.21-.3c0-.42,0-.84.07-1.26a9.28,9.28,0,0,0,0-1.29c0-.42,0-.85,0-1.29S141,108.61,141,108.17Z"/><path class="cls-8" d="M143.09,111.61a5.83,5.83,0,0,1,1.52.09,7.39,7.39,0,0,1,1.52.41,7.5,7.5,0,0,1,1.63.81,7.35,7.35,0,0,1,1.4,1.18,5.21,5.21,0,0,1,.53.65,4.07,4.07,0,0,1,.39.64,4.6,4.6,0,0,1,.43,1c.09.25.13.39.13.39l-.24-.34c-.07-.12-.16-.24-.25-.4s-.25-.3-.38-.47a4.59,4.59,0,0,0-.47-.55,4.82,4.82,0,0,0-.55-.56,10.53,10.53,0,0,0-1.34-1,12.39,12.39,0,0,0-1.5-.84c-.49-.22-1-.42-1.39-.57C143.67,111.75,143.09,111.61,143.09,111.61Z"/><path class="cls-8" d="M122.18,141.17a1,1,0,0,1-.05.18c0,.1-.09.26-.16.43a10.56,10.56,0,0,1-.61,1.21,11.67,11.67,0,0,1-.77,1.11,4.22,4.22,0,0,1-.45.47,5.74,5.74,0,0,1,.12-.63c0-.19.12-.41.2-.63a5.17,5.17,0,0,1,.34-.66c.14-.21.28-.42.42-.6a5.44,5.44,0,0,1,.45-.48A2.35,2.35,0,0,1,122.18,141.17Z"/><path class="cls-14" d="M155.91,119c-2.53.65-3.41-.44-2-1.57,2-1.4,5.23-1.24,7.31-.93-1.44-.78-4.5-1.1-8-.27,2.71-1.86,7-5.57,7.42-7.79-7,7.47-10.39,7.4-8.83,4.75,1.16-2,4.8-4.83,6.94-6.35-3.22.4-8.37,6.37-8.37,6.37s2.11-4.21,3.21-7.14c.76-2,1.8-4.55,1.49-6-1,2.61-2.72,6.84-3.77,8.87-1.59,3-4.55,4.68-2.85-.63a41.78,41.78,0,0,1,4.79-9.44c-2.62,1-6.8,10.91-6.8,10.91s.64-4.11,1.37-6.86c.6-2.27.9-4.38.2-5.28-1.09,6.72-3,13.84-4.88,12.12-1.19-1.13-.17-5.76.93-9.41-.09.18-.18.35-.28.56a79.13,79.13,0,0,0-2.79,7.87,5.23,5.23,0,0,0-1.54-2.8,6.87,6.87,0,0,1,1.6,5.22c-.49,3-.49,2.3,1.62,2.86s5.52,3.11,5.65,6.46c.38-2.11-1.92-5.9-4.66-7s3.79-2,6.4,3.41c2.36,4,.48,9-2.86,8.4-2.54-.5-4-1.81-4.35-3.49-1.43.07-6.89-3.53-5.15-6.83,1.63-3.08,1.67-6.6-2-9.27-.38.38-.41.92.29,1.6,1.59,1.52,2.15,3.65.87,6.77s-.11,4,1.92,6.12.87,2.37-4.83,8.06c-5.69,5.5-12.05,13.32-12.05,13.32l-4-4.39-6.9,9.06s5,6.52,8.74,8.31c3.5,1.69,6.31,0,10.86-5.8,0-.08-.12-.15-.17-.23-9.43,10.19-9.55-.24-5.33-6.45s13.28-17.74,15.88-16.38c2.9,1.52-2,10.55-2,10.55v.06c3.28-5.31,6-10.07,6-10.07,5.77,2.43,9.11-5,9.11-5a6.57,6.57,0,0,1,3.3-.92,7.67,7.67,0,0,0,4.06-1.41A21,21,0,0,0,155.91,119Z"/><path class="cls-15" d="M137.54,105.54c-.08,0-.19.18-.11.21,3.2,1.37,2.38,4.89,2.89,7.58.06.29.4-.13.43-.25C141.48,110.45,140.76,106,137.54,105.54Z"/><path class="cls-15" d="M147.69,118.13a6.89,6.89,0,0,0-4.9-3.76s-.08.07-.06.08a12.67,12.67,0,0,1,4.47,4.26C147.39,119,147.8,118.36,147.69,118.13Z"/><path class="cls-15" d="M146.23,97.83a11.91,11.91,0,0,0-3.75,9c0,.41.56-.23.58-.42.37-3.12,1-6.06,3.24-8.45C146.35,97.92,146.35,97.73,146.23,97.83Z"/><path class="cls-15" d="M153.11,99.33a15,15,0,0,0-4.57,9.56c0,.39.42,0,.47-.19a21.92,21.92,0,0,1,1.69-5.58c.71-1.33,1.71-2.43,2.53-3.66C153.31,99.33,153.23,99.22,153.11,99.33Z"/><path class="cls-15" d="M158.36,107.43c-2,1.21-4.44,2.88-5.44,5.1-.14.31.15.31.3.1a22.38,22.38,0,0,1,5.16-4.93C158.46,107.63,158.53,107.34,158.36,107.43Z"/><path class="cls-15" d="M160.46,116.88a6.7,6.7,0,0,0-5.83.18s-.07.14,0,.09a9.28,9.28,0,0,1,5.71-.07C160.42,117.11,160.53,116.9,160.46,116.88Z"/><path class="cls-15" d="M141.17,129.14c-2.18,6.28-7,12.28-11.36,17.24-.28.31-.24,1.15.25.67a64,64,0,0,0,6.44-8.3,30,30,0,0,0,4.87-9.63C141.42,128.92,141.21,129,141.17,129.14Z"/><path class="cls-7" d="M40.14,146.3s-9.46,13.56-15.6,24.28c-5.17,10.32-5.26,13.15-5.26,13.15s2,1.46,1.94,3.41,1.27,6.63,4.3,8.19c1.35,1-2.25,5.07-5.56-.1-1.95-3-4.48-3.21-6.53.39s-2.15,11.12-5.57,11.21c-2-.09-1.84-1.55-1.45-3a12.93,12.93,0,0,1-2.53-3.9c-1,0-2-2.43-2.54-3.79C.27,196.4.17,194,.46,190.07s1.37-4.49,4-7.12,4.68-2.54,6.63-8.28,13.33-26.51,20.75-34.56Z"/><path class="cls-8" d="M7.86,207.16h0a2.08,2.08,0,0,1-1.69-.74,3.05,3.05,0,0,1-.11-2.52,13.17,13.17,0,0,1-2.4-3.69c-1.1-.3-2.08-2.54-2.53-3.75a.84.84,0,0,1-.55-.28C0,195.55-.14,193.77.14,190c.27-3.58,1.2-4.49,3.25-6.49.26-.25.54-.52.84-.83A17.84,17.84,0,0,1,6.34,181c1.64-1.27,3.07-2.34,4.45-6.4,2-5.95,13.4-26.62,20.81-34.68a.31.31,0,0,1,.42,0l8.3,6.19a.32.32,0,0,1,.07.44c-.09.14-9.51,13.67-15.57,24.26-4.42,8.84-5.1,12.13-5.21,12.85a4.75,4.75,0,0,1,1.94,3.57c-.1,1.91,1.26,6.41,4.11,7.89a1.12,1.12,0,0,1,.4,1.34,2.73,2.73,0,0,1-2.56,1.72c-.95,0-2.39-.46-3.81-2.7-.91-1.41-1.91-2.14-2.91-2.14s-2.14.86-3.07,2.52A21.78,21.78,0,0,0,12,200.6c-.9,3.33-1.75,6.49-4.16,6.56ZM1.34,195.79a.33.33,0,0,1,.31.21c.75,2.08,1.69,3.59,2.23,3.59a.34.34,0,0,1,.3.2,12.13,12.13,0,0,0,2.46,3.78.39.39,0,0,1,.09.32,2.79,2.79,0,0,0-.05,2.16,1.56,1.56,0,0,0,1.2.46c1.93-.06,2.71-3,3.53-6.08a22.59,22.59,0,0,1,1.74-5c1.34-2.35,2.71-2.84,3.63-2.84,1.23,0,2.42.84,3.45,2.44,1.27,2,2.48,2.41,3.27,2.41a2.06,2.06,0,0,0,1.94-1.29c0-.19.09-.45-.11-.58-3.09-1.6-4.53-6.38-4.43-8.47.09-1.75-1.79-3.12-1.81-3.13a.31.31,0,0,1-.13-.27c0-.13.15-3,5.29-13.3,5.62-9.82,14.1-22.12,15.44-24.05l-7.81-5.83c-7.37,8.14-18.49,28.35-20.49,34.22C10,179,8.46,180.14,6.73,181.46a21.52,21.52,0,0,0-2,1.71l-.85.84c-2,2-2.8,2.75-3,6.08-.1,1.23-.38,5,.26,5.66.08.1.13.06.2.05Z"/><path class="cls-8" d="M6.43,204.1l.2-2.46c.06-.75.11-1.6.14-2.52,0-.46,0-.92,0-1.4s0-1-.07-1.47a6.48,6.48,0,0,1,0-.76c0-.26.09-.53.15-.79s.18-.49.28-.72a5,5,0,0,1,.34-.65,10.84,10.84,0,0,1,.78-1.11l.74-.95,1.13-1.39.44-.52-.34.6c-.21.37-.52.91-.94,1.53-.19.3-.42.64-.65,1s-.47.73-.67,1.14a6.45,6.45,0,0,0-.29.59c-.07.22-.15.44-.23.65l-.11.65a5.92,5.92,0,0,0,0,.73c0,.43,0,1,0,1.48s0,1-.08,1.44c-.08.93-.23,1.79-.36,2.52A22.67,22.67,0,0,1,6.43,204.1Z"/><path class="cls-8" d="M3.88,199.91a1.7,1.7,0,0,1-.15-.47c0-.15-.08-.35-.11-.56s0-.48,0-.75a3.72,3.72,0,0,1,0-.88c0-.31.08-.64.11-1a6.4,6.4,0,0,1,.19-1c.1-.34.16-.69.28-1l.38-1c.14-.33.31-.64.45-1a7.54,7.54,0,0,1,.47-.85,7.28,7.28,0,0,1,.45-.76A13.41,13.41,0,0,1,7,189.19s-.32.64-.76,1.62c-.22.47-.46,1.05-.73,1.66l-.38.94-.33,1c-.13.33-.21.69-.31,1a6.61,6.61,0,0,0-.22,1c-.08.32-.14.64-.21.92a7.07,7.07,0,0,0-.12.84,7.28,7.28,0,0,1-.09.73c0,.21,0,.39,0,.55A2.17,2.17,0,0,0,3.88,199.91Z"/><path class="cls-8" d="M1.34,196.12s0-.16,0-.41a9.56,9.56,0,0,1,.15-1c.09-.42.19-.93.32-1.44a4.4,4.4,0,0,1,.26-.8c.1-.26.19-.53.3-.79s.2-.53.33-.78.26-.51.39-.74a11.83,11.83,0,0,1,.74-1.28,13.49,13.49,0,0,1,.86-1.15s-.21.55-.53,1.33c-.15.39-.35.85-.56,1.33-.1.24-.2.49-.32.74s-.21.51-.32.77-.21.53-.32.79l-.16.38c0,.09-.08.25-.13.36-.17.5-.33,1-.5,1.36s-.31.72-.38.95A3,3,0,0,1,1.34,196.12Z"/><path class="cls-8" d="M17.79,182.52a1.33,1.33,0,0,1,.38.07,1.6,1.6,0,0,1,.71.38,1.7,1.7,0,0,1,.46.65,1.35,1.35,0,0,1,.1.39s-.16,0-.37-.14a4.44,4.44,0,0,1-.63-.41,2.83,2.83,0,0,1-.48-.59c-.06-.09-.09-.18-.13-.25Z"/><g class="cls-4"><path class="cls-7" d="M25.52,195.33c-3-1.56-4.39-6.24-4.3-8.19s-1.94-3.41-1.94-3.41.09-2.83,5.26-13.15c6.14-10.72,15.6-24.28,15.6-24.28l-8.3-6.19c-4.1,4.45-9.42,12.78-13.67,20.32h0s9.27-14.7,13.56-14.37c3.38.27-.3,7.84-7.75,20.45-5,9.75-4.7,14.61-7.41,14.79-2,.13,2.36,3.2.17,6.39s-5.44,5.77-6.23,10-1.53,8-3.06,8-.27-4.52-.33-7.63.26-4.92,3.85-9.3c-2.86,3-4.32,6.17-5.18,5.52s-1-1.53,1.53-5.72c-2.66,4.12-3.78,4.51-4.19,3.64s.2-2,1.27-4c-2.06,2.66-4.25,3.46-3.59,0a5.23,5.23,0,0,0,.09-.94,11.38,11.38,0,0,0-.49,2.72c-.29,3.89-.19,6.33.88,6.05.49,1.36,1.56,3.79,2.54,3.79a12.93,12.93,0,0,0,2.53,3.9c-.39,1.47-.59,2.93,1.45,3,3.42-.09,3.51-7.6,5.57-11.21s4.58-3.4,6.53-.39C23.27,200.4,26.87,196.31,25.52,195.33Z"/></g><path class="cls-15" d="M23.91,152c-6.28,7.29-10.86,17.31-13.29,26.54-.17.63.55.32.68-.07,3.12-9.17,7.23-18.25,12.92-26.14C24.44,152,24.2,151.63,23.91,152Z"/><path class="cls-15" d="M7,181.71C4,183.79,1,186.47.53,190.26c-.09.67.74,0,.82-.35.86-3.27,3.14-5.58,5.67-7.68C7.18,182.1,7.3,181.5,7,181.71Z"/><path class="cls-15" d="M6.77,193.18a4.54,4.54,0,0,0-.66-.12c-.18,0-.27-.33-.33-.47s-.28.18-.27.26,0,.59.19.73a.93.93,0,0,0,.88.16C6.76,193.69,7.05,193.24,6.77,193.18Z"/><path class="cls-15" d="M10.2,190.83c-2.76,3.64-3.31,7.92-3.32,12.41,0,.41.47,0,.51-.22a36.76,36.76,0,0,0,.55-5.33c0-2.43,1.19-4.68,2.38-6.74C10.39,190.83,10.31,190.7,10.2,190.83Z"/><path class="cls-7" d="M35,245.21a.32.32,0,0,1-.31-.25.3.3,0,0,1,.22-.38l.09,0a2.14,2.14,0,0,1,.27-.06.3.3,0,0,1,.37.2.29.29,0,0,1-.17.39,1.17,1.17,0,0,1-.41.13Z"/><path class="cls-16" d="M99.66,248.93c-5.46,2.27-17.14,2.12-21.24.75s-10.32-3.94-14.56-2.42-10.78,3-16.1.45-8.79-3.8-12.46-2.92c0,0-2.67,18.61-4.83,26.79,4.31,2.57,9.9,3,13.19,1.71s7.17,1.72,11,2.87,9.6,3,20.63-.14c9.9-2.73,11.47-2,17.06-.87s12.19,3.15,17.63-1c3.59-2.72,7.6-1.43,11.18-5.86-4.15-11.76-6.88-23.66-6.88-23.66C109.41,242.91,105.13,246.65,99.66,248.93Z"/><path class="cls-17" d="M64.19,278.09a29.81,29.81,0,0,1-9.3-1.53l-.29-.09A31,31,0,0,1,50.92,275a14.57,14.57,0,0,0-5.52-1.7,4.13,4.13,0,0,0-1.62.3,12.34,12.34,0,0,1-4.39.73,18.06,18.06,0,0,1-9.08-2.48.32.32,0,0,1-.15-.35c2.13-8.07,4.8-26.56,4.82-26.75a.32.32,0,0,1,.25-.26c3.73-.9,7.41.37,12.68,2.93,4,2,9.54,1.78,15.83-.47a9.52,9.52,0,0,1,3.08-.48c3.32,0,7.09,1.31,10.12,2.37l1.58.54a33.14,33.14,0,0,0,9,1c5,0,9.45-.65,12.06-1.73,1.42-.61,2.77-1.29,4.08-2,2.78-1.43,5.39-2.79,8.13-2.79a7.56,7.56,0,0,1,2.66.46.28.28,0,0,1,.22.22,242,242,0,0,0,6.87,23.63.34.34,0,0,1-.06.3c-2.17,2.68-4.48,3.35-6.73,4a12.2,12.2,0,0,0-4.5,2,12.92,12.92,0,0,1-8.14,2.57h0A39.07,39.07,0,0,1,94,275.84l-1.67-.38-1.19-.23a25.18,25.18,0,0,0-5.53-.78c-2.41,0-5.37.55-10.19,1.87A40.89,40.89,0,0,1,64.19,278.09ZM45.4,272.66a14.81,14.81,0,0,1,5.79,1.76,27.22,27.22,0,0,0,3.6,1.43l.29.09a29.38,29.38,0,0,0,9.11,1.5,40.36,40.36,0,0,0,11.06-1.73c4.88-1.35,7.88-1.9,10.36-1.9a25.57,25.57,0,0,1,5.67.79l1.18.25,1.68.36a38.67,38.67,0,0,0,7.94,1.12,12.32,12.32,0,0,0,7.75-2.43,13,13,0,0,1,4.71-2.06c2.21-.63,4.29-1.22,6.3-3.62a242.1,242.1,0,0,1-6.78-23.34,7.24,7.24,0,0,0-2.3-.37c-2.58,0-5.14,1.33-7.84,2.73-1.32.67-2.68,1.38-4.13,2-2.71,1.13-7.2,1.77-12.3,1.77a32.52,32.52,0,0,1-9.18-1l-1.59-.54c-3-1-6.7-2.32-9.9-2.32a8.68,8.68,0,0,0-2.86.44c-6.46,2.31-12.13,2.48-16.33.44-5-2.44-8.57-3.69-12-2.94-.31,2.1-2.75,18.63-4.75,26.36a17.65,17.65,0,0,0,8.55,2.25,11.72,11.72,0,0,0,4.15-.67A5,5,0,0,1,45.4,272.66Z"/><path class="cls-7" d="M73.63,129.76c10.74.89,17-5.33,20.87-11-8.6-.73-15-.83-15.43-1.67a5.58,5.58,0,0,1-.31-2.32l-13.93.12.34,3.49s-1,.58-5.68,1.07A16.4,16.4,0,0,0,73.63,129.76Z"/><path class="cls-8" d="M75.69,130.15h0c-.68,0-1.37,0-2.08-.08a16.87,16.87,0,0,1-14.42-10.45.32.32,0,0,1,.26-.45,25.42,25.42,0,0,0,5.38-1l-.33-3.27a.43.43,0,0,1,.08-.24.33.33,0,0,1,.25-.11l13.92-.12h0a.46.46,0,0,1,.24.1.38.38,0,0,1,.08.25,5,5,0,0,0,.28,2.15c.36.44,4.2.7,8.26,1,2,.14,4.4.3,6.92.51a.33.33,0,0,1,.26.18.33.33,0,0,1,0,.33C89.65,126.5,83.42,130.15,75.69,130.15ZM60,119.77a16.16,16.16,0,0,0,13.71,9.66c.68.06,1.37.09,2,.09,7.34,0,13.3-3.42,18.24-10.45-2.32-.19-4.45-.34-6.36-.47-6.25-.43-8.43-.61-8.78-1.35a5.21,5.21,0,0,1-.37-2.13l-13.24.12.31,3.15a.32.32,0,0,1-.17.32S64.3,119.27,60,119.77Z"/><path class="cls-14" d="M73.63,129.76c10.74.89,17-5.33,20.87-11-8.6-.73-15-.83-15.43-1.67a5.58,5.58,0,0,1-.31-2.32l-13.93.12.34,3.49s-1,.58-5.68,1.07A16.4,16.4,0,0,0,73.63,129.76Z"/><path class="cls-14" d="M63.32,118.93A21.43,21.43,0,0,0,71,122.58a24.93,24.93,0,0,0,12.22-.53,43.2,43.2,0,0,0,8.1-3.51c-7-.52-11.86-.7-12.22-1.42a5.58,5.58,0,0,1-.31-2.32l-13.93.12.34,3.49A7.32,7.32,0,0,1,63.32,118.93Z"/><path class="cls-18" d="M112,142.24s3.26,48.49,19.81,77.52c-4.3,6.88-18.71,9.46-24.72,9,0,0-7.53-78.05-5.59-90.52A59.07,59.07,0,0,0,112,142.24Z"/><path class="cls-19" d="M108.48,229.16c-.52,0-1,0-1.42,0a.31.31,0,0,1-.29-.29c-.08-.78-7.51-78.22-5.59-90.59a.35.35,0,0,1,.16-.24.41.41,0,0,1,.29,0,61.26,61.26,0,0,0,10.43,3.94.34.34,0,0,1,.26.3c0,.48,3.44,48.75,19.77,77.38a.35.35,0,0,1,0,.33C128.15,226.23,115.67,229.16,108.48,229.16Zm-1.09-.68c.33,0,.7,0,1.09,0,7,0,19-2.78,23-8.76C115.71,192,112,146.21,111.7,142.51a65.88,65.88,0,0,1-9.94-3.76C100.12,151.87,106.89,223.45,107.39,228.48Z"/><path class="cls-20" d="M127.91,215.49c-1-1.9-1.88-4-3.34-5.57a32.76,32.76,0,0,0-.47,3.3c0,.18-.38.82-.59.48-1.29-2.12-2.38-4.34-3.62-6.48-.64,4.22-.61,8.58-2.43,12.5-.07.13-.51.6-.58.22-.78-4.67-1.7-9.33-2.48-14s-1.15-9.09-1.94-13.62c-.76-4.3-1.62-8.53-2.76-12.75-1-3.8-2-7.65-1.71-11.61,0-.22.46-.86.61-.42,2.06,5.92,4.05,11.87,5.91,17.87-.72-12-6.92-23.31-5.94-35.51,0-.17.37-.81.58-.49a83.91,83.91,0,0,1,4.55,8.26c-1.28-9.26-1.7-15.44-1.7-15.44a59.07,59.07,0,0,1-10.5-4c-1.94,12.47,5.59,90.52,5.59,90.52,6,.42,20.42-2.16,24.72-9,0,0-.06-.11-.1-.16A12,12,0,0,1,127.91,215.49Z"/><path class="cls-7" d="M104.22,175.68c-.1-5.33-.32-8-.32-8s0-.13,0-.35c-5.21,1.65-23.09,5.68-59.21-.94a43.81,43.81,0,0,1-.12,6.59C80.9,179.24,98.86,176.8,104.22,175.68Z"/><path class="cls-8" d="M86.46,177.43h0c-12,0-26.11-1.39-42-4.1a.33.33,0,0,1-.27-.34,43.56,43.56,0,0,0,.12-6.54.29.29,0,0,1,.1-.27.29.29,0,0,1,.27-.08,202.42,202.42,0,0,0,36.06,3.67c12.55,0,19.8-1.7,23-2.72a.3.3,0,0,1,.29,0,.35.35,0,0,1,.14.25v.35s.22,2.7.33,8a.32.32,0,0,1-.26.32A89.53,89.53,0,0,1,86.46,177.43ZM44.9,172.74a253,253,0,0,0,41.56,4h0a91,91,0,0,0,17.44-1.37c-.1-4.68-.29-7.24-.32-7.63-3.42,1-10.66,2.62-22.8,2.62A203.8,203.8,0,0,1,45,166.81,45.43,45.43,0,0,1,44.9,172.74Z"/><path class="cls-14" d="M103.9,167.71s0-.13,0-.35c-5.21,1.65-23.09,5.68-59.21-.94a43.81,43.81,0,0,1-.12,6.59c36.35,6.23,54.31,3.79,59.67,2.67C104.12,170.35,103.9,167.71,103.9,167.71ZM101.18,173c-1.3,1.87-6.84,3.09-8.82,2.16-1.64-.75.45-2.51,1.73-3.29a17.3,17.3,0,0,1,4.85-1.75c.86-.34,2-.56,2.62.2S101.7,172.24,101.18,173Z"/><path class="cls-9" d="M103.88,167.36c-.12-2.69-.91-20.59-.71-25.94a66.47,66.47,0,0,0,6.72,6.62c3.37-5,9-12.3,9-12.3s-4.74-7.27-8.31-11.48-7.36-4.73-16-5.46h0c-3.83,5.64-10.13,11.86-20.87,11a16.4,16.4,0,0,1-14.14-10.28c-1.37.15-3,.3-5.08.41-9.13.54-13.22,3.12-17.63,8.39s-7.85,8.82-7.85,8.82,4.52,8.81,12.15,11.06a14.8,14.8,0,0,0,4-5.16,150.51,150.51,0,0,0-.39,23.37v0C80.79,173,98.67,169,103.88,167.36Z"/><path class="cls-10" d="M80.78,170.41h0a203.47,203.47,0,0,1-36.17-3.68.3.3,0,0,1-.26-.3,149.11,149.11,0,0,1,.25-21.87,13.6,13.6,0,0,1-3.32,3.87.34.34,0,0,1-.29,0c-7.68-2.28-12.16-10.87-12.34-11.23a.33.33,0,0,1,.05-.37s3.49-3.61,7.84-8.8,8.35-7.94,17.85-8.51c1.88-.1,3.53-.24,5.06-.4a.33.33,0,0,1,.33.19,16.2,16.2,0,0,0,13.89,10.07c8.41.71,15.14-2.83,20.57-10.81a.31.31,0,0,1,.3-.15c8.6.74,12.54,1.24,16.24,5.59,3.54,4.18,8.28,11.42,8.33,11.5a.32.32,0,0,1,0,.37c0,.08-5.61,7.31-8.92,12.29a.29.29,0,0,1-.22.13.32.32,0,0,1-.24,0,56.61,56.61,0,0,1-6.24-6.08c-.11,6.2.65,23.12.74,25.12a.31.31,0,0,1-.23.31C100.74,168.7,93.41,170.41,80.78,170.41ZM45,166.14a202,202,0,0,0,35.81,3.63h0c12.25,0,19.45-1.62,22.78-2.64-.19-3.93-.91-20.54-.72-25.73a.34.34,0,0,1,.21-.29.33.33,0,0,1,.35.09,74.87,74.87,0,0,0,6.42,6.38c3.05-4.54,7.76-10.73,8.63-11.86-.78-1.18-5-7.47-8.17-11.25-3.5-4.12-7.33-4.63-15.6-5.34-5.56,8.08-12.46,11.66-21.07,10.94a16.81,16.81,0,0,1-14.33-10.24c-1.47.15-3.06.28-4.85.39-9.32.55-13.17,3.22-17.41,8.26-3.82,4.58-7,7.89-7.69,8.67.72,1.3,5,8.59,11.69,10.66a14.78,14.78,0,0,0,3.74-4.93.32.32,0,0,1,.39-.18.33.33,0,0,1,.23.34A151.34,151.34,0,0,0,45,166.14Z"/><path class="cls-18" d="M104.29,181.1c0-2,0-3.84-.07-5.42-5.36,1.12-23.32,3.56-59.67-2.67-.15,1.83-.37,3.78-.66,5.83C79.9,185.1,97.76,182.64,104.29,181.1Z"/><path class="cls-19" d="M84.78,183.22h0a243.86,243.86,0,0,1-41-4.06.34.34,0,0,1-.26-.37c.31-2.16.52-4,.66-5.8a.37.37,0,0,1,.12-.24.31.31,0,0,1,.26-.05c15.81,2.71,29.89,4.09,41.85,4.09a91.06,91.06,0,0,0,17.7-1.41.29.29,0,0,1,.27.05.37.37,0,0,1,.12.25c0,1.57.06,3.38.06,5.42a.34.34,0,0,1-.25.32C100.89,182.23,94.68,183.22,84.78,183.22Zm-40.52-4.64c15.34,2.64,29,4,40.52,4A86.85,86.85,0,0,0,104,180.84c0-1.76,0-3.35,0-4.76a92.14,92.14,0,0,1-17.45,1.35,251.4,251.4,0,0,1-41.61-4.05C44.71,175,44.52,176.66,44.26,178.58Z"/><path class="cls-20" d="M90.78,179c4.17-1.76,9.31-.13,13.48-1.67,0-.55,0-1.1,0-1.61-5.36,1.12-23.32,3.56-59.67-2.67-.15,1.83-.37,3.78-.66,5.83,19.81,3.44,34.12,4.24,44.08,4A5.12,5.12,0,0,1,90.78,179Z"/><path class="cls-18" d="M104.29,182.14v-1c-6.53,1.54-24.39,4-60.4-2.26-1.62,11.63-5.14,26.51-7,38.84-2.57,17.48-2.61,21.3-4.13,26.57a2.73,2.73,0,0,0,2.17.64l.34-.1c3.67-.88,7.16.34,12.46,2.92s11.84,1.07,16.1-.45,10.47,1.06,14.56,2.42,15.78,1.52,21.24-.75,9.75-6,14.66-4.3l.12,0a14.18,14.18,0,0,0,2,.25c-3.43-15.91-4.23-23.44-6.16-34S105.79,186,104.29,182.14Z"/><path class="cls-19" d="M87.49,251a32.52,32.52,0,0,1-9.18-1l-1.59-.54c-3-1-6.7-2.32-9.9-2.32a8.68,8.68,0,0,0-2.86.44c-6.46,2.31-12.13,2.48-16.33.44-5.14-2.5-8.71-3.75-12.25-2.89a1.55,1.55,0,0,0-.23.06l-.1,0a3.15,3.15,0,0,1-2.44-.69.3.3,0,0,1-.12-.34c1-3.32,1.32-6.07,2.11-12.1.45-3.39,1.07-8,2-14.43.89-6,2.2-12.74,3.47-19.21,1.31-6.73,2.67-13.69,3.5-19.64a.28.28,0,0,1,.13-.2.33.33,0,0,1,.25-.07c15.47,2.69,29.21,4.06,40.83,4.06,9.83,0,16-1,19.43-1.79a.31.31,0,0,1,.28.06.29.29,0,0,1,.12.25v1c1.41,3.7,3.74,16.37,5.6,26.55l.42,2.27c.64,3.54,1.17,6.73,1.71,10.08,1.07,6.55,2.17,13.34,4.45,23.87a.3.3,0,0,1-.08.27.28.28,0,0,1-.26.11,13.5,13.5,0,0,1-2.11-.25l-.07,0a7.22,7.22,0,0,0-2.51-.44c-2.58,0-5.14,1.33-7.84,2.73-1.32.67-2.68,1.38-4.13,2C97.08,250.36,92.59,251,87.49,251Zm-20.67-4.53c3.32,0,7.09,1.31,10.12,2.37l1.58.54a33.14,33.14,0,0,0,9,1c5,0,9.45-.65,12.06-1.73,1.42-.61,2.77-1.29,4.08-2,2.78-1.43,5.39-2.79,8.13-2.79a7.56,7.56,0,0,1,2.66.46l0,.34.09-.32a6.42,6.42,0,0,0,1.54.2c-2.22-10.29-3.31-17-4.36-23.47-.55-3.35-1.07-6.52-1.72-10.07l-.4-2.27c-1.89-10.2-4.21-22.92-5.6-26.49a.35.35,0,0,1,0-.11v-.63a88.24,88.24,0,0,1-19.18,1.71,243.3,243.3,0,0,1-40.62-4c-.83,5.89-2.16,12.72-3.46,19.33s-2.57,13.17-3.46,19.18c-.93,6.39-1.55,11-2,14.43-.77,5.92-1.15,8.69-2.07,12a2.53,2.53,0,0,0,1.41.49,1.47,1.47,0,0,0,.32,0l.06,0a2.14,2.14,0,0,1,.27-.06c3.73-.9,7.41.37,12.68,2.93,4,2,9.54,1.78,15.83-.47A9.52,9.52,0,0,1,66.82,246.47Z"/><g class="cls-11"><path class="cls-9" d="M109.21,141.38c-1.44-2-1.29-3.72-.14-5.89,1.24-2.35,2.32-5,3.79-7.16a6.79,6.79,0,0,1,.41-.59c-.93-1.23-1.87-2.44-2.74-3.48-3.58-4.2-7.36-4.73-16-5.46h0c-3.83,5.64-10.13,11.86-20.87,11a16.4,16.4,0,0,1-14.14-10.28c-1,.12-2.2.23-3.58.32a11.73,11.73,0,0,1,3.38,5.08c1.5,5.06,2.63,10.7,9.39,7.69S63.79,141,60.41,144s-9.19,8.63-12.57,4.31,1.69-20.27,1.69-20.27-.75.19-2.44,4.13a72.51,72.51,0,0,1-6,11.27c-5.65-.15-9-5.41-10.42-8.22-1.09,1.19-1.74,1.85-1.74,1.85s4.52,8.81,12.15,11.06a14.8,14.8,0,0,0,4-5.16,150.51,150.51,0,0,0-.39,23.37v0c36.12,6.62,54,2.59,59.21.94-.12-2.69-.91-20.59-.71-25.94a66.47,66.47,0,0,0,6.72,6.62c.72-1.08,1.54-2.24,2.38-3.42A17.25,17.25,0,0,1,109.21,141.38Z"/></g><g class="cls-11"><path class="cls-21" d="M104.29,181.1c-6.53,1.54-24.39,4-60.4-2.26-1.62,11.63-5.14,26.51-7,38.84-.67,4.61-1.18,8.25-1.58,11.24.67-2.54,2.53-8.34,6-10.09,7.69-3.84,9-3.16,9,.46,2.71-6.33,7.22-6.56,14.67-13.33s9.26-2.49,11.08,8.12c0-14.67,1.13-18.29,7-24.38s7.68.22,9.48,8.58c1.13-9,3.62-12.2,6.32-12.65s6,2,8.71,11.19c-1.27-6.58-2.51-12.43-3.39-14.68Z"/></g><path class="cls-18" d="M39.26,165.76s1.08-3,6.12-7.21,19.87-15.52,29-23,17.66-14,20.94-17,6.44-2.21,6.06.38,0,1.58,2,.63,2.48-1,3.86,1.08,5,2.57,3.29,6.76S97.19,172.26,72.47,197c-18.06,16.56-28.59,19.14-33.32,19.58s-6.23-16.56,1.5-37c-2.79-3.64-2.48-4.16-1.35-5.21s2.93-2.47,2.93-2.47S38.68,167.61,39.26,165.76Z"/><path class="cls-19" d="M39,216.88a2.65,2.65,0,0,1-2.18-1.35c-3.13-4.53-2.67-19.54,3.5-35.92-2.6-3.41-2.59-4.21-1.21-5.49.87-.81,2.16-1.86,2.7-2.3-.82-1-3.36-4.41-2.83-6.15,0-.15,1.18-3.14,6.22-7.37,2.38-2,6.87-5.5,12-9.56,5.68-4.45,12.12-9.49,16.94-13.43,4-3.33,7.93-6.43,11.38-9.17,4.31-3.45,7.73-6.16,9.55-7.81a6.71,6.71,0,0,1,4.26-2,2.37,2.37,0,0,1,1.87.76,2.29,2.29,0,0,1,.47,1.9,8,8,0,0,0-.13,1.22A4.26,4.26,0,0,0,102,120c.33-.19.73-.43,1.25-.68a5.4,5.4,0,0,1,2-.66c.85,0,1.43.63,2.25,1.86a7.19,7.19,0,0,0,1.56,1.49c1.43,1.12,3.05,2.4,1.76,5.57-.21.48-.56,1.51-1,2.92-3.78,11.1-15.25,44.89-37.1,66.74C59.54,209.27,48,216.07,39.17,216.87ZM99.35,117a6.2,6.2,0,0,0-3.83,1.83c-1.84,1.66-5.25,4.39-9.59,7.83-3.42,2.73-7.32,5.84-11.37,9.15-4.81,4-11.26,9-16.94,13.45-5.19,4.06-9.66,7.57-12,9.56-4.89,4.1-6,7-6,7.07-.42,1.36,2,4.64,2.92,5.79a.31.31,0,0,1,.07.24.27.27,0,0,1-.13.22s-1.8,1.43-2.9,2.47-1.33,1.23,1.39,4.78a.31.31,0,0,1,0,.31c-6.79,17.94-6.19,31.78-3.62,35.49a2,2,0,0,0,1.79,1.05c8.62-.77,20.08-7.52,33.13-19.48C94,175,105.43,141.34,109.18,130.26c.49-1.43.84-2.45,1-3,1.11-2.71-.13-3.68-1.56-4.82a7,7,0,0,1-1.7-1.65c-.79-1.18-1.2-1.56-1.71-1.56a5.09,5.09,0,0,0-1.74.61c-.48.22-.87.46-1.19.64a1.94,1.94,0,0,1-.9.39.48.48,0,0,1-.36-.15c-.22-.25-.19-.68,0-1.85a1.76,1.76,0,0,0-.31-1.4A1.79,1.79,0,0,0,99.35,117Z"/><path class="cls-22" d="M48.28,129.69s0,.24-.12.64-.18,1-.32,1.69-.29,1.5-.49,2.37-.39,1.79-.59,2.71c-.1.45-.21.91-.32,1.36s-.24.89-.32,1.33c-.18.87-.38,1.66-.53,2.36-.34,1.37-.61,2.28-.61,2.28s.06-.94.25-2.35c.1-.71.2-1.52.34-2.41s.37-1.79.56-2.71.43-1.85.68-2.71.48-1.64.69-2.32C47.92,130.57,48.28,129.69,48.28,129.69Z"/><path class="cls-19" d="M101.15,120.16s-1.06,1.66-2.81,4c-.89,1.17-1.92,2.56-3.09,4s-2.44,2.93-3.75,4.4c-.65.73-1.34,1.44-2,2.14s-1.36,1.38-2,2c-1.32,1.3-2.64,2.41-3.77,3.35-.57.48-1.14.86-1.62,1.22s-.93.66-1.28.88c-.73.45-1.14.72-1.14.72l1.07-.82c.34-.26.75-.56,1.2-1s1-.81,1.52-1.3,1.14-1,1.75-1.61,1.22-1.22,1.87-1.86,1.32-1.33,2-2,1.32-1.42,2-2.16c1.32-1.45,2.6-2.92,3.79-4.33s2.31-2.71,3.23-3.84Z"/><path class="cls-19" d="M103.72,123.94s-1.46,4.59-4.06,11.33c-.67,1.67-1.37,3.5-2.18,5.4s-1.63,3.92-2.58,6c-.46,1-.93,2.07-1.41,3.13L92,153c-1,2.15-2.12,4.27-3.2,6.43s-2.3,4.23-3.44,6.31-2.4,4.05-3.57,6-2.43,3.72-3.59,5.42-2.38,3.25-3.46,4.71-2.21,2.66-3.15,3.79-1.87,2-2.59,2.77l-2.31,2.36,2.23-2.43c.69-.79,1.61-1.68,2.49-2.86s1.92-2.45,3-3.86,2.17-3.06,3.35-4.74,2.31-3.57,3.52-5.46,2.34-3.93,3.52-6,2.3-4.17,3.39-6.31,2.22-4.25,3.22-6.39L93,149.54l1.43-3.13c.94-2,1.81-4,2.65-5.92s1.57-3.7,2.28-5.36,1.29-3.2,1.85-4.56l1.38-3.53C103.32,125.08,103.72,123.94,103.72,123.94Z"/><path class="cls-19" d="M41.71,188.08h.19l.49-.07c.2,0,.45-.13.74-.2a5.69,5.69,0,0,0,.95-.33,7.8,7.8,0,0,0,1.08-.45l1.18-.57c.42-.18.82-.46,1.24-.68l1.28-.73c.83-.5,1.64-1,2.43-1.53a11,11,0,0,0,1.1-.73l1-.67c1.22-.83,2.07-1.35,2.07-1.35s-.72.68-1.85,1.64l-.93.76a9.06,9.06,0,0,1-1.06.83c-.77.51-1.59,1.09-2.43,1.61-.43.25-.87.48-1.3.72a14,14,0,0,1-1.29.64c-.42.19-.85.35-1.25.5a11.63,11.63,0,0,1-1.15.37,6.29,6.29,0,0,1-1,.21c-.3,0-.56.07-.78.08l-.51,0Z"/><path class="cls-19" d="M42.35,171.61a1.28,1.28,0,0,1,.16-.15c.11-.08.23-.23.42-.37s.36-.29.57-.48.46-.35.69-.53.25-.15.35-.24a3.85,3.85,0,0,1,.34-.26,6.52,6.52,0,0,1,.64-.43,4.47,4.47,0,0,1,.68-.35,6,6,0,0,1-.44.63,6.62,6.62,0,0,1-1.19,1.17c-.26.17-.5.34-.75.49a3.78,3.78,0,0,1-.73.32A3,3,0,0,1,42.35,171.61Z"/><path class="cls-17" d="M50.56,240s0,.47,0,1.29,0,2,0,3.41,0,3.05,0,4.82-.08,3.64-.15,5.52-.18,3.75-.31,5.51-.28,3.4-.43,4.79c-.07.71-.13,1.36-.23,1.92s-.18,1-.26,1.46c-.15.81-.23,1.28-.23,1.28s0-.48.1-1.3c0-.4.1-.9.15-1.46s.06-1.23.11-1.93.09-1.45.13-2.26.07-1.66.1-2.54c.1-1.74.17-3.63.22-5.5s.18-3.76.24-5.51.17-3.41.24-4.82C50.43,241.83,50.56,240,50.56,240Z"/><path class="cls-17" d="M78.74,234.78s.15,1.55.3,3.87c.06,1.17.16,2.53.22,4s.11,3,.17,4.55.06,3.11.09,4.56,0,2.81,0,4c0,2.33-.06,3.88-.06,3.88s-.15-1.54-.29-3.87c-.07-1.16-.16-2.51-.22-4s-.12-3-.17-4.56-.06-3.1-.09-4.55,0-2.81,0-4C78.69,236.33,78.74,234.78,78.74,234.78Z"/><path class="cls-17" d="M96.93,225.63s.62,2.67,1.48,6.7l1.43,6.88c.5,2.53,1,5.22,1.57,7.92s1,5.39,1.48,7.92.87,4.89,1.24,6.93c.7,4.06,1.12,6.77,1.12,6.77s-.63-2.68-1.48-6.7c-.41-2-.93-4.37-1.43-6.9s-1-5.2-1.56-7.9l-1.5-7.93c-.45-2.53-.86-4.89-1.23-6.92C97.36,228.35,96.93,225.63,96.93,225.63Z"/><g class="cls-11"><path class="cls-21" d="M107.24,120.43c-1.38-2.08-1.84-2-3.86-1.07s-2.39,2-2-.63-2.78-3.35-6.06-.37-11.83,9.48-20.94,17c-3.69,3-8.29,6.66-12.81,10.2l.16.11S85.82,126.69,92,123s-8.31,13.46-17.28,23.11c-6.32,6.14,13.12-7.82,19.11-15s-4.71,36.62-35.66,68.16c9.46-5.45,31.53-37.55,35-39S71.91,204.21,42.37,212c-6.87-.3-2.29-5.46,3.16-10.32s-5.45-2.88-5.16-7.75,11.18-4.3,18.91-16.63c-11.75,8-16.91,8.89-15.48,3.45s8-8.61,2-6.89,4-4,11.74-12c0,0-9.17,5.75-13.19,5.75s-3.14-5.17,2.3-10a5.13,5.13,0,0,0,.84-.91l-2.13,1.74c-5,4.22-6.12,7.21-6.12,7.21-.58,1.85,3,6.12,3,6.12s-1.81,1.43-2.93,2.48-1.44,1.55,1.35,5.21c-7.73,20.43-6.23,37.41-1.5,37s15.26-3,33.32-19.58c24.72-24.72,36.34-65.35,38.06-69.54S108.63,122.53,107.24,120.43Z"/></g><path class="cls-23" d="M112.06,269.1c-3.83-.68-4.5.45-4.5.45-.91-2.93-2.71-13.29-9-35.59,0,3.15,5.4,32.89,4.5,36s-9.69,2.48-14.86.9-6.54,0-6.54,0-2.19-11.39-2.9-32c0,5.27-.88,30.41-3,32.9-2.26,2.71-10.37,4.51-17.13,1.58s-7.66-1.8-6.75-4.28c1.35-4.28-.68-14.19,0-41.45-.91,4.29-2.26,21.17-4.73,35.59-1.32,7.64-6.43,10-10.94,10.47a14.21,14.21,0,0,0,7.41-.42c3.3-1.28,7.17,1.72,11,2.87s9.6,3,20.63-.14c9.9-2.73,11.47-2,17.06-.87s12.19,3.15,17.63-1c3.59-2.72,7.6-1.43,11.18-5.86-.22-.63-.44-1.27-.65-1.9C117.91,269.9,115.31,269.67,112.06,269.1Z"/><path class="cls-24" d="M40.61,225.61s-2.66,32.17-6.11,41c8.5-1.33,12.23-10.11,13.55-23.41s1.33-15.15,4.79-21.27c-.27,10.89,1.6,17.81,2.39,29.77s-1.33,17.56-1.33,17.56,4,4.25,12.77,2.39,7.71-6.64,8.51-20.21,1.87-30.31,1.87-30.31,4.25,16.75,4.77,25.53S84,266,84,266s.53-.28,5.84.79,11.71,3.19,11.17-4-9.31-37.5-6.38-55c6.38,14.63,9.58,42.28,12.23,51.33a22.34,22.34,0,0,0,1.86,6.38,18,18,0,0,1,7.18-.8c-5.58-18.62-8.51-43.09-11.16-59s-8.25-18.61-11.44-2.92c-5.05-10.37-10.91-11.7-16.21,14.09-4.8-9.3-3.47-11.43-11.18-5.84s-13.57,6.9-14.62,10.63C48.85,218.43,42.47,218.69,40.61,225.61Z"/><path class="cls-25" d="M81.37,131.49S63.53,146.15,53.2,154c-8.08,7.14-3,8.27,0,7.52s14.09-8.64,14.09-8.64-9,11.08-13,14.65-1.88,3.75,3,.18-4.13,4.7-5.45,8.65,9.4-1.51,17.85-10.34-8.45,15.41-18,22.17-.75,4.89,3.38,2.25,1.88,4-1.88,8.46,12.59-7.88,24.61-29.12,17.28-37.56,5.26-23.66-9.21,7.32-6.57,3-1.89-2.06-4.89-.18.93-1.7,7.32-9.2S88.89,125.48,81.37,131.49Z"/><path class="cls-24" d="M55,202.63a114,114,0,0,0,22.08-21.84c10.7-13.89,6.83-2-10.7,13.87S51.41,205.82,55,202.63Z"/><path class="cls-15" d="M4.42,191.88a3.54,3.54,0,0,1-.92-1c-.11-.17-.34.22-.29.35.19.5.38,1,1,1.05C4.35,192.32,4.56,192,4.42,191.88Z"/><path class="cls-24" d="M49.61,120.7c-7.85.46-11.87,7.66-16.38,13-.18.24-.22.88.21.53,2.5-2.09,4-4.48,6-7.06,2.5-3.27,6.21-4.54,9.93-5.77C49.54,121.35,50,120.68,49.61,120.7Z"/><path class="cls-24" d="M49.5,148.39c-2.63-5.72-1.61-11.71-.17-17.66.06-.3-.25-.08-.3.06-1.76,5.41-4,13.37-.19,18.38C49.13,149.54,49.65,148.69,49.5,148.39Z"/><path class="cls-26" d="M102.43,106s2.27,3.86,3.83,4.37,7.67-1.14,9.75-2,2.59-1.65,2.26-3.52-1-4.88-1-4.88Z"/><path class="cls-27" d="M107.08,110.88h0a2.94,2.94,0,0,1-.94-.12c-1.65-.55-3.81-4.13-4-4.54a.39.39,0,0,1,0-.32.39.39,0,0,1,.23-.24l14.81-6a.4.4,0,0,1,.32,0,.41.41,0,0,1,.21.27s.73,3,1,4.89c.34,2.06-.29,3.07-2.52,4C114.34,109.5,109.42,110.88,107.08,110.88ZM103,106.21c.75,1.22,2.33,3.46,3.37,3.8a2,2,0,0,0,.69.09,34.75,34.75,0,0,0,8.78-2c1.9-.76,2.31-1.4,2-3.09-.23-1.41-.72-3.49-.93-4.39Z"/><path class="cls-2" d="M115.83,11.46c-17.77-13.93-45-12.81-50.78-7-5-.62-29.61,1.45-40,23.39S29.23,68,29.23,68s1.82-5.34,3.19-11.44c7-4.67,18.55-17.29,20.19-26.25,5.08,20,48.66,25.68,57.62,22.77,8.5,14.33,20.59,34.85-6.27,53.36,21.8-4.18,33.43-17.91,34.63-39.7S133.82,25.56,115.83,11.46Z"/><path class="cls-3" d="M104,106.83a.37.37,0,0,1-.35-.22.37.37,0,0,1,.13-.45c26.49-18.26,15-38.08,6.31-52.61a25.38,25.38,0,0,1-6.54.64c-15.34,0-45.3-6.6-50.85-22.39-2.46,8.84-13.07,20.41-19.91,25a115.87,115.87,0,0,1-3.18,11.34.35.35,0,0,1-.28.25.37.37,0,0,1-.36-.13c-.15-.19-14.52-18.66-4.18-40.57C35.8,4.25,62.15,4,63.26,4c.63,0,1.19,0,1.65.06,2.66-2.49,9-4,16.61-4,12.72,0,25.63,4.18,34.54,11.16C132.8,24.3,140.29,42.48,139,66.78c-1.2,22-13.28,35.9-34.93,40.05Zm6.27-54.11a.37.37,0,0,1,.32.19c8.15,13.72,20.39,34.32-4.91,52.83,20.45-4.53,31.4-17.63,32.57-39,1.32-24-6.08-42-22.62-55-8.78-6.88-21.51-11-34.07-11-7.44,0-13.81,1.54-16.2,3.94a.42.42,0,0,1-.32.11,14.33,14.33,0,0,0-1.74-.08c-1.1,0-27,.25-37.84,23.26C16.3,47.33,26.8,63.94,29.1,67.2c.53-1.64,1.89-6,2.95-10.71a.37.37,0,0,1,.16-.24c7.08-4.69,18.42-17.14,20-26A.38.38,0,0,1,52.6,30a.4.4,0,0,1,.37.29c4.17,16.38,35,23.19,50.54,23.19a23.16,23.16,0,0,0,6.59-.7Z"/><path class="cls-28" d="M73.65,116.43h0a59.3,59.3,0,0,1-21.17-3.94c-19.74-7.56-28.43-21.7-26.81-31.76,1.48-9.21,3.15-12.73,3.2-12.87s1.84-5.35,3.18-11.37a.37.37,0,0,1,.16-.24c7.08-4.69,18.42-17.14,20-26A.38.38,0,0,1,52.6,30a.4.4,0,0,1,.37.29c4.17,16.38,35,23.19,50.54,23.19h0a23.16,23.16,0,0,0,6.59-.7.38.38,0,0,1,.45.17c8.31,14,20.85,35.11-6.38,53.86C96.26,112.9,85.13,116.43,73.65,116.43ZM32.75,56.8a115.87,115.87,0,0,1-3.18,11.34c0,.08-1.69,3.64-3.16,12.71-1.57,9.76,7,23.53,26.33,30.93a58.32,58.32,0,0,0,20.91,3.91h0c11.32,0,22.27-3.48,30.08-9.52,26.5-18.27,15-38.09,6.32-52.62a25.38,25.38,0,0,1-6.54.64c-15.34,0-45.3-6.6-50.85-22.39C50.2,40.64,39.59,52.21,32.75,56.8Z"/><path class="cls-29" d="M110.23,53.1c-9,2.91-52.54-2.77-57.62-22.77-1.64,9-13.15,21.58-20.19,26.25C31.05,62.68,29.23,68,29.23,68s-1.7,3.52-3.18,12.77,6.26,23.59,26.56,31.35C72.1,119.58,92,115.71,104,106.46,130.82,88,118.73,67.43,110.23,53.1Z"/><g class="cls-30"><path class="cls-31" d="M34.93,88.05s5.24-.3,6.94,4.57a13.09,13.09,0,0,0-.06-1.77s10.52,2.58,10.11-12.8a9.6,9.6,0,0,1,.81,2.63s1.43-8.3-2.5-14.87c-4.81-8.05-10-2.39-12.1,1C41,65.5,45.3,65.5,47.25,68.79c-3.74-1.79-8.67,0-10.76,5.23a15.67,15.67,0,0,0,.14,12.09A3.2,3.2,0,0,0,34.93,88.05Z"/></g><g class="cls-30"><path class="cls-31" d="M81.11,96.33s3.6-5.26,10.08-4.37a6.55,6.55,0,0,0-3.58-1.67s4.82-3.59,2.24-13.09-14-8.19-17.13-1.57.45,18.69,8,18.24A4.64,4.64,0,0,0,81.11,96.33Z"/></g><g class="cls-30"><path class="cls-31" d="M71.57,71.48s10-13.43,21.94,2.54C87.83,70.45,82,66.25,71.57,71.48Z"/></g><g class="cls-4"><path class="cls-2" d="M115.83,11.46C103.19,1.55,85.78-.74,74.68.84c0,.07,0,.13,0,.18,34-1.49,55.83,24.19,59.12,43.89s-9.27,27.47-11.06,21.2c-2.09-9.55-6.87-12-3.58-14.94a15.66,15.66,0,0,0,4.18-7.76c-7.76,6-24.78,7.47-43.59.61C55,35.05,56.85,16.45,56.85,16.45c-10.38,21.67-29,40.69-31.7,35C20.07,40.13,24,31.18,24,31.18l-.4.37C16.34,51.81,29.23,68,29.23,68s1.82-5.34,3.19-11.44c7-4.67,18.55-17.29,20.19-26.25,5.08,20,48.66,25.68,57.62,22.77,8.5,14.33,20.59,34.85-6.27,53.36,21.8-4.18,33.43-17.91,34.63-39.7S133.82,25.56,115.83,11.46Z"/></g><path class="cls-13" d="M89.48,82.5c0,5.85-3.69,10.59-8.21,10.59s-8.21-4.74-8.21-10.59,3.68-10.6,8.21-10.6S89.48,76.64,89.48,82.5Z"/><path class="cls-32" d="M89.48,82.5s0,.23,0,.67a13.07,13.07,0,0,1-1.06,4.66A10.7,10.7,0,0,1,86.3,91a7.47,7.47,0,0,1-3.94,2.16,7.16,7.16,0,0,1-1.25.12,6.79,6.79,0,0,1-1.24-.13,7.08,7.08,0,0,1-2.46-1A9.6,9.6,0,0,1,73.89,88a13.25,13.25,0,0,1,0-11,9.57,9.57,0,0,1,3.52-4.16,7,7,0,0,1,4.94-1,7.51,7.51,0,0,1,4,2.18,10.62,10.62,0,0,1,2.1,3.15A12.24,12.24,0,0,1,89.25,80a11.57,11.57,0,0,1,.21,1.87C89.47,82.26,89.48,82.5,89.48,82.5Zm0,0s0-.24,0-.66A12.47,12.47,0,0,0,89.21,80a11.48,11.48,0,0,0-.89-2.76,9.54,9.54,0,0,0-2.15-3.08,7.17,7.17,0,0,0-3.86-2,6.42,6.42,0,0,0-4.6,1.12,9.41,9.41,0,0,0-3.21,4,13,13,0,0,0-1.08,5.22,13.3,13.3,0,0,0,1.08,5.23,9.56,9.56,0,0,0,3.21,4,7,7,0,0,0,2.23,1,6.09,6.09,0,0,0,1.2.17,6.57,6.57,0,0,0,1.17-.07,7,7,0,0,0,3.86-2,9.35,9.35,0,0,0,2.15-3.07A11.76,11.76,0,0,0,89.21,85a12.79,12.79,0,0,0,.24-1.87Z"/><path class="cls-13" d="M51.5,80.17c0,5.59-3.34,10.12-7.44,10.12s-7.44-4.53-7.44-10.12S40,70,44.06,70,51.5,74.57,51.5,80.17Z"/><path class="cls-32" d="M51.5,80.17l0,.62a10.79,10.79,0,0,1-.18,1.75,12.27,12.27,0,0,1-.74,2.63,10.23,10.23,0,0,1-1.87,3,6.62,6.62,0,0,1-3.61,2.16,6,6,0,0,1-4.61-1,9.16,9.16,0,0,1-3.16-4,13,13,0,0,1,0-10.35,9.16,9.16,0,0,1,3.16-4,6,6,0,0,1,4.6-1,6.66,6.66,0,0,1,3.62,2.15,10.39,10.39,0,0,1,1.87,3,12,12,0,0,1,.74,2.63,10.69,10.69,0,0,1,.18,1.76C51.49,79.94,51.5,80.17,51.5,80.17Zm0,0s0-.23,0-.62a10.92,10.92,0,0,0-.19-1.76,13.58,13.58,0,0,0-.78-2.6,9.28,9.28,0,0,0-1.92-2.94A6.44,6.44,0,0,0,45,70.31a5.53,5.53,0,0,0-4.26,1.11,9.21,9.21,0,0,0-2.85,3.84,13.56,13.56,0,0,0,0,9.82,9.21,9.21,0,0,0,2.85,3.84,6.18,6.18,0,0,0,2.06,1,5.17,5.17,0,0,1,.54.11l.58,0A6.58,6.58,0,0,0,45,90a6.36,6.36,0,0,0,3.54-2,9,9,0,0,0,1.92-2.93,13.12,13.12,0,0,0,.78-2.62,10.62,10.62,0,0,0,.19-1.73C51.49,80.37,51.5,80.17,51.5,80.17Z"/><path class="cls-33" d="M119.91,86.38a34.92,34.92,0,0,0,.75-6.15c.08-3.25,2.16-6.33,6.49-6.24s7.14,5.23,5.4,10.38-5.57,7.9-10,7.23C118.83,90.78,119.33,89,119.91,86.38Z"/><path class="cls-34" d="M123.87,92.09a10.22,10.22,0,0,1-1.35-.1,4.36,4.36,0,0,1-3-1.64c-.68-1.06-.38-2.37,0-3.91l0-.15a35.84,35.84,0,0,0,.74-6.08c.09-3.3,2.18-6.61,6.69-6.61h.18a6,6,0,0,1,4.8,2.67,9.24,9.24,0,0,1,.94,8.22C131.29,89.26,127.91,92.09,123.87,92.09ZM127,74.36c-4.28,0-5.88,3.16-5.94,5.87a35.39,35.39,0,0,1-.76,6.23l0,.15c-.32,1.42-.58,2.54-.08,3.33a3.8,3.8,0,0,0,2.48,1.3,7,7,0,0,0,1.22.09c3.7,0,6.82-2.64,8.32-7.07a8.45,8.45,0,0,0-.85-7.54,5.22,5.22,0,0,0-4.21-2.35Z"/><g class="cls-35"><path class="cls-29" d="M130,85.59c.5-1.56,1.94-3.2,1.25-4.92-.52-1.28-1.77-1.55-3-1.82s-3-.56-3.71-1.87c-.52-1,.06-2.09,1.18-2.89a6,6,0,0,0-5.07,6.14,34.92,34.92,0,0,1-.75,6.15c-.58,2.58-1.08,4.4,2.66,5.22a8.23,8.23,0,0,0,8-3.45C129.86,87.83,129.5,87.08,130,85.59Z"/></g><path class="cls-33" d="M29,68.29s1.85-8.8-4.4-8.89-10,9-6.59,15.49c3.25,4.48,7.83,4.31,8.62,1.3S29,68.29,29,68.29Z"/><path class="cls-34" d="M23.65,78.74h0c-2,0-4.27-1.35-5.93-3.63a12.64,12.64,0,0,1,.37-12,7.65,7.65,0,0,1,6.46-4h.09a4.46,4.46,0,0,1,3.68,1.64c2.11,2.65,1.13,7.49,1.08,7.69s-1.6,5-2.37,7.93A3.29,3.29,0,0,1,23.65,78.74Zm1-19a6.92,6.92,0,0,0-5.89,3.68,11.88,11.88,0,0,0-.38,11.25c1.49,2,3.47,3.29,5.29,3.29a2.53,2.53,0,0,0,2.64-1.9c.79-3,2.36-7.88,2.39-7.93s.94-4.66-1-7a3.79,3.79,0,0,0-3.09-1.36Z"/><g class="cls-35"><path class="cls-29" d="M24.64,59.4l.05,0c.7.49,1.49,1.22,1.11,2.18a5.09,5.09,0,0,1-2.48,2.45c-2.62,1.41-4.14,3.12-3.88,6.25.1,1.19-.65,3.52-2,3.19A9.84,9.84,0,0,0,18,74.89c3.25,4.48,7.83,4.31,8.62,1.3S29,68.29,29,68.29,30.88,59.5,24.64,59.4Z"/></g><path class="cls-2" d="M38.78,66.19S44.51,58.3,52,70.12C51,62.15,42.71,56.51,38.78,66.19Z"/><path class="cls-3" d="M38.78,66.19a6.91,6.91,0,0,1,1.45-1.51,6.5,6.5,0,0,1,.9-.57,5.26,5.26,0,0,1,1-.42,3.53,3.53,0,0,1,1.06-.23,4.8,4.8,0,0,1,1.07,0,5.71,5.71,0,0,1,1.08.2,4.27,4.27,0,0,1,1,.38,4.74,4.74,0,0,1,1,.49l.91.61.8.71a8.73,8.73,0,0,1,.76.73l.69.8a9.24,9.24,0,0,1,.68.84l1.22,1.73-.67.24a13.22,13.22,0,0,0-1.61-4.77,8.88,8.88,0,0,0-3.51-3.5,4.79,4.79,0,0,0-2.38-.55,4.16,4.16,0,0,0-1.2.22,4.9,4.9,0,0,0-1.11.58,6.68,6.68,0,0,0-1,.81,9.89,9.89,0,0,0-.82,1c-.24.35-.48.71-.69,1.09S39,65.8,38.78,66.19Zm0,0c.16-.4.29-.82.48-1.21a10.92,10.92,0,0,1,.62-1.17,7.75,7.75,0,0,1,1.76-2,5.42,5.42,0,0,1,1.17-.68,5,5,0,0,1,1.33-.31,5.35,5.35,0,0,1,2.68.5A6.84,6.84,0,0,1,48,62a9.67,9.67,0,0,1,1,.89A10.06,10.06,0,0,1,50.67,65a12.68,12.68,0,0,1,1.73,5,.36.36,0,0,1-.32.4.33.33,0,0,1-.34-.16h0l-1.18-1.7a9.77,9.77,0,0,0-.63-.81L49.26,67a7,7,0,0,0-.72-.72l-.74-.71L47,65a3.65,3.65,0,0,0-.87-.52,3.76,3.76,0,0,0-.93-.37,4.22,4.22,0,0,0-1-.24,4.29,4.29,0,0,0-1,0,3.88,3.88,0,0,0-1,.17,3.39,3.39,0,0,0-1,.32,6.56,6.56,0,0,0-.9.49A7,7,0,0,0,38.78,66.19Z"/><path class="cls-2" d="M72.29,70.23S82,61.35,92.41,72.49C89.26,66.3,80.94,58.65,72.29,70.23Z"/><path class="cls-3" d="M72.29,70.23a12.48,12.48,0,0,1,2.28-1.67c.4-.25.84-.44,1.26-.67s.87-.37,1.32-.54.91-.28,1.38-.39.94-.18,1.41-.25l1.44-.08c.48,0,1,.07,1.44.09a8.67,8.67,0,0,1,1.42.27l.71.15.67.24c.45.2.92.34,1.35.56l1.26.69a7.31,7.31,0,0,1,1.2.79l1.15.85c.38.31.71.65,1.06,1l1,1-.61.42c-.26-.46-.49-.93-.79-1.37a11.41,11.41,0,0,0-.88-1.3,11.87,11.87,0,0,0-1-1.24l-.52-.6-.57-.53a11.68,11.68,0,0,0-3.9-2.56c-.49-.16-1-.28-1.49-.41a11.54,11.54,0,0,0-1.54-.12l-.79.07a2,2,0,0,0-.75.14l-.76.2-.38.11-.34.16a15.53,15.53,0,0,0-1.41.72l-1.32.89-1.19,1.07A8.73,8.73,0,0,0,73.36,69Zm0,0,1-1.27a8.9,8.9,0,0,1,1.07-1.23c.38-.38.75-.77,1.14-1.15l1.3-1a14.11,14.11,0,0,1,1.43-.79l.37-.19.39-.13.8-.25a3.45,3.45,0,0,1,.8-.17l.82-.09a13.33,13.33,0,0,1,1.67.07,10,10,0,0,1,1.61.42,10.74,10.74,0,0,1,1.51.68,14.27,14.27,0,0,1,1.39.89,10.75,10.75,0,0,1,1.25,1.06l.62.56.54.62a16.37,16.37,0,0,1,1,1.27,14,14,0,0,1,.92,1.35c.3.46.54.94.81,1.43a.36.36,0,0,1-.13.49.37.37,0,0,1-.44,0l0,0-1-1c-.34-.31-.66-.66-1-1L89,70a6.15,6.15,0,0,0-1.16-.77l-1.2-.69c-.41-.22-.85-.35-1.28-.53l-.64-.26-.66-.17a9.3,9.3,0,0,0-1.35-.29c-.46,0-.91-.1-1.38-.15l-1.39,0c-.46,0-.91.12-1.37.18s-.9.23-1.35.34-.88.29-1.32.45-.87.37-1.28.58A14.22,14.22,0,0,0,72.29,70.23Z"/><path class="cls-32" d="M59,99.07a13.43,13.43,0,0,1-3.65-1.42,12.15,12.15,0,0,1-2.82-3c-.36-.53-1.19-2.17,0-2.54a11.61,11.61,0,0,1,1.7-.22,12.83,12.83,0,0,0,3.65-1c.06,0,.17-.28,0-.24-1.73.41-3.5.61-5.24.91-.85.14-1.16.78-1.24,1.56-.15,1.57,1.3,3.08,2.27,4.13a6.75,6.75,0,0,0,5,2.37C58.91,99.64,59.26,99.15,59,99.07Z"/><g class="cls-30"><path class="cls-31" d="M58.84,89.26a21.24,21.24,0,0,1-6.43,1.85c-3.42.45-4.14,4,.61,8,3,2.46,6.44,2.06,8.17,0,1-1.58-5.43,1.12-8.45-5.22-.62-1.5-.11-1.5,2-1.84S58.51,91,58.84,89.26Z"/></g><g class="cls-30"><path class="cls-31" d="M52.52,95.58S55,99.87,59,99.07C57.77,100.62,53.41,101,52.52,95.58Z"/></g><path class="cls-32" d="M78.7,103c-.19-.11-.41-.15-.61-.26a2.05,2.05,0,0,1-.55-.47,4.87,4.87,0,0,1-.67-1.14c-.05-.13-.26.14-.23.24a5.17,5.17,0,0,0,.42,1.08c-.06,0,.11-.34,0-.22C73.91,105.74,68.5,107.09,64,107s-7.94-1.84-11.23-4.81c0,0-.1.06-.07.1,3,4.21,7.84,5.29,12.72,5.31,4,0,9.48-1.73,11.9-5.06.07-.11-.21,0-.22-.07.31.58.77,1.06,1.43.9C78.63,103.38,78.85,103.08,78.7,103Z"/><path class="cls-32" d="M23.49,66c-1.78-1.24-2.85,1.21-3.16,2.47,0,.16.2,0,.21-.08.44-1.62,1.5-2.86,2.9-1.76a4,4,0,0,1,1,2.11,9.82,9.82,0,0,1,.26,1.17,11,11,0,0,0-2.49,2.23c-.07.09,0,.24.1.13.49-.44.94-.91,1.46-1.32a5.39,5.39,0,0,1,.82-.6l.15-.1c.16,1.15.2,2.28.38,3.44,0,.28.4,0,.41-.19C25.74,71.36,25.46,67.4,23.49,66Z"/><g class="cls-11"><path class="cls-36" d="M20.09,70.48c-.27-1.61.39-4.62,2.41-4.85,1.65.2,2.54,2,3,3.46s.95,3.85-.23,5C23.11,76.21,20.4,72.36,20.09,70.48Z"/></g><path class="cls-32" d="M127.38,79.31c2-.8,2.49,1.83,2.52,3.12,0,.16-.2,0-.2-.12-.06-1.68-.81-3.13-2.42-2.37a4.18,4.18,0,0,0-1.43,1.83c-.18.36-.35.71-.51,1.08a11.24,11.24,0,0,1,1.91,2.74c0,.11,0,.23-.13.1-.37-.54-.7-1.1-1.12-1.62a5.89,5.89,0,0,0-.65-.77.74.74,0,0,1-.12-.13c-.42,1.08-.73,2.18-1.16,3.27-.11.25-.39-.15-.36-.3C124,84,125.14,80.19,127.38,79.31Z"/><g class="cls-11"><path class="cls-36" d="M129.74,84.29c.63-1.5.67-4.58-1.24-5.27-1.65-.19-2.93,1.34-3.67,2.69s-1.81,3.53-.93,4.93C125.49,89.18,129,86.05,129.74,84.29Z"/></g><path class="cls-37" d="M52.61,30.33s0-.46.17-1.23.32-1.92.67-3.24.79-2.86,1.36-4.47c.3-.8.57-1.64.94-2.45s.71-1.68,1.1-2.49.82-1.64,1.24-2.43.88-1.55,1.32-2.28a24.53,24.53,0,0,1,1.36-2.06c.44-.66.88-1.25,1.31-1.78s.8-1.05,1.16-1.47l1-1.06.85-.93s-.26.38-.72,1l-.82,1.17-1,1.56A21.51,21.51,0,0,0,61.32,10c-.39.68-.83,1.36-1.23,2.11-.82,1.48-1.68,3-2.42,4.69-.41.81-.77,1.63-1.13,2.44s-.68,1.64-1,2.41c-.62,1.57-1.19,3.06-1.6,4.34C53.06,28.58,52.61,30.33,52.61,30.33Z"/><path class="cls-32" d="M81.55,95.34a5.74,5.74,0,0,1,.72-1.28,6.72,6.72,0,0,1,1-1.14,7.4,7.4,0,0,1,.69-.53,6.66,6.66,0,0,1,.78-.46,5,5,0,0,1,.84-.35,6.62,6.62,0,0,1,.84-.24c.28-.06.56-.06.81-.1a5.92,5.92,0,0,1,.73,0,4.8,4.8,0,0,1,1.07.18l.39.09a2.48,2.48,0,0,1-.4.06h-.45c-.17,0-.38.08-.6.1s-.42.06-.66.13-.47.09-.73.18a12.34,12.34,0,0,0-1.5.6,11.24,11.24,0,0,0-1.39.86,13.66,13.66,0,0,0-1.15.89,9.12,9.12,0,0,0-.75.72C81.64,95.24,81.55,95.34,81.55,95.34Z"/><path class="cls-32" d="M35.61,87.88a3.31,3.31,0,0,1,1.21-.29,3.91,3.91,0,0,1,1.27.12,4.18,4.18,0,0,1,1.38.56,4.42,4.42,0,0,1,1.12,1,4.94,4.94,0,0,1,.65,1.1,4.12,4.12,0,0,1,.27.84,2.55,2.55,0,0,1,.06.32l-.19-.26c-.12-.17-.29-.41-.52-.68a9.27,9.27,0,0,0-.76-.88,7.39,7.39,0,0,0-1-.79,5.38,5.38,0,0,0-1.16-.56A7.36,7.36,0,0,0,36.79,88,6.26,6.26,0,0,0,36,87.9Z"/><g class="cls-38"><path class="cls-29" d="M60,90.11a7.39,7.39,0,0,1-5.28,2.46c-3.14,0,0,4.05,3.48,2.24S62.12,87.51,60,90.11Z"/></g><g class="cls-38"><path class="cls-29" d="M31.31,89.12c-1.22.59-1.22,1.68.36,2.73S35.19,93,36.73,94c1,.66,3.09,3.59,4.4,3.27,2.21-.56.95-4.14.24-5.29A8,8,0,0,0,31.31,89.12Z"/></g><g class="cls-38"><path class="cls-29" d="M92.74,93.06c1.21.59,1.23,1.69-.37,2.73S88.86,97,87.32,98c-1,.65-3.1,3.58-4.4,3.25-2.22-.55-1-4.12-.25-5.29A8,8,0,0,1,92.74,93.06Z"/></g><g class="cls-38"><path class="cls-29" d="M54,101.87s8.55,7.76,20,1.36C72.05,105.9,60.78,109,54,101.87Z"/></g><path class="cls-37" d="M36.82,76.09a7,7,0,0,1,.23-.94,10.73,10.73,0,0,1,1.08-2.37,7.6,7.6,0,0,1,2.64-2.62,5.89,5.89,0,0,1,2-.71,9.08,9.08,0,0,1,2.21,0,7.56,7.56,0,0,1,3.88,1.84,9.56,9.56,0,0,1,2.19,3,8.74,8.74,0,0,1,.76,2.49,6.35,6.35,0,0,1,.08,1,8.9,8.9,0,0,0-.21-1,11.9,11.9,0,0,0-1-2.32,9.82,9.82,0,0,0-2.25-2.68,7.43,7.43,0,0,0-3.57-1.61,6.38,6.38,0,0,0-3.81.54A7.2,7.2,0,0,0,38.48,73a12,12,0,0,0-1.29,2.16A8.88,8.88,0,0,0,36.82,76.09Z"/><path class="cls-37" d="M72.16,79.94a7.1,7.1,0,0,1,.27-1.13A10.82,10.82,0,0,1,73.66,76a9.91,9.91,0,0,1,3-3.18,10.08,10.08,0,0,1,2.29-1l.63-.18c.22,0,.4-.09.63-.12a9.91,9.91,0,0,1,1.32-.07,7.81,7.81,0,0,1,4.71,1.91,9.06,9.06,0,0,1,2.49,3.62,9.91,9.91,0,0,1,.64,3,8.11,8.11,0,0,1,0,1.17A9.48,9.48,0,0,0,89.25,80a11.24,11.24,0,0,0-.89-2.86,9.19,9.19,0,0,0-2.52-3.29,7.14,7.14,0,0,0-4.3-1.66,6,6,0,0,0-1.2.06,4.6,4.6,0,0,0-.6.09l-.57.14a8.72,8.72,0,0,0-2.14.93,9.75,9.75,0,0,0-3,2.84,13.45,13.45,0,0,0-1.45,2.64C72.28,79.54,72.16,79.94,72.16,79.94Z"/><path class="cls-32" d="M66.09,109.29a3.86,3.86,0,0,1-3.52-.41c-.08,0-.2.15-.13.22a3.18,3.18,0,0,0,3.6.55C66.14,109.59,66.29,109.23,66.09,109.29Z"/><g class="cls-11"><path class="cls-39" d="M50.88,76.63C52,81.49,49.8,88,43.51,88s-6.64-9.68-6.64-9.68l-.12,0a13.11,13.11,0,0,0-.13,1.79c0,5.59,3.33,10.12,7.44,10.12s7.44-4.53,7.44-10.12a13.44,13.44,0,0,0-.71-4.29A2.89,2.89,0,0,0,50.88,76.63Z"/></g><g class="cls-11"><path class="cls-39" d="M81,90.32c-6.17-.14-7.87-8.72-7.87-8.72l0,0c0,.3,0,.58,0,.88,0,5.85,3.68,10.59,8.21,10.59s8.21-4.74,8.21-10.59A14.51,14.51,0,0,0,89,79C89.87,84.21,87.09,90.43,81,90.32Z"/></g><g class="cls-30"><path class="cls-31" d="M52.06,101.23s11.49,11.49,24.51,1.11a2.52,2.52,0,0,1,.15-2.21c.37,1.25,1.4,2.79,2.73,3-.37,1.17-2.14,0-2.14,0s-2.93,4.61-10,5.1c.88,1.17-.57,2.53-3.78,2s-1.86-2-1.86-2S53.67,107.16,52.06,101.23Z"/></g><path class="cls-40" d="M51.72,43.12s-3.29,9-16.43,16.12a142.59,142.59,0,0,1-4.47,14.63C28.14,81,24.49,98.33,57,112.06c13.76,5.43,37.77,3.91,54.49-15.78,7.17-9,5-25.1-2.78-37.33C99.18,61,64.85,56.56,51.72,43.12Z"/><g class="cls-4"><path class="cls-29" d="M52.31,37.54C56.47,42.35,81.84,61.83,109,55.92c4.81,3.71,10,15.75,10,15.75l.09-.1c-1.94-6.74-5.67-13-8.88-18.47-9,2.91-52.54-2.77-57.62-22.77C51,39,40.07,51.23,33,56.18A46.84,46.84,0,0,0,52.31,37.54Z"/></g><g class="cls-41"><path class="cls-42" d="M49.25,64.12a5.9,5.9,0,0,0-3.63-2.62c-1.7-.41-3.16.35-4.5,1.3,0,0,0,.09,0,.07a5.32,5.32,0,0,1,4.28-.81c1.55.36,2.35,1.57,3.52,2.53C49.07,64.73,49.34,64.26,49.25,64.12Z"/></g><g class="cls-41"><path class="cls-42" d="M88.62,67.75c-3.23-2.82-7.77-4.36-11.46-1.47,0,0-.06.1,0,.08a8,8,0,0,1,7-.63c1.52.6,2.73,1.74,4.19,2.45C88.53,68.29,88.77,67.88,88.62,67.75Z"/></g><path class="cls-43" d="M50.74,80.37c-.1,4.36-2.74,7.88-5.88,7.88s-5.6-3.55-5.5-7.9,2.74-7.86,5.87-7.86S50.84,76,50.74,80.37Z"/><path class="cls-44" d="M50.74,80.37c-.1,4.36-2.74,7.88-5.88,7.88s-5.6-3.55-5.5-7.9,2.74-7.86,5.87-7.86S50.84,76,50.74,80.37Z"/><g class="cls-45"><path class="cls-44" d="M49.38,80.67c-.08,3.32-2.09,6-4.48,6s-4.28-2.71-4.2-6,2.09-6,4.48-6S49.46,77.35,49.38,80.67Z"/></g><path class="cls-46" d="M48.66,80.35C48.6,83,47,85.09,45.11,85.09s-3.38-2.14-3.3-4.75,1.63-4.74,3.53-4.74S48.72,77.72,48.66,80.35Z"/><g class="cls-35"><path class="cls-47" d="M39.47,79.1a12.36,12.36,0,0,0-.11,1.25c-.1,4.35,2.37,7.87,5.5,7.9s5.78-3.52,5.88-7.88a11.37,11.37,0,0,0-.06-1.18C47.21,81.54,42.22,82.08,39.47,79.1Z"/></g><path class="cls-13" d="M44.26,78.47c-.17,1.34-1.08,2.35-2,2.26s-1.64-1.27-1.48-2.62,1.07-2.37,2-2.28S44.41,77.12,44.26,78.47Z"/><path class="cls-13" d="M43.09,82.67c-.07.64-.51,1.13-1,1.07s-.77-.61-.7-1.25.51-1.11,1-1.07S43.16,82,43.09,82.67Z"/><path class="cls-43" d="M88,83.22c-.1,4.34-2.73,7.86-5.87,7.86s-5.61-3.53-5.49-7.89,2.72-7.86,5.86-7.86S88.12,78.86,88,83.22Z"/><path class="cls-44" d="M88,83.22c-.1,4.34-2.73,7.86-5.87,7.86s-5.61-3.53-5.49-7.89,2.72-7.86,5.86-7.86S88.12,78.86,88,83.22Z"/><g class="cls-45"><path class="cls-44" d="M86.66,83.5c-.07,3.33-2.08,6-4.48,6s-4.27-2.71-4.2-6,2.09-6,4.49-6S86.73,80.19,86.66,83.5Z"/></g><path class="cls-46" d="M85.93,83.19c-.06,2.62-1.64,4.75-3.53,4.74S79,85.79,79.08,83.17s1.64-4.75,3.54-4.73S86,80.56,85.93,83.19Z"/><g class="cls-35"><path class="cls-47" d="M76.75,81.94a10,10,0,0,0-.1,1.25c-.12,4.36,2.36,7.88,5.49,7.89s5.77-3.52,5.87-7.86c0-.4,0-.8,0-1.18C84.5,84.38,79.5,84.92,76.75,81.94Z"/></g><path class="cls-13" d="M81.54,81.3c-.16,1.35-1.07,2.37-2.05,2.27S77.86,82.3,78,81s1.08-2.38,2-2.28S81.69,80,81.54,81.3Z"/><path class="cls-13" d="M80.36,85.5c-.07.64-.51,1.12-1,1.08s-.78-.6-.7-1.25.51-1.12,1-1.08S80.44,84.87,80.36,85.5Z"/><g class="cls-35"><path class="cls-29" d="M110.23,53.1c-9,2.91-52.54-2.77-57.62-22.77-1.64,9-13.15,21.58-20.19,26.25C31.05,62.68,29.23,68,29.23,68s-1.7,3.52-3.18,12.77,6.26,23.59,26.56,31.35C72.1,119.58,92,115.71,104,106.46,130.82,88,118.73,67.43,110.23,53.1Zm1.28,43.18C94.79,116,70.78,117.49,57,112.06,24.49,98.33,28.14,81,30.82,73.87a142.59,142.59,0,0,0,4.47-14.63c13.14-7.16,16.43-16.12,16.43-16.12C64.85,56.56,96.43,64,108.73,59,116.5,71.18,118.68,87.32,111.51,96.28Z"/></g><g class="cls-41"><path class="cls-42" d="M63.25,20.69s12.39,15,30.6,16.35c-10.28-3-17-9.35-18.45-12.38s14.94.46,10.51-4.68,1.17-6.77,7.47-4.66-6.07-11,3.51-8.89a38.35,38.35,0,0,1,13.07,7S96-.8,77.5,1.07c8.65,1.4,10.74,7.7,4.44,7.93s-4.2.93-.94,7,1.64,6.77-4.67,4.2-4,3.28-.93,7.47S63.25,20.69,63.25,20.69Z"/></g><g class="cls-48"><path class="cls-2" d="M51.63,15.25S40.78,33.93,29.14,41.57c-5,3,7.23-8.24,9.22-14.06s-10.63,8.23-5.21-1.42-3-6.61-7,1.42-.8-15.28,27.11-21.69c4-.81-8.63,4-12.45,8.63s10.44-7.62,5.63,1.21S44.4,21.88,51.63,15.25Z"/></g></g></g></g></svg>