<svg xmlns="http://www.w3.org/2000/svg" xmlns:xlink="http://www.w3.org/1999/xlink" viewBox="0 0 157.6 300"><defs><style>.cls-1{fill:none;}.cls-2{isolation:isolate;}.cls-3,.cls-6{fill:#f7c49c;}.cls-4{fill:#d78e6c;}.cls-12,.cls-14,.cls-17,.cls-20,.cls-21,.cls-23,.cls-24,.cls-25,.cls-26,.cls-28,.cls-29,.cls-35,.cls-37,.cls-39,.cls-5,.cls-6,.cls-9{mix-blend-mode:multiply;}.cls-12,.cls-17,.cls-21,.cls-29,.cls-39,.cls-6{opacity:0.5;}.cls-7,.cls-9{fill:#272724;}.cls-8{fill:#4e4e4d;}.cls-14,.cls-20,.cls-24,.cls-36,.cls-9{opacity:0.2;}.cls-10,.cls-14{fill:#46152c;}.cls-11{fill:#34150d;}.cls-13{fill:#3d1411;}.cls-15{fill:#fffdf2;}.cls-16{fill:#cfcfcf;}.cls-17{fill:#dfdfdf;}.cls-18,.cls-20,.cls-21,.cls-25{fill:#751840;}.cls-19{fill:#58132c;}.cls-22,.cls-36{fill:#fff;}.cls-23,.cls-28{fill:#f0cfb8;}.cls-23{opacity:0.7;}.cls-25,.cls-26{opacity:0.3;}.cls-27{clip-path:url(#clip-path);}.cls-28,.cls-31,.cls-38{opacity:0.4;}.cls-29,.cls-37{fill:#facfae;}.cls-30{fill:#d58f6d;}.cls-31{fill:#fbdad8;}.cls-31,.cls-36,.cls-38{mix-blend-mode:screen;}.cls-32{fill:#d5d5d5;}.cls-33{fill:#6ac8ce;}.cls-34{fill:#434343;}.cls-37{opacity:0.8;}.cls-38{fill:#f4d8c5;}.cls-39{fill:#b68747;}</style><clipPath id="clip-path"><path class="cls-1" d="M52,69.4c-1.86,5.12-5.59,18.54-.33,28s14.38,21.84,44.66,20,43.24-16.91,39.29-37.75S112.36,41.3,92.28,40.54,56.84,56.12,52,69.4Z"/></clipPath></defs><g class="cls-2"><g id="Layer_2" data-name="Layer 2"><g id="Layer_1-2" data-name="Layer 1"><path class="cls-3" d="M146.05,205.92a.2.2,0,0,0-.11-.13l-.07-.09a.24.24,0,0,0-.41.17,5.4,5.4,0,0,0-2.6,2.75,3.53,3.53,0,0,0-.31,1.79,4.29,4.29,0,0,0-.86,1.32,3.18,3.18,0,0,0,1.3,3.85h0c.36.28.83.17,1.35-.25a7.85,7.85,0,0,0,2.5-5.24C146.91,208.76,146.93,207,146.05,205.92Z"/><path class="cls-4" d="M143.43,216.06h0a1,1,0,0,1-.6-.19,3.51,3.51,0,0,1-1.45-4.25,4.53,4.53,0,0,1,.84-1.34,3.61,3.61,0,0,1,.35-1.8,6.08,6.08,0,0,1,2.61-2.85.71.71,0,0,1,.1-.14.59.59,0,0,1,.83,0l0,.06a.56.56,0,0,1,.18.23c.87,1.13.91,2.83.83,4.34a8.11,8.11,0,0,1-2.63,5.48A1.79,1.79,0,0,1,143.43,216.06Zm-.36-.81h0l.09.07a.32.32,0,0,0,.23.08,1.12,1.12,0,0,0,.7-.33,7.49,7.49,0,0,0,2.38-5c.07-1.41.05-3-.72-3.94v0l-.21.07a5.21,5.21,0,0,0-2.41,2.58,3.2,3.2,0,0,0-.29,1.62l0,.14-.1.11a3.79,3.79,0,0,0-.79,1.22A2.87,2.87,0,0,0,143.07,215.25Z"/><path class="cls-4" d="M146.52,208.26c-1.66.53-3.06.85-4.29,2.25a3.41,3.41,0,0,0-.49,4c.08.15.34.05.28-.11a3.71,3.71,0,0,1,1.45-4.21,15.55,15.55,0,0,1,3.16-1.64A.14.14,0,0,0,146.52,208.26Z"/><g class="cls-5"><path class="cls-3" d="M146.05,205.92a.2.2,0,0,0-.11-.13l-.07-.09a.24.24,0,0,0-.41.17,5.4,5.4,0,0,0-2.6,2.75,3.53,3.53,0,0,0-.31,1.79,4.29,4.29,0,0,0-.86,1.32,3.18,3.18,0,0,0,1.3,3.85h0c.36.28.83.17,1.35-.25a7.85,7.85,0,0,0,2.5-5.24C146.91,208.76,146.93,207,146.05,205.92Z"/><path class="cls-4" d="M143.43,216.06h0a1,1,0,0,1-.6-.19,3.51,3.51,0,0,1-1.45-4.25,4.53,4.53,0,0,1,.84-1.34,3.61,3.61,0,0,1,.35-1.8,6.08,6.08,0,0,1,2.61-2.85.71.71,0,0,1,.1-.14.59.59,0,0,1,.83,0l0,.06a.56.56,0,0,1,.18.23c.87,1.13.91,2.83.83,4.34a8.11,8.11,0,0,1-2.63,5.48A1.79,1.79,0,0,1,143.43,216.06Zm-.36-.81h0l.09.07a.32.32,0,0,0,.23.08,1.12,1.12,0,0,0,.7-.33,7.49,7.49,0,0,0,2.38-5c.07-1.41.05-3-.72-3.94v0l-.21.07a5.21,5.21,0,0,0-2.41,2.58,3.2,3.2,0,0,0-.29,1.62l0,.14-.1.11a3.79,3.79,0,0,0-.79,1.22A2.87,2.87,0,0,0,143.07,215.25Z"/></g><path class="cls-3" d="M156.35,202.68a23.17,23.17,0,0,0-1.47-5.22c-.38-.91-.6-3-1.79-3.4s-3.21.59-4.35,1.13c-1.74.83-3.58,1.39-5.35,2.13a25.13,25.13,0,0,1-3.12,1.1c-.34.09-1,.22-1.19.59a1.33,1.33,0,0,0-.09.21.14.14,0,0,0-.12.1c-.5,1.28-1.27,2.46-1.77,3.75-.42,1.08,0,2.69.11,3.81.13,1.39.43,2.74.51,4.15,0,.73-.32,2.2.26,2.81,1,1.08,3.28-.74,3.57-1.75a19.36,19.36,0,0,0,.55-4,15.26,15.26,0,0,1,.28-2.34,1.93,1.93,0,0,1,.23-.52A2,2,0,0,1,144,206a5.41,5.41,0,0,1,1.26,3,15.21,15.21,0,0,1-.46,2.64c0,.32-.05.63-.06,1h0a4.11,4.11,0,0,0-2.43,1.59,4,4,0,0,0-.21,3.72c.19.54.54,1.67,1.3,1.69,1,0,2.09-1.3,2.62-2a28,28,0,0,0,3-4.46,5.38,5.38,0,0,0,.44-1.24,4.26,4.26,0,0,0,2.4-2.31c1.15,0,2.1-1,2.59-2.2a1.65,1.65,0,0,0,1.16-.73A5.34,5.34,0,0,0,156.35,202.68Z"/><path class="cls-4" d="M143.44,219.93h-.05c-1,0-1.36-1.23-1.58-1.87q-.87-2.62.25-4.07a4.5,4.5,0,0,1,2.4-1.67c0-.24,0-.49.06-.73s.13-.7.21-1A5.85,5.85,0,0,0,145,209a5.2,5.2,0,0,0-1.17-2.83,1.83,1.83,0,0,0-1-.6,1.86,1.86,0,0,0-.1.25,10.17,10.17,0,0,0-.24,1.86l-.08,1a16.6,16.6,0,0,1-.5,3.48,4.06,4.06,0,0,1-3.11,2.32,1.4,1.4,0,0,1-1-.43,3.12,3.12,0,0,1-.38-2.32,6.29,6.29,0,0,0,0-.71,22.84,22.84,0,0,0-.28-2.35c-.08-.58-.17-1.18-.23-1.78,0-.27-.07-.56-.11-.86a6.61,6.61,0,0,1,0-3.1c.26-.66.59-1.3.9-1.91a18.16,18.16,0,0,0,.87-1.84.5.5,0,0,1,.18-.23l0-.09c.22-.47.85-.63,1.27-.74l.15,0a27.39,27.39,0,0,0,3.07-1.1c.72-.3,1.45-.57,2.17-.83,1-.39,2.13-.79,3.16-1.29l.24-.11a9.23,9.23,0,0,1,3.59-1.14,3.06,3.06,0,0,1,.77.1c1.06.33,1.42,1.66,1.73,2.74a7.24,7.24,0,0,0,.27.85,24.54,24.54,0,0,1,1.49,5.3,5.64,5.64,0,0,1-.81,4.24,2.07,2.07,0,0,1-1.2.83,3.46,3.46,0,0,1-2.62,2.22,4.68,4.68,0,0,1-2.33,2.26,4.73,4.73,0,0,1-.42,1.11,28.06,28.06,0,0,1-3,4.53C145.52,218.8,144.5,219.93,143.44,219.93Zm-1-15h.18a2.39,2.39,0,0,1,1.66.83,5.85,5.85,0,0,1,1.35,3.26,6.46,6.46,0,0,1-.26,1.72c-.08.35-.16.67-.2,1a8.88,8.88,0,0,0-.06.91v.24l-.23.06a3.86,3.86,0,0,0-2.29,1.5c-.61.78-.66,1.93-.16,3.41.17.5.49,1.45,1,1.47l0,.32v-.32c.89,0,2-1.4,2.32-1.86a27.35,27.35,0,0,0,3-4.41,5.55,5.55,0,0,0,.41-1.17l.05-.21.21,0a4,4,0,0,0,2.16-2.14l.1-.19h.21c1.06,0,1.87-1,2.28-2l.08-.18h.2a1.37,1.37,0,0,0,.92-.6,5.11,5.11,0,0,0,.68-3.75,23.24,23.24,0,0,0-1.44-5.14,8.54,8.54,0,0,1-.3-.93c-.25-.92-.57-2.07-1.28-2.29a2.1,2.1,0,0,0-.58-.07,8.71,8.71,0,0,0-3.3,1.07l-.24.12c-1.06.5-2.16.91-3.22,1.3-.71.27-1.44.54-2.15.83a26.06,26.06,0,0,1-3.15,1.12l-.15,0c-.23.06-.75.19-.83.37l-.15.36h-.09c-.25.63-.56,1.23-.86,1.82s-.62,1.21-.87,1.84a6.16,6.16,0,0,0,0,2.77q.08.48.12.9c.05.58.14,1.18.23,1.75.11.78.24,1.59.28,2.41a5.64,5.64,0,0,1,0,.79c0,.66-.11,1.48.21,1.82a.71.71,0,0,0,.55.22,3.38,3.38,0,0,0,2.47-1.85,16.93,16.93,0,0,0,.49-3.34l.07-1a11.34,11.34,0,0,1,.27-2,2,2,0,0,1,.27-.63Z"/><path class="cls-4" d="M148.4,205c-.05-.05-.13,0-.1.08,1.52,3,.51,6.46-.28,9.49a.09.09,0,0,0,.16.07,8.65,8.65,0,0,0,1.42-4.81C149.6,208.3,149.54,206.22,148.4,205Z"/><path class="cls-4" d="M152,204.25c0-.1-.19,0-.17.07a8.38,8.38,0,0,1-.82,6.48.16.16,0,0,0,.24.19C153,209.28,152.86,206.34,152,204.25Z"/><path class="cls-4" d="M154.57,203.1a.07.07,0,0,0-.11.06,7.88,7.88,0,0,1-1.06,5.56c-.08.12.08.22.18.14a4.09,4.09,0,0,0,1.23-2.63C154.94,205.39,155.23,203.79,154.57,203.1Z"/><path class="cls-6" d="M154.73,203.27a4.05,4.05,0,0,1-.45,1.94c-.61,1.08-1.52.22-2-.56a3.07,3.07,0,0,1-.24,2c-.82,1.44-2.19.88-2.95-.17.15.94.13,1.89-.45,2.34-1.37,1.05-2.6-.68-2.75-1.95a5.49,5.49,0,0,1,3-5.91,18.21,18.21,0,0,0,5.65-4.74c-.26-.91-.63-1.92-1.41-2.16-1.3-.4-3.21.59-4.35,1.13-1.74.83-3.58,1.39-5.35,2.13a25.13,25.13,0,0,1-3.12,1.1c-.34.09-1,.22-1.19.59a1.33,1.33,0,0,0-.09.21.14.14,0,0,0-.12.1c-.5,1.28-1.27,2.46-1.77,3.75-.42,1.08,0,2.69.11,3.81.13,1.39.43,2.74.51,4.15,0,.73-.32,2.2.26,2.81,1,1.08,3.28-.74,3.57-1.75a19.36,19.36,0,0,0,.55-4,15.26,15.26,0,0,1,.28-2.34,1.93,1.93,0,0,1,.23-.52A2,2,0,0,1,144,206a5.41,5.41,0,0,1,1.26,3,15.21,15.21,0,0,1-.46,2.64c0,.32-.05.63-.06,1h0a4.11,4.11,0,0,0-2.43,1.59,4,4,0,0,0-.21,3.72c.19.54.54,1.67,1.3,1.69,1,0,2.09-1.3,2.62-2a28,28,0,0,0,3-4.46,5.38,5.38,0,0,0,.44-1.24,4.26,4.26,0,0,0,2.4-2.31c1.15,0,2.1-1,2.59-2.2a1.65,1.65,0,0,0,1.16-.73,5.13,5.13,0,0,0,.77-3.78A.9.9,0,0,1,154.73,203.27Z"/><path class="cls-7" d="M83,272.28a99,99,0,0,1-10.29-1.85c-3.47-.67-7.25-1.38-10.26-3.32.12,1.82-.29,3.79-1.84,4.83A14.08,14.08,0,0,1,56,273.53c-3.09.76-6.32.51-9.44,1.24a8.19,8.19,0,0,0-5.71,4.33c-.93,1.81-1.6,5.29-.16,7,1.61,1.93,3.88,2.3,6.25,2.65a55.22,55.22,0,0,0,9.26,1,34.44,34.44,0,0,0,6.21-.5,9.38,9.38,0,0,0,2.93-.66c2.25-1,4-3.38,6.39-3.88a47.59,47.59,0,0,1,7.91-.83c1.17,0,3.3-.85,3.62-2.14.49-2,.14-4.31,0-6.31C83.18,274.4,83.09,273.34,83,272.28Z"/><path class="cls-7" d="M55.81,290.1a48.23,48.23,0,0,1-7.59-.78l-1.35-.21c-2.33-.35-4.74-.71-6.45-2.77-1.55-1.87-.85-5.52.11-7.39a8.61,8.61,0,0,1,5.94-4.5,30.25,30.25,0,0,1,4.7-.61,29,29,0,0,0,4.73-.62l.65-.15a11.77,11.77,0,0,0,3.87-1.4c1.66-1.12,1.77-3.32,1.69-4.53l0-.66.55.36c2.94,1.88,6.56,2.57,10.06,3.25h.08c1,.19,2,.4,3,.62A55.88,55.88,0,0,0,83,272l.27,0,0,.28c.11,1.15.2,2.2.27,3.19,0,.38,0,.79.09,1.2a16.46,16.46,0,0,1-.11,5.2c-.38,1.53-2.73,2.35-3.93,2.39a46.91,46.91,0,0,0-7.86.82,9,9,0,0,0-3.58,2,13.74,13.74,0,0,1-2.74,1.82,9.55,9.55,0,0,1-3,.69,33.4,33.4,0,0,1-6.23.49Zm7-22.39a5.22,5.22,0,0,1-2,4.5,12.09,12.09,0,0,1-4.1,1.5l-.63.15a32.27,32.27,0,0,1-4.84.64,28.93,28.93,0,0,0-4.61.59,7.87,7.87,0,0,0-5.49,4.16c-.92,1.79-1.5,5.1-.19,6.67,1.55,1.87,3.83,2.21,6,2.54l1.35.21a47.33,47.33,0,0,0,7.49.77h.37a33.15,33.15,0,0,0,6.14-.49,9,9,0,0,0,2.87-.65,13.24,13.24,0,0,0,2.59-1.72,9.78,9.78,0,0,1,3.86-2.18,48.25,48.25,0,0,1,8-.83c1.16,0,3-.84,3.31-1.88a15.67,15.67,0,0,0,.09-5c0-.42-.07-.83-.09-1.22-.06-.9-.14-1.85-.24-2.9a58.51,58.51,0,0,1-7.1-1.22c-1-.21-2-.42-2.94-.61l-.08,0C69.35,270.12,65.74,269.43,62.79,267.71Z"/><path class="cls-8" d="M75.16,282.6c-1.21-.13-2.41-.56-3.63-.58a6.06,6.06,0,0,0-4,1.47,14.42,14.42,0,0,1-5.27,3.06c-4.67,1.13-9.66-.14-14.25-1.07-2.72-.56-6-.74-8.22-2.46a4.64,4.64,0,0,0,.83,3.11c1.61,1.93,3.88,2.3,6.25,2.65a55.22,55.22,0,0,0,9.26,1,34.44,34.44,0,0,0,6.21-.5,9.38,9.38,0,0,0,2.93-.66c2.25-1,4-3.38,6.39-3.88a47.59,47.59,0,0,1,7.91-.83c1.17,0,3.3-.85,3.62-2.14.06-.24.11-.5.15-.77A17.59,17.59,0,0,1,75.16,282.6Z"/><path class="cls-7" d="M55.81,290.1a48.23,48.23,0,0,1-7.59-.78l-1.35-.21c-2.33-.35-4.74-.71-6.45-2.77a5,5,0,0,1-.91-3.33l0-.64.51.39c1.69,1.31,4,1.69,6.27,2.07.62.11,1.23.2,1.81.33s.91.18,1.37.27a43.49,43.49,0,0,0,8.83,1.24,16.09,16.09,0,0,0,3.91-.44,13.14,13.14,0,0,0,4.84-2.76l.31-.24a6.36,6.36,0,0,1,4-1.54h.13a11.38,11.38,0,0,1,2.16.32,15.17,15.17,0,0,0,1.5.26,10,10,0,0,0,1.11.06,19.57,19.57,0,0,0,7-1.64l.52-.21-.08.56a5.14,5.14,0,0,1-.15.8c-.38,1.53-2.73,2.35-3.93,2.39a46.91,46.91,0,0,0-7.86.82,9,9,0,0,0-3.58,2,13.46,13.46,0,0,1-2.74,1.82,9.55,9.55,0,0,1-3,.69,33.4,33.4,0,0,1-6.23.49Zm-15.63-6.44a3.83,3.83,0,0,0,.75,2.26c1.55,1.87,3.83,2.21,6,2.54l1.35.21a47.33,47.33,0,0,0,7.49.77h.37a33.15,33.15,0,0,0,6.14-.49,9,9,0,0,0,2.87-.65,13.24,13.24,0,0,0,2.59-1.72,9.78,9.78,0,0,1,3.86-2.18,48.25,48.25,0,0,1,8-.83c1.16,0,3-.84,3.31-1.88a1.16,1.16,0,0,0,0-.18A18.84,18.84,0,0,1,76.31,283a9,9,0,0,1-1.18-.07,13.54,13.54,0,0,1-1.57-.27,10.59,10.59,0,0,0-2-.3h-.11a5.7,5.7,0,0,0-3.62,1.4l-.31.24a13.8,13.8,0,0,1-5.09,2.88,17.49,17.49,0,0,1-4.07.46,44.56,44.56,0,0,1-9-1.25L48,285.8c-.58-.12-1.19-.22-1.8-.32A16.13,16.13,0,0,1,40.18,283.66Z"/><path class="cls-9" d="M83.25,275.45c-.07-1.05-.16-2.11-.26-3.17a99,99,0,0,1-10.29-1.85c-3.47-.67-7.25-1.38-10.26-3.32.12,1.82-.29,3.79-1.84,4.83a7.22,7.22,0,0,1-1.7.82H59c2,.1,3.63,1.18,3.86,3.33a7,7,0,0,1-6.21,8,23.55,23.55,0,0,1-6.33-.06,31.69,31.69,0,0,1-5.65-.91c-1.57-.48-3.54-1.27-4.06-3,0-.12-.05-.24-.08-.35-.74,1.9-1.11,4.8.16,6.33,1.61,1.93,3.88,2.3,6.25,2.65a55.22,55.22,0,0,0,9.26,1,34.44,34.44,0,0,0,6.21-.5,9.38,9.38,0,0,0,2.93-.66c2.25-1,4-3.38,6.39-3.88a47.59,47.59,0,0,1,7.91-.83c1.17,0,3.3-.85,3.62-2.14C83.73,279.8,83.38,277.45,83.25,275.45Z"/><path class="cls-9" d="M83.25,275.45c-.07-1.05-.16-2.11-.26-3.17a99,99,0,0,1-10.29-1.85c-3.47-.67-7.25-1.38-10.26-3.32a7.12,7.12,0,0,1-.4,3A47.83,47.83,0,0,1,67,271.71a9.91,9.91,0,0,1,2.58,1.49,10.09,10.09,0,0,1,2.53,2.34c1,1.8-.62,3.22-2.19,3.92A27.73,27.73,0,0,0,66.45,281c-1.38.87-1.46,2.06-2.3,3.28-1.14,1.68-3.56,2.15-5.44,2.35a20.37,20.37,0,0,1-8.21-.85,63.31,63.31,0,0,1-7.37-2.51,13,13,0,0,1-3.1-1.83c-.34,1.66-.3,3.54.64,4.68,1.61,1.93,3.88,2.3,6.25,2.65a55.22,55.22,0,0,0,9.26,1,34.44,34.44,0,0,0,6.21-.5,9.38,9.38,0,0,0,2.93-.66c2.25-1,4-3.38,6.39-3.88a47.59,47.59,0,0,1,7.91-.83c1.17,0,3.3-.85,3.62-2.14C83.73,279.8,83.38,277.45,83.25,275.45Z"/><path class="cls-7" d="M123,279.73c-.71-2.2-1.64-4.06-1.65-6.42,0-.45,0-.91,0-1.39a77.14,77.14,0,0,1-8.31,1c-3.93.28-7.94,1.2-11.9,1.09,0,1.16,0,2.34,0,3.43-.09,2.46-1.46,4.88-2.16,7.21a17.8,17.8,0,0,0-.43,6.74c.35,3.1,3.11,5.66,5.72,6.94,5.62,2.75,14.56,1.32,18.6-3.67a10.6,10.6,0,0,0,1.76-3.06,10.28,10.28,0,0,0-.08-5.28A58.23,58.23,0,0,0,123,279.73Z"/><path class="cls-7" d="M110.81,300h0a15.29,15.29,0,0,1-6.65-1.41c-2.49-1.22-5.53-3.83-5.91-7.2a18.22,18.22,0,0,1,.44-6.87c.24-.79.56-1.6.86-2.37a15.15,15.15,0,0,0,1.29-4.76l0-.44c0-1,.07-2,0-3l0-.35h.35a48,48,0,0,0,7.37-.58c1.48-.2,3-.4,4.51-.51a74.75,74.75,0,0,0,8.26-.95l.42-.07,0,.41c0,.51,0,.95,0,1.36a14,14,0,0,0,1.09,4.77c.18.51.37,1,.54,1.56a59,59,0,0,1,1.56,6.59,10.72,10.72,0,0,1,.06,5.45,11.1,11.1,0,0,1-1.81,3.16C120.57,298,115.84,300,110.81,300Zm-9.25-25.7c0,.91,0,1.81,0,2.68v.44a15.57,15.57,0,0,1-1.34,5c-.31.79-.6,1.55-.83,2.31a17.28,17.28,0,0,0-.42,6.61c.34,3.11,3.2,5.54,5.54,6.69a14.55,14.55,0,0,0,6.36,1.34c4.84,0,9.38-1.89,11.84-4.92a10.46,10.46,0,0,0,1.7-3,9.91,9.91,0,0,0-.09-5.12,56.58,56.58,0,0,0-1.54-6.51c-.17-.53-.35-1-.53-1.54a14.61,14.61,0,0,1-1.13-5c0-.31,0-.63,0-1-2.7.46-5.4.7-7.92.88-1.48.11-3,.31-4.47.5A48.5,48.5,0,0,1,101.56,274.3Z"/><path class="cls-8" d="M124.58,286.28a2.5,2.5,0,0,0,0-.29,8.11,8.11,0,0,1-2.43,6.23,16.16,16.16,0,0,1-12.56,4.28c-3.77-.24-7.49-1.5-9.46-4.95a14.88,14.88,0,0,1-1.56-4.18,21.07,21.07,0,0,0,.06,4c.35,3.1,3.11,5.66,5.72,6.94,5.62,2.75,14.56,1.32,18.6-3.67a10.6,10.6,0,0,0,1.76-3.06A10.28,10.28,0,0,0,124.58,286.28Z"/><path class="cls-7" d="M110.81,300h0a15.29,15.29,0,0,1-6.65-1.41c-2.49-1.22-5.53-3.83-5.91-7.2a22.06,22.06,0,0,1-.06-4.05l.18-2.17.47,2.12a14.73,14.73,0,0,0,1.52,4.1c1.66,2.88,4.75,4.5,9.2,4.78.42,0,.85,0,1.27,0a15.5,15.5,0,0,0,11-4.23,7.7,7.7,0,0,0,2.33-6l.65-.08.06.3a10.72,10.72,0,0,1,.06,5.45,11.1,11.1,0,0,1-1.81,3.16C120.57,298,115.84,300,110.81,300Zm-12-10.48c0,.6.06,1.2.12,1.79.34,3.11,3.2,5.54,5.54,6.69a14.55,14.55,0,0,0,6.36,1.34c4.84,0,9.38-1.89,11.84-4.92a10.46,10.46,0,0,0,1.7-3,7.09,7.09,0,0,0,.25-3,8.07,8.07,0,0,1-2.27,4,16.13,16.13,0,0,1-11.5,4.42c-.44,0-.87,0-1.31-.05-4.69-.29-8-2-9.73-5.1A14.19,14.19,0,0,1,98.79,289.52Z"/><path class="cls-9" d="M124.58,286.28a58.23,58.23,0,0,0-1.54-6.55c-.71-2.2-1.64-4.06-1.65-6.42,0-.45,0-.91,0-1.39a77.14,77.14,0,0,1-8.31,1c-3.93.28-7.94,1.2-11.9,1.09,0,1.16,0,2.34,0,3.43-.09,2.46-1.46,4.88-2.16,7.21a17.8,17.8,0,0,0-.43,6.74c.35,3.1,3.11,5.66,5.72,6.94,5.62,2.75,14.56,1.32,18.6-3.67a10.6,10.6,0,0,0,1.76-3.06A10.28,10.28,0,0,0,124.58,286.28Zm-3,1.75a7.16,7.16,0,0,1-4.08,5.78c-2.81,1.3-7.72,2.21-10.95.67a4.47,4.47,0,0,1-1.82-.85,6.15,6.15,0,0,1-1.61-7.08,16.07,16.07,0,0,1,6.5-6.89c2.7-1.5,5.35-.88,7.72,1S121.72,284.9,121.54,288Z"/><path class="cls-9" d="M124.58,286.28a58.23,58.23,0,0,0-1.54-6.55c-.71-2.2-1.64-4.06-1.65-6.42,0-.45,0-.91,0-1.39a77.14,77.14,0,0,1-8.31,1c-3.93.28-7.94,1.2-11.9,1.09,0,1.16,0,2.34,0,3.43-.09,2.46-1.46,4.88-2.16,7.21a17.8,17.8,0,0,0-.43,6.74c.35,3.1,3.11,5.66,5.72,6.94a15.91,15.91,0,0,0,8.85,1.22,13,13,0,0,1-9.13-2.67,7.44,7.44,0,0,1-2.51-3.89,9.67,9.67,0,0,1-.73-7c.7-3.11,1.9-6.41,4.45-8.47,2.23-1.82,5.68-1.75,8.4-1.93a7.62,7.62,0,0,1,7.33,3.31,20,20,0,0,1,3.58,9.09c.71,5-2.92,8.28-7,10.33a.24.24,0,0,1-.06.09,13.08,13.08,0,0,0,5.4-3.78,10.6,10.6,0,0,0,1.76-3.06A10.28,10.28,0,0,0,124.58,286.28Z"/><path class="cls-10" d="M123.78,258.33v0a122.7,122.7,0,0,1-20.62.64c-7.62-.33-15.32-.8-22.9-1.58a58.25,58.25,0,0,1-11.86-2.22c-1.28-.42-2.6-1-4-1.52a7.15,7.15,0,0,0-1.84,1,2.47,2.47,0,0,0-1,2.63.31.31,0,0,0-.32.33c.29,3.68-1.27,7.94-.37,11.59.32,1.3,2.16,1.55,3.17,1.74,3.82.73,7.69,1.12,11.55,1.57q2.85.34,5.69.76c1.11.15,3.16.65,4.1-.23,1.35-1.28,1.1-3.66,1.41-5.36s.6-3.17.87-4.76c.29,0,.55.07.79.11,2.24.38,4.45.91,6.67,1.26a35.24,35.24,0,0,0,2.58,9.53c.69,1.51,2.28,1.44,3.7,1.45,2.62,0,14.64-.65,18.06-1.1,1.41-.18,4.89-.23,5.58-1.9.78-1.92.08-4.73-.11-6.71A47.44,47.44,0,0,0,123.78,258.33Z"/><path class="cls-11" d="M101.53,275.56h-.33c-1.43,0-3,0-3.79-1.64a35.92,35.92,0,0,1-2.57-9.38c-1.14-.19-2.3-.42-3.42-.65s-2-.4-3-.58l-.46-.07c-.18,1-.36,1.92-.53,2.89l-.29,1.56c-.08.45-.13.93-.17,1.45-.12,1.45-.27,3.08-1.35,4.1a2.66,2.66,0,0,1-1.93.6,12.53,12.53,0,0,1-1.94-.21l-.49-.08c-2.28-.32-4-.55-5.69-.75L74,272.62c-3.27-.38-6.66-.76-10-1.4l-.23,0c-1.06-.19-2.85-.52-3.2-1.94a18.75,18.75,0,0,1,.06-6.76,25.16,25.16,0,0,0,.31-4.89.54.54,0,0,1,.15-.46.53.53,0,0,1,.14-.12,2.68,2.68,0,0,1,1.2-2.66,7.06,7.06,0,0,1,1.92-1l.13,0,.11.05c.34.12.66.26,1,.39,1,.41,2,.8,2.93,1.11A58.08,58.08,0,0,0,80.3,257c6.81.7,14.29,1.21,22.88,1.58,2.47.1,4.75.15,7,.15a107.8,107.8,0,0,0,13.61-.79l.43-.05-.06.39a47.11,47.11,0,0,1,1.15,7.16c0,.45.11.95.18,1.47.26,1.8.54,3.84-.09,5.4s-3.33,1.86-5.09,2c-.29,0-.55.05-.76.08C116.1,274.91,104.41,275.56,101.53,275.56Zm-14.13-13,.31,0,.81.11c1,.18,2,.38,3,.58,1.19.25,2.42.5,3.63.68l.24,0,0,.24A35.17,35.17,0,0,0,98,273.65c.57,1.24,1.84,1.24,3.19,1.25h.33c2.86,0,14.5-.65,17.9-1.09.21,0,.48-.06.77-.08,1.52-.15,4-.39,4.55-1.63.57-1.39.29-3.34,0-5.06-.07-.53-.14-1-.18-1.49a48.12,48.12,0,0,0-1.09-6.88,106.57,106.57,0,0,1-13.39.76c-2.22,0-4.51-.05-7-.15-8.6-.37-16.1-.88-22.91-1.59a58.19,58.19,0,0,1-11.93-2.23c-1-.32-2-.73-3-1.13l-.87-.35a6.21,6.21,0,0,0-1.63.89,2.16,2.16,0,0,0-.93,2.34l0,.35h-.35a24.3,24.3,0,0,1-.31,5,18.35,18.35,0,0,0-.07,6.52c.24,1,1.71,1.28,2.69,1.46l.22,0c3.27.62,6.66,1,9.92,1.38l1.6.19c1.67.19,3.43.42,5.71.75l.5.08a11.91,11.91,0,0,0,1.84.2,2.11,2.11,0,0,0,1.48-.42c.9-.85,1-2.28,1.15-3.67a13.38,13.38,0,0,1,.17-1.51l.29-1.58c.2-1.06.39-2.11.58-3.17Z"/><g class="cls-12"><path class="cls-10" d="M118.62,273c-2.77-1.07-3.19-3.44-2.19-6.08a40.62,40.62,0,0,1,2.32-4.73,34.36,34.36,0,0,0,1.58-3.5,131.26,131.26,0,0,1-17.16.28c-7.62-.33-15.32-.8-22.9-1.58a58.25,58.25,0,0,1-11.86-2.22c-1.28-.42-2.6-1-4-1.52a7.15,7.15,0,0,0-1.84,1,2.3,2.3,0,0,0-1.08,2,26,26,0,0,1,2.09,9.14c-.06,1.4-.65,3.82-2.57,3.59h-.12c.43,1.16,2.14,1.4,3.11,1.58,3.82.73,7.69,1.12,11.55,1.57q2.85.34,5.69.76c1.11.15,3.16.65,4.1-.23,1.35-1.28,1.1-3.66,1.41-5.36s.6-3.17.87-4.76c.29,0,.55.07.79.11,2.24.38,4.45.91,6.67,1.26a35.24,35.24,0,0,0,2.58,9.53c.69,1.51,2.28,1.44,3.7,1.45,2.62,0,14.64-.65,18.06-1.1.66-.08,1.78-.15,2.86-.35A13.55,13.55,0,0,1,118.62,273Z"/><path class="cls-11" d="M101.53,275.56h-.33c-1.43,0-3,0-3.79-1.64a35.92,35.92,0,0,1-2.57-9.38c-1.14-.19-2.3-.42-3.42-.65s-2-.4-3-.58l-.46-.07c-.18,1-.36,1.92-.53,2.89l-.29,1.56c-.08.45-.13.93-.17,1.45-.12,1.45-.27,3.08-1.35,4.1a2.66,2.66,0,0,1-1.93.6,12.53,12.53,0,0,1-1.94-.21l-.49-.08c-2.27-.32-4-.55-5.69-.75L74,272.62c-3.27-.38-6.66-.76-10-1.4l-.2,0c-1-.19-2.69-.5-3.16-1.76l-.19-.53L61,269l.06.28h0l0-.26c1.61.19,2.14-2,2.21-3.28a20.25,20.25,0,0,0-1.26-6.86,21.37,21.37,0,0,0-.81-2.14l0-.06v-.08a2.68,2.68,0,0,1,1.22-2.24,7.06,7.06,0,0,1,1.92-1l.13,0,.11.05c.34.12.66.26,1,.39,1,.41,2,.8,2.93,1.11A58.08,58.08,0,0,0,80.3,257c6.81.7,14.29,1.21,22.88,1.58,2.43.1,4.68.15,6.87.15,3.67,0,7-.14,10.25-.42l.53-.05-.19.49a36.65,36.65,0,0,1-1.6,3.54l-.27.48a35.32,35.32,0,0,0-2,4.2c-.73,1.95-1,4.51,2,5.66a13.27,13.27,0,0,0,3.6.78l2.52.17-2.47.48c-.74.14-1.51.22-2.12.28-.29,0-.55.05-.76.08C116.1,274.91,104.41,275.56,101.53,275.56Zm-14.13-13,.31,0,.81.11c1,.18,2,.38,3,.58,1.19.25,2.42.5,3.63.68l.24,0,0,.24A35.17,35.17,0,0,0,98,273.65c.57,1.24,1.84,1.24,3.19,1.25h.33c2.86,0,14.5-.65,17.9-1.09.16,0,.35-.05.56-.07a13.6,13.6,0,0,1-1.48-.45c-2.69-1-3.56-3.41-2.38-6.51a34.45,34.45,0,0,1,2.06-4.28l.27-.49a29.57,29.57,0,0,0,1.37-3c-3.09.26-6.29.39-9.78.39-2.2,0-4.46-.05-6.9-.15-8.6-.37-16.1-.88-22.91-1.59a58.19,58.19,0,0,1-11.93-2.23c-1-.32-2-.73-3-1.13l-.87-.35a6.21,6.21,0,0,0-1.63.89,2,2,0,0,0-1,1.66,19.45,19.45,0,0,1,.82,2.14A20.85,20.85,0,0,1,64,265.76c-.09,1.72-.76,3.72-2.4,3.91a5,5,0,0,0,2.35.87l.2,0c3.27.62,6.66,1,9.92,1.38l1.6.19c1.67.19,3.43.42,5.71.75l.5.08a11.91,11.91,0,0,0,1.84.2,2.11,2.11,0,0,0,1.48-.42c.9-.85,1-2.28,1.15-3.67a13.38,13.38,0,0,1,.17-1.51l.29-1.58c.2-1.05.39-2.11.58-3.17Z"/></g><path class="cls-10" d="M79.94,155.68a6.86,6.86,0,0,0-3-5.85c-2.44-1.64-6.59-2-9.4-2.75-2-.55-4-1.05-6-1.64s-4.34-.76-6.12-1.63a.62.62,0,0,0-.77.95c-1.07,6-3.4,11.72-5,17.6-1.83,6.84-5.13,13-8,19.42-1.28,2.9-4.18,13.8-3.26,15.47s3.57,3.15,5.18,4.14l.85.49c-.3,1.57-.37,3.14.57,4.09,1.92,2,6,1.43,8.37,1.08,8.1-1.16,15.23-8.16,20.47-14.27a14.45,14.45,0,0,0,3.74-6.31,74.31,74.31,0,0,0,2.7-20.15C80.42,162.78,80.09,159.21,79.94,155.68Z"/><path class="cls-13" d="M49.75,207.72h0c-2.25,0-3.84-.5-4.84-1.52s-.95-2.75-.7-4.15l-.65-.38-.64-.39c-1.6-1-3.79-2.29-4.66-3.87-1-1.9,2.09-13.15,3.25-15.76.69-1.56,1.41-3.12,2.12-4.64a92.52,92.52,0,0,0,5.83-14.73c.59-2.21,1.29-4.42,2-6.56a89.61,89.61,0,0,0,3-10.88.94.94,0,0,1,1.25-1.32,16.09,16.09,0,0,0,3.75,1.06c.79.16,1.6.33,2.32.55,1.22.36,2.47.69,3.67,1l2.28.62c.85.24,1.82.43,2.84.64,2.3.46,4.9,1,6.65,2.16,2,1.34,3,3.28,3.1,6.1,0,1.26.13,2.52.21,3.78.13,2.26.27,4.59.27,6.88a75,75,0,0,1-2.7,20.24A15,15,0,0,1,74.22,193c-4.77,5.56-12.14,13.13-20.65,14.36A27.82,27.82,0,0,1,49.75,207.72Zm5.46-63.65a.27.27,0,0,0-.26.17.24.24,0,0,0,0,.29l.1.12,0,.16a90,90,0,0,1-3,11.11c-.69,2.13-1.39,4.34-2,6.53a92.73,92.73,0,0,1-5.86,14.84c-.71,1.51-1.43,3.07-2.12,4.63C40.76,185,38,195.63,38.84,197.09s2.88,2.7,4.42,3.63l.65.39c.27.17.54.33.83.48l.21.11,0,.24c-.38,1.92-.23,3.09.47,3.8.86.87,2.33,1.32,4.37,1.32h0a26.62,26.62,0,0,0,3.72-.34c8.3-1.19,15.54-8.65,20.27-14.15a14.29,14.29,0,0,0,3.68-6.19,74.13,74.13,0,0,0,2.67-20.06c0-2.27-.14-4.59-.27-6.84-.08-1.26-.16-2.53-.21-3.79a6.5,6.5,0,0,0-2.8-5.59c-1.65-1.1-4.18-1.61-6.42-2.06-1-.21-2-.4-2.89-.64l-2.27-.62c-1.21-.32-2.46-.66-3.68-1-.7-.21-1.46-.37-2.27-.53a17,17,0,0,1-3.9-1.12A.38.38,0,0,0,55.21,144.07Z"/><path class="cls-13" d="M67.35,160.2c-.86,3.49-1.21,7-2.33,10.47A47.54,47.54,0,0,1,59.77,181c-.19.3.26.69.5.4,4.85-5.83,6.86-13.69,7.79-21C68.11,159.91,67.45,159.81,67.35,160.2Z"/><path class="cls-13" d="M51.18,186.24a15.77,15.77,0,0,0-2.57,7.68,43.23,43.23,0,0,0-.16,4.41,26.73,26.73,0,0,1-.15,4.85,3.44,3.44,0,0,0-1.75-1.29c-1.45-.63-2.95-1.17-4.45-1.66-.12,0-.21.15-.1.21,1.21.58,2.4,1.19,3.63,1.74.76.34,2.06.73,2.15,1.73a3.3,3.3,0,0,1-.55,1.59,1.33,1.33,0,0,1-1.73.56c-.16-.05-.37.15-.25.32a1.35,1.35,0,0,0,2,.1,3.41,3.41,0,0,0,1.17-2.62,9.88,9.88,0,0,0,.4-2.4c.21-1.79.2-3.62.31-5.41a22.64,22.64,0,0,1,2.42-9.58A.22.22,0,0,0,51.18,186.24Z"/><path class="cls-14" d="M79.94,155.68a6.86,6.86,0,0,0-3-5.85c-2.44-1.64-6.59-2-9.4-2.75-2-.55-4-1.05-6-1.64s-4.34-.76-6.12-1.63a.62.62,0,0,0-.77.95,71,71,0,0,1-2.33,8.93,1.74,1.74,0,0,1,1.6.86c1.06,1.48,1.09,3.63,1,5.37a64.69,64.69,0,0,1-1.76,12.75c-1.05,4.69-3,9-4.44,13.58-.75,2.31-1.27,4.68-1.86,7a17,17,0,0,1-1.49,4.55c-1.54,2.61-3.8,1.88-5.92.25a10.47,10.47,0,0,1-1.07-.91.14.14,0,0,0,0,.07c1,1.72,3.57,3.15,5.18,4.14l.85.49c-.3,1.57-.37,3.14.57,4.09,1.92,2,6,1.43,8.37,1.08,8.1-1.16,15.23-8.16,20.47-14.27a14.45,14.45,0,0,0,3.74-6.31,74.31,74.31,0,0,0,2.7-20.15C80.42,162.78,80.09,159.21,79.94,155.68ZM59.21,186.24a59.75,59.75,0,0,1-1.78,6.84,44.32,44.32,0,0,1-1.89,5.85c-1.06,2.38-3.52,3.79-4.93.89-1.58-3.23-1.17-7.47-.22-10.8a53.76,53.76,0,0,1,2.44-6.52l.24-.91c.64-2.3,1.51-4.53,2.21-6.81.54-1.76,1.07-5.1,2.79-6.19s1,5.93.91,6.38c-.22,1.43-.5,2.85-.76,4.26a16.58,16.58,0,0,0-.59,3.47C57.71,184.27,59.48,184.61,59.21,186.24Z"/><path class="cls-14" d="M45.15,206a4.18,4.18,0,0,0,1.66,1,1.62,1.62,0,0,0,.91-.57c.89-1.12,1-3.37-.43-4.15a13.06,13.06,0,0,0-4-1.13l.44.27.85.49C44.28,203.45,44.21,205,45.15,206Z"/><path class="cls-7" d="M25.64,130.23a8.45,8.45,0,0,0-.44-1.64,10.1,10.1,0,0,1-.34-2.68c0-.14-.22-.15-.23,0a8.72,8.72,0,0,0,.34,3.18,8.09,8.09,0,0,1,.45,3.08c0,.06.09.09.11,0A3.52,3.52,0,0,0,25.64,130.23Z"/><path class="cls-15" d="M77.91,134.79s-7.57.11-13.06-1.86-8-3.29-15.15,0-14.7,3.51-20.29-1.87-4.94-4-5.05,1-4.83,22.06-6,23,10.1,8,19,8.11,18.33-1.53,26-10A106.16,106.16,0,0,1,57.5,202.5c-9.66,25.9-19.42,45-16.14,48.83s12,2.63,19.21,9.32,24.25,13.39,38.3,12.4,24.91-3.4,30.28-9,8.78-6.48,8.78-6.48,1.21-1.81-.69-9.13-17.74-53.85-16.87-82.16c0,0-.87-13.17,4.17,6.14s7.46,26.34,9,27.43,9.37,1.86,15.33-1.75,8.95-8.33,8.32-9.5-7.52-9.16-14.11-28.14-9.1-30.61-24.35-32.92S88.55,137,77.91,134.79Z"/><path class="cls-16" d="M96,273.48c-13.81,0-29-6.4-35.68-12.58-4-3.69-8.32-4.92-12.14-6-3-.85-5.58-1.59-7.09-3.36-2.46-2.86,1.64-13,7.85-28.28,2.52-6.21,5.37-13.25,8.22-20.88A107.55,107.55,0,0,0,63.08,154c-8.14,8.58-18.12,9.59-25,9.59H37.3c-8.16-.1-18.64-6-19.35-8a.6.6,0,0,1,.16-.69c1-.82,5.81-17.68,5.92-22.8,0-.52,0-1,0-1.44,0-2.06,0-3.3,1-3.3.72,0,1.79.83,4.6,3.53A14.48,14.48,0,0,0,40,135a23.07,23.07,0,0,0,9.57-2.32,18,18,0,0,1,7.52-2c2.32,0,4.33.74,6.87,1.66l1,.37c4.89,1.75,11.46,1.85,12.73,1.85H78a13.66,13.66,0,0,0,2.78.27h0c4.28,0,9.21-1.69,14.42-3.47,6.24-2.14,12.7-4.35,19.45-4.35a28.49,28.49,0,0,1,4.16.3c14.08,2.13,17.41,11.95,22.94,28.22q.79,2.37,1.68,4.92c5.59,16.12,11.46,24.36,13.39,27.07a10,10,0,0,1,.69,1c.79,1.47-2.41,6.29-8.44,9.94a20.65,20.65,0,0,1-10.44,2.71h0c-2.33,0-4.44-.39-5.25-1-1.45-1-3.48-6-9.12-27.61-2.16-8.23-3.08-9.9-3.39-10.22a14,14,0,0,0-.14,4c-.74,23.85,10.33,60.37,15.06,76,.87,2.89,1.5,5,1.8,6.13,1.91,7.38.69,9.32.65,9.4l-.07.1-.13,0s-3.39,1-8.62,6.38c-4.89,5.09-14.58,8-30.5,9.1C98,273.45,97,273.48,96,273.48Zm-32.5-121,.11.67a107.53,107.53,0,0,1-5.84,49.43c-2.84,7.63-5.7,14.68-8.22,20.9-5.9,14.54-10.15,25.05-8,27.6,1.38,1.62,3.88,2.33,6.76,3.15,3.7,1.05,8.31,2.37,12.42,6.15,6.59,6.1,21.58,12.41,35.23,12.41,1,0,1.9,0,2.81-.09,15.75-1.11,25.31-3.94,30.08-8.91s8.05-6.28,8.78-6.51c.18-.45.81-2.63-.78-8.78-.29-1.15-.92-3.22-1.79-6.1C130.4,226.8,119.3,190.2,120,166.27c-.06-.87-.21-3.89.37-4.52a.52.52,0,0,1,.39-.18c.46,0,1.24,0,4.06,10.78,4.77,18.26,7.34,26.15,8.87,27.24.57.42,2.34.85,4.87.85h0a20,20,0,0,0,10.11-2.62c5.92-3.58,8.68-8.17,8.19-9.06-.08-.15-.32-.49-.65-.95-1.94-2.73-7.85-11-13.47-27.23-.6-1.7-1.15-3.35-1.69-4.93-5.44-16-8.73-25.71-22.41-27.77a27,27,0,0,0-4.06-.3c-6.65,0-13.05,2.19-19.24,4.31-5.26,1.81-10.23,3.51-14.63,3.51a14,14,0,0,1-2.88-.28h-.18c-1.29,0-8-.1-13-1.89l-1-.37c-2.58-.94-4.44-1.62-6.64-1.62a17.27,17.27,0,0,0-7.24,2A23.61,23.61,0,0,1,40,135.61a15.1,15.1,0,0,1-10.82-4.31C27.5,129.69,25.66,128,25,128c-.32,0-.33,1.35-.33,2.64,0,.45,0,.93,0,1.46-.11,4.65-4.63,21.82-6.12,23.26.23,1.15,10.14,7.46,18.74,7.57h.8c14.31,0,21.1-5.64,25-9.88Z"/><path class="cls-17" d="M143.17,196.4c0-1.76,1.66-3.14,2.08-4.79a15.89,15.89,0,0,0-.22-7.72c-1.22-4.95-3.07-9.78-4.66-14.62-1.66-5.06-3.32-10.12-5.21-15.09-1.8-4.76-5.6-9.41-5.78-14.66-.06-1.75.65-3.49,2.61-3.66a7.06,7.06,0,0,1,.92,0c-3.22-4.47-7.46-7.29-14.18-8.31-15.26-2.3-30.18,9.44-40.82,7.24,0,0-7.57.11-13.06-1.86a44.07,44.07,0,0,0-5.22-1.71,12.89,12.89,0,0,0-8.41,3.62c-2.92,2.94-5.54,7.79-10,8.63-8.76,1.66-11.14-10.19-15.94-15.78-1.11-.37-.9,1.33-1,4.36-.11,4.94-4.83,22.06-6,23s10.1,8,19,8.11,18.33-1.53,26-10a97.45,97.45,0,0,1,.18,23.17c.67.12,1.35.23,2,.36,2.26.42,4.4,1.13,6.61,1.73,2.47.67,5,1.14,7.47.17a10.85,10.85,0,0,0,5.28-4.19A30.24,30.24,0,0,0,87.74,167a33,33,0,0,0,1.14-5.27c.12-1.06,1.66-10.16,3.62-9.36,1.74.71,2,9.58,2.19,11.09.51,3.73.31,8.1,2.9,10.93,3,3.33,7.82,4.64,12.23,4.47,3.68-.14,7.27-1.21,10.93-1.49a96.13,96.13,0,0,1-.38-11.06s-.87-13.17,4.17,6.14,7.46,26.34,9,27.43c1.34,1,7.48,1.66,13-.58C144.8,199.15,143.14,198.44,143.17,196.4Z"/><path class="cls-17" d="M135.54,198.6a34.5,34.5,0,0,1-6.36-19.16,9.72,9.72,0,0,1,3.12-7.65c1.56-1.52,2.86-3,2.92-5.28a22.28,22.28,0,0,0-1.05-7.07,93.54,93.54,0,0,0-4.91-12.3,41.16,41.16,0,0,1-3.23-8c-.46-2-.83-4.72,1.39-5.74a5.53,5.53,0,0,1,3-.36,20.33,20.33,0,0,0-11.72-5.44c-15.26-2.3-30.18,9.44-40.82,7.24,0,0-7.57.11-13.06-1.86a48.49,48.49,0,0,0-5.06-1.67,3.12,3.12,0,0,1,.62.73c1.51,2.39.6,5.76-.24,8.22a33.34,33.34,0,0,1-4.48,8.92C50.9,155.66,40.9,159.21,33,157.32c-3.06-.73-7.18-2.22-8.47-5.43-1.11-2.74-.11-5.73.58-8.45a28.49,28.49,0,0,0,.85-9.06,15.24,15.24,0,0,0-1.48-6.19,25.5,25.5,0,0,0-.16,3.86c-.11,4.94-4.83,22.06-6,23s10.1,8,19,8.11,18.33-1.53,26-10a93.8,93.8,0,0,1,.48,19.59c5.61,2.34,12.29,4.52,17.58.89,6.09-4.19,6.14-13.09,7.08-19.69a29.79,29.79,0,0,1,1-5.79c.33-.92.91-2.55,2-2.88,2.33-.71,3,4.9,3.33,6.14,1.29,5,2.31,10.15,3.74,15.15,1,3.56,2,8.8,6.23,9.86,4.83,1.22,9.73-.95,14.37-2a9.28,9.28,0,0,1,1.39-.22c-.17-2.78-.22-5.46-.15-8,0,0-.87-13.17,4.17,6.14s7.46,26.34,9,27.43a8.81,8.81,0,0,0,3.94.88A13.32,13.32,0,0,1,135.54,198.6Z"/><path class="cls-16" d="M22.2,151.55a25.85,25.85,0,0,0,4.23-6.74,21.4,21.4,0,0,0,1.08-10.34c-.22-2.26-.47-5.65-2.86-6.6-.34.55-.24,2-.29,4.18-.11,4.94-4.83,22.06-6,23-.13.11-.1.29.05.54C19.73,154.85,21.78,152.08,22.2,151.55Z"/><path class="cls-16" d="M18.27,156.08l-.18-.27c-.36-.57-.1-.87,0-1,1-.82,5.81-17.68,5.92-22.8,0-.52,0-1,0-1.44a7.08,7.08,0,0,1,.31-2.89l.15-.25.25.11c2.5,1,2.82,4.24,3.06,6.62l0,.25a21.47,21.47,0,0,1-1.1,10.49,26.51,26.51,0,0,1-4.28,6.83l-.21.26a18.62,18.62,0,0,1-3.71,3.9Zm6.56-27.76a12.39,12.39,0,0,0-.12,2.29c0,.44,0,.93,0,1.45-.1,4.34-4.05,19.59-5.79,22.77a26.1,26.1,0,0,0,2.83-3.21l.21-.27a26.21,26.21,0,0,0,4.19-6.66,21.11,21.11,0,0,0,1.06-10.19l0-.24C27,132.16,26.68,129.32,24.83,128.32Z"/><g class="cls-5"><path class="cls-16" d="M22.2,151.55a25.85,25.85,0,0,0,4.23-6.74,21.4,21.4,0,0,0,1.08-10.34c-.22-2.26-.47-5.65-2.86-6.6-.34.55-.24,2-.29,4.18-.11,4.94-4.83,22.06-6,23-.13.11-.1.29.05.54C19.73,154.85,21.78,152.08,22.2,151.55Z"/><path class="cls-16" d="M18.27,156.08l-.18-.27c-.36-.57-.1-.87,0-1,1-.82,5.81-17.68,5.92-22.8,0-.52,0-1,0-1.44a7.08,7.08,0,0,1,.31-2.89l.15-.25.25.11c2.5,1,2.82,4.24,3.06,6.62l0,.25a21.47,21.47,0,0,1-1.1,10.49,26.51,26.51,0,0,1-4.28,6.83l-.21.26a18.62,18.62,0,0,1-3.71,3.9Zm6.56-27.76a12.39,12.39,0,0,0-.12,2.29c0,.44,0,.93,0,1.45-.1,4.34-4.05,19.59-5.79,22.77a26.1,26.1,0,0,0,2.83-3.21l.21-.27a26.21,26.21,0,0,0,4.19-6.66,21.11,21.11,0,0,0,1.06-10.19l0-.24C27,132.16,26.68,129.32,24.83,128.32Z"/></g><path class="cls-18" d="M66.82,129.41s-7.45,20.2-10.75,30.07-.44,10.75,9.66,14.27,15.58,3.29,18-6.15,5.71-20,5-22.6-7.24-6.36-7.9-12.51,9-6.59,15.14-5.49,6.15,8.56,1.32,13.83-1.1,10.31.44,16.9S101.28,174,105,175.07s10.54.87,17.78-1.76,9.21-4.39,7.9-9-11.86-37.53-12.29-40.6-16.46-.22-28.09-.44S70.34,119.76,66.82,129.41Z"/><path class="cls-19" d="M75.11,176.16c-2.38,0-5.31-.64-9.49-2.1l-.31-.11c-9.92-3.45-12.91-4.49-9.55-14.57,3.25-9.77,10.68-29.87,10.75-30.08,2.89-7.94,8.91-7.39,17-6.75,2.17.17,4.41.35,6.85.39,4.2.08,8.9-.24,13.41-.54,3.43-.23,6.66-.45,9.21-.45,3.88,0,5.61.51,5.78,1.71.29,2,5.16,17.62,8.71,29,1.76,5.62,3.14,10.06,3.58,11.57,1.41,5-.9,6.77-8.11,9.39a38.37,38.37,0,0,1-12.75,2.4,18.9,18.9,0,0,1-5.23-.63c-3.67-1.08-5.6-9.48-7.16-16.22l-.31-1.36c-.36-1.55-.85-3-1.32-4.44-1.53-4.61-2.85-8.6,1-12.76,2.79-3,4-7,3-9.87a5,5,0,0,0-4.19-3.4,29.91,29.91,0,0,0-5.26-.47c-4.1,0-7.14.88-8.55,2.46a3.85,3.85,0,0,0-.94,3.14c.4,3.73,3.06,6.56,5.21,8.84,1.34,1.42,2.41,2.55,2.68,3.62.52,2.08-1.21,8.45-3.2,15.83-.62,2.29-1.26,4.64-1.85,6.94C82.54,173.55,79.79,176.16,75.11,176.16Zm2.49-53.27c-4.83,0-8.46,1.13-10.47,6.64-.07.2-7.49,20.3-10.74,30.06-3.16,9.46-.8,10.28,9.13,13.74l.32.11c4.11,1.43,7,2.07,9.27,2.07,4.39,0,6.86-2.4,8.3-8,.58-2.29,1.22-4.66,1.84-7,1.89-7,3.68-13.58,3.2-15.49-.23-.9-1.29-2-2.52-3.33-2.21-2.35-5-5.27-5.39-9.23a4.52,4.52,0,0,1,1.1-3.64c2.1-2.33,6.57-2.68,9-2.68a31.28,31.28,0,0,1,5.38.48,5.73,5.73,0,0,1,4.7,3.84c1,3.08-.24,7.31-3.2,10.53-3.54,3.87-2.34,7.5-.82,12.1.48,1.43,1,2.92,1.34,4.5L98.4,159c1.44,6.23,3.41,14.77,6.7,15.74a18.44,18.44,0,0,0,5.05.6A37.79,37.79,0,0,0,122.68,173c7.39-2.68,8.9-4.38,7.69-8.6-.43-1.5-1.81-5.94-3.57-11.56-3.55-11.39-8.43-27-8.73-29.08-.11-.77-1.84-1.16-5.13-1.16-2.53,0-5.75.23-9.16.45-4.53.31-9.24.63-13.48.55-2.45,0-4.7-.23-6.88-.39S79.37,122.89,77.6,122.89Z"/><path class="cls-20" d="M130.69,164.31c-1.32-4.61-11.86-37.53-12.29-40.6s-16.46-.22-28.09-.44-20-3.51-23.49,6.14c0,0-7.45,20.2-10.75,30.07-2.44,7.31-1.5,9.69,3.23,11.85a7.6,7.6,0,0,1-.79-2.22c-.63-3.87.19-8.05,1.31-11.76a68,68,0,0,1,4.39-11.19c1.13-2.22,2.85-5.09,5.54-5.58,2-.36,12.71-.35,11.39,3.68-.37,1.14-1.39,2.38-1,3.64a7.59,7.59,0,0,0,1.77,2.34c.53.66,1.58,1.84,1.22,2.8-.82,2.18-5.36,1.38-5.14,4.33.17,2.26,2.63,3.8,2.5,6.12a2.37,2.37,0,0,1-1.66,1.95,8.32,8.32,0,0,0-2.75.8,2.83,2.83,0,0,0-1.29,2.91c.09,1.37.51,3.15-.39,4.37a4.87,4.87,0,0,1-3,1.88c6.55,1.37,10.4-.32,12.31-7.8,2.42-9.43,5.71-20,5-22.6s-7.24-6.36-7.9-12.51,9-6.59,15.14-5.49,6.15,8.56,1.32,13.83-1.1,10.31.44,16.9S101.28,174,105,175.07a24.68,24.68,0,0,0,9.93.25c-2.4-.13-4.65-.84-6.15-2.93-2.69-3.75-3.89-8.5-5.58-12.74s-3.55-8.38-3.85-12.85c-.09-1.35-.12-2.83.94-3.85s2.24-1.35,3.16-2.26a5.93,5.93,0,0,0,1.48-2.94,3.12,3.12,0,0,1,.63-1.41c1-1,2.31-1.06,3.66-1,3,.18,7.15-.34,8.68,3a44.56,44.56,0,0,1,1.6,5.47c.77,2.42,1.65,4.8,2.52,7.19a93.18,93.18,0,0,1,4.37,15.28A10.29,10.29,0,0,1,126,172C130.59,170,131.78,168.15,130.69,164.31Z"/><path class="cls-21" d="M99.5,141.3a6.52,6.52,0,0,0,2-2.06c.31-.63.57-1.3.92-1.91a3.92,3.92,0,0,1,.47-.64,3.43,3.43,0,0,1,.46-.62c1.23-1.31,3-1.51,4.67-1.68,2.81-.28,5.63-.44,8.44-.68,1.51-.13,3.06-.4,4.6-.58-1.46-4.8-2.52-8.48-2.65-9.42-.44-3.07-16.46-.22-28.09-.44s-20-3.51-23.49,6.14l-2.15,5.89A16.46,16.46,0,0,0,71,138.84,33.43,33.43,0,0,0,77.74,140a15.76,15.76,0,0,1,5,.81c2,.78,3.87,3.77,2.23,5.62-1.22,1.36-.16,2.37.42,3.62a3.33,3.33,0,0,1,.07,1.6,13.6,13.6,0,0,1-.67,3.92c-.67,1.49-1.83,1.59-3.11,2.39s-.23,2.77,0,4a5.94,5.94,0,0,1-2.16,5.76c-.4.32-1.29.68-1.38,1.23-.23,1.39,1.33,2.77.37,4.11a6,6,0,0,1-2.59,2.1,9.39,9.39,0,0,1-2.36.59c5.27.57,8.49-1.5,10.19-8.14,2.42-9.43,5.71-20,5-22.6s-7.24-6.36-7.9-12.51,9-6.59,15.14-5.49,6.15,8.56,1.32,13.83-1.1,10.31.44,16.9S101.28,174,105,175.07a16,16,0,0,0,3.21.54,4.85,4.85,0,0,1-.67-.61,28.3,28.3,0,0,1-5.55-9.46c-1.36-3.61-2.39-7.36-3.4-11.09-.82-3-1.79-6.54-1.13-9.68A5.55,5.55,0,0,1,99.5,141.3Z"/><path class="cls-22" d="M86.23,147a1.67,1.67,0,1,1-1.67-1.67A1.66,1.66,0,0,1,86.23,147Z"/><path class="cls-7" d="M84.56,149a2,2,0,1,1,2-2A2,2,0,0,1,84.56,149Zm0-3.33A1.34,1.34,0,1,0,85.9,147,1.34,1.34,0,0,0,84.56,145.7Z"/><path class="cls-22" d="M83.05,158.71a1.67,1.67,0,1,1-1.66-1.66A1.66,1.66,0,0,1,83.05,158.71Z"/><path class="cls-7" d="M81.39,160.71a2,2,0,1,1,2-2A2,2,0,0,1,81.39,160.71Zm0-3.34a1.34,1.34,0,1,0,1.34,1.34A1.35,1.35,0,0,0,81.39,157.37Z"/><path class="cls-22" d="M79.82,169.52a1.67,1.67,0,1,1-1.68-1.67A1.68,1.68,0,0,1,79.82,169.52Z"/><path class="cls-7" d="M78.14,171.52a2,2,0,1,1,2-2A2,2,0,0,1,78.14,171.52Zm0-3.34a1.34,1.34,0,1,0,1.34,1.34A1.34,1.34,0,0,0,78.14,168.18Z"/><path class="cls-3" d="M26.79,142.25a21.79,21.79,0,0,0,.44-5.86,30.17,30.17,0,0,0-.87-5.84,6.33,6.33,0,0,0-.54-1.3c-.33-.45-.71-.87-1-1.32-.09-1.21.11-2.52,0-3.61s-1.09-3.6-2-4.17a5.23,5.23,0,0,1-2.55-2.57A13.94,13.94,0,0,0,19,115.16a2.12,2.12,0,0,0-1.13-.82,16,16,0,0,0-1.18-1.73c-1.14-1.35-2.22-2.72-3.31-4.1a5.77,5.77,0,0,0-2.68-2.11,1.35,1.35,0,0,0-1.57.92c-.49,2.75,1.88,5.25,3.34,7.33,1,1.48,2.81,3.83,3.81,5.33a25.73,25.73,0,0,1-2.89-2.1c-1.47-1.06-3-2-4.54-3C7.64,114,6.27,113,4.67,113.31c-1,.17-.91.83-.8,1.67.18,1.34,1.86,2.34,2.89,3a18,18,0,0,1,4.3,3.78c.34.42,1.91,2.21,2.22,2.65-1-.59-3.38-2.44-4.4-2.86-2-.81-5.21-2.51-7.37-1.65-.79.31-.77,1.15-.6,1.82.26,1,1.44,1.6,2.27,2.08,1.34.79,8.13,3.84,8.62,4-.18,0-6.82-1.47-8.35-1.59a4.38,4.38,0,0,0-2.77.36c-1.33.94,1.47,2.49,2,2.72a16.11,16.11,0,0,0,3.68.64c.88.14,1.95.16,2.9.38,1.11,1.05,1.44,2.8,2.17,4.21a19.83,19.83,0,0,0,3.2,4.92c1,1,2.75,2.11,4.16,1.41,1.13-.56,2.1-1.5,3.36-.74s2.17,1.46,3.23,2.22l1.18.75C26.66,142.78,26.73,142.52,26.79,142.25Z"/><path class="cls-4" d="M26.81,143.58l-.39-.25-.84-.54-.35-.22-.64-.46c-.83-.59-1.68-1.21-2.57-1.75s-1.54-.11-2.35.37c-.23.13-.45.26-.69.38a2.44,2.44,0,0,1-1.11.25,5.39,5.39,0,0,1-3.44-1.71,18.1,18.1,0,0,1-3-4.51l-.27-.49a15.42,15.42,0,0,1-.67-1.57,7.32,7.32,0,0,0-1.37-2.5,15.28,15.28,0,0,0-1.69-.23c-.38,0-.75-.07-1.1-.12s-.7-.09-1.07-.13a9.89,9.89,0,0,1-2.69-.54S.14,128.46,0,127.23a1,1,0,0,1,.48-1,3.26,3.26,0,0,1,1.9-.47c.36,0,.7,0,1,0h.06c.88.07,3.32.55,5.36,1-2.2-1-5-2.29-5.81-2.77l-.28-.16c-.84-.47-1.88-1.06-2.15-2.13s0-1.89.79-2.2a3.87,3.87,0,0,1,1.48-.26,14.41,14.41,0,0,1,5.24,1.52l.9.39a17.73,17.73,0,0,1,2.56,1.6l-.76-.89a17.93,17.93,0,0,0-4.2-3.7c-1.07-.64-2.85-1.7-3.06-3.19-.1-.81-.24-1.82,1.07-2a3.39,3.39,0,0,1,.64-.06A6.87,6.87,0,0,1,9,114.53l.08.06c.66.46,1.34.89,2,1.33.84.55,1.71,1.1,2.54,1.7.34.24.81.61,1.28,1a.35.35,0,0,0,.09.07c-.42-.59-.87-1.21-1.32-1.82s-1-1.43-1.44-2l-.77-1.06c-1.43-1.92-3.06-4.08-2.63-6.51a1.7,1.7,0,0,1,2-1.19,6,6,0,0,1,2.85,2.22l.27.34c1,1.24,2,2.53,3,3.76a13.09,13.09,0,0,1,1,1.46l.14.21a2.49,2.49,0,0,1,1.18.91,11.53,11.53,0,0,1,1.08,2.13l.14.34a4.93,4.93,0,0,0,2.4,2.41c1.07.66,2.08,3.34,2.19,4.43a12.55,12.55,0,0,1,0,1.84c0,.56,0,1.14,0,1.69.16.21.33.41.49.61s.33.41.49.63a6.21,6.21,0,0,1,.6,1.4,31.22,31.22,0,0,1,.88,5.9,21.75,21.75,0,0,1-.45,5.95c0,.2-.09.4-.14.6Zm-5.59-4.12a2.1,2.1,0,0,1,1.14.34c.91.55,1.77,1.18,2.62,1.78l.63.45.33.21.45.28c0-.11.05-.23.08-.34a21.24,21.24,0,0,0,.43-5.77,29.42,29.42,0,0,0-.86-5.77,6,6,0,0,0-.51-1.23c-.12-.16-.29-.37-.45-.56s-.38-.48-.56-.73l-.06-.07V128c0-.61,0-1.24,0-1.85a11.41,11.41,0,0,0,0-1.76c-.09-1-1.09-3.45-1.86-3.92a5.52,5.52,0,0,1-2.67-2.72l-.15-.34a10.89,10.89,0,0,0-1-2,1.84,1.84,0,0,0-1-.69l-.11,0-.26-.41a13.4,13.4,0,0,0-1-1.38c-1-1.24-2.06-2.53-3-3.78l-.27-.34a5.59,5.59,0,0,0-2.51-2,1,1,0,0,0-1.16.66c-.39,2.15,1.15,4.2,2.51,6,.27.37.54.72.78,1.07.4.57.91,1.27,1.44,2,.86,1.19,1.75,2.42,2.37,3.35l.11.16-.17.39h-.21c-.17,0-.25,0-1.81-1.24-.46-.36-.94-.71-1.27-1-.81-.6-1.67-1.15-2.5-1.69s-1.37-.87-2-1.34l-.08-.06a6.25,6.25,0,0,0-3.36-1.49,3,3,0,0,0-.52,0c-.63.11-.66.36-.53,1.31.16,1.18,1.77,2.14,2.73,2.72a18,18,0,0,1,4.38,3.86c.13.15.42.48.74.87.61.7,1.3,1.5,1.5,1.79l.81,1.18-1.24-.7c-.44-.25-1.08-.7-1.75-1.17a18.06,18.06,0,0,0-2.62-1.67l-.92-.39a13.74,13.74,0,0,0-5-1.48,3.17,3.17,0,0,0-1.23.22c-.46.18-.6.66-.4,1.43s1.07,1.28,1.84,1.72l.27.16c1.37.8,8.13,3.82,8.57,4l2.53.92-2.68-.28-1-.21c-1.84-.39-6.16-1.29-7.32-1.38H3.36c-.31,0-.63,0-1,0a2.57,2.57,0,0,0-1.51.36c-.24.17-.23.29-.22.35.07.61,1.58,1.54,2.18,1.8a9.47,9.47,0,0,0,2.52.48l1.09.13c.34.06.69.09,1.06.13a14.75,14.75,0,0,1,1.87.26l.08,0,.07.06a7.54,7.54,0,0,1,1.59,2.8,13.31,13.31,0,0,0,.65,1.5l.26.5a17.28,17.28,0,0,0,2.87,4.35,4.85,4.85,0,0,0,3,1.51,1.86,1.86,0,0,0,.82-.18c.22-.11.43-.24.64-.36A3.9,3.9,0,0,1,21.22,139.46Z"/><path class="cls-4" d="M21.81,119.3A17.41,17.41,0,0,1,20.08,116c-.3-.66-.76-1.62-1.63-1.66-2.23-.12-2.56,2.9-2.52,4.5a7.57,7.57,0,0,0,.67,3.32c.83,1.7,2.39,3,1.92,5.08-.26,1.15-.95,1.82-.87,3.09a3.87,3.87,0,0,0,.84,2.52.08.08,0,0,0,.12-.09,5.36,5.36,0,0,1-.57-2.87c.05-1,.86-2,1.08-3,.35-1.55-.79-2.86-1.44-4.13-1.08-2.13-1.81-5.41,0-7.39,1.13-1.26,2,1.42,2.16,1.81s.24.64.4,1a2.69,2.69,0,0,0,1.37,1.35C21.71,119.57,21.91,119.44,21.81,119.3Z"/><path class="cls-23" d="M27.23,136.39a30.17,30.17,0,0,0-.87-5.84,6.33,6.33,0,0,0-.54-1.3c-.33-.45-.71-.87-1-1.32,0-.21,0-.42,0-.63a3.65,3.65,0,0,1-.65.84,2.45,2.45,0,0,1-2.6.39A2.94,2.94,0,0,1,20.43,126a10.44,10.44,0,0,0-1.68-5.11,7,7,0,0,1-1.36-3.09,4.5,4.5,0,0,1,.83-3.33l-.32-.13a16,16,0,0,0-1.18-1.73c-1.14-1.35-2.22-2.72-3.31-4.1a5.77,5.77,0,0,0-2.68-2.11,1,1,0,0,0-.43,0,22.16,22.16,0,0,1,3.3,3.74c.84,1.27,2.24,2.79,2.49,4.34.38,2.37-1.8,1.77-3,.63-.43-.41-.84-.85-1.24-1.31.23.3.45.59.64.87,1,1.48,2.81,3.83,3.81,5.33a25.73,25.73,0,0,1-2.89-2.1c-1.47-1.06-3-2-4.54-3a6.7,6.7,0,0,0-3.63-1.6,14.42,14.42,0,0,1,6.69,4.17A13.32,13.32,0,0,1,14.38,120c.72.93,2.29,2.32,1.92,3.65-.28,1-1.59.41-2.13,0-1.42-1-2.73-2.17-4.13-3.2l-.32-.16a16,16,0,0,1,1.34,1.45c.34.42,1.91,2.21,2.22,2.65-1-.59-3.38-2.44-4.4-2.86-2-.81-5.21-2.51-7.37-1.65a1,1,0,0,0-.51.42c1.5-.54,3.55.11,4.9.71a16.63,16.63,0,0,1,4.51,2.72A9.79,9.79,0,0,1,13.46,126c.41.51.61,1.35-.3,1.4a8.43,8.43,0,0,1-3.79-1.16l-.2-.09a20.27,20.27,0,0,1-5.17-2,15.59,15.59,0,0,1-2.75-1.75,6.46,6.46,0,0,0,1.93,1.38c1.34.79,8.13,3.84,8.62,4-.18,0-6.82-1.47-8.35-1.59a4.38,4.38,0,0,0-2.77.36.69.69,0,0,0-.33.75c1.83-1.08,6-.34,7.91.41,1.62.22,4,.67,3.72,1.81-.23.85-1.51.94-2.59.75l-.06.05c1.08,1.05,1.41,2.78,2.14,4.18a19.83,19.83,0,0,0,3.2,4.92c1,1,2.75,2.11,4.16,1.41,1.13-.56,2.1-1.5,3.36-.74s2.17,1.46,3.23,2.22l1.18.75c.06-.27.13-.53.19-.8A21.79,21.79,0,0,0,27.23,136.39Zm-6.71,1.09a3.48,3.48,0,0,1-3.73,2.58,5.05,5.05,0,0,1-3.35-2.59,8.42,8.42,0,0,1-1-2.78,4.6,4.6,0,0,1-.26-2A1.93,1.93,0,0,1,12.8,131c.48-.51,3.23-2.31,2.94-3.37s.21-3.43,1.76-3c.61.19.8,1.1.63,1.61-.48,1.49-2,2.7-1.83,4.38a4.26,4.26,0,0,0,2.23,3.44,5.05,5.05,0,0,1,1.36.93A2.8,2.8,0,0,1,20.52,137.48Z"/><path class="cls-18" d="M50.83,110.55S31.16,97.27,30.17,75.05,45.32,3.94,92.39.48,152.14,51.84,153,55.29s3.79,17.62-3.29,29.14S137,103.85,135.52,109.28s-2,5.93-.5,8.23,1.65,3.63-.82,5.27-2.31,1.15-1,3.12,1.93,10.26-1.37,8-16.59-6.36-28.14-1c-6.19,2.86-13,6.58-28.43,3.07s-15.35-6.47-22.93-4.28c0,0-2.85-1.53-1.43-3.18s1.43-1.86.23-3.19.76-4.6,1.31-6.47c0,0-3.36-3.12-2.7-5.09Z"/><path class="cls-19" d="M86.72,137.75a51.62,51.62,0,0,1-11.52-1.43,105.64,105.64,0,0,1-12.27-3.54c-2.65-.93-4.25-1.48-6.18-1.48a15.16,15.16,0,0,0-4.32.74l-.13,0-.12-.06c-.06,0-1.73-.95-2-2.21a1.74,1.74,0,0,1,.46-1.48c1.33-1.53,1.3-1.55.22-2.74s-.15-3.25.61-5.13c.22-.53.43-1,.57-1.47-.67-.66-3.27-3.38-2.63-5.3l1-3C48.33,109.17,30.77,96,29.85,75.06,29.39,64.79,32.55,47,43,30.55,51.11,17.74,66.28,2.07,92.37.15,93.79.05,95.22,0,96.61,0c18.22,0,33.13,8.78,44.33,26.09a97.22,97.22,0,0,1,12.32,29.05l0,.08c1.24,5.19,3.39,18.44-3.33,29.38-1.69,2.75-3.27,5.25-4.79,7.66-4.76,7.56-8.21,13-9.33,17.11-.21.77-.4,1.44-.57,2-1,3.53-1.15,4.07,0,5.93,1.52,2.36,1.8,3.9-.92,5.71l-.78.52c-.53.33-1,.62-1,.75a2.49,2.49,0,0,0,.45.77l.44.64c.95,1.43,1.63,6.14.59,8.07a1.41,1.41,0,0,1-1.25.86,2.22,2.22,0,0,1-1.18-.43c-2.08-1.39-8.1-3.6-15.34-3.6a29.59,29.59,0,0,0-12.48,2.6l-.94.43C98.78,135.58,94.12,137.75,86.72,137.75Zm-30-7.11c2,0,3.78.6,6.4,1.51a102.54,102.54,0,0,0,12.2,3.53,51.5,51.5,0,0,0,11.37,1.42c7.25,0,11.84-2.14,15.89-4l.94-.44A30.17,30.17,0,0,1,116.31,130c7.39,0,13.56,2.28,15.71,3.71a1.53,1.53,0,0,0,.81.32c.1,0,.4,0,.67-.51.9-1.67.29-6.12-.56-7.4l-.43-.62c-.41-.58-.63-.9-.56-1.28s.46-.64,1.29-1.18l.78-.51c2.3-1.53,2.1-2.67.73-4.81s-1.14-2.85-.12-6.46c.17-.59.36-1.27.56-2,1.15-4.18,4.61-9.68,9.42-17.29,1.52-2.41,3.09-4.9,4.78-7.65,6.59-10.73,4.47-23.78,3.25-28.89l0-.08a96.59,96.59,0,0,0-12.24-28.84C129.32,9.33,114.58.65,96.61.65c-1.38,0-2.78.06-4.19.17C66.6,2.71,51.59,18.22,43.54,30.91,33.86,46.16,30,64.06,30.51,75c1,21.79,20.32,35.11,20.51,35.25l.21.13-1.16,3.48c-.49,1.46,1.71,3.93,2.6,4.75l.15.14-.06.2a16.66,16.66,0,0,1-.64,1.72c-.67,1.61-1.5,3.62-.74,4.43,1.33,1.46,1.3,1.87-.22,3.62a1.09,1.09,0,0,0-.3.93c.13.72,1.06,1.41,1.52,1.69A15.6,15.6,0,0,1,56.75,130.64Z"/><path class="cls-10" d="M134.2,122.78c2.47-1.64,2.3-3,.82-5.27s-1-2.8.5-8.23c.7-2.58,2.35-5.73,4.63-9.56-2.05,2.26-3.65,5.12-5.73,7.35-5.5,5.87-9.74,10.66-15.77,16-2.84,2.49-7.66,5.34-10.76,7.52-1.14.8-2.32,1.53-3.53,2.21,7.12-1.49,20.66-3.74,27.16,1.09,3.19,2.35,3-6,1.69-8S131.73,124.42,134.2,122.78Z"/><path class="cls-13" d="M132.55,134.6h0a2,2,0,0,1-1.22-.49c-2.56-1.9-6.54-2.86-11.82-2.86a74.49,74.49,0,0,0-15.09,1.85l-2.06.43,1.83-1c1.34-.76,2.48-1.48,3.52-2.21s2.19-1.48,3.45-2.3a70.59,70.59,0,0,0,7.27-5.19,175.15,175.15,0,0,0,13.07-13.07c.87-.93,1.75-1.89,2.68-2.87a39.24,39.24,0,0,0,2.95-3.77,38.78,38.78,0,0,1,2.77-3.58l.53.39c-2.6,4.35-4,7.19-4.6,9.48-.21.77-.4,1.44-.57,2-1,3.53-1.15,4.07,0,5.93,1.52,2.36,1.8,3.9-.92,5.71l-.78.52c-.53.33-1,.62-1,.75a2.49,2.49,0,0,0,.45.77l.44.64c1,1.48,1.35,6.09.35,8A1.45,1.45,0,0,1,132.55,134.6Zm-13-4c5.43,0,9.53,1,12.21,3a1.5,1.5,0,0,0,.83.35h0c.1,0,.41,0,.71-.55.87-1.64.55-6-.32-7.3l-.43-.62c-.41-.58-.63-.9-.56-1.28s.46-.64,1.29-1.18l.78-.51c2.3-1.53,2.1-2.67.73-4.81s-1.14-2.85-.12-6.46c.17-.59.36-1.27.56-2a28.44,28.44,0,0,1,2.39-5.62,37.64,37.64,0,0,1-2.92,3.72c-.93,1-1.81,1.93-2.68,2.87a172.58,172.58,0,0,1-13.11,13.12,74,74,0,0,1-7.35,5.24c-1.25.82-2.43,1.59-3.44,2.3-.58.4-1.21.82-1.88,1.24A69.87,69.87,0,0,1,119.51,130.59Z"/><path class="cls-19" d="M67.81,121.57c-2-1-4.21-1.69-6.14-2.87a62.6,62.6,0,0,1-8-6c-3.62-3.09-6.79-8-8.77-12.32C40.11,90.07,37.05,78.16,39,66.77c0,0-.05-.08-.07,0-2.15,4.18-1.47,10.22-.79,14.72A69.81,69.81,0,0,0,43.5,100a43.48,43.48,0,0,0,7,10.81c-1.66,2.69-1.93,4.62.44,7.07a33.17,33.17,0,0,0,9.61,6.49.28.28,0,0,0,.29-.47c-2.51-2-5.15-3.64-7.59-5.7a12.66,12.66,0,0,1-2.65-2.77c-.89-1.37.21-2.68.46-4,4.55,5,10.29,8.92,16.57,10.54C67.85,122,68,121.67,67.81,121.57Z"/><path class="cls-19" d="M81.33,137c-3.09-.3-6.81-1.54-9.84-2.22-5.76-1.31-10.54-5-16.18-6.47-.23-.07-.39.26-.18.37,5.2,2.7,10.31,5.8,16,7.27a43,43,0,0,0,17.43,1.36C88.85,137.24,83.93,137.22,81.33,137Z"/><path class="cls-19" d="M128.69,105c-5,6.54-13.1,10.56-20.59,13.39-8,3-16.78,3.63-25.24,4.09a.39.39,0,0,0,0,.77,64.07,64.07,0,0,0,26.84-4c7.34-2.94,15.06-7.1,19.29-14.11A.16.16,0,0,0,128.69,105Z"/><path class="cls-19" d="M139.85,99.73c-2.7,3.24-4,7.19-5.51,11.07-1.68,4.28-4.72,10.09-8.26,13.13a.16.16,0,0,0,.18.25c3.83-2.18,6-6.7,8.1-10.35a42.19,42.19,0,0,0,2.46-6.17c1-2.65,2.17-5.1,3.4-7.64C140.32,99.8,140,99.51,139.85,99.73Z"/><path class="cls-7" d="M90.44,117.87h0c-27.7,0-35.36-13.74-39-20.33-5.61-10-1.18-24.17.3-28.26,5.14-14.1,20.62-29.1,39.22-29.1l1.38,0C112.4,41,132,58.62,136,79.54c1.77,9.32.12,17.58-4.78,23.88-6.47,8.33-18.51,13.25-34.81,14.25C94.33,117.8,92.34,117.87,90.44,117.87Zm.48-77c-18.3,0-33.55,14.77-38.6,28.67-1.46,4-5.82,17.92-.35,27.71,3.62,6.48,11.16,20,38.47,20h0c1.88,0,3.86-.07,5.88-.19,16.1-1,28-5.84,34.32-14,4.78-6.14,6.39-14.22,4.66-23.36-3.9-20.63-23.21-38-43-38.8Z"/><path class="cls-18" d="M114.45,187l-5.82-9.77-5.48,9.88L98,177.37l-4.83,9.33-4.17-10L82.18,187.9l-4.27-10.31L71.32,187,69,176.82l-6.92,9.32,0,.06a103.22,103.22,0,0,1-4.56,16.3c-9.66,25.9-19.42,45-16.14,48.83s12,2.63,19.21,9.32,24.25,13.39,38.3,12.4,24.91-3.4,30.28-9,8.78-6.48,8.78-6.48,1.21-1.81-.69-9.13c-1.53-6-12.32-37.86-15.81-64.79l-3.14-6.07Z"/><path class="cls-19" d="M96,273.48c-13.81,0-29-6.4-35.68-12.58-4-3.69-8.32-4.92-12.14-6-3-.85-5.58-1.59-7.09-3.36-2.46-2.86,1.64-13,7.85-28.28,2.52-6.21,5.37-13.25,8.22-20.88a102.07,102.07,0,0,0,4.54-16.24l0-.09.12-.13,7.31-9.87,2.3,10.17,6.5-9.31,4.26,10.26L89,176l4.15,9.93L98,176.66l5.17,9.79,5.47-9.85,5.77,9.69,3.86-9.49,3.51,6.82c2.82,21.71,10.37,46.64,14,58.61.87,2.9,1.5,5,1.8,6.14,1.91,7.38.69,9.32.65,9.4l-.07.1-.13,0s-3.39,1-8.62,6.38c-4.89,5.09-14.58,8-30.5,9.1C98,273.45,97,273.48,96,273.48ZM62.36,186.35a101.3,101.3,0,0,1-4.56,16.26c-2.84,7.63-5.7,14.68-8.22,20.9-5.9,14.54-10.15,25.05-8,27.6,1.38,1.62,3.88,2.33,6.76,3.15,3.7,1.05,8.31,2.37,12.42,6.15,6.59,6.1,21.58,12.41,35.23,12.41,1,0,1.9,0,2.81-.09,15.75-1.11,25.31-3.94,30.08-8.91s8.05-6.28,8.78-6.51c.18-.45.81-2.63-.78-8.78-.29-1.15-.92-3.22-1.79-6.1-3.64-12-11.19-36.91-14-58.67l-2.79-5.38-3.82,9.38-5.86-9.84-5.5,9.91L98,178.08l-4.86,9.4-4.2-10-6.8,11.2-4.3-10.36-6.66,9.56-2.32-10.24Z"/><g class="cls-24"><path class="cls-18" d="M137.24,248.45c-1.53-6-12.32-37.86-15.81-64.79l-3.14-6.07L114.45,187l-2.53-4.25c.6,1.45,1.12,2.9,1.6,4.21a110.34,110.34,0,0,1,4.81,18.78c.91,5,2.31,9.9,3,14.93.34,2.32.38,4.68.59,7a58,58,0,0,1,.34,7,16.52,16.52,0,0,1-1.13,6.11,20.77,20.77,0,0,1-3.21,4.62c-1.24,1.5-3.28,3.86-1.69,5.72a8.1,8.1,0,0,1,2.63,2.73,7.89,7.89,0,0,1,.56.82,6.11,6.11,0,0,1,.7,2,13.45,13.45,0,0,1-3.53,13.71c5.44-1.43,9.72-3.48,12.52-6.38,5.38-5.6,8.78-6.48,8.78-6.48S139.14,255.77,137.24,248.45Z"/><path class="cls-18" d="M82.6,269.63c-3.33-1.6-6.76-3.74-8.36-7.26s.18-6.5.42-10.12a6.4,6.4,0,0,0-1.9-5.19c-2.26-1.75-4.7-3.28-6.79-5.25-2.8-2.64-3.77-5.8-3.73-9.61.11-10,2.91-19.94,5.65-29.5,1.68-5.85,3.1-11.86,5.78-17.36a23.63,23.63,0,0,1,4.63-6.81l-.39-.94L71.32,187,69,176.82l-6.92,9.32,0,.06a103.22,103.22,0,0,1-4.56,16.3c-9.66,25.9-19.42,45-16.14,48.83s12,2.63,19.21,9.32c6,5.52,18.57,11,30.68,12.25h.11l.4,0A47.42,47.42,0,0,1,82.6,269.63Z"/></g><path class="cls-25" d="M67,264.89c-1.3-1.19-2.62-2.38-3.8-3.69a11.15,11.15,0,0,1-2.43-3.41c-.64-1.92-.32-4.18-1.77-5.77a5.89,5.89,0,0,0-2.92-1.72c-1.89-.52-4.11-.48-5.83-1.5-1.93-1.15-2.38-3.35-2.2-5.46.37-4.43,2.11-8.52,3.87-12.55,4.14-9.51,6.42-19.53,9.51-29.4,1.51-4.84,3.39-9.5,5.34-14.18,1-2.48,2.06-5,2.91-7.56L69,176.82l-6.92,9.32,0,.06a103.22,103.22,0,0,1-4.56,16.3c-9.66,25.9-19.42,45-16.14,48.83s12,2.63,19.21,9.32a36.34,36.34,0,0,0,7.34,5.05Q67.43,265.31,67,264.89Z"/><path class="cls-25" d="M137.08,248c-1.54-5.95-12.32-37.85-15.82-64.78l-2.41-4.68c1.19,5.71,1.24,11.64,2.29,17.36,1.85,10.13,4.69,19.92,7.5,29.81a132.61,132.61,0,0,1,3.57,15,24.52,24.52,0,0,1,.53,6.83c-.23,1.85-1.59,3.84-1.13,5.72a6,6,0,0,0,1.09,2.53,1.24,1.24,0,0,1,.17.92,6.44,6.44,0,0,1-2.16,3c-2.73,2.57-5.16,5.37-8.25,7.54a33.12,33.12,0,0,1-3,1.88,23.45,23.45,0,0,0,9.51-5.48c5.37-5.61,8.78-6.48,8.78-6.48S139,255.27,137.08,248Z"/><g class="cls-26"><path class="cls-10" d="M149.67,84.43c7.08-11.52,4.11-25.68,3.29-29.14a98.8,98.8,0,0,0-8.55-22.61,17.79,17.79,0,0,1-.11,2.72c-.25,2.1-.7,5.24-2.25,6.83-1.13,1.15-3,.66-4.52.77a8.31,8.31,0,0,1-.62,8.1,7.55,7.55,0,0,1-8.46,2.52c-3.35-1.2-5.87-4.59-8.38-6.94a78.61,78.61,0,0,0-10.29-8.27C103,33.91,95.23,30.22,87,29.73c-8.92-.52-16.79,2.92-23.22,9a60.48,60.48,0,0,0-9,11.08c-1.87,2.87-3.44,6-5.41,8.8-1.07,1.52-2.65,3.46-4.72,2.36-1.55-.83-1.65-2.78-1.5-4.34.22-2.4.9-4.72,1.3-7.09.28-1.67.5-5.4-2.43-3.83-2.51,1.34-4.17,4.2-5.67,6.51-1.24,1.91-2.36,4.2-4.26,5.55l-.12.08a66.54,66.54,0,0,0-1.85,17.2c1,22.22,20.66,35.5,20.66,35.5l-1.08,3.24c-.66,2,2.7,5.09,2.7,5.09-.55,1.87-2.52,5.16-1.31,6.47s1.2,1.54-.23,3.19,1.43,3.18,1.43,3.18c7.58-2.19,7.46.77,22.93,4.28s22.24-.21,28.43-3.07c11.55-5.34,24.7-1.27,28.14,1s2.69-6.07,1.37-8-1.48-1.48,1-3.12,2.3-3,.82-5.27-1-2.8.5-8.23S142.59,96,149.67,84.43Zm-105.51,4c-1.67-3.51-2.08-7.38-2.82-11.15-.84-4.25-1.07-8.57-1.84-12.82-3.63,3.85-4.06,10.14-3.88,15.15,0,1,.07,2.13.15,3.3a38,38,0,0,0,3.65,10.17l.11.1a.24.24,0,0,1,.09.29c.1.16.18.33.27.5a.33.33,0,0,1-.52.4,18.42,18.42,0,0,1-4.8-8.56,38.16,38.16,0,0,1-1.69-11A37.5,37.5,0,0,1,35.34,62c1.23-3.26,2.74-6.64,5.37-9a.33.33,0,0,1,.56.23,29,29,0,0,1-.18,5.66,27.47,27.47,0,0,0,.23,4.88c.35,3,.85,6.17,2.55,8.69,1-1.14,1.12-2.93,1.6-4.29a29.63,29.63,0,0,1,2.71-5.36c1.93-3.2,3.52-6.65,6.32-9.2.28-.24.72.08.52.4C48.79,64.44,45.91,76.26,44.78,88.3,44.75,88.59,44.31,88.78,44.16,88.46Zm6.69,17.16c0-.1-.07-.2-.11-.29s-.1-.27-.15-.41v-.07a7.54,7.54,0,0,1-.21-3.39c0-.27.38-.29.55-.15,2.7,2.28,3.7,6,6.24,8.41a31.19,31.19,0,0,0,10.23,6.55,43.59,43.59,0,0,0,11.08,2.93c2.92.32,6.09.36,8.7,1.81a.33.33,0,0,1,.07.52c-2.07,2-5.75,1.6-8.34,1.35-3.93-.38-8.16-.55-11.89-1.95C60.07,118.32,53.45,112.73,50.85,105.62Zm42.56,27.11a53.06,53.06,0,0,1-19.78-.13c-3.44-.66-6.81-1.62-10.19-2.54-2.22-.6-4.68-1.05-6.39-2.71a.33.33,0,0,1,.14-.55c1.83-.62,3.8-.24,5.65.11a37.41,37.41,0,0,0,6.84.53c-1.81-1.82-4.29-2.74-6.48-4a44.27,44.27,0,0,1-7.36-5.72c-.29-.26.08-.69.4-.52,2.85,1.53,5.64,3.19,8.59,4.54a41.71,41.71,0,0,0,9.62,2.85c6.84,1.22,13.93,1,20.84.72A30.08,30.08,0,0,0,108.06,122c3-1.56,5.57-4,8.82-5.19.3-.1.49.25.37.48C113.1,125.9,102.4,131,93.41,132.73Zm40.92-13.49a.32.32,0,0,1,.32.33c-.23,1.78-2.26,2.48-3.53,3.42-2.54,1.86.7,4.07-.45,6.34-.93,1.86-4,.69-5.34.31a30.17,30.17,0,0,0-5.2-1.21c-1.63-.15-3.27-.17-4.9-.3a.33.33,0,0,1-.16-.62c1.24-.71,2.55-1.26,3.85-1.86a61.4,61.4,0,0,0,5.2-4.32,33.3,33.3,0,0,0,6.63-7.44c.21-.37.79,0,.56.33-1.45,2.42-2.89,4.83-4.52,7.14-1.41,2-3.51,3.88-4.57,6.1,2.48.27,5.55-2.71,7-4.23C130.39,122,132.36,119.21,134.33,119.24Zm-6.12-62.4a.33.33,0,0,1,.37-.49c7.13,1.32,11.85,7.4,13.15,14.19a26.22,26.22,0,0,0,2.56-10.37c.55-7.54-1.47-12.13-.67-13.31.14-.21,3.55,4.77,3.57,12.14.05,21.28,5.73,1.63,5.22,5.68-.44,3.51-7.92,24.9-7.68,19.67,1.11-23.52-3.27,5.9-5.42,10a.33.33,0,0,1-.61-.17c.13-5.44,1.5-11,.77-16.4a40.41,40.41,0,0,0-2.2-8.15l-.09-.24c-.46-.89-.94-1.77-1.47-2.6C133.47,63.28,130.19,60.52,128.21,56.84Z"/><path class="cls-13" d="M86.72,137.75a51.62,51.62,0,0,1-11.52-1.43,105.64,105.64,0,0,1-12.27-3.54c-2.65-.93-4.25-1.48-6.18-1.48a15.16,15.16,0,0,0-4.32.74l-.13,0-.12-.06c-.06,0-1.73-.95-2-2.21a1.74,1.74,0,0,1,.46-1.48c1.33-1.53,1.3-1.55.22-2.74s-.15-3.25.61-5.13c.22-.53.43-1,.57-1.47-.67-.66-3.27-3.38-2.63-5.3l1-3C48.33,109.17,30.77,96,29.85,75.06A66.29,66.29,0,0,1,31.7,57.78l0-.13.17-.11a13.66,13.66,0,0,0,3.47-4.28c.26-.42.5-.83.76-1.22l.44-.68c1.41-2.2,3-4.69,5.34-5.94,1.09-.59,2-.54,2.48.09.85,1,.58,3.19.44,4.08s-.35,1.8-.54,2.67a40,40,0,0,0-.77,4.4c-.19,2.12.24,3.43,1.34,4a2.33,2.33,0,0,0,1,.28c1.28,0,2.36-1.28,3.24-2.54,1.12-1.58,2.13-3.31,3.1-5,.74-1.27,1.5-2.57,2.3-3.81a60.19,60.19,0,0,1,9-11.13C70.36,32.07,78.5,28.9,87,29.41c7.25.42,14.75,3.27,22.93,8.73a78.86,78.86,0,0,1,10.34,8.29c.64.6,1.26,1.26,1.92,2,1.92,2,3.91,4.06,6.34,4.93a6.87,6.87,0,0,0,2.33.4,7.09,7.09,0,0,0,5.76-2.8,8,8,0,0,0,.57-7.78l-.17-.42.46,0c.41,0,.86,0,1.3,0,1.08,0,2.25.11,3-.67,1.39-1.42,1.87-4.15,2.16-6.65a15.35,15.35,0,0,0,.1-2.66l0-1.44.68,1.27a99.72,99.72,0,0,1,8.56,22.63l0,.07c1.24,5.19,3.39,18.44-3.33,29.38-1.69,2.75-3.27,5.25-4.79,7.66-4.76,7.56-8.21,13-9.33,17.11-.21.77-.4,1.44-.57,2-1,3.53-1.15,4.07,0,5.93,1.52,2.36,1.8,3.9-.92,5.71l-.78.52c-.53.33-1,.62-1,.75a2.49,2.49,0,0,0,.45.77l.44.64c.95,1.43,1.63,6.14.59,8.07a1.38,1.38,0,0,1-1.25.86h0a2.31,2.31,0,0,1-1.18-.43c-2.08-1.39-8.1-3.6-15.34-3.6a29.59,29.59,0,0,0-12.48,2.6l-.94.43C98.78,135.58,94.12,137.75,86.72,137.75Zm-30-7.11c2,0,3.78.6,6.4,1.51a102.54,102.54,0,0,0,12.2,3.53,51.5,51.5,0,0,0,11.37,1.42c7.25,0,11.84-2.14,15.89-4l.94-.44A30.17,30.17,0,0,1,116.31,130c7.39,0,13.56,2.28,15.71,3.71a1.53,1.53,0,0,0,.81.32h0c.11,0,.4,0,.67-.51.9-1.67.29-6.12-.56-7.4l-.43-.62c-.41-.58-.63-.9-.56-1.28s.46-.64,1.29-1.18l.78-.51c2.3-1.53,2.1-2.67.73-4.81s-1.14-2.85-.12-6.46c.17-.59.36-1.27.56-2,1.15-4.18,4.61-9.68,9.42-17.29,1.52-2.41,3.09-4.9,4.78-7.65,6.59-10.73,4.47-23.78,3.25-28.89l0-.07A98.49,98.49,0,0,0,144.74,34c0,.48-.06.94-.11,1.41-.3,2.59-.82,5.46-2.35,7a3.64,3.64,0,0,1-2.75.88h-.74l-.78,0a8.51,8.51,0,0,1-.83,8,8,8,0,0,1-8.85,2.65c-2.57-.93-4.61-3.06-6.58-5.11-.66-.68-1.28-1.33-1.9-1.91a78.29,78.29,0,0,0-10.25-8.23C101.51,33.3,94.11,30.48,87,30.07c-.59,0-1.17-.06-1.75-.06C77.44,30,70.3,33,64,39A60.05,60.05,0,0,0,55.1,50c-.79,1.23-1.55,2.52-2.28,3.78-1,1.68-2,3.42-3.13,5-1,1.4-2.2,2.82-3.78,2.82a2.88,2.88,0,0,1-1.36-.36c-1.36-.73-1.91-2.25-1.68-4.67a36.45,36.45,0,0,1,.78-4.46c.18-.87.37-1.77.53-2.65.21-1.23.26-2.9-.29-3.55-.33-.39-.88-.35-1.67.07-2.18,1.17-3.73,3.59-5.1,5.72l-.44.68c-.25.39-.5.79-.74,1.2A14.48,14.48,0,0,1,32.33,58h0a65.21,65.21,0,0,0-1.8,17c1,21.81,20.32,35.11,20.51,35.25l.21.13-1.16,3.48c-.49,1.46,1.71,3.93,2.6,4.75l.16.14-.07.2a16.66,16.66,0,0,1-.64,1.72c-.67,1.61-1.5,3.62-.74,4.43,1.33,1.46,1.3,1.87-.22,3.62a1.09,1.09,0,0,0-.3.93c.13.72,1.06,1.41,1.52,1.69A15.6,15.6,0,0,1,56.75,130.64ZM84,133.93a56.31,56.31,0,0,1-10.47-1c-3-.56-5.93-1.37-8.79-2.15l-1.42-.39-.89-.23c-2-.52-4.1-1.06-5.65-2.57a.64.64,0,0,1-.18-.6.69.69,0,0,1,.45-.5,7,7,0,0,1,2.26-.34,19.14,19.14,0,0,1,3.48.43l.08,0a34.89,34.89,0,0,0,5.91.51,21.09,21.09,0,0,0-3.77-2.32c-.67-.34-1.36-.71-2-1.1a43.23,43.23,0,0,1-7.43-5.75.62.62,0,0,1-.16-.69.69.69,0,0,1,.94-.35c.85.45,1.7.91,2.54,1.38,2,1.08,4,2.2,6,3.14a41.4,41.4,0,0,0,9.54,2.83,69.52,69.52,0,0,0,12.23.93c2.9,0,5.81-.1,8.53-.22a29.52,29.52,0,0,0,12.64-3.24,34.06,34.06,0,0,0,3.55-2.22,23.65,23.65,0,0,1,5.31-3,.62.62,0,0,1,.74.26.67.67,0,0,1,0,.67c-4.35,9-15.69,14-24.08,15.63A51,51,0,0,1,84,133.93ZM59.35,126.8a6.3,6.3,0,0,0-2.05.31c1.41,1.39,3.4,1.9,5.34,2.4l.89.24,1.43.39c2.84.77,5.78,1.57,8.73,2.14a52.88,52.88,0,0,0,19.66.13c8.24-1.55,19.36-6.47,23.61-15.26a22.39,22.39,0,0,0-5.13,2.88,33.33,33.33,0,0,1-3.62,2.26,30.16,30.16,0,0,1-12.9,3.32c-2.74.11-5.65.22-8.57.22a69.92,69.92,0,0,1-12.35-.94A41.72,41.72,0,0,1,64.7,122c-2.08-1-4.12-2.08-6.09-3.16l-2.53-1.39a43.47,43.47,0,0,0,7.29,5.66c.64.38,1.32.74,2,1.07a18.13,18.13,0,0,1,4.57,3l.56.56h-.8a38.92,38.92,0,0,1-6.9-.54h-.07A18.17,18.17,0,0,0,59.35,126.8Zm69.33,3.88a10.58,10.58,0,0,1-3-.58l-.48-.14-.92-.26a23,23,0,0,0-4.23-.94c-.88-.08-1.78-.13-2.65-.17l-2.25-.13a.7.7,0,0,1-.61-.54.61.61,0,0,1,.31-.69c.95-.55,2-1,2.95-1.46l.93-.43a55,55,0,0,0,4.69-3.87l.44-.39a32.75,32.75,0,0,0,6.55-7.36.69.69,0,0,1,1.15,0,.61.61,0,0,1,0,.64l-.17.29c-1.38,2.28-2.8,4.65-4.37,6.87-.53.76-1.18,1.52-1.8,2.24a22.51,22.51,0,0,0-2.51,3.35c1.62-.12,3.77-1.54,6.22-4.14l.69-.78c1.22-1.4,2.88-3.31,4.63-3.31a.67.67,0,0,1,.54.24.56.56,0,0,1,.15.46c-.2,1.51-1.51,2.3-2.67,3a11.52,11.52,0,0,0-1,.64c-1.23.9-.9,1.85-.49,3a3.87,3.87,0,0,1,.15,3.17A2.32,2.32,0,0,1,128.68,130.68Zm2.3-16.53a33.5,33.5,0,0,1-6.64,7.42l-.43.39a56.1,56.1,0,0,1-4.8,4l-1,.45c-1,.44-2,.9-2.89,1.43.77.06,1.51.1,2.25.13s1.79.09,2.68.18a23.08,23.08,0,0,1,4.36,1l.9.26a4.19,4.19,0,0,1,.49.14,10.47,10.47,0,0,0,2.77.55,1.7,1.7,0,0,0,1.7-.84,3.28,3.28,0,0,0-.18-2.66c-.42-1.22-.9-2.6.73-3.8.31-.23.66-.44,1-.67,1.08-.65,2.2-1.33,2.36-2.53-1.5,0-3,1.83-4.17,3.13-.26.3-.5.58-.71.8-1.88,2-4.6,4.36-6.92,4.36h0l-.35,0-.46-.05.2-.42a19.21,19.21,0,0,1,2.84-4c.64-.74,1.24-1.45,1.76-2.19,1.56-2.21,3-4.56,4.34-6.83Zm-48.92,9.26c-1.14,0-2.28-.11-3.18-.2L77,123a38.3,38.3,0,0,1-10.06-1.8c-7.65-2.87-13.91-8.82-16.36-15.51a1.55,1.55,0,0,1-.08-.23l-.09-.23-.09-.24,0-.14a7.84,7.84,0,0,1-.21-3.48.61.61,0,0,1,.63-.52.74.74,0,0,1,.46.17,17.17,17.17,0,0,1,3.41,4.47,18.56,18.56,0,0,0,2.85,4A30.89,30.89,0,0,0,67.52,116a43.68,43.68,0,0,0,11,2.91L80,119c2.49.23,5.08.47,7.31,1.7a.68.68,0,0,1,.33.5.66.66,0,0,1-.2.55C86.31,122.87,84.53,123.41,82.06,123.41ZM50.68,101.55h0a7.48,7.48,0,0,0,.24,3.21v.1s0,.1.06.17.05.13.08.19l0,.06c0,.07.05.14.07.22,2.39,6.52,8.51,12.32,16,15.12A37.38,37.38,0,0,0,77,122.38l1.93.17c.89.09,2,.2,3.12.2,2.3,0,3.92-.48,5-1.46-2.11-1.16-4.62-1.39-7-1.61-.51-.05-1-.09-1.52-.15a43.74,43.74,0,0,1-11.17-3A31.5,31.5,0,0,1,56.94,110a19.28,19.28,0,0,1-3-4.09,16.11,16.11,0,0,0-3.26-4.3ZM139,94.85a.72.72,0,0,1-.49-.2.67.67,0,0,1-.18-.47c0-2,.27-4.1.48-6.1a42.88,42.88,0,0,0,.29-10.25A39.69,39.69,0,0,0,137,69.75l-.09-.24c-.49-.94-1-1.79-1.44-2.54a41.34,41.34,0,0,0-3.4-4.38,33.22,33.22,0,0,1-4.11-5.6.63.63,0,0,1,0-.65.65.65,0,0,1,.71-.31c6.41,1.18,11.5,6.42,13.2,13.46A25.78,25.78,0,0,0,144,60.15a40.67,40.67,0,0,0-.56-9.86c-.29-1.88-.47-3-.05-3.61l.1-.15h.18c.76,0,3.87,5.61,3.89,12.48,0,9,1.08,9.75,1.41,9.75.73,0,1.9-2.4,2.46-3.56s.69-1.41,1-1.41h.15l.13.12c.11.14.13.33.07.82-.27,2.13-6.16,20.78-7.83,20.78h0a.48.48,0,0,1-.32-.13c-.16-.18-.21-.47-.18-1,.26-5.54.19-7.63.06-8.39a83.91,83.91,0,0,0-2.09,8.22c-1,4.36-2,8.87-2.77,10.34A.62.62,0,0,1,139,94.85ZM128.51,56.67h0a32.29,32.29,0,0,0,4,5.49A41,41,0,0,1,136,66.62c.49.77,1,1.63,1.49,2.63l.11.27a40.71,40.71,0,0,1,2.22,8.22,43.64,43.64,0,0,1-.29,10.41c-.21,2-.43,4-.48,6,.72-1.39,1.78-6.06,2.7-10.17,1.74-7.68,2.16-9,2.81-9a.43.43,0,0,1,.32.14c.29.31.58,1.3.21,9.23a1.7,1.7,0,0,0,0,.22c1.36-2,5.78-14.33,6.83-18.91-1,2.06-1.94,3.73-3,3.73s-2-1.18-2.07-10.41a21.87,21.87,0,0,0-3.09-11.49,14.63,14.63,0,0,0,.28,2.68,40.75,40.75,0,0,1,.56,10A26.34,26.34,0,0,1,142,70.69l-.43.91-.19-1C140,63.33,135,57.87,128.52,56.67ZM39.6,94.82a.67.67,0,0,1-.45-.18c-2.15-2-3.75-4.8-4.9-8.71a38.27,38.27,0,0,1-1.7-11.06,37.49,37.49,0,0,1,2.48-13c1.26-3.33,2.79-6.74,5.47-9.13a.66.66,0,0,1,.44-.17.69.69,0,0,1,.66.61,19.43,19.43,0,0,1-.06,4.25c0,.48-.09,1-.12,1.47a27.22,27.22,0,0,0,.23,4.83c.33,2.8.78,5.74,2.24,8.14a8.22,8.22,0,0,0,.87-2.44c.12-.46.24-.94.4-1.37A29.37,29.37,0,0,1,47.9,62.6c.42-.69.82-1.4,1.22-2.1a28,28,0,0,1,5.16-7.17.7.7,0,0,1,1,.17.63.63,0,0,1,0,.65C49.73,63.5,46.39,74.69,45.1,88.33a.71.71,0,0,1-.69.63.6.6,0,0,1-.55-.35,33.67,33.67,0,0,1-2.39-8.78q-.21-1.23-.45-2.46c-.45-2.27-.74-4.59-1-6.83-.22-1.75-.43-3.55-.73-5.32-2.48,3-3.58,7.74-3.34,14.41,0,1,.07,2.13.15,3.29a37.77,37.77,0,0,0,3.59,10h0a.63.63,0,0,1,.26.52l.07.13.14.27a.61.61,0,0,1,0,.64A.68.68,0,0,1,39.6,94.82ZM40.94,53.2c-2.57,2.3-4.07,5.62-5.29,8.87a37.15,37.15,0,0,0-2.44,12.8,37.64,37.64,0,0,0,1.67,10.87c1.12,3.8,2.66,6.55,4.71,8.41l-.14-.28-.18-.33,0-.09-.06-.06-.11-.13A38.26,38.26,0,0,1,35.45,83c-.08-1.21-.13-2.33-.16-3.32-.26-7.28,1-12.32,4-15.43l.44-.47.12.64c.37,2,.61,4,.85,6,.27,2.24.55,4.54,1,6.78.17.82.31,1.65.46,2.48a33.52,33.52,0,0,0,2.33,8.6c1.29-13.8,4.66-25.07,10.29-34.51a27.32,27.32,0,0,0-5.05,7c-.4.71-.81,1.42-1.23,2.11a31.36,31.36,0,0,0-2.69,5.3c-.14.41-.25.85-.36,1.32a7.39,7.39,0,0,1-1.29,3.07l-.28.33-.24-.36C41.85,70,41.36,66.82,41,63.77a28.34,28.34,0,0,1-.23-4.94c0-.5.07-1,.12-1.49a18.26,18.26,0,0,0,.06-4.11Z"/></g><g class="cls-27"><path class="cls-3" d="M90.61,37.9c9.56-.41,27.84,1.44,37,19.27,8.28,16.2,8.75,7.75,9.74,27.82.79,16-11.92,35-47.47,35.58-27.7.48-43.63-21.94-42.74-30.22s.6-11.32,2.26-23C50.84,56.76,60.92,39.16,90.61,37.9Z"/><path class="cls-4" d="M89,120.91a46.84,46.84,0,0,1-34.85-15.33c-4.8-5.35-7.75-11.48-7.34-15.26.34-3.16.52-5.61.68-8,.27-3.86.55-7.84,1.58-15.08A31.3,31.3,0,0,1,59.19,48.88c7.57-6.94,18.14-10.75,31.41-11.31.75,0,1.5,0,2.26,0,9.35,0,26.33,2.54,35,19.5a71,71,0,0,0,5.9,9.82c2.77,3.94,3.2,4.55,3.87,18.13a29.7,29.7,0,0,1-8.21,21.86C123.6,113,112,120.52,89.84,120.9Zm3.9-82.73c-.74,0-1.5,0-2.24,0-36,1.52-40.54,26.3-40.95,29.12-1,7.23-1.29,11.21-1.56,15-.17,2.37-.34,4.83-.68,8-.33,3,1.76,8.73,7.17,14.76A46.18,46.18,0,0,0,89,120.25h.87c22-.39,33.38-7.75,39.1-13.87A29.05,29.05,0,0,0,137,85c-.66-13.38-1.07-14-3.76-17.78a74.27,74.27,0,0,1-5.94-9.9C118.76,40.67,102.06,38.18,92.86,38.18Z"/><path class="cls-28" d="M137.3,85c-1-20.07-1.46-11.62-9.74-27.82-9.11-17.83-27.39-19.68-36.95-19.27C60.92,39.16,50.84,56.76,49.35,67.31,47.69,79,48,82.08,47.09,90.35s15,30.7,42.74,30.22C125.38,120,138.09,101,137.3,85Zm-5.56,8.5c-2.64,10.06-11.2,18-21,20.9a60.54,60.54,0,0,1-10.82,2.12,57.34,57.34,0,0,1-9.45.09,55.55,55.55,0,0,1-11.3-1.86,50.82,50.82,0,0,1-10.06-3.85C59.76,106,53,98,53,87.08A36,36,0,0,1,54.4,76.34c4.27-13.17,14.76-26.72,28.7-30.53a24.5,24.5,0,0,1,10.77-.55c15.39,3.2,30.92,14.76,36.37,29.89C132.33,81,133.33,87.42,131.74,93.49Z"/><path class="cls-23" d="M137.3,85c-1-20.07-1.46-11.62-9.74-27.82-9.11-17.83-27.39-19.68-36.95-19.27C60.92,39.16,50.84,56.76,49.35,67.31,47.69,79,48,82.08,47.09,90.35s15,30.7,42.74,30.22C125.38,120,138.09,101,137.3,85Zm-2.83,9.3c-2.83,10.71-12,19.11-22.59,22.25a64.79,64.79,0,0,1-11.63,2.26,63.57,63.57,0,0,1-10.14.1,61,61,0,0,1-12.15-2,56.84,56.84,0,0,1-10.81-4.09c-10-5.17-17.24-13.77-17.3-25.35a38.08,38.08,0,0,1,1.53-11.43C56,62,67.24,47.62,82.22,43.57A26.75,26.75,0,0,1,93.79,43c16.54,3.42,33.22,15.72,39.07,31.81C135.11,81,136.18,87.83,134.47,94.29Z"/><path class="cls-29" d="M103.07,103.83c-6.1,7.28-17.33,8.61-24.61,1.81,1.89,6.22,9.7,8.76,15.66,7.47,4.5-1,9-3.6,10.93-7.72A6.43,6.43,0,0,1,103.07,103.83Z"/><path class="cls-30" d="M112.88,73.66a6.06,6.06,0,0,0-4.26-1.44,7.49,7.49,0,0,0-3.94,1.51c-2.8,2-3.59,5.78-3.62,9.18a0,0,0,0,0,.08,0c.24-3.22,1-6.66,3.52-8.74a6.69,6.69,0,0,1,8.18-.43S112.92,73.7,112.88,73.66Z"/><path class="cls-31" d="M123.59,92.38c1,.82.84,1.92-.86,2.64s-3.57.5-5.22,1.19c-1.08.45-3.61,3-4.8,2.38-2-1-.14-4.27.75-5.28A7.6,7.6,0,0,1,123.59,92.38Z"/><path class="cls-23" d="M116.18,90.06c-.2.06-.48-.18-.39-.4s.19-.48.28-.72v0c1.69-5.51,1.08-13.51-4-16.75-4.45-2.86-10.86,1.8-11,7.49a19.59,19.59,0,0,1,.47-3.58c-1.72,3-2.81,13.34,2.46,17.46a7.68,7.68,0,0,0,6.73,1.26s-.32,2.76-.27,3.28a11.82,11.82,0,0,1,2.8-5.37,7.63,7.63,0,0,1,2.26-1.4A16.48,16.48,0,0,1,120,90,5.38,5.38,0,0,0,116.18,90.06Z"/><path class="cls-30" d="M118.24,90a9.43,9.43,0,0,0-3.71,1.06,13.44,13.44,0,0,0,1.18-4,18,18,0,0,0-.67-7.76,9.37,9.37,0,0,0-4.3-5.63c-2.13-1.2-4.37-.59-6.17.9s-2.53,4.35-3,6.45a16.7,16.7,0,0,0,.64,8.55c.66,2,2.46,4.28,4.56,4.69,1.07.22,3.53.54,4.79-.25a5.94,5.94,0,0,0-.75,3s0,0,0,0a7.31,7.31,0,0,1,2.45-4.62,9.4,9.4,0,0,1,5-2.25C118.3,90.1,118.31,90,118.24,90Z"/><path class="cls-22" d="M112.73,92.37a5.92,5.92,0,0,0-.86,1.08c-1.32,1-4.05.81-5.42.28a7.33,7.33,0,0,1-4.19-5.27,15.88,15.88,0,0,1,1.94-13A5,5,0,0,1,110.59,74c2.07,1,3.51,3.25,4.25,5.41a17.48,17.48,0,0,1,.87,5.75,13.53,13.53,0,0,1-.63,3.89,9.3,9.3,0,0,1-1,2.29A8.12,8.12,0,0,0,112.73,92.37Z"/><path class="cls-32" d="M115.31,81.12a18.31,18.31,0,0,1-.36,5.17,7.44,7.44,0,0,1-3.68,5.32,5.6,5.6,0,0,1-5.89,0c-3.66-2.44-4.07-7.61-3.08-12.19a17.14,17.14,0,0,0,0,9,7.33,7.33,0,0,0,4.19,5.27c1.37.53,4.1.72,5.42-.28a5.92,5.92,0,0,1,.86-1.08,8.12,8.12,0,0,1,1.39-1.06,9.3,9.3,0,0,0,1-2.29,13.53,13.53,0,0,0,.63-3.89A19.08,19.08,0,0,0,115.31,81.12Z"/><path class="cls-33" d="M114.19,83.74c.07,4.45-2.34,8.1-5.4,8.17s-5.61-3.47-5.69-7.91,2.33-8.1,5.4-8.17S114.11,79.3,114.19,83.74Z"/><path d="M114.19,83.74c.07,4.45-2.34,8.1-5.4,8.17s-5.61-3.47-5.69-7.91,2.33-8.1,5.4-8.17S114.11,79.3,114.19,83.74Z"/><path class="cls-34" d="M112.88,84.07c.06,3.39-1.79,6.18-4.13,6.23s-4.27-2.64-4.34-6,1.79-6.17,4.13-6.23S112.83,81.23,112.88,84.07Z"/><path class="cls-35" d="M112.16,83.77c0,2.68-1.41,4.88-3.26,4.92s-3.38-2.09-3.43-4.77S106.89,79,108.73,79,112.11,81.09,112.16,83.77Z"/><path class="cls-36" d="M103.15,82.71c0,.42-.06.85-.05,1.29.08,4.44,2.63,8,5.69,7.91s5.47-3.72,5.4-8.17a9.4,9.4,0,0,0-.1-1.2C110.8,85,106,85.69,103.15,82.71Z"/><path class="cls-22" d="M107.79,82c-.1,1.38-1,2.44-1.9,2.36s-1.64-1.26-1.54-2.64,1-2.44,1.9-2.36S107.89,80.57,107.79,82Z"/><path class="cls-22" d="M106.82,86.27c0,.65-.45,1.16-.9,1.12s-.79-.6-.74-1.26.45-1.16.9-1.12S106.87,85.61,106.82,86.27Z"/><path class="cls-30" d="M66.88,73.66a6.06,6.06,0,0,1,4.26-1.44,7.49,7.49,0,0,1,3.94,1.51c2.8,2,3.59,5.78,3.63,9.18,0,0-.08.06-.08,0-.25-3.22-1-6.66-3.52-8.74a7.45,7.45,0,0,0-3.72-1.59,7.35,7.35,0,0,0-4.47,1.16S66.84,73.7,66.88,73.66Z"/><path class="cls-31" d="M56.18,92.38c-1,.82-.85,1.92.85,2.64s3.57.5,5.22,1.19c1.08.45,3.61,3,4.8,2.38,2-1,.14-4.27-.75-5.28A7.58,7.58,0,0,0,56.18,92.38Z"/><path class="cls-23" d="M63.58,90.06c.2.06.48-.18.39-.4s-.19-.48-.27-.72v0c-1.7-5.51-1.09-13.51,4-16.75,4.44-2.86,10.85,1.8,11,7.49a19.59,19.59,0,0,0-.47-3.58c1.72,3,2.81,13.34-2.46,17.46A7.67,7.67,0,0,1,69,94.79a32,32,0,0,1,.27,3.28,11.82,11.82,0,0,0-2.8-5.37,7.59,7.59,0,0,0-2.25-1.4A16.6,16.6,0,0,0,59.82,90,5.35,5.35,0,0,1,63.58,90.06Z"/><path class="cls-30" d="M61.52,90a9.43,9.43,0,0,1,3.71,1.06,13.44,13.44,0,0,1-1.18-4,18,18,0,0,1,.67-7.76A9.34,9.34,0,0,1,69,73.65c2.12-1.2,4.36-.59,6.16.9s2.53,4.35,3,6.45a16.7,16.7,0,0,1-.64,8.55c-.65,2-2.45,4.28-4.55,4.69-1.08.22-3.54.54-4.79-.25A6,6,0,0,1,69,97s0,0,0,0a7.3,7.3,0,0,0-2.44-4.62,9.43,9.43,0,0,0-5-2.25C61.46,90.1,61.45,90,61.52,90Z"/><path class="cls-22" d="M67,92.37a5.92,5.92,0,0,1,.86,1.08c1.32,1,4,.81,5.42.28a7.33,7.33,0,0,0,4.19-5.27,15.84,15.84,0,0,0-1.93-13A5,5,0,0,0,69.17,74c-2.06,1-3.51,3.25-4.25,5.41a17.48,17.48,0,0,0-.87,5.75A13.53,13.53,0,0,0,64.68,89a9.36,9.36,0,0,0,1,2.29A8.46,8.46,0,0,1,67,92.37Z"/><path class="cls-32" d="M64.45,81.12a18.31,18.31,0,0,0,.36,5.17,7.44,7.44,0,0,0,3.68,5.32,5.6,5.6,0,0,0,5.89,0C78,89.19,78.45,84,77.46,79.44a17.14,17.14,0,0,1,0,9,7.33,7.33,0,0,1-4.19,5.27c-1.37.53-4.1.72-5.42-.28A5.92,5.92,0,0,0,67,92.37a8.46,8.46,0,0,0-1.38-1.06,9.36,9.36,0,0,1-1-2.29,13.53,13.53,0,0,1-.63-3.89A19.08,19.08,0,0,1,64.45,81.12Z"/><path class="cls-33" d="M77.08,84c.08,4.44-2.34,8.1-5.41,8.17S66.07,88.7,66,84.26s2.34-8.1,5.41-8.16S77,79.57,77.08,84Z"/><path d="M77.08,84c.08,4.44-2.34,8.1-5.41,8.17S66.07,88.7,66,84.26s2.34-8.1,5.41-8.16S77,79.57,77.08,84Z"/><path class="cls-34" d="M75.77,84.34c.06,3.39-1.78,6.18-4.13,6.23s-4.27-2.65-4.34-6,1.79-6.18,4.13-6.23S75.71,81.5,75.77,84.34Z"/><path class="cls-35" d="M75.05,84c0,2.68-1.41,4.88-3.26,4.93s-3.38-2.1-3.43-4.77,1.41-4.89,3.26-4.93S75,81.36,75.05,84Z"/><path class="cls-36" d="M66,83c0,.41-.06.84-.06,1.27.09,4.44,2.64,8,5.69,7.92s5.49-3.73,5.41-8.17c0-.41,0-.81-.1-1.2C73.69,85.29,68.84,86,66,83Z"/><path class="cls-22" d="M70.68,82.21c-.1,1.39-1,2.44-1.9,2.37s-1.64-1.26-1.54-2.64,1-2.44,1.9-2.36S70.78,80.83,70.68,82.21Z"/><path class="cls-22" d="M69.71,86.53c0,.66-.45,1.16-.91,1.13s-.78-.6-.73-1.26.46-1.16.91-1.13S69.75,85.87,69.71,86.53Z"/><path class="cls-37" d="M94.39,95A.27.27,0,0,0,94,95a13.67,13.67,0,0,1-2.44,1.7c-.75.31-6.45.82-5.34-2,.92-2.29,1.85-3.29,1.37-5.84l0-.07a5.38,5.38,0,0,1-.21,2.68c-.73,1.78-2.31,2.29-3.46,3.64-1.63,1.94-.28,4,1.6,5.45a7.79,7.79,0,0,0,1.74.79C90.12,102.2,96.1,98.89,94.39,95Z"/><path class="cls-38" d="M92,92.68a3.17,3.17,0,0,0-2.74-.9,3,3,0,0,0-2.48,1.87,1,1,0,0,1,0,.17,1.32,1.32,0,0,0-.22,1.34c.47,1.08,2.44,1.18,3.36,1A3.52,3.52,0,0,0,92,95,1.83,1.83,0,0,0,92,92.68Z"/><path class="cls-38" d="M93.41,93.34c-.48,0-.79.85-.24.88S94,93.37,93.41,93.34Z"/><path class="cls-30" d="M93.12,97.36a4.59,4.59,0,0,1-7.35,2.09A5.63,5.63,0,0,1,84,96.56c-.48-1.75,1.2-2.11,2-2.8a4.77,4.77,0,0,0,.53-6.62s0,0,0,0a4.83,4.83,0,0,1,.43,5,4.65,4.65,0,0,1-2.1,2.06,2.66,2.66,0,0,0-.71.42c-1.12,1.22-.54,3.51.57,4.58a5.41,5.41,0,0,0,5.63,1.46,3.72,3.72,0,0,0,2.86-3.34C93.21,97.29,93.13,97.31,93.12,97.36Z"/><path class="cls-37" d="M108.51,64.64c-4.91.25-8.32,3.21-10.19,7.82a.35.35,0,0,0,.58.38c2.4-2.36,4.77-4.26,8.23-4.7,4.31-.56,6.32,1.16,9.42,4.23,1.25,1.25,2.63.68,2.43-.19A10.22,10.22,0,0,0,108.51,64.64Z"/><path class="cls-23" d="M98.92,70.66c.08.11.34.79.61.71s4.82-4.66,9.8-4c4.08.56,7,4.66,8.25,4.38s-3.27-7-7.72-6.87A13.11,13.11,0,0,0,98.92,70.66Z"/><path class="cls-8" d="M108.4,62.93c-4.6.21-7.76,3.14-9.48,7.73a.33.33,0,0,0,.54.38c2.23-2.33,4.44-4.22,7.67-4.63,4-.52,7.23,1.47,9.89,4.85.54.68,1.43.15,1.22-.71A9.8,9.8,0,0,0,108.4,62.93Z"/><path d="M117.59,71.9h0a1,1,0,0,1-.83-.44c-2.88-3.65-6-5.19-9.59-4.72-3,.38-5.07,2-7.48,4.53a.66.66,0,0,1-1-.07.73.73,0,0,1-.07-.66c1.87-5,5.25-7.73,9.77-7.94a10.15,10.15,0,0,1,10.19,7.88,1.21,1.21,0,0,1-.21,1A1,1,0,0,1,117.59,71.9ZM108.38,66c3.31,0,6.22,1.65,8.89,5.06a.35.35,0,0,0,.57,0,.57.57,0,0,0,.09-.49,9.48,9.48,0,0,0-9.51-7.36c-4.25.2-7.43,2.79-9.19,7.52,2.49-2.58,4.68-4.29,7.85-4.7A11.62,11.62,0,0,1,108.38,66Z"/><path class="cls-39" d="M118.24,70.55a9.78,9.78,0,0,0-1.1-2.77.92.92,0,0,1-1.15.43c-2.53-1-4.73-2.7-7.59-2.63s-4.45,1-6.73,2.35a4.53,4.53,0,0,1-1.89.8,15.44,15.44,0,0,0-.86,1.93.33.33,0,0,0,.54.38c2.23-2.33,4.44-4.22,7.67-4.63,4-.52,7.23,1.47,9.89,4.85C117.56,71.94,118.45,71.41,118.24,70.55Z"/><path class="cls-37" d="M69.61,64.64c4.91.25,8.32,3.21,10.19,7.82a.35.35,0,0,1-.58.38c-2.4-2.36-4.77-4.26-8.23-4.7-4.31-.56-6.32,1.16-9.42,4.23-1.25,1.25-2.63.68-2.42-.19A10.2,10.2,0,0,1,69.61,64.64Z"/><path class="cls-23" d="M79.2,70.66c-.08.11-.34.79-.61.71s-4.82-4.66-9.8-4c-4.08.56-7,4.66-8.25,4.38s3.27-7,7.72-6.87A13.11,13.11,0,0,1,79.2,70.66Z"/><path class="cls-8" d="M69.72,62.93c4.6.21,7.77,3.14,9.48,7.73a.33.33,0,0,1-.54.38c-2.23-2.33-4.43-4.22-7.67-4.63-4-.52-7.23,1.47-9.89,4.85-.54.68-1.43.15-1.22-.71A9.8,9.8,0,0,1,69.72,62.93Z"/><path d="M60.53,71.9a1,1,0,0,1-.77-.38,1.18,1.18,0,0,1-.2-1A10.11,10.11,0,0,1,69.74,62.6c4.52.21,7.9,3,9.77,7.95a.7.7,0,0,1-.07.65.66.66,0,0,1-1,.07C76,68.75,73.94,67.12,71,66.74c-3.59-.47-6.71,1.07-9.59,4.72A1,1,0,0,1,60.53,71.9Zm8.78-8.65a9.48,9.48,0,0,0-9.11,7.37.55.55,0,0,0,.08.49.34.34,0,0,0,.56,0c3-3.85,6.36-5.47,10.2-5,3.17.41,5.36,2.12,7.86,4.74-1.77-4.77-5-7.36-9.2-7.56Z"/><path class="cls-39" d="M59.88,70.55A9.78,9.78,0,0,1,61,67.78a.92.92,0,0,0,1.15.43c2.54-1,4.72-2.7,7.59-2.63s4.45,1,6.73,2.35a4.49,4.49,0,0,0,1.88.8,14.14,14.14,0,0,1,.87,1.93.33.33,0,0,1-.54.38c-2.23-2.33-4.43-4.22-7.67-4.63-4-.52-7.23,1.47-9.89,4.85C60.56,71.94,59.67,71.41,59.88,70.55Z"/><path class="cls-30" d="M105.5,105.29c-.21-.56-.84-.79-1.32-1.1-.65-.43-1.26-.92-1.87-1.41-.37-.29-.77.29-.5.61a8.79,8.79,0,0,0,1.11,1.09l-1.22,1.45a14.59,14.59,0,0,1-2.51,2.13,15.32,15.32,0,0,1-8,2.83,16.77,16.77,0,0,1-8.58-2.18,14.73,14.73,0,0,1-3-2.26c-.58-.56-1-1.43-1.72-1.8-.17-.1-.43.08-.3.29a14.06,14.06,0,0,0,5,5,17.21,17.21,0,0,0,9.22,2.13,16.55,16.55,0,0,0,8.52-3.28,15.13,15.13,0,0,0,2.69-2.43,10.37,10.37,0,0,0,.93-1.12,1.74,1.74,0,0,0,1.41.48A.35.35,0,0,0,105.5,105.29Z"/></g><path class="cls-4" d="M65.07,78.46s7.77-9,13,2.43c0,0-1.64-7.86-6.46-7.66S65.07,78.46,65.07,78.46Z"/><path class="cls-4" d="M114.78,78.46s-7.78-9-13,2.43c0,0,1.64-7.86,6.46-7.66S114.78,78.46,114.78,78.46Z"/></g></g></g></svg>