<svg xmlns="http://www.w3.org/2000/svg" viewBox="0 0 144.97 300"><defs><style>.cls-1{isolation:isolate;}.cls-15,.cls-2{fill:#e09a6c;}.cls-3{fill:#912d21;}.cls-29,.cls-33,.cls-36,.cls-4{fill:#fff;}.cls-5{fill:#abaaa6;}.cls-19,.cls-6{fill:#a9a8a2;}.cls-10,.cls-13,.cls-14,.cls-15,.cls-18,.cls-26,.cls-28,.cls-6,.cls-8,.cls-9{mix-blend-mode:multiply;}.cls-13,.cls-14,.cls-33,.cls-36,.cls-6,.cls-9{opacity:0.5;}.cls-7,.cls-8,.cls-9{fill:#282526;}.cls-10,.cls-15{opacity:0.6;}.cls-11,.cls-13{fill:#1c487d;}.cls-12{fill:#112e50;}.cls-16{fill:#a51e22;}.cls-17{fill:#6d0e10;}.cls-20{fill:#1a1718;}.cls-21{fill:#cb8257;}.cls-21,.cls-24,.cls-31,.cls-32,.cls-34{mix-blend-mode:screen;}.cls-21,.cls-26,.cls-31,.cls-34{opacity:0.4;}.cls-22{fill:#698093;}.cls-23,.cls-24{fill:#26211c;}.cls-25{fill:#0b0b0b;}.cls-27{fill:#262626;}.cls-28{fill:#eebc98;}.cls-29{opacity:0.15;}.cls-30{fill:#d3d3d3;}.cls-31,.cls-35{fill:#f9c4c3;}.cls-33{mix-blend-mode:overlay;}</style></defs><g class="cls-1"><g id="Layer_2" data-name="Layer 2"><g id="Layer_1-2" data-name="Layer 1"><path class="cls-2" d="M60.65,261.82c-.1-17.42-.39-41.73-.39-41.73a41.42,41.42,0,0,1-18.85-1.36S44,242.39,47,260.66C49.51,262.47,54.75,265.18,60.65,261.82Z"/><path class="cls-3" d="M54.86,263.73h0a13.92,13.92,0,0,1-8-2.83.3.3,0,0,1-.12-.19c-3-18.07-5.56-41.72-5.6-41.95a.32.32,0,0,1,.42-.33,37.41,37.41,0,0,0,12.1,1.87,39.9,39.9,0,0,0,6.58-.51.28.28,0,0,1,.25.06.33.33,0,0,1,.12.24c0,.24.29,24.51.38,41.73a.33.33,0,0,1-.15.27A11.89,11.89,0,0,1,54.86,263.73Zm-7.57-3.26a13.23,13.23,0,0,0,7.56,2.63h0a11.24,11.24,0,0,0,5.47-1.46c-.08-16-.34-38.09-.38-41.18a41.71,41.71,0,0,1-6.33.46,38.7,38.7,0,0,1-11.84-1.74C42.16,222.62,44.55,243.88,47.29,260.47Z"/><path class="cls-4" d="M58.74,275.28c.66-2,1.11-3.79,2-4.64l-.09,0c0-2.57,0-5.59,0-8.84-5.9,3.36-11.14.65-13.64-1.16.72,4.32,1.45,8.33,2.19,11.66l.81,2.46S54.07,270.34,58.74,275.28Z"/><path class="cls-5" d="M58.74,275.59a.29.29,0,0,1-.22-.09,6.11,6.11,0,0,0-4.39-2.24A5.79,5.79,0,0,0,50.25,275a.34.34,0,0,1-.3.1.35.35,0,0,1-.23-.21l-.81-2.46c-.7-3.14-1.44-7.07-2.21-11.71a.33.33,0,0,1,.14-.32.32.32,0,0,1,.35,0,13.25,13.25,0,0,0,7.66,2.7,11.31,11.31,0,0,0,5.64-1.55.29.29,0,0,1,.31,0,.32.32,0,0,1,.15.27c0,3.16,0,6.09,0,8.61a.21.21,0,0,1,0,.06.3.3,0,0,1-.06.38c-.73.68-1.17,2.09-1.67,3.72l-.25.79a.31.31,0,0,1-.23.2Zm-4.61-3a6.46,6.46,0,0,1,4.47,2.06l.09-.28a10.57,10.57,0,0,1,1.67-3.81c0-2.42,0-5.23,0-8.26a11.8,11.8,0,0,1-5.49,1.39,13.7,13.7,0,0,1-7.42-2.4c.73,4.32,1.43,8,2.08,10.92l.65,2A6.21,6.21,0,0,1,54.13,272.63Z"/><path class="cls-6" d="M60.67,270.66c0-2.57,0-5.59,0-8.84a13.11,13.11,0,0,1-2.08.95c0,.33,0,.65.06,1,.07,2.18.17,4.84-1.11,6.72s-3.42,1-4.83-.1c-2.69-2-3.1-5.35-3.7-8.49a17.89,17.89,0,0,1-2-1.22c.72,4.32,1.45,8.33,2.19,11.66l.81,2.46s4.06-4.44,8.73.5c.66-2,1.11-3.79,2-4.64Z"/><path class="cls-7" d="M60.76,270.64c-.91.85-1.36,2.59-2,4.64-4.67-4.94-8.73-.5-8.73-.5l-.81-2.46c-1.8,1.11-.69,2.49-2.21,4.42s-6.35,5.8-9.94,11.19a17.39,17.39,0,0,0-2.35,4.62c1.29,1.82,4.65,3.87,13.23,3.81,9.06-.06,13.7-1.75,16.2-4C64.4,284.27,64.23,269.67,60.76,270.64Z"/><path d="M47.57,296.67c-8.52,0-11.84-2.14-13.12-3.93a.3.3,0,0,1-.05-.27,17.65,17.65,0,0,1,2.39-4.71A55.49,55.49,0,0,1,44.38,279a31.68,31.68,0,0,0,2.37-2.47,4.59,4.59,0,0,0,.91-2.22A2.81,2.81,0,0,1,49,272.06a.29.29,0,0,1,.27,0,.3.3,0,0,1,.19.19l.66,2a6.21,6.21,0,0,1,4-1.59,6.46,6.46,0,0,1,4.47,2.06l.09-.28c.56-1.79,1-3.21,1.85-4a.35.35,0,0,1,.13-.08,1.48,1.48,0,0,1,1.51.46c2.59,2.67,2.45,16,2.26,21.62a.32.32,0,0,1-.1.22c-3,2.66-8.39,4-16.41,4ZM35,292.49c1.26,1.66,4.47,3.56,12.53,3.56h.36c7.77-.05,13-1.3,15.9-3.79.27-8.86-.13-19-2.09-21a.86.86,0,0,0-.83-.31,9.65,9.65,0,0,0-1.62,3.67l-.25.79a.31.31,0,0,1-.23.2.29.29,0,0,1-.29-.08,6.11,6.11,0,0,0-4.39-2.24A5.79,5.79,0,0,0,50.25,275a.34.34,0,0,1-.3.1.35.35,0,0,1-.23-.21L49,272.81a2.34,2.34,0,0,0-.77,1.64,5.12,5.12,0,0,1-1,2.48,33.11,33.11,0,0,1-2.42,2.53,56.08,56.08,0,0,0-7.52,8.64A17.84,17.84,0,0,0,35,292.49Z"/><path class="cls-7" d="M34.7,292.55c-1,3.33.47,5.9,7,6.57,9.4,1,22.11,1.66,22.38-6.49a1.77,1.77,0,0,0,0-.23c-2.5,2.21-7.14,3.9-16.2,4C39.35,296.42,36,294.37,34.7,292.55Z"/><path d="M50.83,300a89.6,89.6,0,0,1-9.12-.57c-3.6-.37-5.87-1.31-6.93-2.88a4.73,4.73,0,0,1-.38-4.08.31.31,0,0,1,.55-.1c1.2,1.68,4.36,3.68,12.62,3.68h.36c7.86-.05,13.1-1.32,16-3.88a.31.31,0,0,1,.33-.05.3.3,0,0,1,.18.3v.22C64.27,297.59,59.82,300,50.83,300Zm-16-6.76a3.77,3.77,0,0,0,.45,3c.93,1.38,3.11,2.26,6.47,2.6a88.72,88.72,0,0,0,9.06.57c8.28,0,12.52-2.06,13-6.29-3.1,2.36-8.3,3.53-15.85,3.58h-.36C39.83,296.67,36.38,294.91,34.85,293.24Z"/><path class="cls-8" d="M51.84,296.21a16.1,16.1,0,0,1,0,3.47c6.5-.14,12.13-1.66,12.31-7.05a1.77,1.77,0,0,0,0-.23C62,294.27,58.37,295.75,51.84,296.21Z"/><path class="cls-4" d="M98.11,276.38c1-2.91,4.81-4.25,8.46-4.68-.51-1.72-1.38-5.79-2.39-11-5.23,2.75-11.42,1.39-14.33.47,1.38,4.47,2.71,8.47,3.88,11.45C93.73,272.63,94.7,276.88,98.11,276.38Z"/><path class="cls-5" d="M97.57,276.73h0c-3.18,0-4.11-3.87-4.15-4-1.07-2.73-2.38-6.59-3.87-11.43a.34.34,0,0,1,.07-.31.3.3,0,0,1,.32-.08A23.86,23.86,0,0,0,97,262a14.94,14.94,0,0,0,7-1.6.26.26,0,0,1,.27,0,.28.28,0,0,1,.17.21c1.12,5.71,1.92,9.4,2.4,11a.34.34,0,0,1,0,.26.3.3,0,0,1-.22.14c-2.59.3-7.09,1.29-8.22,4.47a.3.3,0,0,1-.25.21A3.86,3.86,0,0,1,97.57,276.73Zm-7.25-15.09c1.41,4.57,2.65,8.22,3.7,10.88,0,.08.86,3.59,3.55,3.59h.32c1.27-3.21,5.57-4.3,8.29-4.67-.48-1.7-1.22-5.15-2.23-10.26A15.7,15.7,0,0,1,97,262.65,24.48,24.48,0,0,1,90.32,261.64Z"/><path class="cls-6" d="M104.18,260.71a14.78,14.78,0,0,1-1.53.67c.12.64.22,1.29.3,1.94.3,2.3.75,5.29-.39,7.45s-3.61,1.72-5.18.29c-2.56-2.34-2.81-5.93-4-9a25.91,25.91,0,0,1-3.52-.84c1.38,4.47,2.71,8.47,3.88,11.45,0,0,1,4.25,4.38,3.75,1-2.91,4.81-4.25,8.46-4.68C106.06,270,105.19,265.91,104.18,260.71Z"/><path class="cls-2" d="M104.18,260.71C100.9,244,96,215.54,96,215.54a51.78,51.78,0,0,1-18,2.48s6.28,25.39,11.77,43.16C92.76,262.1,99,263.46,104.18,260.71Z"/><path class="cls-3" d="M97,262.65h0a24.66,24.66,0,0,1-7.28-1.18.29.29,0,0,1-.2-.2c-5.43-17.57-11.71-42.92-11.77-43.17a.31.31,0,0,1,.06-.28.3.3,0,0,1,.25-.11,51.87,51.87,0,0,0,17.84-2.47.37.37,0,0,1,.27,0,.34.34,0,0,1,.15.22c.05.28,4.9,28.64,8.13,45.16a.31.31,0,0,1-.16.34A15.46,15.46,0,0,1,97,262.65Zm-6.93-1.72A24.06,24.06,0,0,0,97,262a15.15,15.15,0,0,0,6.8-1.49c-3-15.54-7.46-41.24-8-44.59a53.44,53.44,0,0,1-17.32,2.39C79.3,221.62,85.06,244.59,90.1,260.93Z"/><path class="cls-7" d="M133.73,293.35c-.11-4-1.76-8.81-8.6-11-5.91-1.86-15-6.73-15.86-8.7s-1.24-2.18-2.7-2c-3.65.43-7.43,1.77-8.46,4.68-3.41.5-4.38-3.75-4.38-3.75-2.7.93-2.08,4-1.55,7.67.24,1.71.44,3.63.75,5.22a19.87,19.87,0,0,1,9.29,5.14c5,4.87,9.12,5.39,19.18,5.08,6-.19,10.14-.57,12.33-2Z"/><path d="M117.41,296.12h0c-7.7,0-11.3-1.22-15.4-5.24a19.64,19.64,0,0,0-9.16-5.06.3.3,0,0,1-.23-.24c-.21-1.08-.37-2.32-.52-3.52-.08-.58-.16-1.17-.23-1.72l-.09-.6c-.51-3.46-.94-6.44,1.84-7.41a.39.39,0,0,1,.26,0,.28.28,0,0,1,.15.2s.92,3.8,3.86,3.54c1.34-3.36,6-4.39,8.65-4.71a4.85,4.85,0,0,1,.77-.07c1.13,0,1.59.66,2.25,2.23.74,1.77,9.67,6.64,15.66,8.53,5.7,1.79,8.67,5.59,8.82,11.27v.42a.31.31,0,0,1-.15.26c-2.24,1.43-6.27,1.83-12.49,2C119.81,296.1,118.54,296.12,117.41,296.12ZM93.19,285.26a20.15,20.15,0,0,1,9.25,5.18c4,3.93,7.37,5.06,15,5.06h0c1.12,0,2.39,0,4-.07,5.82-.18,9.89-.55,12-1.84,0-.07,0-.15,0-.23-.14-5.38-2.95-9-8.38-10.69-5.86-1.85-15.15-6.76-16-8.88-.66-1.59-1-1.85-1.67-1.85a3.66,3.66,0,0,0-.69.07c-2.59.3-7.09,1.29-8.22,4.47a.3.3,0,0,1-.25.21c-3.07.45-4.3-2.59-4.63-3.64-2,.92-1.59,3.44-1.13,6.6l.09.6c.08.56.15,1.14.23,1.72C92.85,283.09,93,284.25,93.19,285.26Z"/><path class="cls-9" d="M133.73,293.35a11.42,11.42,0,0,0-2.44-7.09c.06,1.46.57,3.22-.52,4.41-2,2.18-6,1.68-9.19,1.91a40.26,40.26,0,0,1-10.57-.47c-3.59-.71-5.29-2.8-7.79-5.36a10.11,10.11,0,0,0-5.75-3.12c-.84-.15-2.6.74-3-.15a4.39,4.39,0,0,1,1-5.14c1.44-1.37,3.65.07,5.11,1.14-.24-2.59,1.48-4.61,4-5.65,1.07-.45,2.48-1.16,3.54-.37.87.65,1.43,2.18,1.86,3.36a5.66,5.66,0,0,1,1-1.48,5.42,5.42,0,0,1-1.65-1.67c-.83-2-1.24-2.18-2.7-2-3.65.43-7.43,1.77-8.46,4.68-3.41.5-4.38-3.75-4.38-3.75-2.7.93-2.08,4-1.55,7.67.24,1.71.44,3.63.75,5.22a19.87,19.87,0,0,1,9.29,5.14c5,4.87,9.12,5.39,19.18,5.08,6-.19,10.14-.57,12.33-2Z"/><path class="cls-7" d="M102.22,290.66a19.87,19.87,0,0,0-9.29-5.14c.34,1.77.81,3.11,1.63,3.27,1.55.32,3.62,1.35,6.11,4.36s7.56,5.9,19.17,5.28c11.2-.6,13.81-1,13.89-4.66-2.19,1.4-6.28,1.78-12.33,2C111.34,296.05,107.2,295.53,102.22,290.66Z"/><path d="M116.79,298.83c-7.84,0-13.35-1.85-16.36-5.48-2-2.44-4-3.87-5.94-4.25-1.1-.22-1.58-2-1.87-3.52a.31.31,0,0,1,.09-.29.33.33,0,0,1,.28-.08,20.34,20.34,0,0,1,9.45,5.23c4,3.93,7.37,5.06,15,5.06,1.12,0,2.39,0,4-.07,6-.19,10.06-.57,12.18-1.92a.31.31,0,0,1,.32,0,.33.33,0,0,1,.16.28c-.09,4-3.24,4.39-14.18,5C118.8,298.8,117.77,298.83,116.79,298.83ZM93.33,285.94c.35,1.59.78,2.45,1.29,2.55,2.07.41,4.18,1.91,6.29,4.46,3.25,3.93,9.63,5.67,18.92,5.17,10.63-.57,13.22-1,13.55-3.8-2.32,1.2-6.21,1.55-12,1.73-1.59.05-2.86.07-4,.07-7.7,0-11.3-1.22-15.4-5.24A19.62,19.62,0,0,0,93.33,285.94Z"/><path class="cls-8" d="M115.9,295.79c-6.29-.14-9.73-1.26-13.68-5.13a19.87,19.87,0,0,0-9.29-5.14c.34,1.77.81,3.11,1.63,3.27,1.55.32,3.62,1.35,6.11,4.36,2.18,2.64,6.38,5.2,15.23,5.36C115.86,297.6,115.85,296.7,115.9,295.79Z"/><path class="cls-3" d="M54.36,225.23c-1,.11-1.89.3-2.83.44a5.93,5.93,0,0,1-3.16-.57c-.12,0-.31.23-.18.31a5.22,5.22,0,0,0,2.69,1,8.31,8.31,0,0,0,3.39-.59C54.45,225.76,54.72,225.18,54.36,225.23Z"/><path class="cls-3" d="M91.83,222.65c-1.64.51-2.94,1.5-4.74,1-.12,0-.32.3-.19.36,1.71.82,3.33.12,4.84-.79C91.87,223.11,92.14,222.55,91.83,222.65Z"/><g class="cls-10"><path class="cls-2" d="M60.26,220.09a41.42,41.42,0,0,1-18.85-1.36S44,242.39,47,260.66c2.5,1.81,7.74,4.52,13.64,1.16C60.55,244.4,60.26,220.09,60.26,220.09ZM58,255.62c.07,7-7.52,8.19-9.28-.55s-1.9-21.88-1.9-21.88c-.31-5.8,6.55-6,8.59-4.35C58.7,231.55,57.92,248.66,58,255.62Z"/></g><g class="cls-10"><path class="cls-2" d="M96,215.54a51.78,51.78,0,0,1-18,2.48s6.28,25.39,11.77,43.16c2.91.92,9.1,2.28,14.33-.47C100.9,244,96,215.54,96,215.54ZM90.39,253a199.18,199.18,0,0,1-3.75-19.67c-.83-8.71,7.27-7.47,8.52-2.71.68,2.62,3.94,16,5.39,23.21S92.67,261.32,90.39,253Z"/></g><path class="cls-11" d="M34.77,214.07s-.73-.5-1.15.53a14.47,14.47,0,0,0-.61,2.9s16.58,9.74,35.33,1a9.75,9.75,0,0,0-.41-2.9l-1.25.73C53.1,222.48,34.77,214.07,34.77,214.07Z"/><path class="cls-12" d="M52,222.46a41.56,41.56,0,0,1-19.16-4.69.31.31,0,0,1-.16-.3,14.41,14.41,0,0,1,.65-3c.29-.74.76-.85,1-.85a1.11,1.11,0,0,1,.59.18s9.87,4.46,20.29,4.46a27.43,27.43,0,0,0,11.31-2.2l1.22-.71a.28.28,0,0,1,.25,0,.29.29,0,0,1,.19.18,10.21,10.21,0,0,1,.44,3,.31.31,0,0,1-.18.3A38.8,38.8,0,0,1,52,222.46Zm-18.67-5.13A41.05,41.05,0,0,0,52,221.85a38.27,38.27,0,0,0,16-3.5,13.65,13.65,0,0,0-.28-2.25l-.9.53a27.92,27.92,0,0,1-11.6,2.27c-10.56,0-20.5-4.5-20.6-4.54a.57.57,0,0,0-.28-.1c-.18,0-.32.15-.45.46A13.54,13.54,0,0,0,33.34,217.33Z"/><path class="cls-13" d="M37.86,215.3c-1.94-.7-3.09-1.23-3.09-1.23s-.73-.5-1.15.53a14.47,14.47,0,0,0-.61,2.9,31.05,31.05,0,0,0,4.58,2.06A10.38,10.38,0,0,1,37.86,215.3Z"/><path class="cls-13" d="M58.31,221.63a38.69,38.69,0,0,0,10-3.09,9.75,9.75,0,0,0-.41-2.9l-1.25.73a26.42,26.42,0,0,1-8.53,2.09A15.36,15.36,0,0,1,58.31,221.63Z"/><path class="cls-11" d="M71,215.74l-1-.1-.1,3s20.92,5.5,34-7.46c-.52-4.87-.93-5.39-.93-5.39l-.83.73C90.62,218.44,71,215.74,71,215.74Z"/><path class="cls-12" d="M80.33,220.11A46.41,46.41,0,0,1,69.82,219a.33.33,0,0,1-.24-.32l.1-3a.39.39,0,0,1,.11-.22.34.34,0,0,1,.24-.07l1,.1a38.15,38.15,0,0,0,4.83.26c6.33,0,18.12-1.22,26-9.39l.84-.74a.27.27,0,0,1,.24-.07.26.26,0,0,1,.21.11c.11.13.51,1,1,5.55a.29.29,0,0,1-.09.25C96.84,218.6,87.17,220.11,80.33,220.11ZM70.22,218.4a46.32,46.32,0,0,0,10.11,1.08c6.69,0,16.13-1.46,23.23-8.42a33.25,33.25,0,0,0-.74-4.74l-.49.43c-8,8.32-20,9.56-26.44,9.56a41.4,41.4,0,0,1-4.9-.26L70.3,216Z"/><path class="cls-13" d="M77.41,216a43,43,0,0,1-6.38-.24l-1-.1-.1,3a43.81,43.81,0,0,0,7.92,1.09A36.12,36.12,0,0,1,77.41,216Z"/><path class="cls-13" d="M97.71,215.76a27.19,27.19,0,0,0,6.17-4.58c-.52-4.87-.93-5.39-.93-5.39l-.83.73a27,27,0,0,1-5.54,4.37A45.78,45.78,0,0,1,97.71,215.76Z"/><path class="cls-11" d="M98.77,193.51a35.93,35.93,0,0,0-2.45-6.16c-1.46-2.08-.21-2.59.31-3.32s-2.8-2.9-2.8-2.9a52.73,52.73,0,0,1-6.14,3C88.89,186.9,92.42,193.46,98.77,193.51Z"/><path class="cls-12" d="M98.77,193.82h0c-6.52-.06-10.13-6.72-11.37-9.58a.33.33,0,0,1,0-.24.3.3,0,0,1,.16-.17,51.93,51.93,0,0,0,6.11-3,.3.3,0,0,1,.33,0c.46.31,2.8,1.88,3,2.84a.61.61,0,0,1-.1.5,3.49,3.49,0,0,1-.36.42c-.53.56-1,1.05,0,2.54a35.57,35.57,0,0,1,2.49,6.24.31.31,0,0,1,0,.28A.28.28,0,0,1,98.77,193.82ZM88.1,184.28c1.27,2.81,4.55,8.58,10.23,8.9a33.32,33.32,0,0,0-2.28-5.68c-1.32-1.88-.54-2.7,0-3.3.11-.12.22-.23.31-.35.05-.3-1.15-1.4-2.56-2.35A58.69,58.69,0,0,1,88.1,184.28Z"/><path class="cls-11" d="M42.64,185.48a48.64,48.64,0,0,1-4.39-2.1s-3.8,1.7-1.86,3.81c1.3,1.7-.48,3.15-.73,6.8,0,.13,0,.29,0,.46C40.08,193.52,41.93,188.48,42.64,185.48Z"/><path class="cls-12" d="M35.63,194.76a.32.32,0,0,1-.2-.08.26.26,0,0,1-.1-.25l0-.46a14.15,14.15,0,0,1,.78-3.66c.42-1.29.67-2.07,0-2.94a1.92,1.92,0,0,1-.58-1.76c.31-1.49,2.47-2.48,2.56-2.51a.31.31,0,0,1,.28,0,46.69,46.69,0,0,0,4.36,2.09.32.32,0,0,1,.19.36c-.73,3-2.62,8.23-7.25,9.21Zm2.61-11c-.62.31-1.88,1.1-2.07,2a1.35,1.35,0,0,0,.45,1.24c.87,1.15.54,2.2.1,3.53A14,14,0,0,0,36,194v0c3.89-1.09,5.6-5.58,6.31-8.39C40.82,185,39.49,184.4,38.24,183.73Z"/><path class="cls-11" d="M98.77,193.51c-6.35,0-9.88-6.61-11.08-9.4-9.08,3.8-27,9-45,1.37-.71,3-2.56,8-7,9-.26,4.38-.86,19.62-.86,19.62s18.33,8.41,31.91,2.3c0,0,2.49-8.5,2.39-13.37,1.44,10.67,2,12.74,2,12.74s19.59,2.7,31.09-9.22C102.12,206.52,100.66,199.46,98.77,193.51Z"/><path class="cls-12" d="M55.24,218.9c-10.56,0-20.5-4.5-20.6-4.54a.32.32,0,0,1-.18-.3c0-.15.61-15.29.87-19.63a.29.29,0,0,1,.24-.28c4.29-.91,6.09-5.87,6.77-8.75a.31.31,0,0,1,.42-.21,50.4,50.4,0,0,0,19.73,3.9h0a66.13,66.13,0,0,0,25.07-5.26A.32.32,0,0,1,88,184c1.2,2.75,4.65,9.16,10.8,9.21a.3.3,0,0,1,.29.21c1.87,5.9,3.35,13,3.36,13.05a.25.25,0,0,1-.08.27c-8,8.34-20,9.58-26.45,9.58h0a41.4,41.4,0,0,1-4.9-.26.31.31,0,0,1-.26-.24c0-.07-.43-1.78-1.54-9.67A75.84,75.84,0,0,1,67,216.45a.29.29,0,0,1-.17.19A27.84,27.84,0,0,1,55.24,218.9Zm-20.15-5c1.42.61,10.53,4.4,20.15,4.4a27.36,27.36,0,0,0,11.18-2.15c.32-1.1,2.43-8.7,2.33-13.13a.32.32,0,0,1,.29-.31.31.31,0,0,1,.33.26c1.2,8.8,1.77,11.77,1.92,12.51a43.77,43.77,0,0,0,4.6.23c6.3,0,18-1.21,25.89-9.27-.22-1.07-1.57-7.28-3.24-12.61-6.18-.19-9.69-6.33-11-9.29a66.62,66.62,0,0,1-25,5.19h0a51,51,0,0,1-19.63-3.81c-.77,3-2.64,7.75-6.93,8.8C35.68,199,35.16,212.05,35.09,213.88Z"/><g class="cls-14"><path class="cls-11" d="M42.81,196.71c1.74.59-1.17-1.94-.2-4.07s1.94-2.92,7.18-1.17,25.62.78,33.2-2.52c5.82-2.91,6.2,2.72,6,4.27,1.36-1.36.58.39,3.88,1S98,193,99.52,196c-.24-.84-.49-1.68-.75-2.5-6.35,0-9.88-6.61-11.08-9.4-9.08,3.8-27,9-45,1.37-.71,3-2.56,8-7,9,0,.67-.09,1.6-.14,2.69a4.32,4.32,0,0,0,2.85-1.21C40.28,194,41.06,196.13,42.81,196.71Z"/><path class="cls-11" d="M77,212.43c-3.1.39-5.24-6.4-5-9.89,1-.39,7.18-2.53,8.93-6.22-8.35,5.25-13.4,5.05-26.4.78,1.36,2.13,9.12,5.44,12.23,5.05-.39,3.1-2.52,9.51-5.43,11.64,2.32.58,3.88,1.17-2.92,2.53-9.32,1-18.84-2.25-23.48-4.14-.05,1.17-.08,1.89-.08,1.89s18.33,8.41,31.91,2.3c0,0,2.49-8.5,2.39-13.37,1.44,10.67,2,12.74,2,12.74s19.59,2.7,31.09-9.22c0,0-.09-.43-.25-1.16a43.46,43.46,0,0,1-8.6,5.33C85.12,214.57,74.64,214.76,77,212.43Z"/></g><path class="cls-2" d="M60.55,115.35c.2,1.89,1.42,4.53,6,4.39s6.76-2.29,6.76-4.39c0-1.1,0-2.18,0-3.12-2.55-1.1-6.4-1.68-12.75-1C60.52,112.41,60.51,114.23,60.55,115.35Z"/><path class="cls-3" d="M66.23,120.06c-5,0-5.84-3.27-6-4.68,0-1.11,0-2.89,0-4.2a.3.3,0,0,1,.28-.3c5.71-.58,9.89-.23,12.9,1.07a.3.3,0,0,1,.18.28c0,.93,0,2,0,3.11,0,2.25-2.18,4.57-7,4.72Zm-5.39-8.59c0,1.26,0,2.86,0,3.87.17,1.56,1.14,4.24,5.7,4.09S73,117.22,73,115.35c0-1,0-2,0-2.91C70.13,111.27,66.18,111,60.84,111.47Z"/><path class="cls-15" d="M60.55,115.35c.2,1.89,1.42,4.53,6,4.39s6.76-2.29,6.76-4.39c0-1.1,0-2.18,0-3.12-2.55-1.1-6.4-1.68-12.75-1C60.52,112.41,60.51,114.23,60.55,115.35Z"/><path class="cls-15" d="M69.48,115.85a23.12,23.12,0,0,0,3.83-1c0-.93,0-1.84,0-2.64-2.55-1.1-6.4-1.68-12.75-1,0,1.11,0,2.69,0,3.81C63.11,116.45,66.69,116.32,69.48,115.85Z"/><path class="cls-16" d="M111.38,134.15c-.83-3.31-4-1.52-4-1.52s-3-2.49-8.57-7.87-9.39-6.36-14.64-7.05c-2.07-.83-5-2.21-6.63-2.21a11.31,11.31,0,0,0-4.25-3.27c0,.94,0,2,0,3.12,0,2.1-2.16,4.26-6.76,4.39s-5.81-2.5-6-4.39c0-1.12,0-2.94,0-4.17l-1.1.12s-1.94.6-3.73,3.59a78.4,78.4,0,0,0-14.61,4c-7.57,2.7-12.75,9.12-16.9,19.9-2.9.72-4.69,4.22,1.29,7.56l.67-2s7.11,2.48,10.74,6.31c0,0-2.19,13.25-.81,23.89-2.9,3.31-3.32,5.94-1.66,7.6s25.84,18.24,60.38-.28c2.21-1.65.28-5.66-1-8,.14-11.18-1-22-1.24-27.21,3.31,2.76,5.53,3.18,5.53,3.18s1.51,5.11,7.45-1.11S112.21,137.47,111.38,134.15Z"/><path class="cls-17" d="M62.69,190.82c-16.51,0-27.09-7.11-28.49-8.5-1.06-1.06-2.26-3.5,1.55-7.92-1.25-9.92.57-22.17.81-23.69-3.14-3.23-8.85-5.5-10.22-6l-.57,1.7a.33.33,0,0,1-.18.19.3.3,0,0,1-.26,0c-3.9-2.18-4.25-4.26-4.11-5.3A3.57,3.57,0,0,1,24,138.49c4.3-11.13,9.56-17.28,17-19.93a79.77,79.77,0,0,1,14.52-4c1.82-3,3.76-3.58,3.84-3.6.43-.06.8-.1,1.16-.13a.31.31,0,0,1,.34.31c0,1.85,0,3.29,0,4.15.17,1.56,1.14,4.24,5.7,4.09S73,117.22,73,115.35c0-1.09,0-2.18-.05-3.11a.29.29,0,0,1,.14-.26.3.3,0,0,1,.3,0,11.21,11.21,0,0,1,4.27,3.24A19.25,19.25,0,0,1,83,116.9c.45.18.88.37,1.28.52,5,.65,9,1.55,14.74,7.11,4.77,4.65,7.7,7.16,8.39,7.73a4.45,4.45,0,0,1,1.76-.43,2.52,2.52,0,0,1,2.51,2.25c.78,3.13.39,8.23-5.88,14.8-2,2.11-3.78,3.17-5.22,3.17h0a3,3,0,0,1-2.71-2,14.49,14.49,0,0,1-4.93-2.76c.07,1.19.17,2.61.29,4.21.43,5.86,1,13.88.91,22.25,1.59,3,3.09,6.65.85,8.34C84.14,187.88,73.29,190.82,62.69,190.82ZM26.15,144l.1,0c.29.1,7.23,2.54,10.86,6.39a.32.32,0,0,1,.09.26c0,.13-2.17,13.33-.81,23.8a.32.32,0,0,1-.08.24c-2.66,3-3.26,5.59-1.67,7.18,1.29,1.29,12,8.32,28.05,8.32,10.5,0,21.25-2.91,32-8.65,1.87-1.41.27-5-1.09-7.6a.26.26,0,0,1,0-.15c.1-8.37-.48-16.4-.91-22.27-.14-1.94-.27-3.61-.33-4.93a.31.31,0,0,1,.17-.29.32.32,0,0,1,.34,0,14,14,0,0,0,5.38,3.11.29.29,0,0,1,.24.22,2.43,2.43,0,0,0,2.17,1.75c1.27,0,2.87-1,4.77-3,6.08-6.36,6.47-11.24,5.72-14.21-.29-1.19-.92-1.77-1.9-1.77a3.75,3.75,0,0,0-1.65.45.34.34,0,0,1-.35,0s-3.11-2.56-8.58-7.9-9.51-6.31-14.47-7c-.48-.18-.91-.36-1.36-.55-1.85-.77-4-1.66-5.23-1.66a.32.32,0,0,1-.24-.11,10.82,10.82,0,0,0-3.7-3c0,.81,0,1.72,0,2.62,0,2.25-2.18,4.57-7,4.72-5.26.15-6.19-3.24-6.34-4.68,0-1,0-2.59,0-3.85l-.76.08h0a7.82,7.82,0,0,0-3.5,3.44.27.27,0,0,1-.22.15,78,78,0,0,0-14.54,3.94c-7.32,2.61-12.47,8.69-16.72,19.72a.31.31,0,0,1-.21.19,3,3,0,0,0-2.43,2.32c-.12.85.2,2.55,3.47,4.48l.54-1.65a.31.31,0,0,1,.3-.21Z"/><path class="cls-16" d="M66.23,120.06c-5,0-5.84-3.27-6-4.68,0-1.11,0-2.89,0-4.2a.3.3,0,0,1,.28-.3c5.71-.58,9.89-.23,12.9,1.07a.3.3,0,0,1,.18.28c0,.93,0,2,0,3.11,0,2.25-2.18,4.57-7,4.72Zm-5.39-8.59c0,1.26,0,2.86,0,3.87.17,1.56,1.14,4.24,5.7,4.09S73,117.22,73,115.35c0-1,0-2,0-2.91C70.13,111.27,66.18,111,60.84,111.47Z"/><path class="cls-17" d="M36.89,150.61s0-1.4.22-3.49c.11-1.05.25-2.27.43-3.57s.45-2.68.69-4.06l.45-2c.15-.67.3-1.34.48-2s.36-1.25.53-1.82.33-1.13.5-1.63c.35-1,.7-1.8.91-2.38l.37-.89s-.08.35-.21,1-.34,1.45-.62,2.45-.46,2.22-.77,3.49c-.16.63-.26,1.3-.41,2l-.42,2c-.27,1.37-.53,2.73-.78,4s-.51,2.48-.69,3.51-.37,1.89-.49,2.49Z"/><path class="cls-17" d="M37.88,128.21s.14.42.3,1c.09.3.2.66.28,1s.19.78.32,1.18.2.8.33,1.17.18.74.29,1a7.26,7.26,0,0,1,.27,1,5.92,5.92,0,0,1-.7-.84,5.26,5.26,0,0,1-.55-1,3.47,3.47,0,0,1-.24-.59l-.19-.61a7.82,7.82,0,0,1-.28-2.39A4.5,4.5,0,0,1,37.88,128.21Z"/><path class="cls-17" d="M36.08,174.5a5.19,5.19,0,0,1,.45.79,15,15,0,0,1,.67,1.8,10.88,10.88,0,0,1,.37,1.88,5.38,5.38,0,0,1,0,.92,5.27,5.27,0,0,1-.48-.77,10.17,10.17,0,0,1-.72-1.81,8,8,0,0,1-.24-1c0-.33-.08-.64-.1-.91A5.22,5.22,0,0,1,36.08,174.5Z"/><path class="cls-17" d="M90.24,130.84a19.75,19.75,0,0,1,.81,2.37l.33,1.17c.1.42.24.85.31,1.32.18.92.35,1.91.51,2.89.07.5.14,1,.22,1.48s.06,1,.1,1.45c0,.94.08,1.82.09,2.57s0,1.37,0,1.81,0,.69,0,.69-.06-.25-.14-.68-.2-1-.31-1.79-.24-1.59-.35-2.52c-.05-.46-.11-.94-.17-1.43s-.16-1-.24-1.46c-.14-1-.3-2-.4-2.88s-.3-1.77-.39-2.51-.17-1.37-.26-1.8S90.24,130.84,90.24,130.84Z"/><path class="cls-17" d="M93.83,173.53a3.51,3.51,0,0,1,.22.78,6.13,6.13,0,0,1,.1.82c0,.3,0,.61,0,.93A5.51,5.51,0,0,1,94,177a6.21,6.21,0,0,1-.24.79,4.22,4.22,0,0,1-.34.74,4.68,4.68,0,0,1-.12-.82,16.24,16.24,0,0,1,0-1.7,13.28,13.28,0,0,1,.26-1.68A7.16,7.16,0,0,1,93.83,173.53Z"/><path class="cls-17" d="M56.65,118.68a6.24,6.24,0,0,1-.87-1.8,4.8,4.8,0,0,1,.43-2.44c.09-.25-.16-.18-.23,0-.82,1.62-1.2,3.41.29,4.78C56.45,119.37,56.74,118.84,56.65,118.68Z"/><path class="cls-17" d="M77.34,114.88c-.06-.16-.34.17-.3.3a4.56,4.56,0,0,1-.37,4.07c-.19.3,0,.64.29.3A4.55,4.55,0,0,0,77.34,114.88Z"/><path class="cls-2" d="M26.15,144.3a152.27,152.27,0,0,0-6.31,29.16c-1.34,9.95-1.55,11.61-4.76,14.92s-8.4,8.19-4.25,14.51c1.76,4,2.48,3.63,2.48,3.63C14.77,210.35,16,210,16,210s-.31,4,2,4.14,2.28-2.69,2-6.73.75-6.62,2.69-6.32c1.35.21,1.76,1.34,1,4.14s.83,4.26,2.48,4.67c1.15.31.42-3.11,2.29-6s1.65-2.39.61-5-.09-6.1-1.55-8.4c-1.24-2-.31-5,1.66-12.33s7.72-27.62,7.72-27.62S31.52,145.92,26.15,144.3Z"/><path class="cls-3" d="M18.1,214.5H18a1.94,1.94,0,0,1-1.39-.66,5.64,5.64,0,0,1-.89-3.51c-.55-.15-1.54-.82-2.59-3.51-.67-.17-1.53-1.45-2.55-3.81-4.09-6.22.72-11.16,3.9-14.43l.4-.41c3.13-3.23,3.33-4.73,4.66-14.56l0-.19a153.88,153.88,0,0,1,6.33-29.22.3.3,0,0,1,.38-.2c5.37,1.62,10.63,6.19,10.85,6.38a.3.3,0,0,1,.1.32c-.06.2-5.78,20.34-7.72,27.61l-.38,1.4c-1.65,6.15-2.4,9-1.32,10.69a9.5,9.5,0,0,1,1,4.66,11.88,11.88,0,0,0,.57,3.78l.34.81c.75,1.77.66,1.89-.75,4.07l-.23.38a10.58,10.58,0,0,0-1.39,4.22c-.19,1.13-.32,1.94-1,1.94h0a.56.56,0,0,1-.22,0,3.79,3.79,0,0,1-2.4-1.7,4.28,4.28,0,0,1-.31-3.33c.43-1.65.46-2.72.1-3.27a1.18,1.18,0,0,0-.88-.49,1.43,1.43,0,0,0-1.32.47c-.85.91-1.22,2.92-1,5.52.22,2.9.32,5.38-.69,6.48A1.92,1.92,0,0,1,18.1,214.5ZM16,209.73a.44.44,0,0,1,.21.07.35.35,0,0,1,.1.26s-.17,2.35.73,3.37a1.32,1.32,0,0,0,.94.45h.11a1.32,1.32,0,0,0,1-.4c.83-.91.72-3.36.52-6-.22-2.8.2-4.93,1.17-6a2,2,0,0,1,1.88-.67,1.82,1.82,0,0,1,1.3.76c.47.73.47,1.92,0,3.77a3.64,3.64,0,0,0,.24,2.87,3.16,3.16,0,0,0,2,1.41h0c.22,0,.36-.84.45-1.41a11.48,11.48,0,0,1,1.48-4.46l.24-.37c1.32-2,1.32-2,.7-3.5-.1-.24-.22-.5-.34-.82a12.46,12.46,0,0,1-.63-4,9,9,0,0,0-.9-4.38c-1.23-1.95-.51-4.65,1.24-11.18l.38-1.39c1.85-6.9,7.07-25.34,7.67-27.43-.89-.75-5.53-4.53-10.2-6a157.28,157.28,0,0,0-6.19,28.81l0,.19c-1.33,9.78-1.57,11.54-4.83,14.91l-.4.41c-3.23,3.32-7.65,7.86-3.81,13.71,1.36,3.12,2.05,3.46,2.15,3.5a.28.28,0,0,1,.18,0,.29.29,0,0,1,.18.19c1.25,3.29,2.29,3.33,2.34,3.33Z"/><path class="cls-3" d="M16.18,210.26l-.48-2.13c-.07-.32-.15-.66-.23-1s-.17-.74-.28-1.13-.21-.79-.31-1.2-.19-.85-.27-1.34c0-.24,0-.5,0-.74s.11-.48.15-.71a9,9,0,0,1,.53-1.21,21.94,21.94,0,0,1,1.13-2c.73-1.1,1.26-1.81,1.26-1.81s-.07.22-.22.57-.35.87-.62,1.46-.58,1.3-.89,2c-.18.37-.27.76-.42,1.13l-.1.57c0,.19,0,.37,0,.56s.06.4.1.62l.12.6c.1.43.17.86.26,1.27a18.54,18.54,0,0,1,.26,2.25c0,.66,0,1.21,0,1.59S16.18,210.26,16.18,210.26Z"/><path class="cls-3" d="M13.31,206.52a8.18,8.18,0,0,1-.89-1.7,8.42,8.42,0,0,1-.3-.89,7.62,7.62,0,0,1-.22-1,7.11,7.11,0,0,1-.07-1.15,9.57,9.57,0,0,1,.19-1.22c.12-.35.25-.71.38-1.06s.25-.69.4-1c.33-.65.63-1.25.92-1.75a16.9,16.9,0,0,1,1.08-1.58s-.24.73-.64,1.79c-.2.53-.41,1.14-.67,1.78-.13.32-.21.69-.33,1l-.36,1.07a9.91,9.91,0,0,0-.17,1c0,.35,0,.69,0,1s0,.67.1,1,.08.61.15.89C13.1,205.78,13.31,206.52,13.31,206.52Z"/><path class="cls-3" d="M11,203.2a5.65,5.65,0,0,1-.44-1.37,8,8,0,0,1-.17-1.48,8.49,8.49,0,0,1,.12-1.72A8.06,8.06,0,0,1,11,197a4.67,4.67,0,0,1,.34-.71,3.43,3.43,0,0,1,.38-.6,4.3,4.3,0,0,1,.69-.8c.18-.18.29-.27.29-.27l-.16.36c0,.12-.11.25-.19.4l-.21.54a11.89,11.89,0,0,0-.45,1.32,6.19,6.19,0,0,0-.19.77,6.5,6.5,0,0,0-.17.79c-.1.53-.15,1.08-.2,1.59s-.08,1-.09,1.42C11,202.62,11,203.2,11,203.2Z"/><path class="cls-7" d="M35.65,164.33a67.71,67.71,0,0,0,.43,10.17c-2.9,3.31-3.32,5.94-1.66,7.6s25.84,18.24,60.38-.28c2.21-1.65.28-5.66-1-8,0-2.51,0-5-.07-7.43-3.3.06-9.64,1.38-24.59,4.09C51.66,173.62,36.94,165.11,35.65,164.33Z"/><path d="M62.69,190.82c-16.51,0-27.09-7.11-28.49-8.5-1.06-1.06-2.26-3.5,1.55-7.92a67.17,67.17,0,0,1-.41-10.07.29.29,0,0,1,.16-.27.31.31,0,0,1,.31,0,53.08,53.08,0,0,0,25.42,6.79,44.67,44.67,0,0,0,7.88-.7L78,168.53c8.79-1.61,13.2-2.42,15.77-2.47.16,0,.31.12.31.29.08,2.67.11,5.09.08,7.38,1.59,3,3.09,6.65.85,8.34C84.14,187.88,73.29,190.82,62.69,190.82ZM36,164.86a64.57,64.57,0,0,0,.44,9.6.32.32,0,0,1-.08.24c-2.66,3-3.26,5.59-1.67,7.18,1.29,1.29,12,8.32,28.05,8.32,10.5,0,21.25-2.91,32-8.65,1.87-1.41.27-5-1.09-7.6a.26.26,0,0,1,0-.15c0-2.22,0-4.55-.07-7.11-2.57.1-7,.91-15.35,2.45l-8.88,1.62a45,45,0,0,1-8,.71A54,54,0,0,1,36,164.86Z"/><path class="cls-4" d="M37.66,145l-1,5.39.2.19a113.41,113.41,0,0,0-1.24,13.72c1.29.78,16,9.29,33.52,6.13,15-2.71,21.29-4,24.59-4.09-.25-8.33-1-15.72-1.17-19.78l.14.11c-.11-1-.25-2-.44-3.22C52.69,154.86,37.66,145,37.66,145Z"/><path class="cls-5" d="M61.23,171.47A53.77,53.77,0,0,1,35.5,164.6a.33.33,0,0,1-.16-.27,111.25,111.25,0,0,1,1.22-13.61l-.08-.08a.28.28,0,0,1-.09-.27l1-5.4a.3.3,0,0,1,.18-.23.32.32,0,0,1,.3,0c.06,0,6.14,3.89,20.34,3.89,9.93,0,21.37-1.84,34-5.48a.29.29,0,0,1,.24,0,.32.32,0,0,1,.15.21c.17,1,.31,2.09.42,3.14a.31.31,0,0,1,0,.13.32.32,0,0,1-.13.26c.07,1.25.18,2.77.31,4.51.3,4.12.67,9.25.83,14.88a.27.27,0,0,1-.08.23.29.29,0,0,1-.22.1c-2.52,0-6.92.85-15.66,2.46l-8.88,1.62A45,45,0,0,1,61.23,171.47ZM36,164.16a53.23,53.23,0,0,0,25.26,6.69,44.67,44.67,0,0,0,7.88-.7L78,168.53c8.44-1.55,12.84-2.36,15.45-2.47-.16-5.5-.53-10.51-.82-14.54-.14-1.93-.27-3.6-.33-4.92a.3.3,0,0,1,.09-.24c-.09-.83-.2-1.66-.33-2.48-12.58,3.59-24,5.41-33.87,5.41-12.53,0-18.72-2.91-20.29-3.77L37,150.31l.08.09a.32.32,0,0,1,.09.26A112.63,112.63,0,0,0,36,164.16Z"/><g class="cls-18"><path class="cls-19" d="M111.38,134.15c-.83-3.31-4-1.52-4-1.52s-3-2.49-8.57-7.87-9.39-6.36-14.64-7.05c-2.07-.83-5-2.21-6.63-2.21a11.31,11.31,0,0,0-4.25-3.27c0,.94,0,2,0,3.12,0,2.1-2.16,4.26-6.76,4.39s-5.81-2.5-6-4.39c0-1.12,0-2.94,0-4.17l-1.1.12s-1.94.6-3.73,3.59a78.4,78.4,0,0,0-14.61,4,21.79,21.79,0,0,0-2.79,1.22h.05s8-2.46,12.74-2.67c3.9-.21,1.84,2.47,7.6,4.94-2.26-3.5-1.44-5.76,0-6s4.52,9.24,13.57,3.49c5.75-4.52,2.88,2.06-.83,4.32,5.35-1.45,6.82-2,8.43-4.73,1.24-2.06,3.49.82,7.4.82s6.37,1.85,12.33,7.81c2.88,3.28,4.11,2.87,2.88,4.93s-3.09,6.37-2.67,9c2.46-5.34,3.28-8.22,4.93-7.6s-.83,3.29-2.68,6.78-3.28,10.28-3.9,6.37c-3.91-2.26-4.24-3.54-7.56-14.3,0,0,1.4,20.05-.46,27.46S93,173.1,83.56,177c-8,2.88-2.06,2.88,2.88.2s7,4.32-3.29,7.2S55,189.54,41.23,182.76c-6-3.9-6-7.4,3.28-4.93,9.05,2.67,12.33.41,12.33.41s-16.85,0-17.26-9-1.23-25.07,3.91-44c-3.09,3.9-3.3,6.81-3.3,6.81a31.24,31.24,0,0,1-2.46-5.78c-.41,4.93.5,11.65-4,16.17,2.63,1.13,3.11,5.27-.56,3.19s-7.16-3.38-9-3.57-2.54-2.64,2.17-2a30.55,30.55,0,0,1,2.67-11,53.56,53.56,0,0,0-4.75,9.65c-2.9.72-4.69,4.22,1.29,7.56l.67-2s7.11,2.48,10.74,6.31c0,0-2.19,13.25-.81,23.89-2.9,3.31-3.32,5.94-1.66,7.6s25.84,18.24,60.38-.28c2.21-1.65.28-5.66-1-8,.14-11.18-1-22-1.24-27.21,3.31,2.76,5.53,3.18,5.53,3.18s1.51,5.11,7.45-1.11S112.21,137.47,111.38,134.15Z"/></g><path class="cls-2" d="M107.82,135.07l6.32,2.57s4.92-9.25,6.22-14.08c.21-1.55-2.39-2.07-2.18-4.45s-.65-6.58-2.87-8.93c-1.93-2.14,0-2.69,1.8-2.62s3.94,2.07,4.43,3.18c.55-6.78,1-15.34,3.65-16.31s1.83,8.93,1.83,14.18c3.18-12.78,5.08-14.25,6.88-13.76s0,9.05-2,15.61c4-9,6.78-12,8-11.33s-.28,7.6-3.73,13.13c5.87-6.92,7.11-7.47,8.15-6.78s-.21,4.91-6.49,9.4c-1.11.71-1.83,5.89-4.79,8.58s-5.28,1.35-5.28,1.35-5,26.27-10.52,27.93-16-4.67-16-4.67S101,142.08,107.82,135.07Z"/><path class="cls-3" d="M115.16,153.33c-5.71,0-13.69-4.79-14-5a.32.32,0,0,1-.15-.25c0-.25-.24-6.21,6.62-13.23a.31.31,0,0,1,.34-.07l6.06,2.46c.79-1.51,4.91-9.48,6.06-13.76.06-.49-.28-.87-.84-1.45a3.58,3.58,0,0,1-1.35-3c.19-2.11-.57-6.34-2.78-8.68-.79-.88-1-1.6-.8-2.18.38-.85,1.75-1,2.53-1h.3c1.58.06,3.28,1.42,4.17,2.54l.08-.91c.53-6.78,1.07-13.79,3.72-14.74a1.13,1.13,0,0,1,1.27.28c1.29,1.31,1.15,6.41,1,10.9,0,.22,0,.44,0,.67,2.54-9.5,4.25-11.53,6-11.53a2.37,2.37,0,0,1,.63.08,1.06,1.06,0,0,1,.63.54c.91,1.64-.17,7.19-1.38,11.81,2.62-5.3,4.83-8.17,6.31-8.17a1,1,0,0,1,1,.88c.44,1.68-.62,6.06-2.65,10.2,3.55-4,4.82-4.85,5.76-4.85a1.52,1.52,0,0,1,.84.27,1.18,1.18,0,0,1,.47,1c0,1.43-1.42,4.91-6.95,8.86a6.81,6.81,0,0,0-1.2,2.38c-.72,1.91-1.72,4.51-3.56,6.18a5.88,5.88,0,0,1-4,1.77,4,4,0,0,1-1.3-.21c-.66,3.36-5.36,26.18-10.66,27.78A7.32,7.32,0,0,1,115.16,153.33ZM101.6,147.9c1.13.66,8.44,4.8,13.56,4.8a6.78,6.78,0,0,0,2-.26c5.25-1.59,10.25-27.43,10.31-27.69a.28.28,0,0,1,.17-.22.33.33,0,0,1,.29,0,3,3,0,0,0,1.37.3,5.38,5.38,0,0,0,3.54-1.61c1.73-1.57,2.7-4.09,3.4-5.93.53-1.37.9-2.35,1.43-2.68,5.32-3.81,6.7-7.12,6.68-8.34a.72.72,0,0,0-.19-.54.86.86,0,0,0-.5-.17c-1,0-3,1.93-7.24,6.89a.32.32,0,0,1-.43,0,.31.31,0,0,1-.08-.41c3.08-4.92,4.47-10.68,4-12.34a.62.62,0,0,0-.19-.35.54.54,0,0,0-.22-.05c-1.14,0-3.66,3-7.36,11.23a.31.31,0,0,1-.58-.21c1.9-6.23,3.36-13.38,2.46-15a.48.48,0,0,0-.24-.23,2,2,0,0,0-.47-.06c-1.23,0-3,1.55-6,13.6a.33.33,0,0,1-.34.24.32.32,0,0,1-.28-.31c0-1,0-2.11.06-3.31.11-3.94.25-9.32-.85-10.45a.52.52,0,0,0-.62-.12c-2.27.81-2.84,8.23-3.31,14.19l-.15,1.84a.31.31,0,0,1-.6.1c-.43-1-2.47-2.93-4.14-3h-.28c-1,0-1.79.23-2,.62s.1.84.68,1.49c2.37,2.52,3.15,6.87,2.95,9.17a3,3,0,0,0,1.17,2.47,2.45,2.45,0,0,1,1,2c-1.3,4.83-6,13.8-6.25,14.18a.32.32,0,0,1-.4.14l-6.13-2.49C102,141.56,101.62,146.9,101.6,147.9Z"/><path class="cls-3" d="M114.14,137.64s0,.1-.07.27-.1.41-.19.69-.2.59-.27,1-.2.73-.31,1.1a9,9,0,0,0-.32,1.09c-.1.35-.2.67-.3.95-.2.56-.38.93-.38.93s0-.41,0-1c0-.3.06-.65.11-1a6.21,6.21,0,0,1,.26-1.14c.13-.37.26-.75.4-1.09a6.06,6.06,0,0,1,.46-.92A4.5,4.5,0,0,1,114.14,137.64Z"/><path class="cls-3" d="M121.54,110.74a3.91,3.91,0,0,1,.58.84,5.43,5.43,0,0,1,.38,1,5.85,5.85,0,0,1,.19,1,3,3,0,0,1,0,.52v.52l-.27-.3a5.53,5.53,0,0,1,.91.12,5.77,5.77,0,0,1,.9.26,7.73,7.73,0,0,1,1.58.91,9,9,0,0,1,1.3,1.24,8.13,8.13,0,0,1,1,1.48,14,14,0,0,0-2.61-2.27,7.63,7.63,0,0,0-1.5-.78,7.24,7.24,0,0,0-.79-.25c-.27-.08-.54-.08-.82-.14h0a.29.29,0,0,1-.24-.3c0-.33,0-.65,0-1a7.93,7.93,0,0,0-.07-1,3.7,3.7,0,0,0-.08-.48,3.76,3.76,0,0,0-.13-.48A5.26,5.26,0,0,0,121.54,110.74Z"/><path class="cls-3" d="M121.6,110a3.48,3.48,0,0,1,.49-.17,8.35,8.35,0,0,1,1.34-.3,9.06,9.06,0,0,1,1.93-.09,10.56,10.56,0,0,1,1.1.12,8.13,8.13,0,0,1,1.11.25,7.66,7.66,0,0,1,1.08.38,8.42,8.42,0,0,1,1,.49,7.48,7.48,0,0,1,.86.56,6.13,6.13,0,0,1,.71.58,5.68,5.68,0,0,1,.55.54l.39.46c.21.24.32.39.32.39l-.41-.31-.45-.37c-.17-.15-.4-.27-.62-.43a7.45,7.45,0,0,0-.75-.47,8.72,8.72,0,0,0-.86-.47c-.31-.13-.62-.3-1-.42a10.35,10.35,0,0,0-1-.34c-.34-.1-.69-.18-1-.25s-.7-.11-1-.17-.67-.07-1-.08l-.89,0c-.55,0-1,0-1.34.06Z"/><path class="cls-20" d="M106.54,99.19C131,95.29,131.25,74,131.25,74A20.2,20.2,0,0,1,133.2,78c5-11-2.17-15.61-2.17-15.61a45.92,45.92,0,0,0,7.59,4.12c-5.64-8.67-3-10.4-9.76-30.77-7.8-19.5-21.45-18.86-21.45-18.86S99.7-2.21,69.24.59,29.07,15.06,16.11,30.84c-6.7,8.21-13.18,9.93-13.18,9.93s4.1,3,8,.22c-8,10.15-13.17,19.44-9.29,30a23.49,23.49,0,0,1,4.11-10.8s-4.11,7.13,0,18.57S22.37,94.56,31.22,98Z"/><path d="M106.54,99.5h0L31.22,98.33l-.1,0-1.38-.54C21.15,94.45,9.39,89.9,5.45,78.9c-2.53-7-2-12.51-1.13-15.7a24.8,24.8,0,0,0-2.38,7.85.31.31,0,0,1-.6.07c-3.69-10.05.6-19,8.39-29.11a6.28,6.28,0,0,1-2.44.48A8.45,8.45,0,0,1,2.74,41a.32.32,0,0,1-.12-.3.31.31,0,0,1,.23-.24c.06,0,6.47-1.82,13-9.84C28.51,15.26,38.49,3.12,69.22.28c2-.18,4-.28,6-.28,13.28,0,21.4,4.53,25.87,8.33a24.77,24.77,0,0,1,6.54,8.19c1.65,0,14.21.73,21.55,19.06a159.43,159.43,0,0,1,5,18.31c1,4.88,1.63,7.58,4.71,12.34a.31.31,0,0,1-.21.55l-.11,0a33.07,33.07,0,0,1-5.28-2.66c1.75,2.35,3.48,6.83.25,14a.3.3,0,0,1-.3.18.31.31,0,0,1-.28-.23,15.91,15.91,0,0,0-1.41-3c-.43,4.29-3.5,21-24.9,24.45ZM31.29,97.71l75.23,1.17C119,96.88,125,90.23,127.8,85a26.34,26.34,0,0,0,3.14-11,.31.31,0,0,1,.22-.29.32.32,0,0,1,.35.13,24.64,24.64,0,0,1,1.72,3.22c4.05-9.78-1.66-14-2.34-14.48a.33.33,0,0,1-.11-.43.31.31,0,0,1,.42-.11h0a50.88,50.88,0,0,0,6.63,3.73c-2.74-4.4-3.32-7.11-4.32-11.8a159.24,159.24,0,0,0-5-18.23c-7.25-18.12-19.62-18.65-21-18.65h-.15a.29.29,0,0,1-.3-.19,23.81,23.81,0,0,0-6.48-8.16C96.25,5.06,88.27.62,75.2.62c-1.91,0-3.9.09-5.93.28C38.8,3.71,29.38,15.17,16.35,31,10.81,37.82,5.48,40.2,3.66,40.86a7.71,7.71,0,0,0,3.63,1,5.82,5.82,0,0,0,3.45-1.14.3.3,0,0,1,.4,0,.31.31,0,0,1,0,.41C3.24,51.25-1.44,60,1.52,69.71a23.46,23.46,0,0,1,4-9.69A.32.32,0,0,1,5.91,60a.32.32,0,0,1,.1.41c0,.07-4,7.15,0,18.32C9.88,89.42,21.48,93.91,30,97.19Z"/><g class="cls-18"><path class="cls-20" d="M131.06,62.36l0,0Z"/><path class="cls-20" d="M105.85,18.44c-4.35-6.22-14.92-7.25-22.38-3.73,13.68-.83,20.72,2.28,23.21,13.67.83-8.08,7.25-10.15,14.51-2.27a18.35,18.35,0,0,1-2.47-4.9c-5.93-4.63-11.31-4.38-11.31-4.38s-6.3-15.55-30-16.47l0,0S100.05,1,105.85,18.44Z"/><path class="cls-20" d="M131.06,62.36l0,0,0,0a45.15,45.15,0,0,0,7.56,4.1c-5.37-8.25-3.27-10.23-8.86-28,2.91,10.44-.68,15.35,3.59,23-7.88-3.87-13.27-14.78-13.27-14.78a55.08,55.08,0,0,0,3,19.75c-7-4-12-17.13-15.2-27.91a80.52,80.52,0,0,0-4,15.61,99.11,99.11,0,0,1-2.34-18.92c-1.52,6.35-9.26,14.37-9.26,14.37A68.74,68.74,0,0,0,98,34.4C83.47,56.78,62.47,55.67,62.47,55.67s7.18-7,6.21-19.75C63.3,51,52.8,55.53,52.8,55.53a47.29,47.29,0,0,0,5.66-17.41C51,53.88,37.88,58.44,37.88,58.44S44,50,43.68,40.89c-7,12.57-19.07,20.59-17.41,18.51s8-14.5,8-14.5-13,9-21.28,17.68c.83-9.12,8.72-19.79,8.72-19.79S10.5,49.59,6.62,54.33c.32-4.1,4.85-10,12.29-19.09C11,40.6,6,41.17,3.22,40.68l-.29.09s4.1,3,8,.22c-8,10.15-13.17,19.44-9.29,30a23.49,23.49,0,0,1,4.11-10.8s-4.11,7.13,0,18.57S22.37,94.56,31.22,98l75.32,1.18C131,95.29,131.25,74,131.25,74A20.2,20.2,0,0,1,133.2,78C138,67.25,131.49,62.65,131.06,62.36Z"/></g><path class="cls-2" d="M25.19,79.76s-.94-7.77-6-7.3S12,81.17,15.27,86.8s10,4.49,9.79,1.14A76.84,76.84,0,0,1,25.19,79.76Z"/><path class="cls-3" d="M21.47,91.05A7.65,7.65,0,0,1,15,87a12.44,12.44,0,0,1-.46-11.37,5.83,5.83,0,0,1,4.59-3.45c5.36-.49,6.33,7.27,6.37,7.59a81.7,81.7,0,0,0-.13,8.19,2.58,2.58,0,0,1-.71,2A4.37,4.37,0,0,1,21.47,91.05Zm-1.88-18.3a2.75,2.75,0,0,0-.4,0,5.21,5.21,0,0,0-4.1,3.11,11.75,11.75,0,0,0,.45,10.76,7,7,0,0,0,5.93,3.79,3.71,3.71,0,0,0,2.73-1A2,2,0,0,0,24.75,88a78.41,78.41,0,0,1,.13-8.22S24,72.75,19.59,72.75Z"/><path class="cls-15" d="M25.19,79.76s-.8-6.54-4.87-7.25a4.06,4.06,0,0,1,.74,1.61,3.17,3.17,0,0,1-1,3.44c-.51.38-1.23.16-1.8.36-2.58.87-3.24,3-2.62,5.5.45,1.73,1.47,3,.57,4.66,3.48,4.13,9.06,2.93,8.88-.14A76.84,76.84,0,0,1,25.19,79.76Z"/><path class="cls-3" d="M18.42,79.16c-2.2-.64-2.44,2.16-2.33,3.51,0,.18.2,0,.19-.15-.11-1.76.53-3.36,2.31-2.71.73.27,1.26,1.16,1.67,1.77a10.14,10.14,0,0,1,.64,1.1,11.35,11.35,0,0,0-1.73,3c-.05.13,0,.25.13.1.36-.61.63-1.23,1-1.81a6.06,6.06,0,0,1,.62-.88l.12-.14c.54,1.09,1,2.21,1.53,3.32.14.25.39-.2.35-.35C22.47,83.74,20.84,79.87,18.42,79.16Z"/><path class="cls-15" d="M16.45,84.63c-.68-1.58-.74-4.84,1.29-5.58,1.73-.19,3.07,1.42,3.86,2.83s1.93,3.71,1,5.19C20.94,89.75,17.23,86.47,16.45,84.63Z"/><path class="cls-2" d="M116.31,78.52s1.72-7.64,6.75-6.65,6.24,9.4,2.4,14.67-10.39,3.45-9.86.14A77.91,77.91,0,0,0,116.31,78.52Z"/><path class="cls-3" d="M119.49,90.16a4.75,4.75,0,0,1-3.59-1.41,2.6,2.6,0,0,1-.6-2.13,78.52,78.52,0,0,0,.69-8.1c.07-.35,1.64-7,6.19-7a5,5,0,0,1,.93.09,5.83,5.83,0,0,1,4.22,3.89,12.47,12.47,0,0,1-1.62,11.27A7.79,7.79,0,0,1,119.49,90.16Zm-2.88-11.57a78.73,78.73,0,0,1-.7,8.13,2,2,0,0,0,.46,1.62,4.13,4.13,0,0,0,3.12,1.2,7.19,7.19,0,0,0,5.72-3.19,11.8,11.8,0,0,0,1.54-10.67A5.24,5.24,0,0,0,123,72.17a4.54,4.54,0,0,0-.81-.08c-4.06,0-5.56,6.44-5.57,6.5Z"/><path class="cls-15" d="M116.31,78.52s1.46-6.42,5.58-6.71a4.24,4.24,0,0,0-.9,1.51,3.19,3.19,0,0,0,.67,3.54c.48.43,1.21.28,1.76.54,2.48,1.13,2.91,3.36,2,5.73-.61,1.69-1.76,2.85-1,4.58-3.87,3.76-9.31,2-8.82-1A77.91,77.91,0,0,0,116.31,78.52Z"/><path class="cls-3" d="M123.1,78.61c2.26-.41,2.21,2.4,2,3.73,0,.17-.19-.07-.17-.17.29-1.73-.19-3.39-2-2.93A4.3,4.3,0,0,0,121,80.83a11.57,11.57,0,0,0-.75,1,11.79,11.79,0,0,1,1.41,3.23c0,.12-.08.23-.15.07-.28-.63-.5-1.28-.82-1.9a7.28,7.28,0,0,0-.53-.94.78.78,0,0,1-.1-.15c-.65,1-1.19,2.1-1.87,3.15-.15.24-.36-.24-.31-.39C118.62,82.76,120.62,79.07,123.1,78.61Z"/><path class="cls-15" d="M124.51,84.25c.83-1.51,1.22-4.73-.72-5.67-1.69-.38-3.2,1.09-4.13,2.42s-2.29,3.49-1.53,5.06C119.52,88.89,123.54,86,124.51,84.25Z"/><path class="cls-2" d="M22.69,67.62s2.49,7,2.28,19.9c.21,11.4,14.92,22.59,38.55,26.12,17.2,1.65,45.18-8.3,51.81-24.46a56.15,56.15,0,0,0,2.9-19.69s-7.25-5.6-10.57-20.1c-1.24,10.36-1.44,11.4-1.44,11.4s-5.6-4.35-7.26-14.72a26.17,26.17,0,0,1-14.09,11,35.62,35.62,0,0,0,5.59-9.11c-7,8.28-15.54,14.09-34.61,11.4a48.18,48.18,0,0,0,4.56-7.46,21.58,21.58,0,0,1-16,9.53,26.87,26.87,0,0,0,6.43-7.87s-8.5,9.52-19.27,9.74a46.79,46.79,0,0,0,6.84-11.61S30,62.45,22.69,67.62Z"/><path class="cls-3" d="M67.43,114.13h0c-1.37,0-2.69-.06-3.94-.18-22.65-3.38-38.61-14.24-38.83-26.42.2-12.65-2.24-19.73-2.26-19.8a.32.32,0,0,1,.11-.36c7.13-5.09,15.6-15.79,15.69-15.89a.3.3,0,0,1,.4-.08.31.31,0,0,1,.13.38A48.2,48.2,0,0,1,32.3,62.94c10.19-.59,18.27-9.52,18.35-9.61a.31.31,0,0,1,.4-.06.31.31,0,0,1,.11.4A26.34,26.34,0,0,1,45.39,61a21.44,21.44,0,0,0,14.75-9.27.3.3,0,0,1,.41-.12.3.3,0,0,1,.14.41,48.65,48.65,0,0,1-4.27,7.09,61,61,0,0,0,8.22.59h0C78.19,59.69,85,54,90.22,47.74a.33.33,0,0,1,.41-.07.31.31,0,0,1,.11.39,39.29,39.29,0,0,1-4.93,8.36A26.81,26.81,0,0,0,98.7,45.9a.3.3,0,0,1,.33-.13.32.32,0,0,1,.24.25c1.35,8.49,5.41,12.92,6.72,14.15.15-1,.51-3.69,1.36-10.82a.32.32,0,0,1,.62,0c3.25,14.21,10.38,19.87,10.46,19.92a.34.34,0,0,1,.11.23,57.09,57.09,0,0,1-2.91,19.81C109.62,103.93,85.41,114.13,67.43,114.13ZM23.06,67.75c.41,1.3,2.41,8.26,2.22,19.78.22,11.85,16,22.47,38.29,25.8,1.21.11,2.51.17,3.86.17,17.78,0,41.71-10,47.62-24.44a56.65,56.65,0,0,0,2.88-19.42c-.9-.76-7-6.23-10.16-18.52-1,8.69-1.24,9.68-1.25,9.73a.33.33,0,0,1-.2.23.33.33,0,0,1-.3,0c-.22-.18-5.44-4.33-7.24-14.14A26.64,26.64,0,0,1,84.94,57.36a.32.32,0,0,1-.34-.15.32.32,0,0,1,0-.37,33.51,33.51,0,0,0,4.58-7c-5.17,5.64-12,10.49-24.58,10.49h0a62.79,62.79,0,0,1-8.83-.67.31.31,0,0,1-.25-.19.32.32,0,0,1,0-.31,42.18,42.18,0,0,0,2.86-4.32,22,22,0,0,1-14,6.9.32.32,0,0,1-.31-.19.31.31,0,0,1,.08-.36,29.39,29.39,0,0,0,5.12-5.72c-3.06,2.78-9.82,8-17.76,8.13a.31.31,0,0,1-.24-.51,42.83,42.83,0,0,0,5.87-9.44C34.53,56.88,28.45,63.84,23.06,67.75Z"/><path class="cls-15" d="M78.3,72.33a46.53,46.53,0,0,1,11.06-4c4.69-.82,6.78.14,8.51.86,1.14.55-.14-1.49-2.05-2.63S86.58,66,80.35,69C77.94,70.14,77.12,72.64,78.3,72.33Z"/><path class="cls-15" d="M37.32,68.28s8.3-1.56,19.38,3.83c-.05-1.8-2-3.73-6.37-4.84S38.73,64.48,37.32,68.28Z"/><path class="cls-15" d="M76.78,89.07s8.7,4.31,15.75.32a4.45,4.45,0,0,0-.18,2.77s2.09-8.35,13.07-7.8c-2.27-1.78-6.81-.92-6.81-.92A13.33,13.33,0,0,0,96.89,75c-2.52-4.41-8.89-5.39-13.63-1S77.15,85.33,76.78,89.07Z"/><path class="cls-15" d="M32.09,88.49s7.66-1.8,14.71,5.31a6.4,6.4,0,0,0-1.38-2.89s6.24,2.6,11.83-.85c0-7-5.61-23.75-17.5-17.73a10.39,10.39,0,0,0-3.31,14.36C35.47,86.21,32.78,87.31,32.09,88.49Z"/><path class="cls-15" d="M57.73,102s12.42,1.69,20.88-2.08a3.2,3.2,0,0,1,.2-2.21,5.82,5.82,0,0,0,3.44,2.86c1.18.13-1,1.17-2.34.32A46.09,46.09,0,0,1,70,106.05c-4,1.17-5.59-.39-7.87-2.21C58.63,103.51,57.73,102,57.73,102Z"/><path class="cls-4" d="M55.87,89.41c.53-.34-.9-4.93-1-5.41-1.4-5.19-4.69-9.69-10.29-10.52a5.56,5.56,0,0,0-4.14.88c-2.43,1.73-3.56,5.11-3.47,8,0,1.24.2,3.79,1,4.79C40,89.66,51.33,92.36,55.87,89.41Z"/><path class="cls-3" d="M50.14,91h0c-4.88,0-10.92-1.78-12.43-3.67-.85-1.06-1.05-3.58-1.09-5-.07-2.57.83-6.28,3.62-8.25a5.88,5.88,0,0,1,4.35-.94c5.07.75,8.91,4.66,10.55,10.75l.09.33c1.36,4.61,1.16,5.2.81,5.42A11,11,0,0,1,50.14,91Zm-6.6-17.3a4.89,4.89,0,0,0-2.94.91c-2.42,1.71-3.43,5.11-3.35,7.72.06,2.26.41,3.94.94,4.61,1.25,1.55,6.86,3.44,12,3.44h0a10.43,10.43,0,0,0,5.56-1.24c0-.11.07-.88-1.06-4.73,0-.16-.09-.28-.1-.34-.93-3.43-3.46-9.33-10-10.29A6.32,6.32,0,0,0,43.54,73.71Z"/><path class="cls-4" d="M78.24,88s11.6,5.49,18.54-2.8c2.7-4.35-1.45-14.61-9.53-11.71S78.24,88,78.24,88Z"/><path class="cls-3" d="M86.54,90.13h0a21.66,21.66,0,0,1-8.43-1.81.31.31,0,0,1-.17-.31c0-.11,1-11.83,9.22-14.77A8.42,8.42,0,0,1,90,72.71a7.55,7.55,0,0,1,6.57,4.22c1.6,2.86,1.8,6.35.48,8.47A13.05,13.05,0,0,1,86.54,90.13Zm-8-2.29a21.45,21.45,0,0,0,8,1.67,12.46,12.46,0,0,0,10-4.47c1.16-1.87,1-5.17-.52-7.81a6.94,6.94,0,0,0-6-3.9,7.79,7.79,0,0,0-2.65.5C80.16,76.41,78.75,86.25,78.57,87.84Z"/><path class="cls-3" d="M69.68,92.71a10.69,10.69,0,0,1-3.08,1.14,10.12,10.12,0,0,1-3.42-.3c-.54-.13-2-.69-1.4-1.59a8.86,8.86,0,0,1,.94-1.09,10.4,10.4,0,0,0,1.73-2.66s0-.26-.11-.17c-.85,1.23-1.85,2.34-2.78,3.49a1.25,1.25,0,0,0,.1,1.66c.79,1.08,2.53,1.21,3.72,1.33a5.61,5.61,0,0,0,4.42-1.29C69.91,93.13,69.87,92.64,69.68,92.71Z"/><path class="cls-15" d="M64.1,86.68a17.94,17.94,0,0,1-3,4.74c-1.89,2.18-.36,4.8,4.8,4.63,3.23-.11,5.18-2.29,5.12-4.55-.25-1.54-2.77,3.72-8.19,1.44-1.22-.6-.91-.88.24-2.27S64.86,88,64.1,86.68Z"/><path class="cls-15" d="M63.66,94.16s4,1.29,6-1.45C69.76,94.38,67.24,97.05,63.66,94.16Z"/><path class="cls-21" d="M65.29,86.57a6.2,6.2,0,0,1-1.93,4.48c-2,1.75,2.25,2.53,3.42-.53S65.18,83.77,65.29,86.57Z"/><path class="cls-3" d="M81.12,100.23a3.81,3.81,0,0,1-.93-.35c0-.14,0-.22-.21-.15l0,0-.06,0a4.78,4.78,0,0,1-.9-1c-.06-.07-.15.1-.13.16a5.11,5.11,0,0,0,.45,1c-6.26,3.22-13.32,2.54-20.12,2.86,0,0-.09.09,0,.09a29.82,29.82,0,0,0,3.08.37c2.51,2.13,4.52,2.93,7.76,1.89s6.62-3.15,9.79-4.76a1.55,1.55,0,0,0,1.1.39C81.07,100.77,81.4,100.29,81.12,100.23Z"/><path class="cls-4" d="M71.89,103.84c-3.54,1.74-6,1.26-9.13-.53a37,37,0,0,0,13.91-1.89Q74.3,102.65,71.89,103.84Z"/><path class="cls-20" d="M38.23,66.93a38.24,38.24,0,0,1,18.24,3.94c.28-1.79-.06-2.76-2.9-3.8a57.16,57.16,0,0,0-12.5-2.35C39.83,64.86,38.23,66.93,38.23,66.93Z"/><path d="M38.23,66.93a23.46,23.46,0,0,1,2.37-.08c.78,0,1.56,0,2.35.09.4,0,.8,0,1.18.09l1.17.16,1.18.16c.39,0,.77.15,1.16.23l1.16.24c.39.1.77.16,1.15.26l2.27.73c.37.12.76.22,1.12.37l1.09.47,2.18.95-.43.22a6.21,6.21,0,0,0,0-1c0-.17-.07-.32-.09-.49s-.14-.28-.21-.43l-.32-.37-.43-.31a7.16,7.16,0,0,0-1-.51,9.79,9.79,0,0,0-1-.4l-1.08-.34c-.72-.19-1.44-.4-2.18-.56l-2.2-.49c-.73-.16-1.47-.3-2.22-.44s-1.48-.26-2.22-.37l-1.12-.14c-.38,0-.75-.06-1.12-.08h0l-.42.1c-.13,0-.26.13-.39.19a2.49,2.49,0,0,0-.38.25,2.33,2.33,0,0,0-.35.27A10.57,10.57,0,0,0,38.23,66.93Zm0,0a10,10,0,0,1,1.22-1.37,3.27,3.27,0,0,1,.35-.3,3.73,3.73,0,0,1,.38-.28c.14-.07.26-.16.41-.23l.47-.14h0c.38,0,.77,0,1.15,0l1.14.1c.75.08,1.5.18,2.25.29s1.5.23,2.25.37,1.49.28,2.23.45,1.48.35,2.22.54l1.08.33c.36.1.74.28,1.09.41a8.11,8.11,0,0,1,1.05.55L56,68l.43.48a6.27,6.27,0,0,1,.29.58,3.52,3.52,0,0,1,.11.62,6,6,0,0,1-.06,1.21.31.31,0,0,1-.34.25l-.08,0h0l-2.13-1-1.07-.48c-.36-.15-.74-.25-1.1-.38l-2.22-.74c-.76-.2-1.52-.38-2.28-.57a10.5,10.5,0,0,0-1.14-.26l-1.15-.2-1.16-.2c-.38-.06-.77-.09-1.16-.14-.78-.1-1.56-.19-2.34-.22S39,66.93,38.23,66.93Z"/><path class="cls-20" d="M78.34,70.94S85.42,67.73,89.87,67s6.8.42,7.48,1.06c-1.9-3.26-4.59-4.9-6.65-4.48a67.89,67.89,0,0,0-10.49,4.07c-2.59,1.41-2.92,1.75-2.59,2.2S78.34,70.94,78.34,70.94Z"/><path d="M78.34,70.94c1.5-.73,3-1.38,4.57-2,.77-.32,1.55-.61,2.35-.88.39-.13.78-.29,1.18-.4l1.2-.36c.4-.14.82-.21,1.23-.31s.8-.21,1.24-.26l1.23-.16,1.28,0c.43,0,.86,0,1.28.06a10.82,10.82,0,0,1,1.27.2,7.64,7.64,0,0,1,1.23.39,4.19,4.19,0,0,1,1.16.69l-.47.36c-.28-.41-.54-.85-.84-1.24a11.89,11.89,0,0,0-1-1.14l-.53-.52-.59-.45a4.49,4.49,0,0,0-.63-.4,3.1,3.1,0,0,0-.66-.32c-.23-.07-.45-.18-.68-.23l-.71-.11-.69,0-.75.22c-.49.14-1,.27-1.47.43L87.11,65c-1,.33-1.93.7-2.88,1.09s-1.91.76-2.84,1.18c-.47.22-1,.39-1.41.63s-.91.48-1.35.74a7,7,0,0,0-.64.41c-.2.14-.42.33-.41.54A11.16,11.16,0,0,0,78.34,70.94Zm0,0-.45-.63a2.79,2.79,0,0,1-.41-.67c0-.31.23-.51.42-.67s.42-.31.63-.46c.44-.28.88-.55,1.33-.8a15.06,15.06,0,0,1,1.39-.7c.93-.45,1.87-.89,2.82-1.28s1.9-.82,2.87-1.18L88.4,64c.49-.17,1-.31,1.48-.46l.74-.22.85-.07c.28,0,.55.07.83.11a5.75,5.75,0,0,1,.77.25,3.74,3.74,0,0,1,.73.34,5.22,5.22,0,0,1,.68.43l.64.48.58.55a9.13,9.13,0,0,1,1,1.2c.32.42.58.88.87,1.32a.29.29,0,0,1-.08.4.28.28,0,0,1-.35,0l0,0a4.09,4.09,0,0,0-1-.58A6.93,6.93,0,0,0,95,67.33c-.39-.08-.79-.15-1.19-.2s-.81-.07-1.22-.07l-1.21,0-1.24.14a10.58,10.58,0,0,0-1.21.21,12.2,12.2,0,0,0-1.2.26l-1.2.33c-.41.09-.79.24-1.19.35-.8.25-1.58.53-2.37.79Q80.65,70,78.34,70.94Z"/><path class="cls-22" d="M51.66,82.45c0,3.76-2.54,6.82-5.61,6.84s-5.58-3-5.55-6.77,2.54-6.81,5.62-6.84S51.68,78.7,51.66,82.45Z"/><path class="cls-23" d="M51.66,82.45c0,3.76-2.54,6.82-5.61,6.84s-5.58-3-5.55-6.77,2.54-6.81,5.62-6.84S51.68,78.7,51.66,82.45Z"/><path class="cls-24" d="M50.34,82.71c0,2.87-1.94,5.21-4.29,5.23s-4.24-2.31-4.23-5.18,1.94-5.2,4.29-5.21S50.35,79.84,50.34,82.71Z"/><path class="cls-25" d="M49.62,82.45c0,2.26-1.53,4.11-3.38,4.12s-3.36-1.82-3.35-4.09,1.53-4.1,3.39-4.12S49.63,80.18,49.62,82.45Z"/><g class="cls-26"><path class="cls-27" d="M40.58,81.44c0,.35-.07.71-.08,1.08,0,3.76,2.46,6.79,5.55,6.77s5.59-3.08,5.61-6.84a8.47,8.47,0,0,0-.06-1C48.23,83.5,43.33,84,40.58,81.44Z"/></g><path class="cls-4" d="M45.27,80.85a2,2,0,0,1-2,2,1.88,1.88,0,0,1-1.49-2.25,2,2,0,0,1,2-2A1.9,1.9,0,0,1,45.27,80.85Z"/><path class="cls-4" d="M44.19,84.49a1,1,0,0,1-.93.94.9.9,0,0,1-.71-1.07,1,1,0,0,1,.94-.94A.89.89,0,0,1,44.19,84.49Z"/><path class="cls-22" d="M94.25,82c0,3.76-2.54,6.82-5.61,6.83s-5.58-3-5.55-6.77,2.54-6.81,5.62-6.83S94.27,78.29,94.25,82Z"/><path class="cls-23" d="M94.25,82c0,3.76-2.54,6.82-5.61,6.83s-5.58-3-5.55-6.77,2.54-6.81,5.62-6.83S94.27,78.29,94.25,82Z"/><path class="cls-24" d="M92.93,82.3c0,2.87-1.94,5.2-4.29,5.22s-4.24-2.31-4.23-5.17,1.94-5.2,4.29-5.22S92.94,79.43,92.93,82.3Z"/><path class="cls-25" d="M92.21,82c0,2.26-1.53,4.11-3.39,4.11s-3.35-1.81-3.34-4.08S87,78,88.87,78,92.22,79.77,92.21,82Z"/><g class="cls-26"><path class="cls-27" d="M83.17,81a7.85,7.85,0,0,0-.08,1.08c0,3.76,2.46,6.79,5.55,6.77S94.23,85.8,94.25,82a8.47,8.47,0,0,0-.06-1C90.82,83.08,85.92,83.58,83.17,81Z"/></g><path class="cls-4" d="M87.86,80.44a2,2,0,0,1-2,2,1.88,1.88,0,0,1-1.49-2.25,2,2,0,0,1,2-2A1.9,1.9,0,0,1,87.86,80.44Z"/><path class="cls-4" d="M86.78,84.08a1,1,0,0,1-.93.93.9.9,0,0,1-.71-1.07,1,1,0,0,1,.93-.94A.9.9,0,0,1,86.78,84.08Z"/><path class="cls-3" d="M55.75,87.65s-.12-1.25-.48-3.09a30.16,30.16,0,0,0-.74-3.09,21.9,21.9,0,0,0-1.26-3.4,13.24,13.24,0,0,0-.85-1.63,14,14,0,0,0-1-1.46,10.54,10.54,0,0,0-2.25-2.16,11.25,11.25,0,0,0-1.08-.66c-.33-.17-.63-.29-.88-.42l-.81-.29.85.18c.26.09.58.18.94.32a8.43,8.43,0,0,1,1.17.58,10.07,10.07,0,0,1,2.49,2.11,12.67,12.67,0,0,1,1.09,1.49,15.92,15.92,0,0,1,.91,1.67,19.9,19.9,0,0,1,1.22,3.52,24.75,24.75,0,0,1,.56,3.19,22.37,22.37,0,0,1,.14,2.27C55.76,87.34,55.75,87.65,55.75,87.65Z"/><path class="cls-3" d="M79.27,82.54s0-.27,0-.73a14.6,14.6,0,0,1,.34-1.89A12.3,12.3,0,0,1,80,78.69a9.46,9.46,0,0,1,.55-1.34A11.31,11.31,0,0,1,81.35,76a12,12,0,0,1,1-1.28c.18-.2.35-.41.54-.6l.6-.54a8,8,0,0,1,1.25-.93A7.54,7.54,0,0,1,86,72a6.54,6.54,0,0,1,1.21-.47,6.37,6.37,0,0,1,1-.29l.83-.14.72-.11-.7.23-.79.24c-.3.08-.62.27-1,.4a6.41,6.41,0,0,0-1.13.54,10,10,0,0,0-1.18.74,9.86,9.86,0,0,0-1.15.92l-.57.52c-.17.18-.33.38-.5.57a10.89,10.89,0,0,0-.94,1.21c-.29.42-.54.85-.78,1.27s-.45.84-.62,1.25-.33.8-.46,1.17a15,15,0,0,0-.55,1.81C79.32,82.28,79.27,82.54,79.27,82.54Z"/><path class="cls-28" d="M66.24,108.65s4.59.09,6.62-1.27C72.52,109.21,68.81,110.75,66.24,108.65Z"/><path class="cls-3" d="M72.68,107.19a9.79,9.79,0,0,1-6.38,1.27c-.1,0-.22.21-.11.25a7.51,7.51,0,0,0,6.47-1C72.81,107.58,73,107,72.68,107.19Z"/><path class="cls-3" d="M33.06,87.84a4.42,4.42,0,0,1,.62-.13,9.77,9.77,0,0,1,1.69-.16,13.94,13.94,0,0,1,2.4.17,12.69,12.69,0,0,1,2.68.72,11.41,11.41,0,0,1,1.29.56c.42.2.8.46,1.19.68s.7.51,1,.74a11.26,11.26,0,0,1,.86.74,6.21,6.21,0,0,1,.68.68c.19.21.35.4.48.56l.41.49s-.18-.14-.49-.41L45.34,92c-.2-.2-.48-.36-.74-.57a8.54,8.54,0,0,0-.91-.65c-.33-.2-.67-.44-1-.64s-.75-.42-1.16-.61-.82-.39-1.25-.53a17.05,17.05,0,0,0-2.55-.75,15.9,15.9,0,0,0-2.32-.36A15,15,0,0,0,33.06,87.84Z"/><path class="cls-3" d="M92.64,90.73a4.88,4.88,0,0,1,.19-.57,11.2,11.2,0,0,1,.72-1.44,8.7,8.7,0,0,1,.6-.89,8.23,8.23,0,0,1,.76-.94,10.08,10.08,0,0,1,1-.89A8,8,0,0,1,97,85.21a9.58,9.58,0,0,1,1.18-.63,9.1,9.1,0,0,1,1.23-.44,6.73,6.73,0,0,1,1.19-.23,6,6,0,0,1,1.08-.09,5.45,5.45,0,0,1,.91,0l.69.08.6.09-.61,0-.68,0c-.27,0-.56.08-.88.11a6.64,6.64,0,0,0-1,.18,10,10,0,0,0-1.12.32,9.06,9.06,0,0,0-1.14.46,7.45,7.45,0,0,0-1.1.61,8.36,8.36,0,0,0-1,.72c-.34.25-.64.55-.94.81s-.57.55-.8.83-.47.56-.66.82c-.39.52-.7,1-.9,1.29S92.64,90.73,92.64,90.73Z"/><path class="cls-21" d="M31.28,90.46c-1.41.91-1.25,2.25.87,3.28s4.53.94,6.57,1.92c1.35.65,4.37,3.92,6,3.33,2.64-1,.55-5.17-.51-6.48A10.15,10.15,0,0,0,31.28,90.46Z"/><path class="cls-21" d="M108.34,86.46c1.4.9,1.24,2.25-.87,3.28s-4.53.93-6.58,1.91c-1.34.65-4.37,3.92-6,3.34-2.64-1-.54-5.18.51-6.48A10.16,10.16,0,0,1,108.34,86.46Z"/><path class="cls-21" d="M72.35,101.1c-4.28.45-9.1,1.44-13.4.59-.11,0-.09.12,0,.16,4.06,1.23,9.17.74,13.24-.26C72.4,101.55,72.63,101.07,72.35,101.1Z"/><g class="cls-10"><path class="cls-2" d="M118.23,69.49s-7.25-5.6-10.57-20.1c-1.24,10.36-1.44,11.4-1.44,11.4s-5.6-4.35-7.26-14.72a26.17,26.17,0,0,1-14.09,11,35.62,35.62,0,0,0,5.59-9.11c-7,8.28-15.54,14.09-34.61,11.4a48.18,48.18,0,0,0,4.56-7.46,21.58,21.58,0,0,1-16,9.53,26.87,26.87,0,0,0,6.43-7.87s-8.5,9.52-19.27,9.74a46.79,46.79,0,0,0,6.84-11.61s-8.5,10.78-15.76,16c0,0,2.49,7,2.28,19.9.21,11.4,14.92,22.59,38.55,26.12,17.2,1.65,45.18-8.3,51.81-24.46A56.15,56.15,0,0,0,118.23,69.49Zm-8.7,23.21c-12,16.17-34.2,19.07-45,18.45-31.51-3.53-36.27-18-35.85-24a75.52,75.52,0,0,0-.83-13.89,21.28,21.28,0,0,0-.42-5.39,30.48,30.48,0,0,0,12.85-4.55s4.14,1.44,10.15-.42c17.82,1.66,25.91-1.87,32.13-5.6-2.08,2.7-3.11,3.94-3.11,3.94s13.47-1.66,18-8.29c2.28,6.84,9.95,13,9.95,13l.83-6a102.6,102.6,0,0,0,6.21,11C114.71,79.65,113.26,87.11,109.53,92.7Z"/></g><path class="cls-29" d="M40.81,65.9A27.39,27.39,0,0,1,55,69c1.8,1.08.86-1.15-5.27-2.89S42,65.26,40.81,65.9Z"/><path class="cls-29" d="M78.32,70.17S86,66.5,89.24,65.38s6.92,1.12,6.92,1.12S93.59,63.37,90.58,64,78.87,68.73,78.32,70.17Z"/><g class="cls-18"><path class="cls-30" d="M44.88,87.3c-8.54-1.64-7.44-8.09-7.44-8.09h-.13a11,11,0,0,0-.37,3.14c0,1.24.2,3.79,1,4.79,2,2.52,13.38,5.22,17.92,2.27.53-.34-.9-4.93-1-5.41a19.43,19.43,0,0,0-1.57-4,3,3,0,0,0,.14.42C55.27,84.89,53.41,88.94,44.88,87.3Z"/><path class="cls-30" d="M96.3,77.46c2.85,5.14-5.14,10.39-12.36,8.31-5.61-1.61-3.17-6-3.17-6l-.1,0A24.41,24.41,0,0,0,78.24,88s11.6,5.49,18.54-2.8c1.42-2.29.94-6.21-1-9A6.29,6.29,0,0,0,96.3,77.46Z"/></g><path class="cls-29" d="M20.47,30.25S44-7.33,92.59,6.77c0,0-22.94-2.77-28.74,2.21s11.05-4.43,5.52,5.24-.48,7.47,7,0C69.62,28,65.27,39.54,58.76,45.33c5.79-12.79,3.85-18.1,3.85-18.1s-9.16,8-5.3-2.89S40.66,39.78,47.66,26,45.62,11.8,20.47,30.25Z"/><path class="cls-29" d="M83.72,17.48s-7,3.27-9.81,16.36S68,51.06,68,51.06s5.67-3.27,9.82-13.3.65,8.29,7,.44,9.16-3.27-.22,5.45C94.85,34.49,99,29.47,98.34,20.75c-4.36,5.88-8.72,8.06-7.19,2S78.05,30.57,83.72,17.48Z"/><path class="cls-29" d="M102.14,22.59a52.36,52.36,0,0,1-5.35,18.33C103.16,33.28,103.41,27.94,102.14,22.59Z"/><path class="cls-29" d="M110,29.8s-.43,12.8,7.76,27.68c-3.15-11.53-2.1-21.81.2-17.19s1.68-13.21,4.2-4.62,2.3,4.41,2.51-.2S127,35,128,44.69c.42-10.48-2.73-17-12.16-21,5.45,4.62,2.94,7.76-.84,4.19S114.62,44.69,110,29.8Z"/><path class="cls-15" d="M27.51,190.56c-1.24-2-.31-5,1.66-12.33s7.72-27.62,7.72-27.62-5.37-4.69-10.74-6.31a145.31,145.31,0,0,0-5.46,23.14c.36-2.14,3.41-18.94,8-18.29,4.9.7,1.92,10.48-1.22,22.7s-6,14.67-3,17.64c2.23,2.22,2.16,2.84,2.09,4.71s-.63,3.05.48,4.79,1,2.5-.13,4.85-.9,5.07-2.22,4.37-.42-3.12,0-6-1.18-3.68-3.06-3-3.18,2.42-3,6.17,1.53,7.56-.55,7.84-1.46-4.72-2.36-7.91.28-4.58,1.74-7.49c-2.65,4-5.07,5.13-4.44,2.42a23,23,0,0,1,1.11-3.63c-.49,1.1-1.77,3.76-2.43,3.43-.37-.18-.48-.93-.48-1.71-.12.31-.33.49-.67.31-1.07-.55-.45-3.59.18-4.91a1,1,0,0,0,.06-.23,8.09,8.09,0,0,0,.07,9.4c1.76,4,2.48,3.63,2.48,3.63C14.77,210.35,16,210,16,210s-.31,4,2,4.14,2.28-2.69,2-6.73.75-6.62,2.69-6.32c1.35.21,1.76,1.34,1,4.14s.83,4.26,2.48,4.67c1.15.31.42-3.11,2.29-6s1.65-2.39.61-5S29,192.86,27.51,190.56Z"/><path class="cls-31" d="M26.15,151.89a68.21,68.21,0,0,0-4.67,14.37c-1.38,6.45-.7,15-4.73,20.44-.32.43-.18,1.16.35.58,3.82-4.23,3.49-10.16,4.31-15.46a151,151,0,0,1,5-19.95C26.44,151.65,26.2,151.78,26.15,151.89Z"/><path class="cls-31" d="M14,190.35c-1.79,2-4.23,4.19-3.76,7.13,0,.35.52-.17.52-.36,0-2.8,1.67-4.59,3.33-6.62C14.16,190.39,14.12,190.21,14,190.35Z"/><path class="cls-31" d="M12.54,195.3c-.64,1.27-1.7,2.91-1.09,4.42.08.21.35-.24.34-.35a5.5,5.5,0,0,1,.2-2.32c.23-.58.52-1.15.75-1.73C12.82,195.11,12.62,195.17,12.54,195.3Z"/><path class="cls-31" d="M14.41,196.44c-.79,1.46-2.14,3.38-1.33,5.1.13.26.52-.29.48-.48-.46-1.7.32-3,1-4.56C14.68,196.32,14.49,196.3,14.41,196.44Z"/><path class="cls-31" d="M17.59,197.91a9.79,9.79,0,0,0-2.05,6.16,15.14,15.14,0,0,0,.59,3.31c.36,1.67.39,3.43.6,5.14.05.49.7-.26.71-.5a19.79,19.79,0,0,0-.52-5.32c-.77-3.24-.81-5.58.89-8.64C18,197.8,17.75,197.67,17.59,197.91Z"/><g class="cls-32"><path class="cls-11" d="M71.34,191.92c-8.42,1.44-16.49,3.1-24.54-1.09-.1-.06-.26.2-.16.26,7.53,4.56,16.5,3.66,24.57,1.36C71.4,192.4,71.65,191.86,71.34,191.92Z"/><path class="cls-11" d="M75.9,190.91a18,18,0,0,1-2.09.61c-.16,0-.37.41-.18.42a4.21,4.21,0,0,0,2.21-.64C75.94,191.24,76.15,190.86,75.9,190.91Z"/><path class="cls-11" d="M39.69,195.76c-1,.87-3.37,1.31-3.58,3a61.94,61.94,0,0,0-.31,11c0,.41.47-.05.48-.27.14-2.43.2-4.85.2-7.27,0-1.44-.42-3.88,1.23-4.72a8.72,8.72,0,0,0,2-1.52C39.78,195.86,39.81,195.65,39.69,195.76Z"/><path class="cls-11" d="M36.22,210.39c0-.32-.35,0-.36.2a6.51,6.51,0,0,0,0,1.59c0,.27.38-.1.4-.22A6.87,6.87,0,0,0,36.22,210.39Z"/></g><path class="cls-33" d="M60.31,120.6s5.65,3.23,10,1.46,2.13,1.69-1.29,2.58c-5,1.29-2.36,2.4,3.55,1,5.33-1.29,13.24-4.52,13.4,10.82s.48,36-11.47,40.21c-5.16,1.78-4.36,4.85,1.78,3.71s5.81,3.88-9.69,4.69-23.74-5.65-17-4.84,17.28-3.56,7.75-3.4-10.81-8.23-10.16-20,1.12-30,7.58-29.56,10.82-1.61,7.11-3.87S58.37,120,60.31,120.6Z"/><path class="cls-33" d="M36.61,122.8s-9.1,3.76-8.41,17.43c-1.66.14-4,.14-2.49,1.11s7,4.28,7.19,2.9-.42-1.66-1.66-2.21,2.63-1.38,3.32-4.15-2.55-4.36.66-9.72C37.71,124,39.79,121.31,36.61,122.8Z"/><path class="cls-33" d="M93.39,123.56a78.4,78.4,0,0,1,6.34,6.29c2.48,2.89,1.16,3.63-.17,6.44s-1,8.09-.08,6.68,2.31-4.78,3.22-5-1.57,4.12-2.89,6.44-1.57,2.06-1.74.82c-1.73-.25-4-5.78-6.1-12.38S89.26,119.92,93.39,123.56Z"/><path class="cls-15" d="M136.18,112.26c2.92-4.67,4.44-10.3,4.1-12.37-.51,1.65-1,3.3-1.51,5-.61,2-1.78,5.64-4,6.44-1.37.5.35-6.32.64-6.91a22.25,22.25,0,0,1,3-4.81c-1.49,1.21-3.69,4.58-6.51,10.89,1.76-5.75,3.35-13,2.52-15.07-.46,2.67-.93,5.35-1.57,8-.4,1.69-.93,5-2.64,5.89-2.52,1.35-1.22-3.88-1.06-4.65a26.93,26.93,0,0,1,3.67-9.77c-1.51.53-3.24,3.5-5.79,13.75,0-4.65.68-13-1-14.1,0,1,0,2,0,3,0,3.15.07,6.6-.78,9.66-.37,1.3-1.89,3.41-2.63.88a15.05,15.05,0,0,1-.52-3.13c-.18,1.94-.32,3.93-.47,5.8a5.74,5.74,0,0,0-1.26-1.59,8.32,8.32,0,0,1,1.16,3,24.61,24.61,0,0,1,.35,2.58c0,.35,2.33.67,2.79.89a13.53,13.53,0,0,1,4.36,3.67,5.12,5.12,0,0,0-2.18-3,29.31,29.31,0,0,0-3.93-1.63c-.18-.07,0-.39,0-.49,2.27-3.91,9.57-1,10.57,2.63A5.53,5.53,0,0,1,132,122.3c-2.13,1.94-4.57,1.66-6.79.18-.24.7-1.27.88-2.21.84a4.49,4.49,0,0,1-4.45-4c-.58-2.84.32-5.51-1.33-8.18a6.84,6.84,0,0,0-2.73-2.65c-.07.4.14.94.78,1.66,2.22,2.35,3.08,6.55,2.87,8.93s2.39,2.9,2.18,4.45c-1.3,4.83-6.22,14.08-6.22,14.08l-6.32-2.57c-6.84,7-6.53,13-6.53,13s10.47,6.32,16,4.67c2-.61,4-4.55,5.64-9.29a4.34,4.34,0,0,0-.36.69c-2,4.66-5.28,7.36-10.36,6.31s-8.29-2.48-6.11-7.35,5.39-5.18,6.63-4.14-1.66,9.32-.2,6.62c4.45-12,8.61-20.59,11.61-20.23s.52,12.4.52,12.4l0,.09c1.9-6.66,3.12-13,3.12-13s2.33,1.35,5.28-1.35,3.68-7.87,4.79-8.58c.42-.3.81-.6,1.19-.9a1.14,1.14,0,0,1-1.14-.21c-1.11-.91,2.47-4.8,3-5.42a18.42,18.42,0,0,1,3.16-3C143.05,104.94,141.54,105.94,136.18,112.26Z"/><g class="cls-34"><path class="cls-35" d="M125.19,127.36c0-.29-.34,0-.34.18-.15,7.47-1.61,14.94-5.82,21.25-.2.31,0,.67.31.31C124,143.09,125.34,134.78,125.19,127.36Z"/><path class="cls-35" d="M116.31,108s-.13.15-.06.16c1.32.09,2.55,1.42,3.3,2.38a8.12,8.12,0,0,1,1.69,4.81c0,.24.28,0,.3-.12C122.06,112.43,119.55,107.72,116.31,108Z"/><path class="cls-35" d="M122.62,115.62c-.06,0-.16.2-.07.2a6.17,6.17,0,0,1,3.92,1.26,8.46,8.46,0,0,1,1.75,1.58,7.77,7.77,0,0,1,.7,1.26c.1.17.28-.18.27-.27C128.94,116.81,125.07,115.14,122.62,115.62Z"/><path class="cls-35" d="M124.44,96.14a25.41,25.41,0,0,0-1.66,11.38c0,.27.41-.13.41-.29a32.62,32.62,0,0,1,1.51-11.06C124.81,95.88,124.52,95.94,124.44,96.14Z"/><path class="cls-35" d="M133,95.36c-2.83,3.29-4.59,9.12-4.51,13.43,0,.36.43-.05.44-.25.22-4.15,1.57-9.6,4.19-13C133.26,95.42,133.19,95.15,133,95.36Z"/><path class="cls-35" d="M139,99.5c-3.13,2.46-4.35,7.42-4.33,11.21,0,.36.41,0,.41-.24.19-3.64,1-8.25,4-10.75C139.13,99.64,139.16,99.36,139,99.5Z"/><path class="cls-35" d="M143.32,105.92a15.39,15.39,0,0,0-4.69,6.11c-.2.52.32.4.49,0a18.29,18.29,0,0,1,4.28-5.78C143.55,106.15,143.61,105.69,143.32,105.92Z"/></g><g class="cls-14"><path class="cls-7" d="M60.76,270.64c-.91.85-1.36,2.59-2,4.64-4.67-4.94-8.73-.5-8.73-.5l-.81-2.46c-1.8,1.11-.69,2.49-2.21,4.42-1.18,1.51-4.41,4.22-7.48,7.91l.07,0s9.34-9.83,10.07-6.92c2-2.79,3.58-4.56,6.25.05,1.46,1.58,1-.42,2.59-.79s1.29,12.73-6.17,15.41c-8.94,3.21-16.66.63-15.07-4.79l-.2.3a17.39,17.39,0,0,0-2.35,4.62c1.29,1.82,4.65,3.87,13.23,3.81,9.06-.06,13.7-1.75,16.2-4C64.4,284.27,64.23,269.67,60.76,270.64Z"/></g><path class="cls-36" d="M50,292.15a49.67,49.67,0,0,1-6.34.11,8.07,8.07,0,0,1-3.07-.9c-2-1-1.71-3-1.11-4.84.07-.22-.18-.1-.24,0-1,2.34-1.34,4,.84,5.65,2.46,1.89,6.92,1.37,9.69.63C50,292.77,50.35,292.14,50,292.15Z"/><path class="cls-36" d="M129.31,285.43c-.82-1.6-2.46-2.2-4.12-2.66a50.35,50.35,0,0,1-7.68-2.52c-.07,0-.17.13-.11.17,3.73,2.16,8.33,2.63,11.46,5.63C129.07,286.25,129.41,285.62,129.31,285.43Z"/><path class="cls-36" d="M129.92,286.48c-.11-.18-.41.22-.35.37a3.35,3.35,0,0,1,.12,2.45c-.17.44.26.32.4,0A2.9,2.9,0,0,0,129.92,286.48Z"/></g></g></g></svg>