<svg xmlns="http://www.w3.org/2000/svg" viewBox="0 0 168.56 300"><defs><style>.cls-1{isolation:isolate;}.cls-2{fill:#946138;}.cls-3{fill:#7b4323;}.cls-10,.cls-15,.cls-32,.cls-4,.cls-7{mix-blend-mode:multiply;}.cls-25,.cls-4{opacity:0.5;}.cls-5{fill:#83388c;}.cls-6{fill:#48225b;}.cls-44,.cls-7{opacity:0.8;}.cls-8{fill:#fcc9a2;}.cls-9{fill:#b66028;}.cls-10,.cls-22{opacity:0.3;}.cls-11{fill:#f3ba8a;}.cls-12{fill:#ce7e5a;}.cls-13{fill:#fed006;}.cls-14{fill:#f29222;}.cls-16{fill:#e65225;}.cls-17{fill:#1a73b9;}.cls-18{fill:#3359a5;}.cls-19{fill:#662c82;}.cls-20{fill:#49245e;}.cls-21{fill:#d9dfdf;}.cls-22,.cls-25,.cls-26,.cls-30,.cls-44{mix-blend-mode:screen;}.cls-23{fill:#fff;}.cls-24{fill:#4a254a;}.cls-26,.cls-27,.cls-32{opacity:0.7;}.cls-28{fill:#b07f4a;}.cls-29{fill:#b95339;}.cls-30{opacity:0.4;}.cls-31{fill:#fad2d1;}.cls-33{fill:#eec7ad;}.cls-34{fill:#b95639;}.cls-35{fill:#cececd;}.cls-36{fill:#7c93a5;}.cls-37{fill:#9e6a3e;}.cls-38{opacity:0.6;}.cls-39{fill:#f89b1f;}.cls-40{fill:#5f4828;}.cls-41{fill:#f2d2bc;}.cls-42{fill:#79411d;}.cls-43{fill:#5c3214;}.cls-45{fill:#a43347;}</style></defs><g class="cls-1"><g id="Layer_2" data-name="Layer 2"><g id="Layer_1-2" data-name="Layer 1"><path class="cls-2" d="M42.93,5.92l-.2-.21C40.91,4,38.37,4.2,36.08,4.23c-3.17,0-6.41-1.64-9.55-.67s-5.32,5-5.54,8.22c-.12,1.62.57,3.18-.4,4.63-1.39,2.08-2.84,3.13-3.2,5.76-.49,3.59,2.66,7.47,6.3,7.45,1.66,0,3.24-1.3,4.26-2.47s2.87-1.22,4.36-.93a7.91,7.91,0,0,0,3-.22c1.86-.33,3.42-1.76,4.67-3.07a7.09,7.09,0,0,0,1.8-4.61,4.44,4.44,0,0,0,0-1.21C43.84,14.29,45.79,8.89,42.93,5.92Z"/><path class="cls-3" d="M23.66,30a6.47,6.47,0,0,1-4.81-2.37,7.07,7.07,0,0,1-1.8-5.46,8.35,8.35,0,0,1,2.15-4.4c.36-.47.74-.95,1.11-1.5a4.11,4.11,0,0,0,.4-2.85,9.64,9.64,0,0,1-.06-1.62C20.88,8.42,23,4.3,26.43,3.23a7.63,7.63,0,0,1,2.24-.32,18.8,18.8,0,0,1,3.73.5A19.21,19.21,0,0,0,36,3.88h.59c2.22,0,4.62,0,6.38,1.59a2.18,2.18,0,0,1,.22.21c3.06,3.18,1,8.69-1.09,11.52a5,5,0,0,1,0,1.16,7.62,7.62,0,0,1-1.89,4.81c-1.32,1.37-2.92,2.81-4.86,3.17l-.24.05a10.72,10.72,0,0,1-2,.24h0a4.21,4.21,0,0,1-.89-.08c-2-.39-3.24-.12-4.05.82S25.67,30,23.69,30Zm5-26.37a7,7,0,0,0-2,.29c-3,.94-5.09,4.77-5.31,7.93a9.55,9.55,0,0,0,.07,1.51,4.73,4.73,0,0,1-.52,3.28c-.38.58-.76,1.06-1.14,1.54a7.75,7.75,0,0,0-2,4.08,6.37,6.37,0,0,0,1.62,4.93,5.87,5.87,0,0,0,4.31,2.13v.34l0-.34c1.78,0,3.4-1.65,4-2.36a3.8,3.8,0,0,1,3-1.21,8.75,8.75,0,0,1,1.67.17,3.7,3.7,0,0,0,.76.07h0A10.06,10.06,0,0,0,35,25.72l.25,0a9.06,9.06,0,0,0,4.49-3,6.89,6.89,0,0,0,1.71-4.41,4.34,4.34,0,0,0,0-1.12l0-.14.09-.11c2.11-2.81,3.89-8,1.23-10.76A1.62,1.62,0,0,0,42.49,6c-1.26-1.18-2.89-1.42-5-1.42H36a18.59,18.59,0,0,1-3.71-.49A19.44,19.44,0,0,0,28.67,3.59Z"/><g class="cls-4"><path class="cls-2" d="M42.93,5.92l-.2-.21C40.91,4,38.37,4.2,36.08,4.23c-2.51,0-5.06-1-7.58-1l0,0c.54,1,.49,2.27,1.15,3.19,1.29,1.82,3.66.4,5.21-.26,2.38-1,5.46-1.07,6.41,1.93S39.71,13.32,36.75,13c-2.57-.29-5.63-.49-5.57,3,0,1.21.34,2.62-.19,3.78a5.87,5.87,0,0,1-.92,1.37,4.59,4.59,0,0,1-2.25,2.35c-1.23.63-3.05,1.22-4.24.19a3.18,3.18,0,0,1-.83-3.81,5.75,5.75,0,0,1,1.22-2c.7-.76,1.85-1.34,2.34-2.26,1.2-2.29-1.35-3.57-2.57-5a3.41,3.41,0,0,1-.35-4.37,5.93,5.93,0,0,1,.41-1A10.87,10.87,0,0,0,21,11.78c-.12,1.62.57,3.18-.4,4.63-1.39,2.08-2.84,3.13-3.2,5.76-.49,3.59,2.66,7.47,6.3,7.45,1.66,0,3.24-1.3,4.26-2.47s2.87-1.22,4.36-.93a7.91,7.91,0,0,0,3-.22c1.86-.33,3.42-1.76,4.67-3.07a7.09,7.09,0,0,0,1.8-4.61,4.44,4.44,0,0,0,0-1.21C43.84,14.29,45.79,8.89,42.93,5.92Z"/></g><g class="cls-4"><path class="cls-2" d="M43.2,6.25a8.21,8.21,0,0,1-.07,4.2,6.25,6.25,0,0,1-4,4.42c-1.45.45-4.47-.92-5.35.65-.53.92.22,2.52,0,3.58-.68,3-4.12,5.36-6.8,6.37-1.67.62-4.39,1.47-6,.33-1.8-1.25-1.18-4-.18-5.57,1.12-1.8,3.8-4.59,1.27-6.38l-1-.73a4.65,4.65,0,0,1-.43,3.29c-1.39,2.08-2.84,3.13-3.2,5.76-.49,3.59,2.66,7.47,6.3,7.45,1.66,0,3.24-1.3,4.26-2.47s2.87-1.22,4.36-.93a7.91,7.91,0,0,0,3-.22c1.86-.33,3.42-1.76,4.67-3.07a7.09,7.09,0,0,0,1.8-4.61,4.44,4.44,0,0,0,0-1.21C43.77,14.4,45.63,9.29,43.2,6.25Z"/></g><path class="cls-5" d="M45.69,15.73c-3.49-4.08-9.65,2.8-12,5.11-1.48,1.5-3.08,3-2.92,5.31.07.94,1,1.7,1.49,2.38A27,27,0,0,0,35.55,32a.24.24,0,0,0,.31,0L36,32a2.77,2.77,0,0,0,2.25-.55,22.74,22.74,0,0,0,3.27-2.93c1.87-2.11,4.09-4.18,5.32-6.76C48,19.4,47.27,17.58,45.69,15.73Z"/><path class="cls-6" d="M36.47,32.39h0a2.2,2.2,0,0,1-.58-.08h0a.58.58,0,0,1-.55-.11A27.08,27.08,0,0,1,32,28.73c-.12-.16-.27-.32-.42-.49a3.72,3.72,0,0,1-1.14-2.06c-.16-2.38,1.38-3.93,2.87-5.42l.16-.15.55-.56c2-2.07,5.79-5.93,9-5.93a3.67,3.67,0,0,1,2.88,1.39c1.27,1.48,2.55,3.55,1.2,6.37A23.15,23.15,0,0,1,43,27.41l-1.2,1.31a22.05,22.05,0,0,1-3.32,3A3.46,3.46,0,0,1,36.47,32.39Zm-.7-.86.22.09L36,32l.12-.32a1.13,1.13,0,0,0,.38.05A2.79,2.79,0,0,0,38,31.16a22.23,22.23,0,0,0,3.22-2.89c.39-.44.8-.88,1.21-1.32a23,23,0,0,0,4.06-5.36c.94-1.95.61-3.64-1.1-5.65a3,3,0,0,0-2.37-1.14c-2.94,0-6.57,3.72-8.53,5.72l-.56.57-.14.15c-1.4,1.39-2.83,2.82-2.68,4.9a3.13,3.13,0,0,0,1,1.65l.44.54a26,26,0,0,0,3.12,3.28Z"/><g class="cls-4"><path class="cls-5" d="M40.11,19c-1.53,1.35-2.74,3-4.24,4.37-.9.82-3.59,2.21-3.5-.14a3.23,3.23,0,0,1,.41-1.36c-1.14,1.21-2.1,2.53-2,4.33.07.94,1,1.7,1.49,2.38A27,27,0,0,0,35.55,32a.24.24,0,0,0,.31,0L36,32a2.77,2.77,0,0,0,2.25-.55,22.74,22.74,0,0,0,3.27-2.93c1.87-2.11,4.09-4.18,5.32-6.76a4.84,4.84,0,0,0-.76-5.54C44,16.87,41.83,17.45,40.11,19Z"/></g><g class="cls-4"><path class="cls-5" d="M38.28,24.27c-1.31,1-4.43,3.89-6.06,1.84a3.14,3.14,0,0,1-.2-3.42,4.89,4.89,0,0,0-1.21,3.46c.07.94,1,1.7,1.49,2.38A27,27,0,0,0,35.55,32a.24.24,0,0,0,.31,0L36,32a2.77,2.77,0,0,0,2.25-.55,22.74,22.74,0,0,0,3.27-2.93c1.87-2.11,4.09-4.18,5.32-6.76a4.69,4.69,0,0,0-.43-5.07A39.48,39.48,0,0,1,38.28,24.27Z"/></g><path class="cls-2" d="M153.34,17.18a30.23,30.23,0,0,1,.06-5c.36-3.43.48-6.79-2.18-9.4A8.82,8.82,0,0,0,145.27.46a14.21,14.21,0,0,0-3.56.36c-2.29.48-3.26,1.35-5.61.29-3.43-1.55-7.28-.9-8.25,3-.55,2.26-.12,4.59-.36,6.89s-1.13,4-.62,6.28c.9,4,4.85,4.61,7.93,6.38,3.34,1.91,5.35,5.7,9.37,6.44a9.52,9.52,0,0,0,8-2.31C155,25.08,153.54,20.58,153.34,17.18Z"/><path class="cls-3" d="M145.75,30.59h0a9.72,9.72,0,0,1-1.64-.14c-2.56-.48-4.34-2.14-6.06-3.75A19.64,19.64,0,0,0,134.63,24c-.75-.42-1.56-.78-2.35-1.14-2.48-1.1-5-2.24-5.73-5.45a9.34,9.34,0,0,1,.23-4.3,16.84,16.84,0,0,0,.37-2.09,22.63,22.63,0,0,0,.07-2.73,16.6,16.6,0,0,1,.31-4.2,5,5,0,0,1,5.2-4,8.59,8.59,0,0,1,3.51.8,4.88,4.88,0,0,0,3.87.09c.44-.13.94-.28,1.53-.41a15.09,15.09,0,0,1,3.64-.36,9.2,9.2,0,0,1,6.17,2.39c2.77,2.72,2.66,6.13,2.29,9.68a30.94,30.94,0,0,0-.06,5c0,.72.14,1.49.25,2.31.38,3,.81,6.32-1.49,8.57A9.82,9.82,0,0,1,145.75,30.59ZM132.73.67a4.39,4.39,0,0,0-4.54,3.53,15,15,0,0,0-.29,4,26.49,26.49,0,0,1-.07,2.81,19.56,19.56,0,0,1-.38,2.17,8.52,8.52,0,0,0-.24,4c.63,2.88,2.92,3.9,5.35,5A26.8,26.8,0,0,1,135,23.37a19.1,19.1,0,0,1,3.54,2.84c1.73,1.61,3.36,3.13,5.72,3.57a8.26,8.26,0,0,0,1.52.14A9.19,9.19,0,0,0,152,27.56c2.06-2,1.67-5.06,1.28-8-.1-.83-.2-1.61-.25-2.36a31.07,31.07,0,0,1,.07-5.08c.36-3.38.46-6.62-2.08-9.13a8.63,8.63,0,0,0-5.74-2.2,13.87,13.87,0,0,0-3.47.36c-.56.12-1,.25-1.48.39a7.43,7.43,0,0,1-2.14.41,5.3,5.3,0,0,1-2.2-.53A7.94,7.94,0,0,0,132.73.67Z"/><g class="cls-4"><path class="cls-2" d="M153.4,12.15c.09-.75.15-1.49.18-2.23a4.61,4.61,0,0,0-1.74,1.83c-.87,2.06.68,4.42.81,6.51a7.35,7.35,0,0,1-1.5,5.37c-1.59,1.81-4.1,3.31-6.56,2.49-2.23-.74-2.19-2.78-1.58-4.67.33-1,.73-2,1-3,.43-1.75.35-4.15-2-4-1.12.1-2.11.64-3.2.81a6.47,6.47,0,0,1-2.93-.19,5.21,5.21,0,0,1-3.45-3.88c-.36-1.61-.48-3.94.73-5.23,2.56-2.72,6.09,1.44,9,.21,1.1-.47,1.53-2,1.94-3a5.88,5.88,0,0,1,.92-1.49c.19-.25,1-1.26,1.34-1.22-.33,0-.66-.07-1-.08a14.21,14.21,0,0,0-3.56.36c-2.29.48-3.26,1.35-5.61.29-3.43-1.55-7.28-.9-8.25,3-.55,2.26-.12,4.59-.36,6.89s-1.13,4-.62,6.28c.9,4,4.85,4.61,7.93,6.38,3.34,1.91,5.35,5.7,9.37,6.44a9.52,9.52,0,0,0,8-2.31c2.79-2.72,1.34-7.22,1.14-10.62A30.23,30.23,0,0,1,153.4,12.15Z"/></g><g class="cls-4"><path class="cls-2" d="M139.49,21.05c.52-.57,3.46-3.63,2.06-4.38-2.33-1.25-4.4,1.65-6.78,1.34a9.7,9.7,0,0,1-7.46-5.83c-.33,1.71-.85,3.23-.44,5.11.9,4,4.85,4.61,7.93,6.38A14.34,14.34,0,0,1,137,25.24C137.12,23.69,138.25,22.43,139.49,21.05Z"/></g><g class="cls-4"><path class="cls-2" d="M153.72,20.54a9.11,9.11,0,0,1-1.29,4.15,7.72,7.72,0,0,1-7.47,3l-.24-.06c-5.11-.54-8.78-6.29-11.78-10.1-2-2.5-3.91-5.5-4-8.8,0-.25,0-.5,0-.75-.38-2.28-.25-5.29,1.79-6.51a3.58,3.58,0,0,1,3.09-.33A9.06,9.06,0,0,1,136,2.29c.67.48,2,1.71,2.94,1.34,1.27-.52,1.66-1.88,2.55-2.77-2.13.49-3.13,1.28-5.4.25-3.43-1.55-7.28-.9-8.25,3-.55,2.26-.12,4.59-.36,6.89s-1.13,4-.62,6.28c.9,4,4.85,4.61,7.93,6.38,3.34,1.91,5.35,5.7,9.37,6.44a9.52,9.52,0,0,0,8-2.31C154.13,25.91,154,23.17,153.72,20.54Z"/></g><path class="cls-5" d="M138.48,22.32c-1.45-3-3.85-5.17-5.91-7.71-1.72-2.11-4.29-3.39-7-2.54a4,4,0,0,0-2.24,1.8,5.71,5.71,0,0,0-1.75,3.45c-.47,3,1.52,5.14,3.55,7.11,1.15,1.11,2.47,2.05,3.61,3.17a12.68,12.68,0,0,0,3.58,2.54c1.2.53,2.26,1.25,3.64,1a6,6,0,0,0,3.45-1.73C141.08,27.57,139.34,24.1,138.48,22.32Z"/><path class="cls-6" d="M135.39,31.52h0a6,6,0,0,1-2.54-.77c-.21-.1-.42-.21-.63-.3a13.27,13.27,0,0,1-3.67-2.6c-.58-.57-1.21-1.1-1.83-1.61s-1.21-1-1.78-1.57c-2.2-2.13-4.14-4.29-3.66-7.4a6.09,6.09,0,0,1,1.83-3.62,4.3,4.3,0,0,1,2.39-1.9c2.54-.81,5.36.22,7.33,2.65.58.7,1.19,1.39,1.78,2.06a25.27,25.27,0,0,1,4.17,5.71l.08.16c.89,1.87,2.57,5.35.84,7.3a6.32,6.32,0,0,1-3.64,1.82A2.93,2.93,0,0,1,135.39,31.52Zm-8.08-19.37a5.14,5.14,0,0,0-1.6.25,3.64,3.64,0,0,0-2.06,1.66l-.05.06A5.41,5.41,0,0,0,122,17.37c-.43,2.79,1.31,4.74,3.46,6.82.55.53,1.16,1,1.74,1.53s1.27,1.06,1.87,1.64a12.19,12.19,0,0,0,3.47,2.47l.66.31a5.27,5.27,0,0,0,2.24.7h0a3.41,3.41,0,0,0,.55-.05,5.63,5.63,0,0,0,3.26-1.62c1.43-1.61-.12-4.82-.95-6.54l-.08-.16a24.71,24.71,0,0,0-4.06-5.56c-.6-.67-1.22-1.37-1.8-2.09A6.64,6.64,0,0,0,127.31,12.15Z"/><g class="cls-4"><path class="cls-5" d="M138.48,22.32A15.44,15.44,0,0,0,137,19.9c.49,1.47.69,3-.62,2.7-2.11-.43-3.44-3.38-4.92-4.73-2.07-1.89-5.28-3.87-8.26-3.81a5.66,5.66,0,0,0-1.59,3.26c-.47,3,1.52,5.14,3.55,7.11,1.15,1.11,2.47,2.05,3.61,3.17a12.68,12.68,0,0,0,3.58,2.54c1.2.53,2.26,1.25,3.64,1a6,6,0,0,0,3.45-1.73C141.08,27.57,139.34,24.1,138.48,22.32Z"/></g><g class="cls-4"><path class="cls-5" d="M139.39,24.34c0,1.46-.59,2.58-2,2.82-3.41.56-4.82-2.66-6.27-5.08a14.31,14.31,0,0,0-5.56-5.22A7.15,7.15,0,0,0,122,16a5.87,5.87,0,0,0-.34,1.28c-.47,3,1.52,5.14,3.55,7.11,1.15,1.11,2.47,2.05,3.61,3.17a12.68,12.68,0,0,0,3.58,2.54c1.2.53,2.26,1.25,3.64,1a6,6,0,0,0,3.45-1.73C140.58,28.13,140.09,26.07,139.39,24.34Z"/></g><g class="cls-7"><path class="cls-8" d="M89.71,107.61c-2.06,0-3.64,1-5.59.38a2.46,2.46,0,0,0,2.94,2,4.65,4.65,0,0,0,2.13-.71C89.59,109,91.19,107.59,89.71,107.61Z"/></g><path class="cls-9" d="M88.59,107.38a9.61,9.61,0,0,0-1.75.32,9.47,9.47,0,0,1-2.54.19c-.25,0-.25.31-.06.39,1.17.52,3.54.52,4.54-.41A.28.28,0,0,0,88.59,107.38Z"/><path class="cls-2" d="M113.78,103s7.78-2.87,13.54-5.41,19.63-5.92,19-19.12-3.89-14.73-1-20.31,4.07-13-1.52-18.79-6.15-7.89-7-11.62a15.89,15.89,0,0,0-13-12.41c-9.26-1.81-13.32-2.93-17.16-7S91,.46,81.17,6.42c0,0-3.3-4.57-14.75-1.24-7.77,2.24-5.92,6.74-16.5,9.59-10.39,2.79-13.09,7-15.12,13.54S31.52,37,28,40.26s-6.66,11.4-3.28,19.08S28.48,67.57,27,72s2.6,21.66,21.67,25.28c0,0,3.5-20.09,1.46-29.91s-1.69-19,9.14-24.71A74.75,74.75,0,0,1,80.83,35.3s21.78,11.06,35,11.4c0,0,8.92,9.36,8.68,20S113.78,103,113.78,103Z"/><path class="cls-3" d="M113.17,103.58l.29-.71c.11-.26,10.48-25.78,10.7-36.21.2-9.76-7.56-18.59-8.5-19.63C103,46.63,82.38,36.46,80.78,35.65a75.8,75.8,0,0,0-21.34,7.28c-11.12,5.91-10.77,15.62-9,24.35,2,9.76-1.43,29.82-1.47,30l0,.34-.34-.07c-10.63-2-16.17-8.06-18.94-12.78-3-5.15-3.79-10.51-3-12.92,1.38-4.17,1.13-4.75-2-11.82l-.25-.58c-3.51-8-.16-16.17,3.35-19.45s4.67-5.36,6.67-11.81c2.17-7,5.14-11,15.36-13.77,5.66-1.52,7.67-3.48,9.62-5.38a14.31,14.31,0,0,1,6.87-4.21,27.54,27.54,0,0,1,7.62-1.22c4.62,0,6.69,1.71,7.3,2.35A21.72,21.72,0,0,1,92.43,3c6.56,0,12,2.64,14.37,5.1,3.78,4,7.87,5.12,17,6.9A16.27,16.27,0,0,1,137,27.66c.86,3.56,1.39,5.72,7,11.47,6.76,7,3.36,15.72,1.59,19.18-1.63,3.14-1.25,4.93-.5,8.51a70.09,70.09,0,0,1,1.55,11.62c.6,11.73-10.15,15.9-16.56,18.4-1,.38-1.86.72-2.59,1-5.7,2.51-13.49,5.4-13.57,5.43ZM80.89,35l.1,0c.21.11,21.86,11,34.83,11.36H116l.1.1c.09.1,9,9.59,8.79,20.21-.21,9.69-8.74,31.44-10.46,35.74,2.06-.77,8.13-3.08,12.8-5.13.75-.34,1.66-.69,2.62-1.07,6.65-2.59,16.71-6.49,16.13-17.74A68.49,68.49,0,0,0,144.39,67c-.75-3.6-1.16-5.6.56-9s5-11.75-1.46-18.39c-5.71-5.88-6.25-8.1-7.14-11.78a15.6,15.6,0,0,0-12.71-12.16c-9.26-1.8-13.42-2.95-17.33-7.09-2.23-2.35-7.52-4.89-13.88-4.89a21,21,0,0,0-11.09,3l-.26.16-.18-.26s-1.77-2.31-7-2.31a26.78,26.78,0,0,0-7.42,1.2,13.75,13.75,0,0,0-6.59,4c-1.92,1.87-4.1,4-9.93,5.55-9.91,2.68-12.79,6.58-14.88,13.32-2,6.52-3.3,8.78-6.86,12.1-3.36,3.15-6.57,11-3.19,18.69l.25.57c3.16,7.15,3.48,7.89,2,12.31-.65,2-.18,7.08,2.93,12.36,2.67,4.56,8,10.38,18.13,12.4.45-2.68,3.26-20.48,1.41-29.43s-2.2-19,9.31-25.07A75.46,75.46,0,0,1,80.78,35Z"/><g class="cls-10"><path class="cls-2" d="M103.59,28.07c3.48.62,6.07-1.15,9.19-2.33,2.11-.81,4.46-1.15,6.36.37s3.07,3.86,4.3,6.09a9.91,9.91,0,0,0,2.92,3.46l.28,0A6.27,6.27,0,0,1,125,32.35c-.43-2.47-.11-5-.75-7.47-.82-3.18-2.74-5.28-6.19-4.57a43.31,43.31,0,0,0-6.65,2.33c-2.35.89-5.28,1.65-7.69.54s-3.44-3.23-3.9-5.85-1.42-5.23-4.13-6.45c-2.34-1-4.79-.75-6.23,1.19A9.37,9.37,0,0,1,94.38,16C97.1,20,97.91,27,103.59,28.07Z"/></g><g class="cls-10"><path class="cls-2" d="M133.64,52c-1.13-2-.23-4.5-.06-6.6.21-2.69.29-6.41-2.29-8.09a6.43,6.43,0,0,0-2.76-1c.36.24-3.7-.25-6.8.82-2,.69-4.66.73-6.36-.8A5.42,5.42,0,0,1,113.79,34c-.55-1.64-2.3-1.87-3.87-1.43a24.94,24.94,0,0,0-3.86,1.68,7.92,7.92,0,0,1,4.47,1.11c2.55,1.57,3.45,5,6.88,4.88,2.32-.09,4.73-1,7,0,4.74,2,2.6,8.39,4.64,11.91,3.17,5.5,10.34,3.19,13.39-1.14C139.83,52.63,135.29,54.84,133.64,52Z"/></g><path class="cls-2" d="M81.72,29.52c1.14-5.08-.67-10.39-.35-15.55a50.58,50.58,0,0,0-.2-7.55s-3.3-4.57-14.75-1.24c-7.77,2.24-5.92,6.74-16.5,9.59-10.39,2.79-13.09,7-15.12,13.54S31.52,37,28,40.26s-6.66,11.4-3.28,19.08S28.48,67.57,27,72s2.6,21.66,21.67,25.28c0,0,3.5-20.09,1.46-29.91s-1.69-19,9.14-24.71A75.88,75.88,0,0,1,79.7,35.5C80.31,33.48,81.27,31.58,81.72,29.52Z"/><path class="cls-3" d="M49,97.64l-.34-.07c-10.63-2-16.17-8.06-18.94-12.78-3-5.15-3.79-10.51-3-12.92,1.38-4.17,1.13-4.75-2-11.82l-.25-.58c-3.51-8-.16-16.17,3.35-19.45s4.67-5.36,6.67-11.81c2.17-7,5.14-11,15.36-13.77,5.66-1.52,7.67-3.48,9.62-5.38a14.31,14.31,0,0,1,6.87-4.21,27.54,27.54,0,0,1,7.62-1.22c5.13,0,7.11,2.11,7.45,2.53l0,0c.33.35.37,6.38.28,7.79a38.18,38.18,0,0,0,.35,6.49c.32,3,.67,6.12,0,9.13a27.55,27.55,0,0,1-1.18,3.6c-.3.78-.61,1.59-.86,2.4l-.06.2-.2,0a74.69,74.69,0,0,0-20.32,7.09c-11.12,5.91-10.77,15.62-9,24.35,2,9.76-1.43,29.82-1.47,30Zm25-93.34a26.78,26.78,0,0,0-7.42,1.2,13.75,13.75,0,0,0-6.59,4c-1.92,1.87-4.1,4-9.93,5.55-9.91,2.68-12.79,6.58-14.88,13.32-2,6.52-3.3,8.78-6.86,12.1-3.36,3.15-6.57,11-3.19,18.69l.25.57c3.16,7.15,3.48,7.89,2,12.31-.65,2-.18,7.08,2.93,12.36,2.67,4.56,8,10.38,18.13,12.4.45-2.68,3.26-20.48,1.41-29.43s-2.2-19,9.31-25.07A75.72,75.72,0,0,1,79.44,35.2c.24-.76.53-1.52.81-2.24a26.76,26.76,0,0,0,1.14-3.52,27.07,27.07,0,0,0,0-8.89A39.42,39.42,0,0,1,81,13.94a65,65,0,0,0-.15-7.34C80.71,6.39,78.88,4.3,73.94,4.3Z"/><g class="cls-10"><path class="cls-2" d="M69.83,9.29c-3.08.78-4.44,3.23-5.3,6.07-1.22,4-3.09,8.38-8.13,7.68-2.84-.4-5.48-1.51-8.32-.47a8.94,8.94,0,0,0-5,4.48A15.45,15.45,0,0,0,42,30a12.26,12.26,0,0,1,4-2.85,15.63,15.63,0,0,1,7.75-1.29c2.85.26,6.31,1.55,9,.1,5-2.7,5.93-15.89,12.14-15.83A6.75,6.75,0,0,0,69.83,9.29Z"/></g><g class="cls-10"><path class="cls-2" d="M41.16,40c0,.51,0,1,0,1.51A7,7,0,0,1,38.11,48c-2.06,1.48-6.75,4.18-4.53,7.3,1.43,2,3.56,2.7,3.59,5.55a7.85,7.85,0,0,1-.38,2.48c.09.06.16.12.25.17.1-.25.21-.5.33-.76,1-2.07,1.43-3.77.4-5.91a12.56,12.56,0,0,1-1.29-3.8c-.28-2.2,1.17-3.24,2.81-4.42,1.31-.92,2.76-1.95,3.19-3.61a24.83,24.83,0,0,0,.34-4.48c.13-1.84.55-4,2.22-5.1a8.06,8.06,0,0,1,5.55-.72c2.94.44,5.78,1.57,8-1.13,1-1.19,1.77-2.48,2.74-3.62a11.23,11.23,0,0,1-3.54,1c-2.62.32-5.23-.09-7.86.07-2.41.15-5.16.65-6.95,2.41S41.1,37.66,41.16,40Z"/></g><path class="cls-11" d="M117.34,124.29s14.85,31,22.17,42.28,7.55,10.26,8.41,10.14a26,26,0,0,1,6.62.54c1.94.54,11.7,3.63,11.87,4.35s-.88,3-5.65,1.44-6.51-1.92-6.51-1.92,6.74,2.78,9.85,3.94,4.91,2.67,3.79,3.95-13-4-14.31-4.83c0,0,8.53,6.12,10.27,7.63s2.25,5.13-1.81,3.42-10.76-6.6-12.2-9.71c0,0,2.73,4,4.9,6.75s4.67,5.84,3.28,6.68-5.31-.8-8.6-5.92-4.07-5.3-4.77-4.28-.69,5.94-3.94,6.18-1.83-3.77-.93-6-1.43-5.65.29-8.65c0,0-7.08-5.76-17.53-21.28s-12.79-24.31-14.74-31.77Z"/><path class="cls-12" d="M157.15,199.49c-2,0-5.22-1.94-8-6.28-1.28-2-3.06-4.62-3.79-4.62-.08,0-.2,0-.41.34a6,6,0,0,0-.43,1.42c-.46,1.88-1.15,4.73-3.77,4.92a2.06,2.06,0,0,1-2-.77c-.84-1.25-.09-3.6.76-5.74a6.27,6.27,0,0,0-.08-3.26c-.29-1.62-.63-3.44.25-5.18-1.26-1.1-8-7.27-17.38-21.18-10.56-15.67-12.91-24.65-14.8-31.87a.33.33,0,0,1,.23-.4l9.55-2.91a.33.33,0,0,1,.4.18c.15.31,14.93,31.12,22.15,42.24,4.59,7.06,6.88,10.06,7.67,10.06l.22,0,.19,0a7.65,7.65,0,0,1,1-.05,27.21,27.21,0,0,1,5.78.61c.11,0,11.85,3.49,12.11,4.58a1.67,1.67,0,0,1-.39,1.32,3.23,3.23,0,0,1-2.72,1.07,9.79,9.79,0,0,1-2.88-.51c1.3.52,2.55,1,3.47,1.35,1.45.55,3.94,1.67,4.3,3.12a1.46,1.46,0,0,1-.38,1.37,1.18,1.18,0,0,1-.94.31c-2,0-7-2-10.42-3.47,2.64,1.92,6.22,4.55,7.3,5.48a3.61,3.61,0,0,1,1.3,3.52,1.5,1.5,0,0,1-1.54,1,5.15,5.15,0,0,1-1.94-.48,37.44,37.44,0,0,1-8.28-5.29c.46.63.94,1.25,1.38,1.82l.12.14c1.9,2.39,3.87,4.87,3.62,6.24a1.1,1.1,0,0,1-.54.78A2,2,0,0,1,157.15,199.49Zm-11.81-11.57c.75,0,1.7.8,4.36,4.93s5.72,6,7.45,6a1.42,1.42,0,0,0,.7-.16.47.47,0,0,0,.22-.33c.19-1.07-1.85-3.64-3.48-5.71l-.11-.13c-1.23-1.54-2.62-3.48-3.58-4.84a8.91,8.91,0,0,1-1.37-2,.34.34,0,0,1,.15-.44.34.34,0,0,1,.44.11s.54.8,1.33,1.92a35.59,35.59,0,0,0,10.72,7.67c1.39.58,2.33.56,2.57-.09a3,3,0,0,0-1.1-2.76c-1.72-1.49-10.17-7.55-10.26-7.61a.35.35,0,0,1-.08-.47.33.33,0,0,1,.45-.1c1.17.71,10.75,5,13.45,5,.36,0,.43-.09.43-.09a.77.77,0,0,0,.23-.76c-.2-.82-1.65-1.81-3.88-2.64-3.07-1.16-9.8-3.92-9.86-3.95a.35.35,0,0,1-.2-.41.36.36,0,0,1,.4-.24c.07,0,1.81.41,6.54,1.94a9.47,9.47,0,0,0,2.77.5,2.6,2.6,0,0,0,2.19-.81,1.07,1.07,0,0,0,.27-.69c-.75-.72-9.15-3.45-11.64-4.13a26,26,0,0,0-5.6-.59,7.27,7.27,0,0,0-.88,0l-.15,0a1.64,1.64,0,0,1-.36.05c-.87,0-2-.75-8.23-10.37-6.9-10.61-20.61-39-22.07-42.06l-9,2.73c1.85,7.11,4.27,16,14.6,31.34s17.4,21.16,17.47,21.22a.34.34,0,0,1,.08.43c-.92,1.6-.61,3.31-.3,5a6.69,6.69,0,0,1,0,3.63c-.44,1.09-1.59,4-.83,5.11a1.43,1.43,0,0,0,1.41.47c2.13-.15,2.72-2.6,3.16-4.4a5.46,5.46,0,0,1,.54-1.63A1.18,1.18,0,0,1,145.34,187.92Z"/><g class="cls-4"><path class="cls-11" d="M166.05,181.3a4.12,4.12,0,0,1-3.38.84c-2.53-.24-5-.62-7.6-.82.94.25,2.73.76,5.69,1.72,4.77,1.54,5.82-.73,5.65-1.44Q166.38,181.48,166.05,181.3Z"/></g><g class="cls-4"><path class="cls-11" d="M160.44,192.84A74.89,74.89,0,0,1,150,185.45a5.81,5.81,0,0,0,.74,1.65c.47.67,1,1.3,1.53,1.91-.4-.55-.78-1.09-1.12-1.57A35.85,35.85,0,0,0,162,195.23c1.87.79,2.77.43,3-.31C163.58,194.9,161,193.21,160.44,192.84Z"/></g><g class="cls-4"><path class="cls-11" d="M165.62,188.07a40.08,40.08,0,0,1-6.27-2,49.34,49.34,0,0,1-5.4-1.89l.18.29c2.71,1.35,12.72,5.71,13.76,4.54a1.1,1.1,0,0,0,.27-1.12A3.69,3.69,0,0,1,165.62,188.07Z"/></g><g class="cls-10"><path class="cls-11" d="M151.13,192c-1.23-1.69-2.31-3.93-4.11-5.09-1.1-.72-2.86-.92-3.63-2.1a6.71,6.71,0,0,1-.5-5.62,3,3,0,0,0-.18-1.87c-.82-1.33-2.65-2-3.81-3a22.7,22.7,0,0,1-3.54-4c-2.38-3.42-4.12-7.19-6.18-10.79-2.26-3.94-5-7.77-6.54-12.07-.62-1.71-1.3-3.67-.72-5.49a18.13,18.13,0,0,1,2.14-3.94c-3.85-7.69-6.72-13.69-6.72-13.69l-9.54,2.9c2,7.46,4.28,16.23,14.74,31.77s17.53,21.28,17.53,21.28c-1.72,3,.62,6.38-.29,8.65s-2.32,6.28.93,6,3.25-5.17,3.94-6.18,1.46-.84,4.77,4.28,7.22,6.75,8.6,5.92l0,0C155.34,198.32,152.25,193.56,151.13,192Z"/></g><g class="cls-4"><path class="cls-11" d="M141.84,194.51l-.29.14-.14,0a1.86,1.86,0,0,1-2.62-1.59c-.18-2.25,2-3.92,2-6.22,0-.6-.06-1.18-.11-1.74,0-.14-.07-.27-.1-.4-.35-1.62-.55-3.37.44-4.8a3.14,3.14,0,0,1,.34-.4,51.87,51.87,0,0,1-8.87-9.2,86.83,86.83,0,0,1-9.18-13.56,68.82,68.82,0,0,1-3.44-7.88c-.72-2-2.07-4.67-1.5-6.86s3-3.58,4.14-5.57c.14-.24.27-.5.4-.75-3.26-6.57-5.59-11.43-5.59-11.43l-9.54,2.9c2,7.46,4.28,16.23,14.74,31.77s17.53,21.28,17.53,21.28c-1.72,3,.62,6.38-.29,8.65s-2.32,6.28.93,6a2.9,2.9,0,0,0,1.06-.28Z"/></g><g class="cls-4"><path class="cls-11" d="M145.86,187.35a3.71,3.71,0,0,0-.27-.29c-.54-.5-1.92-1.35-1.78.09,0,.45,0,.89,0,1.33a12.26,12.26,0,0,1-.08,2.1,7.71,7.71,0,0,1-.64,2.57l-.06.18a.17.17,0,0,1,0,.07c1-1.6,1.16-4,1.61-4.65.82-1.21,1.91.31,2.48,1C146.53,189,146.41,188.07,145.86,187.35Z"/></g><path class="cls-11" d="M55.75,126.91s-17.07,29.85-25.2,40.55-8.28,9.68-9.12,9.5a26,26,0,0,0-6.64.07c-2,.39-11.94,2.76-12.16,3.46s.66,3,5.54,1.85,6.62-1.44,6.62-1.44-6.92,2.28-10.1,3.21-5.11,2.31-4.07,3.66,13.27-3.09,14.62-3.77c0,0-8.95,5.49-10.8,6.86S1.83,195.81,6,194.41s11.21-5.8,12.87-8.8c0,0-3,3.82-5.38,6.38s-5.08,5.48-3.76,6.41,5.35-.4,9-5.27,4.45-5,5.06-3.93.25,6,3.48,6.46,2.11-3.62,1.36-6,1.85-5.53.36-8.64c0,0,7.47-5.23,19-20s14.53-23.31,17-30.6Z"/><path class="cls-12" d="M10.79,199a2.15,2.15,0,0,1-1.26-.34,1.12,1.12,0,0,1-.47-.82c-.15-1.39,2-3.72,4.07-6l.12-.13c.49-.53,1-1.12,1.52-1.72a36.85,36.85,0,0,1-8.66,4.68,5.57,5.57,0,0,1-1.75.34,1.53,1.53,0,0,1-1.66-1c-.34-1,.37-2.59,1.54-3.46s4.92-3.23,7.7-5c-3.4,1.2-8.27,2.72-10.39,2.72A1.43,1.43,0,0,1,.35,188a1.48,1.48,0,0,1-.28-1.4c.47-1.41,3-2.36,4.52-2.79,1-.28,2.22-.68,3.56-1.1a10.75,10.75,0,0,1-2.42.32,3.54,3.54,0,0,1-3.08-1.21,1.72,1.72,0,0,1-.34-1.41c.34-1.08,12.29-3.67,12.41-3.69a20.56,20.56,0,0,1,3.58-.26,22.33,22.33,0,0,1,3.2.18l.19.06a.86.86,0,0,0,.24,0c.81,0,3.31-2.84,8.36-9.48,8-10.56,25-40.21,25.17-40.51a.33.33,0,0,1,.41-.15l9.31,3.59a.33.33,0,0,1,.19.43c-2.4,7-5.39,15.84-17.07,30.71C38,174.51,30.76,180.17,29.42,181.17c.75,1.79.28,3.59-.13,5.18A6.3,6.3,0,0,0,29,189.6c.68,2.15,1.26,4.52.38,5.73a1.85,1.85,0,0,1-1.58.71h0a5.29,5.29,0,0,1-.54,0c-2.6-.39-3.07-3.27-3.38-5.18a6.33,6.33,0,0,0-.34-1.44c-.19-.34-.31-.38-.4-.38-.75,0-2.7,2.47-4.1,4.33C16.06,197.26,12.76,199,10.79,199Zm8.08-13.75a.32.32,0,0,1,.19,0,.34.34,0,0,1,.11.45,9,9,0,0,1-1.53,1.91c-1,1.26-2.57,3.1-3.9,4.54l-.12.13c-1.78,1.94-4,4.35-3.89,5.44a.45.45,0,0,0,.2.34,1.5,1.5,0,0,0,.86.21c1.8,0,4.88-1.67,7.69-5.41s3.9-4.61,4.64-4.61a1.23,1.23,0,0,1,1,.71,6,6,0,0,1,.41,1.67c.3,1.82.72,4.31,2.82,4.63l.44,0h0a1.2,1.2,0,0,0,1-.43c.8-1.09-.13-4-.48-5.13a6.77,6.77,0,0,1,.31-3.62c.42-1.63.86-3.32.06-5a.34.34,0,0,1,.11-.42c.08-.05,7.58-5.38,19-19.88s14.48-23.25,16.85-30.21l-8.73-3.37c-1.68,2.93-17.42,30.27-25.08,40.34-6.85,9-8,9.74-8.89,9.74a1.76,1.76,0,0,1-.43-.07l-.14,0a20.49,20.49,0,0,0-3.06-.18,19,19,0,0,0-3.44.25c-2.53.5-11.11,2.62-11.92,3.28a1.16,1.16,0,0,0,.25.75,2.91,2.91,0,0,0,2.54.94A10.41,10.41,0,0,0,8.09,182c4.82-1.18,6.58-1.44,6.66-1.45a.34.34,0,0,1,.16.66c-.08,0-7,2.29-10.13,3.22C2.5,185.11,1,186,.71,186.79a.83.83,0,0,0,.18.78s.09.12.66.12c3,0,12.39-3.41,13.54-4a.34.34,0,0,1,.33.59c-.09.06-9,5.49-10.78,6.84a3,3,0,0,0-1.3,2.71c.21.63,1.14.72,2.55.24a35.7,35.7,0,0,0,11.27-6.88c.85-1,1.45-1.8,1.45-1.8A.3.3,0,0,1,18.87,185.27Z"/><g class="cls-4"><path class="cls-11" d="M3,180.22a4.14,4.14,0,0,0,3.3,1.08c2.55-.05,5.1-.24,7.65-.25-1,.18-2.77.55-5.79,1.29-4.88,1.19-5.76-1.15-5.54-1.85C2.65,180.42,2.79,180.33,3,180.22Z"/></g><g class="cls-4"><path class="cls-11" d="M7.77,192.13a72.94,72.94,0,0,0,10.92-6.61,5.25,5.25,0,0,1-.85,1.6,21.7,21.7,0,0,1-1.67,1.79c.45-.52.86-1,1.23-1.48a35.76,35.76,0,0,1-11.4,7c-1.93.64-2.79.23-3-.54C4.49,194,7.15,192.47,7.77,192.13Z"/></g><g class="cls-4"><path class="cls-11" d="M3,187a38.71,38.71,0,0,0,6.4-1.54A45,45,0,0,0,14.87,184l-.21.28c-2.78,1.15-13.1,4.76-14,3.52a1.11,1.11,0,0,1-.2-1.14A3.63,3.63,0,0,0,3,187Z"/></g><g class="cls-10"><path class="cls-11" d="M17.12,192c1.34-1.6,2.59-3.76,4.47-4.78,1.14-.63,2.92-.71,3.77-1.83a6.79,6.79,0,0,0,.91-5.57,2.89,2.89,0,0,1,.31-1.85c.91-1.26,2.79-1.78,4-2.72a23.27,23.27,0,0,0,3.84-3.78c2.62-3.23,4.62-6.87,6.94-10.31,2.55-3.76,5.55-7.38,7.41-11.55.74-1.66,1.57-3.57,1.12-5.43a18.35,18.35,0,0,0-1.85-4.09c4.4-7.38,7.7-13.16,7.7-13.16l9.31,3.59c-2.49,7.29-5.45,15.88-17,30.6s-19,20-19,20c1.49,3.11-1.09,6.31-.36,8.64s1.87,6.44-1.36,6-2.87-5.39-3.48-6.46-1.39-.94-5.06,3.93-7.7,6.21-9,5.27l0,0C12.46,198,15.88,193.45,17.12,192Z"/></g><g class="cls-4"><path class="cls-11" d="M26.19,195.15l.29.17.13.05c1.15.42,2.49.12,2.73-1.39.34-2.24-1.72-4.06-1.56-6.35,0-.6.15-1.18.23-1.73,0-.13.09-.26.13-.39.48-1.59.8-3.32-.08-4.82a2.59,2.59,0,0,0-.32-.42,52.2,52.2,0,0,0,9.52-8.53,87.24,87.24,0,0,0,10.15-12.86,67.34,67.34,0,0,0,4-7.62c.87-1.95,2.41-4.5,2-6.73s-2.7-3.77-3.72-5.85c-.13-.25-.24-.51-.35-.77,3.73-6.32,6.41-11,6.41-11l9.31,3.59c-2.49,7.29-5.45,15.88-17,30.6s-19,20-19,20c1.49,3.11-1.09,6.31-.36,8.64s1.87,6.44-1.36,6a2.57,2.57,0,0,1-1-.36A1,1,0,0,1,26.19,195.15Z"/></g><g class="cls-4"><path class="cls-11" d="M22.71,187.73a1.86,1.86,0,0,1,.29-.27c.59-.46,2-1.21,1.76.22a11.92,11.92,0,0,1-.11,1.33,11.24,11.24,0,0,0-.07,2.09,7.69,7.69,0,0,0,.45,2.61c0,.06,0,.12,0,.18a.22.22,0,0,0,0,.08c-.87-1.67-.86-4.06-1.27-4.77-.73-1.26-1.92.18-2.55.82C21.92,189.35,22.11,188.4,22.71,187.73Z"/></g><path class="cls-11" d="M91.76,230.51c-.17.54,5.8,22.78,8.77,32s.14,18.52-1.13,23.19S96,301,109.58,299.53s13.58-8.91,7.36-23-6.51-16.55-7.21-23.19-2.7-22.78-2.7-22.78S93.74,224.15,91.76,230.51Z"/><path class="cls-12" d="M107.25,300h0c-3.54,0-6.08-1-7.58-2.94-2.74-3.6-1.13-9.53-.6-11.47l.18-.66c1.31-4.77,3.76-13.66,1-22.35-2.52-7.8-9-31.36-8.77-32.17.63-2,2.37-3.06,5.16-3.06,4.55,0,10.34,2.74,10.58,2.86l.17.08,0,.18c0,.16,2,16.2,2.69,22.78s1,8.92,7.19,23.09c4.15,9.44,5,15,3,18.59-1.6,2.75-5.06,4.37-10.58,4.94A22.11,22.11,0,0,1,107.25,300ZM96.6,228c-2.46,0-4,.87-4.52,2.59,0,.91,5.73,22.33,8.77,31.76,2.87,8.89.39,17.9-.95,22.74l-.18.65c-1.38,5.08-1.22,8.65.49,10.89,1.36,1.78,3.72,2.68,7,2.68h0c.71,0,1.49-.05,2.3-.13,5.29-.55,8.58-2.06,10.06-4.62,2-3.38,1.07-8.75-3-18-6.29-14.27-6.55-16.73-7.25-23.3-.65-6.18-2.44-20.76-2.66-22.58C105.73,230.29,100.58,228,96.6,228Z"/><g class="cls-10"><path class="cls-11" d="M116.94,276.48c-6.23-14.14-6.51-16.55-7.21-23.19s-2.7-22.78-2.7-22.78-13.29-6.36-15.27,0c-.17.54,5.8,22.78,8.77,32s.14,18.52-1.13,23.19S96,301,109.58,299.53,123.16,290.62,116.94,276.48Zm-.86,7a5.53,5.53,0,0,1-5.81,3.79c-7.42-.48-3.48-18.25-3.35-19,1-5.82-5.77-14.4-6.63-17.38-.65-2.26-1.32-4.81-.4-7.08a3.43,3.43,0,0,1,5.32-1.69c2.59,1.9,3.12,6.4,3.48,9.32.54,4.44.81,8.94,1.62,13.35a29.36,29.36,0,0,0,2.23,7.45c.6,1.23,1.24,2.42,1.82,3.66C115.4,278.1,116.72,280.93,116.08,283.44Z"/></g><g class="cls-4"><path class="cls-11" d="M117.29,277.29c.39,2.09,1.48,5.22.06,7.12a14.71,14.71,0,0,1-7.62,4.9c-3,.58-8.56-1.12-8.75-4.57-.21-3.75,2.11-8.11,2.87-11.77.52-2.54.94-5.22.18-7.76a31.16,31.16,0,0,0-1.38-3.46,89.41,89.41,0,0,1-3.52-8.47c-1.47-4.36-3.2-11.56,2.49-13.69,2.85-1.06,5.1,0,6.76,2-.7-5.78-1.35-11.11-1.35-11.11s-13.29-6.36-15.27,0c-.17.54,5.8,22.78,8.77,32s.14,18.52-1.13,23.19S96,301,109.58,299.53C122.9,298.15,123.15,290.91,117.29,277.29Z"/></g><path class="cls-13" d="M109.58,289.63c-4.77.89-7.92-1.57-10-4.73-.07.27-.14.53-.21.77C98.12,290.34,96,301,109.58,299.53c11.67-1.21,13.31-6.92,9.59-17.48A13.05,13.05,0,0,1,109.58,289.63Z"/><path class="cls-14" d="M107.25,300c-3.54,0-6.08-1-7.58-2.94-2.74-3.6-1.13-9.52-.6-11.47l.42-1.5.41.63c2.44,3.76,5.69,5.31,9.62,4.58a12.67,12.67,0,0,0,9.35-7.4l.35-.73.26.77c2.18,6.18,2.36,10.38.57,13.22-1.65,2.61-5.07,4.15-10.43,4.71A22.11,22.11,0,0,1,107.25,300Zm-7.51-14.3,0,.06c-1.38,5.09-1.22,8.65.49,10.89s4.8,3,9.34,2.55c5.14-.54,8.4-2,9.93-4.41s1.49-6.31-.38-11.88a13.15,13.15,0,0,1-9.46,7.06C105.65,290.7,102.29,289.26,99.74,285.7Z"/><g class="cls-15"><path class="cls-13" d="M120.08,284.93a7.66,7.66,0,0,1-2.3,6.54c-2.82,2.61-6.87,2.7-10.39,1.49a10.36,10.36,0,0,1-4.72-2.78,12.49,12.49,0,0,1-1.84-3.64,16.21,16.21,0,0,1-1.22-1.64c-.07.27-.14.53-.21.77C98.12,290.34,96,301,109.58,299.53,120.14,298.44,122.49,293.65,120.08,284.93Z"/></g><g class="cls-15"><path class="cls-13" d="M113.57,296.48c-3.61.89-7.68.82-10.47-2a10.7,10.7,0,0,1-3.06-9c-.15-.2-.29-.4-.43-.61-.07.27-.14.53-.21.77C98.12,290.34,96,301,109.58,299.53c7.85-.81,11.16-3.67,11.35-8.65C119.72,293.75,116.43,295.77,113.57,296.48Z"/></g><path class="cls-16" d="M98.81,294.52c.9,3.24,3.71,5.75,10.77,5,6.61-.69,10-2.81,11-6.44a21.3,21.3,0,0,1-12,4.18C104,297.58,100.87,296.35,98.81,294.52Z"/><path class="cls-11" d="M62.91,218.49c-.16.56-.85,16.26,1.7,27.72s5.23,21.64,4.24,24.19S60.93,278,53.29,281.14s-5.66,11.61-2,12.17a48.62,48.62,0,0,0,22.63-3.25c8.49-3.68,9.33-4.24,9.19-8.63s-.56-8.06-2.26-9.62-3.54-37.06-3.25-41.58S65.45,209.3,62.91,218.49Z"/><path class="cls-12" d="M55.45,293.9h0a29.85,29.85,0,0,1-4.19-.25c-1.77-.27-3.21-2.17-3.49-4.6-.33-2.78.92-6.39,5.39-8.21,7.66-3.13,14.43-8.15,15.37-10.57.77-2-.91-9.33-2.86-17.85-.46-2-.93-4-1.4-6.13-2.52-11.37-1.9-27.13-1.69-27.89.69-2.48,2-3,3.08-3,2.1,0,4.5,2.08,6.14,3.83,3.1,3.29,6.31,8.51,6.15,11-.29,4.77,1.61,39.85,3.15,41.31,1.86,1.71,2.24,5.75,2.38,9.86.14,4.63-.93,5.28-9.41,8.95C66.72,293.55,58.6,293.9,55.45,293.9Zm10.21-77.83c-1.15,0-2,.85-2.42,2.51-.12.54-.88,15.94,1.7,27.56.46,2.1.94,4.16,1.38,6.13,2.06,9,3.69,16.07,2.84,18.25-1.11,2.87-8.47,8-15.74,11-4.13,1.67-5.28,5-5,7.5.25,2.1,1.48,3.78,2.92,4a30.05,30.05,0,0,0,4.09.24h0c3.1,0,11.12-.34,18.35-3.47,8.62-3.73,9.13-4.21,9-8.31s-.48-7.84-2.16-9.38c-1.93-1.77-3.58-38.38-3.37-41.85.14-2.08-2.65-7-6-10.52C69.12,217.36,67.11,216.07,65.66,216.07Z"/><g class="cls-10"><path class="cls-11" d="M83.13,281.43c-.14-4.39-.56-8.06-2.26-9.62s-3.54-37.06-3.25-41.58S65.45,209.3,62.91,218.49a122,122,0,0,0,.36,18.85,4.1,4.1,0,0,0,1.25.65,9.3,9.3,0,0,1,3.63,1.76c1.78,1.71,2.48,4.16,2.86,6.54,1.13,7,2.37,14.1,2.65,21.17.1,2.46.24,5.29-1.51,7.29s-4.74,3.25-7.33,3.9c-.91.22-4.46,1.22-4.62-.62a1.6,1.6,0,0,1,0-.31,52.27,52.27,0,0,1-6.91,3.42c-7.64,3.12-5.66,11.61-2,12.17a48.62,48.62,0,0,0,22.63-3.25C82.43,286.38,83.27,285.82,83.13,281.43Z"/></g><g class="cls-4"><path class="cls-11" d="M83.13,281.43c-.14-4.39-.56-8.06-2.26-9.62s-3.54-37.06-3.25-41.58S65.45,209.3,62.91,218.49a75.4,75.4,0,0,0,0,15.4c.11.08,2.46,2.25,8.27,3.48,4.26.9,3.64,8.16,4.09,11,.81,5.18.89,10.42,1.42,15.62a26.55,26.55,0,0,0,1.75,7.68c.44,1.1,1.07,2.45.27,3.55-2.08,2.87-5.51,4.11-8.81,5a37.18,37.18,0,0,1-7.18,1.3c-1.77.11-4.29.2-5.68-1.17a2.57,2.57,0,0,1-.52-.68c-1,.51-2.12,1-3.21,1.44-7.64,3.12-5.66,11.61-2,12.17a48.62,48.62,0,0,0,22.63-3.25C82.43,286.38,83.27,285.82,83.13,281.43Z"/></g><path class="cls-13" d="M57.9,281.17a2.57,2.57,0,0,1-.09-2.13c-1.45.76-3,1.47-4.52,2.1-7.64,3.12-5.66,11.61-2,12.17a48.62,48.62,0,0,0,22.63-3.25c8.49-3.68,9.33-4.24,9.19-8.63a38.26,38.26,0,0,0-.48-5.54C74.11,283,59.5,283.62,57.9,281.17Z"/><path class="cls-14" d="M55.45,293.9a29.85,29.85,0,0,1-4.19-.25c-1.77-.27-3.21-2.17-3.49-4.6-.33-2.78.92-6.39,5.39-8.21,1.47-.61,3-1.31,4.49-2.1l.71-.36-.23.76a2.25,2.25,0,0,0,.06,1.84c.34.53,1.87,1.15,5,1.15,5.68,0,13.83-2,19.23-6.5l.44-.37.11.57a40.44,40.44,0,0,1,.5,5.59c.14,4.63-.93,5.28-9.41,8.95C66.72,293.55,58.6,293.9,55.45,293.9Zm1.88-14.23c-1.32.67-2.63,1.27-3.91,1.8-4.13,1.67-5.28,5-5,7.5.25,2.1,1.48,3.78,2.92,4a30.05,30.05,0,0,0,4.09.24c3.1,0,11.12-.34,18.35-3.47,8.62-3.73,9.13-4.21,9-8.31a44.64,44.64,0,0,0-.39-4.92c-5.52,4.34-13.56,6.29-19.21,6.29-2.94,0-5-.53-5.58-1.45A2.49,2.49,0,0,1,57.33,279.67Z"/><g class="cls-15"><path class="cls-13" d="M83.13,281.43a38.26,38.26,0,0,0-.48-5.54,25.27,25.27,0,0,1-6.06,3.67,14.76,14.76,0,0,1-5.68,6.29c-4.74,2.86-10.83,3.85-16.31,3.84-1.92,0-4.25-.2-5.69-1.64a6.43,6.43,0,0,1-.77-.94c-.47,3,1.08,5.88,3.17,6.2a48.62,48.62,0,0,0,22.63-3.25C82.43,286.38,83.27,285.82,83.13,281.43Z"/></g><g class="cls-15"><path class="cls-13" d="M83.13,281.43a38.26,38.26,0,0,0-.48-5.54c-.52.43-1.06.83-1.62,1.21a7.64,7.64,0,0,1-2.92,7.26c-4.51,3.43-10.5,5.5-16,6.58a49.1,49.1,0,0,1-9.6.84,17.1,17.1,0,0,1-3.54-.24,3.49,3.49,0,0,0,2.35,1.77,48.62,48.62,0,0,0,22.63-3.25C82.43,286.38,83.27,285.82,83.13,281.43Z"/></g><path class="cls-16" d="M51.86,291.24a5.56,5.56,0,0,1-3.73-2.05c.31,2.14,1.59,3.87,3.18,4.12a48.62,48.62,0,0,0,22.63-3.25c7.18-3.11,8.89-4,9.16-6.84C70.25,291.21,57.57,292,51.86,291.24Z"/><path class="cls-11" d="M64.53,118.4s9.81-3.73,14.21-2.37l-1.18-6.77,13.54-.34.85,5.92s10.15.17,16.41,2.37c0,0-2.37,18.28-24.2,20.14S64.53,118.4,64.53,118.4Z"/><path class="cls-12" d="M81.49,137.81c-5.66,0-10-1.68-13-5-5.13-5.7-4.3-14.09-4.27-14.44l0-.22.19-.07c.29-.11,7.14-2.69,12-2.69a9.35,9.35,0,0,1,1.94.18l-1.16-6.64,14.23-.36.85,5.94c1.71,0,10.58.39,16.23,2.38l.26.09,0,.27c0,.19-2.66,18.58-24.51,20.44C83.26,137.77,82.35,137.81,81.49,137.81ZM64.85,118.64c-.09,1.33-.37,8.73,4.12,13.72,3.28,3.65,8.41,5.23,15.16,4.65C104,135.32,107.56,119.7,108,117.44c-6.16-2.07-15.94-2.26-16-2.26h-.29l-.85-5.91L78,109.58l1.22,6.93-.53-.16a8.17,8.17,0,0,0-2.27-.28C72.12,116.07,66,118.21,64.85,118.64Z"/><g class="cls-10"><path class="cls-11" d="M92,114.84l-.85-5.92-13.54.34L78.74,116c-4.4-1.36-14.21,2.37-14.21,2.37s-2.2,20.81,19.63,18.95,24.2-20.14,24.2-20.14C102.1,115,92,114.84,92,114.84Zm7.8,10c-.73,5.83-8.78,7.46-13.5,7.69-5.29.26-10.79-1.12-14.28-4.87a10.9,10.9,0,0,1-1-1c-1.82-2.07-3.39-5.81-.1-7.41,2.86-1.41,6.73.65,9.55,1.24a32.67,32.67,0,0,0,9.51.63c1.91-.17,3.78-.62,5.68-.8C98.73,120.07,100.12,121.84,99.75,124.85Z"/></g><g class="cls-4"><path class="cls-11" d="M92,114.84l-.85-5.92-13.54.34L78.74,116a10.38,10.38,0,0,0-3.94-.21c1.11.27,2.16.93,3.45.93,2.14,0,3.83-1.37,5.82-1.94s3.26-.09,5.06,1c2.07,1.22,4.72.83,7,.75,1.63-.06,3.61-.19,4.84,1.07,3,3-.34,8.44-2.8,10.94a16.16,16.16,0,0,1-9.4,4.25c-7,1.06-17.79-1.68-20-9.58a11.38,11.38,0,0,1-.06-6.18,28.87,28.87,0,0,0-4.23,1.36s-2.2,20.81,19.63,18.95,24.2-20.14,24.2-20.14C102.1,115,92,114.84,92,114.84Z"/></g><path class="cls-17" d="M112.08,144.29s12.53-5.92,13.88-9.14a50.75,50.75,0,0,0-8.24-12.58c-5.64-6.38-11.22-7-11.67-6.71s-2.42,12.92-13.37,16.41S70,130.93,67.91,123.14c-1.37-5.08,1-5.77,0-6.89s-3.55.91-6.42,3.22-10.33,9.48-10.72,10,4.91,6.48,9.93,8.12c0,0-2.27,22.57-13.27,41.69s-22.76,38.5-23.52,41.3c-1.18,4.34,14.05,10.77,31,10.21.8,0,23.92,11.56,48.41,7,23.85-4.4,25-15.4,25-15.4s-10.83-41.63-13.88-50.6-6.59-30.3-6.59-33C107.86,138.88,110.39,143.78,112.08,144.29Z"/><path class="cls-18" d="M91.51,239.26c-16.57,0-30.66-5.7-35.28-7.57-.67-.27-1.25-.51-1.37-.53-.67,0-1.38,0-2.07,0-13.32,0-25.51-4.24-28.53-8.19a2.81,2.81,0,0,1-.67-2.49c.52-1.93,6.06-11.39,13.07-23.36,3.25-5.56,6.94-11.84,10.49-18C57.34,161.43,60,140.47,60.33,137.87c-4.7-1.66-9.46-6.79-9.88-8a.54.54,0,0,1,0-.52c.42-.62,7.87-7.77,10.78-10.11,2.42-1.95,4.5-3.62,5.87-3.62a1.31,1.31,0,0,1,1,.44c.56.6.35,1.15.12,1.79a7.58,7.58,0,0,0,0,5.22c1.58,5.83,8.74,10,17,10A23.81,23.81,0,0,0,92.57,132c9-2.88,11.86-12.14,12.79-15.18.26-.87.33-1.09.51-1.2a1,1,0,0,1,.54-.1c1.53,0,6.58,1.23,11.57,6.88A51.53,51.53,0,0,1,126.27,135l.06.13-.06.13c-1.38,3.3-13.53,9.07-14,9.32l-.12.05-.13,0c-1.23-.38-2.76-2.68-3.66-4.22.64,5.69,3.72,23.32,6.46,31.37,3,8.87,13.77,50.21,13.88,50.62v.12c0,.46-1.49,11.3-25.33,15.7A65,65,0,0,1,91.51,239.26Zm-36.64-8.77a6.09,6.09,0,0,1,1.61.57c4.6,1.86,18.59,7.52,35,7.52a64.66,64.66,0,0,0,11.71-1c12.19-2.24,18.28-6.24,21.24-9.2s3.46-5.44,3.52-5.84c-.49-1.89-10.89-41.83-13.85-50.52-3.09-9.09-6.61-30.38-6.61-33.1v-1.4l.64,1.24c.66,1.29,2.62,4.65,3.91,5.2,1.29-.62,12-5.85,13.52-8.77a51.8,51.8,0,0,0-8.12-12.35c-4.83-5.47-9.61-6.66-11.06-6.66h-.14c-.06.16-.16.49-.27.82-1,3.13-3.87,12.64-13.22,15.63a24.87,24.87,0,0,1-7.52,1.17c-8.58,0-16-4.43-17.67-10.55a8.25,8.25,0,0,1,0-5.63c.24-.64.29-.82,0-1.11a.66.66,0,0,0-.52-.21c-1.14,0-3.22,1.68-5.43,3.45-2.88,2.31-9.87,9.06-10.62,9.92.29,1,5.09,6.17,9.71,7.67l.26.08,0,.27c0,.24-2.39,22.86-13.3,41.83-3.55,6.16-7.23,12.46-10.48,18-6.71,11.46-12.51,21.35-13,23.2a2.23,2.23,0,0,0,.55,1.9c3.08,4,16.13,8.36,30.08,7.89Z"/><path class="cls-19" d="M112.08,144.29s12.53-5.92,13.88-9.14a50.75,50.75,0,0,0-8.24-12.58c-5.64-6.38-11.22-7-11.67-6.71s-2.42,12.92-13.37,16.41S70,130.93,67.91,123.14c-1.37-5.08,1-5.77,0-6.89s-3.55.91-6.42,3.22-10.33,9.48-10.72,10,4.91,6.48,9.93,8.12c0,0-2.27,22.57-13.27,41.69s-22.76,38.5-23.52,41.3c-1.18,4.34,14.05,10.77,31,10.21.8,0,23.92,11.56,48.41,7,23.85-4.4,25-15.4,25-15.4s-10.83-41.63-13.88-50.6-6.59-30.3-6.59-33C107.86,138.88,110.39,143.78,112.08,144.29Z"/><path class="cls-20" d="M91.51,239.26c-16.57,0-30.66-5.7-35.28-7.57-.67-.27-1.25-.51-1.37-.53-.67,0-1.38,0-2.07,0-13.32,0-25.51-4.24-28.53-8.19a2.81,2.81,0,0,1-.67-2.49c.52-1.93,6.06-11.39,13.07-23.36,3.25-5.56,6.94-11.84,10.49-18C57.34,161.43,60,140.47,60.33,137.87c-4.7-1.66-9.46-6.79-9.88-8a.54.54,0,0,1,0-.52c.42-.62,7.87-7.77,10.78-10.11,2.42-1.95,4.5-3.62,5.87-3.62a1.31,1.31,0,0,1,1,.44c.56.6.35,1.15.12,1.79a7.58,7.58,0,0,0,0,5.22c1.58,5.83,8.74,10,17,10A23.81,23.81,0,0,0,92.57,132c9-2.88,11.86-12.14,12.79-15.18.26-.87.33-1.09.51-1.2a1,1,0,0,1,.54-.1c1.53,0,6.58,1.23,11.57,6.88A51.53,51.53,0,0,1,126.27,135l.06.13-.06.13c-1.38,3.3-13.53,9.07-14,9.32l-.12.05-.13,0c-1.23-.38-2.76-2.68-3.66-4.22.64,5.69,3.72,23.32,6.46,31.37,3,8.87,13.77,50.21,13.88,50.62v.12c0,.46-1.49,11.3-25.33,15.7A65,65,0,0,1,91.51,239.26Zm-36.64-8.77a6.09,6.09,0,0,1,1.61.57c4.6,1.86,18.59,7.52,35,7.52a64.66,64.66,0,0,0,11.71-1c12.19-2.24,18.28-6.24,21.24-9.2s3.46-5.44,3.52-5.84c-.49-1.89-10.89-41.83-13.85-50.52-3.09-9.09-6.61-30.38-6.61-33.1v-1.4l.64,1.24c.66,1.29,2.62,4.65,3.91,5.2,1.29-.62,12-5.85,13.52-8.77a51.8,51.8,0,0,0-8.12-12.35c-4.83-5.47-9.61-6.66-11.06-6.66h-.14c-.06.16-.16.49-.27.82-1,3.13-3.87,12.64-13.22,15.63a24.87,24.87,0,0,1-7.52,1.17c-8.58,0-16-4.43-17.67-10.55a8.25,8.25,0,0,1,0-5.63c.24-.64.29-.82,0-1.11a.66.66,0,0,0-.52-.21c-1.14,0-3.22,1.68-5.43,3.45-2.88,2.31-9.87,9.06-10.62,9.92.29,1,5.09,6.17,9.71,7.67l.26.08,0,.27c0,.24-2.39,22.86-13.3,41.83-3.55,6.16-7.23,12.46-10.48,18-6.71,11.46-12.51,21.35-13,23.2a2.23,2.23,0,0,0,.55,1.9c3.08,4,16.13,8.36,30.08,7.89Z"/><path class="cls-13" d="M105.21,220.54c-12.83,3.73-26.92,4-39.62-.38-8.22-2.85-15.65-7.63-24.24-9.45-4.4-.94-11.37-1.94-13.69,2.74a26.59,26.59,0,0,1,15.23,3C55.68,223.12,68.52,229.19,83,231a67.77,67.77,0,0,0,12.33.43,47.89,47.89,0,0,0,11.19-1.94c6.62-2,13.25-5.32,17.69-10.83,2.5-3.11,2-6.15.55-9.63.83,2.06-3,4.62-4.25,5.35a63.49,63.49,0,0,1-10.38,4.56Q107.7,219.81,105.21,220.54Z"/><path class="cls-13" d="M107.94,139a38.28,38.28,0,0,1,3.54-21.57c-3-1.61-5.15-1.79-5.43-1.61-.45.28-2.42,12.92-13.37,16.41S70.54,131,68.25,124.41c-2.18-6.29.74-7.28-.34-8.16s-3.55.91-6.42,3.22l-.49.39a32.43,32.43,0,0,1-.3,17.77S84,146.77,107.91,140l0,.06c0-.53-.08-.94-.08-1.18Z"/><g class="cls-15"><path class="cls-21" d="M114.45,171.88c-3-9-6.59-30.3-6.59-33,0,0,2.53,4.9,4.22,5.41,0,0,4.33-2,8.16-4.38a14.69,14.69,0,0,1-1.65-1.51,27.11,27.11,0,0,1-5.08-8.5,25.21,25.21,0,0,1-1.86-8.6,7,7,0,0,1,.36-3.2l0-.31c-3.23-1.9-5.7-2.12-6-1.93-.45.28-2.42,12.92-13.37,16.41S70,130.93,67.91,123.14c-1.37-5.08,1.08-6.33,0-6.89s-3.49.89-6.36,3.16a19.67,19.67,0,0,1-3.71,9c-1.13,1.44-3,3.6-5,3.86h-.14a22,22,0,0,0,8,5.38s-2.27,22.57-13.27,41.69-22.76,38.5-23.52,41.3c-1.12,4.12,12.6,10.15,28.5,10.24a23.7,23.7,0,0,1-6.95-3.37c-5.48-4-7-10.84-4.26-17,1.68-3.76,4.29-6.93,6.84-10.11a77.39,77.39,0,0,0,8-11.71,140.29,140.29,0,0,0,11-28.27c1.33-4.73,2.36-9.57,3.92-14.24,1.25-3.71,3-7.42,6.1-9.9,5.81-4.55,13.19-2.74,17.56,2.91,5.72,7.42,6.68,17.11,8,26.05,1.51,10,4.85,19.47,7,29.32,1.88,8.68,3.22,17.75,2,26.62-.47,3.42-1.14,6.9-2.95,9.89a31.85,31.85,0,0,1-5.6,6.87l.24,0c23.85-4.4,25-15.4,25-15.4S117.5,180.85,114.45,171.88Z"/></g><g class="cls-15"><path class="cls-21" d="M114.45,171.88c-3-9-6.59-30.3-6.59-33,0,0,2.53,4.9,4.22,5.41,0,0,1.85-.87,4.19-2.12a24.5,24.5,0,0,1-4.81-6.48c-2.88-5.86-2.21-12.24.53-17.92-3.21-1.88-5.65-2.1-5.94-1.91s-1.43,6.75-6.06,11.72a4.12,4.12,0,0,1,1-.33c2.59-.49,2.66,4.77,2.71,6.19.14,4.1-.3,8.19-.35,12.29a47.33,47.33,0,0,0,.81,8q.88,5.78,2.29,11.45c2.6,10.63,6.17,21,9.36,31.44q2.37,7.77,4.62,15.58c1.21,4.27,2.51,9.06,1.79,13.53a14.31,14.31,0,0,1-3.13,7c8.65-4.76,9.25-10.2,9.25-10.2S117.5,180.85,114.45,171.88Z"/></g><g class="cls-15"><path class="cls-21" d="M35.79,226.52c-5.68-6.21-1.31-14.47,2-20.73,4.66-8.95,9.86-17.65,13.88-26.92,4.31-9.92,6.78-20.57,9.63-31a70.89,70.89,0,0,0,2.25-13.5c.26-3.3-1.43-11.07-1.42-10a10.43,10.43,0,0,1-.28,3.43,12.21,12.21,0,0,1-1.39,2.53,10.57,10.57,0,0,1-5,4.15l-.11,0a18.09,18.09,0,0,0,5.41,3.1s-2.27,22.57-13.27,41.69-22.76,38.5-23.52,41.3,5.65,6.67,15,8.74A25.7,25.7,0,0,1,35.79,226.52Z"/></g><g class="cls-22"><path class="cls-23" d="M117.9,287.29c-2,1.37-3.8,2.72-6.2,3.36a10.47,10.47,0,0,1-6.9-.4c-.17-.07-.28.19-.13.28,4.5,2.68,10.08.8,13.62-2.72C118.54,287.57,118.22,287.08,117.9,287.29Z"/></g><g class="cls-22"><path class="cls-23" d="M65.55,283.85a60.89,60.89,0,0,1-7.7,1.27c-1.16.07-2.32.07-3.48.05s-3.84-.85-2.94-2.57a.19.19,0,0,0-.32-.2c-1.35,1.9,1.26,3.27,2.82,3.48a27.42,27.42,0,0,0,11.73-1.57A.24.24,0,0,0,65.55,283.85Z"/></g><g class="cls-22"><path class="cls-23" d="M67.75,283.56h-.11c-.24,0-.25.37,0,.36h.12A.18.18,0,0,0,67.75,283.56Z"/></g><g class="cls-22"><path class="cls-23" d="M119.69,286.16c-.08-.2-.39-.32-.5-.08a.82.82,0,0,0-.09.19s0,.05,0,.07a.34.34,0,0,0-.09.65C119.47,287.15,119.85,286.6,119.69,286.16Z"/></g><path class="cls-24" d="M23.91,220.62c-1.18,4.34,14.05,10.77,31,10.21C48.21,226.44,28,210.85,23.91,220.62Z"/><path class="cls-19" d="M52.79,231.2h0c-13.32,0-25.51-4.24-28.53-8.19a2.81,2.81,0,0,1-.67-2.49A5.3,5.3,0,0,1,29,217.11c6.62,0,17.08,7.22,23.33,11.53,1.08.75,2,1.4,2.79,1.9l.88.59-1.06,0C54.19,231.19,53.49,231.2,52.79,231.2ZM29,217.79a4.59,4.59,0,0,0-4.72,3,2.21,2.21,0,0,0,.56,1.85c2.93,3.82,14.87,7.92,28,7.92h1c-.58-.38-1.22-.83-1.92-1.31C45.71,224.94,35.36,217.79,29,217.79Z"/><g class="cls-25"><path class="cls-23" d="M117.9,287.29c-2,1.37-3.8,2.72-6.2,3.36a10.47,10.47,0,0,1-6.9-.4c-.17-.07-.28.19-.13.28,4.5,2.68,10.08.8,13.62-2.72C118.54,287.57,118.22,287.08,117.9,287.29Z"/><path class="cls-23" d="M65.55,283.85a60.89,60.89,0,0,1-7.7,1.27c-1.16.07-2.32.07-3.48.05s-3.84-.85-2.94-2.57a.19.19,0,0,0-.32-.2c-1.35,1.9,1.26,3.27,2.82,3.48a27.42,27.42,0,0,0,11.73-1.57A.24.24,0,0,0,65.55,283.85Z"/><path class="cls-23" d="M67.75,283.56h-.11c-.24,0-.25.37,0,.36h.12A.18.18,0,0,0,67.75,283.56Z"/><path class="cls-23" d="M119.69,286.16c-.08-.2-.39-.32-.5-.08a.82.82,0,0,0-.09.19s0,.05,0,.07a.34.34,0,0,0-.09.65C119.47,287.15,119.85,286.6,119.69,286.16Z"/><path class="cls-23" d="M97.42,235.44a101.2,101.2,0,0,1-19.91-.65,44.39,44.39,0,0,1-10.13-2.55c-2.89-1-6.25-1.91-8.61-3.93-.22-.18-.53.1-.32.29,1.95,1.87,4.54,2.76,7,3.71a50.41,50.41,0,0,0,10.15,3c3.58.57,7.22.72,10.84,1a41.1,41.1,0,0,0,11-.4C97.73,235.85,97.69,235.42,97.42,235.44Z"/><path class="cls-23" d="M124.47,134.92a28,28,0,0,0-4-7.13,27.53,27.53,0,0,0-5.53-6.26c-.14-.11-.33.13-.2.26,3.89,3.69,6.37,8.83,9.13,13.36C124.06,135.45,124.59,135.28,124.47,134.92Z"/><path class="cls-23" d="M57.38,123.85a19.06,19.06,0,0,0-5.45,6.07.11.11,0,0,0,.19.11,35.41,35.41,0,0,1,2.56-2.92c1-1,2.12-1.83,3.07-2.86A.27.27,0,0,0,57.38,123.85Z"/></g><g class="cls-26"><g class="cls-25"><path class="cls-23" d="M145.36,175.67c-1.83-2.22-3.74-4.35-5.35-6.75s-3.2-5.11-4.76-7.7c-2.95-4.92-6.42-9.75-8.53-15.12-.09-.23-.49-.07-.41.16,1.92,5.48,5.26,10.41,8.17,15.39s5.89,10.59,10.44,14.44A.3.3,0,0,0,145.36,175.67Z"/></g><path class="cls-23" d="M164,180.48c-3.11-1.49-6.83-3.1-10.31-3.24-.07,0-.07.1,0,.11,3.6.44,6.71,2.52,10.2,3.37C164.05,180.75,164.17,180.55,164,180.48Z"/><path class="cls-23" d="M165.12,186c-1.48-1.24-3.22-1.61-5-2.4a43.19,43.19,0,0,0-6.17-2.22.11.11,0,1,0-.06.21c3.71,1.5,7.46,2.81,11.06,4.55C165.09,186.13,165.21,186,165.12,186Z"/><path class="cls-23" d="M161.84,190.36c-2.67-2.14-5.63-3.81-8.4-5.8-.12-.08-.23.1-.12.18a39.74,39.74,0,0,0,4.27,3c1.42.87,2.66,2,4.08,2.86C161.85,190.74,162,190.48,161.84,190.36Z"/><path class="cls-23" d="M156.22,194.56a70.53,70.53,0,0,0-6.05-8.13c-.09-.11-.28,0-.2.14.87,1.25,1.84,2.43,2.74,3.65a49,49,0,0,0,3.26,4.52A.16.16,0,0,0,156.22,194.56Z"/></g><g class="cls-27"><g class="cls-25"><path class="cls-23" d="M46.26,143.72c-3.39,5.28-7.06,10.35-10.35,15.7S28.65,169.61,25,174.68c-.1.12.11.29.21.17a131,131,0,0,0,11.09-14.49c1.84-2.76,3.46-5.63,5.42-8.32A40.68,40.68,0,0,0,46.77,144C46.9,143.65,46.43,143.46,46.26,143.72Z"/></g><g class="cls-25"><path class="cls-23" d="M16.89,177.05c-1.77.15-3.43.32-5.21.63a25.52,25.52,0,0,0-6,1.82c-.08,0,0,.18.06.15,1.8-.5,3.62-1,5.46-1.32,1-.19,2-.33,3-.51a16.86,16.86,0,0,0,2.77-.46C17.08,177.3,17.08,177,16.89,177.05Z"/></g><g class="cls-25"><path class="cls-23" d="M14.44,181.52a24.57,24.57,0,0,0-11.74,4c-.13.08,0,.29.11.21a29.65,29.65,0,0,1,5.59-2.31c2-.57,4.08-1,6.07-1.6C14.65,181.8,14.64,181.5,14.44,181.52Z"/></g><g class="cls-25"><path class="cls-23" d="M15.43,183.71A59.1,59.1,0,0,0,9,187.63a15.71,15.71,0,0,0-4.53,4c-.08.11.09.24.17.15a21.6,21.6,0,0,1,5.13-4c1.93-1.29,4.14-2.31,5.95-3.73C15.88,183.89,15.64,183.59,15.43,183.71Z"/></g><g class="cls-25"><path class="cls-23" d="M18.63,185.71c-2.75,3.28-6,6.29-8.12,10-.1.15.14.3.24.14,2.28-3.64,5.71-6.43,8.14-10C19,185.77,18.76,185.56,18.63,185.71Z"/></g></g><g class="cls-25"><path class="cls-23" d="M67.22,252.53q-1.14-6.22-2.44-12.41c0-.22-.36-.13-.33.09.52,4.17,1.41,8.33,2.19,12.47.81,4.37,1.61,8.71,2.83,13a.13.13,0,0,0,.26-.07C69,261.23,68,256.9,67.22,252.53Z"/></g><g class="cls-25"><path class="cls-23" d="M110.31,268.19a53.68,53.68,0,0,1-1.14-7.07c-.58-4.74-1.18-9.42-1.93-14.14,0-.19-.32-.11-.3.07q.8,7.11,1.64,14.22a38.93,38.93,0,0,0,1.21,7.05,55.81,55.81,0,0,0,2.63,6.42c0,.09.22,0,.18-.08C111.83,272.5,110.91,270.4,110.31,268.19Z"/></g><g class="cls-25"><path class="cls-23" d="M114.2,277.22a4.47,4.47,0,0,0-.9-1.55c-.12-.12-.35,0-.26.19.31.5.52,1,.83,1.54C114,277.62,114.28,277.44,114.2,277.22Z"/></g><g class="cls-25"><path class="cls-23" d="M68.09,272.34a48.81,48.81,0,0,1-6.68,5.31c-.13.09-.06.33.1.27a10.38,10.38,0,0,0,3.35-2.26,34.9,34.9,0,0,0,3.34-3.21A.08.08,0,0,0,68.09,272.34Z"/></g><g class="cls-22"><path class="cls-23" d="M94.89,128a23.51,23.51,0,0,1-11.68,2.63,14.49,14.49,0,0,1-6.41-2,19.46,19.46,0,0,1-5-4.65c-.13-.16-.41.05-.3.23A21.67,21.67,0,0,0,75.91,129a14.64,14.64,0,0,0,6.55,2.46,16.26,16.26,0,0,0,6.4-.38,14.77,14.77,0,0,0,6.4-2.57C95.54,128.27,95.2,127.83,94.89,128Z"/></g><g class="cls-22"><path class="cls-23" d="M96.79,126.17c-.26.32-.63.63-.66,1.08,0,.3.47.39.53.08a1,1,0,0,1,.27-.4,1.7,1.7,0,0,0,.28-.51C97.29,126.2,97,126,96.79,126.17Z"/></g><g class="cls-4"><path class="cls-2" d="M113.17,103.58l.29-.71c.11-.26,10.48-25.78,10.7-36.21.2-9.76-7.56-18.59-8.5-19.63C103,46.63,82.38,36.46,80.78,35.65a75.8,75.8,0,0,0-21.34,7.28c-11.12,5.91-10.77,15.62-9,24.35,2,9.76-1.43,29.82-1.47,30l0,.34-.34-.07c-10.63-2-16.17-8.06-18.94-12.78-3-5.15-3.79-10.51-3-12.92,1.38-4.17,1.13-4.75-2-11.82l-.25-.58c-3.51-8-.16-16.17,3.35-19.45s4.67-5.36,6.67-11.81c2.17-7,5.14-11,15.36-13.77,5.66-1.52,7.67-3.48,9.62-5.38a14.31,14.31,0,0,1,6.87-4.21,27.54,27.54,0,0,1,7.62-1.22c4.62,0,6.69,1.71,7.3,2.35A21.72,21.72,0,0,1,92.43,3c6.56,0,12,2.64,14.37,5.1,3.78,4,7.87,5.12,17,6.9A16.27,16.27,0,0,1,137,27.66c.86,3.56,1.39,5.72,7,11.47,6.76,7,3.36,15.72,1.59,19.18-1.63,3.14-1.25,4.93-.5,8.51a70.09,70.09,0,0,1,1.55,11.62c.6,11.73-10.15,15.9-16.56,18.4-1,.38-1.86.72-2.59,1-5.7,2.51-13.49,5.4-13.57,5.43ZM80.89,35l.1,0c.21.11,21.86,11,34.83,11.36H116l.1.1c.09.1,9,9.59,8.79,20.21-.21,9.69-8.74,31.44-10.46,35.74,2.06-.77,8.13-3.08,12.8-5.13.75-.34,1.66-.69,2.62-1.07,6.65-2.59,16.71-6.49,16.13-17.74A68.49,68.49,0,0,0,144.39,67c-.75-3.6-1.16-5.6.56-9s5-11.75-1.46-18.39c-5.71-5.88-6.25-8.1-7.14-11.78a15.6,15.6,0,0,0-12.71-12.16c-9.26-1.8-13.42-2.95-17.33-7.09-2.23-2.35-7.52-4.89-13.88-4.89a21,21,0,0,0-11.09,3l-.26.16-.18-.26s-1.77-2.31-7-2.31a26.78,26.78,0,0,0-7.42,1.2,13.75,13.75,0,0,0-6.59,4c-1.92,1.87-4.1,4-9.93,5.55-9.91,2.68-12.79,6.58-14.88,13.32-2,6.52-3.3,8.78-6.86,12.1-3.36,3.15-6.57,11-3.19,18.69l.25.57c3.16,7.15,3.48,7.89,2,12.31-.65,2-.18,7.08,2.93,12.36,2.67,4.56,8,10.38,18.13,12.4.45-2.68,3.26-20.48,1.41-29.43s-2.2-19,9.31-25.07A75.46,75.46,0,0,1,80.78,35Z"/></g><g class="cls-10"><path class="cls-2" d="M145.25,58.15c2.88-5.59,4.07-13-1.52-18.79s-6.15-7.89-7-11.62a15.89,15.89,0,0,0-13-12.41c-9.26-1.81-13.32-2.93-17.16-7a16.36,16.36,0,0,0-6.5-3.76,15.85,15.85,0,0,1,5.46,10c.27,1.61.75,3.63,2.13,4.67,1.75,1.33,4.26.4,6.14-.12,2.94-.81,5.89-1.72,9-1.66,3.25,0,7.27.65,9.55,3.19a12.43,12.43,0,0,1,2.7,5.65c.53,3-.33,6.21.65,9.2,1.36,4.13,6.65,4.28,8.84,7.69,1.9,3,1.94,8.06-1.23,10.22-2.16,1.46-6,1.37-6.63,4.5-.43,2.12,1,4.41.31,6.54-.28.87-1.24,1.72-2.19,1.13-1.78-1.09.51-5.39-.44-7.14-1.38-2.54-4.62-3.57-6.63-5.5a12.94,12.94,0,0,1-3.49-5.45c-.53-1.77-.17-4.51-1.77-5.74-2-1.51-4.8.94-7-.12s-2.85-3.81-5.65-4.11-5.37,1-8,.38-3.52-3-4-5.46c-.41-2.16-.89-5-3.69-4.9-2.19.09-4.09,1.58-6.24,1.66a2.24,2.24,0,0,1-2.32-1.62,8.94,8.94,0,0,1,.6-6.26c.63-1.37,3.89-4.29,1.56-5.56-1-.55-2.36-.3-3.28-1-1.37-1-.48-2.71.5-3.68.4-.41,2.86-2.79,3.49-2.52-3.56-1.52-2.5-3.64-1-4.67a20.87,20.87,0,0,0-6.27,2.53,5.71,5.71,0,0,0-2.32-1.59c0,1.7-1.38,2.74-2.89,3.24.78.32,3.61,2.57,3.63,3.54,0,2.43-6.14,3.29-5,5.59s5.38.62,6.19,3.24c.48,1.57-1,3.49-2.3,4.13-1.55.75-3-.26-4.51,0,1.36,1.14,1.93,4.35,1.34,5.92-.77,2-3.22,2.12-5,1.35-1.92-.85-4.93-3.28-7.14-2.28-3.63,1.63-3.27,6.93-7.77,7.73-2.49.45-4.86-1.46-7.32-1.12s-3.19,2.87-3.4,4.94c-.28,2.64.1,5.46-1.37,7.82C42,51,39.76,52.32,39,54.68c-.91,2.8,1.25,6.16,1.65,8.9a4.41,4.41,0,0,1-1,4,2.63,2.63,0,0,1-4.12-.23c-.85-1.46-.31-3.52-.66-5.12-.56-2.62-3.11-3.05-5.07-4.32-2.23-1.45-4.36-3.77-4.62-6.54-.5-5.28,3.47-9.15,7.67-11.63,2.54-1.5,5.4-3,7-5.6,2-3.27.29-7.32,1.42-10.82,1.35-4.2,5.95-4,9.5-3.4,2.46.44,5.11,1.12,7.58.49,6.62-1.68,3.65-12.12,9-15.33l.59-.32c-.48.12-1,.25-1.5.41-7.77,2.24-5.92,6.74-16.5,9.59-10.39,2.79-13.09,7-15.12,13.54S31.52,37,28,40.26s-6.66,11.4-3.28,19.08S28.48,67.57,27,72s2.6,21.66,21.67,25.28c0,0,3.5-20.09,1.46-29.91s-1.69-19,9.14-24.71A74.75,74.75,0,0,1,80.83,35.3s21.78,11.06,35,11.4c0,0,8.92,9.36,8.68,20S113.78,103,113.78,103s7.78-2.87,13.54-5.41,19.63-5.92,19-19.12S142.38,63.73,145.25,58.15Z"/></g><g class="cls-10"><path class="cls-2" d="M37.38,30.91c.81-3.33-.59-7.31,1.66-10.24a12.75,12.75,0,0,1,8.1-4.43,10.38,10.38,0,0,1,4.43.36c1.48.46,3.13,1.19,4.71,1,4.09-.33,3.31-6,4.2-9.11-2.24,2.09-4,4.47-10.56,6.23-10.39,2.79-13.09,7-15.12,13.54-1.42,4.58-2.46,7-4.16,9.17C33.51,35.92,36.53,34.34,37.38,30.91Z"/></g><g class="cls-10"><path class="cls-2" d="M114.36,15.49a18.52,18.52,0,0,1,2.75-.82c.6-.13,1.21-.23,1.82-.32a29,29,0,0,1-8.84-3.13c.28.66.54,1.32.8,2C111.49,14.77,112.3,16.26,114.36,15.49Z"/></g><g class="cls-10"><path class="cls-2" d="M145.25,58.15a21.71,21.71,0,0,0,2.28-7,11.87,11.87,0,0,1-3.73,5c-1.2,1-2.79,1.42-3.92,2.47-1.71,1.59-.52,3.38.61,4.92.8,1.08,1.65,2.33,1.44,3.75a4.07,4.07,0,0,1-2,3.24,3.69,3.69,0,0,1-.74.23c-1.88,2-6.35,1.94-7.51-.62a5.2,5.2,0,0,1-.45-3.15c.33-1.43,1.33-2.53,1.71-3.92,1.16-4.21-3.64-6.32-6-8.94a29.79,29.79,0,0,1-3.86-5.23,11.48,11.48,0,0,1-2.9-5,21.38,21.38,0,0,1-8.66-3.55,6.64,6.64,0,0,0-5.68-1,13.49,13.49,0,0,1-3.74.4A9.24,9.24,0,0,1,96,36.13c-.7-.87-1-2.28-1.84-3-1.24-1.06-3.08-.19-4.56-.21-2.3,0-4-2.25-5-4.08a12.07,12.07,0,0,1-1.33-4,6,6,0,0,1-.54-2.46,6.87,6.87,0,0,1,1.41-4.64,4.81,4.81,0,0,1-1.76-1.88c-1.29-2.69.45-5.64,3-6.66a3.51,3.51,0,0,1-.74-.89c-.83-1.53.5-3.5,2.08-4.21a20.61,20.61,0,0,0-5.59,2.36,4,4,0,0,0-.86-.79,4.79,4.79,0,0,1-.52,4c1,2.1.74,4.9-.29,7.31l.14.16c1.65,2.06,2.32,6.4.08,8.24A3.67,3.67,0,0,0,78,28.77a4.08,4.08,0,0,1-.11,2.05,4.78,4.78,0,0,1-3.62,2.72c-1.93.37-3.66-.66-5.54-.72a5.63,5.63,0,0,0-4.2,1.83c-1.84,1.8-3.4,4.17-6.1,4.67-1.83.33-3.56-.76-5.25-1.24a4.69,4.69,0,0,0-6,3.74c-.48,2.43.69,4.83-.3,7.2-.56,1.39-1.94,2.09-3,3.06-1.9,1.77-2.23,4.55-1.68,7,.47,2.09,1.73,3.75,2.55,5.69a6.25,6.25,0,0,1-.24,5.17c1.85.57,3,2.49,3.66,4.32.16.41-.5.58-.65.18C47,73,45.92,71,44.3,70.49a14.15,14.15,0,0,0-1.72,5.09c0,.44-.7.44-.68,0,.1-1.91,1-3.4,1.8-5.08l0-.11a3.05,3.05,0,0,0-.88.1,6.19,6.19,0,0,0-3.8,3.62c-1,2.23-1.63,5-3.53,6.68-1.08,1-3.15,1.15-4.07-.13s-.86-3.5-.63-5.15c.3-2.22,1.16-4.21,1.62-6.37.77-3.48-.9-5.92-3.31-8.24s-4.77-4.43-5.8-7.57a17,17,0,0,0,1.4,6C28.14,67,28.48,67.57,27,72s2.6,21.66,21.67,25.28c0,0,3.5-20.09,1.46-29.91s-1.69-19,9.14-24.71A74.75,74.75,0,0,1,80.83,35.3s21.78,11.06,35,11.4c0,0,8.92,9.36,8.68,20S113.78,103,113.78,103s7.78-2.87,13.54-5.41,19.63-5.92,19-19.12S142.38,63.73,145.25,58.15Z"/></g><path class="cls-11" d="M138.91,70.63c-1.75-1.72-5.16-.75-7,.31a10.87,10.87,0,0,0-4.55,6.37.16.16,0,0,0,.29.13c.14-.2.27-.41.4-.62a12.13,12.13,0,0,0,0,8.48c.82,2.26,2,3.5,4.43,3.78,2.89.33,5.21-1.62,6.94-3.67C142.75,81.42,142.68,74.34,138.91,70.63Z"/><path class="cls-12" d="M133.13,89.45h0a5.32,5.32,0,0,1-.69,0c-2.42-.28-3.78-1.43-4.71-4a12.64,12.64,0,0,1-.33-7.59.53.53,0,0,1-.26-.19.49.49,0,0,1-.07-.44,11.23,11.23,0,0,1,4.7-6.55,9.51,9.51,0,0,1,4.49-1.3,4,4,0,0,1,2.89,1c3.81,3.75,4.06,11,.52,15.24C137.52,88.2,135.38,89.45,133.13,89.45ZM128,76.71l.45.24a11.74,11.74,0,0,0,0,8.24c.83,2.3,2,3.3,4.14,3.55.21,0,.41,0,.61,0,2,0,4-1.18,6-3.59,3.32-4,3.09-10.8-.49-14.32a3.29,3.29,0,0,0-2.41-.85,8.84,8.84,0,0,0-4.14,1.22A10.12,10.12,0,0,0,128,76.71Z"/><path class="cls-11" d="M49.32,75A6.48,6.48,0,0,0,47,70.88c-1.55-1.28-4.13-.71-5.77,0a9.48,9.48,0,0,0-3.56,12.94c1.56,3,6.89,6.83,9.62,3A16.5,16.5,0,0,0,50,79.42,8,8,0,0,0,49.32,75Z"/><path class="cls-12" d="M44.34,88.79h0c-2.89,0-5.9-2.77-7-4.78a9.83,9.83,0,0,1,3.73-13.4,8.88,8.88,0,0,1,3.5-.83,4.06,4.06,0,0,1,2.63.84,6.85,6.85,0,0,1,2.41,4.25,8.25,8.25,0,0,1,.64,4.6,16.73,16.73,0,0,1-2.7,7.59A3.91,3.91,0,0,1,44.34,88.79Zm.27-18.33a8.2,8.2,0,0,0-3.22.76A9.16,9.16,0,0,0,38,83.7c1.11,2.08,4,4.41,6.36,4.41h0A3.19,3.19,0,0,0,47,86.66a16.23,16.23,0,0,0,2.58-7.3A7.44,7.44,0,0,0,49,75.1L49,75a6.05,6.05,0,0,0-2.19-3.87A3.28,3.28,0,0,0,44.61,70.46Z"/><path class="cls-12" d="M44.06,75.8c-1.25-2-3.7-1-4.49.76-.16.36.37.52.58.26.85-1.08,2.35-1.66,3.26-.23A13.26,13.26,0,0,1,44.09,78a.08.08,0,0,0,0,0,2,2,0,0,0-.42.23c-.68.51-.61,1.31-.8,2,0,.16.19.28.27.13a6.69,6.69,0,0,1,.68-1.3,2.08,2.08,0,0,1,.56-.41,9.58,9.58,0,0,1,.42,4c0,.17.2.18.26.05C46.13,80.47,45.35,77.85,44.06,75.8Z"/><path class="cls-12" d="M134.45,76c-3.35,2.25-2.51,6.09-1.91,9.41a.13.13,0,0,0,.26,0c0-1.94-.43-3.85.07-5.76a6.79,6.79,0,0,0,.76,1,10.66,10.66,0,0,0,2.08,1.77c.23.15.51-.19.3-.37-.52-.49-1-1-1.45-1.56a5.71,5.71,0,0,1-1.23-1.89,6.2,6.2,0,0,1,2-2c1.68-1.1,2.24.91,2.57,2,.08.28.56.35.63,0C139.07,76,136.56,74.61,134.45,76Z"/><g class="cls-4"><path class="cls-11" d="M133.19,89c-1.17-1-.43-2.29.63-3,2.23-1.54,4.33-2.8,5.15-5.58.73-2.46.41-5.25-2.19-6.42-1.1-.5-2.94-.93-3.54-2.11a2,2,0,0,1-.18-1.46,10.44,10.44,0,0,0-1.11.55,10.87,10.87,0,0,0-4.55,6.37.16.16,0,0,0,.29.13c.14-.2.27-.41.4-.62a12.13,12.13,0,0,0,0,8.48c.82,2.26,2,3.5,4.43,3.78a5.46,5.46,0,0,0,.9,0Z"/></g><g class="cls-4"><path class="cls-11" d="M132.62,78.15a19.69,19.69,0,0,0-.62,5.29c0,.41.07,1.63.67,1.73s1.12-.41,1.48-.72a21.1,21.1,0,0,0,2.48-2.52,7.44,7.44,0,0,0,2-3.6,3.33,3.33,0,0,0,0-.83,4.79,4.79,0,0,0-.35-.72C136.73,74.26,133.19,75.46,132.62,78.15Z"/></g><g class="cls-4"><path class="cls-11" d="M49.32,75A6.48,6.48,0,0,0,47,70.88a3.63,3.63,0,0,0-2.2-.75,4.57,4.57,0,0,1,.2.71c.24,1.32-1.3,2.15-2.26,2.62-2.33,1.14-4.2,2.8-3.51,5.65.49,2,2.26,4.27,1.66,6.39a2,2,0,0,1-.76,1.19c2.25,1.81,5.31,2.76,7.16.17A16.5,16.5,0,0,0,50,79.42,8,8,0,0,0,49.32,75Z"/></g><g class="cls-4"><path class="cls-11" d="M42.34,82c.76.39,2.82,1.27,3-.19a8.3,8.3,0,0,0-1.18-5.07c-.88-1.3-2.8-2.46-4.18-1L39.8,76a5,5,0,0,0,.51,4A5.32,5.32,0,0,0,42.34,82Z"/></g><path class="cls-11" d="M44.35,59.28C44.3,59.83,50.69,71,48,78.81S37.45,108.72,79.11,113.3c40.19,4.42,52.81-20.34,51.19-30s-3.09-15.22.94-23.71c0,0-8.89-8.88-10.51-15.62A48.64,48.64,0,0,1,81.93,28.3s-7.8,10.91-28.29,10.64A31.81,31.81,0,0,0,44.35,59.28Z"/><path class="cls-12" d="M88.31,114.16h0a84.3,84.3,0,0,1-9.22-.53C63,111.87,52.57,107.3,48,100c-5-7.82-1.84-16.86-.34-21.2l0-.13c2.17-6.29-1.68-14.83-3.12-18-.48-1-.55-1.23-.53-1.41a32.24,32.24,0,0,1,9.41-20.56l.09-.09h.13c20,.26,27.94-10.39,28-10.49l.23-.34.28.31a48.92,48.92,0,0,0,35.5,15.65,24.52,24.52,0,0,0,3-.14l.3,0,.07.29c1.58,6.56,10.33,15.38,10.43,15.46l.16.17-.1.21c-3.64,7.65-2.73,13-1.34,21,.14.79.28,1.62.42,2.47.61,3.65-.66,10.24-6.25,16.84C114,112.32,97.32,114.16,88.31,114.16ZM53.78,39.28a31.86,31.86,0,0,0-9.09,20c0,.06.24.55.47,1.07,1.48,3.28,5.41,12,3.15,18.54l0,.13c-1.47,4.24-4.51,13.06.27,20.63C53,106.75,63.32,111.22,79.15,113a83,83,0,0,0,9.15.52h0c8.89,0,25.32-1.8,35.55-13.88,5.09-6,6.73-12.51,6.1-16.29-.14-.85-.28-1.68-.42-2.47-1.39-8.11-2.32-13.5,1.29-21.22-1.25-1.27-8.68-9.06-10.35-15.33-.46.05-1.42.11-2.8.11A49.58,49.58,0,0,1,82,28.82C80.45,30.63,72.1,39.47,53.78,39.28Z"/><g class="cls-10"><path class="cls-11" d="M131.24,59.55s-8.89-8.88-10.51-15.62A48.64,48.64,0,0,1,81.93,28.3s-7.8,10.91-28.29,10.64a31.81,31.81,0,0,0-9.29,20.34C44.3,59.83,50.69,71,48,78.81S37.45,108.72,79.11,113.3c40.19,4.42,52.81-20.34,51.19-30S127.21,68,131.24,59.55ZM125.91,92c-.66,4.49-4.91,8.68-8.51,11.23-1.62,1.14-3.33,2.17-5.05,3.15-7.47,4.27-15.9,7-24.58,6.75l-.41,0a47.18,47.18,0,0,1-24.5-4.49c-6.56-3.27-14.18-8.86-14.94-16.82C47.56,88.07,49,85,51.15,82.24c2.86-3.64,6.61-7.71,5.3-12.73-1.42-5.38-7-9.42-6.53-15.33a11.91,11.91,0,0,1,4.85-8.59c5.5-3.82,11.81.46,17.77-1.1,3.07-.8,5.68-2.63,8.66-3.58,3.64-1.17,5.54,1.1,8.36,3.08a28.41,28.41,0,0,0,14.15,4.93c5.34.5,10.78.63,15.16,4.16,6.65,5.38,4.38,14.59.85,21.06-3,5.47,1.41,7.75,4.44,11.62A7.85,7.85,0,0,1,125.91,92Z"/></g><g class="cls-4"><path class="cls-11" d="M131.13,59.21s-8.89-8.88-10.51-15.62A48.64,48.64,0,0,1,81.82,28S74,38.88,53.53,38.6a31.81,31.81,0,0,0-9.29,20.34c-.05.56,6.33,11.72,3.64,19.53-1.44,4.17-4.34,12.4-.41,19.87a14.34,14.34,0,0,1-1.22-7.6c0-2.95,1.51-5.87,2.93-8.44,2.32-4.19,3.79-7.65,3.17-12.6s-5.63-9-5-14c.47-4.11,3.46-9.51,6.38-12.47,3.16-3.19,5.46-1.74,13.74-3.85a52.61,52.61,0,0,0,7.41-2.1C76.9,36.41,78.78,35,81,34.66c3.89-.66,8,3.2,11,5a79.42,79.42,0,0,0,8.58,4.48,40.88,40.88,0,0,0,6.49,2,32,32,0,0,0,7.46,1.27c2.18,0,4,.13,5.74,1.67a31.06,31.06,0,0,1,6.9,11.33c1,3.57-.31,6.93-1.44,10.3-.84,2.52-4.63,4.76-3.21,7.77,1.14,2.42,4.29,3.43,5.38,5.92.09.21.17.42.24.62.89,2.66.1,5.41-1.34,7.92l-.07.18a32.65,32.65,0,0,1-4.78,7.62c-.93,1.15-1.87,2.29-2.86,3.39,8.82-7,11.87-16.16,11-21.22C128.57,73.22,127.09,67.7,131.13,59.21Z"/></g><path class="cls-28" d="M151.69,4.93c-1.35-1.86-3.8-1.42-5.46-.16s-2.63,2.9-4.82,2.8c-1.66-.07-2.43-1.68-4-1.82-2.13-.19-3.74,1.76-4.33,3.51-.07.23.28.4.39.18a10.37,10.37,0,0,1,.72-1.25A4,4,0,0,1,135.73,7c1.32-.71,2.29-.26,3.35.71a4.55,4.55,0,0,0,5,.2,19,19,0,0,0,2.36-2.13c1.54-1.31,4.55-2,4.78,1,.18,2.39-2.15,4.13-1.21,6.56a.28.28,0,0,0,.55-.13C150.23,10.55,153.56,7.48,151.69,4.93Z"/><path class="cls-28" d="M149.59,22c-4.38.83-2-4-1.69-6.09a5.33,5.33,0,0,0-1-3.91c-2.17-2.49-6-1.55-7.82.74-.17.19.16.45.32.28,1.78-1.82,5.39-2.66,7-.18,1.26,1.9.33,4-.24,5.89-.8,2.71.78,5.21,3.6,3.75C150.06,22.36,149.87,22,149.59,22Z"/><path class="cls-28" d="M38.51,9.59c-.53.26-1,.6-1.51.88-1,.53-2.29.27-3.34.33A3.58,3.58,0,0,0,31,12.41c-2.05,2.64-1.05,8.8-5.49,9a.19.19,0,0,0,0,.37c3.21.09,4.26-3.06,4.83-5.67a9.64,9.64,0,0,1,1.05-2.86c.87-1.46,2.19-1.67,3.74-1.64A4.46,4.46,0,0,0,38.82,10,.27.27,0,0,0,38.51,9.59Z"/><path class="cls-29" d="M107.86,67.75a6.74,6.74,0,0,0-4.52-1.45,8.26,8.26,0,0,0-4.15,1.52c-3,2-3.8,5.79-3.84,9.18,0,.06.08.07.08,0,.26-3.22,1-6.66,3.73-8.74a7.38,7.38,0,0,1,8.64-.43C107.86,67.87,107.9,67.79,107.86,67.75Z"/><g class="cls-30"><path class="cls-31" d="M119.17,86.47c1.09.83.89,1.92-.91,2.65s-3.77.5-5.52,1.18c-1.14.46-3.81,3-5.07,2.39-2.11-1-.15-4.28.79-5.29A8.38,8.38,0,0,1,119.17,86.47Z"/></g><g class="cls-32"><path class="cls-33" d="M111.33,84.15c-.21.07-.5-.18-.41-.39s.21-.49.29-.73v0c1.8-5.51,1.15-13.51-4.18-16.75-4.7-2.86-11.48,1.8-11.57,7.5a17.62,17.62,0,0,1,.5-3.59c-1.83,3-3,13.34,2.59,17.46a8.5,8.5,0,0,0,7.11,1.27s-.34,2.75-.29,3.27a11.87,11.87,0,0,1,3-5.36,8,8,0,0,1,2.39-1.41,18.22,18.22,0,0,1,4.6-1.32A6,6,0,0,0,111.33,84.15Z"/></g><path class="cls-34" d="M113.51,84.1a10.49,10.49,0,0,0-3.91,1.05,12.8,12.8,0,0,0,1.23-4,16.93,16.93,0,0,0-.7-7.77,9.46,9.46,0,0,0-4.55-5.63,5.83,5.83,0,0,0-6.52.9C97.28,70,96.39,73,95.9,75.09a15.92,15.92,0,0,0,.67,8.56c.69,2,2.59,4.28,4.82,4.69,1.13.21,3.72.54,5.06-.26a5.79,5.79,0,0,0-.79,3s0,0,0,0a7.25,7.25,0,0,1,2.58-4.62,10.28,10.28,0,0,1,5.25-2.25C113.58,84.2,113.59,84.09,113.51,84.1Z"/><path class="cls-23" d="M107.69,86.47a6.09,6.09,0,0,0-.91,1.07c-1.39,1-4.28.82-5.73.28a7.44,7.44,0,0,1-4.43-5.26,15.12,15.12,0,0,1,2.06-13,5.47,5.47,0,0,1,6.75-1.46,9.27,9.27,0,0,1,4.49,5.42,16.44,16.44,0,0,1,.91,5.74,12.59,12.59,0,0,1-.65,3.89,9,9,0,0,1-1,2.29A8.52,8.52,0,0,0,107.69,86.47Z"/><path class="cls-35" d="M110.42,75.21a17.59,17.59,0,0,1-.38,5.17,7.46,7.46,0,0,1-3.89,5.32,6.2,6.2,0,0,1-6.22,0c-3.87-2.44-4.31-7.61-3.26-12.18a16.26,16.26,0,0,0,0,9,7.44,7.44,0,0,0,4.43,5.26c1.45.54,4.34.72,5.73-.28a6.09,6.09,0,0,1,.91-1.07,8.52,8.52,0,0,1,1.46-1.07,9,9,0,0,0,1-2.29,12.59,12.59,0,0,0,.65-3.89A18.57,18.57,0,0,0,110.42,75.21Z"/><path class="cls-36" d="M109,77.78c0,4.48-2.4,8.16-5.45,8.23s-5.57-3.5-5.62-8,2.4-8.17,5.45-8.23S108.91,73.3,109,77.78Z"/><path class="cls-37" d="M109,77.78c0,4.48-2.4,8.16-5.45,8.23s-5.57-3.5-5.62-8,2.4-8.17,5.45-8.23S108.91,73.3,109,77.78Z"/><g class="cls-38"><path class="cls-39" d="M107.65,78.11c0,3.42-1.83,6.23-4.16,6.28s-4.25-2.67-4.29-6.09S101,72.07,103.37,72,107.62,74.69,107.65,78.11Z"/></g><g class="cls-15"><path class="cls-40" d="M106.94,77.81c0,2.69-1.45,4.92-3.29,5s-3.35-2.11-3.38-4.81,1.44-4.93,3.28-5S106.91,75.1,106.94,77.81Z"/></g><g class="cls-15"><path class="cls-37" d="M98,76.74c0,.42-.07.85-.07,1.29,0,4.48,2.56,8,5.62,8S109,82.26,109,77.78c0-.41,0-.82-.09-1.22C105.58,79.07,100.73,79.75,98,76.74Z"/></g><path class="cls-23" d="M102.59,76c-.11,1.4-1,2.46-1.91,2.39s-1.63-1.27-1.52-2.66,1-2.46,1.92-2.38S102.71,74.58,102.59,76Z"/><path class="cls-23" d="M101.59,80.32c0,.66-.46,1.17-.91,1.13s-.77-.6-.73-1.27.47-1.16.92-1.13S101.64,79.66,101.59,80.32Z"/><path class="cls-29" d="M62.11,67.75a6.71,6.71,0,0,1,4.51-1.45,8.29,8.29,0,0,1,4.16,1.52c3,2,3.79,5.79,3.83,9.18,0,.06-.08.07-.08,0-.26-3.22-1-6.66-3.72-8.74a7.4,7.4,0,0,0-8.65-.43S62.06,67.79,62.11,67.75Z"/><g class="cls-30"><path class="cls-31" d="M50.8,86.47c-1.1.83-.89,1.92.9,2.65s3.78.5,5.52,1.18c1.15.46,3.82,3,5.08,2.39,2.11-1,.14-4.28-.8-5.29A8.37,8.37,0,0,0,50.8,86.47Z"/></g><g class="cls-32"><path class="cls-33" d="M58.63,84.15c.21.07.5-.18.41-.39s-.2-.49-.29-.73v0C57,77.49,57.6,69.49,62.93,66.25c4.7-2.86,11.48,1.8,11.58,7.5a18.36,18.36,0,0,0-.5-3.59c1.82,3,3,13.34-2.59,17.46a8.51,8.51,0,0,1-7.11,1.27s.34,2.75.28,3.27a11.78,11.78,0,0,0-3-5.36,8,8,0,0,0-2.39-1.41,18.15,18.15,0,0,0-4.59-1.32A5.92,5.92,0,0,1,58.63,84.15Z"/></g><path class="cls-34" d="M56.46,84.1a10.54,10.54,0,0,1,3.91,1.05,12.59,12.59,0,0,1-1.24-4,17.06,17.06,0,0,1,.7-7.77,9.53,9.53,0,0,1,4.55-5.63,5.83,5.83,0,0,1,6.52.9C72.69,70,73.58,73,74.07,75.09a15.92,15.92,0,0,1-.68,8.56c-.69,2-2.59,4.28-4.81,4.69-1.13.21-3.73.54-5.07-.26a5.7,5.7,0,0,1,.79,3s0,0,0,0a7.26,7.26,0,0,0-2.59-4.62,10.24,10.24,0,0,0-5.25-2.25C56.39,84.2,56.38,84.09,56.46,84.1Z"/><path class="cls-23" d="M62.28,86.47a5.66,5.66,0,0,1,.9,1.07c1.4,1,4.28.82,5.73.28a7.44,7.44,0,0,0,4.43-5.26,15.15,15.15,0,0,0-2-13,5.49,5.49,0,0,0-6.76-1.46c-2.18,1-3.7,3.25-4.49,5.42a16.67,16.67,0,0,0-.91,5.74,12.6,12.6,0,0,0,.66,3.89,8.94,8.94,0,0,0,1,2.29A8.59,8.59,0,0,1,62.28,86.47Z"/><path class="cls-35" d="M59.54,75.21a17.94,17.94,0,0,0,.38,5.17,7.51,7.51,0,0,0,3.89,5.32,6.22,6.22,0,0,0,6.23,0c3.87-2.44,4.3-7.61,3.26-12.18a16.36,16.36,0,0,1,0,9,7.44,7.44,0,0,1-4.43,5.26c-1.45.54-4.33.72-5.73-.28a5.66,5.66,0,0,0-.9-1.07,8.59,8.59,0,0,0-1.47-1.07,8.94,8.94,0,0,1-1-2.29,12.6,12.6,0,0,1-.66-3.89A18.57,18.57,0,0,1,59.54,75.21Z"/><path class="cls-36" d="M72.08,77.66c0,4.48-2.39,8.17-5.45,8.24s-5.57-3.51-5.62-8,2.4-8.17,5.45-8.24S72,73.18,72.08,77.66Z"/><path class="cls-37" d="M72.08,77.66c0,4.48-2.39,8.17-5.45,8.24s-5.57-3.51-5.62-8,2.4-8.17,5.45-8.24S72,73.18,72.08,77.66Z"/><g class="cls-38"><path class="cls-39" d="M70.77,78c0,3.41-1.83,6.22-4.16,6.28s-4.25-2.68-4.28-6.1S64.16,72,66.49,71.9,70.74,74.58,70.77,78Z"/></g><g class="cls-15"><path class="cls-40" d="M70.05,77.68c0,2.71-1.44,4.93-3.28,5s-3.36-2.11-3.39-4.81,1.45-4.92,3.29-5S70,75,70.05,77.68Z"/></g><g class="cls-15"><path class="cls-37" d="M61.08,76.62a11.2,11.2,0,0,0-.07,1.3c.05,4.47,2.56,8,5.62,8s5.49-3.76,5.45-8.24A12.09,12.09,0,0,0,72,76.45C68.69,79,63.84,79.63,61.08,76.62Z"/></g><path class="cls-23" d="M65.72,75.85c-.11,1.39-1,2.45-1.93,2.38S62.17,77,62.28,75.57s1-2.46,1.92-2.38S65.82,74.46,65.72,75.85Z"/><path class="cls-23" d="M64.71,80.2c0,.66-.46,1.17-.91,1.14s-.77-.61-.72-1.27.46-1.17.91-1.14S64.76,79.54,64.71,80.2Z"/><g class="cls-7"><path class="cls-8" d="M90.06,89.15a.28.28,0,0,0-.4-.05,13.46,13.46,0,0,1-2.45,1.61c-.75.29-6.47.79-5.35-1.85.92-2.18,1.86-3.12,1.37-5.55,0,0,0,0,0-.07A4.74,4.74,0,0,1,83,85.78c-.73,1.69-2.32,2.18-3.46,3.47-1.64,1.83-.28,3.78,1.6,5.16a7.56,7.56,0,0,0,1.74.75C85.78,96,91.78,92.83,90.06,89.15Z"/></g><g class="cls-30"><path class="cls-41" d="M87.69,86.93a3.33,3.33,0,0,0-2.75-.85,3,3,0,0,0-2.48,1.77,1.22,1.22,0,0,0,0,.17,1.16,1.16,0,0,0-.23,1.27c.48,1,2.45,1.12,3.37.94a3.63,3.63,0,0,0,2.08-1.08A1.68,1.68,0,0,0,87.69,86.93Z"/></g><g class="cls-30"><path class="cls-41" d="M89.07,87.56c-.46,0-.78.81-.24.84S89.62,87.59,89.07,87.56Z"/></g><path class="cls-9" d="M88.79,91.38a4.7,4.7,0,0,1-7.36,2,5.35,5.35,0,0,1-1.81-2.74c-.48-1.67,1.21-2,2-2.66a4.38,4.38,0,0,0,.52-6.3s0,0,0,0a4.36,4.36,0,0,1,.43,4.77,4.56,4.56,0,0,1-2.11,2,2.28,2.28,0,0,0-.71.4c-1.12,1.15-.54,3.33.58,4.34A5.64,5.64,0,0,0,86,94.55a3.61,3.61,0,0,0,2.86-3.17C88.88,91.32,88.8,91.33,88.79,91.38Z"/><g class="cls-15"><path class="cls-41" d="M94.64,65.86s4.83-4.42,8.65-4.14a6.59,6.59,0,0,1,5.56,3.08c.42.62,2.34.9,2.54-.07a6.54,6.54,0,0,0-6.71-6c-5.31.12-8.87,3.68-10.48,6.1C94.2,64.81,93.32,66.24,94.64,65.86Z"/></g><path class="cls-42" d="M94.74,64.69s4.83-4.41,8.65-4.14A6.61,6.61,0,0,1,109,63.64c.41.62,2.34.9,2.53-.07a6.53,6.53,0,0,0-6.71-6,13.24,13.24,0,0,0-10.47,6.1S93.42,65.08,94.74,64.69Z"/><g class="cls-4"><path class="cls-43" d="M110.12,62.91s.06-2.77-5.93-3.4c-4.81-.51-8.59,3.61-9.89,5.25a1.15,1.15,0,0,0,.44-.07s4.83-4.41,8.65-4.14A6.61,6.61,0,0,1,109,63.64c.41.62,2.34.9,2.53-.07a4.48,4.48,0,0,0-.57-2.22C111.56,63.79,110.12,62.91,110.12,62.91Z"/></g><g class="cls-44"><path class="cls-43" d="M94.66,63.76s5.77-8.58,12.94-5C107.6,58.75,101.29,56.55,94.66,63.76Z"/></g><g class="cls-15"><path class="cls-41" d="M75.1,65.86s-4.83-4.42-8.65-4.14a6.59,6.59,0,0,0-5.56,3.08c-.43.62-2.35.9-2.54-.07a6.54,6.54,0,0,1,6.72-6,13.22,13.22,0,0,1,10.46,6.1S76.42,66.24,75.1,65.86Z"/></g><path class="cls-42" d="M75,64.69s-4.83-4.41-8.64-4.14a6.62,6.62,0,0,0-5.57,3.09c-.42.62-2.34.9-2.53-.07a6.54,6.54,0,0,1,6.71-6c5.31.12,8.86,3.68,10.47,6.1C75.44,63.65,76.32,65.08,75,64.69Z"/><g class="cls-4"><path class="cls-43" d="M59.62,62.91s-.06-2.77,5.93-3.4c4.81-.51,8.59,3.61,9.89,5.25a1.18,1.18,0,0,1-.44-.07s-4.83-4.41-8.64-4.14a6.62,6.62,0,0,0-5.57,3.09c-.42.62-2.34.9-2.53-.07a4.48,4.48,0,0,1,.57-2.22C58.19,63.79,59.62,62.91,59.62,62.91Z"/></g><g class="cls-44"><path class="cls-43" d="M75.08,63.76s-5.78-8.58-12.93-5C62.15,58.75,68.45,56.55,75.08,63.76Z"/></g><g class="cls-7"><path class="cls-8" d="M100.38,95.43a12.83,12.83,0,0,1-3.57,1.14A130.53,130.53,0,0,1,81.17,100c-1.67.25-3.34.38-5,.5-1.09.07-3.49-.11-3.68.66-.16.61,1.07,1,2.36,2.12,2.9,2.54,6.15,4.79,10,4.77a18.68,18.68,0,0,0,6.06-1,12.74,12.74,0,0,0,1.58-.64,17.39,17.39,0,0,0,4.64-3.13,13.86,13.86,0,0,0,1.07-1.23,18.45,18.45,0,0,0,1.48-2.24A15.16,15.16,0,0,0,101,97.07a4,4,0,0,1,.37-.91A2.63,2.63,0,0,1,100.38,95.43Z"/></g><path class="cls-9" d="M102.08,95.84a17.41,17.41,0,0,1-1.7-.78,3,3,0,0,1-.48-.47c-.13-.16-.39,0-.35.2a2.1,2.1,0,0,0,.49.85A12.42,12.42,0,0,1,96,97.17c-2.38.59-4.76,1.21-7.15,1.76-2.16.5-4.33.94-6.53,1.27-1.06.16-2.13.29-3.2.39-1.85.16-3.71.21-5.55.43-.29,0,1,.85,2.21,1.86,2.68,2.25,5.7,4.23,9.32,4.22a18.2,18.2,0,0,0,5.63-.88,15.33,15.33,0,0,0,1.47-.56,15.88,15.88,0,0,0,4.31-2.77,10.16,10.16,0,0,0,1-1.08,16.71,16.71,0,0,0,1.38-2A12.77,12.77,0,0,0,100,97.41c.17-.53.49-1.3.92-1.15a2.22,2.22,0,0,0,.93.22A.35.35,0,0,0,102.08,95.84Z"/><path class="cls-45" d="M84.8,100.44c-2.74.4-9.26.92-9.62.94,3,3.12,6.82,5.24,11.65,4.66a14.88,14.88,0,0,0,8.68-3.89,17,17,0,0,0,3.17-3.76c.34-.63.67-1.26,1-1.89A62.92,62.92,0,0,1,84.8,100.44Z"/><path class="cls-28" d="M132.88,23.47c-1-3.84-4.49-5.54-8.21-6.07a19.31,19.31,0,0,0-8.14.61c-3.37.91-6,2.29-9.56,1.57-4.34-.86-3.81-6-5.3-9.09-.85-1.78-2.24-4.18-3.92-5.32-3-2.07-7.53-1.26-10.32,1-.23.18,0,.51.29.39C90,5.4,93.85,4.73,96.19,6s3.86,4.77,4.5,7.27c.92,3.58,1.84,6.88,5.74,8,3.72,1.08,7-.85,10.42-2,5.74-2,12-.76,15.31,4.45A.39.39,0,0,0,132.88,23.47Z"/><path class="cls-28" d="M140.08,50.6c-5.78-.72-1.35-8.34-3.42-11.92-1.92-3.28-5.72-4.43-9.24-3.82s-6.73.55-8.4-3.12a6.74,6.74,0,0,0-3.16-3.57c-3.91-1.68-7.58-.48-10.55,2.37-.47.45.19,1.12.68.73,2.51-2,5.28-3,8.45-2s2.67,4.45,5,6c3.35,2.24,6.24,1.1,9.92,1,3.09-.08,6.4,2.34,6.48,5.58,0,2.07-.83,4.1-.54,6.2.43,3,2,3.58,4.84,3.22C140.61,51.3,140.47,50.65,140.08,50.6Z"/><path class="cls-28" d="M74.32,8.61a7.52,7.52,0,0,0-8.4.51c-4.21,3.26-2.47,11.3-7.68,13.05C54,23.6,49.35,18.41,45.16,20.65s-4.49,7-4.47,11.15a.31.31,0,0,0,.62,0c.35-2.94.66-5.73,2.62-8.09s4.84-1.57,7.2-.78c2.6.87,5.92,2.23,8.59.65s3.47-3.51,4-6.42c.92-5.12,4.4-9.72,10.2-7.7C74.45,9.66,74.76,8.9,74.32,8.61Z"/><path class="cls-28" d="M73.51,30.14c-2.31.09-3.52-1.79-5.46-2.52a11.43,11.43,0,0,0-5-.86c-4.19.63-4.92,5.11-6.82,8.21-1.68,2.73-5.5.53-7.76.18-2.1-.33-3.16-.11-4.54,1.55-2.31,2.77-2.13,7.76-1.66,11.07,0,.27.43.19.47-.05.56-4.71-.16-12.74,7.4-10.53,2.73.8,5.32,1.35,7.38-1.16a12.6,12.6,0,0,0,1.69-3,12.56,12.56,0,0,1,2.16-3.69c1.35-1.46,3.77-.71,5.35-.39,2.35.48,4.41,3.53,7,1.94C74,30.73,74,30.12,73.51,30.14Z"/><path class="cls-28" d="M46.58,31c-3.53.62-6.23,2.23-7.36,5.89-.86,2.77-.92,6.11-3,8.35-1.51,1.63-4.61,1.59-5.74,3.69-1.32,2.46-2,5.58.38,7.58a9.77,9.77,0,0,1,3.78,6c.39,1.78-.06,3.11,1.09,4.53a.24.24,0,0,0,.4-.22c-.54-1.5-.27-2.89-.23-4.45a9.87,9.87,0,0,0-1-3.89,7.75,7.75,0,0,0-2.22-2.79c-2.77-2.42-1.53-5.6,1.28-7.19s4.69-2.65,5.54-6.09c.57-2.3.67-4.9,1.75-7,1.17-2.31,3.35-3,5.49-3.92C47.07,31.35,46.87,30.92,46.58,31Z"/></g></g></g></svg>