<svg xmlns="http://www.w3.org/2000/svg" viewBox="0 0 195.77 300"><defs><style>.cls-1{isolation:isolate;}.cls-2{fill:#fff;}.cls-3{fill:#acaca7;}.cls-4{fill:#68ac45;}.cls-5{fill:#3e7337;}.cls-15,.cls-20,.cls-27,.cls-32,.cls-6,.cls-7{mix-blend-mode:multiply;}.cls-31,.cls-39,.cls-6{opacity:0.5;}.cls-8{fill:#d6d2c8;}.cls-9{fill:none;}.cls-10{fill:#fcd4b5;}.cls-11{fill:#b98058;}.cls-12{fill:#f1ba93;}.cls-13,.cls-23,.cls-28,.cls-35,.cls-39{mix-blend-mode:screen;}.cls-13,.cls-32{opacity:0.7;}.cls-14{fill:#fcd2b6;}.cls-15{opacity:0.8;}.cls-16{fill:#ec1e24;}.cls-17{fill:#9d1e21;}.cls-18{fill:#333332;}.cls-19{fill:#0b0b0b;}.cls-20{opacity:0.6;}.cls-21{fill:#a33145;}.cls-22{fill:#eb5a61;}.cls-24{fill:#1d1c1a;}.cls-25{fill:#d7d7d7;}.cls-26{fill:#52c0c5;}.cls-27,.cls-28{opacity:0.4;}.cls-29{fill:#edb2cd;}.cls-30{fill:#424342;}.cls-33{fill:#72706f;}.cls-34{fill:#e8f5f7;}.cls-35{opacity:0.3;}.cls-36{fill:#f8b449;}.cls-37{fill:#ca852a;}.cls-38{fill:#dd9529;}.cls-40{fill:#791214;}</style></defs><g class="cls-1"><g id="Layer_2" data-name="Layer 2"><g id="Layer_1-2" data-name="Layer 1"><path class="cls-2" d="M35.39,293.58a124.53,124.53,0,0,1-14.67-17.47c-6.26-8.73-9.06-15-14.42-18a8.14,8.14,0,0,0-4.71-1.27c-1,.89-2.36,3.1.3,8.07,5.47,10.19,17.87,24.38,29.53,32.69,2.55,1.61,4.95,2.35,7.16,1.9C39.07,298.27,38,296.23,35.39,293.58Z"/><path class="cls-3" d="M37.28,300h0a11.4,11.4,0,0,1-6-2.09C20.12,290,7.38,275.9,1.6,265.1c-2.77-5.16-1.33-7.53-.22-8.48l.07-.06h.11a4.43,4.43,0,0,1,.52,0,9.21,9.21,0,0,1,4.38,1.33c3.93,2.17,6.46,6,10,11.34,1.33,2,2.82,4.28,4.57,6.72a123.55,123.55,0,0,0,14.63,17.42c2.73,2.74,3.84,4.86,3.27,6.31l-.07.18-.17,0A7,7,0,0,1,37.28,300ZM1.73,257.2c-.94.86-2,3,.45,7.59,5.74,10.72,18.4,24.71,29.44,32.58a10.73,10.73,0,0,0,5.66,2h0a7.06,7.06,0,0,0,1-.09c.29-1.17-.82-3.09-3.17-5.44a124.33,124.33,0,0,1-14.7-17.51c-1.75-2.44-3.25-4.72-4.58-6.73-3.45-5.25-5.94-9-9.73-11.13A8.28,8.28,0,0,0,1.73,257.2Z"/><path class="cls-2" d="M30.69,285.59c-5.35-5.94-12.69-19.86-19.28-26.12-2.78-2.65-5.09-3.73-6.84-4.1a20.72,20.72,0,0,0-2.14,1,3,3,0,0,0-.84.53,8.14,8.14,0,0,1,4.71,1.27c5.36,3,8.16,9.23,14.42,18a124.53,124.53,0,0,0,14.67,17.47c2.65,2.65,3.68,4.69,3.19,6a6.73,6.73,0,0,0,2.39-1C41.74,295,35.24,290.62,30.69,285.59Z"/><path class="cls-3" d="M38.05,300l.22-.57c.45-1.16-.66-3.15-3.12-5.61a124.33,124.33,0,0,1-14.7-17.51c-1.75-2.44-3.25-4.72-4.58-6.73-3.45-5.25-5.94-9-9.73-11.13a8.65,8.65,0,0,0-4.06-1.26l-.46,0-1,.1.8-.68a2.88,2.88,0,0,1,1-.57,16.9,16.9,0,0,1,2.12-1l.09,0,.11,0a15.23,15.23,0,0,1,7,4.19c3.77,3.58,7.69,9.5,11.48,15.24a104,104,0,0,0,7.82,10.9c1.33,1.46,2.83,2.87,4.26,4.24,3.59,3.39,6.68,6.32,6.11,9l0,.13-.1.09a7.17,7.17,0,0,1-2.51,1ZM2.75,256.56a10.21,10.21,0,0,1,3.71,1.3c3.93,2.17,6.46,6,10,11.34,1.33,2,2.82,4.28,4.57,6.72a123.55,123.55,0,0,0,14.63,17.42c2.39,2.4,3.54,4.33,3.41,5.75a6.22,6.22,0,0,0,1.64-.76c.37-2.29-2.69-5.18-5.93-8.24-1.45-1.37-3-2.79-4.3-4.28a104.08,104.08,0,0,1-7.88-11c-3.77-5.71-7.67-11.61-11.38-15.13a14.74,14.74,0,0,0-6.58-4A16.75,16.75,0,0,0,2.75,256.56Z"/><path class="cls-2" d="M22.29,265.47a22.81,22.81,0,0,1-1.59-1.88c-1.87-2.47-5.9-12.19-16.13-8.22,1.75.37,4.06,1.45,6.84,4.1,3.37,3.19,6.94,8.41,10.33,13.52A8.74,8.74,0,0,0,22.29,265.47Z"/><path class="cls-3" d="M21.76,273.61l-.29-.43c-3.37-5.07-6.93-10.28-10.29-13.48a14.66,14.66,0,0,0-6.67-4l-1.08-.23,1-.39a13.12,13.12,0,0,1,4.72-1c5.94,0,9.17,5.15,10.9,7.92.34.56.65,1,.9,1.36a23.33,23.33,0,0,0,1.56,1.87l.07.11a9.11,9.11,0,0,1-.58,7.81ZM5.68,255.32a16.71,16.71,0,0,1,6,3.91c3.31,3.15,6.79,8.17,10.08,13.13a8.54,8.54,0,0,0,.29-6.72,22.74,22.74,0,0,1-1.56-1.86c-.26-.36-.58-.85-.93-1.42-1.78-2.84-4.76-7.6-10.34-7.6A12,12,0,0,0,5.68,255.32Z"/><path class="cls-4" d="M44.77,279.77C39.94,275,33.16,264.62,27,267.57c-1.44.71-3.15-.4-4.75-2.1a8.74,8.74,0,0,1-.55,7.52c3.24,4.89,6.33,9.69,9,12.6,4.55,5,11.05,9.42,10.28,12.94a12.48,12.48,0,0,0,3.8-4.36C48.45,287.75,49.61,284.5,44.77,279.77Z"/><path class="cls-5" d="M41,298.92a.29.29,0,0,1-.21-.08.37.37,0,0,1-.16-.39c.49-2.28-2.61-5.22-5.9-8.32-1.45-1.37-3-2.79-4.29-4.29a102.89,102.89,0,0,1-7.91-11l-1.08-1.63a.38.38,0,0,1,0-.41,8.45,8.45,0,0,0,.51-7.2.38.38,0,0,1,.64-.39c1.77,1.86,3.2,2.56,4.3,2a5.32,5.32,0,0,1,2.4-.56c4.32,0,8.61,4.87,12.41,9.17,1.2,1.36,2.32,2.64,3.37,3.65,5,4.87,3.84,8.28.06,14.87a12.94,12.94,0,0,1-3.93,4.5A.37.37,0,0,1,41,298.92ZM22.19,273l.95,1.44A101,101,0,0,0,31,285.33c1.32,1.47,2.81,2.87,4.25,4.24,3.21,3,6,5.71,6.19,8.17a13.22,13.22,0,0,0,3-3.76c3.66-6.37,4.69-9.42.07-13.94-1.06-1-2.2-2.32-3.41-3.69-3.68-4.18-7.86-8.92-11.83-8.92a4.73,4.73,0,0,0-2.07.49c-1.15.56-2.56.19-4.17-1.2A8.72,8.72,0,0,1,22.19,273Z"/><g class="cls-6"><path class="cls-4" d="M35.16,286.17c-6-4.09-5.78-5.53-4.82-7.71s.72,1.69,3.86,1.45.47-5.78,3.84-1.45a22.31,22.31,0,0,0,9.87,8.29c.29-2.36-.57-4.47-3.14-7C39.94,275,33.16,264.62,27,267.57c-1.44.71-3.15-.4-4.75-2.1a8.74,8.74,0,0,1-.55,7.52c3.24,4.89,6.33,9.69,9,12.6,4.55,5,11.05,9.42,10.28,12.94a12.48,12.48,0,0,0,3.8-4.36c.19-.32.36-.62.52-.93C42.42,295.48,40.48,289.8,35.16,286.17Z"/></g><path class="cls-2" d="M33.57,278a.65.65,0,0,1-.65-.54c-1.23-7.25-5.92-9.2-6.13-9.28a.66.66,0,0,1,.48-1.23c.24.1,5.59,2.27,7,10.29a.65.65,0,0,1-.54.75Z"/><path class="cls-3" d="M33.57,278.33a1,1,0,0,1-1-.82c-1.2-7.06-5.73-8.95-5.93-9a1,1,0,0,1-.55-1.27,1,1,0,0,1,1.27-.57c.24.09,5.75,2.34,7.15,10.53a1,1,0,0,1-.8,1.15ZM27,267.24a.35.35,0,0,0-.31.21.33.33,0,0,0,.19.42c.2.09,5.06,2.11,6.33,9.53a.33.33,0,0,0,.38.28.35.35,0,0,0,.27-.39c-1.34-7.84-6.52-9.94-6.75-10A.2.2,0,0,0,27,267.24Z"/><path class="cls-2" d="M28.3,277.17a.51.51,0,0,1-.24,0,.65.65,0,0,1-.37-.85,20.47,20.47,0,0,0,1.11-8.9.66.66,0,0,1,1.31-.18,21.15,21.15,0,0,1-1.2,9.56A.65.65,0,0,1,28.3,277.17Z"/><path class="cls-3" d="M28.3,277.51a.89.89,0,0,1-.36-.07,1,1,0,0,1-.56-1.28,19.86,19.86,0,0,0,1.09-8.73,1,1,0,0,1,.84-1.12,1,1,0,0,1,1.12.84,21.31,21.31,0,0,1-1.21,9.73A1,1,0,0,1,28.3,277.51ZM29.45,267a.33.33,0,0,0-.32.37A20.38,20.38,0,0,1,28,276.4a.34.34,0,0,0,.19.43.32.32,0,0,0,.42-.18,21,21,0,0,0,1.18-9.41A.34.34,0,0,0,29.45,267Z"/><g class="cls-7"><path class="cls-8" d="M22.29,265.47c-.43-.46-.86-1-1.29-1.51,0,3.81-1.7,3.41-5.1-2.3a19.55,19.55,0,0,0-7.57-7.19,13.25,13.25,0,0,0-3.76.9c1.75.37,4.06,1.45,6.84,4.1,3.37,3.19,6.94,8.41,10.33,13.52A8.74,8.74,0,0,0,22.29,265.47Z"/></g><g class="cls-7"><path class="cls-8" d="M22.29,265.47c-.13-.14-.26-.28-.38-.43a5,5,0,0,1-1,3.24c-.82.83-1.39-.59-5.08-5.08-3.23-3.94-5.73-6.46-9.76-8.31a12,12,0,0,0-1.47.48c1.75.37,4.06,1.45,6.84,4.1,3.37,3.19,6.94,8.41,10.33,13.52A8.74,8.74,0,0,0,22.29,265.47Z"/></g><g class="cls-7"><path class="cls-8" d="M35.39,293.58a124.53,124.53,0,0,1-14.67-17.47c-6.26-8.73-9.06-15-14.42-18a11.33,11.33,0,0,0-1.9-.86v.06c11.32,6.7,21.09,30.43,16.26,28.46s-15.59-15.9-15.59-15.9l-.09.15c6.3,9.44,16.63,20.59,26.44,27.58,2.55,1.61,4.95,2.35,7.16,1.9C39.07,298.27,38,296.23,35.39,293.58Z"/></g><g class="cls-7"><path class="cls-8" d="M35.39,293.58A116.53,116.53,0,0,1,26.66,284a.31.31,0,0,1,0,.1c8.13,12.46,3.61,12.92-2.94,7.2-.62-.55-1.23-1-1.81-1.5a91.5,91.5,0,0,0,9.5,7.88c2.55,1.61,4.95,2.35,7.16,1.9C39.07,298.27,38,296.23,35.39,293.58Z"/></g><path class="cls-2" d="M167.54,249.33c-2.47-11.21-.83-20.93-6.1-22.73-.18-.07-.36-.11-.53-.16a7.48,7.48,0,0,1,2,4.94c.16,5.43,1,10.38,2.47,18.94,1.35,7.82,5.44,26-11.33,30.32h.29C163.41,280.64,172.65,271.09,167.54,249.33Z"/><path class="cls-3" d="M154.36,281h-.19l-2.49-.07,2.31-.58c15.7-4,12.72-20.76,11.29-28.8l-.21-1.14c-1.52-8.75-2.31-13.56-2.47-19a7,7,0,0,0-1.94-4.72l-.78-.85,1.26.35.41.11c3.69,1.27,4.14,5.92,4.79,12.36a90.36,90.36,0,0,0,1.52,10.62c2.66,11.33,1.64,20.71-2.87,26.41A13.41,13.41,0,0,1,154.36,281Zm7.53-53.83a7.62,7.62,0,0,1,1.36,4.22c.16,5.39,1,10.19,2.47,18.91l.2,1.13c1.38,7.74,4.16,23.33-9,28.65a12.86,12.86,0,0,0,7.56-4.8c4.39-5.52,5.36-14.71,2.75-25.84a89.3,89.3,0,0,1-1.53-10.7C165.11,232.88,164.67,228.57,161.89,227.14Z"/><path class="cls-4" d="M166.69,265.56c.56-5.7-.66-11.6-1.29-15.24-1.48-8.56-2.31-13.51-2.47-18.94a7.48,7.48,0,0,0-2-4.94c-5.1-1.4-10.06,2-11.5,3.28s-1.76,22.67-1.76,22.67a69.54,69.54,0,0,1-.82,12.78A18.09,18.09,0,0,1,166.69,265.56Z"/><path class="cls-5" d="M166.69,265.94a.43.43,0,0,1-.22-.06,18,18,0,0,0-9.92-3.11,18.9,18.9,0,0,0-9.53,2.72.36.36,0,0,1-.4,0,.4.4,0,0,1-.17-.39,69.73,69.73,0,0,0,.81-12.7c.06-3.61.38-21.6,1.9-23a15.26,15.26,0,0,1,9.25-3.71,9.69,9.69,0,0,1,2.59.34.37.37,0,0,1,.18.11,7.76,7.76,0,0,1,2.13,5.18c.17,5.39,1,10.18,2.46,18.9l.21,1.13c.63,3.59,1.6,9,1.09,14.21a.42.42,0,0,1-.22.31ZM156.55,262a18.62,18.62,0,0,1,9.81,2.91,54.37,54.37,0,0,0-1.14-13.38l-.2-1.13c-1.51-8.76-2.31-13.57-2.48-19a7,7,0,0,0-1.84-4.61,9.21,9.21,0,0,0-2.29-.29c-4.73,0-8.58,3.37-8.74,3.52-.85.77-1.5,12-1.63,22.38a73.72,73.72,0,0,1-.7,12.05A19.37,19.37,0,0,1,156.55,262Z"/><path class="cls-2" d="M146.83,265.17c0,.1,0,.21-.05.31-1.15,6.52-1.47,15,7.29,15.16,9-2.29,12-8.56,12.62-15.08A18.09,18.09,0,0,0,146.83,265.17Z"/><path class="cls-3" d="M154.11,281h-.05a7.85,7.85,0,0,1-6.22-2.6c-2.7-3.28-2.08-8.95-1.39-12.93l.07-.42.14-.13a19.56,19.56,0,0,1,9.89-2.83,18.59,18.59,0,0,1,10.31,3.24l.17.1,0,.21c-.82,8.21-5.15,13.39-12.86,15.35Zm-7-15.6,0,.17c-.67,3.86-1.28,9.33,1.25,12.41A7.21,7.21,0,0,0,154,280.3c7.32-1.88,11.46-6.79,12.3-14.58a18,18,0,0,0-9.78-3A18.87,18.87,0,0,0,147.13,265.37Z"/><g class="cls-6"><path class="cls-4" d="M165.4,250.32c-1.48-8.56-2.31-13.51-2.47-18.94a7.48,7.48,0,0,0-2-4.94,9.18,9.18,0,0,0-1.9-.31c4.13,4.22,2,15,3.59,22.32,1.75,8.13,1.32,13.63-2.64,11.86s-1.53-3.06-2.92-11.49c-.79-4.82-4.94-1.08-3.86-4,2.39-6.82.51-13.88-.65-17.14a15.93,15.93,0,0,0-3.12,2.06c-1.47,1.32-1.76,22.67-1.76,22.67a69.54,69.54,0,0,1-.82,12.78,18.09,18.09,0,0,1,19.86.39C167.25,259.86,166,254,165.4,250.32Z"/></g><path class="cls-2" d="M147.52,260.71a.62.62,0,0,1-.32-.09.66.66,0,0,1-.26-.89c.13-.24,3.25-5.87,8.21-5.87h.12a.66.66,0,0,1,.65.68.64.64,0,0,1-.67.64c-4.24-.08-7.13,5.12-7.15,5.18A.67.67,0,0,1,147.52,260.71Z"/><path class="cls-3" d="M147.52,261a1,1,0,0,1-.47-.11,1,1,0,0,1-.4-1.35c.14-.25,3.36-6,8.5-6h.12a1,1,0,0,1,1,1,1,1,0,0,1-1,1h-.12c-4,0-6.74,5-6.77,5A1,1,0,0,1,147.52,261Zm7.75-6.84h-.12c-4.76,0-7.8,5.47-7.92,5.69a.33.33,0,0,0,.13.45.34.34,0,0,0,.45-.13c0-.05,2.92-5.34,7.34-5.34h.11a.32.32,0,0,0,.33-.32A.34.34,0,0,0,155.27,254.19Z"/><path class="cls-2" d="M155.5,258.89a.72.72,0,0,1-.36-.11,15.14,15.14,0,0,0-7.23-2,.67.67,0,0,1-.64-.69.63.63,0,0,1,.68-.62,16.1,16.1,0,0,1,7.92,2.24.66.66,0,0,1,.19.92A.65.65,0,0,1,155.5,258.89Z"/><path class="cls-3" d="M155.5,259.22a.93.93,0,0,1-.54-.17,14.88,14.88,0,0,0-7.06-2,1,1,0,0,1-1-1,1,1,0,0,1,1-1,16.78,16.78,0,0,1,8.15,2.31,1,1,0,0,1,.43.63,1,1,0,0,1-.16.74A1,1,0,0,1,155.5,259.22Zm-7.56-3.46a.33.33,0,0,0-.34.32.33.33,0,0,0,.32.34,15.6,15.6,0,0,1,7.4,2.08.33.33,0,0,0,.46-.09.32.32,0,0,0-.09-.45,15.85,15.85,0,0,0-7.75-2.2Z"/><path class="cls-2" d="M147.84,255.16a.75.75,0,0,1-.26,0,.66.66,0,0,1-.35-.86c.08-.19,1.94-4.51,6.28-5.84a.64.64,0,0,1,.82.43.67.67,0,0,1-.43.83c-3.75,1.14-5.44,5-5.45,5.09A.65.65,0,0,1,147.84,255.16Z"/><path class="cls-3" d="M147.84,255.5a1,1,0,0,1-.91-1.38c.08-.19,2-4.65,6.49-6a1,1,0,0,1,1.22.66A1,1,0,0,1,154,250c-3.57,1.09-5.22,4.87-5.24,4.9A1,1,0,0,1,147.84,255.5Zm5.86-6.79-.09,0c-4.19,1.28-6,5.47-6.08,5.65a.35.35,0,0,0,.18.43.33.33,0,0,0,.43-.17s1.76-4.09,5.65-5.28a.3.3,0,0,0,.2-.16.36.36,0,0,0,0-.25A.33.33,0,0,0,153.7,248.71Z"/><g class="cls-7"><path class="cls-8" d="M146.83,265.17c0,.1,0,.21-.05.31a2,2,0,0,0,0,.24c2.91-1.37,7.86-3.14,10.28-.73,3.08,3.09,1,13.34-6.53,14.94a9.93,9.93,0,0,0,3.58.71c9-2.29,12-8.56,12.62-15.08A18.09,18.09,0,0,0,146.83,265.17Z"/></g><path class="cls-9" d="M154.07,280.64a8,8,0,0,0,3-1A20.8,20.8,0,0,1,154.07,280.64Z"/><g class="cls-7"><path class="cls-8" d="M157.08,279.62c6.64-2.81,9-8.33,9.61-14.06a18.91,18.91,0,0,0-8.17-3.07l.14.05C165.57,264.45,163.4,276,157.08,279.62Z"/></g><g class="cls-7"><path class="cls-8" d="M167.54,249.33c-2.47-11.21-.83-20.93-6.1-22.73-.18-.07-.36-.11-.53-.16a7.48,7.48,0,0,1,2,4.94c.16,5.43,1,10.38,2.47,18.94,1,5.72,3.43,17-1.9,24.34l1.23.78C168.63,270.53,170.52,262,167.54,249.33Z"/></g><g class="cls-7"><path class="cls-8" d="M161.44,226.6c-.18-.07-.36-.11-.53-.16a7.48,7.48,0,0,1,2,4.94A85,85,0,0,0,164,241.89l2.34-.1C165.46,234,165.48,228,161.44,226.6Z"/></g><path class="cls-10" d="M138.45,136.92s16.76-4.91,33.29-4c5.8.56,6.59.56,7,4.25.44,2.34,3.8,2.56,4.91,2.9s2.46,1,2.79,2.24,4.36.21,3.68-2.58c2.46.89,2.8-.78,3.47-2.23s2-2.35,1.78-4.24a12.75,12.75,0,0,0-1.67-4.25,2.62,2.62,0,0,0-1.25-3.35c.54-.77-1.21-3.66-3.12-4.64.44-.66-4.12-5.16-10.88-1.36-4.61,3-5.35,4.7-13.59,4.28s-23.32.9-29.74,3.55C137.63,130.94,138.45,136.92,138.45,136.92Z"/><path class="cls-11" d="M187.47,143.13c-.69,0-1.17-.27-1.31-.75-.32-1.17-1.74-1.76-2.57-2-.18-.06-.44-.1-.73-.17-1.5-.31-4-.83-4.41-3-.4-3.36-.86-3.41-6.4-3.94l-.34,0c-1.32-.08-2.7-.11-4.1-.11a118.22,118.22,0,0,0-29.07,4.12l-.36.11-.06-.39c0-.06-.83-5.95-3.23-9.3l-.23-.34.37-.16c5.56-2.28,17.9-3.64,26.61-3.64,1.18,0,2.29,0,3.28.07.8,0,1.53.07,2.2.07,5,0,6.55-1.1,9.17-2.92.6-.42,1.27-.89,2-1.37a11,11,0,0,1,5.44-1.56c3,0,5.26,1.57,5.84,2.64a1.37,1.37,0,0,1,.13.37,7.53,7.53,0,0,1,3.13,4,1.82,1.82,0,0,1,0,.72,2.89,2.89,0,0,1,1.2,3.45,12.48,12.48,0,0,1,1.64,4.25,4.34,4.34,0,0,1-1.07,3.2,6.79,6.79,0,0,0-.73,1.22c-.09.17-.16.34-.24.51-.43,1-.92,2.16-2.32,2.16a3,3,0,0,1-.81-.11,2.5,2.5,0,0,1-.54,1.71A3.42,3.42,0,0,1,187.47,143.13Zm-19.86-10.67c1.41,0,2.8,0,4.14.12l.36,0c5.53.53,6.53.63,7,4.5.32,1.7,2.47,2.15,3.89,2.45.32.06.59.12.79.18,1.16.36,2.64,1.06,3,2.46.05.21.37.27.66.27a2.74,2.74,0,0,0,2-1,1.9,1.9,0,0,0,.35-1.69l-.15-.59.58.2a3.43,3.43,0,0,0,1.1.23c.92,0,1.25-.67,1.72-1.76.08-.18.15-.36.23-.53a8.78,8.78,0,0,1,.8-1.31,3.7,3.7,0,0,0,1-2.76,12.88,12.88,0,0,0-1.63-4.11l-.08-.14.05-.16a2.26,2.26,0,0,0-1.1-2.93l-.33-.18.22-.3a.7.7,0,0,0,0-.51,6.9,6.9,0,0,0-3-3.66l-.33-.16.21-.31c0-.32-2-2.34-5.34-2.34a10.34,10.34,0,0,0-5.1,1.46c-.75.48-1.4.93-2,1.35-2.72,1.89-4.37,3-9.54,3-.68,0-1.43,0-2.23,0-1,0-2.08-.08-3.25-.08-8.46,0-20.33,1.28-26,3.44,2,3,2.83,7.55,3.05,8.88A118.7,118.7,0,0,1,167.61,132.46Z"/><path class="cls-11" d="M187.48,127.4a7.54,7.54,0,0,1,1.07-.05,11.81,11.81,0,0,1,2.31.3,7.57,7.57,0,0,1,2.18.88,2.25,2.25,0,0,1,.36.27,2,2,0,0,1,.25.24,2.48,2.48,0,0,1,.17.25l-.25-.14a2.15,2.15,0,0,0-.3-.14c-.11,0-.25-.09-.39-.14-.58-.19-1.38-.39-2.17-.57s-1.62-.4-2.22-.58S187.48,127.4,187.48,127.4Z"/><path class="cls-11" d="M187.48,123.36a6.05,6.05,0,0,1,.88.11,9.19,9.19,0,0,1,1.82.58c.32.14.64.3.93.46s.53.35.74.51.36.35.47.44a2,2,0,0,1,.17.19,1.35,1.35,0,0,1-.24-.08l-.59-.22c-.48-.18-1.11-.43-1.74-.7a15.65,15.65,0,0,1-1.69-.84C187.78,123.56,187.48,123.36,187.48,123.36Z"/><path class="cls-11" d="M186.16,120.47a2.35,2.35,0,0,1,.5-.26,2.86,2.86,0,0,1,1.2-.11,3.17,3.17,0,0,1,.64.18,1.84,1.84,0,0,1,.5.3,2.09,2.09,0,0,1,.37.43s-.24,0-.53-.09-.33,0-.5-.08-.37,0-.56-.08l-1.09-.17c-.15,0-.29-.07-.38-.08Z"/><path class="cls-11" d="M186.49,134l-.05.32c0,.1,0,.22,0,.35a2.54,2.54,0,0,0,.06.45,1.74,1.74,0,0,0,.14.48,3,3,0,0,0,.28.45c.16.13.27.27.44.4s.37.28.55.39c.37.26.76.53,1.1.82a2.82,2.82,0,0,1,.47.44,2.43,2.43,0,0,1,.38.48,1.82,1.82,0,0,1,.21.45,1,1,0,0,1,.09.37c0,.22,0,.33,0,.33l-.13-.29a1.25,1.25,0,0,0-.18-.3,2.24,2.24,0,0,0-.3-.33,3.7,3.7,0,0,0-.41-.34,5.19,5.19,0,0,0-.49-.35c-.34-.23-.75-.47-1.14-.74-.2-.14-.36-.29-.55-.43a4.43,4.43,0,0,1-.51-.55,2.5,2.5,0,0,1-.29-.65,2.21,2.21,0,0,1-.06-.61,2.4,2.4,0,0,1,.22-.86A1.28,1.28,0,0,1,186.49,134Z"/><path class="cls-11" d="M191.67,134.07s-.31-.07-.75-.13a5.35,5.35,0,0,0-.74-.09,2.41,2.41,0,0,0-.38,0,1.28,1.28,0,0,0-.35.06.73.73,0,0,0-.28.17c-.1.06-.15.17-.23.24a2.27,2.27,0,0,1-.17.31c0,.12-.07.24-.1.33a5.42,5.42,0,0,0-.14.53c0,.13-.06.22-.06.22s0-.08-.07-.22a2.6,2.6,0,0,1-.11-.57,1.85,1.85,0,0,1,0-.4,2,2,0,0,1,.12-.46c.1-.15.15-.34.31-.45a1.32,1.32,0,0,1,.49-.31,2.35,2.35,0,0,1,1.82.26A2.73,2.73,0,0,1,191.67,134.07Z"/><path class="cls-11" d="M186.32,134.56a3.11,3.11,0,0,1,.4-.19,5.58,5.58,0,0,1,.81-.22c.31,0,.59-.07.84-.08a2.63,2.63,0,0,1,.43,0,2.05,2.05,0,0,1-.29.35,1.69,1.69,0,0,1-.37.24,2.53,2.53,0,0,1-.49.14,2.12,2.12,0,0,1-.92-.05A1.35,1.35,0,0,1,186.32,134.56Z"/><path class="cls-9" d="M183.85,118.15a7.91,7.91,0,0,1,3,.58A4.09,4.09,0,0,0,183.85,118.15Z"/><g class="cls-7"><path class="cls-10" d="M183.85,118.15a10.3,10.3,0,0,0-4.68,1.15,4.34,4.34,0,0,0,.48-.14A16,16,0,0,1,183.85,118.15Z"/></g><g class="cls-7"><path class="cls-10" d="M195.41,133.25a12.75,12.75,0,0,0-1.67-4.25,2.62,2.62,0,0,0-1.25-3.35c.54-.77-1.21-3.66-3.12-4.64.21-.32-.75-1.54-2.56-2.28a1.23,1.23,0,0,1,.38.59c.32,1.31-3.2,1.48-1.48,1.48,2.22,0,3.77.49,4.67,1.55s.74,2-1.47,1.15-4.84-.82.49,1.07c4.26,1.39,4.1,3.28,1.8,2.78-2.95-.48-6.47.09-3.27.58,3.6.66,6.31,1,6.22,3.69s-4.09,1.64-7.54,1.07c-1.06,2.13-.82,3.19,1.32,4.83s2.62,2.95,1.72,3.86-2.05.65-2.7-.91-2.14-1.88-3.94-2.29-2.72-.82-2.72-3-.57-4.35-6.39-5.17c-13-2-31.41,2.36-32.06-1.27-.36-2,1.57-3,3.42-3.62a46.27,46.27,0,0,0-10.1,2.39c2.47,3.46,3.29,9.44,3.29,9.44s16.76-4.91,33.29-4c5.8.56,6.59.56,7,4.25.44,2.34,3.8,2.56,4.91,2.9s2.46,1,2.79,2.24,4.36.21,3.68-2.58c2.46.89,2.8-.78,3.47-2.23S195.65,135.14,195.41,133.25Z"/></g><g class="cls-6"><g class="cls-7"><path class="cls-12" d="M142.48,133.9c-2,.73-1.59-1.74-3.48-5.51-.54-1.08-.35-1.73,0-2.1a26.12,26.12,0,0,0-3.83,1.19c2.47,3.46,3.29,9.44,3.29,9.44a120.66,120.66,0,0,1,17.56-3.4,5.91,5.91,0,0,0-1-.19C149.88,132.89,144.52,133.18,142.48,133.9Z"/></g></g><g class="cls-13"><path class="cls-14" d="M150.37,125.57s11.36-1.17,19.45,0C173.22,126,162.16,122.78,150.37,125.57Z"/></g><path class="cls-10" d="M64.69,131.41s-22.38-5.82-38.57-24.53c1.65-3.29,0-9.74-.88-12.65s-2.53-3.16-2.53-3.16-4.05-7.45-8.09-7.71c-3,.12-5.19,5.82-5.19,6.83-2.28-1.53-5.69-.76-5,4.55-2.42-.88-2.16,2.4-2,3.42,0,0-2.78.27-1.29,5.26,1.2,3.5,4.13,3.84,5.05.68a.79.79,0,0,0,.63.23s1.6,12.5,9.51,9.8c3.78,4.42,29.94,28.34,47.28,30.62C64,136.54,64.69,131.41,64.69,131.41Z"/><path class="cls-11" d="M63.84,145.13l-.35,0c-17.14-2.25-42.88-25.51-47.35-30.57a6.71,6.71,0,0,1-2,.33c-5.8,0-7.41-8.54-7.68-10.21l-.15,0a2.66,2.66,0,0,1-2.36,2c-1.31,0-2.52-1.18-3.18-3.08-.63-2.12-.6-3.7.07-4.72A2.23,2.23,0,0,1,2,97.9a4.62,4.62,0,0,1,.55-3.16A1.49,1.49,0,0,1,4,94.29a5.54,5.54,0,0,1,1-4.12,3,3,0,0,1,2.29-1,4.25,4.25,0,0,1,1.9.48c.41-1.84,2.49-6.5,5.42-6.62,4,.25,7.75,6.73,8.32,7.76.49.14,1.86.8,2.63,3.34,1,3.34,2.46,9.34,1,12.69,15.92,18.3,38,24.22,38.26,24.27l.29.08,0,.28c0,.06-.71,5.22-1.16,13.32ZM16.35,113.74l.15.18c4,4.61,29.56,27.93,46.72,30.46.4-6.87,1-11.55,1.11-12.73-2.65-.76-23.37-7.11-38.45-24.56l-.15-.16.1-.2c1.61-3.22-.1-9.74-.92-12.4s-2.2-2.92-2.26-2.93l-.15,0-.08-.15c0-.07-4-7.29-7.83-7.53-2.69.11-4.83,5.52-4.83,6.5v.61l-.52-.34a2.88,2.88,0,0,0-3.76.15c-.73.82-1,2.24-.78,4.09l.07.54L4.26,95c-.56-.2-.95-.17-1.22.13a4.19,4.19,0,0,0-.37,2.94l.05.34-.34,0a1.64,1.64,0,0,0-1,.72c-.38.58-.69,1.77,0,4.13.54,1.59,1.55,2.62,2.55,2.62.81,0,1.51-.72,1.86-1.93l.14-.48.39.32a.59.59,0,0,0,.35.16l.35-.07,0,.35c0,.09,1.35,9.89,7.06,9.89a6,6,0,0,0,2-.36Z"/><g class="cls-7"><path class="cls-10" d="M27,107.82l-.14.13s8.67,10.11,16.25,14.83,13,6.48,11.76,10.33-6.7,2.75-19.56-6.7-15.71-13-14.72-15.83c-2.31,2.43-8.13,4.07-10-1.53s4.57-9.26,6.65-6.52,3.88,1.79,3.88,1.79c-6-4.65.47-10-2-9.76S11.86,93.9,11.51,92s.83-3,2.85-1.54c2.59,1.91,4.58.65,7.8.71a9.72,9.72,0,0,1,1,.09,1.68,1.68,0,0,0-.46-.18s-4.05-7.45-8.09-7.71a2.65,2.65,0,0,0-1.11.29c.34.89-1.17,3.89-1.9,5.2-1,1.77-.79,4.78,1.11,7.73s-.39,4.86-2,1.84A24.51,24.51,0,0,1,9,89.92a3.74,3.74,0,0,0-1.71-.41A16.79,16.79,0,0,0,10,99.61c1.58,1.77-3.77,3-5.71-4.91a1.78,1.78,0,0,0-.79-.09A8.81,8.81,0,0,0,6.74,102c1.78,1.44-3.31,3.87-4.47-3.82a1.78,1.78,0,0,0-.83.44c0,.78.06,4,2.5,5.88.81.65-.28,1.88-2.07.51,1.39,1.92,3.48,1.68,4.24-.9a.79.79,0,0,0,.63.23s1.6,12.5,9.51,9.8c3.78,4.42,29.94,28.34,47.28,30.62.46-8.21,1.16-13.34,1.16-13.34S43.07,125.78,27,107.82Z"/></g><g class="cls-7"><path class="cls-12" d="M64.69,131.41a73.27,73.27,0,0,1-11.37-4.36,14,14,0,0,0,1.56.77c7.29,3.05,6.62,3.58,6.49,6.5s-.53,7.14-2.78,6.87c-6-.7-14.64-4.92-16.36-5.79,7.25,4.7,14.88,8.51,21.3,9.35C64,136.54,64.69,131.41,64.69,131.41Z"/></g><path class="cls-11" d="M23.09,91.25s-.08-.1-.32-.11a9.48,9.48,0,0,0-1,0c-.43,0-.94.08-1.54.14a17.31,17.31,0,0,1-2,.11,13.78,13.78,0,0,1-2.4-.2,8.14,8.14,0,0,1-2.59-.86l-.3-.15a1,1,0,0,0-.27-.11.48.48,0,0,0-.43.08,1.48,1.48,0,0,0-.43,1,4.41,4.41,0,0,0,.71,2.59A4,4,0,0,0,14.84,95a28.44,28.44,0,0,1,2.82.65,1.39,1.39,0,0,1,.37.23.72.72,0,0,1,.23.52,1.07,1.07,0,0,1-.16.44l-.17.29a9.54,9.54,0,0,0-.49,1.14,6.37,6.37,0,0,0-.4,2.25,3.79,3.79,0,0,0,.5,1.85,3.53,3.53,0,0,0,1,1.1l.47.31a3.5,3.5,0,0,1,.38.18,2.62,2.62,0,0,1,.32.15,3.31,3.31,0,0,0-.33-.12,3,3,0,0,1-.4-.15,3.67,3.67,0,0,1-.51-.27,3.47,3.47,0,0,1-1.16-1.07,3.72,3.72,0,0,1-.65-2,6.6,6.6,0,0,1,.3-2.41,9.27,9.27,0,0,1,.48-1.26,2.3,2.3,0,0,0,.23-.49s-.07-.12-.26-.21c-.78-.27-1.78-.34-2.72-.57A4.49,4.49,0,0,1,12,94.17a4.9,4.9,0,0,1-.76-3,1.93,1.93,0,0,1,.7-1.49,1,1,0,0,1,.92-.14,1.51,1.51,0,0,1,.37.14l.32.18a9.15,9.15,0,0,0,2.4.88,13.18,13.18,0,0,0,2.32.3c1.44.08,2.69,0,3.55,0a6.09,6.09,0,0,1,1,.07C23,91.14,23.12,91.23,23.09,91.25Z"/><path class="cls-11" d="M9.37,89.93a7.72,7.72,0,0,0-.11,1.17,9.14,9.14,0,0,0,0,1.17,10.64,10.64,0,0,0,.13,1.15,8.21,8.21,0,0,0,.23,1.14l.14.57a5.05,5.05,0,0,0,.18.55l.38,1.1c.13.36.33.7.48,1l.5,1v0l.37.49a3.58,3.58,0,0,0,.43.44,2.8,2.8,0,0,0,.47.38,2.39,2.39,0,0,0,.52.29,3,3,0,0,0,.55.18,2.6,2.6,0,0,0,.56,0,1.4,1.4,0,0,0,.53-.15,1.91,1.91,0,0,0,.46-.3,2.36,2.36,0,0,0,.34-.47,1.74,1.74,0,0,0,.21-.55,3.12,3.12,0,0,0,.11-.61,4.42,4.42,0,0,0,0-.63l-.07-.63-.12-.63c-.1-.42-.26-.83-.38-1.25a11.56,11.56,0,0,1,.55,1.19l.21.63.14.66a3.85,3.85,0,0,1,.05.67,2.61,2.61,0,0,1-.07.69,2.25,2.25,0,0,1-.2.67,3.55,3.55,0,0,1-.38.62,2.36,2.36,0,0,1-.6.45,2,2,0,0,1-.71.22,2.62,2.62,0,0,1-.74,0,2.73,2.73,0,0,1-.69-.2,3.2,3.2,0,0,1-.63-.34,4.53,4.53,0,0,1-.55-.43,5.52,5.52,0,0,1-.48-.49l-.42-.55h0v0l-.5-1.09A10.93,10.93,0,0,1,9.78,97l-.34-1.15a2.94,2.94,0,0,1-.16-.58l-.1-.59A10,10,0,0,1,9,93.48c0-.41-.07-.81,0-1.2a9.4,9.4,0,0,1,.12-1.19A5,5,0,0,1,9.37,89.93Z"/><path class="cls-11" d="M4.22,94.55l.18.55c.12.35.31.83.56,1.42.13.28.26.6.43.91s.34.64.55,1,.42.65.65,1a8.93,8.93,0,0,0,.79.94,7.65,7.65,0,0,0,.89.82,5.6,5.6,0,0,0,1,.65,3.47,3.47,0,0,0,1,.32,1.91,1.91,0,0,0,1.91-1.1,2.22,2.22,0,0,0,.18-.54v.15a1.7,1.7,0,0,1-.07.43,2.07,2.07,0,0,1-1,1.26,2.28,2.28,0,0,1-1.09.27A2.89,2.89,0,0,1,9,102.31a5,5,0,0,1-.57-.29,3.77,3.77,0,0,1-.52-.37,6.85,6.85,0,0,1-1-.87,9.78,9.78,0,0,1-.82-1,12.37,12.37,0,0,1-.65-1.08,12.49,12.49,0,0,1-.82-2A9.41,9.41,0,0,1,4.22,94.55Z"/><path class="cls-11" d="M2.35,98.16s0,.18.12.5.23.76.41,1.28a10,10,0,0,0,.78,1.69,5.39,5.39,0,0,0,.59.85,3.66,3.66,0,0,0,.73.74,5,5,0,0,0,.87.57l.47.18.12,0h.08l.26,0a1.5,1.5,0,0,0,.44,0,1.12,1.12,0,0,0,.38-.12,1.36,1.36,0,0,0,.55-.54,1,1,0,0,0,.13-.33,1,1,0,0,0,.09-.33,2.33,2.33,0,0,0,0-.58c0-.31,0-.5,0-.5s.07.17.17.49a2.38,2.38,0,0,1,.09.6,1.23,1.23,0,0,1,0,.38,1.08,1.08,0,0,1-.1.43,1.63,1.63,0,0,1-.64.8,1.51,1.51,0,0,1-.53.24,1.51,1.51,0,0,1-.58.06H6.28l-.13,0-.57-.18a6,6,0,0,1-1-.63,5.1,5.1,0,0,1-.81-.87,5.46,5.46,0,0,1-.6-1A7.23,7.23,0,0,1,2.52,100,8,8,0,0,1,2.35,98.16Z"/><path class="cls-11" d="M26.08,106.82a.84.84,0,0,1-.12.39,1.33,1.33,0,0,1-.25.35c-.11.11-.23.2-.35.3a1.62,1.62,0,0,1-.43.19,2.25,2.25,0,0,1-.41.06,2,2,0,0,1-.41,0,3.12,3.12,0,0,1,.27-.33,5.86,5.86,0,0,1,.62-.47,3,3,0,0,1,.36-.19c.13,0,.22-.11.33-.15a1.86,1.86,0,0,0,.28-.09Z"/><path class="cls-11" d="M16.14,114.13l.1-.1c.06,0,.14-.16.24-.25s.24-.21.37-.3a4.13,4.13,0,0,1,.42-.31c.14-.11.3-.2.43-.29a3.68,3.68,0,0,1,.4-.25,4.39,4.39,0,0,1,.43-.23,3,3,0,0,1-.15.49,1.56,1.56,0,0,1-.3.42,2.3,2.3,0,0,1-.43.39,2.42,2.42,0,0,1-1,.42A1.59,1.59,0,0,1,16.14,114.13Z"/><path class="cls-11" d="M14.72,87.24a1.89,1.89,0,0,1,.33.42,3.36,3.36,0,0,1,.23.5,5.11,5.11,0,0,1,.13.59,2.17,2.17,0,0,1,0,.62,3.22,3.22,0,0,1-.12.53,2.93,2.93,0,0,1-.19.5,2.72,2.72,0,0,1-.19-.51,3.13,3.13,0,0,1-.08-.49c0-.18-.07-.37-.1-.56a3.64,3.64,0,0,1,0-.56,2.84,2.84,0,0,1,0-.5c0-.16,0-.29,0-.38A.92.92,0,0,1,14.72,87.24Z"/><g class="cls-13"><path class="cls-14" d="M27.67,109.92s9.87,10.16,17.82,15C50.51,127.9,36.66,122.74,27.67,109.92Z"/></g><g class="cls-13"><path class="cls-14" d="M12.86,90.4s3.05,1.77,8.26.89C22.69,91.19,16.7,93.25,12.86,90.4Z"/></g><g class="cls-13"><path class="cls-14" d="M24.56,95.42s2.36,9.13.2,11.29C27,105.83,26.23,99.44,24.56,95.42Z"/></g><path class="cls-2" d="M134.58,125.41c-2.72-2.3-3-1.48-4.7,1.07A52.48,52.48,0,0,0,105,134c-1.06-1.74-2.79-1.49-4.94-.09,1.82,2.64,3.13,3,.25,5-3.47,2.06-9.07,7.58-9.07,7.58s-2.63-5.36-3.37-7.58a5.11,5.11,0,0,1,.63-4.2s-1.69-1.93-3.62.33c-2.14-3.05-3.5-1.12-8.25-2.71s-7.9-2.59-9.71-3.84-2.75-.22-3.17,4c-.57,5.66-2,16.51,0,16.62s.34-1.47,3.62-.9,8.93,1,8.93,1a43.13,43.13,0,0,0-.45,16.39c-4.75,5.88-9.87,9-10.28,14.22-2.21.16-2.81,2.08-1,4.45.63-2.22,3.79-3.21,11.1,1.91,9.23,6.49,21.64,9.94,21.64,9.94,7.54.81,21.58,2.53,32.3-5.27,0,0,7.83-5.39,6.31-9.29s-7.48-8.52-7.48-8.52,0-18.27-4.19-27.17a74.19,74.19,0,0,0,11.13-5.11s2.31,3.13,3.71-1.73S138.54,129.53,134.58,125.41Z"/><path class="cls-3" d="M108.21,197.18a93.9,93.9,0,0,1-10.42-.7l-.49-.06c-.17,0-12.62-3.55-21.79-10-4.31-3-6.84-3.67-8.19-3.67a2.23,2.23,0,0,0-2.41,1.58l-.17.63-.4-.52c-1.06-1.37-1.41-2.72-1-3.71a2.32,2.32,0,0,1,1.9-1.25c.4-3.57,3-6.24,6-9.32,1.4-1.44,2.84-2.93,4.27-4.69a44,44,0,0,1,.4-16c-1.32-.11-5.82-.51-8.58-1a6.53,6.53,0,0,0-1.12-.11c-.65,0-.76.16-.92.38s-.45.7-1.54.64a1,1,0,0,1-.66-.35c-1.18-1.38-.65-7.28.11-14.25.08-.86.17-1.66.25-2.37.33-3.33,1-4.75,2.24-4.75a2.58,2.58,0,0,1,1.43.55c1.68,1.15,4.55,2.11,8.9,3.55l.74.26a14.81,14.81,0,0,0,4.27.74c1.52.07,2.63.13,3.9,1.76a2.52,2.52,0,0,1,3.84,0l.16.2-.14.21a4.84,4.84,0,0,0-.59,3.91c.61,1.81,2.54,5.83,3.16,7.13,1.26-1.22,5.79-5.52,8.8-7.31,1-.68,1.45-1.16,1.52-1.57s-.33-1-.93-1.72c-.28-.36-.6-.78-.94-1.27l-.18-.28.27-.19c2.4-1.57,4.11-1.56,5.22-.08a53.31,53.31,0,0,1,24.61-7.38l.12-.18c.9-1.41,1.43-2.25,2.38-2.25.63,0,1.38.42,2.59,1.43,4.42,4.62,6,9.29,4.63,13.94-.56,2-1.37,3-2.4,3h0a2.51,2.51,0,0,1-1.7-.91A74.42,74.42,0,0,1,124.74,146c3.82,8.53,4,25,4.06,26.82.9.7,6,4.88,7.46,8.56,1.59,4.09-6.1,9.46-6.43,9.68C124.21,195.19,117.14,197.18,108.21,197.18ZM67.32,182.11c2.11,0,5,1.27,8.57,3.79,9.08,6.37,21.41,9.84,21.54,9.88l.43,0a93.1,93.1,0,0,0,10.35.69c8.78,0,15.73-1.94,21.24-5.93.08-.07,7.59-5.31,6.2-8.93-1.47-3.77-7.33-8.32-7.38-8.37l-.13-.1V173c0-.19,0-18.3-4.16-27l-.16-.34.37-.11a73.84,73.84,0,0,0,11.05-5.09l.26-.14.17.23a2.11,2.11,0,0,0,1.36.87h0c.69,0,1.3-.87,1.76-2.49,1.28-4.41-.22-8.87-4.45-13.28-1-.85-1.68-1.25-2.13-1.25s-1,.63-1.83,1.93l-.31.49h-.18a52.55,52.55,0,0,0-24.71,7.45l-.28.19-.18-.3c-.85-1.37-2.18-1.39-4.19-.15.25.36.5.68.72,1,.68.87,1.16,1.51,1.06,2.23s-.63,1.2-1.82,2c-3.4,2-9,7.48-9,7.54l-.32.32-.2-.4c-.11-.22-2.66-5.4-3.4-7.63a5.33,5.33,0,0,1,.53-4.24,2,2,0,0,0-1.23-.49,2.29,2.29,0,0,0-1.71,1l-.28.33-.24-.35c-1.19-1.69-2.06-1.74-3.64-1.82a15,15,0,0,1-4.45-.77l-.75-.25c-4.39-1.47-7.3-2.44-9-3.64a2,2,0,0,0-1.06-.44c-.79,0-1.31,1.37-1.59,4.15-.07.73-.16,1.54-.25,2.4-.54,5-1.35,12.46-.26,13.74a.27.27,0,0,0,.2.12c.67,0,.79-.11,1-.35a1.47,1.47,0,0,1,1.46-.68,8.3,8.3,0,0,1,1.24.13c3.21.56,8.84,1,8.89,1l.39,0-.1.38a43.61,43.61,0,0,0-.44,16.25l0,.15-.1.12c-1.49,1.84-3,3.44-4.4,4.85-3.09,3.2-5.53,5.72-5.81,9.19l0,.28-.28,0A1.75,1.75,0,0,0,64,181a2.77,2.77,0,0,0,.55,2.53A3,3,0,0,1,67.32,182.11Z"/><path class="cls-10" d="M87.87,138.93c.74,2.22,3.37,7.58,3.37,7.58s5.6-5.52,9.07-7.58c2.88-2,1.57-2.39-.25-5l-.08-2.55-11.29.9-.19,2.48A5.11,5.11,0,0,0,87.87,138.93Z"/><path class="cls-11" d="M91.15,147.06l-.2-.4c-.11-.22-2.66-5.4-3.4-7.63a5.36,5.36,0,0,1,.63-4.41l.21-2.66,11.91-1,.08,2.8c.32.45.62.83.87,1.17.68.87,1.16,1.51,1.06,2.23s-.63,1.2-1.82,2c-3.4,2-9,7.48-9,7.54ZM89,132.57l-.18,2.27,0,.08a4.84,4.84,0,0,0-.59,3.91c.61,1.81,2.54,5.83,3.16,7.13,1.26-1.22,5.79-5.52,8.8-7.31,1-.68,1.45-1.16,1.52-1.57s-.33-1-.93-1.72c-.28-.36-.6-.78-.94-1.27l-.05-.09-.08-2.3Z"/><g class="cls-7"><path class="cls-10" d="M100.06,133.9l-.08-2.55-11.29.9-.19,2.48a5.11,5.11,0,0,0-.63,4.2c.18.55.49,1.3.83,2.11.09-.15.21-.34.29-.29a5.71,5.71,0,0,0,1.89.64c.09-1.28,0-3,.77-3.92a3.06,3.06,0,0,1,1.75-.88,8.84,8.84,0,0,1,3.67-.44c1.67.36,2,1.89,1.86,3.7.48-.35.95-.66,1.38-.92C103.19,137,101.88,136.54,100.06,133.9Z"/></g><g class="cls-15"><path class="cls-10" d="M95.19,135.23a36.84,36.84,0,0,0,5.24-.81l-.37-.52-.08-2.55-11.29.9-.19,2.48a3.94,3.94,0,0,0-.38.7A57.07,57.07,0,0,0,95.19,135.23Z"/></g><path class="cls-16" d="M134.58,125.41c-2.72-2.3-3-1.48-4.7,1.07A52.48,52.48,0,0,0,105,134c-1.06-1.74-2.79-1.49-4.94-.09,1.82,2.64,3.13,3,.25,5-3.47,2.06-9.07,7.58-9.07,7.58s-2.63-5.36-3.37-7.58a5.11,5.11,0,0,1,.63-4.2s-1.69-1.93-3.62.33c-2.14-3.05-3.5-1.12-8.25-2.71s-7.9-2.59-9.71-3.84-2.75-.22-3.17,4c-.57,5.66-2,16.51,0,16.62s.34-1.47,3.62-.9,8.93,1,8.93,1a43.13,43.13,0,0,0-.45,16.39s8.42-1.61,19.73,3.67c10.57,4.93,24.39,6,32.89,3.36,0-2.7-.35-18.63-4.19-26.76a74.19,74.19,0,0,0,11.13-5.11s2.31,3.13,3.71-1.73S138.54,129.53,134.58,125.41Z"/><path class="cls-17" d="M117.87,174.35a54.73,54.73,0,0,1-22.42-4.81,38.84,38.84,0,0,0-16.29-3.86,20.29,20.29,0,0,0-3.26.22l-.32.07-.06-.33a43.7,43.7,0,0,1,.37-16.15c-1.32-.11-5.82-.51-8.58-1a6.53,6.53,0,0,0-1.12-.11c-.65,0-.76.16-.92.38s-.45.7-1.54.64a1,1,0,0,1-.66-.35c-1.18-1.38-.65-7.28.11-14.25.08-.86.17-1.66.25-2.37.33-3.33,1-4.75,2.24-4.75a2.58,2.58,0,0,1,1.43.55c1.68,1.15,4.55,2.11,8.9,3.55l.74.26a14.81,14.81,0,0,0,4.27.74c1.52.07,2.63.13,3.9,1.76a2.52,2.52,0,0,1,3.84,0l.16.2-.14.21a4.84,4.84,0,0,0-.59,3.91c.61,1.81,2.54,5.83,3.16,7.13,1.26-1.22,5.79-5.52,8.8-7.31,1-.68,1.45-1.16,1.52-1.57s-.33-1-.93-1.72c-.28-.36-.6-.78-.94-1.27l-.18-.28.27-.19c2.4-1.57,4.11-1.56,5.22-.08a53.31,53.31,0,0,1,24.61-7.38l.12-.18c.9-1.41,1.43-2.25,2.38-2.25.63,0,1.38.42,2.59,1.43,4.42,4.62,6,9.29,4.63,13.94-.56,2-1.37,3-2.4,3h0a2.51,2.51,0,0,1-1.7-.91A74.42,74.42,0,0,1,124.74,146c3.7,8.23,4,23.54,4,26.57v.25l-.24.07A36.62,36.62,0,0,1,117.87,174.35ZM79.16,165a39.39,39.39,0,0,1,16.56,3.91,54.14,54.14,0,0,0,22.15,4.75,36.54,36.54,0,0,0,10.26-1.31c0-3.56-.45-18.57-4.15-26.39l-.16-.34.37-.11a73.84,73.84,0,0,0,11.05-5.09l.26-.14.17.23a2.11,2.11,0,0,0,1.36.87h0c.69,0,1.3-.87,1.76-2.49,1.28-4.41-.22-8.87-4.45-13.28-1-.85-1.68-1.25-2.13-1.25s-1,.63-1.83,1.93l-.31.49h-.18a52.55,52.55,0,0,0-24.71,7.45l-.28.19-.18-.3c-.85-1.37-2.18-1.39-4.19-.15.25.36.5.68.72,1,.68.87,1.16,1.51,1.06,2.23s-.63,1.2-1.82,2c-3.4,2-9,7.48-9,7.54l-.32.32-.2-.4c-.11-.22-2.66-5.4-3.4-7.63a5.33,5.33,0,0,1,.53-4.24,2,2,0,0,0-1.23-.49,2.29,2.29,0,0,0-1.71,1l-.28.33-.24-.35c-1.19-1.69-2.06-1.74-3.64-1.82a15,15,0,0,1-4.45-.77l-.75-.25c-4.39-1.47-7.3-2.44-9-3.64a2,2,0,0,0-1.06-.44c-.79,0-1.31,1.37-1.59,4.15-.07.73-.16,1.54-.25,2.4-.54,5-1.35,12.46-.26,13.74a.27.27,0,0,0,.2.12c.67,0,.79-.11,1-.35a1.47,1.47,0,0,1,1.46-.68,8.3,8.3,0,0,1,1.24.13c3.21.56,8.84,1,8.89,1l.39,0-.1.38a43.77,43.77,0,0,0-.5,15.93A25,25,0,0,1,79.16,165Z"/><path class="cls-18" d="M155,23.58c-10.88-10.88-19-8.07-19-8.07s3.29-4,2.3-4.78-11,4.45-11,4.45-1-9.81-2.8-10.72c-.33-.16-1.15,6.43-1.15,6.43S113.39-2,99.25.71,39.51,12.9,27.71,43.17A24.77,24.77,0,0,0,33.16,39c.52-.64.85-1,.85-1a8.36,8.36,0,0,1-.85,1C30.56,42.27,23,53.09,26.93,65.56c1.18-5.5,3.93-5.9,3.93-5.9S22.53,73.51,44.44,85.38a66.15,66.15,0,0,0-1.5-15.84c-1.84-7.51,2.9-14.4,2.9-14.4s3.53.62,5.67-.15,8.27-10.25,18.82-13.62c-6.58,6-7.49,8.88-7.49,8.88s7.34,1.68,10.7,1.68A140.88,140.88,0,0,1,92.37,38.62s-8.1,6.88-10,11.32c5.82,2.14,9.49,1.84,9.49,1.84s14.55-10,16.69-12.41C106.3,43.51,98,51,98,51s5.21,2,10.11.31S121.91,40.6,121.91,40.6s-2.3,6.28-4,8.58c3.2-.62,7.34-6.43,7.34-6.43a18.24,18.24,0,0,0,5.36,12.39,45.54,45.54,0,0,1,1.07-8s6.43,10.86,7.34,12.7l3.83.3.31-3.82s2.6,10.56,1.83,20.51c-.76,6.27-.55,7.83-.55,7.83,7.25,4.46,9.89,4.29,9.89,4.29s3.62-3.13,2.14-9.73c2.8,3.14,2.63,4.46,2.63,4.46s3.14-8.74-1.31-14.34c4,3.13,3.79,5.11,3.79,5.11s4.78-11.7-.5-19.45c4.13,3.63,4.78,5,4.78,5s.66-6.09-1.81-10.22A13,13,0,0,1,169,54.24S169.52,38.57,155,23.58Z"/><path class="cls-19" d="M154.32,89.33c-.5,0-3.3-.21-10-4.33l-.14-.08,0-.16c0-.06-.21-1.68.55-7.92a72.64,72.64,0,0,0-1.35-18.2l-.15,1.91-4.35-.34-.08-.17c-.77-1.53-5.46-9.5-6.91-12a46.16,46.16,0,0,0-.89,7.07l0,.75-.54-.52a18.82,18.82,0,0,1-5.4-11.7c-1.26,1.61-4.37,5.32-7,5.82l-.83.15.5-.66a40.63,40.63,0,0,0,3.39-7.08c-2.53,2.47-8.87,8.37-12.82,9.72a13.49,13.49,0,0,1-4.4.7,18.27,18.27,0,0,1-5.93-1l-.49-.19.4-.37a96.43,96.43,0,0,0,9-9.33C102.24,45.1,92.59,51.71,92.1,52l-.07.05h-.09s-.19,0-.55,0a27.12,27.12,0,0,1-9.08-1.87L82,50.13l.13-.32c1.19-2.86,4.87-6.68,7.43-9.1A138.42,138.42,0,0,0,73.76,52.18l-.09.08h-.13c-3.35,0-10.48-1.62-10.78-1.69l-.35-.08.1-.34c.05-.12.91-2.7,6.43-7.94-6.49,2.53-11.21,7.34-14.12,10.3C53.33,54,52.34,55,51.62,55.3a8.77,8.77,0,0,1-2.91.41A18.19,18.19,0,0,1,46,55.5c-.7,1.11-4.37,7.33-2.75,14a66.63,66.63,0,0,1,1.51,15.93v.53l-.47-.26C36.09,81.22,31.12,76,29.52,70.14a14.77,14.77,0,0,1,.64-9.81c-.84.54-2.18,1.9-2.91,5.3L27,66.85l-.37-1.19C23.35,55.3,28,46,31.11,41.29a30.32,30.32,0,0,1-3.22,2.15l-.82.48.34-.88C32.93,28.88,49.86,10,99.18.38a21,21,0,0,1,4-.38c10.37,0,18,7.86,19.94,10.1.76-6,1-6,1.37-6l.16,0c1.73.87,2.69,8.34,2.93,10.49,1.79-.92,8.56-4.35,10.41-4.35a.94.94,0,0,1,.57.16c.93.79-.63,3.15-1.68,4.51a12.45,12.45,0,0,1,1.75-.13c3,0,9.2,1.11,16.58,8.5,14.45,14.92,14.12,30.73,14.11,30.89l0,1.11-.57-1a13.42,13.42,0,0,0-3.86-3.81c1.89,4.07,1.36,9.21,1.34,9.45l-.12,1.11-.5-1a18.61,18.61,0,0,0-3.18-3.46c3.61,7.65-.33,17.5-.51,17.94l-.81,2,.18-2.14s0-1.26-2-3.31c2.65,5.51.25,12.35.13,12.68l-1,2.81.37-3s0-1-1.76-3.26c.84,5.87-2.33,8.69-2.47,8.82l-.09.07Zm-9.53-4.81c6.15,3.76,8.87,4.12,9.44,4.14.53-.52,3.23-3.58,2-9.31l-.28-1.24.84,1a13.55,13.55,0,0,1,2.41,3.44c.65-2.5,1.77-8.67-1.59-12.9l-1.78-2.24L158,69.13a11.21,11.21,0,0,1,3.64,4.23c1-3,3.4-11.92-.82-18.12l-1.47-2.16,2,1.72a37.13,37.13,0,0,1,4.27,4.26c.08-1.84,0-6.06-1.81-9.11l-.56-.93,1,.46a13.15,13.15,0,0,1,4.45,3.68c-.2-3.76-1.81-16.86-13.89-29.35-7.22-7.22-13.2-8.3-16.12-8.3a8.61,8.61,0,0,0-2.49.31l-1.11.38.76-.9c1.64-2,2.73-4,2.34-4.31,0,0,0,0-.14,0-1.61,0-8.15,3.25-10.54,4.51l-.43.22,0-.48c-.34-3.45-1.27-9-2.36-10.23-.23.91-.63,3.54-.94,6l-.09.78-.49-.62C123,11,114.91.66,103.21.66a19.75,19.75,0,0,0-3.9.38C72.57,6.23,38.74,17.62,28.4,42.37a23.47,23.47,0,0,0,4.53-3.56c.5-.63.84-1,.84-1l.51.41a7.55,7.55,0,0,1-.88,1c-2.34,2.9-9.58,13.15-6.49,25,1.33-4.53,3.79-4.94,3.91-5l.68-.09-.35.59a14,14,0,0,0-1,10.15c1.52,5.56,6.22,10.56,14,14.85a65.65,65.65,0,0,0-1.51-15.22C40.77,62.06,45.53,55,45.58,55l.12-.17.2,0a19.78,19.78,0,0,0,2.81.22,8,8,0,0,0,2.69-.37,13,13,0,0,0,3-2.62c3.17-3.22,8.46-8.62,15.88-11l1.45-.45-1.13,1C65.39,46.3,63.74,49.1,63.3,50A68.34,68.34,0,0,0,73.42,51.6,141.38,141.38,0,0,1,92.21,38.33l.38.54c-.08.06-7.69,6.55-9.72,10.88a24.36,24.36,0,0,0,8.94,1.7c1.12-.77,14.52-10,16.54-12.29l2-2.33-1.5,2.71c-2,3.65-8.5,9.75-10.22,11.34a18.53,18.53,0,0,0,5.17.78A13.05,13.05,0,0,0,108,51c4.77-1.64,13.55-10.55,13.65-10.64l1.07-1.09-.53,1.43a59.28,59.28,0,0,1-3.5,7.87c2.9-1.29,6.25-6,6.29-6l.62-.87,0,1.06a18.11,18.11,0,0,0,4.73,11.63,47.06,47.06,0,0,1,1-7.27l.18-.8L132,47c.26.43,6.12,10.34,7.28,12.56l3.3.26.45-5.52.49,2c0,.11,2.6,10.73,1.84,20.62A48,48,0,0,0,144.79,84.52Z"/><g class="cls-20"><path class="cls-18" d="M155,23.58c-10.88-10.88-19-8.07-19-8.07s3.29-4,2.3-4.78-11,4.45-11,4.45-1-9.81-2.8-10.72c-.33-.16-1.15,6.43-1.15,6.43S113.39-2,99.25.71A187.69,187.69,0,0,0,70.89,8.29c33-11.18,42-3.16,47.42,4.85-7.4-7.39-22.19-3.32-24.15,3.93,13-10.27,27,2.26,28.37,5.28,7.7-6.64,17.52.3,17.52.3s0-1.51-2.87-3.62c20.23,2.87,26.57,26.72,26.57,26.72A56.19,56.19,0,0,0,155,40.31a29.87,29.87,0,0,1,7.4,13.44l-8.77-8.15s1.52,5.44,3.19,12.08C152.28,54.05,149.7,47,149.7,47l-.14,5.43s-.31-1.06-2.72-6.64c1.51,6-1.06,12.22-1.21,11.77s-2.72-11.32-2.72-11.32-.9,1.21-2.25,9.66c-4.38-5.13-8.76-18.72-8.76-18.72s-2.27,3.63-2.87,10.42c-2.42-6.19.15-14.49.15-14.49l-5.73,7.7s.14-1.82,3.47-7.7c-1.06,1.35-14.35,14-16.61,14.49a14.7,14.7,0,0,1-5.29-.3s8.16-9.21,8.16-15.55c-7,8.15-20.68,16.75-20.68,16.75l-5.59-1.2a135.5,135.5,0,0,1,15.7-15.71C84,39.11,74.69,48,74.69,48l-5.59-1.2s2.27-4.09,10.72-10.88C66.23,39.25,56,46.2,52.2,50.58a46.16,46.16,0,0,0-7.1-.3c2.57-6.8,9.51-11,9.51-11l-8.45,2.57s.3-2.11,9.2-7.1c-15.24,3.33-16,11.33-14,12.24C31.81,59.79,38,74.13,38,74.13c-7.85-8.46-6.95-21,1.35-32.76C33,45.75,29.26,53.45,29.26,53.45,30,40.31,44,29.44,44,29.44a24.6,24.6,0,0,0-8.75,6.8A25.16,25.16,0,0,1,37.77,28,45.27,45.27,0,0,0,27.71,43.17,24.77,24.77,0,0,0,33.16,39c.52-.64.85-1,.85-1a8.36,8.36,0,0,1-.85,1C30.56,42.27,23,53.09,26.93,65.56c1.18-5.5,3.93-5.9,3.93-5.9S22.53,73.51,44.44,85.38a66.15,66.15,0,0,0-1.5-15.84c-1.84-7.51,2.9-14.4,2.9-14.4s3.53.62,5.67-.15,8.27-10.25,18.82-13.62c-6.58,6-7.49,8.88-7.49,8.88s7.34,1.68,10.7,1.68A140.88,140.88,0,0,1,92.37,38.62s-8.1,6.88-10,11.32c5.82,2.14,9.49,1.84,9.49,1.84s14.55-10,16.69-12.41C106.3,43.51,98,51,98,51s5.21,2,10.11.31S121.91,40.6,121.91,40.6s-2.3,6.28-4,8.58c3.2-.62,7.34-6.43,7.34-6.43a18.24,18.24,0,0,0,5.36,12.39,45.54,45.54,0,0,1,1.07-8s6.43,10.86,7.34,12.7l3.83.3.31-3.82s2.6,10.56,1.83,20.51c-.76,6.27-.55,7.83-.55,7.83,7.25,4.46,9.89,4.29,9.89,4.29s3.62-3.13,2.14-9.73c2.8,3.14,2.63,4.46,2.63,4.46s3.14-8.74-1.31-14.34c4,3.13,3.79,5.11,3.79,5.11s4.78-11.7-.5-19.45c4.13,3.63,4.78,5,4.78,5s.66-6.09-1.81-10.22A13,13,0,0,1,169,54.24S169.52,38.57,155,23.58Z"/></g><path class="cls-10" d="M144.44,84.85s1.11-5.12,4.47-5.92,7.29.3,6.91,6.76-7.69,11.06-10.92,9.52C144.31,94.69,144.28,85.39,144.44,84.85Z"/><path class="cls-11" d="M144.44,84.85a11.06,11.06,0,0,1,1.81-4.07,5.58,5.58,0,0,1,1.66-1.51,5.41,5.41,0,0,1,2.15-.64,6.66,6.66,0,0,1,2.27.12,4.54,4.54,0,0,1,2,1.08,5.68,5.68,0,0,1,1.27,1.94,8,8,0,0,1,.45,2.26,10.86,10.86,0,0,1,0,1.14c0,.21,0,.36,0,.6l-.07.54-.06.56c0,.19-.09.38-.14.57a5.81,5.81,0,0,1-.33,1.12,10.13,10.13,0,0,1-1,2,12.32,12.32,0,0,1-3.17,3.27,6.54,6.54,0,0,1-1,.62,8.15,8.15,0,0,1-1,.5,8,8,0,0,1-2.19.64,4.38,4.38,0,0,1-2.29-.3h0a1.34,1.34,0,0,1-.23-.69c0-.23-.06-.44-.09-.66,0-.43-.06-.87-.08-1.3,0-.88,0-1.75-.07-2.62s0-1.74,0-2.6l0-1.31C144.38,85.71,144.38,85.27,144.44,84.85Zm0,0c-.05.42,0,.86-.05,1.29v1.31c0,.86,0,1.74.06,2.6s.06,1.73.14,2.61c0,.42.08.86.14,1.29,0,.21.06.42.1.62a1.61,1.61,0,0,0,.18.54l0,0a4.08,4.08,0,0,0,2.11.19,7.89,7.89,0,0,0,2.05-.7,5.94,5.94,0,0,0,1-.52,9.55,9.55,0,0,0,.9-.62A11.82,11.82,0,0,0,152.61,92a10.53,10.53,0,0,0,1.33-1.72c.21-.29.36-.63.54-.94s.3-.66.44-1a5.66,5.66,0,0,0,.32-1c0-.17.1-.34.14-.51l.07-.55.07-.56,0-.53a6.76,6.76,0,0,0,0-1.1l0-.54L155.4,83a6.18,6.18,0,0,0-.25-1,4.87,4.87,0,0,0-1.07-1.82,5,5,0,0,0-4-1.28,5.57,5.57,0,0,0-2.13.53,5.32,5.32,0,0,0-1.65,1.45A11.26,11.26,0,0,0,144.44,84.85Z"/><g class="cls-6"><g class="cls-7"><path class="cls-10" d="M144.44,84.85s1.11-5.12,4.47-5.92a5.88,5.88,0,0,1,5,.75,4.55,4.55,0,0,0-4.47.53c-3.8,2.87-1.4,4.42,1,3.91s3.8,1.59.58,4.76c-2.3,2.27-3.35,5.6-1.18,5.61-1.82,1-3.69,1.32-4.94.72C144.31,94.69,144.28,85.39,144.44,84.85Z"/></g></g><path class="cls-11" d="M148.81,85.62A9.55,9.55,0,0,0,145,90.89c0,.1.08.09.12,0,.43-.71.9-1.43,1.41-2.11.06.22.3.4.48.56a1.86,1.86,0,0,0,.7.26,1.19,1.19,0,0,0,.83.09s0,0,0-.07l-.07-.11s-.05,0-.05,0l0,.1a.49.49,0,0,0-.25-.28,4.7,4.7,0,0,0-.52-.39c-.17-.11-.27-.28-.43-.4s-.34-.13-.41-.24l.44-.52a9.13,9.13,0,0,1,1.79-1.57c.66-.48,2.13-.56,2.21.61,0,.06.07,0,.09,0C151.78,85.23,149.66,85.11,148.81,85.62Z"/><path class="cls-10" d="M44.66,86.44s-.37-4.19-3-5.16-5.84-.49-6.19,4.71,5.05,9.6,7.78,8.69C43.79,94.33,44.73,86.9,44.66,86.44Z"/><path class="cls-11" d="M44.66,86.44a9.32,9.32,0,0,0-1.1-3.39,3.77,3.77,0,0,0-2.82-1.93,3.56,3.56,0,0,0-4.31,2,7.37,7.37,0,0,0-.49,1.66,5,5,0,0,0-.12.86l0,.42v.9l.06.42a4.86,4.86,0,0,0,.16.83,8.55,8.55,0,0,0,.58,1.63,9.81,9.81,0,0,0,.88,1.5,11,11,0,0,0,1.14,1.32A10.15,10.15,0,0,0,40,93.71a6.63,6.63,0,0,0,1.56.76,3.31,3.31,0,0,0,1.68.08h0a1.44,1.44,0,0,0,.18-.39c0-.17.11-.33.15-.5.09-.33.17-.67.24-1,.15-.68.28-1.37.39-2.06l.3-2.07.13-1C44.6,87.14,44.66,86.8,44.66,86.44Zm0,0c0,.36,0,.71-.07,1.06l-.11,1-.26,2.08-.3,2.07c-.06.35-.11.69-.19,1,0,.17-.08.34-.13.52a1.19,1.19,0,0,1-.27.54v0h0a3.82,3.82,0,0,1-1.87,0,6.94,6.94,0,0,1-1.71-.71A8.88,8.88,0,0,1,38.24,93,9.54,9.54,0,0,1,37,91.65a9.43,9.43,0,0,1-1-1.58,6.65,6.65,0,0,1-.63-1.75,4.79,4.79,0,0,1-.16-.92,4.24,4.24,0,0,1,0-.93V86c0-.19,0-.32,0-.48a7.19,7.19,0,0,1,.15-.91A5.84,5.84,0,0,1,36,82.87a4.22,4.22,0,0,1,1.21-1.44A3.49,3.49,0,0,1,39,80.77a5.14,5.14,0,0,1,1.84.14,4.27,4.27,0,0,1,1.66.73A4.64,4.64,0,0,1,43.62,83,9,9,0,0,1,44.66,86.44Z"/><g class="cls-6"><g class="cls-7"><path class="cls-10" d="M44.66,86.44s-.37-4.19-3-5.16a4.75,4.75,0,0,0-4,.1,3.68,3.68,0,0,1,3.53.87c2.74,2.68.67,3.67-1.22,3s-3.19.9-.94,3.75c1.61,2,2.11,4.8.38,4.59a4.7,4.7,0,0,0,3.88,1.07C43.79,94.33,44.73,86.9,44.66,86.44Z"/></g></g><path class="cls-11" d="M41.09,86.63a7.68,7.68,0,0,1,2.56,4.59c0,.08-.08.06-.1,0a19.46,19.46,0,0,0-.91-1.83c-.07.18-.28.29-.44.4a1.75,1.75,0,0,1-.6.14.91.91,0,0,1-.65,0,0,0,0,0,1,0-.06.27.27,0,0,1,.07-.08s0,0,0,0l0,.08c.06-.13.12-.13.23-.2a3.57,3.57,0,0,1,.45-.27c.15-.06.24-.2.39-.27s.28-.07.34-.15l-.29-.46a7.26,7.26,0,0,0-1.27-1.43c-.48-.45-1.65-.66-1.83.27,0,0-.06,0-.07,0C38.75,86,40.47,86.14,41.09,86.63Z"/><path class="cls-10" d="M145,76.88c.77-9.95-1.83-20.51-1.83-20.51l-.31,3.82-3.83-.3c-.91-1.84-7.34-12.7-7.34-12.7a45.54,45.54,0,0,0-1.07,8,18.24,18.24,0,0,1-5.36-12.39s-4.14,5.81-7.34,6.43c1.67-2.3,4-8.58,4-8.58s-8.87,9-13.77,10.72S98,51,98,51s8.27-7.5,10.57-11.64c-2.14,2.46-16.69,12.41-16.69,12.41s-3.67.3-9.49-1.84c1.85-4.44,10-11.32,10-11.32A140.88,140.88,0,0,0,73.54,51.93c-3.36,0-10.7-1.68-10.7-1.68s.91-2.91,7.49-8.88C59.78,44.74,53.65,54.23,51.51,55s-5.67.15-5.67.15S41.1,62,42.94,69.54a66.15,66.15,0,0,1,1.5,15.84c-1.64,10.37-3.28,26.52,18.3,37.9,22.08,9.72,24.05,14.17,44,7.08,21.59-8.9,39.72-13.84,37.74-45.65C144.47,84.71,144.26,83.15,145,76.88Z"/><path class="cls-11" d="M91.19,134.16h0c-6,0-10.75-2.26-18.63-6-2.86-1.35-6.09-2.88-10-4.59-22.67-11.93-20-29-18.49-38.25a66.49,66.49,0,0,0-1.5-15.71C40.77,62.06,45.53,55,45.58,55l.12-.17.2,0a19.78,19.78,0,0,0,2.81.22,8,8,0,0,0,2.69-.37,13,13,0,0,0,3-2.62c3.17-3.22,8.46-8.62,15.88-11l1.45-.45-1.13,1C65.39,46.3,63.74,49.1,63.3,50A68.34,68.34,0,0,0,73.42,51.6,141.38,141.38,0,0,1,92.21,38.33l.38.54c-.08.06-7.69,6.55-9.72,10.88a24.36,24.36,0,0,0,8.94,1.7c1.12-.77,14.52-10,16.54-12.29l2-2.33-1.5,2.71c-2,3.65-8.5,9.75-10.22,11.34a18.53,18.53,0,0,0,5.17.78A13.05,13.05,0,0,0,108,51c4.77-1.64,13.55-10.55,13.65-10.64l1.07-1.09-.53,1.43a59.28,59.28,0,0,1-3.5,7.87c2.9-1.29,6.25-6,6.29-6l.62-.87,0,1.06a18.11,18.11,0,0,0,4.73,11.63,47.06,47.06,0,0,1,1-7.27l.18-.8L132,47c.26.43,6.12,10.34,7.28,12.56l3.3.26.45-5.52.49,2c0,.11,2.6,10.73,1.84,20.62-.75,6.12-.56,7.74-.56,7.76,1.87,29.9-13.78,36.22-33.57,44.23q-2.16.85-4.36,1.76C100,133.12,95.28,134.16,91.19,134.16ZM46,55.5c-.7,1.11-4.37,7.33-2.75,14a66.63,66.63,0,0,1,1.51,15.93c-1.43,9.07-4.1,25.89,18.12,37.59,3.85,1.71,7.09,3.23,9.94,4.59,7.82,3.69,12.53,5.93,18.36,5.93,4,0,8.62-1,15.44-3.45,1.44-.6,2.91-1.19,4.34-1.77,19.55-7.9,35-14.15,33.17-43.54,0,0-.21-1.66.55-7.9a72.64,72.64,0,0,0-1.35-18.2l-.15,1.91-4.35-.34-.08-.17c-.77-1.53-5.46-9.5-6.91-12a46.16,46.16,0,0,0-.89,7.07l0,.75-.54-.52a18.82,18.82,0,0,1-5.4-11.7c-1.26,1.61-4.37,5.32-7,5.82l-.83.15.5-.66a40.63,40.63,0,0,0,3.39-7.08c-2.53,2.47-8.87,8.37-12.82,9.72a13.49,13.49,0,0,1-4.4.7,18.27,18.27,0,0,1-5.93-1l-.49-.19.4-.37a96.43,96.43,0,0,0,9-9.33C102.24,45.1,92.59,51.71,92.1,52l-.07.05h-.09s-.19,0-.55,0a27.12,27.12,0,0,1-9.08-1.87L82,50.13l.13-.32c1.19-2.86,4.87-6.68,7.43-9.1A138.42,138.42,0,0,0,73.76,52.18l-.09.08h-.13c-3.35,0-10.48-1.62-10.78-1.69l-.35-.08.1-.34c.05-.12.91-2.7,6.43-7.94-6.49,2.53-11.21,7.34-14.12,10.3C53.33,54,52.34,55,51.62,55.3a8.77,8.77,0,0,1-2.91.41A18.19,18.19,0,0,1,46,55.5Z"/><g class="cls-7"><path class="cls-10" d="M132,82.79c-1.38,1.12-.57,2.61-1,4a23,23,0,0,1-1,2.4c-1.07,2.28-1.08,4.68-1.8,7-.9,2.93-2.7,5.57-5.7,6.63a23.06,23.06,0,0,1-6.75,1c-2.42.11-4.84.33-7.27.21-4-.21-9.06-1-11.92-4.13-2.48-2.72-3.12-6.71-5.8-9.23C87.72,88,82.9,86.76,79.31,89c-3.27,2.08-2.92,6.5-5.17,9.38-1.91,2.44-5.37,3-8.28,3.17a33.58,33.58,0,0,1-10.76-1c-4.15-1.19-7.58-3.15-9.66-7a15.83,15.83,0,0,1-1.88-5.66,15.76,15.76,0,0,0-1.07-4.73,11.93,11.93,0,0,0-.33,4.41,55.46,55.46,0,0,0,1.19,8c1.08,5.31,5,8.17,17.54,9.65,10.84.5,17.54-.1,17.54-10.74,0,0,4.74-7.45,13,0,0-.35-.08-.68-.11-1a32.76,32.76,0,0,0,2.93,8.16c2.47,4.77,9.76,6.05,22.36,5.3,9.41-1.26,14.57-6.79,15-10.26a109.17,109.17,0,0,0,.93-14.22A3.2,3.2,0,0,0,132,82.79Z"/><path class="cls-10" d="M142.49,80.26c-5.59,1.58-9.91,2.85-9.91,2.85v4l15.51-5.69a12.42,12.42,0,0,1,4-.58C151.13,78.89,148.09,78.7,142.49,80.26Z"/></g><g class="cls-15"><path class="cls-10" d="M93.84,73.53s.09,2.33,1.66,1.36,15.29-11.4,24.25-5.46c2,1.56-1.75-3.51-4.87-4.68S99.88,65.63,93.84,73.53Z"/></g><g class="cls-7"><path class="cls-10" d="M93.26,72.35s-.79,1.47.28,2.14,3.13-1.35,6.14-3.6,11.79-7.69,18.71-3.31C115,64.17,108.26,59.79,93.26,72.35Z"/></g><g class="cls-7"><path class="cls-10" d="M69.12,110.64s1.28,2.44,9.52,2.09,22.3-3.83,22.53-7.43c2.21,1.62,2,2.44,3.71,3.13a2.18,2.18,0,0,1-2.08.23s-.61,5.27-1.48,10.39-4.39,6.64-7.14,6.89-8.63.12-14.26-7c-4.13-4.63-5.76-5.14-7.63-5S69.12,110.64,69.12,110.64Z"/></g><g class="cls-15"><path class="cls-10" d="M143.19,56.37l-.31,3.82-3.83-.3c-.91-1.84-7.34-12.7-7.34-12.7a45.54,45.54,0,0,0-1.07,8,18.24,18.24,0,0,1-5.36-12.39s-4.14,5.81-7.34,6.43c1.67-2.3,4-8.58,4-8.58s-8.87,9-13.77,10.72S98,51,98,51s8.27-7.5,10.57-11.64c-2.14,2.46-16.69,12.41-16.69,12.41s-3.67.3-9.49-1.84c1.85-4.44,10-11.32,10-11.32A140.88,140.88,0,0,0,73.54,51.93c-3.36,0-10.7-1.68-10.7-1.68s.91-2.91,7.49-8.88C59.78,44.74,53.65,54.23,51.51,55s-5.67.15-5.67.15S41.1,62,42.94,69.54a66.15,66.15,0,0,1,1.5,15.84c-1.64,10.37-3.28,26.52,18.3,37.9,22.08,9.72,24.05,14.17,44,7.08,21.59-8.9,39.72-13.84,37.74-45.65,0,0-.21-1.56.55-7.83C145.79,66.93,143.19,56.37,143.19,56.37ZM127.7,118.28c-7.31,5.36-25.23,11.14-25.23,11.14a16.7,16.7,0,0,0,2.31-3.83c-11.7,10.72-22.43,1.94-22.43,1.94s.49,1.47,3.9,3.42c-6.09-1.71-14-5.54-28.45-15.42s-9.56-29.33-9.89-35.6c-1.65-15.48-1-22.08,4.94-21.75,3.62.21,6.27-5.59,6.27-5.59l14.21,2.29,6.83-5.42.24-.18-.24.18c-.49.44-1.42,1.55.49,2.5,2.43,1.22,10.23,3.41,11.69,2.19s3.18-2.44,3.18-2.44.49,2.2,4.87,2.44,11.71-1.47,14.15-4.62c-1,5.11,3.41,4.38,7.07-.25-1.71,6.34,1.71,4.87,7.07,9.26,14.34,11.74,7.31,21.63,10,31.69C141.6,101.2,135,112.91,127.7,118.28Z"/></g><path class="cls-19" d="M53.5,35.56q-1.59.64-3.12,1.41c-1,.51-2,1-3,1.63-.49.28-1,.57-1.45.9a16.4,16.4,0,0,0-1.37,1c-.24.16-.44.35-.67.52s-.43.37-.63.56-.42.37-.6.58l-.56.63.07-.21.17,2-.44-.26,3.36-1.54,1.44-.67-1.07,1.19a12.24,12.24,0,0,0-1,1.37,14.08,14.08,0,0,0-.87,1.51,7.12,7.12,0,0,0-.37.79c-.11.26-.25.52-.34.8a16.87,16.87,0,0,0-.56,1.65c-.09.28-.14.57-.22.85s-.15.57-.19.86a16.38,16.38,0,0,0-.26,1.73,17.13,17.13,0,0,0-.11,1.75c0,.29,0,.59,0,.88l0,.89-.19-.14c1.44-.36,2.88-.74,4.32-1.08-1.41.48-2.82.92-4.24,1.37l-.18.06v-.19l-.07-.89a8.85,8.85,0,0,1-.05-.89c0-.6,0-1.2,0-1.8s.11-1.19.19-1.79c0-.29.11-.59.17-.88s.12-.59.21-.88c.16-.58.34-1.15.55-1.71.1-.29.23-.56.35-.84s.25-.55.38-.81a16.44,16.44,0,0,1,.88-1.59,11.63,11.63,0,0,1,1.09-1.47l.38.52-3.38,1.51-.41.18,0-.44-.14-2v-.13l.08-.08.59-.65c.2-.22.43-.4.63-.61s.44-.39.67-.57.45-.36.69-.52c.47-.34,1-.66,1.45-1s1-.59,1.5-.86a39.36,39.36,0,0,1,6.33-2.68Z"/><path class="cls-19" d="M147.78,50.55a5.79,5.79,0,0,1,.22.65,11.67,11.67,0,0,1,.36,1.78c0,.38.08.78.09,1.21a10.28,10.28,0,0,1,0,1.36,20.38,20.38,0,0,1-.4,2.93c-.13.49-.24,1-.39,1.44s-.31.93-.48,1.38a20.88,20.88,0,0,1-1.12,2.31,16.41,16.41,0,0,1-.95,1.53l-.39.57.28-.63c.18-.39.46-1,.73-1.64.14-.34.31-.7.46-1.09s.28-.83.44-1.25.29-.89.42-1.35.23-.94.36-1.42.2-.94.28-1.42.15-.94.18-1.4A18.73,18.73,0,0,0,148,53c0-.73-.05-1.34-.11-1.77S147.78,50.55,147.78,50.55Z"/><path class="cls-19" d="M148.09,53.31a5.5,5.5,0,0,1,.92.62,4.86,4.86,0,0,1,.41.38,3,3,0,0,1,.39.41l.33.46a5.14,5.14,0,0,1,.29.51,1.91,1.91,0,0,1,.22.53c.07.19.12.38.17.57l-.49-.16a2.45,2.45,0,0,0,.29-.45,3.5,3.5,0,0,0,.2-.54,5.54,5.54,0,0,0,.11-.56c0-.21,0-.4,0-.59l0-.6-.08-.58-.15-.56a5.15,5.15,0,0,0-.23-.54,1.4,1.4,0,0,0-.14-.27l-.09-.19a.1.1,0,0,1,0-.07s0,0,0-.16a.34.34,0,0,1,.2-.16.27.27,0,0,1,.21,0c.07,0,.09.08.08.07h0l0,.05.05.06a6.16,6.16,0,0,1,.33.55l.63,1.09c.43.72.81,1.47,1.19,2.22-.53-.66-1-1.33-1.53-2l-.73-1-.36-.51-.05,0v0h0s0,0,.08.07a.39.39,0,0,0,.22,0,.28.28,0,0,0,.18-.17c.06-.17,0-.11,0-.15v0s0,0,.05.08.11.17.16.27a4.39,4.39,0,0,1,.29.62c.06.22.13.42.19.64l.1.65c0,.22,0,.45,0,.67a4.89,4.89,0,0,1-.05.66,3.92,3.92,0,0,1-.15.66,3.8,3.8,0,0,1-.26.63,3.48,3.48,0,0,1-.43.58l-.33.45-.15-.61c0-.16-.07-.33-.11-.5a1.4,1.4,0,0,0-.15-.49,4.19,4.19,0,0,0-.2-.49l-.27-.45c-.1-.15-.22-.29-.32-.44a4.18,4.18,0,0,0-.34-.42A7,7,0,0,0,148.09,53.31Z"/><path class="cls-21" d="M72.16,113.18s17.33,1.66,29.73-6.29c0,0-.69,9.38-1.89,13.15s-7.37,7.09-13.71,3.37S79.08,113.64,72.16,113.18Z"/><g class="cls-6"><path class="cls-21" d="M72.16,113.18a9.56,9.56,0,0,1,6.55,3.14,7.87,7.87,0,0,0,1.26-.5c2.29-1.23,3.59,5.45,8.47,5.29,3.74-.11,8.92-3.27,12.48-5.43.63-4.08,1-8.79,1-8.79C89.49,114.84,72.16,113.18,72.16,113.18Z"/></g><path class="cls-2" d="M90.75,117.75a29.12,29.12,0,0,0,10.58-5.16c.37-3,.56-5.7.56-5.7-6.51,4.16-14.34,5.69-20.34,6.2C82.81,115,86,119,90.75,117.75Z"/><path class="cls-22" d="M91.58,125c3.9.15,7.11-2,8.21-4.45A6.69,6.69,0,0,0,91.58,125Z"/><path class="cls-11" d="M91.9,127.3h.27a5.74,5.74,0,0,0,.66,0,3.77,3.77,0,0,0,.44,0l.47,0a7.57,7.57,0,0,0,1-.21,7.15,7.15,0,0,0,1-.28c.15-.07.31-.11.45-.16a2.85,2.85,0,0,0,.39-.17c.5-.24.87-.37.87-.37a8,8,0,0,1-.66.68,1.19,1.19,0,0,1-.37.29c-.14.09-.29.17-.46.26a3.31,3.31,0,0,1-.5.24l-.55.15a3.17,3.17,0,0,1-.57.11l-.56,0a2.15,2.15,0,0,1-.52,0,1.58,1.58,0,0,1-.46-.08A3.13,3.13,0,0,1,91.9,127.3Z"/><path class="cls-11" d="M69.33,111s.16.23.41.52a6,6,0,0,0,.94.94,5.15,5.15,0,0,0,.58.37l.57.25c.35.14.64.21.64.23a1.18,1.18,0,0,1-.2,0,1.71,1.71,0,0,1-.49.09,1.38,1.38,0,0,1-.35,0,1.36,1.36,0,0,1-.38-.08,1.85,1.85,0,0,1-.39-.15,2.3,2.3,0,0,1-.37-.23,2.42,2.42,0,0,1-.88-1.29A1.79,1.79,0,0,1,69.33,111Z"/><path class="cls-11" d="M101.54,105.56l.37.46c.21.28.47.63.74.94a6.86,6.86,0,0,0,.81.81,3.21,3.21,0,0,0,.34.24l.14.1-.18,0a1.52,1.52,0,0,1-.45,0,1.57,1.57,0,0,1-.6-.24,2.39,2.39,0,0,1-.57-.49,2.52,2.52,0,0,1-.57-1.21A2.37,2.37,0,0,1,101.54,105.56Z"/><path class="cls-11" d="M72.16,113.18a56.67,56.67,0,0,0,7.71-.1c.64,0,1.27-.11,1.91-.17s1.27-.15,1.91-.23,1.27-.17,1.91-.28,1.26-.19,1.89-.34l1.87-.39,1.86-.5a16.79,16.79,0,0,0,1.83-.56c.61-.2,1.23-.37,1.82-.61l1.78-.71c.59-.23,1.16-.53,1.73-.8a16.89,16.89,0,0,0,1.69-.88l1.65-1,.51-.3,0,.58c-.08,1-.16,2-.26,3s-.18,1.95-.31,2.93-.24,2-.4,2.94-.34,2-.55,2.92l-.37,1.46-.28.7c-.12.23-.26.47-.4.69a7.93,7.93,0,0,1-2.16,2.16,8.72,8.72,0,0,1-2.75,1.27,9.8,9.8,0,0,1-3,.37,10.35,10.35,0,0,1-3-.52c-.48-.14-.94-.36-1.41-.54s-.88-.45-1.32-.72a17.88,17.88,0,0,1-2.4-1.77,24.49,24.49,0,0,1-2.11-2.09l-1.94-2.23a17.59,17.59,0,0,0-2.07-2.07,10.74,10.74,0,0,0-1.17-.87,9.5,9.5,0,0,0-1.32-.65A10.22,10.22,0,0,0,72.16,113.18Zm0,0a10.17,10.17,0,0,1,2.89.58,10.93,10.93,0,0,1,1.35.61,11.59,11.59,0,0,1,1.23.84,40.31,40.31,0,0,1,4.15,4.22,23.54,23.54,0,0,0,2.11,2,17.36,17.36,0,0,0,2.38,1.69c.41.24.85.44,1.28.67s.89.35,1.36.49a10.93,10.93,0,0,0,1.4.32c.23,0,.47.08.7.1l.73,0a9,9,0,0,0,2.82-.36,8.68,8.68,0,0,0,2.58-1.2,7.61,7.61,0,0,0,2-2c.11-.21.22-.39.34-.6l.26-.67.36-1.4c.19-1,.39-1.91.52-2.87s.28-2,.4-2.91.22-2,.33-2.94.19-2,.26-2.93l.47.28-1.68,1a14.12,14.12,0,0,1-1.73.89c-.6.27-1.17.58-1.77.82l-1.81.7c-.6.25-1.23.39-1.84.6s-1.24.39-1.87.53l-1.89.46-1.9.37c-.63.13-1.27.21-1.91.3s-1.28.19-1.92.26-1.28.14-1.92.17-1.29.1-1.93.12A58.5,58.5,0,0,1,72.16,113.18Z"/><g class="cls-23"><path class="cls-22" d="M96.28,122c-.36-.92-2.23-.23-2.42.45a.5.5,0,0,0,.09.49.42.42,0,0,0,.18.2C94.91,123.63,96.58,122.76,96.28,122Z"/></g><g class="cls-23"><path class="cls-22" d="M97.49,121.23c-.13-.31-.76-.08-.83.15a.15.15,0,0,0,0,.17.07.07,0,0,0,0,.07C97,121.79,97.6,121.49,97.49,121.23Z"/></g><path class="cls-19" d="M95.37,15.35a10.91,10.91,0,0,1,1.48-1.22c.53-.38,1.07-.7,1.63-1a18.65,18.65,0,0,1,1.74-.85,16.5,16.5,0,0,1,1.83-.64,13.33,13.33,0,0,1,1.89-.45,12.54,12.54,0,0,1,1.93-.22,18.12,18.12,0,0,1,1.95,0l1.94.22,1.89.46a11.74,11.74,0,0,1,1.83.66,10.88,10.88,0,0,1,1.77.8l1.69,1a14.5,14.5,0,0,1,1.59,1.1l1.55,1.17c.94.88,1.86,1.78,2.79,2.67l-.36.18-.19-.86c-.07-.29-.13-.58-.21-.86-.2-.56-.32-1.15-.57-1.69a8.33,8.33,0,0,0-.34-.82l-.4-.79c-.16-.25-.31-.51-.49-.75a4.1,4.1,0,0,0-.56-.7,5.52,5.52,0,0,1,.63.65c.19.23.35.48.53.72l.46.78c.15.26.27.54.41.81a14.43,14.43,0,0,1,.66,1.69c.1.28.17.57.25.87l.23.87.18.66-.53-.47-2.85-2.53-1.53-1.12a12.35,12.35,0,0,0-1.57-1.06L115,13.64a13.34,13.34,0,0,0-1.73-.76,13.89,13.89,0,0,0-1.77-.65l-1.82-.47-1.87-.22a16.86,16.86,0,0,0-1.88,0,13.27,13.27,0,0,0-1.88.17,13.1,13.1,0,0,0-1.85.35c-.63.12-1.21.39-1.82.56s-1.17.49-1.74.75-1.14.58-1.68.92A14.14,14.14,0,0,0,95.37,15.35Z"/><path class="cls-19" d="M124.37,19a2.23,2.23,0,0,1,.39-.26,7.14,7.14,0,0,1,1.13-.54,8.88,8.88,0,0,1,1.71-.43,9.21,9.21,0,0,1,2,0c.35,0,.69.12,1,.17a9.34,9.34,0,0,1,1,.28,8.55,8.55,0,0,1,.86.37,6.29,6.29,0,0,1,.73.4,4.52,4.52,0,0,1,.58.4l.42.34c.23.19.35.31.35.31l-.42-.2-.47-.24c-.18-.1-.41-.16-.64-.27a6.34,6.34,0,0,0-.74-.29c-.28-.08-.55-.18-.85-.26s-.6-.16-.92-.22-.63-.12-1-.13a10.32,10.32,0,0,0-1.92,0,12.35,12.35,0,0,0-1.67.22c-.49.1-.9.19-1.18.28Z"/><path class="cls-18" d="M94.09,74s13.48-13.57,22.75-7.88C113.05,61,102.67,60.42,93.6,71.8,92.5,73.09,93.1,73.89,94.09,74Z"/><path class="cls-19" d="M94.22,74.34l-.16,0a1.47,1.47,0,0,1-1.3-.83c-.15-.38-.17-1,.59-1.91C99.79,63.5,106,62.3,109.17,62.3a9.66,9.66,0,0,1,7.94,3.61l1,1.37-1.47-.89a9.31,9.31,0,0,0-4.94-1.34c-8.19,0-17.31,9.09-17.4,9.17Zm15-11.38c-3,0-9,1.17-15.32,9-.42.5-.59,1-.48,1.24a.78.78,0,0,0,.6.4c1.15-1.13,9.71-9.25,17.76-9.25a10.3,10.3,0,0,1,3.63.63A9.56,9.56,0,0,0,109.17,63Z"/><path class="cls-11" d="M80.83,90.85a2.9,2.9,0,0,1,.44.63,3.71,3.71,0,0,1,.33.72,5.25,5.25,0,0,1,.23.87c0,.31.06.62.06.9a5.14,5.14,0,0,1-.13.8,6,6,0,0,1-.35.7s0-.32,0-.75c0-.22-.06-.47-.08-.73s-.07-.54-.12-.81-.1-.58-.14-.84-.08-.52-.12-.74C80.86,91.16,80.83,90.85,80.83,90.85Z"/><path class="cls-11" d="M80.58,97.29a4.05,4.05,0,0,1-.4.54c-.14.17-.31.38-.51.59a8.56,8.56,0,0,1-.74.72l-.46.37c-.14.13-.36.27-.38.36A2.06,2.06,0,0,0,78,101a4.29,4.29,0,0,0,1.13,2.39,4.17,4.17,0,0,0,2.33,1.22,6.86,6.86,0,0,0,1.26.09,7,7,0,0,0,1.16-.12c.36,0,.68-.14,1-.2s.55-.14.75-.21l.65-.19s-.22.1-.6.31c-.2.1-.44.2-.72.32a7.23,7.23,0,0,1-1,.34,7.06,7.06,0,0,1-2.59.24,4.67,4.67,0,0,1-2.73-1.35,4.59,4.59,0,0,1-1.22-2.79,2.23,2.23,0,0,1,.33-1.44,2.14,2.14,0,0,1,.53-.45l.47-.32c.31-.19.55-.42.8-.6s.43-.35.59-.49C80.41,97.47,80.58,97.29,80.58,97.29Z"/><g class="cls-7"><path class="cls-10" d="M77.81,100.6s1.24,4.51,9.25,1.36c3.15-1.14.9,3.49-3.73,3.71S77.47,101.84,77.81,100.6Z"/></g><g class="cls-7"><path class="cls-10" d="M104.2,78.5a20.39,20.39,0,0,0-2.63,7.24c2-8.38,17.05-19.6,23.5-2,0,0-8.35,13.62-25.48,4.39A23,23,0,0,1,104.2,78.5Z"/></g><path class="cls-2" d="M101.06,87.77s2.82,2.81,10.37,2.81A14.65,14.65,0,0,0,123,84.51s.14-8.74-9.19-8.3S101.06,87.77,101.06,87.77Z"/><path class="cls-24" d="M107,78.67s.23-.21.66-.54a15.92,15.92,0,0,1,1.89-1.21,15.42,15.42,0,0,1,2.93-1.28,11.05,11.05,0,0,1,3.67-.52,8.39,8.39,0,0,1,1.88.31,7.63,7.63,0,0,1,1.7.72,7.82,7.82,0,0,1,1.37,1,11.6,11.6,0,0,1,1,1.13,10.26,10.26,0,0,1,.7,1.08c.17.33.35.61.45.87.22.49.33.77.33.77s-.15-.26-.44-.71c-.13-.24-.34-.49-.55-.8s-.51-.61-.78-1a10.27,10.27,0,0,0-1.06-1,8,8,0,0,0-1.33-.9c-.24-.14-.51-.23-.77-.35a7.16,7.16,0,0,0-.82-.27,7.69,7.69,0,0,0-1.74-.25,14.63,14.63,0,0,0-6.4,1.45A22.29,22.29,0,0,0,107,78.67Z"/><path class="cls-24" d="M101.06,87.77s.12-.49.42-1.32c.15-.41.35-.92.61-1.48a15.61,15.61,0,0,1,1-1.83,21.79,21.79,0,0,1,1.39-2c.28-.33.56-.68.87-1s.67-.66,1-1,.75-.61,1.16-.91.84-.54,1.28-.79l1.38-.66,1.48-.47c.5-.1,1-.17,1.52-.26l.18,0h.6a6.26,6.26,0,0,1,.75,0,11.31,11.31,0,0,1,2.95.5,8.08,8.08,0,0,1,2.47,1.3,7.54,7.54,0,0,1,1.66,1.86,7.11,7.11,0,0,1,.84,1.91,8.88,8.88,0,0,1,.31,1.58,5.66,5.66,0,0,1,0,1c0,.23,0,.36,0,.36s0-.13,0-.36-.07-.58-.16-1a7.7,7.7,0,0,0-.41-1.51,5.9,5.9,0,0,0-.38-.87,6.69,6.69,0,0,0-.54-.92,7,7,0,0,0-1.64-1.68A8.84,8.84,0,0,0,117.46,77a11.61,11.61,0,0,0-2.78-.43c-.24,0-.5,0-.75,0h-.52l-.18,0-1.45.26-1.39.43-1.33.6c-.43.23-.83.49-1.23.73l-1.12.86c-.35.31-.67.63-1,.93s-.61.64-.89,1a19.15,19.15,0,0,0-1.46,1.92,23.5,23.5,0,0,0-1.76,3.17C101.23,87.29,101.06,87.77,101.06,87.77Z"/><path class="cls-24" d="M103.39,89.28s.3.09.84.22,1.32.29,2.24.47c.47.06,1,.17,1.52.22s1.09.1,1.68.12,1.2,0,1.81,0,1.24-.08,1.85-.13a17.93,17.93,0,0,0,1.83-.35,11.27,11.27,0,0,0,1.7-.55l.8-.31c.26-.11.49-.26.73-.38a7.94,7.94,0,0,0,1.28-.79l1-.76.71-.7c.41-.39.64-.59.64-.59s-.2.23-.54.67l-.64.79-1,.89a7.5,7.5,0,0,1-1.27.9c-.24.15-.47.32-.73.45l-.82.37a10.75,10.75,0,0,1-1.76.62,17.26,17.26,0,0,1-1.9.38c-.64.07-1.29.12-1.93.13a16.33,16.33,0,0,1-1.86-.08,13,13,0,0,1-1.72-.24c-.54-.08-1-.22-1.52-.33A16.62,16.62,0,0,1,103.39,89.28Z"/><path class="cls-25" d="M120.94,79.48c2.73,4-.18,7.49-5.36,9.16s-12.72.34-12.17-2.77a15.67,15.67,0,0,1,2.92-6h0a20.61,20.61,0,0,0-5,8s2.74,2.74,10.1,2.74a14.26,14.26,0,0,0,11.26-5.92,9.21,9.21,0,0,0-2-5.56A3.21,3.21,0,0,0,120.94,79.48Z"/><path class="cls-26" d="M120.6,83.63c-.17,3.68-2.68,6.48-5.58,6.29s-5.11-3.34-4.93-7,2.69-6.5,5.6-6.29S120.8,80,120.6,83.63Z"/><path class="cls-18" d="M120.6,83.63c-.17,3.68-2.68,6.48-5.58,6.29s-5.11-3.34-4.93-7,2.69-6.5,5.6-6.29S120.8,80,120.6,83.63Z"/><g class="cls-23"><path class="cls-18" d="M119.35,83.79c-.14,2.8-2,4.95-4.27,4.8s-3.9-2.55-3.76-5.35,2.06-5,4.28-4.81S119.5,81,119.35,83.79Z"/></g><path class="cls-19" d="M118.69,83.48c-.12,2.22-1.62,3.92-3.37,3.79s-3.08-2-3-4.23,1.63-3.92,3.39-3.79S118.81,81.26,118.69,83.48Z"/><g class="cls-27"><path class="cls-18" d="M110.22,81.85a6.14,6.14,0,0,0-.13,1.06c-.18,3.67,2,6.81,4.93,7s5.41-2.61,5.58-6.29a6.8,6.8,0,0,0,0-1C117.33,84.4,112.7,84.55,110.22,81.85Z"/></g><path class="cls-2" d="M114.66,81.61a1.9,1.9,0,0,1-1.94,1.79,2.14,2.14,0,1,1,1.94-1.79Z"/><path class="cls-2" d="M113.48,85.09a.9.9,0,0,1-.92.86,1,1,0,1,1,.92-.86Z"/><g class="cls-28"><path class="cls-29" d="M125.32,88.13a7.65,7.65,0,0,0-4.72,1.23,17.24,17.24,0,0,0-1.61.78,8.29,8.29,0,0,0-4.38,6.69c0,.37.47.33.63.11,1.91-2.72,5.67-3.6,8.82-3.72,1.91-.08,4.41-.48,4.59-2.81C128.8,88.58,126.69,88.25,125.32,88.13Z"/></g><path class="cls-11" d="M113.14,93a14,14,0,0,1,1.72-1.72,23.15,23.15,0,0,1,2-1.53,22.31,22.31,0,0,1,2.5-1.43,17.38,17.38,0,0,1,2.69-1,8,8,0,0,1,1.29-.3,10.9,10.9,0,0,1,1.17-.19l1-.07.77,0,.67,0-.67.1-.75.09c-.28.07-.61.14-1,.2s-.72.17-1.12.28-.81.25-1.23.4-.85.31-1.28.48-.87.38-1.3.58-.84.43-1.26.65-.82.44-1.2.67c-.77.46-1.48.91-2.07,1.32C113.89,92.39,113.14,93,113.14,93Z"/><g class="cls-7"><path class="cls-10" d="M67.15,80.6a33.46,33.46,0,0,1,2,7.7S67.75,78.06,59.35,78c-3.86,0-8.52,2.05-8.77,7.51C50,88.4,60.1,96,70.44,90.63,70.34,85.77,67.15,80.6,67.15,80.6Z"/></g><path class="cls-2" d="M69.55,90.12A16.54,16.54,0,0,1,58.9,91.23c-5.73-1.42-6.6-5-6.6-5s.79-6.92,7.55-7.31S69.55,90.12,69.55,90.12Z"/><path class="cls-24" d="M60.58,78.76l-.52,0a11.17,11.17,0,0,0-1.35.22A11.38,11.38,0,0,0,55,80.55a9.08,9.08,0,0,0-.89.64c-.28.23-.53.47-.79.7l-.69.73c-.22.24-.38.49-.56.71s-.35.42-.47.61l-.32.51-.3.43s.06-.18.18-.5a8.65,8.65,0,0,1,.59-1.26,5.49,5.49,0,0,1,.5-.8c.2-.26.41-.56.65-.83a10.11,10.11,0,0,1,.81-.79c.31-.23.6-.5.93-.7a8.07,8.07,0,0,1,1-.57A8.23,8.23,0,0,1,56.7,79a8.63,8.63,0,0,1,1-.26,7.83,7.83,0,0,1,.93-.11,7.72,7.72,0,0,1,1.4,0A3.82,3.82,0,0,1,60.58,78.76Z"/><path class="cls-24" d="M69.38,89.48s-.12-.39-.36-1a28.61,28.61,0,0,0-1.16-2.64c-.28-.54-.57-1.11-.94-1.68-.18-.29-.36-.58-.58-.87a10.77,10.77,0,0,0-.65-.86,7.29,7.29,0,0,0-.74-.84,6.78,6.78,0,0,0-.84-.76l-.45-.35-.49-.3-.5-.28-.53-.2a4.61,4.61,0,0,0-1.1-.31l-.27-.07-.12,0H60.5l-.59,0a6.62,6.62,0,0,0-1.11,0,9.26,9.26,0,0,0-1.07.25,6.5,6.5,0,0,0-1.84.93,7.43,7.43,0,0,0-1.39,1.27A11.67,11.67,0,0,0,53.56,83c-.26.41-.45.78-.61,1.09-.3.64-.46,1-.46,1s.1-.38.34-1c.13-.32.29-.72.51-1.16a9.38,9.38,0,0,1,.87-1.42,7.47,7.47,0,0,1,1.39-1.43A6.48,6.48,0,0,1,57.55,79a7.41,7.41,0,0,1,2.38-.37l.6,0h.14l.18,0,.31.06a4.62,4.62,0,0,1,1.21.33l.58.23c.19.09.36.22.54.32l.53.33.48.39a6.23,6.23,0,0,1,.87.83,6.29,6.29,0,0,1,.76.89,7,7,0,0,1,.66.91q.3.47.54.93a15.85,15.85,0,0,1,.86,1.77,20.3,20.3,0,0,1,1,2.75C69.32,89.08,69.38,89.48,69.38,89.48Z"/><path class="cls-24" d="M52.66,87.16s.17.22.48.56c.17.16.35.37.6.58s.53.43.84.68a12.23,12.23,0,0,0,1.06.68l.6.33.66.29c.43.21.93.33,1.41.51s1,.27,1.52.33a13.2,13.2,0,0,0,1.54.18c.51,0,1,.09,1.51,0s1,0,1.42,0,.88-.09,1.27-.15c.79-.07,1.43-.23,1.89-.3s.73-.11.73-.11L67.5,91l-.81.25a4.63,4.63,0,0,1-1.06.29l-1.28.26c-.45.07-.95.11-1.45.16a13.64,13.64,0,0,1-1.57,0,14.65,14.65,0,0,1-1.61-.17c-.55-.08-1.06-.25-1.6-.37a11.16,11.16,0,0,1-1.46-.6L56,90.46l-.61-.4a11.76,11.76,0,0,1-1-.8A9,9,0,0,1,53,87.79,6.58,6.58,0,0,1,52.66,87.16Z"/><path class="cls-25" d="M65.83,82.4c1.37,2.79,2.78,6.37,1.47,7-6.26,2-14-.92-13.42-3.87a10.48,10.48,0,0,1,2.93-5.75c-3.83,1.86-4.35,6.41-4.35,6.41s.85,3.51,6.48,4.92a16.33,16.33,0,0,0,10.45-1.09A24.79,24.79,0,0,0,65.83,82.4Z"/><path class="cls-26" d="M67,86c.08,3.16-1.9,5.74-4.4,5.76S58,89.19,57.91,86s1.88-5.74,4.39-5.76S66.9,82.8,67,86Z"/><path class="cls-18" d="M67,86c.08,3.16-1.9,5.74-4.4,5.76S58,89.19,57.91,86s1.88-5.74,4.39-5.76S66.9,82.8,67,86Z"/><g class="cls-23"><path class="cls-18" d="M65.91,86.18c.06,2.42-1.45,4.39-3.35,4.4S59,88.65,59,86.24s1.45-4.39,3.35-4.4S65.84,83.77,65.91,86.18Z"/></g><path class="cls-19" d="M65.32,86c.05,1.91-1.14,3.46-2.65,3.48S59.89,87.91,59.85,86s1.14-3.46,2.64-3.48S65.27,84.06,65.32,86Z"/><g class="cls-27"><path class="cls-18" d="M58,85.12a6.78,6.78,0,0,0,0,.91c.07,3.16,2.17,5.71,4.67,5.69S67.06,89.12,67,86c0-.29,0-.57-.09-.86C64.21,86.84,60.24,87.27,58,85.12Z"/></g><path class="cls-2" d="M61.74,84.62a1.45,1.45,0,1,1-1.27-1.89A1.64,1.64,0,0,1,61.74,84.62Z"/><path class="cls-2" d="M61,87.68c0,.47-.37.83-.74.79a.77.77,0,0,1-.6-.9c0-.46.37-.82.73-.78A.76.76,0,0,1,61,87.68Z"/><g class="cls-28"><path class="cls-29" d="M49.23,89.29a7.58,7.58,0,0,1,4.71,1.22,15.3,15.3,0,0,1,1.62.78A8.33,8.33,0,0,1,60,98c0,.38-.49.34-.64.1-1.91-2.71-5.67-3.59-8.81-3.71-1.91-.08-4.41-.48-4.6-2.81C45.75,89.74,47.86,89.39,49.23,89.29Z"/></g><path class="cls-11" d="M48.74,87.35a2.72,2.72,0,0,1,.54.05,9.65,9.65,0,0,1,1.45.29c.3.09.61.2.94.32a5.88,5.88,0,0,1,1,.42l1,.53c.36.19.68.44,1,.66s.67.48,1,.7l.87.81c.29.25.55.51.8.75s.43.53.64.77c.75.95,1.2,1.62,1.2,1.62s-.62-.53-1.48-1.37a9,9,0,0,0-.7-.66c-.27-.21-.55-.44-.83-.68s-.59-.47-.89-.73l-1-.66c-.34-.22-.64-.48-1-.66l-1-.56a7.35,7.35,0,0,0-1-.5c-.3-.15-.59-.3-.87-.41l-.76-.3a4.48,4.48,0,0,0-.59-.22C48.93,87.4,48.74,87.35,48.74,87.35Z"/><g class="cls-27"><path class="cls-18" d="M113.89,63.68c-.33.28-1.47.42-3.76.32-8.36-.35-15.41,8.72-15.41,7.53a4,4,0,0,1,.53-1.67c-.55.6-1.11,1.25-1.65,1.94-1.1,1.29-.5,2.09.49,2.19,0,0,13.48-13.57,22.75-7.88A8.11,8.11,0,0,0,113.89,63.68Z"/></g><g class="cls-13"><path class="cls-14" d="M70.82,111.48s9.13,2.46,25.88-3.23c-1.31,1.84-12.1,4.55-19.74,4.64C71.78,113,70.82,111.48,70.82,111.48Z"/></g><path class="cls-9" d="M80.16,49.46l.24-.18Z"/><path class="cls-9" d="M144.45,84.41a1.45,1.45,0,0,0,0,.3S144.46,84.61,144.45,84.41Z"/><path class="cls-9" d="M128.68,58.54c-5.36-4.39-8.78-2.92-7.07-9.26-3.66,4.63-8,5.36-7.07.25-2.44,3.15-9.76,4.86-14.15,4.62s-4.87-2.44-4.87-2.44-1.71,1.22-3.18,2.44-9.26-1-11.69-2.19c-1.91-1-1-2.06-.49-2.5l-6.83,5.42L59.12,52.59s-2.65,5.8-6.27,5.59c-5.93-.33-6.59,6.27-4.94,21.75.33,6.27-4.61,25.71,9.89,35.6S80.16,129.24,86.25,131c-3.41-1.95-3.9-3.42-3.9-3.42s10.73,8.78,22.43-1.94a16.7,16.7,0,0,1-2.31,3.83s17.92-5.78,25.23-11.14,13.9-17.08,11-28C136,80.17,143,70.28,128.68,58.54Z"/><g class="cls-7"><path class="cls-10" d="M45.35,72.33C44,60.87,44.52,57.25,48.14,57s4.47-.29,8.37-4.75c6.43-7,8.48-7.14,8.48-7.14s-3,3.42-3.4,5.22,12,2.4,12,2.4L84,45.08s-4.21,4.82-3.21,5.42,10,3,11.43,2.4,8.22-5.82,8.22-5.82L96.65,51.5a20.93,20.93,0,0,0,9,1c4.82-.6,11.43-5.61,11.43-5.61V50.3s5.41-2.41,7.21-4c.6,7.41,7,10.82,7,10.82l.6-7.21s2.61,8.41,6.42,11.22,4.81,4.8,5.21,10c.35,4.63.81,11.75.91,13.28a54.89,54.89,0,0,1,.57-7.53c.77-9.95-1.83-20.51-1.83-20.51l-.31,3.82-3.83-.3c-.91-1.84-7.34-12.7-7.34-12.7a45.54,45.54,0,0,0-1.07,8,18.24,18.24,0,0,1-5.36-12.39s-4.14,5.81-7.34,6.43c1.67-2.3,4-8.58,4-8.58s-8.87,9-13.77,10.72S98,51,98,51s8.27-7.5,10.57-11.64c-2.14,2.46-16.69,12.41-16.69,12.41s-3.67.3-9.49-1.84c1.85-4.44,10-11.32,10-11.32A140.88,140.88,0,0,0,73.54,51.93c-3.36,0-10.7-1.68-10.7-1.68s.91-2.91,7.49-8.88C59.78,44.74,53.65,54.23,51.51,55s-5.67.15-5.67.15S41.1,62,42.94,69.54a66.15,66.15,0,0,1,1.5,15.84,70,70,0,0,0-.81,7.13C45.89,85.15,46.39,80.8,45.35,72.33Z"/></g><g class="cls-15"><path class="cls-10" d="M92.71,127.48a4.7,4.7,0,0,0,4-.89C96.16,128.63,94.05,128.45,92.71,127.48Z"/></g><g class="cls-15"><path class="cls-10" d="M52.08,73.4S58.9,68.73,65.26,73c1.54,1.66,0,.89-1,.34a12.74,12.74,0,0,0-9.91-.17C52.13,74.31,51.39,74.49,52.08,73.4Z"/></g><path class="cls-18" d="M65.55,73.19s-5.19-4.09-13.47.21C51.79,68.8,57.07,63.81,65.55,73.19Z"/><path class="cls-19" d="M51.79,73.92l0-.5a5.94,5.94,0,0,1,1.49-4.35,4.75,4.75,0,0,1,3.57-1.52c1.87,0,4.93.94,9,5.43l-.45.47a10.28,10.28,0,0,0-5.91-1.69,15.63,15.63,0,0,0-7.2,1.93Zm5-5.71a4.12,4.12,0,0,0-3.09,1.31,5.14,5.14,0,0,0-1.32,3.34,16.17,16.17,0,0,1,7-1.75,12,12,0,0,1,4.41.8C60.7,68.9,58.32,68.21,56.81,68.21Z"/><g class="cls-27"><path class="cls-18" d="M62.53,70.32c0,.36-.22.51-.9.25-2.27-.84-5.14-1.32-7.16.12-1.51,1.06-1.64,0-1.6-.58a5.71,5.71,0,0,0-.79,3.29c8.28-4.3,13.47-.21,13.47-.21A26.06,26.06,0,0,0,62.53,70.32Z"/></g><g class="cls-7"><path class="cls-10" d="M52.63,72.69s-1.21,2.19-.88,2.85,5.61-4.39,12.53-1,3.18-.43-.55-2.74S54.28,71,52.63,72.69Z"/></g><path class="cls-30" d="M132.13,80.31c-.08-4.45-3-8.4-10.84-8.32s-20.59,2.53-23.61,3.45-8,1.94-7.43,10.6a32.16,32.16,0,0,0,3.63,13.5c2.48,4.78,9.76,6.07,22.36,5.31,9.41-1.27,14.57-6.78,15-10.25A113.75,113.75,0,0,0,132.13,80.31Zm-3.92,13.38c-.34,3-4.72,7.64-12.72,8.72-10.72.64-16.92-.45-19-4.51a27.47,27.47,0,0,1-3.08-11.49c-.46-7.36,3.74-8.22,6.3-9a105.2,105.2,0,0,1,20.09-2.93c6.64-.07,9.14,3.29,9.22,7.08A93.77,93.77,0,0,1,128.21,93.69Z"/><path d="M110.12,105.38h0c-9.4,0-14.49-1.75-16.53-5.69A32.85,32.85,0,0,1,89.93,86c-.52-8.48,4.13-9.86,7.21-10.79l.43-.13c3.15-1,16-3.37,23.72-3.45h.24c9.71,0,10.88,6,10.93,8.63a109.34,109.34,0,0,1-.93,14.34c-.39,3.47-5.51,9.24-15.23,10.54C114,105.31,112,105.38,110.12,105.38Zm11.41-33h-.24c-7.66.08-20.41,2.48-23.52,3.42l-.45.14c-3,.9-7.22,2.15-6.74,10.12a32.27,32.27,0,0,0,3.59,13.38c1.91,3.69,6.83,5.33,16,5.33h0c1.85,0,3.85-.06,6.11-.2,9.36-1.26,14.27-6.69,14.65-10a109.51,109.51,0,0,0,.92-14.24C131.71,75.24,128,72.33,121.53,72.33Zm-11.25,30.58c-8,0-12.37-1.5-14.1-4.87a27.91,27.91,0,0,1-3.12-11.63c-.45-7.24,3.52-8.43,6.16-9.22l.39-.1a103.1,103.1,0,0,1,20.16-3H120c8.3,0,9.29,5.17,9.33,7.39a92.13,92.13,0,0,1-.78,12.2c-.34,3-4.7,7.89-13,9C113.58,102.86,111.86,102.91,110.28,102.91ZM120,74.79h-.21a105.17,105.17,0,0,0-20,2.92l-.38.11c-2.58.77-6.11,1.83-5.69,8.57a27.47,27.47,0,0,0,3,11.36c1.61,3.11,5.78,4.5,13.52,4.5,1.57,0,3.27-.06,5.19-.17,7.93-1.06,12.1-5.65,12.41-8.43a92.67,92.67,0,0,0,.79-12.1C128.58,77.25,125.42,74.79,120,74.79Z"/><g class="cls-31"><path class="cls-2" d="M119.78,74.46a105.2,105.2,0,0,0-20.09,2.93c-2.56.8-6.76,1.66-6.3,9A27.47,27.47,0,0,0,96.47,97.9c2.1,4.06,8.3,5.15,19,4.51,8-1.08,12.38-5.77,12.72-8.72A93.77,93.77,0,0,0,129,81.54C128.92,77.75,126.42,74.39,119.78,74.46Z"/></g><g class="cls-32"><g class="cls-6"><path class="cls-33" d="M129,81.54c-.08-3.79-2.58-7.15-9.22-7.08a105.2,105.2,0,0,0-20.09,2.93c-2.56.8-6.76,1.66-6.3,9A27.47,27.47,0,0,0,96.47,97.9c2.1,4.06,8.3,5.15,19,4.51,8-1.08,12.38-5.77,12.72-8.72A93.77,93.77,0,0,0,129,81.54ZM126.06,93c-.3,2.57-4.13,6.67-11.12,7.61-9.37.56-14.77-.39-16.61-3.94a23.89,23.89,0,0,1-2.7-10c-.39-6.43,3.26-7.19,5.52-7.88a91.14,91.14,0,0,1,17.54-2.56c5.8-.06,8,2.87,8,6.18A79.73,79.73,0,0,1,126.06,93Z"/></g></g><g class="cls-23"><g class="cls-31"><path class="cls-34" d="M99.69,77.39c-2.25.69-5.74,1.44-6.28,6.56l9-7.23C101.23,77,100.26,77.22,99.69,77.39Z"/></g><g class="cls-31"><path class="cls-34" d="M119.78,74.46A82.74,82.74,0,0,0,109,75.54L93.48,88a29,29,0,0,0,2.2,8.31l27-21.57A15.67,15.67,0,0,0,119.78,74.46Z"/></g><g class="cls-31"><path class="cls-34" d="M108,102.52c2,.09,4.2.06,6.68-.07l13.73-11c.22-2.06.38-4,.47-5.89C122.21,91.53,115.12,97,108,102.52Z"/></g></g><path class="cls-9" d="M96.47,97.9c2.1,4.06,8.3,5.15,19,4.51,8-1.08,12.38-5.77,12.72-8.72A93.77,93.77,0,0,0,129,81.54c-.08-3.79-2.58-7.15-9.22-7.08a105.2,105.2,0,0,0-20.09,2.93c-2.56.8-6.76,1.66-6.3,9A27.47,27.47,0,0,0,96.47,97.9Z"/><g class="cls-6"><path class="cls-30" d="M132.13,80.31c-.08-4.45-3-8.4-10.84-8.32a82.61,82.61,0,0,0-9.53.81,83.16,83.16,0,0,1,14.08.82c6.69,1.15,4.5,13,4.37,18.78S123,103.22,110.66,104C93,105.4,91.35,91.89,90.44,87.06l-.17-.86a32.29,32.29,0,0,0,3.61,13.34c2.48,4.78,9.76,6.07,22.36,5.31,9.41-1.27,14.57-6.78,15-10.25A113.75,113.75,0,0,0,132.13,80.31Z"/></g><path class="cls-2" d="M92.12,85.85s-1.34-8.2,9.54-9.94C96.55,75.24,89.43,78.46,92.12,85.85Z"/><path class="cls-2" d="M105.11,74.85c0,.17-.4.39-1,.47s-1,0-1.06-.15.41-.39,1-.48S105.09,74.67,105.11,74.85Z"/><path class="cls-30" d="M70.2,76.34C63.69,74,52,73.76,45.27,77.32c-3.06,1.77-3.75,4.43-3.46,8.18a55.85,55.85,0,0,0,1.18,8c1.1,5.32,5,8.19,17.55,9.66,10.84.49,17.55-.1,17.55-10.75S76.71,78.7,70.2,76.34ZM60.43,100.6C50.15,99.39,46.91,97,46,92.67a45.43,45.43,0,0,1-1-6.56c-.25-3.07.32-5.26,2.83-6.71,5.5-2.91,15.13-2.75,20.47-.81S74.84,83,74.84,91.78,69.33,101,60.43,100.6Z"/><path d="M64.93,103.59h0c-1.21,0-2.61,0-4.4-.12-12-1.41-16.65-4-17.86-9.93a57.75,57.75,0,0,1-1.19-8c-.34-4.33.71-6.79,3.62-8.47,3.37-1.79,8.21-2.77,13.63-2.77A35.32,35.32,0,0,1,70.32,76c6.58,2.39,8.09,5.45,8.09,16.36,0,4.51-1.15,7.41-3.62,9.14C72.7,103,69.75,103.59,64.93,103.59Zm-6.2-28.67c-5.32,0-10,1-13.31,2.69-2.65,1.53-3.6,3.82-3.28,7.86a56.71,56.71,0,0,0,1.18,8c1,4.77,4.11,7.84,17.26,9.4,1.75.08,3.15.11,4.35.11h0c4.68,0,7.51-.58,9.47-2,2.3-1.59,3.35-4.32,3.35-8.59,0-10.66-1.36-13.45-7.67-15.74A34.6,34.6,0,0,0,58.73,74.92ZM64,101c-1,0-2.14,0-3.62-.09-9.87-1.16-13.71-3.31-14.71-8.2a46,46,0,0,1-1-6.61c-.2-2.48,0-5.27,3-7A24.78,24.78,0,0,1,59,76.83a29.3,29.3,0,0,1,9.53,1.45c5.44,2,6.69,4.5,6.69,13.5C75.17,99.48,70.91,101,64,101ZM59,77.5c-4.36,0-8.24.76-10.91,2.19-2.15,1.24-2.92,3.1-2.66,6.4a46.94,46.94,0,0,0,1,6.51c.79,3.89,3.35,6.41,14.12,7.68,1.43.06,2.57.09,3.56.09,8.77,0,10.48-3.15,10.48-8.59,0-8.73-1.11-11-6.26-12.89A28.73,28.73,0,0,0,59,77.5Z"/><g class="cls-31"><path class="cls-2" d="M68.36,78.59c-5.34-1.94-15-2.1-20.47.81-2.51,1.45-3.08,3.64-2.83,6.71a45.43,45.43,0,0,0,1,6.56c.88,4.37,4.12,6.72,14.4,7.93,8.9.4,14.41-.09,14.41-8.82S73.7,80.53,68.36,78.59Z"/></g><g class="cls-32"><g class="cls-6"><path class="cls-33" d="M68.36,78.59c-5.34-1.94-15-2.1-20.47.81-2.51,1.45-3.08,3.64-2.83,6.71a45.43,45.43,0,0,0,1,6.56c.88,4.37,4.12,6.72,14.4,7.93,8.9.4,14.41-.09,14.41-8.82S73.7,80.53,68.36,78.59ZM60.36,99C51.48,98,48.68,95.93,47.91,92.16a41.15,41.15,0,0,1-.84-5.66c-.2-2.66.28-4.55,2.45-5.81,4.76-2.52,13.08-2.37,17.69-.69s5.6,3.84,5.6,11.39S68.05,99.37,60.36,99Z"/></g></g><g class="cls-23"><g class="cls-31"><path class="cls-34" d="M47.89,79.4c-2.51,1.45-3.08,3.64-2.83,6.71,0,0,0,.41.1,1.23l12.7-10.16A23.65,23.65,0,0,0,47.89,79.4Z"/></g><g class="cls-31"><path class="cls-34" d="M68.36,78.59A20.15,20.15,0,0,0,66.3,78c-6.31,5.69-13.25,10.61-20,15.77a7.4,7.4,0,0,0,4.11,4.45L72.23,80.75A10.79,10.79,0,0,0,68.36,78.59Z"/></g><g class="cls-31"><path class="cls-34" d="M60.13,100.56l.3,0c8.9.4,14.41-.09,14.41-8.82,0-1.07,0-2-.06-2.93Z"/></g></g><path class="cls-9" d="M60.43,100.6c8.9.4,14.41-.09,14.41-8.82S73.7,80.53,68.36,78.59s-15-2.1-20.47.81c-2.51,1.45-3.08,3.64-2.83,6.71a45.43,45.43,0,0,0,1,6.56C46.91,97,50.15,99.39,60.43,100.6Z"/><g class="cls-6"><path class="cls-30" d="M70.2,76.34a17.27,17.27,0,0,0-1.92-.59c8.82,2.77,8.14,9.18,8.14,17.94,0,10-10.55,9.65-22.27,7.46C45.94,99.62,43.33,94,42.5,90.83c.14.8.3,1.68.49,2.65,1.1,5.32,5,8.19,17.55,9.66,10.84.49,17.55-.1,17.55-10.75S76.71,78.7,70.2,76.34Z"/></g><path class="cls-2" d="M43.62,86.52s-2.14-8.19,8.61-9.81C56,76.05,39.19,75.11,43.62,86.52Z"/><path class="cls-2" d="M55.91,76.06c0,.17-.44.33-1,.36s-1-.08-1-.27.45-.34,1-.36S55.9,75.88,55.91,76.06Z"/><path class="cls-30" d="M78.09,92.39s4.74-7.44,13,0l-.62-5.33s-5.41-5.88-12.55.48C78,90,78.09,92.39,78.09,92.39Z"/><path d="M77.77,93.5l0-1.1s0-2.45-.19-4.85V87.4l.12-.12a10.48,10.48,0,0,1,6.93-3,8.78,8.78,0,0,1,6.08,2.59l.07.08.74,6.31-.64-.59c-2.37-2.14-4.66-3.22-6.81-3.22a7.26,7.26,0,0,0-5.67,3.16ZM84,88.75a10.53,10.53,0,0,1,6.6,2.84l-.52-4.38a8.24,8.24,0,0,0-5.52-2.29,9.75,9.75,0,0,0-6.37,2.75c.09,1.45.14,2.9.16,3.8A7.61,7.61,0,0,1,84,88.75Z"/><g class="cls-6"><path class="cls-30" d="M90.44,87.06a8.74,8.74,0,0,0-4.23-2.3l.18,0c3.79,1,4.49,6.18,1.54,4a7.39,7.39,0,0,0-8.27.06c-.82.68-1-.78-.93-2a10.2,10.2,0,0,0-.84.69c.15,2.43.2,4.85.2,4.85s4.74-7.44,13,0Z"/></g><path class="cls-2" d="M80.35,87a6,6,0,0,1,4.93-.71c2.81.82,1-1.7-2.35-1.05S78.89,87.55,80.35,87Z"/><path class="cls-2" d="M87.87,86.46c0,.11-.2.17-.38.12s-.32-.17-.29-.29.2-.17.38-.12S87.91,86.34,87.87,86.46Z"/><path class="cls-30" d="M132.23,85.06l15.51-5.7a12.93,12.93,0,0,1,4-.59c-1-2-4-2.15-9.63-.58S132.23,81,132.23,81Z"/><path d="M131.9,85.52V80.78l.24-.06s4.38-1.3,9.92-2.85c5.86-1.66,8.92-1.41,10,.76l.27.55-.62-.08a12.13,12.13,0,0,0-3.88.58Zm.66-4.24v3.31l15.08-5.54a15.14,15.14,0,0,1,3.49-.64c-1.2-1.31-4-1.27-8.89.09S133.54,81,132.56,81.28Z"/><g class="cls-6"><path class="cls-30" d="M150.3,77.48a5.4,5.4,0,0,1-2.48,1,86.21,86.21,0,0,0-12.84,4c-1,.39-1.37-.67-1.54-1.73l-1.21.35v4l15.51-5.7a12.93,12.93,0,0,1,4-.59A2.65,2.65,0,0,0,150.3,77.48Z"/></g><path class="cls-2" d="M137.06,79.91s7.1-2.19,9-2.3S132.68,82.1,137.06,79.91Z"/><g class="cls-23"><g class="cls-28"><path class="cls-10" d="M83.57,99.83c0,.73-1,1.34-2.25,1.36S79,100.65,79,99.92s1-1.34,2.25-1.36S83.56,99.1,83.57,99.83Z"/></g><g class="cls-28"><path class="cls-10" d="M85.16,99.71c.07.19-.09.42-.36.52a.44.44,0,0,1-.6-.15c-.07-.18.09-.42.35-.52A.45.45,0,0,1,85.16,99.71Z"/></g></g><path class="cls-9" d="M33.16,39a8.36,8.36,0,0,0,.85-1S33.68,38.4,33.16,39Z"/><g class="cls-13"><path class="cls-18" d="M62,34S73.62,24.35,99.1,16.88c10.55-2.2-10.55,9.22.22,4.61s7.47,0,4.62,4,6.37-4.4,9.66-4.84-8.13,14.28-17.14,20.87c-5.71,2.21,5.72-8.56,9-12.08s-11,2.64-22.41,8.8-4.17-.23,5.71-6.6,3.08-6.37-14.49,2.2S55.16,39.51,62,34Z"/></g><g class="cls-13"><path class="cls-18" d="M59.12,28.85A149.72,149.72,0,0,1,94.38,11.06c12.51-4,1.65-3.63-9.89,1s.66-2.64,5.6-5.28-25,4-39.54,14.5c-5.61,5.27,3.29,1.33,10.87-1.64s-10.87,6.26-16.48,13.5C42.31,37.42,48.89,34.78,59.12,28.85Z"/></g><g class="cls-13"><path class="cls-18" d="M118.68,24.6a101.39,101.39,0,0,1-6.53,15.8c-3.8,7,3.17.21,6.33-6.52s.41,1-.85,4.21,2.53,1,5.06-7.16-.42-7.17-2.12-4.23S120.57,19.75,118.68,24.6Z"/></g><g class="cls-13"><path class="cls-18" d="M135,29.26A50.87,50.87,0,0,0,138.9,48.1c1.81,3.86.23-2.73.23-8.63s3-.23,5.67,7.49-.68-7.49-2.5-12.26.46-1.59,4.78,5.91,4.53,4.76.9-3.41-2-7.49,5.91-.23S152.78,31.1,145,25.42c-4.68-3.4,2.56,7-3.34,2.7S135.27,25.62,135,29.26Z"/></g><path class="cls-2" d="M87.58,148.71s-9.88,5.85-2,15.23C76.49,163.84,74,150.13,87.58,148.71Z"/><polygon class="cls-2" points="93.47 150.13 94.97 150.51 93.76 151.47 93.86 153.04 92.56 152.18 91.12 152.76 91.53 151.25 90.53 150.06 92.09 149.99 92.92 148.67 93.47 150.13"/><polygon class="cls-2" points="87.76 153.63 89.27 154 88.06 154.98 88.17 156.53 86.86 155.68 85.42 156.26 85.83 154.75 84.83 153.56 86.38 153.5 87.22 152.17 87.76 153.63"/><polygon class="cls-2" points="90.67 159.06 92.22 159.19 91.18 160.35 91.55 161.86 90.12 161.23 88.79 162.05 88.95 160.5 87.76 159.48 89.29 159.16 89.89 157.71 90.67 159.06"/><polygon class="cls-2" points="96.76 159.23 98.32 159.35 97.27 160.51 97.64 162.03 96.22 161.39 94.89 162.21 95.05 160.66 93.86 159.65 95.38 159.33 95.98 157.88 96.76 159.23"/><polygon class="cls-2" points="98.69 153.51 100.23 153.79 99.08 154.84 99.3 156.38 97.94 155.61 96.54 156.3 96.84 154.77 95.76 153.64 97.31 153.47 98.04 152.09 98.69 153.51"/><path class="cls-11" d="M88.5,134.73a3.18,3.18,0,0,1,.46.64c.12.21.24.46.36.73a9.15,9.15,0,0,1,.27.88c0,.15.07.3.1.45a1.75,1.75,0,0,1,0,.46,5.32,5.32,0,0,1,0,.8,6.84,6.84,0,0,1-.09.79s-.14-.31-.28-.74c-.07-.22-.13-.48-.2-.75a7.25,7.25,0,0,0-.22-.86c-.07-.29-.14-.58-.18-.86a6.23,6.23,0,0,1-.16-.77c0-.22-.06-.42-.09-.55S88.5,134.73,88.5,134.73Z"/><path class="cls-2" d="M64.6,184.25c1.48,1.92,4.53,4.13,9.61,6l.27-4.88C68,181.16,65.19,182.16,64.6,184.25Z"/><path class="cls-3" d="M74.51,190.68l-.42-.15c-4.53-1.64-8-3.8-9.75-6.07l-.11-.13,0-.16a2.89,2.89,0,0,1,3-2.06c1.86,0,4.34,1,7.35,3l.16.1ZM65,184.19c1,1.26,3.47,3.53,8.93,5.57l.24-4.24c-2.79-1.8-5.15-2.75-6.83-2.75A2.21,2.21,0,0,0,65,184.19Z"/><g class="cls-7"><path class="cls-8" d="M64.6,184.25c1.48,1.92,4.53,4.13,9.61,6l.27-4.88C68,181.16,65.19,182.16,64.6,184.25Z"/></g><g class="cls-7"><path class="cls-8" d="M67.76,182.47a23.61,23.61,0,0,0,2.39,2.82c.61.69,1.86,1.89,1.34,3a2.3,2.3,0,0,1-.5.65c1,.46,2,.9,3.22,1.33l.27-4.88C71.52,183.43,69.33,182.6,67.76,182.47Z"/></g><path class="cls-10" d="M75.7,186.16l-1.22-.82-.27,4.88c-.28,3.16-.42,5.08-.42,5.08,3.57,2.53,22.63,1,23.55.8C97.34,196.1,84.93,192.65,75.7,186.16Z"/><path class="cls-11" d="M84.64,197.07h0c-5.92,0-9.64-.51-11-1.51l-.15-.1v-.19s.14-1.92.41-5.07l.31-5.44.48.31c.4.25.8.53,1.23.83,9.08,6.37,21.41,9.84,21.54,9.88l1.27.35-1.29.28A121.2,121.2,0,0,1,84.64,197.07Zm-10.51-1.94c1,.6,3.69,1.27,10.51,1.27h0c4.4,0,8.77-.27,11-.46-3.64-1.16-12.93-4.42-20.17-9.5l-.73-.51-.25,4.31C74.31,192.82,74.18,194.57,74.13,195.13Z"/><g class="cls-15"><path class="cls-10" d="M75.7,186.16l-.87-.59a18.15,18.15,0,0,0,2.86,2.75A17.4,17.4,0,0,0,82.31,191c1.28.47,4.16,2.17,3.54,3.34-1.13,2.15-5.7,1.39-7.78,1a33.24,33.24,0,0,1-4.21-1.06c0,.6-.07.94-.07.94,3.57,2.53,22.63,1,23.55.8C97.34,196.1,84.93,192.65,75.7,186.16Z"/></g><path class="cls-3" d="M75.85,165.58l.12.51.29,1.37c.11.56.26,1.21.38,1.92s.28,1.44.42,2.19.26,1.5.37,2.2.28,1.36.39,1.92c.21,1.12.3,1.89.3,1.89s-.29-.71-.65-1.8c-.18-.55-.41-1.19-.6-1.88s-.3-1.46-.46-2.21-.27-1.51-.35-2.23-.11-1.39-.17-2,0-1.05,0-1.39S75.85,165.58,75.85,165.58Z"/><path class="cls-3" d="M128.47,173a8.11,8.11,0,0,1,.24,1.16c0,.35.1.75.13,1.2s0,.91,0,1.39a10.15,10.15,0,0,1-.1,1.37c-.06.45-.14.85-.21,1.2-.16.7-.31,1.14-.31,1.14s-.05-.47-.07-1.18c0-.35,0-.75,0-1.19s0-.9,0-1.36,0-.93.07-1.37,0-.84.06-1.18.08-.66.09-.86A2.47,2.47,0,0,1,128.47,173Z"/><g class="cls-7"><g class="cls-7"><path class="cls-8" d="M84.6,138.24c.76-3,2.66-3.22,1.91-1.33s1.51,6.83,4.93,12.14c2.84-4,7.39-7.21,10.62-9.1s3-2.47.57-4.56a3.85,3.85,0,0,1,3.41,2.28s-.19-4,6.25-7.21c.42-.2.84-.42,1.27-.65A46.12,46.12,0,0,0,105,134c-1.06-1.74-2.79-1.49-4.94-.09,1.82,2.64,3.13,3,.25,5-3.47,2.06-9.07,7.58-9.07,7.58s-2.63-5.36-3.37-7.58a5.11,5.11,0,0,1,.63-4.2s-1.69-1.93-3.62.33c-2.14-3.05-3.5-1.12-8.25-2.71-1.88-.63-3.51-1.16-4.91-1.67a20.23,20.23,0,0,0,6.44,3.39C82.9,135.2,84.42,136,84.6,138.24Z"/></g><g class="cls-7"><path class="cls-8" d="M74,141.94c-.1-.29-.18-.48-.18-.48Z"/></g><g class="cls-7"><path class="cls-8" d="M137.54,129.2c1.85,6.33-1.07,8.5-4,4.11,2.09,6.07-2.84,4.74-6.44,7s-4.75.76-5.88-2.47c.56,7.21,4.73,15.93,5.49,26.56s-4.62,25.7,2.09,17.64c2.28-5.13,4.17-2.09,1.7,3.22-5.11,9.67-27.3,12.52-41.72,4.55s-20.68-9.48-19.35-12.9,5.12-9.67,6.64-5.31c1.9,7.21,6.64,11.19,3.6,5.5-8.15-17.26.38-37.17-.57-36a53,53,0,0,0-3.22,5.69L74,141.94c.37,1,1,3.4-.75,3.7-4,0-5.89-1.14-6.07-6.83-1.15,6.64-3.42,8-3,.57a40,40,0,0,0-.23-8c0,.34-.1.7-.14,1.1-.57,5.66-2,16.51,0,16.62s.34-1.47,3.62-.9,8.93,1,8.93,1a43.13,43.13,0,0,0-.45,16.39c-4.75,5.88-9.87,9-10.28,14.22-2.21.16-2.81,2.08-1,4.45.63-2.22,3.79-3.21,11.1,1.91,9.23,6.49,21.64,9.94,21.64,9.94,7.54.81,21.58,2.53,32.3-5.27,0,0,7.83-5.39,6.31-9.29s-7.48-8.52-7.48-8.52,0-18.27-4.19-27.17a74.19,74.19,0,0,0,11.13-5.11s2.31,3.13,3.71-1.73A12,12,0,0,0,137.54,129.2Z"/></g></g><g class="cls-35"><path class="cls-2" d="M118.63,152.33c-3.29-13.22-7.69-14.57-19.55-3.93s-9.23,6.24-13.18-1.15-6.15-3.71-7.47,1.15A41.56,41.56,0,0,0,77.62,163c.36,2.78,5-1.21,14.15,3.06s16.55,6.21,23.17,4.82S121.64,164.41,118.63,152.33Z"/></g><g class="cls-35"><path class="cls-2" d="M114.05,131.5s4.56-3.07,15.39-3.75c1.74-.13,2.4-1.46,3.34-2s2.28,2.55,2.81,4.55-2.15,1.6-3.75-.27,1.34,1.74-4,3.88S107.37,136,114.05,131.5Z"/></g><path class="cls-36" d="M129,207c.49-9,.62-16.12.62-16.12a31,31,0,0,1-13,5.31C117.06,199.35,119.06,205.76,129,207Z"/><path class="cls-37" d="M129.33,207.32l-.34,0c-10.39-1.24-12.29-8.18-12.64-11.09l0-.31.31-.06a31.17,31.17,0,0,0,12.82-5.24l.53-.4v.66c0,.08-.13,7.2-.62,16.13Zm-12.28-10.91c.48,3.42,2.67,9,11.67,10.16.38-7.19.53-13.16.57-15.09A31.46,31.46,0,0,1,117.05,196.41Z"/><g class="cls-6"><path class="cls-36" d="M128.07,206.14c-1-.72-2.22-1.69-2.5-3-.06-.31-1.5-.43-1.75-.57a5.2,5.2,0,0,1-1.75-1.48c-.95-1.39-1.53-4.1.53-4.9,1.51-.61,3.13-.18,4.66-.61a10.05,10.05,0,0,0,2.28-1c.07-2.4.1-3.84.1-3.84a31,31,0,0,1-13,5.31c.38,3.21,2.38,9.62,12.34,10.81,0,0,0-.09,0-.14C128.7,206.6,128.38,206.38,128.07,206.14Z"/></g><path class="cls-36" d="M146.22,227.89C140.11,225.67,130,227,130,227s-.08-2.81-2.16-3.81c.54-5.42.94-11.15,1.21-16.27-10-1.19-12-7.6-12.34-10.81-7.38,1.32-14.63.47-19.34,0-.92.2-20,1.73-23.55-.8l-.14-.12c-.62-.45-3-2.12-3.7-1.53s.83,4.25-.82,6.72c-1.92.54-5.21-.83-4.79,3-6.59,5.9-17.09,16.72-21.7,24.63S30.12,262.3,30.12,262.3s-4.63-1.1-3.08,5.27c3.51-1.1,7.25,2.42,12.3,9.45s9.67,9,12.74,7.47.66-4.84.66-4.84,8.58-22,10.54-34.49c3.3-1.32,1.77-6.82,1.77-6.82S83.31,228.13,91,223.17c3.66,10.07,6.7,33.74,25.48,32.75,19-1.15,26.86-2.64,26.86-2.64s.49,1.83,2.14,1.49,6.66-4.65,6.87-18.83C152,228.9,149.53,225.09,146.22,227.89Z"/><path class="cls-37" d="M50,285.3c-3.27,0-7.14-2.87-10.89-8.09-5.49-7.63-8.87-10.28-11.94-9.33l-.34.11-.08-.35c-.52-2.17-.4-3.77.36-4.74a3.08,3.08,0,0,1,2.81-1c.86-2.84,8.14-26.64,12.47-34.07s14.24-18,21.64-24.6a2.87,2.87,0,0,1,.53-2.25c.67-.77,1.78-.78,2.86-.8a7.52,7.52,0,0,0,1.54-.12,6.88,6.88,0,0,0,.54-4.39c-.11-1.11-.19-1.9.28-2.29a.93.93,0,0,1,.62-.21c1,0,2.78,1.21,3.48,1.73l.14.1c.89.63,3.46,1.38,10.66,1.38a123.59,123.59,0,0,0,12.63-.63h0l.54.06a93.1,93.1,0,0,0,10.35.69,48.23,48.23,0,0,0,8.42-.69l.34-.06,0,.34c.4,3.44,2.5,9.38,12,10.53l.31,0,0,.3c-.32,6-.72,11.36-1.19,16.06a4.73,4.73,0,0,1,2.1,3.63,59.42,59.42,0,0,1,6.57-.37,29.42,29.42,0,0,1,9.33,1.23,3.47,3.47,0,0,1,2.16-.88c2.44,0,4.12,3.56,4.34,9.3-.22,14.52-5.35,18.79-7.14,19.16a2.42,2.42,0,0,1-.45,0h0a2.2,2.2,0,0,1-2-1.48c-1.56.27-9.78,1.57-26.62,2.59-.39,0-.78,0-1.15,0-15,0-19.72-16.29-22.83-27.07-.59-2-1.14-4-1.69-5.54-7.31,4.69-23.31,13.68-25.39,14.84.27,1.12,1.11,5.53-1.84,6.88-1.92,11.88-9.69,32.2-10.47,34.22a4.55,4.55,0,0,1,.78,3.25,2.87,2.87,0,0,1-1.66,1.92A5,5,0,0,1,50,285.3ZM28.32,267c3,0,6.29,2.84,11.28,9.79,3.64,5,7.31,7.82,10.36,7.82a4.36,4.36,0,0,0,2-.46,2.24,2.24,0,0,0,1.32-1.48,4.13,4.13,0,0,0-.77-2.86l-.11-.15.07-.17c.08-.22,8.57-22.07,10.52-34.42l0-.19.18-.07c3-1.19,1.57-6.36,1.56-6.42l-.07-.24.22-.13c.19-.1,18.35-10.27,25.92-15.17l.35-.22.14.39c.61,1.67,1.21,3.76,1.85,6,3.31,11.5,7.9,27.37,23.3,26.55,18.7-1.13,26.73-2.61,26.82-2.63l.29-.05.08.29c0,.06.37,1.28,1.44,1.28h0l.32,0c1.35-.27,6.39-4.19,6.62-18.51-.22-5.16-1.7-8.64-3.69-8.64a3,3,0,0,0-1.88.84l-.15.13-.18-.06a27.51,27.51,0,0,0-9.28-1.27,52.83,52.83,0,0,0-6.82.42l-.37,0V227s-.09-2.62-2-3.52l-.21-.12,0-.21c.47-4.67.87-10,1.2-15.95-9.73-1.29-11.84-7.66-12.28-10.71a48.91,48.91,0,0,1-8.19.65,93.9,93.9,0,0,1-10.42-.7l-.44,0c-.85.14-6.95.64-12.71.64-5.92,0-9.64-.51-11-1.51l-.1-.07a8,8,0,0,0-3.14-1.64.41.41,0,0,0-.19.05c-.21.17-.13,1,0,1.71.14,1.43.33,3.38-.71,4.95l-.07.1-.12,0a7.74,7.74,0,0,1-1.83.17,3.29,3.29,0,0,0-2.38.56,2.42,2.42,0,0,0-.34,1.93v.16l-.13.12c-7.37,6.6-17.28,17.11-21.63,24.56C38.38,236,30.51,262.13,30.43,262.4l-.1.29-.29-.08a2.67,2.67,0,0,0-2.45.69c-.59.76-.7,2.06-.31,3.86A5.27,5.27,0,0,1,28.32,267Z"/><path class="cls-37" d="M30.12,262.3a5.27,5.27,0,0,1,1.12-.14,7.27,7.27,0,0,1,1.16.1,6.28,6.28,0,0,1,1.29.33,6.16,6.16,0,0,1,1.2.62,2.85,2.85,0,0,1,.5.38,3,3,0,0,1,.4.38,3.69,3.69,0,0,1,.51.66,2,2,0,0,1,.16.27l-.26-.18-.27-.22c-.11-.07-.25-.14-.38-.24a9.82,9.82,0,0,0-.94-.54c-.18-.1-.37-.18-.56-.27s-.4-.16-.59-.24a17.88,17.88,0,0,0-2.27-.67C30.56,262.38,30.12,262.3,30.12,262.3Z"/><path class="cls-37" d="M79.73,215.12s.93.17,2.31.51c.69.18,1.5.36,2.35.61l1.32.37c.45.14.88.25,1.37.41a8,8,0,0,1,1.32.58,3.87,3.87,0,0,1,1.16.91,6,6,0,0,1,.39.59c.08.22.17.42.25.62.12.4.22.78.31,1.12.16.69.27,1.28.35,1.69s.12.64.12.64-.38-.88-.83-2.23c-.12-.33-.25-.69-.4-1.05-.08-.17-.18-.34-.28-.52a3.38,3.38,0,0,0-.35-.47,3.3,3.3,0,0,0-1-.74,9.56,9.56,0,0,0-1.27-.52c-.4-.15-.89-.29-1.32-.42l-1.29-.42-2.3-.81C80.6,215.5,79.73,215.12,79.73,215.12Z"/><path class="cls-37" d="M127.81,223.22s0,.63,0,1.57a24,24,0,0,1-.52,3.4c-.12.6-.3,1.21-.47,1.78a15.42,15.42,0,0,1-.57,1.5,7.3,7.3,0,0,1-.56,1l-.23.37a4.26,4.26,0,0,1,.11-.42,9.09,9.09,0,0,0,.31-1.08c.11-.45.27-1,.38-1.53s.28-1.16.4-1.76c.27-1.21.54-2.43.78-3.32S127.81,223.22,127.81,223.22Z"/><path class="cls-37" d="M130,227a6,6,0,0,1,.09.73,10,10,0,0,1-.05,1.6,10.41,10.41,0,0,1-.35,1.56c-.15.43-.28.71-.28.71a7.17,7.17,0,0,1-.1-.74,8.92,8.92,0,0,1,.06-1.59,10.78,10.78,0,0,1,.34-1.56A6.63,6.63,0,0,1,130,227Z"/><path class="cls-37" d="M85.44,217l-6,4.68-5.9,4.72c-2,1.57-3.89,3.2-5.83,4.81l-2.85,2.48c-.48.41-.91.85-1.37,1.28l-1.34,1.31,0,.05h0c-.29.12-.57.29-.87.38a6.24,6.24,0,0,1-.94.26,5.88,5.88,0,0,1-.94.11,3.89,3.89,0,0,1-.48,0,3,3,0,0,1-.5,0l.32-.44,2,3.67.15.26-.28.18a2.56,2.56,0,0,0-.88.88,4.35,4.35,0,0,0-.48,1.26l-.88,2.73L56.64,251l-1.74,5.45-1.71,5.45-3.46,10.9-.88,2.73a13.08,13.08,0,0,0-.41,1.35,1.71,1.71,0,0,0,.19,1.29,3.35,3.35,0,0,0,.47.52,2.19,2.19,0,0,1,.52.53.35.35,0,0,1-.06.39,2.18,2.18,0,0,1-.24.27,3.79,3.79,0,0,0-.43.56,5.1,5.1,0,0,0-.4,2.77,5.08,5.08,0,0,1,.32-2.81,3.51,3.51,0,0,1,.42-.59c.15-.18.38-.36.28-.53-.26-.35-.75-.58-1-1a1.88,1.88,0,0,1-.28-1.44c.1-.49.26-.92.38-1.39l.8-2.75,3.28-11c1.09-3.65,2.23-7.29,3.38-10.93l1.73-5.46.87-2.72a4.81,4.81,0,0,1,.54-1.39,3.22,3.22,0,0,1,1.14-1.09l-.13.43-2-3.69-.29-.52.61.07.41,0h.45c.28,0,.57-.05.86-.1a4.87,4.87,0,0,0,.83-.23,5.2,5.2,0,0,0,.8-.34l-.07.07,1.37-1.33c.46-.44.91-.9,1.4-1.3l2.88-2.46c2-1.58,3.92-3.17,5.92-4.72C77.31,222.92,81.37,219.92,85.44,217Z"/><path class="cls-37" d="M126.88,206.59l-.59,4.46-.61,4.48-1.28,8.93-.67,4.47-.33,2.22-.17,1.12a6.28,6.28,0,0,0-.13,1c0,.13,0,.15.1.16a.6.6,0,0,0,.38,0,4.34,4.34,0,0,0,1-.33l1-.43a4.6,4.6,0,0,1,1.17-.36.81.81,0,0,1,.47.1.56.56,0,0,1,.19.21l.07.12a4.74,4.74,0,0,1,.25.55c.15.4.25.74.36,1.12.21.73.38,1.47.54,2.21l-.48-.18a10.2,10.2,0,0,1,1.29-.71,8.25,8.25,0,0,1,1.36-.51,8.73,8.73,0,0,1,1.44-.28,7.88,7.88,0,0,1,1.46,0c.48,0,.93.09,1.4.14l1.41.15,2.81.31q5.63.6,11.23,1.3-5.64-.39-11.27-.88l-2.82-.23c-.93-.09-1.88-.18-2.81-.24a7.44,7.44,0,0,0-1.34,0,7.87,7.87,0,0,0-1.35.27,7.12,7.12,0,0,0-1.27.5,6.72,6.72,0,0,0-1.18.65l-.38.25-.1-.43c-.16-.73-.34-1.46-.54-2.17-.1-.34-.22-.73-.34-1a1.85,1.85,0,0,0-.22-.48c0-.08-.12-.2-.06-.13s0,0-.08,0a4.13,4.13,0,0,0-1,.31l-1,.44a5.85,5.85,0,0,1-1.14.37,1.37,1.37,0,0,1-.74,0,.69.69,0,0,1-.36-.3.82.82,0,0,1-.13-.4,1.88,1.88,0,0,1,0-.34l0-.31.09-.56.18-1.11.35-2.23.71-4.45,1.48-8.9.77-4.44Z"/><polygon class="cls-11" points="73.6 195.56 73.45 195.45 73.84 194.92 73.99 195.03 73.6 195.56"/><g class="cls-6"><path class="cls-36" d="M146.22,227.89C140.11,225.67,130,227,130,227s-.08-2.81-2.16-3.81c.54-5.42.94-11.15,1.21-16.27-10-1.19-12-7.6-12.34-10.81-7.38,1.32-14.63.47-19.34,0-.92.2-20,1.73-23.55-.8l-.14-.12c-.62-.45-3-2.12-3.7-1.53s.83,4.25-.82,6.72c-1.92.54-5.21-.83-4.79,3a163.91,163.91,0,0,0-11.82,11.82c.89-.8,6-5,12-3.5,6.55,1.66,9.43,6.64,1.19,13.56s-18.78,7.59-13.84,9.89,1.65,14.83-1.65,23.4S45.6,271.09,39,266.47c7.25,5.93,6.59,8.9,5,10.87s-3-2.3-6.6-6.25a17,17,0,0,0-9.89-5.28,1.19,1.19,0,0,1-.74-.62,8.76,8.76,0,0,0,.31,2.38c3.51-1.1,7.25,2.42,12.3,9.45s9.67,9,12.74,7.47.66-4.84.66-4.84,8.58-22,10.54-34.49c3.3-1.32,1.77-6.82,1.77-6.82S83.31,228.13,91,223.17c3.66,10.07,6.7,33.74,25.48,32.75,19-1.15,26.86-2.64,26.86-2.64s.49,1.83,2.14,1.49,6.66-4.65,6.87-18.83C152,228.9,149.53,225.09,146.22,227.89Zm-28.44,11.56c-2.31,11.54-9.89,17.46-17.14,4.28s-5.27-28.34-13.85-29.66a29.78,29.78,0,0,1-14.49-6.92c-3.3-5.27,15.81,2.63,7.58-2.64-10.88-6.59,0-2.63,14.5-2.63s18.12-3.63,19.78-.67,4.6,5.94.32,7.26-3.63,2.64,1.32,2C123,209.13,120.09,227.92,117.78,239.45Z"/></g><g class="cls-20"><path class="cls-38" d="M42.7,230.24a6.72,6.72,0,0,0,5.59,3.14c3.81,0-.22,1.79-3.13.67S40.46,228.45,42.7,230.24Z"/></g><g class="cls-39"><path class="cls-36" d="M52.81,216.54s-8.29,7.85-9,11.43,4.48,1.12,9.18-4S60.19,212.06,52.81,216.54Z"/></g><g class="cls-39"><path class="cls-36" d="M40.5,236.32s-5.69,12.81-7.12,20.88c-1.27,5.38,7.75,3.48,9.65-8.23S43,231.1,40.5,236.32Z"/></g><g class="cls-39"><path class="cls-36" d="M97.62,231.12s3.91,13.44,10.51,14.42,3.18,5.13-3.17,1.71S95.18,227,97.62,231.12Z"/></g><path class="cls-9" d="M115.8,210.45c-5,.66-5.6-.67-1.32-2s1.32-4.29-.32-7.26-5.28.67-19.78.67-25.38-4-14.5,2.63c8.23,5.27-10.88-2.63-7.58,2.64a29.78,29.78,0,0,0,14.49,6.92c8.58,1.32,6.6,16.48,13.85,29.66s14.83,7.26,17.14-4.28S123,209.13,115.8,210.45Z"/><g class="cls-20"><path class="cls-38" d="M82.47,215.05c-7.64-2.3-6.74-.52-1.07,1.78s1.42,2.84-5,7.46-11.73,11.19-18.83,12.78c5.32,5.33,1.42,4.8-1.42,14.21s-6.57,20.42-9.06,21a7.12,7.12,0,0,1-.88,9.42c-.82.71-2.1.33-3.5-.57,3.69,3.68,7,4.59,9.33,3.41,3.08-1.54.66-4.84.66-4.84s8.58-22,10.54-34.49c3.3-1.32,1.77-6.82,1.77-6.82S83.31,228.13,91,223.17l.41,1.19C90.45,217.48,89.33,217.13,82.47,215.05Z"/></g><path class="cls-9" d="M115.8,210.45c-5,.66-5.6-.67-1.32-2s1.32-4.29-.32-7.26-5.28.67-19.78.67-25.38-4-14.5,2.63c8.23,5.27-10.88-2.63-7.58,2.64a29.78,29.78,0,0,0,14.49,6.92c8.58,1.32,6.6,16.48,13.85,29.66s14.83,7.26,17.14-4.28S123,209.13,115.8,210.45Z"/><g class="cls-20"><path class="cls-38" d="M146.22,227.89C140.11,225.67,130,227,130,227s-.08-2.53-1.87-3.65c-.4,2-.82,3.83-1.28,5.46-1.14,4.91.75-.38,1.88-1.14s.19,5.48.19,5.48,1-4.91,7.56-4.91,9.45,3.39,9.45,7,.56-2.08,1.12-4.34,4.16,1.51,2.47,11.14c-1.08,6.06-2.52,10.18-5.29,12.49a1.6,1.6,0,0,0,1.26.22c1.64-.33,6.66-4.65,6.87-18.83C152,228.9,149.53,225.09,146.22,227.89Z"/></g><path class="cls-9" d="M115.8,210.45c-5,.66-5.6-.67-1.32-2s1.32-4.29-.32-7.26-5.28.67-19.78.67-25.38-4-14.5,2.63c8.23,5.27-10.88-2.63-7.58,2.64a29.78,29.78,0,0,0,14.49,6.92c8.58,1.32,6.6,16.48,13.85,29.66s14.83,7.26,17.14-4.28S123,209.13,115.8,210.45Z"/><g class="cls-20"><path class="cls-38" d="M67.69,205.09c-2.7-2.58-3.09-3,1.29-3.09s5.78-.77,3.72-3-1.66-2.18,4-1.66a40.58,40.58,0,0,0,8.5-.65c-4.9,0-9.77-.27-11.41-1.43l-.14-.12c-.62-.45-3-2.12-3.7-1.53s.83,4.25-.82,6.72c-1.92.54-5.21-.83-4.79,3-1.71,1.53-3.68,3.38-5.74,5.43l.22-.13C66.79,203.29,70.39,207.66,67.69,205.09Z"/></g><g class="cls-20"><path class="cls-38" d="M107.16,197.77c8.87-.27,7.07,5,15.69,7.83l-.95-1a11.42,11.42,0,0,1-5.22-8.48c-7.38,1.32-14.63.47-19.34,0-.14,0-.72.09-1.6.16A34.44,34.44,0,0,0,107.16,197.77Z"/></g><g class="cls-20"><path class="cls-38" d="M109.09,253.54s6.34,1.78,9.1-5.36C120.61,241.7,121.27,258.4,109.09,253.54Z"/></g><g class="cls-35"><path class="cls-2" d="M117,131s5.27-2.45,7.2-1.22S113.44,133.25,117,131Z"/></g><path class="cls-40" d="M77.9,143.44c-.07.49-.17,1-.26,1.47s-.2,1-.3,1.47c-.21,1-.47,1.94-.73,2.9l-.3,1.13L76,149.28c-.3-1-.59-2.1-.84-3.17s-.48-2.14-.65-3.22c.44,1,.81,2,1.15,3.07s.68,2.09,1,3.15H76c.28-1,.55-1.92.89-2.87.16-.46.31-.94.48-1.41S77.7,143.89,77.9,143.44Z"/><path class="cls-40" d="M122.5,140.36s.15.35.35.85c.09.26.21.55.3.87s.2.67.32,1,.21.68.32,1,.18.62.26.88a8.37,8.37,0,0,1,.23.89,7.37,7.37,0,0,1-.57-.73,5.72,5.72,0,0,1-.46-.83,7.58,7.58,0,0,1-.4-1,8.11,8.11,0,0,1-.38-2A4.73,4.73,0,0,1,122.5,140.36Z"/></g></g></g></svg>