<svg xmlns="http://www.w3.org/2000/svg" viewBox="0 0 141.92 300"><defs><style>.cls-1{isolation:isolate;}.cls-2{fill:#fccfa8;}.cls-3{fill:#b85338;}.cls-4{fill:#c06949;}.cls-10,.cls-14,.cls-22,.cls-40,.cls-43,.cls-5{mix-blend-mode:multiply;}.cls-5,.cls-50{opacity:0.7;}.cls-6{fill:#eec6ac;}.cls-27,.cls-50,.cls-7{mix-blend-mode:screen;}.cls-14,.cls-7{opacity:0.4;}.cls-8{fill:#fbd8d5;}.cls-9{fill:#ebc4aa;}.cls-11{fill:#edceb6;}.cls-12{fill:#fff;}.cls-13{fill:#9b9995;}.cls-15{fill:#503b45;}.cls-16{fill:#5a3828;}.cls-17{fill:#3c2117;}.cls-18,.cls-28{fill:#589d44;}.cls-19{fill:#396430;}.cls-20{fill:#3b5a6d;}.cls-21{fill:#1e3844;}.cls-22,.cls-33,.cls-53{opacity:0.5;}.cls-23{fill:#1c3850;}.cls-24{fill:#0f2230;}.cls-25{fill:#e8e3e4;}.cls-26{fill:#273376;}.cls-28{fill-rule:evenodd;}.cls-29{fill:none;}.cls-30{fill:#2d6183;}.cls-31{fill:#548092;}.cls-32{fill:#644e56;}.cls-33,.cls-35{mix-blend-mode:color-dodge;}.cls-34{fill:#8f9fd0;}.cls-36{fill:#ef4c51;}.cls-37{fill:#eb8470;}.cls-38{fill:#333332;}.cls-39{fill:#0b0b0b;}.cls-40{opacity:0.6;}.cls-41{fill:#fcd4b5;}.cls-42{fill:#b98058;}.cls-43{opacity:0.8;}.cls-44{fill:#a33145;}.cls-45{fill:#eb5a61;}.cls-46{fill:#1d1c1a;}.cls-47{fill:#d7d7d7;}.cls-48{fill:#52c0c5;}.cls-49{fill:#edb2cd;}.cls-51{fill:#fcd2b6;}.cls-52{fill:#424342;}.cls-54{fill:#72706f;}.cls-55{fill:#e8f5f7;}</style></defs><g class="cls-1"><g id="Layer_2" data-name="Layer 2"><g id="Layer_1-2" data-name="Layer 1"><path class="cls-2" d="M30.92,144.5S24,157.61,17.36,174c-4.48,9.83-5.6,10-9.83,11.1s-5.6,5.55-6.72,8.7-.38,6.42,2.11,6.92c2,3.42,3.73,2.28,3.73,2.28a3.25,3.25,0,0,0,4.24,1.51c1.61,2.77,6.34,2.39,7.09-3.53,2.73-1.13,2.73-2,2.61-4.16s1.25-5.3-.25-6.42-2.11-2.65-.87-4.92,17.24-27.74,21-36.3Z"/><path class="cls-3" d="M13.73,206.47h0a3.55,3.55,0,0,1-3-1.59,3.75,3.75,0,0,1-1.23.21,3.54,3.54,0,0,1-3-1.73c-.61.22-2.16.38-3.82-2.37a3.27,3.27,0,0,1-2.09-1.65,7.06,7.06,0,0,1-.11-5.65l.16-.45c1.09-3.08,2.58-7.31,6.76-8.43l.24-.07c4-1.06,5.07-1.35,9.4-10.86,6.52-16.21,13.5-29.39,13.57-29.52a.29.29,0,0,1,.39-.12l9.56,4.66a.31.31,0,0,1,.14.39c-2.89,6.56-12.74,22.7-18,31.38-1.56,2.57-2.69,4.42-3,4.94-1,1.9-.78,3.34.8,4.54,1.11.86.85,2.59.58,4.27a12.11,12.11,0,0,0-.22,2.38C21,199,21,200,18.25,201.19,17.69,205.08,15.47,206.47,13.73,206.47Zm-2.84-2.26a.29.29,0,0,1,.25.15,3,3,0,0,0,2.59,1.52h0c1.54,0,3.5-1.29,3.95-4.93a.37.37,0,0,1,.18-.25c2.6-1.07,2.56-1.83,2.44-3.86a13.9,13.9,0,0,1,.22-2.51c.25-1.58.48-3.07-.35-3.7-1.84-1.4-2.15-3.14-1-5.3.29-.54,1.43-2.39,3-5,5.22-8.54,14.87-24.36,17.89-31l-9-4.42c-1,1.9-7.4,14.26-13.42,29.22-4.46,9.79-5.7,10.11-9.78,11.21l-.25.06c-3.89,1.05-5.26,4.94-6.36,8.06l-.16.45a6.52,6.52,0,0,0,.07,5.16A2.63,2.63,0,0,0,3,200.43a.31.31,0,0,1,.2.15c1.11,1.9,2.1,2.3,2.74,2.3a1.24,1.24,0,0,0,.59-.13.28.28,0,0,1,.4.09,3.09,3.09,0,0,0,2.64,1.66,3.15,3.15,0,0,0,1.22-.25A.28.28,0,0,1,10.89,204.21Z"/><path class="cls-4" d="M3.12,194.72l-.06.28c0,.16-.06.42-.11.71s-.07.65-.13,1c0,.19,0,.38,0,.57a5.49,5.49,0,0,0,0,.58,10.58,10.58,0,0,0,0,1.14,9,9,0,0,0,.11,1,9.88,9.88,0,0,1,.16,1s-.2-.34-.48-.91a1.16,1.16,0,0,1-.17-.46c-.05-.18-.09-.36-.13-.56a1.68,1.68,0,0,1-.08-.6c0-.2,0-.41,0-.62a7.71,7.71,0,0,1,.14-1.21,6.35,6.35,0,0,1,.32-1A3.67,3.67,0,0,1,3.12,194.72Z"/><path class="cls-4" d="M6.84,197.37s-.12.36-.24.9c-.06.25-.13.57-.18.89a6.93,6.93,0,0,0-.12,1,6.8,6.8,0,0,0,.14,1.92,5.17,5.17,0,0,0,.15.64,1.46,1.46,0,0,1,.06.26l-.16-.2a2.93,2.93,0,0,1-.37-.58,2.53,2.53,0,0,1-.19-.44,4.84,4.84,0,0,1-.14-.49,4.3,4.3,0,0,1-.07-1.14A5,5,0,0,1,5.91,199a4.1,4.1,0,0,1,.39-.89A3.58,3.58,0,0,1,6.84,197.37Z"/><path class="cls-4" d="M9.85,199.28l.12.86c0,.25.08.54.12.84s.05.32.06.48,0,.32.08.48,0,.32.09.47a3.25,3.25,0,0,0,.1.47c0,.15.08.29.11.43a2,2,0,0,0,.1.39c.17.46.26.81.26.81a7.45,7.45,0,0,1-.57-.67,3.22,3.22,0,0,1-.2-.37c-.06-.14-.13-.28-.2-.43a7.71,7.71,0,0,1-.27-1,9.11,9.11,0,0,1-.08-1,7.64,7.64,0,0,1,.06-.89A4.76,4.76,0,0,1,9.85,199.28Z"/><path class="cls-4" d="M16.88,197.86s-.24.4-.57,1c-.17.29-.36.63-.55,1s-.37.77-.53,1.17a10.11,10.11,0,0,0-.39,1.22c0,.19-.07.38-.1.56s0,.37,0,.53l0,.45a1.53,1.53,0,0,0,0,.34c0,.2.05.31.05.31a1.88,1.88,0,0,1-.15-.26,1.53,1.53,0,0,1-.17-.34c0-.13-.09-.29-.14-.47a3.74,3.74,0,0,1,0-1.22,5.64,5.64,0,0,1,.13-.67,6.14,6.14,0,0,1,.86-1.88,6.34,6.34,0,0,1,.71-1A7.53,7.53,0,0,1,16.88,197.86Z"/><path class="cls-4" d="M14.6,203.26a.46.46,0,0,1-.09-.19.93.93,0,0,1,0-.25.71.71,0,0,1,.08-.3.92.92,0,0,1,.19-.33,2,2,0,0,1,.28-.3,3.88,3.88,0,0,1,.72-.47,7.7,7.7,0,0,1,.79-.29,4.21,4.21,0,0,1,.71-.12,4.2,4.2,0,0,1,.71,0s-.25.16-.61.36l-.64.28c-.22.12-.47.22-.7.33s-.44.25-.67.35-.18.14-.27.2a.69.69,0,0,0-.22.18c0,.08-.14.14-.16.2a.71.71,0,0,0-.08.19A.87.87,0,0,0,14.6,203.26Z"/><g class="cls-5"><path class="cls-6" d="M20.34,190.4c-1.5-1.14-2.11-2.65-.87-4.92s17.24-27.74,21-36.3l-3.89-1.91c-2.81,5.33-12.42,23.59-18.21,34.43-3.11,6-3.52,6.27-2,8.15S17.59,193,16,195s-2.05,5.53-3.41,5.63-2-3.06-3.52-2.37-1.17-.4-1.75-1.39-3.41.7-3.71-1.18S3.16,193.8,1.89,194a.89.89,0,0,1-1-.43,1.23,1.23,0,0,0-.08.23c-1.12,3.14-.38,6.42,2.11,6.92,2,3.42,3.73,2.28,3.73,2.28a3.25,3.25,0,0,0,4.24,1.51c1.61,2.77,6.34,2.39,7.09-3.53,2.73-1.13,2.73-2,2.61-4.16S21.84,191.52,20.34,190.4Z"/></g><g class="cls-5"><path class="cls-6" d="M19.58,196.35c.26,1.47.26,2.09-1.2,2.87s-2,.6-1.11-2.52c-4.45,2.69-2.91,7.8-4.53,7.71s-2.66-2.76-2.66-2.76-.43,1.55-1.71,1.29-2-1.47-2.23-4.16c-.42,1.22-.77,2.87-2.06,1.91s-1.62-3.47-1.62-3.47c-.47,1.89-1.41,1.26-2.07.47a3.37,3.37,0,0,0,2.53,3c2,3.42,3.73,2.28,3.73,2.28a3.25,3.25,0,0,0,4.24,1.51c1.61,2.77,6.34,2.39,7.09-3.53,2.73-1.13,2.73-2,2.61-4.16-.09-1.61.66-3.79.4-5.26C20.62,193.49,19.39,195.21,19.58,196.35Z"/></g><g class="cls-7"><path class="cls-8" d="M29.45,149.56c-3.11,5.71-5.47,11.76-8.39,17.56-2.82,5.63-4.3,12.23-8.72,16.91-.19.21-.06.49.2.27,1.85-1.54,2.87-3.73,4-5.82,1.58-2.85,2.56-5.83,3.86-8.81,2.93-6.74,6.41-13.3,9.19-20.1C29.68,149.41,29.5,149.47,29.45,149.56Z"/><path class="cls-8" d="M10.45,185.16a20.62,20.62,0,0,1-2.85,1,6.9,6.9,0,0,0-2.24,1.52,9.72,9.72,0,0,0-2.89,4.69c-.09.32.35,0,.41-.09a11.2,11.2,0,0,1,3.41-4.88c1.21-1,2.8-1.22,4.14-2C10.5,185.36,10.61,185.1,10.45,185.16Z"/><path class="cls-8" d="M6.13,195.29a3.49,3.49,0,0,1-.7.2c-.34,0-.54-.27-.66-.52s-.34.11-.3.24c.13.32.31.62.67.68a1.39,1.39,0,0,0,1-.33C6.18,195.51,6.32,195.22,6.13,195.29Z"/><path class="cls-8" d="M9.51,197.12c-.34.18-.95.46-1.19,0-.1-.17-.41.14-.34.29.3.7,1.15.31,1.58,0C9.71,197.3,9.75,197,9.51,197.12Z"/><path class="cls-8" d="M13.27,199.37c-.26.27-.85,0-1.15-.08-.14,0-.37.28-.22.35.57.24,1.13.5,1.59-.08C13.69,199.31,13.5,199.14,13.27,199.37Z"/></g><path class="cls-2" d="M106.35,140.42s11.38,23.11,16.44,33c2.35,3.69,3.78,4,6.9,5.66s4.81,4.35,5.72,8-.26,7-2.08,7.38c-1.82,2-2.34.79-2.34.79s-1,3-5.33,3.3c-1.82,3-5.2,5.4-7.55-3.83-2,0-2-1.58-2.07-3.16s-2.35-2-.66-5.53,2.47-5.53-1.17-10-18.59-28.86-18.59-28.86Z"/><path class="cls-3" d="M122.34,201.57c-1.83,0-3.33-2.19-4.45-6.53-1.89-.12-2-1.72-2.12-3.15l0-.27a2.35,2.35,0,0,0-.53-1.16c-.58-.88-1.3-2-.09-4.53,1.73-3.63,2.34-5.42-1.14-9.7-3.6-4.44-18.46-28.63-18.61-28.88a.3.3,0,0,1,.09-.4l10.73-6.77a.24.24,0,0,1,.23,0,.27.27,0,0,1,.18.15c.12.23,11.44,23.22,16.45,33a11.19,11.19,0,0,0,5.38,4.79c.42.23.89.46,1.4.75,3,1.66,4.89,4.27,5.86,8.22a8.7,8.7,0,0,1-.59,6.38,2.76,2.76,0,0,1-1.62,1.34,3,3,0,0,1-1.9,1.18,1,1,0,0,1-.5-.14,6.13,6.13,0,0,1-5.26,3.06C125.16,199.93,123.89,201.57,122.34,201.57ZM96,147.29c1.6,2.6,15,24.41,18.42,28.57,3.69,4.53,3,6.66,1.21,10.33-1.07,2.25-.5,3.1,0,3.93a2.85,2.85,0,0,1,.62,1.45l0,.27c.13,1.68.28,2.62,1.77,2.62a.29.29,0,0,1,.29.23c1,4.12,2.4,6.29,3.94,6.29,1,0,2.09-.93,3.07-2.55a.25.25,0,0,1,.23-.14c4-.25,5-3,5.06-3.1a.33.33,0,0,1,.28-.2.32.32,0,0,1,.28.17.32.32,0,0,0,.32.18c.21,0,.7-.14,1.54-1.05a.29.29,0,0,1,.15-.09,2.22,2.22,0,0,0,1.34-1.09,8.15,8.15,0,0,0,.51-5.92c-.94-3.83-2.66-6.25-5.57-7.85-.5-.28-1-.52-1.39-.74a11.54,11.54,0,0,1-5.6-5c-4.73-9.19-15-30-16.34-32.72Z"/><path class="cls-4" d="M118.29,191.33a1.82,1.82,0,0,1,.32.16,1.73,1.73,0,0,1,.34.25,2.28,2.28,0,0,1,.41.37c.13.14.27.31.42.5a4.52,4.52,0,0,1,.38.61,5.66,5.66,0,0,1,.34.7c.08.25.17.51.26.77l.12.37.05.4c0,.25.08.51.12.76a6.16,6.16,0,0,1,.06.72c0,.22,0,.44,0,.64,0,.79-.12,1.31-.12,1.31s-.11-.53-.22-1.29c0-.2,0-.4-.08-.62a6.34,6.34,0,0,0-.14-.68c0-.23-.1-.48-.14-.72l-.07-.37-.13-.36c-.07-.24-.14-.48-.22-.72a6.69,6.69,0,0,0-.27-.67c-.1-.2-.17-.43-.29-.62l-.31-.52c-.09-.17-.21-.29-.3-.43a1.32,1.32,0,0,0-.25-.3A2.51,2.51,0,0,0,118.29,191.33Z"/><path class="cls-4" d="M118.11,194.75a1.23,1.23,0,0,1,.56-.18.88.88,0,0,1,.28,0,1.32,1.32,0,0,1,.33.05,2.67,2.67,0,0,1,.33.12,1.17,1.17,0,0,1,.3.19c.09.08.2.15.28.23l.2.29a1.18,1.18,0,0,1,.25.55,3.4,3.4,0,0,1,.09.57s-.18-.17-.38-.4l-.16-.21-.2-.17c-.06-.08-.14-.14-.19-.21a1.24,1.24,0,0,0-.23-.17.91.91,0,0,0-.23-.17,1.88,1.88,0,0,1-.24-.14,2.44,2.44,0,0,0-.24-.1,2.18,2.18,0,0,0-.23-.09l-.36-.12Z"/><path class="cls-4" d="M125.36,198.69a2,2,0,0,1,0-.52,4,4,0,0,1,.13-.52,3,3,0,0,1,.25-.55,2.57,2.57,0,0,1,.31-.51,2.82,2.82,0,0,1,.37-.39,2.48,2.48,0,0,1,.42-.33,3.16,3.16,0,0,1-.15.52c0,.14-.12.31-.19.46s-.16.35-.25.53a8.54,8.54,0,0,1-.58.91c-.09.13-.19.22-.24.29Z"/><path class="cls-4" d="M131,195.28a.55.55,0,0,1,0-.12,3,3,0,0,1,0-.3,5.76,5.76,0,0,1,.13-.84,5.29,5.29,0,0,1,.31-.81c.12-.2.23-.35.23-.35a1.76,1.76,0,0,1,.1.42,2.34,2.34,0,0,1-.07.89,3,3,0,0,1-.17.45,2,2,0,0,1-.22.36A1.38,1.38,0,0,1,131,195.28Z"/><path class="cls-4" d="M133.36,189.7a.69.69,0,0,1,.15.17,2.54,2.54,0,0,1,.32.51c0,.11.08.24.13.37a1.65,1.65,0,0,1,.11.45c0,.15,0,.31.05.48s0,.33,0,.5,0,.32-.07.48a4.26,4.26,0,0,1-.15.47,2.48,2.48,0,0,1-.15.41,3.69,3.69,0,0,1-.19.35c-.28.41-.48.65-.48.65s.05-.33.17-.78c0-.11.07-.24.09-.36a3.28,3.28,0,0,1,.08-.41c0-.14,0-.28.07-.42a3.58,3.58,0,0,0,0-.45c0-.14,0-.29,0-.44s0-.29,0-.43a2.5,2.5,0,0,0,0-.4,3.7,3.7,0,0,0,0-.37,4.39,4.39,0,0,0-.09-.56Z"/><g class="cls-5"><path class="cls-9" d="M132.84,189.08c-.28,1.85-1.83,1.57-2.11,2.71a3.32,3.32,0,0,1-3.67,2.29c-2-.29-2.39,2.14-3.53,1.72s-1.69-3.15-3.24-6.29c-1.67-3.38-3.1-3.29-1.55-6s1.83-4.29-1.41-9.58c-7-11.47-14.69-24-17.84-29.17l-3.87,2.43s14.95,24.38,18.59,28.86,2.87,6.45,1.17,10,.52,3.95.66,5.53.12,3.16,2.07,3.16c2.35,9.23,5.73,6.86,7.55,3.83,4.29-.27,5.33-3.3,5.33-3.3s.52,1.19,2.34-.79c1.68-.36,2.8-3.18,2.25-6.51C134.81,189.13,133.06,187.66,132.84,189.08Z"/></g><g class="cls-10"><path class="cls-11" d="M133.62,191.45c-.18,2.65-1.26,3.39-2.44,2.28-1.08,2.93-4.14,4.12-5.23,3.39-1.8,3.29-4.15,3.1-4.15,1.28-.09-2.74-.54-5.85-3.87-7.87,1.8,2.11,1.54,3.2-.1,2.75s-.17-2.47-1.62-3.84-.09-4.93-.09-4.93v0c-.21.5-.46,1-.73,1.59-1.69,3.55.52,3.95.66,5.53s.12,3.16,2.07,3.16c2.35,9.23,5.73,6.86,7.55,3.83,4.29-.27,5.33-3.3,5.33-3.3s.52,1.19,2.34-.79a3.15,3.15,0,0,0,2-2.41A2.25,2.25,0,0,1,133.62,191.45Z"/></g><g class="cls-7"><path class="cls-8" d="M122.48,173.76c-.85-2.53-2.51-4.62-3.85-6.89s-2.77-4.84-4.1-7.28c-2.67-4.93-5-10.05-7.62-15-.07-.1-.25.09-.21.18,2.42,5.08,4.72,10.23,7.35,15.22,2.51,4.8,5.56,9.29,8,14.12C122.18,174.35,122.55,173.94,122.48,173.76Z"/><path class="cls-8" d="M130.24,180.5c-1.11-.73-2.39-1.22-3.55-1.84a11.33,11.33,0,0,1-3.27-2.86c-.08-.08-.27.14-.21.23a14,14,0,0,0,5.54,4.35,9.57,9.57,0,0,1,3.64,3,20.91,20.91,0,0,1,1.63,3.82c.1.24.49-.2.44-.39A9.54,9.54,0,0,0,130.24,180.5Z"/><path class="cls-8" d="M125.47,194.2c-.44.08-.73.42-1.13,0-.1-.09-.3.16-.23.26.37.53.83.26,1.3,0C125.47,194.46,125.65,194.17,125.47,194.2Z"/><path class="cls-8" d="M129.73,192.24c-.09-.15-.29.07-.33.16a7,7,0,0,1-.27.81c-.19.36-.59.29-.93.31-.11,0-.36.33-.18.36a3.5,3.5,0,0,0,.65.08,1.12,1.12,0,0,0,.6-.35C129.58,193.34,130,192.64,129.73,192.24Z"/><path class="cls-8" d="M132.09,188.79c0-.23-.37.16-.39.24-.08.29-.31,1.41-.73,1.12-.12-.08-.3.16-.22.25C131.35,191.08,132.19,189.28,132.09,188.79Z"/></g><path class="cls-2" d="M62.28,249.35c-1-10.39-1.81-18.86-2.17-21.52,0,0-10.18.74-16.93-1.61,0,0,.77,10.62,3,23.68C49,250.92,55.75,252.6,62.28,249.35Z"/><path class="cls-3" d="M53.93,251.55h0a24.31,24.31,0,0,1-7.9-1.37.33.33,0,0,1-.19-.24c-2.15-12.92-2.94-23.59-2.94-23.7A.31.31,0,0,1,43,226a.3.3,0,0,1,.27-.05c4,1.41,9.29,1.7,13,1.7,2.25,0,3.8-.11,3.81-.11a.28.28,0,0,1,.32.25c.3,2.28.93,8.82,1.73,17.1l.43,4.44a.3.3,0,0,1-.16.3A18.89,18.89,0,0,1,53.93,251.55Zm-7.55-1.87A23.85,23.85,0,0,0,53.93,251a18.38,18.38,0,0,0,8-1.78l-.41-4.25c-.77-8-1.38-14.31-1.7-16.79-.54,0-1.86.1-3.58.1a43.94,43.94,0,0,1-12.76-1.6C43.69,228.78,44.51,238.34,46.38,249.68Z"/><path class="cls-4" d="M52.53,277l-.05-.3,0-.29,0,.29,0-.29h0a.28.28,0,0,1,.31.26.29.29,0,0,1-.25.33v0Z"/><path class="cls-12" d="M65.06,278.81v-1.94c-1-9.05-2-18.94-2.78-27.52-6.53,3.25-13.25,1.57-16.15.55a174.52,174.52,0,0,0,6.38,26.8,10.11,10.11,0,0,1,6.18,2.64C61.15,281.84,64.27,279.34,65.06,278.81Z"/><path class="cls-13" d="M61.18,280.73h0a3.71,3.71,0,0,1-2.71-1.19,9.88,9.88,0,0,0-6-2.54.29.29,0,0,1-.27-.2,171.75,171.75,0,0,1-6.39-26.86.32.32,0,0,1,.09-.27.29.29,0,0,1,.29,0A23.6,23.6,0,0,0,53.93,251a18.31,18.31,0,0,0,8.22-1.87.26.26,0,0,1,.27,0,.27.27,0,0,1,.15.22c.83,8.57,1.81,18.53,2.78,27.52v2a.25.25,0,0,1-.13.24l-.19.14A7.16,7.16,0,0,1,61.18,280.73Zm-8.46-4.31a10.23,10.23,0,0,1,6.17,2.71,3.14,3.14,0,0,0,2.29,1h0a6.6,6.6,0,0,0,3.52-1.44l.06-.05v-1.78c-1-8.81-1.91-18.6-2.73-27.06a18.94,18.94,0,0,1-8.1,1.74,24,24,0,0,1-7.43-1.21A171.8,171.8,0,0,0,52.72,276.42Z"/><g class="cls-14"><path class="cls-15" d="M62.28,249.35a16.66,16.66,0,0,1-3,1.14,23.26,23.26,0,0,1,.79,3.25,53.69,53.69,0,0,1,.81,8,46.58,46.58,0,0,1-.33,7.09c-.16,1.46-.18,3-1.42,4a10.29,10.29,0,0,1-7.11,2.46c.15.47.29.94.45,1.39a10.11,10.11,0,0,1,6.18,2.64c2.46,2.5,5.58,0,6.37-.53v-1.94C64.08,267.82,63.1,257.93,62.28,249.35Z"/></g><path class="cls-16" d="M44.37,296.6a47.5,47.5,0,0,1-15.61-4c-.51,2.09-.21,3.66,1.92,4.24,2.87.8,14.16,4.58,23.8,1.86s15.88-3.88,15.8-7.05c0-.39,0-.92,0-1.54C64.92,293.16,53.19,297.37,44.37,296.6Z"/><path class="cls-17" d="M46.86,300a56.46,56.46,0,0,1-15.39-2.58l-.86-.25c-2.06-.56-2.75-2.07-2.13-4.6a.32.32,0,0,1,.16-.2.31.31,0,0,1,.25,0,46.53,46.53,0,0,0,15.52,3.94c.69.06,1.42.1,2.18.1,8.74,0,19.07-4,23.53-6.51a.26.26,0,0,1,.29,0,.29.29,0,0,1,.14.26v.42c0,.43,0,.81,0,1.12.08,2.92-4.43,4.16-11.92,6.2-1.28.35-2.65.72-4.09,1.13A28.51,28.51,0,0,1,46.86,300ZM29,293.05c-.43,2,.13,3.09,1.78,3.55l.87.24a54.54,54.54,0,0,0,15.23,2.57,27.33,27.33,0,0,0,7.54-1c1.44-.4,2.81-.78,4.09-1.12,7-1.91,11.57-3.15,11.5-5.62,0-.29,0-.64,0-1.06C65.26,293.19,55.16,297,46.59,297c-.77,0-1.52,0-2.24-.1A47.06,47.06,0,0,1,29,293.05Z"/><path class="cls-18" d="M70.26,290.15c0-4.37-.25-13.3-5.19-13.14a.66.66,0,0,0,0-.14v1.94c-.79.53-3.91,3-6.37.53a10.11,10.11,0,0,0-6.18-2.64h0c-.23,0-1.75.37-5.82,4.09a15.83,15.83,0,0,1-10.94,3.34c-3-.09-5.27,3.93-6.16,6.16a19.26,19.26,0,0,0-.8,2.35,47.5,47.5,0,0,0,15.61,4C53.19,297.37,64.92,293.16,70.26,290.15Z"/><path class="cls-19" d="M46.59,297h0c-.77,0-1.52,0-2.24-.1a47.24,47.24,0,0,1-15.71-4,.28.28,0,0,1-.16-.33,19.06,19.06,0,0,1,.8-2.39c.42-1.07,2.73-6.35,6.35-6.35h.1c.32,0,.65,0,1,0a15.34,15.34,0,0,0,9.79-3.3c4-3.62,5.55-4.08,5.94-4.13h.09a10.3,10.3,0,0,1,6.37,2.72,3.14,3.14,0,0,0,2.29,1,6.6,6.6,0,0,0,3.52-1.44l.06-.05v-1.78a.3.3,0,0,1,.28-.29.32.32,0,0,1,.26.12c5.15.12,5.22,9.44,5.25,13.45a.29.29,0,0,1-.14.25C65.89,293,55.44,297,46.59,297Zm-17.48-4.52a47.54,47.54,0,0,0,15.3,3.83c.69.06,1.42.1,2.18.1h0c8.64,0,18.85-3.91,23.38-6.43,0-3.59-.17-12.47-4.62-12.67v1.51a.25.25,0,0,1-.13.24l-.19.14a7.16,7.16,0,0,1-3.85,1.54,3.71,3.71,0,0,1-2.71-1.19,9.88,9.88,0,0,0-6-2.54c-.14,0-1.6.32-5.64,4a15.89,15.89,0,0,1-10.16,3.43H35.63c-3.24,0-5.41,5-5.8,6A19.37,19.37,0,0,0,29.11,292.47Z"/><path class="cls-2" d="M110.07,247.12c-2.94-13.15-5.75-26-5.75-26s-9.48,4.09-17.86,4.41c0,0,4.31,11.47,8.81,23.08C98.59,248.9,105.6,249.24,110.07,247.12Z"/><path class="cls-3" d="M100.07,249.12h0c-1.95,0-3.71-.13-4.82-.23a.3.3,0,0,1-.25-.19c-4.45-11.48-8.79-23-8.82-23.07a.32.32,0,0,1,0-.27.29.29,0,0,1,.24-.13c8.24-.33,17.68-4.36,17.78-4.4a.25.25,0,0,1,.24,0,.32.32,0,0,1,.16.2c0,.13,2.83,13,5.73,26a.3.3,0,0,1-.16.34C107.77,248.54,104.38,249.12,100.07,249.12Zm-4.59-.8c1.11.09,2.76.21,4.59.21a24.31,24.31,0,0,0,9.66-1.58c-2.63-11.74-5.15-23.31-5.61-25.43-1.71.7-9.87,3.89-17.25,4.28C87.65,227.88,91.51,238.07,95.48,248.32Z"/><path class="cls-12" d="M106.06,275.06l1.82.36s2.9-4.46,7.67-4.57c-1.3-5.2-3.43-14.54-5.48-23.73-4.47,2.12-11.48,1.78-14.8,1.47,4,10.28,8.11,20.68,9.49,23.35h0Z"/><path class="cls-13" d="M107.88,275.71h0l-1.82-.36a.27.27,0,0,1-.21-.18l-1.22-3a.19.19,0,0,1-.08-.1c-1.16-2.24-4.36-10.1-9.5-23.37a.31.31,0,0,1,0-.29.28.28,0,0,1,.26-.11c1.11.1,2.84.23,4.77.23,4.21,0,7.53-.57,9.88-1.68a.28.28,0,0,1,.25,0,.3.3,0,0,1,.15.2c2.53,11.28,4.37,19.27,5.48,23.72a.34.34,0,0,1,0,.26.28.28,0,0,1-.22.11c-4.57.12-7.41,4.4-7.44,4.44A.28.28,0,0,1,107.88,275.71Zm-1.6-.91,1.47.29c.58-.81,3.24-4.23,7.42-4.52-1.11-4.48-2.89-12.22-5.31-23a24.93,24.93,0,0,1-9.79,1.58c-1.7,0-3.24-.09-4.35-.19,5,12.82,8.08,20.48,9.25,22.79a.25.25,0,0,1,.11.12Z"/><g class="cls-14"><path class="cls-15" d="M114.4,266.11c-.74,2.52-2,4.65-4.37,4.39-3.43-.38-5.17-5.37-6.3-8-1.92-4.51-3.66-9.07-5.3-13.69-1.22,0-2.32-.12-3.16-.2,4,10.28,8.11,20.68,9.49,23.35h0l1.25,3.11,1.82.36s2.9-4.46,7.67-4.57C115.21,269.52,114.83,267.91,114.4,266.11Z"/></g><path class="cls-16" d="M101.84,288.6c0,2.93,2,3.59,9,5.43,7.39,2,21,.61,26.75-.61,3.35-.68,4.33-1.46,4-3.86-3.33,1.64-9.43,3.18-20.09,3.37C111,293.12,104.68,290.29,101.84,288.6Z"/><path class="cls-17" d="M120.72,295.32a40.56,40.56,0,0,1-10-1c-7.12-1.9-9.18-2.59-9.2-5.72a.31.31,0,0,1,.15-.26.3.3,0,0,1,.29,0c2.78,1.66,9.09,4.49,19.49,4.3,11.3-.2,17.1-1.93,20-3.35a.32.32,0,0,1,.27,0,.35.35,0,0,1,.15.23c.38,2.76-1.06,3.55-4.22,4.19A93,93,0,0,1,120.72,295.32Zm-18.55-6.19c.25,2.27,2.26,2.9,8.73,4.62a40.34,40.34,0,0,0,9.82,1,91.09,91.09,0,0,0,16.81-1.61c3.06-.61,3.93-1.29,3.79-3.12-3,1.41-8.89,3-19.83,3.23C111.48,293.41,105.21,290.83,102.17,289.13Z"/><path class="cls-18" d="M134.43,278.57c-5.69-1.59-11.39-1.58-13-3.43s-2.91-3.68-5.93-4.29c-4.77.11-7.67,4.57-7.67,4.57l-1.82-.36L104.81,272h0l.13.26c-2.55.85-3.27,1.72-2.67,3.43a20.55,20.55,0,0,0,1.22,2.82,61.35,61.35,0,0,0-1.58,9.57c0,.21,0,.39,0,.58,2.84,1.69,9.17,4.52,19.64,4.33,10.66-.19,16.76-1.73,20.09-3.37,0-.21-.06-.44-.11-.68C140.85,285.94,140.13,280.17,134.43,278.57Z"/><path class="cls-19" d="M120.5,293.24c-10,0-16.07-2.74-18.8-4.39a.3.3,0,0,1-.15-.25c0-.19,0-.38,0-.6a59.9,59.9,0,0,1,1.56-9.51,20.89,20.89,0,0,1-1.18-2.76,2.48,2.48,0,0,1,0-2c.33-.7,1.1-1.23,2.55-1.75a.29.29,0,0,1,0-.27.28.28,0,0,1,.29-.11.39.39,0,0,1,.27.19l1.2,3,1.47.29c.59-.83,3.39-4.42,7.79-4.54,2.94.59,4.32,2.23,5.78,3.95l.38.45c.9,1.05,3.47,1.49,6.45,2a63.68,63.68,0,0,1,6.36,1.33c5.47,1.53,6.49,6.76,7.1,9.88l.13.65c0,.25.09.47.12.7a.31.31,0,0,1-.16.31c-2.92,1.44-8.8,3.19-20.21,3.4Zm-18.36-4.81c2.85,1.67,9.09,4.4,19.34,4.21,11.06-.2,16.84-1.86,19.77-3.26,0-.14-.05-.29-.08-.44l-.13-.66c-.58-3-1.56-8-6.68-9.42a64.36,64.36,0,0,0-6.31-1.32c-3.21-.55-5.76-1-6.79-2.21l-.38-.45c-1.4-1.65-2.71-3.2-5.39-3.74-4.49.12-7.34,4.4-7.37,4.44a.28.28,0,0,1-.29.13l-1.82-.36a.27.27,0,0,1-.21-.18l-1.07-2.61c-1.31.47-2,.93-2.29,1.48a1.91,1.91,0,0,0,.07,1.49,21.5,21.5,0,0,0,1.18,2.78.26.26,0,0,1,0,.21,61.53,61.53,0,0,0-1.56,9.51C102.15,288.18,102.14,288.3,102.14,288.43Z"/><path class="cls-4" d="M49.66,231.54l.15,0c.07,0,.21,0,.35,0l.47.06c.18,0,.35.05.53,0a3.13,3.13,0,0,0,.53,0,3.57,3.57,0,0,0,.47,0,3.55,3.55,0,0,1,.51,0,2.51,2.51,0,0,1-.41.33,1.4,1.4,0,0,1-.51.2,1.33,1.33,0,0,1-.3.06h-.31a2.44,2.44,0,0,1-.62-.11c-.1,0-.18-.08-.26-.11a1.76,1.76,0,0,1-.23-.14A1.41,1.41,0,0,1,49.66,231.54Z"/><path class="cls-4" d="M97.54,229.26l.57,0,.55,0,.3,0,.31,0,.29,0a1.24,1.24,0,0,0,.29-.06c.18-.07.37-.08.52-.14s.53-.19.53-.19a2.94,2.94,0,0,1-.36.48,2,2,0,0,1-.51.34,3.08,3.08,0,0,1-.69.21,4.06,4.06,0,0,1-.7,0,3.84,3.84,0,0,1-.59-.16A1.71,1.71,0,0,1,97.54,229.26Z"/><path class="cls-20" d="M41.22,176.78c-.94-.1-1.88-.22-2.83-.35,0,0-8.21-1.06-3.21,5.53-2,2.4-2.44,2.74-.46,5.53-.15,2.35-.32,6-.41,10.07C41.31,195,41.4,181.38,41.22,176.78Z"/><path class="cls-21" d="M34.31,197.85a.25.25,0,0,1-.17-.06.26.26,0,0,1-.13-.24c.11-4.73.31-8.48.41-10-1.89-2.7-1.55-3.28.29-5.51l.09-.12c-1.38-1.87-1.83-3.35-1.32-4.37.59-1.24,2.37-1.5,3.76-1.5a7.71,7.71,0,0,1,1.18.07l2.83.34a.29.29,0,0,1,.26.28c.65,16.41-4.75,20.2-7.11,21.06A.13.13,0,0,1,34.31,197.85Zm2.93-21.18c-1,0-2.75.16-3.24,1.17-.4.83.07,2.19,1.41,3.94a.31.31,0,0,1,0,.37l-.24.3c-1.74,2.1-2,2.37-.2,4.87a.48.48,0,0,1,0,.18c-.09,1.38-.29,5-.4,9.62,6.35-2.86,6.47-15.72,6.32-20.07l-2.57-.31A8.81,8.81,0,0,0,37.24,176.67Z"/><g class="cls-22"><path class="cls-20" d="M41.22,176.78c-.94-.1-1.88-.22-2.83-.35a9.88,9.88,0,0,0-2.55.06c.48.3.95.65,1.44,1s2.46.8,2.69,1.53c.37,1.1-.6,2.24-1.55,3.13a9.88,9.88,0,0,1,1.16-.25c.1,0,.26,0,.23.17-.63,3.91-1.25,8.57-4.22,11.44a3.15,3.15,0,0,1-1.19.75q-.06,1.59-.09,3.33C41.31,195,41.4,181.38,41.22,176.78Z"/></g><path class="cls-20" d="M105.38,190.43a52.71,52.71,0,0,0-3.33-8.58c2.93-3,.1-3.86-2-5.14-.3-3.66-1.17-4.75-1.17-4.75a67.13,67.13,0,0,1-6.78,2C92.84,178.24,96,191.46,105.38,190.43Z"/><path class="cls-21" d="M104.34,190.79h0c-8.82,0-11.85-12.86-12.57-16.79a.3.3,0,0,1,.23-.34c4.3-1.07,6.71-2,6.74-2a.28.28,0,0,1,.33.09s.91,1.17,1.22,4.75c.22.14.47.26.7.39,1.25.7,2.44,1.35,2.59,2.47a3.2,3.2,0,0,1-1.17,2.51,53.07,53.07,0,0,1,3.24,8.44.28.28,0,0,1,0,.25.32.32,0,0,1-.21.13A9.77,9.77,0,0,1,104.34,190.79ZM92.4,174.17c.79,4.11,3.76,16,11.94,16h0c.22,0,.43,0,.65,0a51.41,51.41,0,0,0-3.2-8.18.32.32,0,0,1,0-.34c.86-.87,1.25-1.59,1.16-2.17-.11-.82-1.17-1.41-2.28-2l-.86-.49a.26.26,0,0,1-.14-.23,11.23,11.23,0,0,0-1-4.41C98,172.57,95.84,173.3,92.4,174.17Z"/><g class="cls-22"><path class="cls-20" d="M100.69,187.84a16.88,16.88,0,0,1-3-4c-.41-.63,0-1.52.51-2.23l-.89.51c-.13.14-.41.35-.54.12-1-1.73-2.27-3.67-1.07-5.59.79-1.25,2.35-2.06,3.85-2.84a5.34,5.34,0,0,0-.73-1.9,67.13,67.13,0,0,1-6.78,2c.78,4.3,4,17.52,13.32,16.49-.42-1.36-.86-2.67-1.31-3.92C103.05,187.75,101.8,188.74,100.69,187.84Z"/></g><path class="cls-20" d="M35.15,219c-2.08,1.06-1.43,5-.52,6.06s15.86,6.06,29.64,3c4.17-1.32,3.91-2.11,3.91-3.69s-.78-2.37-1.69-2C51.41,228.48,35.15,219,35.15,219Z"/><path class="cls-21" d="M54.89,229.35c-10.1,0-19.6-3.07-20.49-4.1a6.08,6.08,0,0,1-.83-4.37A2.89,2.89,0,0,1,35,218.73a.31.31,0,0,1,.28,0c.1,0,9.41,5.41,20.28,5.41a28.83,28.83,0,0,0,10.81-2c.92-.41,2.09.2,2.09,2.25v.26c0,1.63-.15,2.46-4.11,3.71A44,44,0,0,1,54.89,229.35Zm-19.74-10a2.37,2.37,0,0,0-1,1.66,5.51,5.51,0,0,0,.71,3.86c.52.61,9.37,3.89,20,3.89a43.89,43.89,0,0,0,9.33-.95c3.69-1.17,3.67-1.83,3.66-3.13v-.27c0-1.27-.54-2-1.28-1.7a29.44,29.44,0,0,1-11,2C45.28,224.74,36.39,220,35.15,219.34Z"/><path class="cls-20" d="M110.31,213.2c-12,10.81-35,7.78-35,7.78s-1.69.78-1.43,2,.26,3.69,3.25,4,18.2.4,27.7-4.87c6.25-3.16,7.93-5,7.28-7S111,212.55,110.31,213.2Z"/><path class="cls-21" d="M80.26,227.3h0c-1.24,0-2.42,0-3.13-.1-2.84-.25-3.21-2.41-3.43-3.7,0-.18,0-.34-.09-.49-.3-1.4,1.52-2.26,1.6-2.31a.29.29,0,0,1,.16,0,63.22,63.22,0,0,0,7.29.39c8.45,0,20-1.4,27.46-8.09a1,1,0,0,1,.69-.35c.6,0,1.06.68,1.6,2.32.74,2.26-1.2,4.19-7.43,7.35C96.61,226.94,83.94,227.3,80.26,227.3Zm-4.88-6c-.29.15-1.37.79-1.2,1.61,0,.15.07.32.11.51.2,1.27.5,3,2.89,3.21.7.06,1.85.1,3.08.1,3.65,0,16.2-.36,24.45-4.94,6.66-3.38,7.67-5,7.15-6.63s-.92-1.91-1-1.91a.52.52,0,0,0-.3.18c-7.55,6.83-19.3,8.25-27.85,8.25A66.25,66.25,0,0,1,75.38,221.28Z"/><path class="cls-23" d="M110.31,213.2a181.75,181.75,0,0,0-4.93-22.77c-9.35,1-12.54-12.19-13.32-16.49a145.37,145.37,0,0,1-50.84,2.84c.18,4.6.09,18.2-6.91,20.78-.16,7.05-.07,15.52.84,21.44,0,0,16.26,9.48,31.34,3.42,0-10.4-.26-19.5.91-19.5S75.33,221,75.33,221,98.35,224,110.31,213.2Z"/><path class="cls-24" d="M55.57,224.74c-11,0-20.47-5.43-20.57-5.48a.33.33,0,0,1-.14-.21c-1-6.23-1-15.13-.85-21.5a.31.31,0,0,1,.19-.27c6.89-2.53,6.89-16.32,6.72-20.49a.27.27,0,0,1,.1-.22.3.3,0,0,1,.23-.08,157.28,157.28,0,0,0,17.59,1A139,139,0,0,0,92,173.66a.26.26,0,0,1,.22,0,.33.33,0,0,1,.13.19c.7,3.82,3.62,16.3,12,16.3h0c.33,0,.67,0,1-.06a.29.29,0,0,1,.31.21,174.37,174.37,0,0,1,4.95,22.81.28.28,0,0,1-.1.27c-7.54,6.82-19.29,8.24-27.84,8.24h0a62,62,0,0,1-7.37-.39.3.3,0,0,1-.23-.19c-3.07-8.19-6.75-17.1-7.67-17.84-.68.66-.65,7.61-.62,14.32,0,1.56,0,3.2,0,4.86a.3.3,0,0,1-.19.28A29.35,29.35,0,0,1,55.57,224.74Zm-20.15-5.93c1.12.63,10,5.34,20.15,5.34a28.85,28.85,0,0,0,10.62-1.93c0-1.59,0-3.17,0-4.66,0-9.11,0-13.9.82-14.76a.58.58,0,0,1,.4-.17c1.18,0,5.58,11.24,8.14,18.06a61.19,61.19,0,0,0,7.12.38c8.4,0,19.92-1.38,27.34-8a178.6,178.6,0,0,0-4.83-22.35,7.7,7.7,0,0,1-.83,0c-8.61,0-11.7-12.22-12.51-16.48a139.8,139.8,0,0,1-33,3.78,154.83,154.83,0,0,1-17.32-1c.54,15.71-4.5,19.66-6.93,20.65C34.46,204,34.5,212.71,35.42,218.81Z"/><g class="cls-14"><path class="cls-23" d="M105.38,190.43c-9.35,1-12.54-12.19-13.32-16.49a145.37,145.37,0,0,1-50.84,2.84,46,46,0,0,1-1.28,13.28,10.54,10.54,0,0,0,2.62-5.71c.78-4,2.08-3.17,3.12-2.64s.26,5.54,3.9,5,4.42-2.9,4.68-4.22,19.51.27,27.05-2.37c1-.26,1,7.64,5,6.59s4.42-4.75,4.68-6.85,1.29,4.21,3.9,7.11,4.16,4,1.3,7.64S93,199.89,98,196.2s7-.52,9.89,15c0,0-17.7,7.64-23.68,7.11s-2.6-1.85-4.68-5,.52-3.17,3.64-6.59.27-2.12-3.37.27-5-2.91-7.3-6.07,7.29-4.75,9.9-8.7c1.81-2.37-13.27,9-30.18,6.06-4.42-.79,1.56,3.69,7.55,3.43s2.16,1.33-.52,3.42c-3.39,2.64-2.34,2.37,1,1.06s2.47-.63,2.86,4.48c.53,6.85-.25,10.28-6.75,11.33s-19.77-1.85-20.81-6.59a17.55,17.55,0,0,0-1-3.14c.14,2.42.35,4.71.66,6.7,0,0,16.26,9.48,31.34,3.42,0-10.4-.26-19.5.91-19.5S75.33,221,75.33,221s23,3,35-7.78A181.75,181.75,0,0,0,105.38,190.43Z"/></g><path class="cls-2" d="M66.15,128.85c10.5-.36,11-9.58,10.89-13-2.65.05-4.44.16-4.44.16l-.21-3.87-12.19.51v3.24s-1.72.17-4.53.6C55.41,120,55.68,129.2,66.15,128.85Z"/><path class="cls-3" d="M65.58,129.15c-3.28,0-5.81-1-7.56-2.88-2.73-3-2.83-7.4-2.64-9.79a.27.27,0,0,1,.24-.26c2.18-.32,3.71-.51,4.29-.57v-3a.28.28,0,0,1,.28-.3l12.18-.51a.27.27,0,0,1,.31.28l.2,3.58c.62,0,2.14-.1,4.15-.14h0a.28.28,0,0,1,.29.28c.1,2.38-.13,6.81-3,9.94-1.9,2.09-4.66,3.21-8.18,3.33Zm-9.64-12.38c-.15,2.33,0,6.4,2.5,9.11,1.64,1.78,4,2.68,7.14,2.68h.56c3.37-.12,6-1.17,7.79-3.15,2.58-2.84,2.89-6.88,2.83-9.21-2.46,0-4.13.14-4.14.14a.28.28,0,0,1-.22-.07.31.31,0,0,1-.09-.21l-.2-3.57L60.49,113v3a.28.28,0,0,1-.26.29S58.58,116.38,55.94,116.77Z"/><path class="cls-25" d="M114.54,135.8c-13.46-13-21.47-19.37-28.28-19.76-3.35-.2-6.67-.2-9.22-.16.15,3.39-.39,12.61-10.89,13S55.41,120,55.67,116.52c-2.25.32-5.2.82-8.55,1.51-7.54,1.55-14.09,10-22.07,22.14,7.43,7.73,14.39,9.52,14.39,9.52s-1.69,16.88-2.47,27c19.9,5.26,52.4,1,62.74-4.15a224.19,224.19,0,0,0-3.51-25.1S110.44,141.34,114.54,135.8Z"/><path class="cls-13" d="M59.06,179.42h0A88.93,88.93,0,0,1,36.9,177a.29.29,0,0,1-.22-.3c.72-9.37,2.23-24.65,2.44-26.77-1.3-.41-7.65-2.64-14.28-9.55a.3.3,0,0,1,0-.37c8.48-13,14.84-20.74,22.26-22.27,2.83-.58,5.71-1.09,8.55-1.51a.27.27,0,0,1,.24.08.26.26,0,0,1,.09.24c-.16,2.28-.07,6.53,2.49,9.34,1.64,1.78,4,2.68,7.14,2.68h.56c3.37-.12,6-1.17,7.79-3.15,2.69-3,2.92-7.23,2.81-9.5a.37.37,0,0,1,.08-.22.31.31,0,0,1,.21-.09c.81,0,1.71,0,2.65,0,2.35,0,4.57.07,6.59.19,7.15.41,15.52,7.29,28.47,19.84a.29.29,0,0,1,0,.39c-3.86,5.22-16.34,10.83-18.24,11.66A230.39,230.39,0,0,1,100,172.53a.33.33,0,0,1-.16.3C92.28,176.58,74.75,179.42,59.06,179.42Zm-21.78-2.93a89.93,89.93,0,0,0,21.78,2.33c15.49,0,32.75-2.76,40.34-6.44a226.38,226.38,0,0,0-3.48-24.86.28.28,0,0,1,.17-.34c.14-.05,13.86-6,18.06-11.34-12.75-12.35-21-19.11-27.91-19.51-2-.11-4.22-.17-6.56-.17l-2.34,0c.07,2.43-.26,6.64-3,9.63-1.9,2.09-4.66,3.21-8.18,3.33h-.59c-3.28,0-5.81-1-7.56-2.88-2.59-2.82-2.81-7-2.67-9.42-2.71.42-5.46.91-8.17,1.47-7.18,1.47-13.42,9.11-21.75,21.81,7.21,7.44,14,9.27,14.08,9.28a.31.31,0,0,1,.22.32C39.71,149.9,38.06,166.43,37.28,176.49Z"/><g class="cls-5"><path class="cls-9" d="M66.15,128.85c10.5-.36,11-9.58,10.89-13-2.65.05-4.44.16-4.44.16l-.21-3.87-12.19.51v3.24s-1.72.17-4.53.6C55.41,120,55.68,129.2,66.15,128.85Z"/><path class="cls-3" d="M65.58,129.15c-3.28,0-5.81-1-7.56-2.88-2.73-3-2.83-7.4-2.64-9.79a.27.27,0,0,1,.24-.26c2.18-.32,3.71-.51,4.29-.57v-3a.28.28,0,0,1,.28-.3l12.18-.51a.27.27,0,0,1,.31.28l.2,3.58c.62,0,2.14-.1,4.15-.14h0a.28.28,0,0,1,.29.28c.1,2.38-.13,6.81-3,9.94-1.9,2.09-4.66,3.21-8.18,3.33Zm-9.64-12.38c-.15,2.33,0,6.4,2.5,9.11,1.64,1.78,4,2.68,7.14,2.68h.56c3.37-.12,6-1.17,7.79-3.15,2.58-2.84,2.89-6.88,2.83-9.21-2.46,0-4.13.14-4.14.14a.28.28,0,0,1-.22-.07.31.31,0,0,1-.09-.21l-.2-3.57L60.49,113v3a.28.28,0,0,1-.26.29S58.58,116.38,55.94,116.77Z"/></g><g class="cls-10"><path class="cls-11" d="M75.27,118.54c.58-.15,1.15-.31,1.74-.49a18,18,0,0,0,0-2.17c-2.65.05-4.44.16-4.44.16l-.21-3.87-12.19.51v3.24s-1.72.17-4.53.6a15.49,15.49,0,0,0-.06,1.62C61.47,121,69.12,120.18,75.27,118.54Z"/></g><path class="cls-26" d="M96.38,148.34l-.14-.9a.06.06,0,0,1,0,0S96.27,147.76,96.38,148.34Z"/><path class="cls-26" d="M96.5,149h0c0-.27-.1-.51-.14-.71Z"/><path class="cls-13" d="M39.44,149.69s0-.37.13-1,.21-1.61.41-2.74.42-2.44.72-3.84c.14-.69.27-1.42.46-2.15s.34-1.46.52-2.22c.35-1.48.78-2.94,1.16-4.32s.88-2.62,1.24-3.71a13.66,13.66,0,0,1,.58-1.45c.19-.42.35-.79.48-1.1l.44-.95s-.11.37-.29,1-.5,1.53-.79,2.63-.65,2.38-1,3.76-.75,2.84-1.08,4.33-.73,3-1.07,4.33-.67,2.67-1,3.78-.53,2-.69,2.67Z"/><path class="cls-13" d="M88.8,124s.79,1.33,1.75,3.43c.26.52.51,1.1.77,1.71s.55,1.25.81,1.92c.5,1.36,1.06,2.8,1.52,4.28.22.74.45,1.48.66,2.21s.41,1.46.57,2.17.32,1.39.46,2,.28,1.26.36,1.84c.17,1.14.28,2.11.37,2.78s.13,1.05.13,1.05l-.27-1c-.16-.66-.42-1.59-.66-2.71s-.7-2.4-1.06-3.79c-.18-.7-.38-1.41-.62-2.13s-.45-1.45-.68-2.19-.47-1.46-.71-2.17-.49-1.42-.71-2.1c-.51-1.35-.91-2.64-1.34-3.71s-.72-2-1-2.61Z"/><g class="cls-5"><path class="cls-6" d="M60.11,227.83s-10.18.74-16.93-1.61c0,0,.77,10.62,3,23.68,2.9,1,9.62,2.7,16.15-.55C61.27,239,60.47,230.49,60.11,227.83ZM54.45,249.1c-3.67.44-4.75-1.53-5.83-8.32s2.81-6.13,2.81-6.13C57.91,233.56,58.12,248.66,54.45,249.1Z"/></g><g class="cls-5"><path class="cls-6" d="M59.18,243.77c.22,2.21.38,4.4.56,6.62a20,20,0,0,0,2.54-1c-1-10.39-1.81-18.86-2.17-21.52,0,0-1.1.07-2.83.1C57.75,233.23,58.66,238.48,59.18,243.77Z"/></g><g class="cls-5"><path class="cls-6" d="M104.32,221.1s-9.48,4.09-17.86,4.41c0,0,4.31,11.47,8.81,23.08,3.32.31,10.33.65,14.8-1.47C107.13,234,104.32,221.1,104.32,221.1Zm-7,5.09s3.9-2.05,4.53-1.06C103.75,228.14,95,229.9,97.29,226.19Zm7.81,19.43c-3.54,1.06-4.93-.69-7.13-7.2s1.75-6.52,1.75-6.52C105.92,229.71,108.66,244.56,105.1,245.62Z"/></g><g class="cls-5"><path class="cls-6" d="M90.62,225.09a32.94,32.94,0,0,1-4.16.42s4.31,11.47,8.81,23.08c.65.06,1.45.12,2.34.17Q93.68,237.06,90.62,225.09Z"/></g><g class="cls-22"><path class="cls-18" d="M65.07,277a.66.66,0,0,0,0-.14v1.94c-.79.53-3.91,3-6.37.53a10.11,10.11,0,0,0-6.18-2.64h0c-.19,0-1.3.28-4,2.56,3-1.57,5.12-1,7.3.06,2.51,1.19,3.23,3,1.91,4.7s2.75-1.21,6.45-2.06,3.82.16,3.82,2.54c0,2,1.52,4.35-10.78,7.62s-13.34,2.42-19.55.85-8-2.53-6.73-5.25a17.1,17.1,0,0,0-1.29,2.57,19.26,19.26,0,0,0-.8,2.35,47.5,47.5,0,0,0,15.61,4c8.82.77,20.55-3.44,25.89-6.45C70.22,285.78,70,276.85,65.07,277Z"/></g><g class="cls-22"><path class="cls-18" d="M119.84,290.9c-9.35-.63-15.91-2.84-15.29-6.63s.31-6.64,1.41-7.11,3,2.15,3.31,4.52c1.52-8.09,6.85-9.7,10-8.94a7.58,7.58,0,0,0-3.73-1.89c-4.77.11-7.67,4.57-7.67,4.57l-1.82-.36L104.81,272h0l.13.26c-2.55.85-3.27,1.72-2.67,3.43a20.55,20.55,0,0,0,1.22,2.82,61.35,61.35,0,0,0-1.58,9.57c0,.21,0,.39,0,.58,2.84,1.69,9.17,4.52,19.64,4.33,10.66-.19,16.76-1.73,20.09-3.37,0-.21-.06-.44-.11-.68a28,28,0,0,0-1.23-4.77c.05.25.11.52.18.79C141.82,289.48,129.19,291.53,119.84,290.9Z"/></g><g class="cls-27"><path class="cls-28" d="M32.69,288.19c.35,2,2.49,2.43,4,2.74,4.32.95,8.22.76,14.33.13a35.37,35.37,0,0,1-12.65-1.46c-1.73-.62-2.67-.75-3.61-2.45-.22-.41.27-1.37.31-1.7C35,286,32.33,286.2,32.69,288.19Z"/></g><g class="cls-27"><path class="cls-28" d="M138.85,283.71c-.36,2-2.49,2.43-3.95,2.75-4.32,1-8.22.75-14.34.12,3.83.21,9-.14,12.65-1.46,1.73-.62,2.69-.75,3.61-2.45.23-.41-.27-1.36-.31-1.69C136.57,281.48,139.2,281.72,138.85,283.71Z"/></g><path class="cls-29" d="M94.9,220.23c-.65.13-1.31.25-2,.36C93.63,220.49,94.29,220.38,94.9,220.23Z"/><path class="cls-15" d="M94.9,220.23l.79-.16a5.59,5.59,0,0,0-.59.11Z"/><g class="cls-14"><path class="cls-23" d="M75.85,217.55c-1.82-2.63-1.56-4.21-.26-6.06s3.38-2.64.78-1.85-4.94-3.16-6.5-7.37.78-2.64,3.64-5.8c-2.86,1.84-6,2.9-14.57,3.95,3.13.79,7.29-.26,6.51,1.32s-3.64,3.69-1.56,2.63,1,6.06,1.3,12.91a11,11,0,0,1-1.32,6,26.09,26.09,0,0,0,2.62-.89c0-10.4-.26-19.5.91-19.5S75.33,221,75.33,221a68.77,68.77,0,0,0,17.61-.39C86.58,221.41,77.48,219.9,75.85,217.55Z"/></g><path class="cls-30" d="M36.29,199.49c0-.3-.46.09-.46.28a60.79,60.79,0,0,0,2.42,15c.14.42.88-.33.8-.69C38.11,209.27,36.72,204.35,36.29,199.49Z"/><path class="cls-30" d="M50.62,218.45c-3.24-.26-7.42-.27-9.9-2.76-.2-.2-.64.33-.48.55,2.2,2.81,6.69,3.28,9.94,3C50.45,219.27,51,218.48,50.62,218.45Z"/><path class="cls-30" d="M80,190c-5.3,2.91-10.37,6.33-16.57,6.65a56.72,56.72,0,0,1-17.25-2.34c-.22-.06-.14.18.11.28a45.7,45.7,0,0,0,17.95,3.07c5.69-.24,11.06-4.13,15.78-6.91C80.38,190.57,80.62,189.7,80,190Z"/><g class="cls-22"><path class="cls-15" d="M68.18,224.4c0-1.58-.78-2.37-1.69-2C51.41,228.48,35.15,219,35.15,219a2.29,2.29,0,0,0-1.07,1.2,2.65,2.65,0,0,1,1.4.43c2.65,1.53,13.64,5.18,19.9,5.18,2.84-.19,1.52,1.15,1.89,1.92s-15.71.41-23.13-3.6a2.69,2.69,0,0,0,.49.93c.91,1.05,15.86,6.06,29.64,3C68.44,226.77,68.18,226,68.18,224.4Z"/></g><g class="cls-22"><path class="cls-15" d="M104.1,222c-14.22,5.57-20.47,3.07-20.67,2.3s-1.51-1.15,4.37-1.92A39.5,39.5,0,0,0,96.07,220a66.92,66.92,0,0,1-20.74,1s-1.69.78-1.43,2,.26,3.69,3.25,4,17.82.39,27.34-4.68Z"/></g><path class="cls-31" d="M46,226c-3.85-.87-8.61-1.61-11.38-4.65-.08-.09-.28.13-.22.21,2.3,3.48,7.28,5,11.27,5.06C45.91,226.61,46.33,226.05,46,226Z"/><path class="cls-31" d="M110.7,215.48c-3.11,4-8.4,6.47-13.12,7.83-.22.07-.62.77-.22.71,4.94-.92,10.75-4.1,13.63-8.39C111.18,215.35,110.88,215.26,110.7,215.48Z"/><g class="cls-10"><path class="cls-12" d="M50.27,141.65s0,.07,0,.13C50.28,141.63,50.29,141.58,50.27,141.65Z"/><path class="cls-13" d="M50.25,142.08h-.06a.29.29,0,0,1-.23-.33,1.3,1.3,0,0,1,0-.18.32.32,0,0,1,.52-.13c.09.12.07.21,0,.42A.3.3,0,0,1,50.25,142.08Z"/><g class="cls-14"><path class="cls-32" d="M114.54,135.8c-1.26-1.22-2.45-2.36-3.61-3.46,3.84,4-.46,5.37-5.55,8.32s-6.31,1.73-2.92-3.44c-3.88,2.22-5.09,2.46-11-5.88,4.07,10.59,7.33,34.16,2,35.15s-5.58-5.66-9.71-25.09c.24,31.24-12.14,31.24-23.55,29.52-11.09-1.67-10.25-27-10-29.14A135,135,0,0,0,46.62,168c-6.3-4.91-4.61-17-3.14-37.12-3.4,8.6-4.86,15.23-8,13.51-3.89-2.45-8.5-5.16-7-7.13a18.41,18.41,0,0,0,1.8-4.61c-1.67,2.31-3.38,4.83-5.17,7.56,7.43,7.73,14.39,9.52,14.39,9.52s-1.69,16.88-2.47,27c19.9,5.26,52.4,1,62.74-4.15a224.19,224.19,0,0,0-3.51-25.1S110.44,141.34,114.54,135.8Z"/></g><g class="cls-14"><path class="cls-32" d="M98.38,166.05c-2.79,5.29-8.86,7.69-14.32,9A91.34,91.34,0,0,1,64,177c-3.2,0-6.41.09-9.6-.09-3.72-.22-8-.62-11.18-2.8s-3.93-5.43-4.49-9c-.19-1.19-.33-2.38-.44-3.59-.47,5-1,10.73-1.32,15.16,19.9,5.26,52.4,1,62.74-4.15-.24-2.76-.52-5.34-.8-7.72A7.17,7.17,0,0,1,98.38,166.05Z"/></g></g><path class="cls-23" d="M54.29,116.72s-2.95,43-2.17,62c.39,5.34.09,6.32-2,6.43s-1.91-3.26-2.31-12.89,1.82-48.76,3.05-55.06Z"/><path class="cls-24" d="M50,185.4c-2,0-2.14-2.59-2.38-9.53,0-1.09-.08-2.31-.13-3.63-.38-9.47,1.78-48.64,3.05-55.14a.3.3,0,0,1,.26-.23l3.47-.45a.28.28,0,0,1,.24.08.27.27,0,0,1,.09.24c0,.42-2.94,43.19-2.17,61.93.25,3.43.24,5.21-.5,6.06a2.46,2.46,0,0,1-1.82.67Zm1.08-68c-1.27,7.08-3.38,45.44-3,54.8.06,1.32.1,2.54.13,3.63.23,6.35.32,9,1.8,9h.08a1.84,1.84,0,0,0,1.4-.47c.61-.69.6-2.43.37-5.64-.74-17.86,1.86-57.45,2.15-61.64Z"/><g class="cls-14"><path class="cls-23" d="M54.29,116.72l-.67.08c-1.09,15.31-2.5,30.61-2.38,46,0,4.5.74,9.72-.93,14a6.13,6.13,0,0,1-2.26,2.93c.21,3.92.58,5.43,2,5.37,2.14-.11,2.44-1.09,2-6.43C51.34,159.72,54.29,116.72,54.29,116.72Z"/></g><path class="cls-23" d="M77,115.88s3.95,45.21,5.11,57.27c1.56,9.49,1.76,12.45,4.49,11.85s1.76-5.72.59-14.62-2.14-21.94-3.52-33.4-3.27-21.21-3.27-21.21Z"/><path class="cls-24" d="M86,185.37c-2.19,0-2.61-2.64-3.77-9.74l-.39-2.43c-1.16-11.94-5.08-56.84-5.12-57.28a.35.35,0,0,1,.06-.23.32.32,0,0,1,.22-.1l3.39-.12a.3.3,0,0,1,.3.24c0,.1,1.94,9.89,3.29,21.24.65,5.47,1.21,11.26,1.75,16.86.58,6.11,1.15,11.89,1.76,16.53.11.82.21,1.59.31,2.35,1,7.74,1.62,12-1.12,12.61A3.41,3.41,0,0,1,86,185.37Zm-8.68-69.2c.37,4,4,45.56,5.1,57l.39,2.42c1,6.54,1.5,9.24,3.19,9.24a2.88,2.88,0,0,0,.55-.06c2.22-.49,1.64-4.8.67-11.95-.1-.75-.2-1.53-.31-2.35-.62-4.65-1.17-10.44-1.76-16.56-.55-5.6-1.1-11.38-1.75-16.84-1.23-10.32-2.92-19.35-3.23-21Z"/><g class="cls-14"><path class="cls-23" d="M85.17,175.39c-1.46-2.49-1.24-5.64-1.59-8.42-.44-3.43-1-6.85-1.19-10.31-.18-3.67-.27-7.37-.68-11s-1.18-7.4-1.72-11.09c-.93-6.2-1.67-12.44-2.4-18.67H77s3.95,45.21,5.11,57.27c1.56,9.49,1.76,12.45,4.49,11.85,1.76-.38,2-2.66,1.61-6.61C86.84,178.14,85.9,176.66,85.17,175.39Z"/></g><g class="cls-33"><path class="cls-34" d="M57.13,130.33s8.32,7.9,17.16-.79c4.42-4.21,8.84,29.25-6.75,31.1S52.71,123.22,57.13,130.33Z"/></g><g class="cls-35"><path class="cls-36" d="M44.44,120.72S36,124.37,30.26,136.6C29.51,132.3,39.2,121.35,44.44,120.72Z"/></g><g class="cls-35"><path class="cls-36" d="M89.19,118.74s8.9,2.31,16.39,13.51C105.67,127.9,94.44,118.56,89.19,118.74Z"/></g><path class="cls-30" d="M50,145.33c.85-8.65.82-17.37,1.48-26,0-.19-.3,0-.3.16C50,128.69,49.78,138,49,147.29c-.43,5.13-.39,10.26-.46,15.4-.05,3.67-1.16,8.11.3,11.57.17.41.83-.32.75-.64-1-4.09-.17-8.81-.11-13C49.52,155.51,49.49,150.43,50,145.33Z"/><path class="cls-30" d="M83.06,144.41c-1.39-8.56-1.9-17.28-3.1-25.88,0-.18.28,0,.31.14,1.72,9.14,2.56,18.43,3.93,27.64.76,5.09,1,10.21,1.43,15.34.28,3.64,1.66,8,.43,11.57-.16.41-.86-.28-.8-.61.76-4.14-.39-8.79-.69-13C84.18,154.54,83.89,149.46,83.06,144.41Z"/><path class="cls-37" d="M55.56,84.14c-.4-.07-.76.59-.3.68S56,84.23,55.56,84.14Z"/><path class="cls-37" d="M57.88,82.46a.1.1,0,0,1,0,0c-.1-.12-.29-.07-.39,0a.1.1,0,0,1-.06,0c-.2.17-.2.58.14.57S58.06,82.7,57.88,82.46Z"/><path class="cls-37" d="M59.75,84.11c-.32,0-.61.49-.24.55S60.11,84.18,59.75,84.11Z"/><path class="cls-37" d="M57.61,85.51c-.44-.09-.84.66-.33.75S58.1,85.61,57.61,85.51Z"/><path class="cls-37" d="M62.38,82.08c-.2,0-.38.3-.15.34S62.61,82.12,62.38,82.08Z"/><path class="cls-37" d="M53.6,86.31c-.22,0-.42.33-.16.38S53.86,86.36,53.6,86.31Z"/><path class="cls-37" d="M66.25,79c-.39-.07-.74.59-.29.69S66.71,79.11,66.25,79Z"/><path class="cls-37" d="M72.66,79.34l0,0c-.09-.13-.29-.09-.39,0s0,0,0,0c-.21.17-.21.57.13.57S72.83,79.58,72.66,79.34Z"/><path class="cls-37" d="M74.53,81c-.32-.06-.6.48-.24.56S74.89,81.06,74.53,81Z"/><path class="cls-37" d="M72,83.31c-.31-.06-.59.48-.23.55S72.36,83.38,72,83.31Z"/><path class="cls-37" d="M69.16,80.86c-.42-.09-.82.65-.32.75S69.67,81,69.16,80.86Z"/><path class="cls-37" d="M68.38,83.17c-.22,0-.42.34-.17.39S68.64,83.22,68.38,83.17Z"/><path class="cls-37" d="M74.69,85.41c-.23,0-.43.33-.17.38S75,85.46,74.69,85.41Z"/><path class="cls-37" d="M60.91,80.81c-.26,0-.51.4-.2.46S61.23,80.87,60.91,80.81Z"/><path class="cls-37" d="M66.17,87.16c-.29,0-.54.43-.22.5S66.5,87.22,66.17,87.16Z"/><path class="cls-37" d="M60.28,88.31c-.17,0-.31.25-.13.28S60.46,88.35,60.28,88.31Z"/><path class="cls-37" d="M59.5,86.69c-.16,0-.3.24-.12.28S59.67,86.73,59.5,86.69Z"/><path class="cls-37" d="M67.59,86.07c-.17,0-.33.25-.14.29S67.79,86.1,67.59,86.07Z"/><path class="cls-37" d="M69.41,87.53c-.17,0-.33.26-.13.29S69.6,87.57,69.41,87.53Z"/><path class="cls-37" d="M72.05,86c-.18,0-.33.26-.13.3S72.24,86.06,72.05,86Z"/><path class="cls-37" d="M65.81,84.26c0-.37-.45-.28-.53,0,0,0,0,0,0,.07-.1.35.5.33.53,0A.24.24,0,0,1,65.81,84.26Z"/><path class="cls-37" d="M56.53,88.58c-.27-.06-.52.4-.2.47S56.85,88.63,56.53,88.58Z"/><path class="cls-38" d="M118.61,20.35c-9.32-9.39-16.25-7-16.25-7s2.83-3.41,2-4.13-9.46,3.84-9.46,3.84S94,4.63,92.47,3.85c-.28-.14-1,5.55-1,5.55S82.92-1.76,70.78.62,19.55,11.12,9.44,37.23a21.24,21.24,0,0,0,4.67-3.55,10.43,10.43,0,0,1,.73-.85,9.4,9.4,0,0,1-.73.85C11.87,36.47,5.39,45.8,8.76,56.56c1-4.74,3.37-5.08,3.37-5.08S5,63.43,23.78,73.66A57.21,57.21,0,0,0,22.5,60C20.92,53.52,25,47.57,25,47.57a11.93,11.93,0,0,0,4.85-.13c1.84-.66,7.09-8.84,16.15-11.75-5.64,5.15-6.43,7.66-6.43,7.66a60.79,60.79,0,0,0,9.18,1.45A120.76,120.76,0,0,1,64.89,33.31s-7,5.95-8.53,9.77a20.69,20.69,0,0,0,8.14,1.59S77,36.09,78.8,34c-2,3.56-9.06,10-9.06,10a14.16,14.16,0,0,0,8.67.26C82.61,42.82,90.22,35,90.22,35s-2,5.4-3.41,7.39c2.76-.53,6.31-5.55,6.31-5.55A15.76,15.76,0,0,0,97.7,47.57a40.78,40.78,0,0,1,.92-6.86s5.52,9.38,6.31,11l3.28.26.26-3.29A65,65,0,0,1,110,66.32c-.65,5.42-.47,6.77-.47,6.77,6.22,3.84,8.47,3.7,8.47,3.7s3.12-2.71,1.85-8.39c2.4,2.7,2.26,3.83,2.26,3.83s2.68-7.53-1.14-12.36c3.4,2.7,3.26,4.41,3.26,4.41s4.09-10.1-.43-16.78c3.54,3.13,4.1,4.27,4.1,4.27s.57-5.27-1.55-8.83a11.24,11.24,0,0,1,4.24,3.85S131.05,33.28,118.61,20.35Z"/><path class="cls-39" d="M118,77.07c-.42,0-2.82-.19-8.58-3.74l-.13-.07v-.14c0-.05-.18-1.44.47-6.82a62.62,62.62,0,0,0-1.16-15.7l-.13,1.65-3.73-.31-.07-.15C104,50.48,100,43.6,98.75,41.48a38.42,38.42,0,0,0-.76,6.1l0,.65-.45-.45a16.2,16.2,0,0,1-4.64-10.1c-1.07,1.39-3.75,4.59-6,5l-.7.14.42-.58a34.4,34.4,0,0,0,2.92-6.1c-2.18,2.12-7.61,7.22-11,8.38a11.63,11.63,0,0,1-3.79.6,15.69,15.69,0,0,1-5.07-.86l-.43-.17.33-.31a81.56,81.56,0,0,0,7.71-8c-3.91,3.16-12.18,8.86-12.6,9.15l-.07.05H64a23.14,23.14,0,0,1-7.78-1.62l-.28-.1.11-.27c1-2.48,4.19-5.77,6.38-7.86A118.79,118.79,0,0,0,48.93,45l-.08.07h-.11c-2.88,0-9-1.41-9.25-1.46l-.3-.07.1-.29c0-.11.78-2.34,5.5-6.85-5.56,2.17-9.61,6.33-12.1,8.88a10.9,10.9,0,0,1-2.75,2.41,7.59,7.59,0,0,1-2.5.35,18.06,18.06,0,0,1-2.32-.17c-.6.94-3.75,6.32-2.35,12a58,58,0,0,1,1.3,13.75l0,.46-.4-.22c-7-3.83-11.29-8.33-12.66-13.39A12.81,12.81,0,0,1,11.54,52c-.72.48-1.87,1.66-2.5,4.58l-.22,1.06-.32-1c-2.81-8.94,1.14-16.93,3.85-21a28,28,0,0,1-2.77,1.87l-.7.4.3-.76C13.91,24.91,28.43,8.61,70.73.33A18.24,18.24,0,0,1,74.18,0c8.9,0,15.43,6.79,17.1,8.71.66-5.15.9-5.15,1.18-5.15l.14,0c1.48.74,2.3,7.2,2.51,9.05,1.54-.8,7.33-3.76,8.93-3.76a.74.74,0,0,1,.48.15c.82.68-.53,2.71-1.43,3.88a11,11,0,0,1,1.5-.11c2.59,0,7.88.95,14.22,7.33,12.38,12.88,12.1,26.52,12.1,26.66l0,1-.49-.82a11.55,11.55,0,0,0-3.31-3.29,17.61,17.61,0,0,1,1.14,8.14l-.1,1-.43-.87a15.28,15.28,0,0,0-2.73-3c3.1,6.59-.27,15.09-.43,15.47l-.7,1.72.16-1.85s0-1.08-1.69-2.86c2.27,4.76.21,10.67.11,10.94l-.86,2.43.31-2.55s0-.87-1.5-2.81c.72,5-2,7.49-2.13,7.6l-.07.06Zm-8.17-4.15c5.28,3.24,7.61,3.55,8.09,3.58.46-.46,2.78-3.1,1.68-8l-.24-1.06.73.82a11.65,11.65,0,0,1,2.06,3c.56-2.15,1.52-7.48-1.37-11.13l-1.51-1.93,1.91,1.53a9.75,9.75,0,0,1,3.13,3.64c.85-2.58,2.91-10.28-.71-15.63l-1.26-1.86L124,47.28A33,33,0,0,1,127.71,51c.06-1.58,0-5.22-1.57-7.86l-.47-.8.84.4a11.07,11.07,0,0,1,3.81,3.18c-.17-3.24-1.54-14.54-11.91-25.33-6.19-6.22-11.32-7.15-13.82-7.15a7.58,7.58,0,0,0-2.14.26l-1,.33.65-.78c1.4-1.7,2.34-3.45,2-3.72H104c-1.38,0-7,2.79-9,3.87l-.36.2,0-.41c-.3-3-1.09-7.74-2-8.83-.21.78-.55,3.05-.81,5.13l-.08.69-.43-.55c-.06-.09-7-9-17.07-9a17.1,17.1,0,0,0-3.34.32C47.9,5.38,18.89,15.2,10,36.55a19.28,19.28,0,0,0,3.89-3.07c.44-.54.72-.85.72-.85l.45.35a6.81,6.81,0,0,1-.75.9c-2,2.51-8.22,11.35-5.57,21.59C9.89,51.56,12,51.21,12.1,51.2l.58-.09-.3.51a12.16,12.16,0,0,0-.84,8.77c1.3,4.79,5.33,9.09,12,12.8a56.94,56.94,0,0,0-1.3-13.14c-1.59-6.51,2.49-12.57,2.54-12.63l.09-.16.19,0a14.47,14.47,0,0,0,2.4.2,7,7,0,0,0,2.31-.31,12.25,12.25,0,0,0,2.54-2.27c2.7-2.79,7.25-7.44,13.61-9.49l1.24-.4-1,.88c-4.43,4-5.84,6.46-6.22,7.25a59.49,59.49,0,0,0,8.68,1.37A122.25,122.25,0,0,1,64.75,33.07l.33.46c-.07.06-6.61,5.67-8.34,9.39a21.29,21.29,0,0,0,7.66,1.47c1-.66,12.46-8.62,14.19-10.61l1.76-2-1.3,2.33c-1.74,3.15-7.28,8.41-8.76,9.78a15.11,15.11,0,0,0,4.43.68,11.18,11.18,0,0,0,3.6-.56C82.41,42.59,90,34.91,90,34.83l.92-.93-.45,1.22a52.07,52.07,0,0,1-3,6.8c2.49-1.12,5.36-5.16,5.4-5.21l.53-.75,0,.93a15.64,15.64,0,0,0,4,10,41.21,41.21,0,0,1,.9-6.28l.16-.68.36.61c.22.36,5.24,8.92,6.23,10.83l2.85.23.38-4.77.41,1.7a65.7,65.7,0,0,1,1.59,17.79A43.58,43.58,0,0,0,109.84,72.92Z"/><g class="cls-40"><path class="cls-38" d="M118.61,20.35c-9.32-9.39-16.25-7-16.25-7s2.83-3.41,2-4.13-9.46,3.84-9.46,3.84S94,4.63,92.47,3.85c-.28-.14-1,5.55-1,5.55S82.92-1.76,70.78.62A158.58,158.58,0,0,0,46.47,7.15c28.29-9.65,36-2.73,40.66,4.19C80.79,5,68.1,8.47,66.42,14.73c11.14-8.87,23.17,1.95,24.34,4.56,6.6-5.74,15,.25,15,.25s0-1.3-2.46-3.12c17.34,2.47,22.78,23,22.78,23a46.52,46.52,0,0,0-7.51-4.68,25.83,25.83,0,0,1,6.34,11.58l-7.5-7s1.29,4.69,2.71,10.42c-3.88-3.12-6.08-9.25-6.08-9.25l-.13,4.69s-.26-.91-2.33-5.73c1.29,5.21-.9,10.55-1,10.16s-2.33-9.77-2.33-9.77-.78,1-1.95,8.34C102.54,43.77,98.78,32,98.78,32a21.91,21.91,0,0,0-2.45,9c-2.08-5.34.13-12.5.13-12.5l-4.93,6.64s.13-1.56,3-6.64c-.9,1.17-12.3,12.11-14.24,12.5a12.24,12.24,0,0,1-4.52-.25s7-8,7-13.42c-6,7-17.74,14.46-17.74,14.46l-4.79-1A116.31,116.31,0,0,1,73.67,27.23c-15.92,6.52-24,14.2-24,14.2l-4.79-1s1.94-3.52,9.19-9.38c-11.65,2.87-20.45,8.86-23.69,12.63a39.9,39.9,0,0,0-6.08-.25c2.2-5.87,8.15-9.51,8.15-9.51l-7.25,2.22s.26-1.82,7.9-6.13c-13.08,2.87-13.72,9.77-12,10.55C13,51.58,18.26,64,18.26,64c-6.73-7.29-6-18.09,1.17-28.26C14,39.47,10.76,46.11,10.76,46.11,11.4,34.79,23.44,25.4,23.44,25.4a21.26,21.26,0,0,0-7.51,5.86,22.43,22.43,0,0,1,2.13-7.15A38.87,38.87,0,0,0,9.44,37.23a21.24,21.24,0,0,0,4.67-3.55,10.43,10.43,0,0,1,.73-.85,9.4,9.4,0,0,1-.73.85C11.87,36.47,5.39,45.8,8.76,56.56c1-4.74,3.37-5.08,3.37-5.08S5,63.43,23.78,73.66A57.21,57.21,0,0,0,22.5,60C20.92,53.52,25,47.57,25,47.57a11.93,11.93,0,0,0,4.85-.13c1.84-.66,7.09-8.84,16.15-11.75-5.64,5.15-6.43,7.66-6.43,7.66a60.79,60.79,0,0,0,9.18,1.45A120.76,120.76,0,0,1,64.89,33.31s-7,5.95-8.53,9.77a20.69,20.69,0,0,0,8.14,1.59S77,36.09,78.8,34c-2,3.56-9.06,10-9.06,10a14.16,14.16,0,0,0,8.67.26C82.61,42.82,90.22,35,90.22,35s-2,5.4-3.41,7.39c2.76-.53,6.31-5.55,6.31-5.55A15.76,15.76,0,0,0,97.7,47.57a40.78,40.78,0,0,1,.92-6.86s5.52,9.38,6.31,11l3.28.26.26-3.29A65,65,0,0,1,110,66.32c-.65,5.42-.47,6.77-.47,6.77,6.22,3.84,8.47,3.7,8.47,3.7s3.12-2.71,1.85-8.39c2.4,2.7,2.26,3.83,2.26,3.83s2.68-7.53-1.14-12.36c3.4,2.7,3.26,4.41,3.26,4.41s4.09-10.1-.43-16.78c3.54,3.13,4.1,4.27,4.1,4.27s.57-5.27-1.55-8.83a11.24,11.24,0,0,1,4.24,3.85S131.05,33.28,118.61,20.35Z"/></g><path class="cls-41" d="M109.55,73.21s.94-4.42,3.83-5.11,6.24.25,5.93,5.83-6.6,9.55-9.36,8.22C109.43,81.7,109.41,73.67,109.55,73.21Z"/><path class="cls-42" d="M109.55,73.21a9.68,9.68,0,0,1,1.55-3.52,4.25,4.25,0,0,1,3.27-1.85,5.3,5.3,0,0,1,1.94.11,3.77,3.77,0,0,1,1.75.93,4.5,4.5,0,0,1,1.08,1.67,8.6,8.6,0,0,1,.43,2.93c0,.17,0,.32,0,.51l-.06.48,0,.48c0,.16-.08.33-.11.49a6.41,6.41,0,0,1-.3,1,8.31,8.31,0,0,1-.89,1.76,10.26,10.26,0,0,1-1.23,1.54A9.65,9.65,0,0,1,115.43,81a6.38,6.38,0,0,1-.82.53c-.29.16-.57.31-.88.45a8.18,8.18,0,0,1-1.89.54,3.78,3.78,0,0,1-2-.27h0a1.35,1.35,0,0,1-.21-.6l-.06-.57c0-.37,0-.75-.07-1.12,0-.75,0-1.5-.06-2.25s0-1.51,0-2.25l0-1.13A10.17,10.17,0,0,1,109.55,73.21Zm0,0a10.18,10.18,0,0,0-.06,1.11v1.13c0,.74,0,1.5.05,2.25s.06,1.49.13,2.24c0,.37.06.74.11,1.11,0,.19,0,.37.09.55a1.79,1.79,0,0,0,.15.45l0,0a3.48,3.48,0,0,0,1.81.16,6.76,6.76,0,0,0,1.76-.59,6,6,0,0,0,.82-.46c.27-.15.52-.35.78-.53a9.15,9.15,0,0,0,1.39-1.26,9,9,0,0,0,1.14-1.47,10.31,10.31,0,0,0,.84-1.67,4.93,4.93,0,0,0,.27-.88c0-.15.09-.3.13-.45l.06-.47.06-.48,0-.45c0-.32,0-.64,0-1l0-.47L119,71.6a6.91,6.91,0,0,0-.21-.9,4.56,4.56,0,0,0-.92-1.58A4.33,4.33,0,0,0,114.38,68a4.78,4.78,0,0,0-1.82.45,4.67,4.67,0,0,0-1.41,1.25A9.61,9.61,0,0,0,109.55,73.21Z"/><g class="cls-22"><g class="cls-10"><path class="cls-41" d="M109.55,73.21s.94-4.42,3.83-5.11a5,5,0,0,1,4.25.65,3.87,3.87,0,0,0-3.84.44c-3.25,2.49-1.2,3.83.9,3.39s3.26,1.38.5,4.11c-2,2-2.87,4.83-1,4.83a5,5,0,0,1-4.23.63C109.43,81.7,109.41,73.67,109.55,73.21Z"/></g></g><path class="cls-42" d="M113.29,73.87A8.22,8.22,0,0,0,110,78.42c0,.08.08.08.11,0a19.7,19.7,0,0,1,1.2-1.82c0,.19.26.33.42.48a1.68,1.68,0,0,0,.6.22.9.9,0,0,0,.7.07,0,0,0,0,0,0,0l0-.1s0,0,0,0l0,.08c0-.14-.11-.16-.22-.25a3.79,3.79,0,0,0-.45-.34c-.15-.08-.22-.24-.36-.33s-.29-.12-.35-.21l.36-.46a8.88,8.88,0,0,1,1.54-1.35c.57-.41,1.84-.48,1.9.53,0,0,.07,0,.08,0C115.84,73.52,114,73.43,113.29,73.87Z"/><path class="cls-41" d="M24,74.58s-.31-3.62-2.55-4.45-5-.43-5.31,4.05,4.33,8.29,6.67,7.5C23.22,81.38,24,75,24,74.58Z"/><path class="cls-42" d="M24,74.58A7.58,7.58,0,0,0,23,71.65a3.53,3.53,0,0,0-1-1.13,3.78,3.78,0,0,0-1.4-.54,3.47,3.47,0,0,0-2.83.55,3.65,3.65,0,0,0-.87,1.15,6.93,6.93,0,0,0-.42,1.43,6.26,6.26,0,0,0-.1.74l0,.37V75c0,.13,0,.25.05.38a3,3,0,0,0,.14.71,7.14,7.14,0,0,0,.49,1.41,9.22,9.22,0,0,0,.75,1.29,9.65,9.65,0,0,0,1,1.13,6.18,6.18,0,0,0,1.16.95,5.69,5.69,0,0,0,1.33.66,3,3,0,0,0,1.45.06h0a2.58,2.58,0,0,0,.16-.33l.12-.43c.08-.29.15-.57.21-.87.13-.6.24-1.19.33-1.78l.26-1.79.11-.9C23.92,75.18,24,74.88,24,74.58Zm0,0a5.62,5.62,0,0,1-.05.91l-.09.9-.23,1.79L23.34,80c-.05.3-.1.6-.17.9,0,.15-.07.3-.1.45a1.2,1.2,0,0,1-.24.46v0h0a2.9,2.9,0,0,1-1.6,0,5.89,5.89,0,0,1-1.46-.62,7,7,0,0,1-1.28-.94,8.58,8.58,0,0,1-1.06-1.19,9,9,0,0,1-.84-1.35A6.26,6.26,0,0,1,16,76.2a4.18,4.18,0,0,1-.14-.8,3.67,3.67,0,0,1,0-.8v-.38c0-.17,0-.28.05-.42A4.31,4.31,0,0,1,16,73a5.45,5.45,0,0,1,.51-1.52,4.07,4.07,0,0,1,1.06-1.24,3.17,3.17,0,0,1,1.5-.57,4.6,4.6,0,0,1,1.57.12,4,4,0,0,1,1.43.63,3.73,3.73,0,0,1,1,1.2A7.64,7.64,0,0,1,24,74.58Z"/><g class="cls-22"><g class="cls-10"><path class="cls-41" d="M24,74.58s-.31-3.62-2.55-4.45a4,4,0,0,0-3.46.08A3.17,3.17,0,0,1,21,71c2.35,2.31.58,3.17-1,2.61s-2.74.77-.8,3.24c1.38,1.75,1.81,4.13.33,4a3.91,3.91,0,0,0,3.32.92C23.22,81.38,24,75,24,74.58Z"/></g></g><path class="cls-42" d="M20.91,74.74a6.63,6.63,0,0,1,2.19,4c0,.06-.06.05-.08,0a16.53,16.53,0,0,0-.78-1.58,1.07,1.07,0,0,1-.38.35,1.52,1.52,0,0,1-.51.12.72.72,0,0,1-.56,0s0,0,0,0l.06-.07s0,0,0,0a.33.33,0,0,1,0,.06c.05-.1.1-.12.19-.18a2.46,2.46,0,0,1,.39-.22c.13-.06.21-.17.33-.23s.24-.07.29-.13l-.24-.4a6.92,6.92,0,0,0-1.1-1.24c-.41-.38-1.42-.57-1.57.23,0,0-.05,0-.05,0C18.91,74.22,20.38,74.32,20.91,74.74Z"/><path class="cls-41" d="M110,66.32a65,65,0,0,0-1.57-17.68l-.26,3.29-3.28-.26c-.79-1.58-6.31-11-6.31-11a40.78,40.78,0,0,0-.92,6.86,15.76,15.76,0,0,1-4.58-10.69s-3.55,5-6.31,5.55c1.45-2,3.41-7.39,3.41-7.39s-7.61,7.78-11.81,9.23A14.16,14.16,0,0,1,69.74,44s7.09-6.47,9.06-10C77,36.09,64.5,44.67,64.5,44.67a20.69,20.69,0,0,1-8.14-1.59c1.57-3.82,8.53-9.77,8.53-9.77A120.76,120.76,0,0,0,48.74,44.8a60.79,60.79,0,0,1-9.18-1.45s.79-2.51,6.43-7.66C36.93,38.6,31.68,46.78,29.84,47.44a11.93,11.93,0,0,1-4.85.13s-4.07,6-2.49,12.42a57.21,57.21,0,0,1,1.28,13.67c-1.4,9-2.82,22.88,15.69,32.7,18.94,8.38,20.64,12.23,37.74,6.11,18.51-7.68,34.05-11.94,32.36-39.38C109.57,73.09,109.39,71.74,110,66.32Z"/><path class="cls-42" d="M63.88,115.76h0c-5.13,0-9.22-2-16-5.19-2.45-1.17-5.22-2.49-8.54-3.95-19.44-10.3-17.1-25.06-15.85-33a58.12,58.12,0,0,0-1.29-13.56c-1.59-6.51,2.49-12.57,2.54-12.63l.09-.16.19,0a14.47,14.47,0,0,0,2.4.2,7,7,0,0,0,2.31-.31,12.25,12.25,0,0,0,2.54-2.27c2.7-2.79,7.25-7.44,13.61-9.49l1.24-.4-1,.88c-4.43,4-5.84,6.46-6.22,7.25a59.49,59.49,0,0,0,8.68,1.37A122.25,122.25,0,0,1,64.75,33.07l.33.46c-.07.06-6.61,5.67-8.34,9.39a21.29,21.29,0,0,0,7.66,1.47c1-.66,12.46-8.62,14.19-10.61l1.76-2-1.3,2.33c-1.74,3.15-7.28,8.41-8.76,9.78a15.11,15.11,0,0,0,4.43.68,11.18,11.18,0,0,0,3.6-.56C82.41,42.59,90,34.91,90,34.83l.92-.93-.45,1.22a52.07,52.07,0,0,1-3,6.8c2.49-1.12,5.36-5.16,5.4-5.21l.53-.75,0,.93a15.64,15.64,0,0,0,4,10,41.21,41.21,0,0,1,.9-6.28l.16-.68.36.61c.22.36,5.24,8.92,6.23,10.83l2.85.23.38-4.77.41,1.7a65.7,65.7,0,0,1,1.59,17.79c-.64,5.28-.49,6.69-.48,6.7,1.59,25.8-11.82,31.25-28.8,38.16-1.23.49-2.48,1-3.73,1.52C71.4,114.85,67.38,115.76,63.88,115.76ZM25.12,47.89c-.6.94-3.75,6.32-2.35,12a58,58,0,0,1,1.3,13.75C22.84,81.49,20.55,96,39.6,106.1c3.31,1.47,6.08,2.79,8.54,4,6.7,3.2,10.74,5.12,15.74,5.12,3.42,0,7.39-.88,13.23-3l3.72-1.52c16.78-6.82,30-12.21,28.46-37.57,0,0-.18-1.43.47-6.81a62.54,62.54,0,0,0-1.17-15.7l-.12,1.65-3.73-.31-.07-.15C104,50.48,100,43.6,98.75,41.48a38.42,38.42,0,0,0-.76,6.1l0,.65-.45-.45a16.2,16.2,0,0,1-4.64-10.1c-1.07,1.39-3.75,4.59-6,5l-.7.14.42-.58a34.4,34.4,0,0,0,2.92-6.1c-2.18,2.12-7.61,7.22-11,8.38a11.63,11.63,0,0,1-3.79.6,15.69,15.69,0,0,1-5.07-.86l-.43-.17.33-.31a81.56,81.56,0,0,0,7.71-8c-3.91,3.16-12.18,8.86-12.6,9.15l-.07.05H64a23.14,23.14,0,0,1-7.78-1.62l-.28-.1.11-.27c1-2.48,4.19-5.77,6.38-7.86A118.79,118.79,0,0,0,48.93,45l-.08.07h-.11c-2.88,0-9-1.41-9.25-1.46l-.3-.07.1-.29c0-.11.78-2.34,5.5-6.85-5.56,2.17-9.61,6.33-12.1,8.88a10.9,10.9,0,0,1-2.75,2.41,7.59,7.59,0,0,1-2.5.35A18.06,18.06,0,0,1,25.12,47.89Z"/><g class="cls-10"><path class="cls-41" d="M98.84,71.43c-1.19,1-.49,2.25-.89,3.42a21.25,21.25,0,0,1-.88,2.08c-.92,2-.93,4-1.55,6.08a8.24,8.24,0,0,1-4.89,5.71,19.56,19.56,0,0,1-5.79.9c-2.08.07-4.15.27-6.22.17-3.44-.17-7.78-.87-10.24-3.58-2.12-2.33-2.66-5.78-5-7.95-2.51-2.36-6.65-3.41-9.72-1.45-2.8,1.78-2.5,5.6-4.44,8.08-1.64,2.11-4.6,2.62-7.1,2.74a28.15,28.15,0,0,1-9.23-.84c-3.55-1-6.5-2.71-8.27-6.07A13.73,13.73,0,0,1,23,75.84a13.64,13.64,0,0,0-.91-4.08,10.25,10.25,0,0,0-.28,3.8,47.49,47.49,0,0,0,1,6.89c.93,4.58,4.32,7,15.05,8.33,9.3.43,15-.09,15-9.27,0,0,4.08-6.43,11.14,0,0-.31-.07-.6-.1-.87a28.14,28.14,0,0,0,2.51,7c2.12,4.12,8.37,5.23,19.19,4.58,8.06-1.09,12.49-5.85,12.82-8.85a95.58,95.58,0,0,0,.79-12.28A3.41,3.41,0,0,0,98.84,71.43Z"/><path class="cls-41" d="M107.88,69.25c-4.8,1.36-8.51,2.45-8.51,2.45v3.47l13.3-4.91a11.11,11.11,0,0,1,3.46-.51C115.29,68.06,112.67,67.89,107.88,69.25Z"/></g><g class="cls-43"><path class="cls-41" d="M66.14,63.43s.09,2,1.43,1.18,13.11-9.84,20.8-4.71c1.76,1.34-1.5-3-4.17-4S71.32,56.62,66.14,63.43Z"/></g><g class="cls-10"><path class="cls-41" d="M65.65,62.43s-.67,1.26.24,1.85,2.68-1.19,5.27-3.11,10.11-6.65,16-2.86C84.28,55.36,78.51,51.58,65.65,62.43Z"/></g><g class="cls-10"><path class="cls-41" d="M44.94,95.45s1.1,2.1,8.17,1.81S72.23,94,72.44,90.84c1.88,1.42,1.69,2.1,3.18,2.71a1.87,1.87,0,0,1-1.79.19s-.52,4.55-1.27,9-3.76,5.72-6.12,5.94-7.4.11-12.23-6c-3.54-4-4.94-4.43-6.55-4.32S44.94,95.45,44.94,95.45Z"/></g><g class="cls-43"><path class="cls-41" d="M108.47,48.64l-.26,3.29-3.28-.26c-.79-1.58-6.31-11-6.31-11a40.78,40.78,0,0,0-.92,6.86,15.76,15.76,0,0,1-4.58-10.69s-3.55,5-6.31,5.55c1.45-2,3.41-7.39,3.41-7.39s-7.61,7.78-11.81,9.23A14.16,14.16,0,0,1,69.74,44s7.09-6.47,9.06-10C77,36.09,64.5,44.67,64.5,44.67a20.69,20.69,0,0,1-8.14-1.59c1.57-3.82,8.53-9.77,8.53-9.77A120.76,120.76,0,0,0,48.74,44.8a60.79,60.79,0,0,1-9.18-1.45s.79-2.51,6.43-7.66C36.93,38.6,31.68,46.78,29.84,47.44a11.93,11.93,0,0,1-4.85.13s-4.07,6-2.49,12.42a57.21,57.21,0,0,1,1.28,13.67c-1.4,9-2.82,22.88,15.69,32.7,18.94,8.38,20.64,12.23,37.74,6.11,18.51-7.68,34.05-11.94,32.36-39.38,0,0-.18-1.35.47-6.77A65,65,0,0,0,108.47,48.64ZM95.18,102c-6.26,4.63-21.63,9.62-21.63,9.62a14.51,14.51,0,0,0,2-3.31C65.49,117.61,56.3,110,56.3,110s.41,1.26,3.34,3c-5.22-1.48-12-4.77-24.41-13.31S27,74.37,26.75,69c-1.41-13.36-.84-19,4.24-18.76,3.1.18,5.37-4.83,5.37-4.83l12.19,2,5.87-4.68.21-.16-.21.16c-.42.38-1.23,1.33.42,2.15,2.09,1.06,8.77,3,10,1.89s2.72-2.1,2.72-2.1.41,1.9,4.18,2.1,10-1.25,12.12-4c-.83,4.42,2.94,3.79,6.07-.21-1.46,5.47,1.47,4.2,6.07,8,12.3,10.12,6.27,18.66,8.57,27.35C107.11,87.32,101.46,97.41,95.18,102Z"/></g><path class="cls-39" d="M31.55,30.67q-1.36.57-2.67,1.23c-.88.45-1.75.89-2.58,1.39-.43.26-.84.52-1.25.79s-.79.55-1.18.85c-.2.14-.37.31-.57.46s-.37.31-.54.48-.35.32-.51.5l-.48.54.06-.19L22,38.44l-.38-.21,2.89-1.34,1.23-.57-.91,1a9.59,9.59,0,0,0-.89,1.18c-.26.42-.52.85-.75,1.3-.1.23-.23.44-.32.68s-.2.45-.29.69a15.11,15.11,0,0,0-.47,1.44,5.86,5.86,0,0,0-.19.72,4.89,4.89,0,0,0-.16.74,10.87,10.87,0,0,0-.23,1.5c-.07.5-.07,1-.09,1.51,0,.26,0,.51,0,.76l0,.76-.16-.11c1.24-.31,2.46-.64,3.71-.94-1.21.41-2.43.8-3.64,1.19l-.15.05v-.16l-.08-.77c0-.26,0-.51,0-.78,0-.52,0-1,0-1.55s.1-1,.17-1.54a6.8,6.8,0,0,1,.15-.76,5.23,5.23,0,0,1,.18-.76A13.36,13.36,0,0,1,22.08,41c.08-.24.19-.48.29-.71s.22-.48.33-.71a12.82,12.82,0,0,1,.76-1.36A9.47,9.47,0,0,1,24.39,37l.31.45-2.88,1.3-.35.16,0-.38-.12-1.71v-.1l.06-.08.52-.57c.16-.18.37-.34.54-.52s.37-.33.57-.49.39-.32.59-.45c.41-.29.82-.56,1.24-.83s.86-.5,1.29-.74a27.21,27.21,0,0,1,2.67-1.28C29.69,31.33,30.61,31,31.55,30.67Z"/><path class="cls-39" d="M112.41,43.61s.08.2.19.57a9.35,9.35,0,0,1,.3,1.53c0,.33.08.67.09,1a11.7,11.7,0,0,1,0,1.18,16.18,16.18,0,0,1-.34,2.52c-.11.43-.21.84-.34,1.25s-.26.8-.41,1.18a20,20,0,0,1-1,2,14.68,14.68,0,0,1-.82,1.33l-.34.48.24-.54c.16-.34.39-.82.63-1.41.12-.29.27-.61.39-1s.24-.7.38-1.07.24-.78.36-1.18.2-.8.31-1.21.17-.82.24-1.23.14-.82.15-1.21a17,17,0,0,0,.11-2.16c0-.63,0-1.16-.1-1.53S112.41,43.61,112.41,43.61Z"/><path class="cls-39" d="M112.67,46a4.25,4.25,0,0,1,.79.54,3.7,3.7,0,0,1,.36.33c.11.12.23.22.33.35l.29.4a4.63,4.63,0,0,1,.24.43,1.54,1.54,0,0,1,.19.46c.06.17.1.33.14.49l-.41-.14a2.91,2.91,0,0,0,.25-.39A3.11,3.11,0,0,0,115,48a2.5,2.5,0,0,0,.1-.49,2.8,2.8,0,0,0,0-.5V46.5l-.07-.51-.13-.47c-.06-.18-.14-.32-.2-.47a1.66,1.66,0,0,0-.11-.24.57.57,0,0,1-.09-.17l0,0s0,0,0-.14a.24.24,0,0,1,.17-.13.33.33,0,0,1,.19,0s.07.06.06,0h0l0,.05.05.06c.1.15.19.3.28.46l.54.94c.35.63.69,1.27,1,1.93-.44-.58-.89-1.15-1.3-1.75l-.63-.87-.31-.44,0,0h0s0,0,0,.05a.28.28,0,0,0,.2,0,.25.25,0,0,0,.16-.14c0-.15,0-.1,0-.13a.11.11,0,0,0,0-.05s0,.05,0,.08a2.55,2.55,0,0,1,.14.24c.08.18.18.34.24.52s.12.37.17.56l.09.57c0,.19,0,.38,0,.57s0,.38-.06.58a4,4,0,0,1-.12.56,2.81,2.81,0,0,1-.23.55,2.74,2.74,0,0,1-.35.49l-.3.4-.12-.53c0-.15-.07-.29-.09-.44a1.47,1.47,0,0,0-.13-.42c-.07-.14-.1-.29-.18-.42l-.23-.39c-.09-.14-.19-.25-.27-.38s-.2-.24-.29-.36S112.9,46.21,112.67,46Z"/><path class="cls-44" d="M47.55,97.65s14.87,1.43,25.5-5.43c0,0-.59,8.1-1.62,11.35s-6.32,6.12-11.76,2.91S53.49,98.05,47.55,97.65Z"/><g class="cls-22"><path class="cls-44" d="M47.55,97.65a8.16,8.16,0,0,1,5.62,2.71,5.54,5.54,0,0,0,1.08-.44c2-1,3.08,4.71,7.27,4.58,3.2-.11,7.65-2.84,10.7-4.7.54-3.52.83-7.58.83-7.58C62.42,99.08,47.55,97.65,47.55,97.65Z"/></g><path class="cls-12" d="M63.5,101.6a25.5,25.5,0,0,0,9.08-4.46c.31-2.63.47-4.92.47-4.92-5.58,3.59-12.3,4.91-17.45,5.35C56.69,99.26,59.46,102.68,63.5,101.6Z"/><path class="cls-45" d="M64.21,107.87A7.39,7.39,0,0,0,71.26,104,5.74,5.74,0,0,0,64.21,107.87Z"/><path class="cls-42" d="M64.49,109.82h.22c.14,0,.35,0,.57,0s.24,0,.37,0a3,3,0,0,0,.41,0,6.64,6.64,0,0,0,.87-.16,6,6,0,0,0,.85-.26,3,3,0,0,1,.39-.13,2.53,2.53,0,0,0,.33-.16c.43-.2.75-.31.75-.31a7.88,7.88,0,0,1-.57.59,1.12,1.12,0,0,1-.32.24,2.87,2.87,0,0,1-.39.23,4.3,4.3,0,0,1-.43.21l-.48.13a2,2,0,0,1-.49.09l-.48,0a3.15,3.15,0,0,1-.44,0l-.4-.07A2.43,2.43,0,0,1,64.49,109.82Z"/><path class="cls-42" d="M45.12,95.76a4.86,4.86,0,0,0,.36.46,4.76,4.76,0,0,0,.81.81,3.21,3.21,0,0,0,.5.31,2.81,2.81,0,0,0,.48.21c.31.13.54.19.54.2a.72.72,0,0,1-.15.06,3,3,0,0,1-.43.07,1.53,1.53,0,0,1-.3,0,2.1,2.1,0,0,1-.33-.06,3.07,3.07,0,0,1-.34-.14c-.1-.06-.21-.12-.32-.2a2,2,0,0,1-.74-1.1A1.94,1.94,0,0,1,45.12,95.76Z"/><path class="cls-42" d="M72.76,91.07l.31.41c.18.23.4.53.63.8a5.13,5.13,0,0,0,.7.7,1.85,1.85,0,0,0,.29.21l.12.09h-.15a1.08,1.08,0,0,1-.39,0,1.3,1.3,0,0,1-.52-.2,1.92,1.92,0,0,1-.49-.42,2.48,2.48,0,0,1-.49-1.05A1.72,1.72,0,0,1,72.76,91.07Z"/><path class="cls-42" d="M47.55,97.65a50.24,50.24,0,0,0,6.61-.08c.55,0,1.1-.11,1.64-.16s1.1-.13,1.64-.19,1.09-.14,1.63-.24,1.1-.16,1.63-.29l1.6-.35,1.6-.42c.53-.13,1.05-.31,1.57-.48s1-.32,1.56-.54l1.53-.6c.51-.21,1-.47,1.49-.7s1-.48,1.45-.77L72.91,92l.44-.26,0,.5c-.07.84-.15,1.69-.22,2.54s-.16,1.69-.27,2.53-.21,1.69-.35,2.53-.29,1.69-.46,2.53l-.33,1.25-.24.61c-.1.2-.22.4-.33.6a6.68,6.68,0,0,1-1.86,1.85,7.43,7.43,0,0,1-2.35,1.1,8.09,8.09,0,0,1-2.58.32,8.49,8.49,0,0,1-2.55-.45c-.42-.12-.81-.31-1.21-.46s-.76-.39-1.13-.62a15.17,15.17,0,0,1-2-1.53,18.29,18.29,0,0,1-1.82-1.81l-1.66-1.91a15.76,15.76,0,0,0-1.77-1.79,10.66,10.66,0,0,0-1-.76A9.75,9.75,0,0,0,50,98.22,9,9,0,0,0,47.55,97.65Zm0,0a8.42,8.42,0,0,1,2.48.5,7.14,7.14,0,0,1,1.16.53,11,11,0,0,1,1.06.72A33.88,33.88,0,0,1,55.8,103a21.37,21.37,0,0,0,1.82,1.74,15.93,15.93,0,0,0,2,1.45c.34.21.74.39,1.09.58s.77.31,1.16.43.8.22,1.21.27l.61.09.61,0a8.21,8.21,0,0,0,2.42-.32,7,7,0,0,0,2.21-1,6.05,6.05,0,0,0,1.7-1.72c.09-.17.2-.34.28-.51l.23-.58.31-1.2c.16-.83.33-1.66.44-2.49s.25-1.68.35-2.51.19-1.69.28-2.52.17-1.68.23-2.54l.4.25-1.44.83a11.7,11.7,0,0,1-1.49.77c-.51.23-1,.5-1.51.71l-1.56.59c-.51.22-1,.35-1.58.53s-1.06.33-1.6.45l-1.61.4-1.64.32c-.54.12-1.09.18-1.63.26s-1.1.16-1.65.22-1.1.13-1.65.16l-1.65.1A52.38,52.38,0,0,1,47.55,97.65Z"/><g class="cls-27"><path class="cls-45" d="M68.24,105.24c-.31-.77-1.91-.18-2.07.4a.44.44,0,0,0,.07.42.52.52,0,0,0,.16.18C67.06,106.66,68.5,105.9,68.24,105.24Z"/></g><g class="cls-27"><path class="cls-45" d="M69.28,104.59c-.11-.27-.65-.06-.71.13a.14.14,0,0,0,0,.15.13.13,0,0,0,0,.07C68.88,105.08,69.37,104.82,69.28,104.59Z"/></g><path class="cls-39" d="M67.45,13.24a10,10,0,0,1,1.29-1.05,15.59,15.59,0,0,1,1.39-.89c.49-.26,1-.52,1.49-.73A12.71,12.71,0,0,1,73.19,10a10.06,10.06,0,0,1,1.62-.39,11.44,11.44,0,0,1,1.65-.2c.56,0,1.12,0,1.68,0l1.66.19,1.62.4a10.25,10.25,0,0,1,1.58.56,9.4,9.4,0,0,1,1.51.7l1.44.83a10.86,10.86,0,0,1,1.37,1l1.33,1c.81.76,1.6,1.53,2.4,2.29l-.32.17-.16-.75c-.06-.24-.11-.5-.18-.74-.17-.48-.27-1-.48-1.45-.1-.24-.18-.48-.3-.71l-.35-.68c-.14-.22-.26-.44-.41-.65a4,4,0,0,0-.48-.6,4.1,4.1,0,0,1,.54.56c.16.2.31.41.46.62l.39.67c.13.23.23.47.35.7A15.22,15.22,0,0,1,90.68,15c.08.24.14.49.21.74l.2.76.15.57-.45-.41-2.45-2.18-1.31-1a14,14,0,0,0-1.35-.92l-1.42-.79a10.4,10.4,0,0,0-1.48-.66,10.09,10.09,0,0,0-1.51-.55l-1.56-.41L78.1,10c-.53-.07-1.07,0-1.61,0a12.81,12.81,0,0,0-1.62.14,12.64,12.64,0,0,0-1.58.32,15.51,15.51,0,0,0-1.55.48c-.51.19-1,.42-1.5.64s-1,.5-1.44.79A15.63,15.63,0,0,0,67.45,13.24Z"/><path class="cls-39" d="M92.33,16.36a2.9,2.9,0,0,1,.33-.22,6.42,6.42,0,0,1,1-.46,7.47,7.47,0,0,1,1.47-.38,7.84,7.84,0,0,1,1.75,0c.3,0,.59.1.88.14a6.7,6.7,0,0,1,.83.24c.27.09.51.22.74.31a6.81,6.81,0,0,1,.62.36,3.47,3.47,0,0,1,.51.34l.36.29c.19.16.3.27.3.27l-.37-.18-.4-.2a4.65,4.65,0,0,0-.54-.22,4.89,4.89,0,0,0-.65-.26c-.23-.07-.46-.16-.72-.23S97.9,16,97.62,16s-.55-.11-.82-.12a9.05,9.05,0,0,0-1.64,0c-.53,0-1,.11-1.44.19s-.77.17-1,.25Z"/><path class="cls-38" d="M66.37,63.84S77.92,52.13,85.88,57C82.63,52.65,73.73,52.13,65.94,62,65,63.07,65.51,63.75,66.37,63.84Z"/><path class="cls-39" d="M66.47,64.14l-.13,0a1.27,1.27,0,0,1-1.12-.71c-.12-.32-.14-.88.5-1.65,5.54-7,10.88-8,13.58-8a8.31,8.31,0,0,1,6.81,3.12l.87,1.2-1.25-.78a7.87,7.87,0,0,0-4.23-1.16c-7,0-14.85,7.84-14.93,7.92ZM79.3,54.32c-2.59,0-7.75,1-13.14,7.8-.36.43-.51.82-.42,1.07a.69.69,0,0,0,.53.35c1-1,8.32-8,15.23-8a8.66,8.66,0,0,1,3.11.55A8.18,8.18,0,0,0,79.3,54.32Z"/><path class="cls-42" d="M55,78.38a2.68,2.68,0,0,1,.39.55,6.09,6.09,0,0,1,.27.61,4.34,4.34,0,0,1,.2.75,5.27,5.27,0,0,1,0,.78c0,.26-.07.5-.11.69a4.24,4.24,0,0,1-.3.61s0-.28,0-.65c0-.18,0-.4-.06-.62s-.07-.47-.11-.71-.08-.49-.12-.72-.08-.45-.1-.64C55,78.64,55,78.38,55,78.38Z"/><path class="cls-42" d="M54.78,83.94a4,4,0,0,1-.35.46,4.51,4.51,0,0,1-.44.51,4.12,4.12,0,0,1-.63.62l-.39.32c-.13.12-.31.24-.32.32a1.77,1.77,0,0,0-.13,1,3.64,3.64,0,0,0,1,2.06,3.58,3.58,0,0,0,2,1,5.84,5.84,0,0,0,1.09.08,5.92,5.92,0,0,0,1-.1c.32,0,.59-.13.84-.17l.64-.18.56-.18-.52.28-.62.28a8,8,0,0,1-.83.28,5.72,5.72,0,0,1-2.21.21,4,4,0,0,1-2.35-1.15,4.07,4.07,0,0,1-1-2.42,2,2,0,0,1,.28-1.24,1.6,1.6,0,0,1,.46-.39,4.62,4.62,0,0,0,.4-.28,7.07,7.07,0,0,0,.68-.51,5.18,5.18,0,0,0,.52-.43C54.63,84.09,54.78,83.94,54.78,83.94Z"/><g class="cls-10"><path class="cls-41" d="M52.39,86.79s1.07,3.89,7.94,1.17c2.71-1,.77,3-3.19,3.21A4.2,4.2,0,0,1,52.39,86.79Z"/></g><g class="cls-10"><path class="cls-41" d="M75,67.73A17.39,17.39,0,0,0,72.78,74c1.75-7.24,14.62-16.93,20.15-1.7,0,0-7.16,11.74-21.85,3.78A19.85,19.85,0,0,1,75,67.73Z"/></g><path class="cls-12" d="M72.34,75.73s2.42,2.42,8.89,2.42a12.54,12.54,0,0,0,9.9-5.24s.13-7.53-7.87-7.15S72.34,75.73,72.34,75.73Z"/><path class="cls-46" d="M77.43,67.88a4.85,4.85,0,0,1,.57-.46,12.46,12.46,0,0,1,1.61-1.06,13.81,13.81,0,0,1,2.52-1.1,9.78,9.78,0,0,1,3.14-.45,7.94,7.94,0,0,1,1.62.26,6.32,6.32,0,0,1,1.45.64,6,6,0,0,1,1.18.89,10.73,10.73,0,0,1,.88,1,7.4,7.4,0,0,1,.59.93,8.3,8.3,0,0,1,.4.75l.28.67-.38-.61a7.79,7.79,0,0,0-.47-.69c-.17-.27-.43-.53-.67-.85a8.45,8.45,0,0,0-.91-.86,7.56,7.56,0,0,0-1.14-.77c-.2-.12-.44-.2-.65-.3s-.47-.17-.71-.23a6.25,6.25,0,0,0-1.49-.23,12.38,12.38,0,0,0-5.49,1.27A19,19,0,0,0,77.43,67.88Z"/><path class="cls-46" d="M72.34,75.73a11.34,11.34,0,0,1,.36-1.15c.13-.35.3-.79.53-1.28A14,14,0,0,1,74,71.73,20.44,20.44,0,0,1,75.24,70c.24-.28.48-.59.75-.88s.57-.58.87-.84.65-.54,1-.79.71-.47,1.09-.68.79-.38,1.19-.57l1.26-.41,1.31-.22.16,0H84a10,10,0,0,1,2.53.43,7,7,0,0,1,2.12,1.13,6.29,6.29,0,0,1,1.43,1.6,6.47,6.47,0,0,1,.72,1.65,8,8,0,0,1,.26,1.36,6.37,6.37,0,0,1,0,.88v.31l0-.31a7,7,0,0,0-.13-.86,6.78,6.78,0,0,0-.35-1.31,5.47,5.47,0,0,0-.33-.76,7.2,7.2,0,0,0-.46-.78,5.86,5.86,0,0,0-1.41-1.45,7.45,7.45,0,0,0-2-1A9.93,9.93,0,0,0,84,66.08c-.2,0-.42,0-.63,0h-.46l-.16,0-1.23.23-1.2.37-1.14.51c-.37.21-.71.44-1.06.64s-.64.5-1,.74-.57.54-.86.79-.51.56-.76.82a20.69,20.69,0,0,0-1.25,1.67,21.63,21.63,0,0,0-1.51,2.72C72.48,75.32,72.34,75.73,72.34,75.73Z"/><path class="cls-46" d="M74.33,77l.73.2c.45.13,1.13.25,1.92.4.4,0,.84.15,1.3.18s.94.09,1.45.12,1,0,1.55,0,1.06-.07,1.59-.13a13.43,13.43,0,0,0,1.56-.3,10.06,10.06,0,0,0,1.47-.46c.23-.1.45-.19.68-.27s.42-.23.63-.33a6.34,6.34,0,0,0,1.09-.68l.89-.66.61-.6.55-.52-.46.59c-.16.19-.34.41-.55.68s-.53.49-.84.76a7.29,7.29,0,0,1-1.09.79c-.2.12-.4.28-.63.39s-.46.2-.7.31a9.32,9.32,0,0,1-1.51.54,14.87,14.87,0,0,1-1.64.33c-.54,0-1.09.1-1.64.11s-1.08,0-1.6-.07a11.07,11.07,0,0,1-1.47-.21c-.47-.06-.9-.19-1.3-.28A14.57,14.57,0,0,1,74.33,77Z"/><path class="cls-47" d="M89.39,68.57c2.34,3.47-.16,6.45-4.6,7.9s-10.9.3-10.44-2.39a13.64,13.64,0,0,1,2.5-5.19h0a17.69,17.69,0,0,0-4.27,6.89s2.35,2.37,8.67,2.37a12.22,12.22,0,0,0,9.65-5.1,8,8,0,0,0-1.71-4.8A3.19,3.19,0,0,0,89.39,68.57Z"/><path class="cls-48" d="M89.1,72.15c-.15,3.17-2.3,5.6-4.8,5.43s-4.38-2.88-4.22-6,2.31-5.6,4.8-5.43S89.27,69,89.1,72.15Z"/><path class="cls-38" d="M89.1,72.15c-.15,3.17-2.3,5.6-4.8,5.43s-4.38-2.88-4.22-6,2.31-5.6,4.8-5.43S89.27,69,89.1,72.15Z"/><g class="cls-27"><path class="cls-38" d="M88,72.29c-.13,2.42-1.77,4.28-3.67,4.14S81,74.24,81.15,71.81s1.75-4.27,3.66-4.13S88.16,69.86,88,72.29Z"/></g><path class="cls-39" d="M87.46,72c-.09,1.92-1.39,3.38-2.89,3.28S81.92,73.56,82,71.64s1.39-3.37,2.9-3.27S87.56,70.11,87.46,72Z"/><g class="cls-14"><path class="cls-38" d="M80.2,70.62a6.45,6.45,0,0,0-.12.91c-.16,3.17,1.74,5.87,4.22,6s4.65-2.26,4.8-5.43a6.15,6.15,0,0,0,0-.86C86.3,72.82,82.32,72.94,80.2,70.62Z"/></g><path class="cls-12" d="M84,70.41A1.61,1.61,0,0,1,82.34,72,1.84,1.84,0,1,1,84,70.41Z"/><path class="cls-12" d="M83,73.41a.69.69,0,1,1-1.33-.21c.07-.47.42-.8.79-.73A.77.77,0,0,1,83,73.41Z"/><g class="cls-7"><path class="cls-49" d="M93.15,76a6.46,6.46,0,0,0-4.05,1c-.49.21-1,.45-1.38.67A7.19,7.19,0,0,0,84,83.54c0,.32.41.29.55.09,1.63-2.34,4.86-3.1,7.55-3.21,1.65-.07,3.78-.41,4-2.42C96.13,76.43,94.32,76.13,93.15,76Z"/></g><path class="cls-42" d="M82.7,80.25a13.19,13.19,0,0,1,1.48-1.49,18.16,18.16,0,0,1,1.7-1.31A15.62,15.62,0,0,1,88,76.22a13.61,13.61,0,0,1,2.3-.89,6.1,6.1,0,0,1,1.11-.26,8.24,8.24,0,0,1,1-.16c.32,0,.61-.06.86-.07h.66l.57,0L94,75l-.64.08-.84.18a8.77,8.77,0,0,0-1,.23c-.33.09-.68.22-1.05.35a8.81,8.81,0,0,0-1.1.42,10.84,10.84,0,0,0-1.11.5c-.37.15-.73.36-1.09.55s-.7.38-1,.59c-.65.4-1.27.77-1.77,1.14C83.35,79.71,82.7,80.25,82.7,80.25Z"/><g class="cls-10"><path class="cls-41" d="M43.26,69.55A29,29,0,0,1,45,76.19s-1.18-8.85-8.39-8.92c-3.3,0-7.3,1.76-7.52,6.47-.52,2.53,8.18,9.08,17,4.45C46,74,43.26,69.55,43.26,69.55Z"/></g><path class="cls-12" d="M45.31,77.76a14.17,14.17,0,0,1-9.13,1c-4.91-1.24-5.66-4.33-5.66-4.33s.68-6,6.48-6.3S45.31,77.76,45.31,77.76Z"/><path class="cls-46" d="M37.62,68l-.44,0c-.29,0-.68.09-1.16.2a9.53,9.53,0,0,0-1.56.46,10.22,10.22,0,0,0-1.64.85,8.39,8.39,0,0,0-.77.56c-.23.19-.46.4-.68.6l-.59.64c-.19.2-.33.41-.48.6a4.71,4.71,0,0,0-.39.53c-.11.17-.22.31-.29.44l-.25.37a4,4,0,0,1,.15-.42,7.83,7.83,0,0,1,.5-1.1,6.91,6.91,0,0,1,.43-.69c.17-.22.35-.48.55-.71s.45-.48.7-.69a9.41,9.41,0,0,1,.81-.6,7.2,7.2,0,0,1,1.78-.84,7.78,7.78,0,0,1,.89-.23c.28,0,.55-.08.8-.1a6.29,6.29,0,0,1,1.2,0A3.58,3.58,0,0,1,37.62,68Z"/><path class="cls-46" d="M45.18,77.2s-.11-.33-.32-.9a22.69,22.69,0,0,0-1-2.28,14.11,14.11,0,0,0-.8-1.44c-.15-.25-.31-.5-.49-.75s-.36-.51-.56-.75a7.16,7.16,0,0,0-.65-.72,4.89,4.89,0,0,0-.71-.65l-.39-.31-.42-.24a3.66,3.66,0,0,0-.42-.26L39,68.73a3.38,3.38,0,0,0-.94-.27l-.23-.06-.11,0h-.12l-.51,0a6,6,0,0,0-1,.05,9.24,9.24,0,0,0-.91.21,5.73,5.73,0,0,0-1.58.8,6,6,0,0,0-1.18,1.11,9,9,0,0,0-.82,1.12c-.22.36-.38.68-.52,1-.26.53-.4.86-.4.86s.09-.33.3-.9c.11-.28.25-.63.44-1a7.5,7.5,0,0,1,.74-1.22,6.58,6.58,0,0,1,1.19-1.24,5.61,5.61,0,0,1,1.68-1,7.93,7.93,0,0,1,1-.23,6.2,6.2,0,0,1,1-.07h.64l.16,0,.26,0a4.24,4.24,0,0,1,1,.29l.5.21a4.25,4.25,0,0,1,.46.27l.45.28.41.33a5.69,5.69,0,0,1,.75.72,7.63,7.63,0,0,1,.66.76,8.26,8.26,0,0,1,.56.8,5.88,5.88,0,0,1,.46.8,14.17,14.17,0,0,1,.74,1.53A16.29,16.29,0,0,1,45,76.27C45.12,76.86,45.18,77.2,45.18,77.2Z"/><path class="cls-46" d="M30.84,75.19s.14.19.41.49a4.07,4.07,0,0,0,.51.49c.2.19.45.38.71.59a9.77,9.77,0,0,0,.92.6c.16.09.34.19.51.27l.57.26c.37.18.8.28,1.21.44s.85.23,1.29.28a12.48,12.48,0,0,0,1.32.16,9.55,9.55,0,0,0,1.3,0c.42,0,.84,0,1.22,0l1.09-.13c.68-.06,1.24-.19,1.63-.25l.63-.1-.61.21-.69.22A4.88,4.88,0,0,1,42,79l-1.1.23c-.39.06-.81.09-1.25.13a10.08,10.08,0,0,1-1.35,0,10.94,10.94,0,0,1-1.38-.14c-.46-.07-.91-.22-1.36-.33a11.8,11.8,0,0,1-1.26-.5L33.69,78l-.52-.33a10.26,10.26,0,0,1-.89-.7,7.11,7.11,0,0,1-1.12-1.26A3.47,3.47,0,0,1,30.84,75.19Z"/><path class="cls-47" d="M42.13,71.09c1.17,2.41,2.38,5.5,1.26,6.07-5.37,1.75-12-.8-11.52-3.34a9.1,9.1,0,0,1,2.52-5c-3.29,1.62-3.73,5.54-3.73,5.54s.73,3,5.55,4.24a13.86,13.86,0,0,0,9-.94A21.53,21.53,0,0,0,42.13,71.09Z"/><path class="cls-48" d="M43.11,74.16c.06,2.73-1.63,5-3.77,5s-4-2.18-4-4.9,1.62-5,3.77-5S43,71.44,43.11,74.16Z"/><path class="cls-38" d="M43.11,74.16c.06,2.73-1.63,5-3.77,5s-4-2.18-4-4.9,1.62-5,3.77-5S43,71.44,43.11,74.16Z"/><g class="cls-27"><path class="cls-38" d="M42.19,74.36c.05,2.07-1.24,3.78-2.88,3.79s-3-1.67-3.05-3.74,1.23-3.79,2.87-3.8S42.14,72.28,42.19,74.36Z"/></g><path class="cls-39" d="M41.68,74.16c0,1.65-1,3-2.26,3S37,75.84,37,74.19s1-3,2.26-3S41.65,72.51,41.68,74.16Z"/><g class="cls-14"><path class="cls-38" d="M35.36,73.44c0,.25,0,.52,0,.79.06,2.72,1.87,4.92,4,4.9s3.83-2.24,3.77-5a4.78,4.78,0,0,0-.08-.74C40.74,74.93,37.34,75.3,35.36,73.44Z"/></g><path class="cls-12" d="M38.62,73a1.4,1.4,0,0,1-1.33,1.43A1.58,1.58,0,1,1,38.62,73Z"/><path class="cls-12" d="M38,75.65a.59.59,0,1,1-1.15-.1.66.66,0,0,1,.63-.68A.68.68,0,0,1,38,75.65Z"/><g class="cls-7"><path class="cls-49" d="M27.89,77a6.48,6.48,0,0,1,4,1.06c.5.21,1,.45,1.4.67a7.17,7.17,0,0,1,3.75,5.77c0,.33-.41.29-.55.1-1.63-2.35-4.86-3.11-7.55-3.21C27.33,81.36,25.2,81,25,79,24.91,77.42,26.72,77.12,27.89,77Z"/></g><path class="cls-42" d="M27.46,75.36a4,4,0,0,1,.48,0,9.6,9.6,0,0,1,1.24.26c.25.07.51.18.8.26a6.6,6.6,0,0,1,.88.37l.91.46c.3.17.58.38.87.57l.86.61.75.69c.24.22.47.45.68.66a6,6,0,0,1,.54.65c.65.83,1,1.4,1,1.4s-.53-.45-1.27-1.18a5.52,5.52,0,0,0-.6-.57L33.92,79l-.75-.63-.84-.58c-.28-.18-.55-.41-.84-.57l-.86-.48a5.75,5.75,0,0,0-.81-.43c-.26-.12-.51-.26-.75-.36l-.64-.25a3.78,3.78,0,0,0-.51-.19A4.1,4.1,0,0,0,27.46,75.36Z"/><g class="cls-14"><path class="cls-38" d="M83.34,54.94c-.29.23-1.25.36-3.22.28-7.17-.31-13.21,7.52-13.21,6.49a3.24,3.24,0,0,1,.46-1.44c-.48.52-1,1.08-1.43,1.68-1,1.12-.43,1.8.43,1.89,0,0,11.55-11.71,19.51-6.8A7,7,0,0,0,83.34,54.94Z"/></g><g class="cls-50"><path class="cls-51" d="M46.41,96.19s7.82,2.11,22.2-2.8c-1.13,1.59-10.39,3.93-16.94,4C47.23,97.48,46.41,96.19,46.41,96.19Z"/></g><path class="cls-29" d="M54.42,42.67l.21-.16Z"/><path class="cls-29" d="M109.56,72.83a2.39,2.39,0,0,0,0,.26S109.56,73,109.56,72.83Z"/><path class="cls-29" d="M96,50.51c-4.6-3.8-7.53-2.53-6.07-8-3.13,4-6.9,4.63-6.07.21-2.08,2.74-8.36,4.21-12.12,4s-4.18-2.1-4.18-2.1-1.47,1.06-2.72,2.1-7.94-.83-10-1.89c-1.65-.82-.84-1.77-.42-2.15l-5.87,4.68-12.19-2s-2.27,5-5.37,4.83c-5.08-.28-5.65,5.4-4.24,18.76.28,5.41-3.95,22.18,8.48,30.71S54.42,111.5,59.64,113c-2.93-1.69-3.34-3-3.34-3s9.19,7.58,19.23-1.68a14.51,14.51,0,0,1-2,3.31s15.37-5,21.63-9.62,11.93-14.72,9.42-24.18C102.3,69.17,108.33,60.63,96,50.51Z"/><g class="cls-10"><path class="cls-41" d="M24.57,62.39c-1.21-9.86-.72-13,2.39-13.24s3.83-.24,7.18-4.1c5.51-6,7.28-6.15,7.28-6.15s-2.59,2.94-2.93,4.5S48.8,45.47,48.8,45.47l8.93-6.57s-3.6,4.15-2.74,4.66,8.59,2.59,9.79,2.08,7-5,7-5l-3.26,3.8a17.84,17.84,0,0,0,7.73.86c4.12-.52,9.8-4.84,9.8-4.84V43.4s4.63-2.08,6.18-3.46a12.38,12.38,0,0,0,6,9.34l.51-6.23s2.24,7.25,5.5,9.68,4.13,4.14,4.47,8.65c.3,4,.7,10.13.79,11.45a44.26,44.26,0,0,1,.48-6.51,65,65,0,0,0-1.57-17.68l-.26,3.29-3.28-.26c-.79-1.58-6.31-11-6.31-11a40.78,40.78,0,0,0-.92,6.86,15.76,15.76,0,0,1-4.58-10.69s-3.55,5-6.31,5.55c1.45-2,3.41-7.39,3.41-7.39s-7.61,7.78-11.81,9.23A14.16,14.16,0,0,1,69.74,44s7.09-6.47,9.06-10C77,36.09,64.5,44.67,64.5,44.67a20.69,20.69,0,0,1-8.14-1.59c1.57-3.82,8.53-9.77,8.53-9.77A120.76,120.76,0,0,0,48.74,44.8a60.79,60.79,0,0,1-9.18-1.45s.79-2.51,6.43-7.66C36.93,38.6,31.68,46.78,29.84,47.44a11.93,11.93,0,0,1-4.85.13s-4.07,6-2.49,12.42a57.21,57.21,0,0,1,1.28,13.67,58.54,58.54,0,0,0-.69,6.15C25,73.46,25.45,69.71,24.57,62.39Z"/></g><g class="cls-43"><path class="cls-41" d="M65.19,110a3.94,3.94,0,0,0,3.41-.76C68.14,111,66.32,110.83,65.19,110Z"/></g><g class="cls-43"><path class="cls-41" d="M30.33,63.32s5.85-4,11.3-.38c1.32,1.43,0,.77-.87.3a10.77,10.77,0,0,0-8.5-.15C30.37,64.12,29.74,64.28,30.33,63.32Z"/></g><path class="cls-38" d="M41.89,63.14s-4.45-3.52-11.56.18C30.08,59.36,34.61,55.06,41.89,63.14Z"/><path class="cls-39" d="M30.08,63.77l0-.43a5.11,5.11,0,0,1,1.28-3.75,4.12,4.12,0,0,1,3.07-1.31c1.6,0,4.23.81,7.69,4.68l-.38.42a8.65,8.65,0,0,0-5.06-1.46,13.45,13.45,0,0,0-6.19,1.65Zm4.32-4.92A3.58,3.58,0,0,0,31.74,60a4.46,4.46,0,0,0-1.13,2.89,13.58,13.58,0,0,1,6-1.53,10.54,10.54,0,0,1,3.78.69C37.72,59.45,35.69,58.85,34.4,58.85Z"/><g class="cls-14"><path class="cls-38" d="M39.3,60.67c0,.31-.19.43-.78.21-1.94-.71-4.4-1.14-6.15.11-1.28.92-1.39,0-1.37-.5a5.05,5.05,0,0,0-.67,2.83c7.11-3.7,11.56-.18,11.56-.18A24.05,24.05,0,0,0,39.3,60.67Z"/></g><g class="cls-10"><path class="cls-41" d="M30.8,62.71s-1,1.9-.75,2.47,4.8-3.8,10.75-.86,2.73-.38-.47-2.36S32.22,61.29,30.8,62.71Z"/></g><path class="cls-52" d="M99,69.29c-.07-3.84-2.6-7.26-9.31-7.17a103.27,103.27,0,0,0-20.24,3c-2.6.8-6.82,1.69-6.36,9.15a28,28,0,0,0,3.1,11.65c2.13,4.13,8.38,5.22,19.19,4.58,8.07-1.09,12.48-5.85,12.82-8.84A95,95,0,0,0,99,69.29ZM95.62,80.83c-.28,2.55-4,6.6-10.9,7.52-9.2.56-14.51-.39-16.32-3.89a23.81,23.81,0,0,1-2.64-9.91c-.39-6.35,3.2-7.09,5.41-7.77a88.43,88.43,0,0,1,17.22-2.53c5.71-.06,7.85,2.84,7.91,6.1A81,81,0,0,1,95.62,80.83Z"/><path d="M80.11,90.92h0c-8.06,0-12.44-1.51-14.18-4.9a28.46,28.46,0,0,1-3.14-11.79c-.45-7.31,3.55-8.5,6.18-9.3l.38-.12a106.53,106.53,0,0,1,20.33-3h.22c8.32,0,9.33,5.22,9.37,7.45a95,95,0,0,1-.8,12.37c-.33,3-4.72,8-13.07,9.09C83.43,90.86,81.7,90.92,80.11,90.92ZM89.9,62.39h-.21a105.71,105.71,0,0,0-20.17,3l-.38.12c-2.62.8-6.21,1.86-5.79,8.73a27.94,27.94,0,0,0,3.08,11.56c1.64,3.18,5.86,4.59,13.68,4.59h0c1.59,0,3.3-.06,5.24-.18,8-1.08,12.25-5.76,12.56-8.58a97.68,97.68,0,0,0,.8-12.3C98.62,64.91,95.41,62.39,89.9,62.39Zm-9.66,26.4c-6.87,0-10.59-1.29-12.09-4.19a24.51,24.51,0,0,1-2.68-10c-.37-6.25,3-7.27,5.29-8l.33-.09A88.58,88.58,0,0,1,88.39,64h.18c7.13,0,8,4.46,8,6.39a81,81,0,0,1-.68,10.52c-.28,2.55-4,6.8-11.15,7.76C83.07,88.73,81.6,88.79,80.24,88.79Zm8.33-24.26H88.4a88,88,0,0,0-17.14,2.52l-.33.1c-2.21.66-5.24,1.57-4.89,7.38a23.68,23.68,0,0,0,2.61,9.8c1.39,2.68,5,3.88,11.59,3.88,1.35,0,2.81,0,4.46-.14,6.8-.92,10.37-4.88,10.64-7.27A81.69,81.69,0,0,0,96,70.35C96,66.65,93.23,64.53,88.57,64.53Z"/><g class="cls-53"><path class="cls-12" d="M88.39,64.25a88.43,88.43,0,0,0-17.22,2.53c-2.21.68-5.8,1.42-5.41,7.77a23.81,23.81,0,0,0,2.64,9.91c1.81,3.5,7.12,4.45,16.32,3.89,6.87-.92,10.62-5,10.9-7.52a81,81,0,0,0,.68-10.48C96.24,67.09,94.1,64.19,88.39,64.25Z"/></g><g class="cls-5"><g class="cls-22"><path class="cls-54" d="M96.3,70.35c-.06-3.26-2.2-6.16-7.91-6.1a88.43,88.43,0,0,0-17.22,2.53c-2.21.68-5.8,1.42-5.41,7.77a23.81,23.81,0,0,0,2.64,9.91c1.81,3.5,7.12,4.45,16.32,3.89,6.87-.92,10.62-5,10.9-7.52A81,81,0,0,0,96.3,70.35Zm-2.53,9.91c-.24,2.23-3.52,5.77-9.53,6.58-8,.48-12.67-.34-14.24-3.4a20.79,20.79,0,0,1-2.31-8.66c-.35-5.54,2.8-6.2,4.73-6.8a78.92,78.92,0,0,1,15-2.2c5,0,6.85,2.47,6.91,5.33A70.43,70.43,0,0,1,93.77,80.26Z"/></g></g><g class="cls-27"><g class="cls-53"><path class="cls-55" d="M71.17,66.78c-1.93.58-4.93,1.24-5.38,5.66l7.74-6.24C72.48,66.42,71.66,66.63,71.17,66.78Z"/></g><g class="cls-53"><path class="cls-55" d="M88.39,64.25a68.66,68.66,0,0,0-9.25.92L65.85,75.88a24.6,24.6,0,0,0,1.88,7.17L90.86,64.44A13.33,13.33,0,0,0,88.39,64.25Z"/></g><g class="cls-53"><path class="cls-55" d="M78.32,88.46c1.7.06,3.6,0,5.73-.07l11.78-9.48c.19-1.78.32-3.45.4-5.09C90.48,79,84.4,83.72,78.32,88.46Z"/></g></g><path class="cls-29" d="M68.4,84.46c1.81,3.5,7.12,4.45,16.32,3.89,6.87-.92,10.62-5,10.9-7.52a81,81,0,0,0,.68-10.48c-.06-3.26-2.2-6.16-7.91-6.1a88.43,88.43,0,0,0-17.22,2.53c-2.21.68-5.8,1.42-5.41,7.77A23.81,23.81,0,0,0,68.4,84.46Z"/><g class="cls-22"><path class="cls-52" d="M99,69.29c-.07-3.84-2.6-7.26-9.31-7.17a68.52,68.52,0,0,0-8.16.69,70.24,70.24,0,0,1,12.07.7c5.74,1,3.86,11.21,3.76,16.22s-6.19,9.32-16.78,10C65.45,90.94,64,79.28,63.23,75.11c0-.26-.09-.51-.15-.75a28.05,28.05,0,0,0,3.1,11.52c2.13,4.13,8.38,5.22,19.19,4.58,8.07-1.09,12.48-5.85,12.82-8.84A95,95,0,0,0,99,69.29Z"/></g><path class="cls-12" d="M64.67,74.07S63.52,67,72.85,65.49C68.48,64.91,62.37,67.69,64.67,74.07Z"/><path class="cls-12" d="M75.82,64.57c0,.15-.35.34-.83.42s-.88,0-.91-.14.35-.33.83-.41S75.8,64.42,75.82,64.57Z"/><path class="cls-52" d="M45.87,65.86c-5.57-2-15.64-2.21-21.38.85-2.62,1.53-3.21,3.83-3,7.06a49.43,49.43,0,0,0,1,6.88c.93,4.59,4.31,7.07,15.05,8.33,9.3.44,15-.08,15-9.26S51.45,67.9,45.87,65.86ZM37.49,86.8c-8.81-1-11.59-3.08-12.35-6.85a39.8,39.8,0,0,1-.83-5.65c-.21-2.66.28-4.55,2.43-5.8,4.72-2.52,13-2.37,17.56-.7s5.55,3.84,5.55,11.38S45.12,87.14,37.49,86.8Z"/><path d="M41.35,89.37h0c-1,0-2.24,0-3.77-.1C27.3,88.05,23.3,85.81,22.27,80.71a51.65,51.65,0,0,1-1-6.93c-.29-3.74.61-5.86,3.11-7.32,2.89-1.54,7-2.38,11.69-2.38A30.45,30.45,0,0,1,46,65.59c5.65,2.07,6.94,4.71,6.94,14.13,0,3.88-1,6.38-3.1,7.87C48,88.84,45.49,89.37,41.35,89.37ZM36,64.65c-4.56,0-8.61.81-11.42,2.31-2.27,1.32-3.08,3.29-2.81,6.78a48.78,48.78,0,0,0,1,6.86c.84,4.11,3.53,6.77,14.8,8.11,1.5.06,2.7.1,3.73.1h0c4,0,6.44-.51,8.13-1.69,2-1.37,2.88-3.72,2.88-7.4,0-9.2-1.17-11.62-6.58-13.59A29.83,29.83,0,0,0,36,64.65Zm4.54,22.51c-.85,0-1.84,0-3.1-.09C29,86.07,25.72,84.23,24.86,80a41.08,41.08,0,0,1-.84-5.7c-.16-2.15,0-4.56,2.57-6.06a21.17,21.17,0,0,1,9.63-2,25,25,0,0,1,8.17,1.25c4.67,1.72,5.75,3.88,5.75,11.65C50.14,85.83,46.47,87.16,40.58,87.16Zm-4.36-20.3a20.56,20.56,0,0,0-9.35,1.89c-1.84,1.08-2.5,2.68-2.28,5.52a39.81,39.81,0,0,0,.83,5.63c.67,3.36,2.88,5.51,12.1,6.61,1.24.06,2.21.09,3.06.09,7.52,0,9-2.72,9-7.42,0-7.52-1-9.5-5.37-11.11A24.49,24.49,0,0,0,36.22,66.86Z"/><g class="cls-53"><path class="cls-12" d="M44.3,67.8c-4.58-1.67-12.84-1.82-17.56.7-2.15,1.25-2.64,3.14-2.43,5.8A39.8,39.8,0,0,0,25.14,80c.76,3.77,3.54,5.8,12.35,6.85,7.63.34,12.36-.07,12.36-7.62S48.88,69.47,44.3,67.8Z"/></g><g class="cls-5"><g class="cls-22"><path class="cls-54" d="M44.3,67.8c-4.58-1.67-12.84-1.82-17.56.7-2.15,1.25-2.64,3.14-2.43,5.8A39.8,39.8,0,0,0,25.14,80c.76,3.77,3.54,5.8,12.35,6.85,7.63.34,12.36-.07,12.36-7.62S48.88,69.47,44.3,67.8ZM37.44,85.42c-7.62-.91-10-2.65-10.68-5.91A36,36,0,0,1,26,74.62c-.18-2.29.24-3.91,2.1-5,4.08-2.17,11.21-2.06,15.17-.6s4.8,3.31,4.8,9.83S44,85.72,37.44,85.42Z"/></g></g><g class="cls-27"><g class="cls-53"><path class="cls-55" d="M26.74,68.5c-2.15,1.25-2.64,3.14-2.43,5.8,0,0,0,.35.09,1.06l10.89-8.77A20.24,20.24,0,0,0,26.74,68.5Z"/></g><g class="cls-53"><path class="cls-55" d="M44.3,67.8a16.11,16.11,0,0,0-1.77-.51c-5.42,4.9-11.37,9.14-17.14,13.59a6.34,6.34,0,0,0,3.52,3.84l18.71-15A9.46,9.46,0,0,0,44.3,67.8Z"/></g><g class="cls-53"><path class="cls-55" d="M37.24,86.76l.25,0c7.63.34,12.36-.07,12.36-7.62,0-.92,0-1.76-.05-2.53Z"/></g></g><path class="cls-29" d="M37.49,86.8c7.63.34,12.36-.07,12.36-7.62s-1-9.71-5.55-11.38S31.46,66,26.74,68.5c-2.15,1.25-2.64,3.14-2.43,5.8A39.8,39.8,0,0,0,25.14,80C25.9,83.72,28.68,85.75,37.49,86.8Z"/><g class="cls-22"><path class="cls-52" d="M45.87,65.86a16.08,16.08,0,0,0-1.65-.51c7.58,2.39,7,7.91,7,15.49,0,8.66-9,8.32-19.09,6.44-7-1.33-9.28-6.15-10-8.91.11.69.26,1.45.42,2.28.93,4.59,4.31,7.07,15.05,8.33,9.3.44,15-.08,15-9.26S51.45,67.9,45.87,65.86Z"/></g><path class="cls-12" d="M23.09,74.64s-1.86-7.07,7.37-8.45C33.68,65.61,19.28,64.8,23.09,74.64Z"/><path class="cls-12" d="M33.63,65.61c0,.16-.39.3-.87.33s-.89-.08-.89-.23.37-.3.85-.32S33.62,65.46,33.63,65.61Z"/><path class="cls-52" d="M52.64,79.72s4.07-6.44,11.13,0l-.54-4.61s-4.64-5.07-10.76.41C52.6,77.62,52.64,79.72,52.64,79.72Z"/><path d="M52.37,80.66v-.94s0-2.11-.18-4.18V75.4l.1-.09a8.93,8.93,0,0,1,5.95-2.62,7.51,7.51,0,0,1,5.21,2.24l.06,0,.64,5.46-.56-.51c-2-1.85-4-2.78-5.84-2.78a6.28,6.28,0,0,0-4.86,2.72Zm5.37-4.09A9,9,0,0,1,63.4,79L63,75.25a7,7,0,0,0-4.73-2,8.32,8.32,0,0,0-5.47,2.39c.08,1.24.12,2.49.15,3.26A6.46,6.46,0,0,1,57.74,76.57Z"/><g class="cls-22"><path class="cls-52" d="M63.23,75.11a7.53,7.53,0,0,0-3.62-2l.15.06c3.25.84,3.85,5.32,1.33,3.45a6.33,6.33,0,0,0-7.11.06c-.7.58-.81-.68-.8-1.76-.23.18-.47.38-.71.59.13,2.1.17,4.2.17,4.2s4.07-6.44,11.13,0Z"/></g><path class="cls-12" d="M54.58,75a5.18,5.18,0,0,1,4.22-.6c2.42.71.91-1.46-2-.9S53.32,75.54,54.58,75Z"/><path class="cls-12" d="M61,74.59c0,.1-.18.15-.34.12s-.27-.16-.25-.26.18-.15.33-.11S61.06,74.5,61,74.59Z"/><path class="cls-52" d="M99.08,73.39l13.3-4.92a11.09,11.09,0,0,1,3.45-.51c-.84-1.69-3.45-1.86-8.25-.5s-8.5,2.45-8.5,2.45Z"/><path d="M98.79,73.79v-4.1l.2,0s3.76-1.12,8.51-2.46c5-1.42,7.66-1.21,8.58.66l.24.47-.53-.06a10,10,0,0,0-3.32.5Zm.57-3.67V73l12.92-4.78a13.65,13.65,0,0,1,3-.55c-1-1.13-3.47-1.1-7.62.08S100.2,69.87,99.36,70.12Z"/><g class="cls-22"><path class="cls-52" d="M114.57,66.85a4.68,4.68,0,0,1-2.12.83,76.62,76.62,0,0,0-11,3.42c-.83.34-1.18-.57-1.33-1.49l-1,.3v3.48l13.3-4.92a11.09,11.09,0,0,1,3.45-.51A2.24,2.24,0,0,0,114.57,66.85Z"/></g><path class="cls-12" d="M103.22,68.94a65.18,65.18,0,0,1,7.7-2C112.53,66.87,99.46,70.84,103.22,68.94Z"/><g class="cls-27"><g class="cls-7"><path class="cls-41" d="M57.34,86.13c0,.63-.85,1.16-1.93,1.18s-2-.47-2-1.1.84-1.15,1.92-1.18S57.33,85.51,57.34,86.13Z"/></g><g class="cls-7"><path class="cls-41" d="M58.7,86c.07.17-.07.36-.3.45a.4.4,0,0,1-.52-.13c-.06-.17.07-.36.31-.46S58.64,85.86,58.7,86Z"/></g></g><path class="cls-29" d="M14.11,33.68a9.4,9.4,0,0,0,.73-.85A10.43,10.43,0,0,0,14.11,33.68Z"/><g class="cls-50"><path class="cls-38" d="M38.81,29.35S48.8,21,70.66,14.56c9-1.89-9,8,.19,4s6.41,0,4,3.4,5.45-3.79,8.28-4.16-7,12.31-14.7,18c-4.89,1.9,4.91-7.39,7.74-10.42S66.7,27.64,56.9,33s-3.58-.19,4.9-5.69,2.64-5.49-12.44,1.89S33,34.09,38.81,29.35Z"/></g><g class="cls-50"><path class="cls-38" d="M36.36,24.89A128.56,128.56,0,0,1,66.61,9.54c10.74-3.41,1.41-3.13-8.48.86s.56-2.28,4.8-4.56S41.45,9.25,29,18.36c-4.81,4.54,2.83,1.14,9.33-1.44S29,22.33,24.21,28.59C22,32.28,27.6,30,36.36,24.89Z"/></g><g class="cls-50"><path class="cls-38" d="M87.46,21.23a87.42,87.42,0,0,1-5.61,13.63c-3.26,6,2.72.18,5.43-5.64s.36.91-.73,3.64,2.17.91,4.34-6.18-.36-6.19-1.8-3.64S89.09,17,87.46,21.23Z"/></g><g class="cls-50"><path class="cls-38" d="M101.48,25.24a44.07,44.07,0,0,0,3.31,16.26c1.56,3.33.2-2.35.2-7.45s2.53-.2,4.86,6.47-.58-6.47-2.14-10.58.39-1.37,4.09,5.1,3.9,4.11.79-2.95-1.76-6.47,5-.19-.94-5.06-7.65-10c-4-2.93,2.2,6-2.86,2.33S101.68,22.1,101.48,25.24Z"/></g></g></g></g></svg>