<svg xmlns="http://www.w3.org/2000/svg" viewBox="0 0 126.17 300"><defs><style>.cls-1{isolation:isolate;}.cls-2{fill:#6d9dbe;}.cls-3{fill:#0b425b;}.cls-10,.cls-20,.cls-21,.cls-23,.cls-27,.cls-34,.cls-37,.cls-4,.cls-42{mix-blend-mode:multiply;}.cls-10,.cls-4{opacity:0.7;}.cls-5{fill:#7fa5b9;}.cls-15,.cls-36,.cls-44,.cls-6{fill:#fff;}.cls-36,.cls-6{mix-blend-mode:overlay;}.cls-20,.cls-25,.cls-6{opacity:0.4;}.cls-7{fill:#85191a;}.cls-8{fill:#fbd4b7;}.cls-9{fill:#b6723c;}.cls-10,.cls-26{fill:#eac5ab;}.cls-11{fill:#fff7f3;}.cls-12{fill:#a75f27;}.cls-13{fill:#845331;}.cls-14{fill:#b46b39;}.cls-16{fill:#cdcccc;}.cls-17{fill:#663b18;}.cls-18{fill:#8d542d;}.cls-19{fill:#332115;}.cls-21,.cls-25,.cls-30{fill:#c37e34;}.cls-21,.cls-23,.cls-36{opacity:0.6;}.cls-22{fill:#f9cda7;}.cls-22,.cls-25,.cls-44{mix-blend-mode:screen;}.cls-22,.cls-27,.cls-44{opacity:0.5;}.cls-24{fill:#a46327;}.cls-28{fill:#3d3633;}.cls-29{fill:#020202;}.cls-31{fill:#efeeee;}.cls-32{fill:#aba9a5;}.cls-33{fill:#c52127;}.cls-34{opacity:0.8;}.cls-35{fill:#acb0b6;}.cls-38{fill:#b1b4b9;}.cls-39{fill:#274a64;}.cls-40{fill:#222e35;}.cls-41{fill:#2b4454;}.cls-42{opacity:0.9;}.cls-43{fill:#c5cbd2;}</style></defs><g class="cls-1"><g id="Layer_2" data-name="Layer 2"><g id="Layer_1-2" data-name="Layer 1"><path class="cls-2" d="M97.15,237.57c-.11-10.21-1.84-23.78-2.29-29.65-.37-5.09-.18-13.47-2.76-17.51-4.33,4.76-14.8,11.53-29.12,11.86-17.69.41-22.24-6.52-24.6-11.81-1.63-3.65-3.65-4.59-4.52-5.59-1,3.24-2.32,10.43-2.33,24.73a125.92,125.92,0,0,0,3.18,28.68c0,.73-2.77,1.8-1.6,3.83s1.52,1,1.6,3.75,0,22.81,0,30.88c0,1.06,4.07,3.74,10.83,4.48a24,24,0,0,0,13.12-2.77c.41-.24.73-20.53,1.38-27.3s1-8.66.54-9.88c-1.4-3.58.23-5.11,0-9.23s.71-24.77.71-24.77.65-.33,2,.82S67.91,223,69.56,227s3.57,6.73,3.09,7.66-2.17,3.47-1.25,5.7-.34,1.57.16,6.08,5.81,31.51,6,32,6,2.29,14.18.61,8.36-3.81,8.36-3.81S97.25,247.79,97.15,237.57Z"/><path class="cls-3" d="M97.39,237.53c-.12-8.65-1.11-17.28-2-25.88-.34-3.42-.47-6.83-.69-10.26-.22-3.66-.46-7.83-2.42-11-.07-.11-.39,0-.44.05-8,8.69-20.8,12.1-32.23,11.75-5.13-.15-10.53-1.05-14.86-4a17.13,17.13,0,0,1-5.8-7,20.19,20.19,0,0,0-2.16-3.78c-.81-1-1.89-1.72-2.76-2.66-.08-.08-.43-.05-.46.08a53.66,53.66,0,0,0-1.65,9.5,149.62,149.62,0,0,0-.61,19.86,126.3,126.3,0,0,0,1.78,17.46c.28,1.61.6,3.22,1,4.82.14.6.62,1.64.17,2.18a10.62,10.62,0,0,0-1.52,1.76c-.47.94.23,1.94.79,2.66a3.17,3.17,0,0,1,.9,2c.06.62,0,1.25.06,1.87,0,4,0,8,0,12q0,7.41,0,14.83c0,1.39-.42,2.94.71,3.94a14.45,14.45,0,0,0,5.74,2.66,24.08,24.08,0,0,0,16.36-1.22c.52-.23,1.6-.48,1.69-1.13.16-1.13.18-2.29.23-3.43.42-8.86.46-17.75,1.37-26.58a39.53,39.53,0,0,0,.45-5.85,6.86,6.86,0,0,0-.46-1.78,8.77,8.77,0,0,1-.1-4.23c.61-3.62.32-7.41.41-11.08.1-4.28.27-8.55.43-12.82l.18-4.24c0-.28,0-.56,0-.84a6.54,6.54,0,0,1,1.8,1.27,23.37,23.37,0,0,1,1.74,4.76c.71,2.27,1.36,4.56,2,6.85.58,2,1.15,4,1.84,5.92.88,2.49,2.28,4.73,3.26,7.16a2.09,2.09,0,0,1-.22,2.2,7.34,7.34,0,0,0-1.08,3.88c0,.89.61,1.64.6,2.55,0,.7-.26,1.42-.3,2.12-.19,3.09.71,6.41,1.25,9.43q2.07,11.52,4.41,23c.13.68.25,1.35.41,2s2.17.86,2.62.95a31.82,31.82,0,0,0,16.62-1.58c.84-.31,3.92-1.37,3.79-2.73-.25-2.38-.48-4.77-.71-7.16-.86-9.09-1.74-18.2-2.12-27.33q-.08-1.53-.09-3.06c0-.12-.49-.07-.49.08.11,8.9,1.06,17.81,1.87,26.66.3,3.28.62,6.56.94,9.83a5.11,5.11,0,0,1,.12,1.19c-.22.78-1.24,1.3-1.87,1.64a26.71,26.71,0,0,1-9.78,2.54,26.54,26.54,0,0,1-8.62-.42c-.76-.16-1.7-.25-1.89-1.08-.21-1-.4-2-.6-3-1.57-7.84-3.09-15.69-4.48-23.57-.53-3-1.21-6.12-.65-9.21a3.15,3.15,0,0,0-.21-1.66,5.67,5.67,0,0,1,.45-4.6c.31-.66.86-1.23.75-2a12.2,12.2,0,0,0-1.39-3.24,77.06,77.06,0,0,1-4.69-13.15c-.63-2.14-1.26-4.3-2-6.42-.4-1.17-.73-2.58-1.73-3.39a2.15,2.15,0,0,0-2-.54s-.1.05-.1.11c-.31,6.68-.58,13.38-.71,20.08,0,1.46-.06,2.92,0,4.37a21.56,21.56,0,0,1-.24,3.93,14.64,14.64,0,0,0-.29,3.55c.09.94.53,1.75.69,2.65a7.88,7.88,0,0,1,0,1.88c-.16,2.59-.52,5.17-.76,7.76-.74,8.26-.64,16.59-1.12,24.88,0,.51.11,1.85-.39,2.13a24.13,24.13,0,0,1-6.66,2.3,22.88,22.88,0,0,1-11.05-.76c-1.79-.53-4.33-1.37-5.47-3-.35-.51-.13-1.52-.13-2.09,0-1.1,0-2.19,0-3.29q0-3.72,0-7.44,0-7.14,0-14.27c0-1.32,0-2.63,0-3.95a4.94,4.94,0,0,0-.31-2.23c-.51-.89-1.36-1.44-1.57-2.53-.31-1.53,2.06-2,1.83-3.27-.15-.94-.4-1.87-.6-2.81a128.88,128.88,0,0,1-2.52-28c.08-7.39.23-15.21,2.3-22.37l-.46.08c.54.59,1.2,1.07,1.79,1.62a13,13,0,0,1,2.72,3.95A25.57,25.57,0,0,0,40,193.88a17.06,17.06,0,0,0,7.7,6.24c5,2.14,10.76,2.42,16.14,2.23a46.06,46.06,0,0,0,17.63-4.29,34.65,34.65,0,0,0,10.88-7.63l-.44,0c2,3.19,2.18,7.35,2.4,11,.23,3.42.36,6.84.69,10.26.84,8.61,1.84,17.23,1.94,25.88C96.9,237.74,97.39,237.68,97.39,237.53Z"/><g class="cls-4"><path class="cls-5" d="M97.15,237.57c-.11-10.21-1.84-23.78-2.29-29.65-.37-5.09-.18-13.47-2.76-17.51-4.33,4.76-14.8,11.53-29.12,11.86-17.69.41-22.24-6.52-24.6-11.81-1.63-3.65-3.65-4.59-4.52-5.59-1,3.24-2.32,10.43-2.33,24.73a125.92,125.92,0,0,0,3.18,28.68c0,.73-2.77,1.8-1.6,3.83s1.52,1,1.6,3.75,0,22.81,0,30.88c0,1.06,4.07,3.74,10.83,4.48a24,24,0,0,0,13.12-2.77c.41-.24.73-20.53,1.38-27.3s1-8.66.54-9.88c-1.4-3.58.23-5.11,0-9.23s.71-24.77.71-24.77.65-.33,2,.82S67.91,223,69.56,227s3.57,6.73,3.09,7.66-2.17,3.47-1.25,5.7-.34,1.57.16,6.08,5.81,31.51,6,32,6,2.29,14.18.61,8.36-3.81,8.36-3.81S97.25,247.79,97.15,237.57Zm-7.52,32.16c-10.76,1-14.54-18.47-14.22-23.89s-2.72-5-2-7.57,5.54-4.39,2.83-6.78-5.1-12-7.39-19.11-3-6.74-10-6.63-7.17.21-3.58,2.09c2.69,1.4,2,13,2,25.25,0,4.08.16,9.81,0,13.95-.41,10.19.22,24.09-7.72,25.4-6.43,1.06-10.36-5.92-10.05-17.86s-.59-9.51-2.65-11.24-1-3.15.7-4.24.28-1.53-2.12-12.06-2.39-16.41,1.36-15.75,3.74-5.62,1.46-9.82c-3.47-6.45-.21-8.11,2.17-4.95s9.35,7.5,22.47,6.95c15-.63,19.48-3.73,25-2s5.44,10.13,7,35C95.67,249.68,100.38,268.76,89.63,269.73Z"/></g><g class="cls-4"><path class="cls-5" d="M44.09,278.2c-9.38-2.28-8.11-15.2-8-24.77s-1.88-9.86-1.88-9.86h0c.32.37.46.7.5,2.29.08,2.77,0,22.81,0,30.88,0,1.06,4.07,3.74,10.83,4.48a24,24,0,0,0,13.12-2.77c.28-.17.52-9.64.84-17.8C58.45,273.74,53.12,280.39,44.09,278.2Z"/></g><g class="cls-4"><path class="cls-5" d="M89.11,276.9c-9.78.5-12.28-14.33-14.12-21-1.64-5.9-3-13-3.26-14.49.14,1.08-.55,1.43-.17,5,.49,4.51,5.81,31.51,6,32s6,2.29,14.18.61,8.36-3.81,8.36-3.81-.78-7.67-1.54-16.43h0C98.7,269.79,98.88,276.4,89.11,276.9Z"/></g><path class="cls-3" d="M57.28,206.46a5.7,5.7,0,0,1,1.18-.11,6.94,6.94,0,0,1,1.24.08,8.3,8.3,0,0,1,1.36.32,4.93,4.93,0,0,1,.67.27,4.17,4.17,0,0,1,.63.33c.2.12.37.27.54.39s.29.29.43.42.2.29.28.42a1.54,1.54,0,0,1,.17.34c.08.19.12.31.12.31s-.08-.09-.24-.24a1.35,1.35,0,0,0-.24-.26,3.11,3.11,0,0,1-.35-.3l-.45-.29-.54-.29a9.84,9.84,0,0,0-1.23-.48,12.33,12.33,0,0,0-1.28-.37c-.41-.11-.81-.19-1.15-.29Z"/><path class="cls-6" d="M82.28,207.63c1.88,3.37,5.49,23.05,6.93,33.26s2.82,21-1.6,24.33,8.6.44,5.82-24C89.78,209.18,80.28,204,82.28,207.63Z"/><path class="cls-6" d="M36.84,221.51c-.88-5.65,1.29-8.16,3.08-9.46s.17,1.71,0,5,2.22,13.93,3.51,20.37c.32,1.63-2.29,4,0,5s.89,2.45.74,12.56.64,13.28,1.79,14.91-4.48-.17-4.68-13.94-.14-12.14-2.18-13.27,1.56-2.45,1.64-5.22S37.88,228.43,36.84,221.51Z"/><path class="cls-7" d="M36.18,178.4s.08.37.18.9c0,.27.1.57.15.89s.08.34.09.5a4.76,4.76,0,0,1,.1.52,5.2,5.2,0,0,1,.11.51c0,.16.06.34.12.49s.07.31.12.45a1.53,1.53,0,0,0,.11.41,8.17,8.17,0,0,1,.27.88,7.29,7.29,0,0,1-.62-.71,3,3,0,0,1-.22-.4c-.07-.14-.14-.29-.21-.46a6.64,6.64,0,0,1-.32-1,10.8,10.8,0,0,1-.12-1.08,7.09,7.09,0,0,1,0-1A3.92,3.92,0,0,1,36.18,178.4Z"/><path class="cls-8" d="M109.26,55.71c-1.46-8.4-12.14-21.27-12.14-21.27a25.85,25.85,0,0,1,0,5.94c-4.41-2.85-8.64-10.18-8.64-10.18a19.51,19.51,0,0,1-.73,6.19A28.84,28.84,0,0,1,73.9,30.2a16.33,16.33,0,0,1,0,5.43,17,17,0,0,1-6.41-4.94c-6.74,6.89-16.65,4.07-16.65,4.07a14.33,14.33,0,0,0,7.73-4.07c-11.47,5-18.42.91-18.42.91C31.28,37,34.38,44.94,32.66,42.26a13.43,13.43,0,0,1-1.86-5.78S26.32,50.65,25,50.65s-1.47-3.59-1.47-3.59C19.72,62.38,17,58.22,17,58.22s2.38,8,3.46,13.81a149.19,149.19,0,0,1,1.64,15.09s.49,9,6.19,14.2,25.92,11.9,34.3,11.81,28-7.24,34.55-11.15,9.45-12.71,10.09-18.41C108.2,78.65,110.72,64.09,109.26,55.71Z"/><path class="cls-9" d="M109.5,55.67c-.9-4.91-3.76-9.46-6.47-13.56a86,86,0,0,0-5.69-7.74c-.07-.08-.48,0-.46.1a23.7,23.7,0,0,1,0,6l.44-.12c-3.64-2.42-6.44-6.42-8.61-10.16-.06-.11-.49,0-.48.09a16.35,16.35,0,0,1-.72,6.17l.4-.1c-4.84-.85-10.1-2.79-13.79-6.16-.08-.08-.48-.06-.46.09a15.85,15.85,0,0,1,0,5.41l.44-.09a15.77,15.77,0,0,1-6.39-4.92c-.08-.11-.36,0-.44.05-4,4-9.82,5.22-15.32,4.2-.32-.06-.63-.12-1-.21,1.16.32,3.16-.82,4.2-1.34a11.49,11.49,0,0,0,3.6-2.63c.12-.15-.3-.1-.36-.08a25.94,25.94,0,0,1-13.52,2.26,12.56,12.56,0,0,1-4.58-1.36.44.44,0,0,0-.37,0,13.56,13.56,0,0,0-6.66,9.31c-.08.48-.14,1-.21,1.44a1.23,1.23,0,0,1-.1.43c.14-.29.32.07,0-.35a12,12,0,0,1-2-6c0-.13-.43-.06-.47.05-.94,3-2,6-3.08,8.91a24.56,24.56,0,0,1-2.11,4.71,1.58,1.58,0,0,1-.4.46c-.24.16-.78-1.19-.83-1.3A10.06,10.06,0,0,1,23.78,47c0-.13-.44-.07-.47,0a53.85,53.85,0,0,1-2.4,7.65,10.1,10.1,0,0,1-2,3.4c-.52.52-1.24.73-1.7,0-.06-.09-.5,0-.47.1C18,62.59,19.18,67,20.08,71.39a116.07,116.07,0,0,1,1.71,14.88A28.09,28.09,0,0,0,23.33,94a19.3,19.3,0,0,0,4,6.7A18.58,18.58,0,0,0,31.79,104a74.22,74.22,0,0,0,13.7,5.75,72.73,72.73,0,0,0,14.18,3.34,32.6,32.6,0,0,0,11.44-1.18,124.73,124.73,0,0,0,15.08-4.82,61.81,61.81,0,0,0,11.67-5.41c4.48-2.9,7.12-8.09,8.58-13.07.6-2.08.86-4.2,1.27-6.32s.74-4.25,1.05-6.39a83.83,83.83,0,0,0,1.1-17,29.1,29.1,0,0,0-.36-3.25c0-.14-.51-.06-.49.07.92,5.45.4,11.15-.25,16.61-.53,4.56-1.28,9.13-2.15,13.63-1,5.34-3.43,10.75-7.55,14.41a23.71,23.71,0,0,1-5.7,3.42c-2.15,1-4.35,1.93-6.55,2.8a127.84,127.84,0,0,1-15.57,5,32.14,32.14,0,0,1-12.78,1,80.9,80.9,0,0,1-15.08-4,58.63,58.63,0,0,1-13-6c-5.93-3.91-7.7-11-8.19-17.63a108.08,108.08,0,0,0-1.84-14.79c-.85-4.07-1.94-8.11-3.12-12.1l-.47.11a1.54,1.54,0,0,0,2.05.28,6.24,6.24,0,0,0,2.1-2.8,43.61,43.61,0,0,0,2.88-8.71l-.47,0c0,1,.21,3.82,1.76,3.64,1.05-.12,1.72-2.5,2-3.24,1.52-3.58,2.74-7.32,3.92-11l-.48.05a12.76,12.76,0,0,0,1.89,5.8c.18.3.67.92,1,.4a2,2,0,0,0,.16-.79,19.2,19.2,0,0,1,.33-2,12.77,12.77,0,0,1,4.19-6.73A18.61,18.61,0,0,0,40,31.69a5.77,5.77,0,0,0,.56.27,14.85,14.85,0,0,0,3.68,1c4.92.83,10-.32,14.52-2.25l-.35-.07c-1.85,2.18-4.9,3.39-7.6,4-.09,0-.25.13-.08.18a17.8,17.8,0,0,0,17-4.16l-.44.05a15.86,15.86,0,0,0,6.43,5c.09,0,.41,0,.44-.09a15.89,15.89,0,0,0,0-5.46l-.46.1c3.72,3.41,9,5.37,13.91,6.22.09,0,.36,0,.4-.1a16.62,16.62,0,0,0,.74-6.22l-.46.1c2.18,3.77,5,7.76,8.65,10.2.1.06.43,0,.44-.11a22.36,22.36,0,0,0,0-6l-.46.1c1.91,2.31,3.68,4.75,5.35,7.24,2.85,4.21,5.84,8.93,6.77,14C109.05,55.88,109.52,55.8,109.5,55.67Z"/><path class="cls-10" d="M32.87,61c4.67-1.33,11.26-.94,17.57,2.06,2.39,1.14-.56-2.44-7.15-7.43S26.94,62.69,32.87,61Z"/><path class="cls-10" d="M71.42,60.76c5.48-4.69,14.18-9.82,17.78-6.34s6.58,8,1.16,6.34-12.64-1.49-17.44.79C70.75,62.57,69.86,62.09,71.42,60.76Z"/><path class="cls-10" d="M50.52,96.44c.89-.9,4.21,2.21,12.82,1.53S76,93.91,77,94.24s1.75,10.46-12.64,11.24C50.81,106.22,49.61,97.34,50.52,96.44Z"/><path class="cls-11" d="M51.61,97.71a39.78,39.78,0,0,0,24.54-1.88s-2.05,7.49-12.28,7.69S51.61,97.71,51.61,97.71Z"/><path class="cls-9" d="M51.49,97.77a31.61,31.61,0,0,0,7.69,1.12,40.67,40.67,0,0,0,17.17-3l-.45-.09c-1.27,4.59-6.29,7.07-10.65,7.53-3.8.4-8.08-.21-11.12-2.68a7.07,7.07,0,0,1-2.28-3c-.05-.13-.52-.13-.47,0a7.85,7.85,0,0,0,2.77,3.37c3,2.22,7,2.68,10.54,2.51,4.72-.22,10.32-2.78,11.69-7.74.05-.14-.38-.12-.45-.09a40.23,40.23,0,0,1-17,2.92,30.11,30.11,0,0,1-7.14-1C51.6,97.6,51.18,97.69,51.49,97.77Z"/><path class="cls-12" d="M33.48,60.75c-.73.25,4.17-6.51,6.85-6.11s10.58,6,11.28,8.32C51.73,63.36,42,57.93,33.48,60.75Z"/><path class="cls-13" d="M33.36,60.67c.41-.07.26,0,.45-.32a4.66,4.66,0,0,1,.4-.62A16.66,16.66,0,0,1,35.53,58c1.1-1.28,2.55-2.87,4.26-3.29a4,4,0,0,1,2.3.65A28,28,0,0,1,44.81,57a32.76,32.76,0,0,1,4.73,3.65,10,10,0,0,1,1.52,1.73c.22.34.16.44.55.54a4.19,4.19,0,0,1-.59-.22c-1.44-.58-2.88-1.13-4.37-1.57a22.54,22.54,0,0,0-13.33-.4c-.24.08.22.18.33.14,5.65-1.78,11.57-.24,16.88,1.91.29.11,1.55.74,1.23,0-.68-1.62-2.57-2.93-3.89-4a30.66,30.66,0,0,0-5.65-3.55,3.84,3.84,0,0,0-3.61-.24,13.47,13.47,0,0,0-4.15,3.77c-.15.19-1.75,2.07-1.08,2.15a.89.89,0,0,0,.23,0C33.91,60.79,33.51,60.64,33.36,60.67Z"/><path class="cls-12" d="M72.05,61.54c.79.15,9.75-3.94,20.38-.76.53.16-2.52-5.86-5.82-7C82.7,52.53,70.59,61.27,72.05,61.54Z"/><path class="cls-13" d="M72.1,61.64c1,.1,2.28-.55,3.22-.8a36.1,36.1,0,0,1,8-1.16,29.6,29.6,0,0,1,5.56.38,28.39,28.39,0,0,1,3,.67c.11,0,.55.23.75.14.5-.21-1.53-3.17-1.7-3.41a9.07,9.07,0,0,0-4.39-3.75,6.48,6.48,0,0,0-3.8.47A32.31,32.31,0,0,0,72.9,60c-.22.19-1.79,1.39-.94,1.63.2.06.49-.07.17-.16a24.84,24.84,0,0,1,1.92-1.89,39.25,39.25,0,0,1,4.88-3.23A22,22,0,0,1,84.32,54a3.9,3.9,0,0,1,2.61.06,8.39,8.39,0,0,1,2.87,2.46,16.56,16.56,0,0,1,1.78,2.62c.18.32.35.66.5,1s.31.51,0,.42a30.33,30.33,0,0,0-8.94-1.1,35.42,35.42,0,0,0-7.39,1c-.82.2-1.64.43-2.46.66a3.76,3.76,0,0,1-1.26.31C71.67,61.41,71.88,61.63,72.1,61.64Z"/><path class="cls-9" d="M61.62,86.4s-.34-.05-.95-.08a8.81,8.81,0,0,0-1.06,0,12.48,12.48,0,0,0-1.37.14,4.37,4.37,0,0,0-1.48.52,2.32,2.32,0,0,0-1,1.25c0,.13-.09.3-.12.4l0,.48a1.44,1.44,0,0,0,.06.43,1.38,1.38,0,0,0,.11.42,3.15,3.15,0,0,0,.43.81,4.25,4.25,0,0,0,.67.67,5.82,5.82,0,0,0,1.66,1,10.57,10.57,0,0,0,1.86.42,13.87,13.87,0,0,0,1.8.06,12.81,12.81,0,0,0,1.62-.2l.72-.15.63-.18a7.81,7.81,0,0,0,1-.32l.89-.31-.83.43a7.56,7.56,0,0,1-1,.44l-.63.24-.72.2a13.92,13.92,0,0,1-1.66.33l-.92,0a8.1,8.1,0,0,1-1,0,8.55,8.55,0,0,1-2-.4,6.21,6.21,0,0,1-1.88-1,5.1,5.1,0,0,1-.76-.78,3.75,3.75,0,0,1-.52-1A2.33,2.33,0,0,1,55,89.6,3.69,3.69,0,0,1,55,89c0-.16,0-.33.06-.48a2.4,2.4,0,0,1,.16-.55,2.72,2.72,0,0,1,1.33-1.47,5,5,0,0,1,1.68-.46,9.9,9.9,0,0,1,2.5.1A7.65,7.65,0,0,1,61.62,86.4Z"/><path class="cls-9" d="M59.35,83a2.41,2.41,0,0,1,.19.51,3.45,3.45,0,0,1,.09,1.15c0,.21-.08.41-.13.6a1.36,1.36,0,0,1-.11.28c0,.08-.08.16-.11.23a1.32,1.32,0,0,1-.26.32l-.12.1V86c0-.1,0-.22,0-.37a4.29,4.29,0,0,1,0-.5c0-.18,0-.38,0-.57s.06-.39.09-.57.07-.36.12-.51A3.27,3.27,0,0,1,59.35,83Z"/><path class="cls-10" d="M93,82.13c-.21.09-.52-.14-.43-.37s.15-.5.23-.76v0c1.41-5.73.16-13.81-5.49-16.71-5-2.55-11.51,2.69-11.18,8.48a17.71,17.71,0,0,1,.23-3.69c-1.63,3.16-2,13.77,3.92,17.54a8.65,8.65,0,0,0,7.32.76s-.15,2.82,0,3.34A11.84,11.84,0,0,1,90.18,85a8.77,8.77,0,0,1,2.31-1.61,18.54,18.54,0,0,1,4.57-1.67A6,6,0,0,0,93,82.13Z"/><path class="cls-14" d="M95.24,81.91a10.73,10.73,0,0,0-3.89,1.37,13.18,13.18,0,0,0,1-4.18A17.22,17.22,0,0,0,91,71.28a9.56,9.56,0,0,0-5-5.38c-2.36-1.05-4.72-.26-6.55,1.4S77,71.9,76.7,74.07A16.12,16.12,0,0,0,78,82.7c.86,2,2.95,4.16,5.23,4.42,1.17.13,3.83.27,5.13-.64a5.85,5.85,0,0,0-.58,3.12h0a7.46,7.46,0,0,1,2.28-4.89A10.33,10.33,0,0,1,95.25,82C95.32,82,95.32,81.9,95.24,81.91Z"/><path class="cls-15" d="M89.5,84.75a6.66,6.66,0,0,0-.84,1.16c-1.34,1.12-4.28,1.14-5.79.71a7.6,7.6,0,0,1-4.89-5c-1.53-4.5-1.43-9.25,1.12-13.39a5.6,5.6,0,0,1,6.75-2c2.29.82,4,3,5,5.17a17,17,0,0,1,1.35,5.76,13.14,13.14,0,0,1-.38,4,9.39,9.39,0,0,1-.88,2.41A8.18,8.18,0,0,0,89.5,84.75Z"/><path class="cls-16" d="M91.45,73.12a17.68,17.68,0,0,1,0,5.29,7.63,7.63,0,0,1-3.54,5.68,6.34,6.34,0,0,1-6.33.48c-4.11-2.19-4.93-7.41-4.21-12.13A16.53,16.53,0,0,0,78,81.6a7.6,7.6,0,0,0,4.89,5c1.51.43,4.45.41,5.79-.71a6.66,6.66,0,0,1,.84-1.16,8.18,8.18,0,0,1,1.41-1.18,9.39,9.39,0,0,0,.88-2.41,13.14,13.14,0,0,0,.38-4A18.91,18.91,0,0,0,91.45,73.12Z"/><path class="cls-17" d="M90.22,75.76c.31,4.54-2,8.47-5.07,8.79s-5.84-3.1-6.15-7.63,2-8.47,5.07-8.78S89.92,71.24,90.22,75.76Z"/><path class="cls-18" d="M88.92,76.21c.22,3.46-1.51,6.45-3.87,6.69s-4.47-2.36-4.7-5.82,1.5-6.45,3.87-6.7S88.68,72.75,88.92,76.21Z"/><path class="cls-19" d="M87.71,76c.14,2.35-1,4.39-2.64,4.56s-3-1.62-3.2-4,1-4.4,2.64-4.56S87.55,73.65,87.71,76Z"/><g class="cls-20"><path class="cls-21" d="M79,75.61a11.5,11.5,0,0,0,0,1.31c.31,4.53,3.06,7.94,6.15,7.63s5.38-4.25,5.07-8.79c0-.41-.09-.82-.15-1.22C86.86,77.35,82,78.42,79,75.61Z"/></g><path class="cls-15" d="M83.66,74.44c0,1.42-.85,2.58-1.81,2.58s-1.73-1.16-1.7-2.58S81,71.87,82,71.87,83.68,73,83.66,74.44Z"/><path class="cls-15" d="M82.88,78.93c0,.68-.39,1.23-.85,1.23s-.82-.56-.81-1.23.39-1.22.86-1.22S82.89,78.26,82.88,78.93Z"/><path class="cls-14" d="M88.29,65.74a6.74,6.74,0,0,0-4.69-1.13,8.37,8.37,0,0,0-4.09,1.83c-2.87,2.3-3.43,6.15-3.23,9.62,0,0,.09,0,.09,0,0-3.29.57-6.84,3.14-9.15a7.49,7.49,0,0,1,8.75-1.07S88.35,65.77,88.29,65.74Z"/><path class="cls-10" d="M40.76,87.61c12,2.83,11.18-14.43,6.86-20.62-4.19-6-11.24-4-13.81,3.74s-.66,11.49-.66,11.49a6.41,6.41,0,0,0-2.9.08c-2,.67,6.52-.7,10.15,7.14C41,90.8,41.22,88.69,40.76,87.61Z"/><path class="cls-15" d="M48.69,82.25a9.83,9.83,0,0,1-2.18,3.64,9.34,9.34,0,0,1-3.74.93,10.94,10.94,0,0,1-3.85-.61,10,10,0,0,0-2-1.79,8.62,8.62,0,0,0-1.72-.92,9.08,9.08,0,0,1-1.47-4.4,19.8,19.8,0,0,1,1.09-7.69c.7-2.22,1.92-4.67,4.34-5.65a.48.48,0,0,1,.18-.06,6.74,6.74,0,0,1,5.2,1.12,10.82,10.82,0,0,1,3.54,5.41,20,20,0,0,1,1.06,6.5A13.16,13.16,0,0,1,48.69,82.25Z"/><path class="cls-16" d="M49.17,78.73a20,20,0,0,0-1.06-6.5,10.82,10.82,0,0,0-3.54-5.41,6.74,6.74,0,0,0-5.2-1.12.48.48,0,0,0-.18.06.31.31,0,0,0-.1,0c3.33-.54,6.24,2.72,7.66,5.34a13.12,13.12,0,0,1,1.41,9.58c-.68,2.42-2.67,5.09-5.59,5.14a8.59,8.59,0,0,1-4.65-1.6,10.87,10.87,0,0,1-3.14-3,12.42,12.42,0,0,1-1-1.73,8.79,8.79,0,0,0,1.42,3.93,8.62,8.62,0,0,1,1.72.92,10,10,0,0,1,2,1.79,10.94,10.94,0,0,0,3.85.61,9.34,9.34,0,0,0,3.74-.93,9.83,9.83,0,0,0,2.18-3.64A13.16,13.16,0,0,0,49.17,78.73Z"/><path class="cls-14" d="M49.43,78.93a18.74,18.74,0,0,0-1.2-7.13,10.91,10.91,0,0,0-3.76-5.41c-5.89-4.1-9.61,2.88-10.55,7.39a15.76,15.76,0,0,0-.06,7.57,7.6,7.6,0,0,0,.78,1.8A13,13,0,0,0,32,82.61s-.06.07,0,.08c3.94.75,5.89,2.42,8,5.52,0,.05.12,0,.1,0a4.92,4.92,0,0,0-.73-1.58c2.14.66,4.75,1,6.79-.12a5.4,5.4,0,0,0,1.48-1.23C49,83.54,49.32,81,49.43,78.93Zm-1,3.18a9.8,9.8,0,0,1-2.15,3.61,8.81,8.81,0,0,1-3.65.9A10.8,10.8,0,0,1,38.87,86,10.53,10.53,0,0,0,37,84.27a7.42,7.42,0,0,0-1.69-.9A9.07,9.07,0,0,1,33.86,79a20,20,0,0,1,1.06-7.6c.69-2.19,1.89-4.61,4.27-5.58a1.13,1.13,0,0,1,.18-.07,6.53,6.53,0,0,1,5.07,1.11,10.7,10.7,0,0,1,3.46,5.33,20,20,0,0,1,1,6.42A12.42,12.42,0,0,1,48.45,82.11Z"/><path class="cls-17" d="M48.48,76.46c.29,4.48-2,8.29-5.18,8.52s-5.92-3.21-6.18-7.67,2-8.3,5.18-8.53S48.23,72,48.48,76.46Z"/><path class="cls-18" d="M47.17,76.86c.2,3.42-1.57,6.33-4,6.51s-4.51-2.46-4.73-5.87,1.57-6.32,4-6.5S47,73.45,47.17,76.86Z"/><path class="cls-19" d="M46.48,76.85c.15,2.46-1.12,4.55-2.84,4.67s-3.26-1.75-3.41-4.21,1.13-4.55,2.86-4.67S46.34,74.39,46.48,76.85Z"/><g class="cls-20"><path class="cls-21" d="M37.12,76a7.05,7.05,0,0,0,0,1.3c.26,4.46,3,7.91,6.18,7.67s5.47-4,5.18-8.52a9.74,9.74,0,0,0-.14-1.21C45.07,77.93,40.12,78.87,37.12,76Z"/></g><path class="cls-15" d="M41.84,75c-.05,1.4-.87,2.51-1.86,2.48s-1.74-1.18-1.69-2.58.86-2.51,1.85-2.48S41.87,73.59,41.84,75Z"/><path class="cls-15" d="M41,79.39c0,.67-.4,1.2-.88,1.19s-.83-.56-.81-1.23.42-1.2.88-1.19S41.05,78.73,41,79.39Z"/><path class="cls-14" d="M38.61,65.27a3.09,3.09,0,0,1,.83-.46,5.25,5.25,0,0,1,2.49-.38,6.12,6.12,0,0,1,.82.14,7.31,7.31,0,0,1,.84.26,5.48,5.48,0,0,1,.85.4,5.13,5.13,0,0,1,.82.52,5.9,5.9,0,0,1,.79.63l.38.33c.15.14.23.27.36.39a9.83,9.83,0,0,1,1.26,1.68c.15.31.35.62.48.93s.28.65.39,1,.22.65.33,1,.17.65.26,1a16.39,16.39,0,0,1,.31,1.86c.08.59.13,1.15.15,1.67a20.14,20.14,0,0,1,0,2.5c0,.6-.08,1-.08,1s0-.35,0-1-.08-1.45-.18-2.48c0-.51-.13-1.06-.23-1.63s-.25-1.19-.39-1.81c-.08-.31-.17-.62-.26-.93s-.21-.62-.34-.94-.26-.61-.39-.92-.32-.59-.47-.89a9.18,9.18,0,0,0-1.18-1.62,2.91,2.91,0,0,0-.32-.36l-.36-.33a6,6,0,0,0-.74-.61,5.57,5.57,0,0,0-.78-.52,6.31,6.31,0,0,0-.76-.42c-.27-.12-.54-.2-.79-.29a6.36,6.36,0,0,0-.77-.17,5.91,5.91,0,0,0-1.38,0,5.24,5.24,0,0,0-1,.22A4,4,0,0,0,38.61,65.27Z"/><path class="cls-22" d="M25.82,84.15c3-2,11.27-.58,14.27,6S22.93,86,25.82,84.15Z"/><path class="cls-22" d="M100.69,82.2C97.31,81,89.54,84.05,88,91.13S103.9,83.4,100.69,82.2Z"/><g class="cls-23"><path class="cls-24" d="M48.26,59.25c.51,1-1.29.55-2.51-.09-4.43-2.29-6.6-1.79-8.48-1.18-1,.32-2.31.82-2,.06-1.28,1.47-2.12,2.83-1.79,2.71C42,57.93,51.73,63.36,51.61,63,51.34,62,50,60.64,48.26,59.25Z"/></g><g class="cls-23"><path class="cls-24" d="M91,57.9c.14,1-1.27,0-2.39-.66-2.41-1.44-3.86-1.46-8.79.23-1.88.64-4.2,1.69-3.74.39-2.73,1.82-4.71,3.57-4.06,3.68s9.75-3.94,20.38-.76C92.69,60.86,92.08,59.47,91,57.9Z"/></g><path class="cls-25" d="M36.35,57.47S38.76,55.1,39.92,55s4.46,1.49,6.79,3.57c0,0-4.61-3.07-6.5-3C38.76,55.6,36.35,57.47,36.35,57.47Z"/><path class="cls-25" d="M89.75,56.74s-2.61-2.56-4-2.68-5.12,1.48-7.8,3.55c0,0,5.3-3.07,7.47-3C87.13,54.7,89.75,56.74,89.75,56.74Z"/><path class="cls-22" d="M61.84,86.88s-2.83-.8-4.61.19A2.08,2.08,0,0,0,57,90.7s-.52-2,.86-2.89A9.76,9.76,0,0,1,61.84,86.88Z"/><path class="cls-10" d="M55.27,89.2s1.2,2,5.27,2.27,7.73-2,7.73-1.87-.44,3.59-7.11,3.59C54.91,93.19,55.27,89.2,55.27,89.2Z"/><path class="cls-22" d="M59.72,85.52s1.3-4.4,0-11.73S67.3,75.17,59.72,85.52Z"/><g class="cls-4"><path class="cls-26" d="M109.26,55.71c-1.46-8.4-12.14-21.27-12.14-21.27a25.85,25.85,0,0,1,0,5.94c-4.41-2.85-8.64-10.18-8.64-10.18a19.51,19.51,0,0,1-.73,6.19A28.84,28.84,0,0,1,73.9,30.2a16.33,16.33,0,0,1,0,5.43,17,17,0,0,1-6.41-4.94c-6.74,6.89-16.65,4.07-16.65,4.07a14.33,14.33,0,0,0,7.73-4.07c-11.47,5-18.42.91-18.42.91C31.28,37,34.38,44.94,32.66,42.26a13.43,13.43,0,0,1-1.86-5.78S26.32,50.65,25,50.65s-1.47-3.59-1.47-3.59C19.72,62.38,17,58.22,17,58.22s2.38,8,3.46,13.81a149.19,149.19,0,0,1,1.64,15.09s.49,9,6.19,14.2,25.92,11.9,34.3,11.81,28-7.24,34.55-11.15,9.45-12.71,10.09-18.41C108.2,78.65,110.72,64.09,109.26,55.71ZM100.38,95c-5.13,7.42-26.8,16.38-37.06,17.07s-35.66-9.84-38.14-18.75-.47-17.43-1.31-23.79C22.47,59,25.23,53.88,25.81,55.14s1.32,3.91,2.51,1.2c3.57-8.07,2.83-12.19,3.87-10.36s2.63,5.62,3.08,2.74C36.75,39,49.59,37.57,47.42,39.07s-3,2.16,2,2.16c17.29,0,18.3-5.07,19.81-2.7s7.5,7.45,8,4.22,1.62-4,4.16-2.31c5.29,3.5,13.28,5.76,10.48,2.09-.91-1.2,9.12,1,12.48,14.16S105.14,88.09,100.38,95Z"/></g><g class="cls-4"><path class="cls-26" d="M19.6,61.48s2.85-2.64,4.47-9.16c0,0,3.07,5.15,7.19-8.92,0,0,.29,1,2.38,2.39s1.49-1.95,2.36-5.33A10.69,10.69,0,0,1,40.12,35a11.33,11.33,0,0,0,7.29,1.31S58,39.65,67.05,34.12c0,0,.76,2.6,7.42,6.19,0,0,1.54-3.87,1.21-6.09a36.71,36.71,0,0,0,13.25,6.09,17.92,17.92,0,0,0,.82-4.58,27.44,27.44,0,0,0,8.65,7.89l.32-2.07s11.42,8,10,32.16l.08,0c.76-6,1.29-13,.42-18-1.46-8.4-12.14-21.27-12.14-21.27a25.85,25.85,0,0,1,0,5.94c-4.41-2.85-8.64-10.18-8.64-10.18a19.51,19.51,0,0,1-.73,6.19A28.84,28.84,0,0,1,73.9,30.2a16.33,16.33,0,0,1,0,5.43,17,17,0,0,1-6.41-4.94c-6.74,6.89-16.65,4.07-16.65,4.07a14.33,14.33,0,0,0,7.73-4.07c-11.47,5-18.42.91-18.42.91C31.28,37,34.38,44.94,32.66,42.26a13.43,13.43,0,0,1-1.86-5.78S26.32,50.65,25,50.65s-1.47-3.59-1.47-3.59C19.72,62.38,17,58.22,17,58.22s2.38,8,3.46,13.81c.27,1.39.5,3,.7,4.61C21.35,75.93,22.26,71.91,19.6,61.48Z"/></g><g class="cls-27"><path class="cls-16" d="M63.87,99.51a19.91,19.91,0,0,1,9.44.6,10.28,10.28,0,0,0,2.84-4.28,39.78,39.78,0,0,1-24.54,1.88,8.52,8.52,0,0,0,4.21,4.23C57.14,101.09,59.55,100.14,63.87,99.51Z"/></g><path class="cls-8" d="M12.85,74.08s-3.92,3.26-1.53,9.68,9.23,6.62,10.76,3.36c0,0-.3-5.21-.91-10.24h0C19.12,68.31,12.85,74.08,12.85,74.08Z"/><path class="cls-9" d="M12.64,74C6.85,79,12.37,91.54,20.13,89c1-.34,2.25-1.19,2.17-2.36q-.29-4.42-.78-8.84c-.21-1.9-1-4.53-2.92-5.38a4.52,4.52,0,0,0-3.5.09A8.29,8.29,0,0,0,12.64,74c-.14.13.32.17.43.08,1.78-1.63,4.56-2.73,6.39-.58s1.74,5.57,2,8.24c.11,1.27.22,2.54.3,3.82a3.15,3.15,0,0,1-.06,1.83c-1,1.75-3.42,1.9-5.15,1.38a8,8,0,0,1-4.84-4.76c-1.3-3-1.39-7.58,1.39-9.93C13.2,74,12.74,74,12.64,74Z"/><path class="cls-9" d="M13.68,81.28s-.1-.17-.19-.52a2.18,2.18,0,0,1-.06-.66,2.28,2.28,0,0,1,.13-.86,2.69,2.69,0,0,1,1.52-1.6,2.52,2.52,0,0,1,1.29-.15,2.76,2.76,0,0,1,1.24.54A4.68,4.68,0,0,1,19,80.13a7.21,7.21,0,0,1,.27,1.09,7.62,7.62,0,0,1,.11,1,4.77,4.77,0,0,1,0,.83c0,.25,0,.46,0,.64,0,.36,0,.56,0,.56a4.72,4.72,0,0,1-.09-.55c0-.35-.13-.85-.25-1.43a10.39,10.39,0,0,0-.55-1.93,7.72,7.72,0,0,0-.51-1,3.44,3.44,0,0,0-.72-.8,2,2,0,0,0-1.93-.37,2.47,2.47,0,0,0-1.36,1.21,2.88,2.88,0,0,0-.25.73,1.87,1.87,0,0,0,0,.61,3,3,0,0,0,0,.4C13.67,81.23,13.68,81.28,13.68,81.28Z"/><path class="cls-9" d="M16.3,83a2,2,0,0,1,.24.11.81.81,0,0,0,.25.09.93.93,0,0,0,.29,0l.16,0,.15,0a1,1,0,0,0,.27-.23,1.72,1.72,0,0,0,.24-.34,3,3,0,0,0,.16-.42c0-.15.1-.3.12-.46a2.42,2.42,0,0,0,.07-.47c0-.3.07-.6.08-.85s0-.47,0-.64,0-.23,0-.23.05.08.12.22a4.61,4.61,0,0,1,.21.61,3,3,0,0,1,.09.43,2.69,2.69,0,0,1,0,.5,3.53,3.53,0,0,1-.13,1.09,3.11,3.11,0,0,1-.25.52,1.63,1.63,0,0,1-.37.46,1.44,1.44,0,0,1-.52.27c-.09,0-.19,0-.27,0L17,83.6a.84.84,0,0,1-.36-.2,1.37,1.37,0,0,1-.21-.2Z"/><g class="cls-4"><path class="cls-26" d="M21.17,76.88c-2.05-8.57-8.32-2.8-8.32-2.8a7.07,7.07,0,0,0-1.77,2.76c.13-.16,2.75-3,4.47-3.46,3.17-.74,5.27,2.83,1.43,3.8s-4.51,2.28-3.86,4.62,6.36,5.7,6.68,2.12,4.91,7.57-4.83,4.34c2.82,1.63,6.1,1,7.11-1.14C22.08,87.12,21.78,81.91,21.17,76.88Z"/></g><path class="cls-8" d="M109.15,71c-.56,5.29-1.44,10.13-1.94,12.58a4.53,4.53,0,0,0,6,.89c3.75-2,7.66-10.59,3.17-14.09C112.58,67.2,109.16,71,109.15,71Z"/><path class="cls-9" d="M108.91,71q-.51,4.61-1.3,9.17c-.19,1.13-.4,2.26-.62,3.38,0,.21.58.64.71.74,2.93,2.35,6.54.11,8.41-2.42,2.21-3,3.85-8.16.89-11.21-2.35-2.42-5.84-2-8.07.3-.12.12.34.13.43,0a6.39,6.39,0,0,1,2.8-1.68c2.3-.65,4.67,1.15,5.52,3.19,1.3,3-.27,6.86-2,9.38s-5.76,4.66-8.19,1.62a7,7,0,0,1,.36-1.79c.18-1,.36-2,.53-3,.41-2.57.76-5.14,1-7.73C109.41,70.85,108.92,70.87,108.91,71Z"/><path class="cls-9" d="M115,76.32s0-.18-.11-.49a1.49,1.49,0,0,0-.24-.47.82.82,0,0,0-.2-.22.8.8,0,0,0-.28-.2,1.39,1.39,0,0,0-.72-.15,2,2,0,0,0-.81.21,3.53,3.53,0,0,0-.77.53,3.71,3.71,0,0,0-.6.75,3.09,3.09,0,0,0-.24.44l-.1.21,0,.07s0,0,0,0l0,.12c-.09.34-.25.67-.3,1s-.12.59-.12.87a4.4,4.4,0,0,0,0,.83,4.46,4.46,0,0,0,.13.69,3.25,3.25,0,0,0,.19.51,3.55,3.55,0,0,0,.22.44l-.09-.09a3.1,3.1,0,0,1-.25-.29,3.17,3.17,0,0,1-.29-.48c0-.1-.11-.21-.16-.33s-.08-.25-.12-.38A4,4,0,0,1,110,79a7.25,7.25,0,0,1,0-1c.06-.35.17-.66.26-1l0-.13,0-.1,0,0,.12-.27a3.06,3.06,0,0,1,.27-.5,2.43,2.43,0,0,1,.33-.46,4,4,0,0,1,.41-.41,3,3,0,0,1,.94-.59,2.46,2.46,0,0,1,1.06-.17,1.85,1.85,0,0,1,.49.09,3.3,3.3,0,0,1,.42.23,1.26,1.26,0,0,1,.49.63,1.84,1.84,0,0,1,.16.57c0,.15,0,.28,0,.37A1.16,1.16,0,0,0,115,76.32Z"/><path class="cls-9" d="M111.14,75.93s0,.31.07.74a5.85,5.85,0,0,0,.28,1.46,2.67,2.67,0,0,0,.14.36,2.07,2.07,0,0,0,.19.32c.06.1.13.19.19.28a1.81,1.81,0,0,0,.24.24,5,5,0,0,0,.37.35l.16.14-.2,0a1.85,1.85,0,0,1-.54-.16,1,1,0,0,1-.35-.19,2.13,2.13,0,0,1-.33-.28,2.76,2.76,0,0,1-.28-.39,3.42,3.42,0,0,1-.21-.43,3.06,3.06,0,0,1-.15-.93,3,3,0,0,1,.11-.78A2.31,2.31,0,0,1,111.14,75.93Z"/><g class="cls-4"><path class="cls-26" d="M109.7,81.47c2.3,1.13,4.71-.54,6-3.59s-1.35-4.44-3.08-4-2.66-.6-1.64-2.79c.71-1.52,3-1.94,5.32-.75-3.77-3.11-7.15.66-7.16.66-.56,5.29-1.44,10.13-1.94,12.58a4.37,4.37,0,0,0,1.27,1C107.53,83,108.5,80.87,109.7,81.47Z"/></g><path class="cls-28" d="M120.83,47.91a17.36,17.36,0,0,1,5.1,2.17s-1.09-14.24-9.13-24.44-15.75-11.52-15.75-11.52,5.22-3.36,2.3-4a8.5,8.5,0,0,0-5.77,1.2C97.46,7,94.53,2,94.32,4.57a34.29,34.29,0,0,1-.76,4.78C66-11.52,25.88,7.39,15.24,20.43S2.09,38.51,2.09,38.51a26.39,26.39,0,0,0,5.49-1,9.39,9.39,0,0,0-5.22,7,5.86,5.86,0,0,1,4.4-2.13,27.66,27.66,0,0,0-6.51,10c6.51,5.73,12.6,21.7,12.6,21.7s6.27-5.77,8.32,2.8c-.2-1.71-.45-3.4-.73-4.85C19.36,66.27,17,58.22,17,58.22s2.74,4.16,6.57-11.16c0,0,.15,3.59,1.47,3.59S30.8,36.48,30.8,36.48a13.43,13.43,0,0,0,1.86,5.78c1.72,2.68-1.38-5.28,7.49-10.66,0,0,7,4.06,18.42-.91a14.33,14.33,0,0,1-7.73,4.07s9.91,2.82,16.65-4.07a17,17,0,0,0,6.41,4.94,16.33,16.33,0,0,0,0-5.43,28.84,28.84,0,0,0,13.85,6.19,19.51,19.51,0,0,0,.73-6.19s4.23,7.33,8.64,10.18a25.85,25.85,0,0,0,0-5.94s10.68,12.87,12.14,21.27c.73,4.2.46,10-.11,15.28,0,0,3.43-3.79,7.19-.62,3.58-12.3,7-13.85,6.68-14.83s-2.53-3-2.53-3a19.21,19.21,0,0,0,4.14.71C123.33,52.15,120.83,47.91,120.83,47.91Z"/><path class="cls-29" d="M120.66,48a16.48,16.48,0,0,1,5.07,2.16c.07,0,.45.05.44-.09a47.16,47.16,0,0,0-1.51-8.25A45,45,0,0,0,117.5,26.2a35,35,0,0,0-12.72-10.89,16.86,16.86,0,0,0-3.22-1.2l-.31-.07c-.16,0,0,.11.06.08A18.31,18.31,0,0,0,102.82,13c.9-.74,2.68-2.46.68-3a8.26,8.26,0,0,0-6.14,1.24h.46a14.18,14.18,0,0,0-1.22-5.2c-.29-.65-.83-2.15-1.68-2.31-.59-.11-.78.29-.84.81a40.8,40.8,0,0,1-.76,4.79c.14,0,.3-.06.45-.09C75.8-4.19,51.41-1.52,32.25,7.89a67.8,67.8,0,0,0-11,6.7A46.53,46.53,0,0,0,13,22.94C9.87,26.8,6.86,30.73,4.1,34.83A35.26,35.26,0,0,0,1.86,38.5c-.06.11.19.11.23.1a24.82,24.82,0,0,0,5.61-1l-.3-.13a9.34,9.34,0,0,0-5.29,7c0,.15.43.06.49,0a5.43,5.43,0,0,1,4-2c-.54,0-1.29,1.08-1.74,1.59a25.36,25.36,0,0,0-1.8,2.36,25.33,25.33,0,0,0-3.08,6,0,0,0,0,0,0,0c3.85,3.43,6.41,8.31,8.68,12.87a92.49,92.49,0,0,1,3.91,8.81c.06.13.38.09.47,0a7.68,7.68,0,0,1,2.81-1.65c3-1,4.45,2,5,4.43,0,.14.5.1.48,0A112.61,112.61,0,0,0,17.22,58.2l-.48.07a1.54,1.54,0,0,0,2.05.31,6.18,6.18,0,0,0,2.11-2.79,43.49,43.49,0,0,0,2.88-8.72l-.48,0c.05,1,.22,3.83,1.76,3.65,1.07-.12,1.72-2.46,2.05-3.22,1.52-3.59,2.74-7.32,3.92-11l-.48,0a12.86,12.86,0,0,0,1.88,5.8c.18.28.7,1,1,.43s.31-1.92.45-2.61a12.48,12.48,0,0,1,3-5.72,15.32,15.32,0,0,1,1.24-1.18A19.51,19.51,0,0,0,40,31.67a5.85,5.85,0,0,0,.56.28A15.41,15.41,0,0,0,44,33c5,.9,10.15-.27,14.74-2.23l-.41-.06c-1.84,2.18-4.9,3.39-7.57,4-.08,0-.27.13-.09.18,5.83,1.63,12.7.18,17-4.13l-.44,0a16,16,0,0,0,6.47,5c.08,0,.38,0,.4-.08a16.08,16.08,0,0,0,0-5.45l-.47.06c3.74,3.43,9,5.39,14,6.24.08,0,.32,0,.35-.08a16.65,16.65,0,0,0,.74-6.22l-.48.06c2.2,3.78,5,7.77,8.67,10.21.09.06.43.06.45-.09a23.23,23.23,0,0,0,0-6l-.47.07a87.6,87.6,0,0,1,8.29,11.93,29.43,29.43,0,0,1,3.89,9.67c.82,4.89.36,10-.16,14.93,0,.14.39.07.45,0a4.82,4.82,0,0,1,6.78-.58c.08,0,.41,0,.44-.07a44.24,44.24,0,0,1,5.66-12.94,5.62,5.62,0,0,0,1-1.68c.1-.48-.5-1.08-.76-1.41a18.48,18.48,0,0,0-1.79-1.86l-.39.13a19,19,0,0,0,4.23.72s.4,0,.3-.14a21.38,21.38,0,0,1-3.8-5.33c-.08-.12-.54,0-.46.09a21.64,21.64,0,0,0,3.78,5.33l.3-.14a17.82,17.82,0,0,1-4-.7s-.5,0-.39.13c.56.53,1.1,1.08,1.61,1.66.32.37,1,1,.92,1.57s-.78,1.25-1.12,1.72c-2.67,3.85-4.26,8.38-5.57,12.84l.44-.06a5.52,5.52,0,0,0-7.62.66l.46,0A59.3,59.3,0,0,0,109.55,56a27.59,27.59,0,0,0-3.61-9.17,82.53,82.53,0,0,0-8.59-12.48c-.07-.08-.49-.08-.47.06a23.7,23.7,0,0,1,0,5.95l.44-.08c-3.63-2.43-6.44-6.42-8.61-10.17-.06-.1-.49-.07-.48.06a16.42,16.42,0,0,1-.72,6.18l.35-.09c-4.81-.85-10.06-2.79-13.73-6.15-.08-.06-.49-.09-.47.06a15.85,15.85,0,0,1,0,5.41l.41-.08a15.52,15.52,0,0,1-6.35-4.9.43.43,0,0,0-.45,0c-4,4-9.76,5.23-15.23,4.25-.35-.06-.69-.14-1-.23a4.42,4.42,0,0,0,2.26-.5,16.64,16.64,0,0,0,1.94-.83,11.52,11.52,0,0,0,3.61-2.65c.1-.12-.36-.08-.41-.06a26.06,26.06,0,0,1-13.47,2.25,12.58,12.58,0,0,1-4.57-1.35.44.44,0,0,0-.39,0,13.64,13.64,0,0,0-6.66,9.31c-.09.48-.14,1-.21,1.44a1.51,1.51,0,0,1-.1.42c.11-.24.4.13.18-.1L33,42.41a12,12,0,0,1-2-6c0-.12-.43-.09-.47,0-.92,2.93-1.91,5.83-3,8.69A28.52,28.52,0,0,1,25.43,50a2.38,2.38,0,0,1-.39.51c-.33.31-.85-1.1-.89-1.22a8.88,8.88,0,0,1-.36-2.23c0-.13-.45-.1-.48,0a54.12,54.12,0,0,1-2.4,7.64,10.24,10.24,0,0,1-2,3.4c-.51.52-1.23.77-1.71.08-.05-.1-.5-.06-.47.06a113.65,113.65,0,0,1,4.2,18.66l.48,0c-.61-2.42-2-5.16-4.9-4.73a7.46,7.46,0,0,0-3.87,1.93h.45a91.54,91.54,0,0,0-7-14.55,43.4,43.4,0,0,0-3.24-4.69A21.18,21.18,0,0,0,1.2,53c-.4-.42-.78-.46-.58-1A26.33,26.33,0,0,1,7,42.4c.1-.1-.09-.13-.16-.13a6,6,0,0,0-4.68,2.21h.48a9.15,9.15,0,0,1,5.14-6.89c.23-.1-.22-.15-.31-.12a24.4,24.4,0,0,1-5.36.95l.25.1a35.05,35.05,0,0,1,2.36-3.82c3-4.43,6.25-8.64,9.59-12.79C19.89,15,27.51,10.19,35.61,6.59,54-1.57,76.56-3.18,93.35,9.41c.1.07.42.05.45-.09.18-.74.33-1.5.45-2.26s.2-1.37.27-2.06c0-.43,0-1.31.48-.77,1.64,1.67,2.24,4.86,2.34,7.09,0,.16.38,0,.45,0a8.67,8.67,0,0,1,2.94-1.15c.84-.18,3.94-.41,3.09,1.24a8.68,8.68,0,0,1-3,2.66c-.09.06,0,.11.1.12a18.38,18.38,0,0,1,6,2.63,37.23,37.23,0,0,1,12,12.3,48.38,48.38,0,0,1,6.73,21l.45-.09A16.84,16.84,0,0,0,121,47.82C120.88,47.79,120.43,47.93,120.66,48Z"/><path class="cls-12" d="M120.83,47.91a17.36,17.36,0,0,1,5.1,2.17s-1.09-14.24-9.13-24.44-15.75-11.52-15.75-11.52,5.22-3.36,2.3-4a8.5,8.5,0,0,0-5.77,1.2C97.46,7,94.53,2,94.32,4.57a34.29,34.29,0,0,1-.76,4.78C66-11.52,25.88,7.39,15.24,20.43S2.09,38.51,2.09,38.51a26.39,26.39,0,0,0,5.49-1,9.39,9.39,0,0,0-5.22,7,5.86,5.86,0,0,1,4.4-2.13,27.66,27.66,0,0,0-6.51,10c6.51,5.73,12.6,21.7,12.6,21.7s6.27-5.77,8.32,2.8c-.2-1.71-.45-3.4-.73-4.85C19.36,66.27,17,58.22,17,58.22s2.74,4.16,6.57-11.16c0,0,.15,3.59,1.47,3.59S30.8,36.48,30.8,36.48a13.43,13.43,0,0,0,1.86,5.78c1.72,2.68-1.38-5.28,7.49-10.66,0,0,7,4.06,18.42-.91a14.33,14.33,0,0,1-7.73,4.07s9.91,2.82,16.65-4.07a17,17,0,0,0,6.41,4.94,16.33,16.33,0,0,0,0-5.43,28.84,28.84,0,0,0,13.85,6.19,19.51,19.51,0,0,0,.73-6.19s4.23,7.33,8.64,10.18a25.85,25.85,0,0,0,0-5.94s10.68,12.87,12.14,21.27c.73,4.2.46,10-.11,15.28,0,0,3.43-3.79,7.19-.62,3.58-12.3,7-13.85,6.68-14.83s-2.53-3-2.53-3a19.21,19.21,0,0,0,4.14.71C123.33,52.15,120.83,47.91,120.83,47.91Z"/><path class="cls-13" d="M120.75,48a16.58,16.58,0,0,1,5,2.13s.42.13.41,0a47.15,47.15,0,0,0-1.44-8,45.22,45.22,0,0,0-7.22-15.86A35.28,35.28,0,0,0,105,15.42a17.69,17.69,0,0,0-3.34-1.27l-.54-.13c.36.07.15.21.51,0l.8-.58c.62-.47,3.28-2.58,1.48-3.24a7.85,7.85,0,0,0-6.48,1.06l.43.12a15,15,0,0,0-1.2-5.2c-.34-.79-.82-2-1.68-2.34-.57-.26-.79.25-.85.73a38.35,38.35,0,0,1-.76,4.78l.46,0C75.88-4.09,51.64-1.58,32.5,7.73a69.34,69.34,0,0,0-11,6.67,48.55,48.55,0,0,0-8.76,8.84C9.67,27,6.7,30.89,4,34.93a35.69,35.69,0,0,0-2.17,3.54c0,.11.32.14.35.14a24.86,24.86,0,0,0,5.55-1l-.36-.16a9.27,9.27,0,0,0-5.25,7c0,.14.39.18.46.09a5.49,5.49,0,0,1,4.22-2.08l-.28-.16A25.82,25.82,0,0,0,0,52.34a.07.07,0,0,0,0,.06c3.9,3.49,6.49,8.48,8.79,13.1,1.39,2.8,2.68,5.66,3.8,8.58,0,.12.37.14.46.07a7.8,7.8,0,0,1,2.83-1.66c3-1,4.42,2,5,4.38,0,.13.48.16.47,0a113,113,0,0,0-4.19-18.69l-.48,0a1.6,1.6,0,0,0,2,.44,5.78,5.78,0,0,0,2-2.64,43.58,43.58,0,0,0,3-8.91L23.31,47c0,1,.22,3.9,1.81,3.72,1-.11,1.69-2.48,2-3.2,1.53-3.59,2.75-7.32,3.92-11l-.48-.07a12.9,12.9,0,0,0,1.88,5.81c.13.22.71,1,1,.54a2.15,2.15,0,0,0,.18-.91A17.37,17.37,0,0,1,34,40a12.29,12.29,0,0,1,3-5.56,15.21,15.21,0,0,1,1.22-1.19c.28-.23,2-1.46,1.81-1.59a5.2,5.2,0,0,0,.53.26,15.49,15.49,0,0,0,3.4,1c5,1,10.24-.19,14.87-2.16l-.42-.14c-1.86,2.2-5,3.42-7.67,4-.18,0,0,.15.08.18,5.83,1.63,12.66.19,16.95-4.1l-.46-.07a16.11,16.11,0,0,0,6.51,5c.08,0,.35.09.37,0a15.78,15.78,0,0,0,0-5.44l-.45,0c3.76,3.45,9.12,5.41,14,6.28.06,0,.23,0,.26-.06a16.74,16.74,0,0,0,.73-6.2l-.48,0c2.2,3.78,5,7.79,8.7,10.23.06,0,.4.13.42,0a23.23,23.23,0,0,0,0-6l-.46,0a84.08,84.08,0,0,1,8.42,12.18,28.77,28.77,0,0,1,3.75,9.4c.82,4.89.36,10-.16,14.93,0,.14.39.17.46.09,1.9-1.93,4.51-2.44,6.76-.67.08.07.42.17.46,0a44,44,0,0,1,5.71-13,4.44,4.44,0,0,0,1-1.6c.08-.49-.5-1.05-.79-1.4a16.37,16.37,0,0,0-1.77-1.86l-.29.1a19.69,19.69,0,0,0,4.25.73s.27,0,.16-.12a21.63,21.63,0,0,1-3.77-5.3c-.08-.13-.53-.13-.48,0,.77,1.29,1.58,2.55,2.46,3.76.21.3.43.58.66.85s.58.61.77.62a18.64,18.64,0,0,1-3.91-.69s-.43,0-.29.11a20.9,20.9,0,0,1,1.61,1.65c.3.35,1,1,.9,1.58a6.41,6.41,0,0,1-1.17,1.8,44.35,44.35,0,0,0-5.51,12.75l.45,0a5.49,5.49,0,0,0-7.64.59c.16,0,.32.06.46.09a58.83,58.83,0,0,0,.17-14.94,28.33,28.33,0,0,0-3.75-9.44,83.54,83.54,0,0,0-8.47-12.23c0-.06-.47-.15-.45,0a23.7,23.7,0,0,1,0,6h.42c-3.64-2.42-6.42-6.4-8.58-10.14-.06-.08-.5-.18-.49,0A16.25,16.25,0,0,1,87.61,36c-.09.36,0,.32-.28.28-.77-.15-1.55-.33-2.32-.53a30.07,30.07,0,0,1-4.1-1.41,23.77,23.77,0,0,1-6.8-4.11c0-.05-.47-.16-.45,0a16,16,0,0,1,0,5.43l.37,0a15.63,15.63,0,0,1-6.31-4.87c-.08-.1-.36-.18-.46-.07-4,4-9.71,5.23-15.18,4.3a10.48,10.48,0,0,1-1.14-.25c1.18.32,3.19-.77,4.28-1.31a11.57,11.57,0,0,0,3.59-2.62c.1-.13-.36-.17-.43-.14a26.3,26.3,0,0,1-13.3,2.31,12.67,12.67,0,0,1-4.75-1.36.47.47,0,0,0-.38,0A13.64,13.64,0,0,0,33.28,41c-.08.46-.12.91-.19,1.37a2,2,0,0,1-.08.33c0-.1.34.25,0-.19a12,12,0,0,1-2-6c0-.14-.43-.21-.48-.07-.92,2.92-1.91,5.83-3,8.7a28.8,28.8,0,0,1-2.11,4.79,4.78,4.78,0,0,1-.36.49c-.39.4-.78-.63-.88-.89a8.67,8.67,0,0,1-.43-2.43c0-.14-.44-.21-.47-.07A61.47,61.47,0,0,1,21,54.43,11.45,11.45,0,0,1,19,58c-.47.5-1.27,1-1.75.23-.07-.1-.52-.17-.48,0a113.74,113.74,0,0,1,4.19,18.63l.48,0c-.64-2.5-2-5.09-4.95-4.78A7.11,7.11,0,0,0,12.63,74l.46.06A92.12,92.12,0,0,0,5.9,59.31a44.11,44.11,0,0,0-3.09-4.45c-.51-.63-1.06-1.24-1.62-1.81-.41-.42-.77-.47-.56-1A26.11,26.11,0,0,1,7,42.43c.09-.1-.24-.17-.28-.17a5.91,5.91,0,0,0-4.57,2.17l.46.09a9.19,9.19,0,0,1,5.18-6.91c.17-.08-.28-.2-.36-.17a24.55,24.55,0,0,1-5.44,1l.35.13a33.87,33.87,0,0,1,2.46-4c3-4.49,6.38-8.77,9.77-13,5.51-6.8,13.16-11.46,21.07-15C54-1.53,76.56-3.22,93.35,9.36c.07.06.42.17.45,0,.18-.74.31-1.5.45-2.26s.19-1.37.27-2.06c0-.3,0-1.38.5-.86,1.62,1.66,2.22,4.88,2.32,7.07,0,.14.35.17.44.11a9.16,9.16,0,0,1,2.36-1c.87-.26,4.62-.8,3.68,1a8.54,8.54,0,0,1-3,2.67c-.15.09.12.16.18.17A18.3,18.3,0,0,1,107.22,17,37.42,37.42,0,0,1,119.15,29.4,48.58,48.58,0,0,1,125.69,50h.43a17.38,17.38,0,0,0-5.21-2.21C120.71,47.77,120.44,47.91,120.75,48Z"/><path class="cls-13" d="M47.18,26.72a5.93,5.93,0,0,1-.53.47l-.6.38c-.21.11-.43.19-.65.3a5.53,5.53,0,0,1-.65.28c-.46.12-.91.26-1.37.39l-1.4.22a8.51,8.51,0,0,1-1.42.12l-1.42,0c-.94-.07-1.88-.14-2.83-.23l.34-.47a6,6,0,0,0,.61.9c.23.28.48.56.73.83s.54.5.81.74l.45.35c.15.12.32.21.46.31s.32.2.49.29.31.19.49.26l.51.23.53.2a4.88,4.88,0,0,0,.54.18l.55.14c.18,0,.37.07.55.11l.56.1c-.37,0-.75,0-1.15-.06l-.57-.08a2.66,2.66,0,0,1-.56-.12,3.21,3.21,0,0,1-.57-.15l-.54-.2c-.2-.06-.35-.16-.54-.23a5.12,5.12,0,0,1-.52-.27,4.27,4.27,0,0,1-.51-.3l-.49-.32a11,11,0,0,1-.9-.76c-.28-.28-.56-.56-.81-.86a9.46,9.46,0,0,1-.7-1,.31.31,0,0,1,.11-.43.28.28,0,0,1,.2,0h0c.91.06,1.83.15,2.75.24h2.07c.24,0,.46,0,.7,0l1.37-.13,1.34-.29a5.7,5.7,0,0,0,.66-.2c.23-.08.45-.13.67-.23l.63-.29A4.12,4.12,0,0,0,47.18,26.72Z"/><path class="cls-13" d="M17.44,49.18s-.07.16-.16.43-.22.67-.38,1.14A24,24,0,0,0,16,54.18,7.74,7.74,0,0,0,15.88,56a5,5,0,0,0,.13.82,4.21,4.21,0,0,0,.29.68,2.72,2.72,0,0,0,.39.51,3.6,3.6,0,0,0,.37.34l.38.25a4.14,4.14,0,0,1-.44-.14,3.92,3.92,0,0,1-.47-.26,2.39,2.39,0,0,1-.53-.49,2.29,2.29,0,0,1-.44-.73,4.36,4.36,0,0,1-.26-.91,6.54,6.54,0,0,1,0-2,11.92,11.92,0,0,1,1.2-3.47,11.54,11.54,0,0,1,.63-1A2.91,2.91,0,0,1,17.44,49.18Z"/><path class="cls-13" d="M108.93,39.83a4.21,4.21,0,0,1,.31.65,6.67,6.67,0,0,1,.3.79,7.87,7.87,0,0,1,.29,1l.26,1.25c.08.46.14.94.19,1.44a10.62,10.62,0,0,1,.13,1.52l0,1.58v.8c0,.27,0,.53-.06.78,0,.53-.07,1.05-.11,1.54s-.08,1-.16,1.42-.14.88-.21,1.27c-.13.78-.27,1.43-.36,1.88l-.16.71s0-.27,0-.73,0-1.12.13-1.91c0-.4.06-.81.1-1.26s0-.93.06-1.43,0-1,0-1.5c0-.27,0-.52,0-.78s0-.52,0-.79c0-.52,0-1,0-1.56a14.78,14.78,0,0,0-.07-1.5c0-.49-.06-1-.08-1.41s-.11-.87-.16-1.25-.12-.75-.18-1.06a6,6,0,0,0-.17-.81C109,40.08,108.93,39.83,108.93,39.83Z"/><g class="cls-23"><path class="cls-30" d="M120.83,47.91a17.36,17.36,0,0,1,5.1,2.17s-1.09-14.24-9.13-24.44-15.75-11.52-15.75-11.52,5.22-3.36,2.3-4a8.5,8.5,0,0,0-5.77,1.2C97.46,7,94.53,2,94.32,4.57a34.29,34.29,0,0,1-.76,4.78A46.74,46.74,0,0,0,67.07.1C86,2.76,94,12.29,94,12.29c-.21-2.08,1-7.67,1.79-4.85A20.75,20.75,0,0,1,96.54,13c2-2.54,6.85-2.39,5.6-.82A14.21,14.21,0,0,1,98.56,15c24.5,5.49,26.28,33.58,24.27,29.77a6.73,6.73,0,0,0-5.32-3.91c2.56,3.53,2.17,7.72.27,6.3s-2.17-5.05-2.17-5.05c-.49,6.2-3.81,7.44-3.91,4-.22-7.33-4.51-14.29-4.51-14.29,2,6.78,1.57,16-3.69,7.17S95,27.5,95,27.5c1.37,3.93,1.22,12.26-2.06,6.17S82.7,21.4,82.7,21.4s7.16,11.84.92,11.14-11.68-5.82-11.68-5.82,2.07,8.19-.38,6.37-4.13-7.61-4.13-7.61c-2,7.38-10.75,9.28-7.87,5.65s2.23-5.76,2.23-5.76c-8.86,9.78-23.63,5.59-18.09,4A12.14,12.14,0,0,0,51.24,23c-12.32,7.5-16.93,2.35-16.93,2.35,1,5.74-1.15,12.83-2.3,10.7s-.89-6.88-.89-6.88c-1.58,6.59-5.13,18-6.24,16.38s0-7.06,0-7.06c-1.54,5.32-5.08,15.42-6.33,13s.77-9.34.77-9.34c-2.95,5.32-8.86,12.39-10.17,7.93s3.92-11,3.92-11-3.26,3-3.6,0,3.38-7.17,3.38-7.17-7.67,5.68-3.6-1.74C14.7,20.31,23.89,12.9,24,12.84a41.31,41.31,0,0,0-8.71,7.59C4.59,33.46,2.09,38.51,2.09,38.51a26.39,26.39,0,0,0,5.49-1,9.39,9.39,0,0,0-5.22,7,5.86,5.86,0,0,1,4.4-2.13,27.66,27.66,0,0,0-6.51,10c6.51,5.73,12.6,21.7,12.6,21.7s6.27-5.77,8.32,2.8c-.2-1.71-.45-3.4-.73-4.85C19.36,66.27,17,58.22,17,58.22s2.74,4.16,6.57-11.16c0,0,.15,3.59,1.47,3.59S30.8,36.48,30.8,36.48a13.43,13.43,0,0,0,1.86,5.78c1.72,2.68-1.38-5.28,7.49-10.66,0,0,7,4.06,18.42-.91a14.33,14.33,0,0,1-7.73,4.07s9.91,2.82,16.65-4.07a17,17,0,0,0,6.41,4.94,16.33,16.33,0,0,0,0-5.43,28.84,28.84,0,0,0,13.85,6.19,19.51,19.51,0,0,0,.73-6.19s4.23,7.33,8.64,10.18a25.85,25.85,0,0,0,0-5.94s10.68,12.87,12.14,21.27c.73,4.2.46,10-.11,15.28,0,0,3.43-3.79,7.19-.62,3.58-12.3,7-13.85,6.68-14.83s-2.53-3-2.53-3a19.21,19.21,0,0,0,4.14.71C123.33,52.15,120.83,47.91,120.83,47.91Z"/></g><path class="cls-25" d="M39.51,18.41s-8.46,8.28-9.21,7.31,2-5.29,2-5.29c-3.74,2.77-9.93,13.84-10.35,11.16s2.69-7.42,2.69-7.42c-3.26,2.69-7.41,9.62-8.55,7.66s1.39-6.51,1.39-6.51C10.67,29.88,16.21,15,38.05,6.25S74.47,2.33,74.47,2.33,57.9-.35,39,8.53,18.28,24.4,23.05,20.21c0,0-2.06,2.49-1.24,3.58s5.1-3.63,5.1-3.63-1.46,2.33-.76,3.68,2.29-3.58,8.7-6.45c0,0-2.5,3.53-2.5,4.83S36.86,20.48,39.51,18.41Z"/><path class="cls-25" d="M64.52,12.61C61,21.45,53,25.89,54.59,23.61,57.88,18.82,56,11.11,56,11.11c-5,8.53-15.13,13-15.13,13s7.87-.51,12.71-7.06c0,0,.07,7.12-4.29,10.81s12.47-.7,14.05-9.28a38,38,0,0,1-1.18,10.21c-.22.7,3.53-1.35,5.27-7.8,0,0,1.42,5.78,3.42,7.8,1.26,1.24.88-2.73,0-5.5,0,0,5.39,5.33,10.7,5.65,5.87.36-1.37-10.5-3.56-12.29,0,0,3.47,5.19,2.28,7.79-1.11,2.41-7.6-.63-10.77-6.32a19.85,19.85,0,0,0-.09,3.66c.17,1.62-1.79-3.18-2.11-6.93,0,0-.42,3.7-1.62,5.62C63.87,23.23,65.51,19.39,64.52,12.61Z"/><path class="cls-25" d="M105.67,18.55c14.91,7.17,14.45,23.76,12.85,20.49a14.16,14.16,0,0,0-4.29-5c1.88,6.32-1,9.9-2.11,5.84a32.39,32.39,0,0,0-7.58-13.11c3.4,6.72,2.52,17.81-.41,10.25S92.48,22,92.48,22c1.8,5.62,1.22,10.44,0,8.23-3.8-6.88-10.93-10.67-10.93-10.67s6,1.32,8.88,5.54c1.39,2,1.06-3.67-.32-7,0,0,8.29,5.85,12.15,11.64,2.11,3.18,1.3-3.5-.5-7.16,0,0,6.11,3.54,10,13.24,1.8,4.45,1.88-3.62-2.24-8.4-1.73-2,2.33-.28,5.5,3.71S115.69,24.17,105.67,18.55Z"/><g class="cls-23"><path class="cls-30" d="M13.52,61.55a14.18,14.18,0,0,1,.88-10.69c-1.52,2.39-7.15,7.58-9.27,3-2.33-5,1.63-11.55,1.63-11.55a27.66,27.66,0,0,0-6.51,10c6.51,5.73,12.6,21.7,12.6,21.7s6.27-5.77,8.32,2.8c-.2-1.71-.45-3.4-.73-4.85C19.36,66.27,17,58.22,17,58.22S15.62,67.46,13.52,61.55Z"/></g><g class="cls-23"><path class="cls-30" d="M112.63,54.48c-1.84-.82-2.49-6.58-2.49-6.58a29.06,29.06,0,0,1-.87,7.93h0c.71,4.2.45,9.9-.12,15.16,0,0,3.43-3.79,7.19-.62,3.58-12.3,7-13.85,6.68-14.83s-2.53-3-2.53-3a19.21,19.21,0,0,0,4.14.71,7,7,0,0,1-.69-.72,17.46,17.46,0,0,1-8.11-2.93C115.77,52.79,114.48,55.3,112.63,54.48Z"/></g><path class="cls-8" d="M52.33,120.25c0,5.43,4.35,9.57,11.3,9S75,124.89,74.31,117.59c-.15-1.74-1.5-1.3-1.5-1.3l-4.29-1.19v-2.72a32.86,32.86,0,0,1-5.95.75,32.61,32.61,0,0,1-6.35-.71v2.92l-2.41.85S52.39,114.82,52.33,120.25Z"/><path class="cls-9" d="M52.09,120.25c0,10.06,14.1,11.79,20.07,5.65a9.31,9.31,0,0,0,2.41-5.69c.13-1.22.45-4.28-1.55-4.06-.27,0-.48-.05-.1.06l-.65-.19-2.58-.71-.91-.25c-.13,0,0,0,0-.33v-2.35c0-.12-.29-.11-.36-.09a32.72,32.72,0,0,1-6.15.75,31.41,31.41,0,0,1-6-.71c-.06,0-.32,0-.32.08v2.73c0,.32-1,.51-1.35.63l-.75.27c-.39.14,0,0,.15.1a.81.81,0,0,0-.32-.16c-1.81-.45-1.59,3.42-1.61,4.27,0,.14.49.15.49,0s.31-4.67,1-4a.46.46,0,0,0,.38,0l2.41-.85s.07,0,.07-.07v-2.92l-.31.08a33.85,33.85,0,0,0,6.42.72,31.71,31.71,0,0,0,6.06-.77l-.36-.1v2.73s.08.08.12.09l3,.84c.53.15,2.12.35,2.41.75.53.72.32,2.27.27,3.12a10.83,10.83,0,0,1-.46,2.59,8.64,8.64,0,0,1-2.89,4.21c-3.17,2.58-8.28,3.15-12.09,2a8.67,8.67,0,0,1-6.09-8.4C52.58,120.12,52.09,120.11,52.09,120.25Z"/><g class="cls-4"><path class="cls-26" d="M74.31,117.59c-.15-1.74-1.5-1.3-1.5-1.3l-4.29-1.19v-2.72a32.86,32.86,0,0,1-5.95.75,32.61,32.61,0,0,1-6.35-.71v2.92l-2.41.85s-1.42-1.37-1.48,4.06,4.35,9.57,11.3,9S75,124.89,74.31,117.59Zm-13,10.4c-5-.54-7.06-3.47-7.66-7.14s1.19-4.56,2.88-5.07c.34-.11.46.13.46-.8s1.72-1.32,5.95-1.32,4.61,1,4.78,1.65c.11.45,0,.54.9.63,1.41.13,2.57.93,2.22,5.43C70.53,124.76,67.42,128.67,61.27,128Z"/></g><path class="cls-22" d="M55.37,117.91c.52,2.36,2,7.72,9.77,6.92,2.4-.24-1.27,3.16-5.58,1.8C52.25,124.29,54.71,115.06,55.37,117.91Z"/><path class="cls-31" d="M103.39,146.14a65,65,0,0,0-6.85-14.63c-4.35-6.81-10.87-13.69-19.88-14.95,0,0-.27-1.68-1.73-1.74a2.43,2.43,0,0,0-2.12,1.47s1.35-.44,1.5,1.3c.69,7.3-3.72,11.14-10.68,11.68s-11.34-3.59-11.3-9,1.48-4.06,1.48-4.06-.73-1.67-2-1.09A3.29,3.29,0,0,0,50.15,117s-9.16,1.45-13,4c-2.41,1.59-5.21,4.89-8.12,10a93.17,93.17,0,0,0-5.31,11.41s-2.55.55-2.27,1.9,5.87,6.52,16.41,6.84c0,0-1.09,11.09-1.42,18.47-.12,2.73-.19,4.88-.21,6.52-.05,2.82,0,4.13,0,4.13a4.11,4.11,0,0,0-2.73,2.88c-.65,2.35,2.54,1.95,4.9,7.25s6.91,12.22,24.6,11.81,29.47-10.61,31.12-14.74c.5-1.22-2.45-9.53-2.85-12.63,0,0,0-.16,0-.44a159.39,159.39,0,0,0-1.32-19.12s6.52-.48,11.09-3.58S104.54,146.38,103.39,146.14Z"/><path class="cls-32" d="M103.63,146.13a58.34,58.34,0,0,0-3.9-9.43,48.73,48.73,0,0,0-9.16-13,25.62,25.62,0,0,0-12.33-7,10,10,0,0,1-1.35-.25,3.42,3.42,0,0,0-.22-.61,1.9,1.9,0,0,0-1.38-1.11,2.46,2.46,0,0,0-2.71,1.48c-.07.15.33.15.4.12,1.7-.5,1.09,4.19,1,5a9,9,0,0,1-2.06,4.27c-2.47,2.87-6.8,3.75-10.41,3.55A9.21,9.21,0,0,1,53,123.06a11.83,11.83,0,0,1-.18-5.55c.05-.25.39-1.67.81-1.28.07.06.52.1.45,0a1.86,1.86,0,0,0-3-.79,3.89,3.89,0,0,0-1,1.2c-.09.19-.2.35-.07.32l-1.51.27c-4.14.8-8.93,1.7-12.35,4.34a25.31,25.31,0,0,0-5.25,6,65.56,65.56,0,0,0-4.93,9c-.7,1.49-1.34,3-1.95,4.53-.16.4-.24,1.21-.65,1.32a5.31,5.31,0,0,0-1.09.41c-1.31.62-1.23,1.62-.41,2.57,2.52,2.92,6.76,4.42,10.4,5.23a30.83,30.83,0,0,0,4.31.6c.22,0,1-.06,1,.06s0,.45-.07.67c-.19,2.06-.37,4.11-.55,6.17-.5,6-.89,12-1,18,0,1.23,0,2.46,0,3.69,0,.58,0,.36-.56.64-1.29.62-2.79,2.53-2,4a4.84,4.84,0,0,0,1.31,1.32,13.3,13.3,0,0,1,2.54,2.86c.93,1.44,1.48,3.1,2.38,4.57a16.81,16.81,0,0,0,7,6.32c4.51,2.25,9.75,2.77,14.72,2.81a47.18,47.18,0,0,0,18-3.33,38.7,38.7,0,0,0,11.52-7,17.85,17.85,0,0,0,3-3.38,3.59,3.59,0,0,0,.4-3.22c-.81-3.88-2.63-7.73-2.66-11.73a149.25,149.25,0,0,0-.93-15.1c-.08-.77-.17-1.53-.26-2.3,0-.35-.49-.85-.09-.89.65-.06,1.3-.16,2-.27A27.2,27.2,0,0,0,99,153.09c2-.9,4.67-2.47,5.45-4.64.33-.94.18-2.09-.91-2.39-.15,0-.57.07-.26.15,1.17.31.91,1.79.5,2.59-1,1.95-3.29,3.24-5.18,4.16a25.07,25.07,0,0,1-8.7,2.28s-.2,0-.18.08A171.08,171.08,0,0,1,91,172.54a18.82,18.82,0,0,0,.38,4.23c.54,2.24,1.22,4.45,1.81,6.69.36,1.34,1.14,3.2.44,4.54a14,14,0,0,1-2.57,3.22,37,37,0,0,1-11.86,7.56,47.24,47.24,0,0,1-19.64,3.38c-5.16-.16-10.61-1.06-15-4a17.18,17.18,0,0,1-5.68-7,15.18,15.18,0,0,0-3.84-5.36,4.43,4.43,0,0,1-1.37-1.52c-.43-1,.53-2.36,1.24-3a3.46,3.46,0,0,1,1.4-.81s.08,0,.08-.06c-.32-9.68.69-19.49,1.63-29.11,0-.09-.18-.12-.23-.12-5.21-.19-10.93-1.52-14.91-5.1-1.23-1.1-1.89-2.36.1-3.21.94-.39.83-.12,1.27-1.21.76-1.92,1.6-3.81,2.47-5.68a62.69,62.69,0,0,1,5-8.93,22.09,22.09,0,0,1,5.53-5.91,22.78,22.78,0,0,1,6.92-2.68c1.85-.5,3.75-.9,5.65-1.23l.36-.06c.05,0,.11,0,.13-.08a3.5,3.5,0,0,1,.86-1.35,1.38,1.38,0,0,1,2.33.52l.45,0c-2-1.84-1.92,4.82-1.88,5.24.45,4.7,4.54,7.48,9,7.95,4.23.46,9.3-.83,11.86-4.44a10.5,10.5,0,0,0,1.65-6.62c0-1.2-.52-2.51-2-2.08l.39.12a2.78,2.78,0,0,1,1-1.17c1.25-.84,2.18.42,2.35,1.38,0,.07.11.1.18.11,7.83,1.17,13.9,6.59,18.36,12.86a57.55,57.55,0,0,1,8.19,16.63C103.2,146.27,103.67,146.28,103.63,146.13Z"/><path class="cls-33" d="M81.3,117.76a21.07,21.07,0,0,0-4.64-1.2s-.27-1.68-1.73-1.74a2.43,2.43,0,0,0-2.12,1.47s1.35-.44,1.5,1.3a12.66,12.66,0,0,1-.36,4.66,44.6,44.6,0,0,0,4.58-2A6.24,6.24,0,0,0,81.3,117.76Z"/><path class="cls-33" d="M40.66,135.75s4.8,4,22.24,4.06c18.06.1,22.4-4.43,22.4-4.43s4.46,1.05,10.7-4.69a41,41,0,0,0-6.16-7.41c-1.94,3.67-8,3.67-8,3.67s-4.54,4-18.55,4.11S43,126.21,43,126.21a10.68,10.68,0,0,1-9.26-2.06A42.49,42.49,0,0,0,29,131.06l-.37.69C30.58,133.72,34.36,136.28,40.66,135.75Z"/><path class="cls-33" d="M52.86,123.41a9.12,9.12,0,0,1-.53-3.16c.06-5.43,1.48-4.06,1.48-4.06s-.73-1.67-2-1.09A3.29,3.29,0,0,0,50.15,117a67.68,67.68,0,0,0-7.65,1.75,8.23,8.23,0,0,0,2.93,1.14A24.1,24.1,0,0,0,52.86,123.41Z"/><path class="cls-33" d="M63.33,159.06c20.17-.49,26.34-5.72,26.34-5.72s10.31-1.33,13.2-8.76a65.47,65.47,0,0,0-3.06-7.22c-1.65,7-11.49,7-11.49,7s-5.61,4.65-25.14,5.19-24.54-4.23-24.54-4.23c-10,1.05-13.81-5.44-13.86-5.49-.36.85-.72,1.73-1.08,2.65,0,0-2.55.55-2.27,1.9s5.87,6.52,16.41,6.84c0,0-.12,1.07-.27,2.77h.09S43.13,159.53,63.33,159.06Z"/><path class="cls-33" d="M36.7,164.92c-.12,1.66-.21,3.28-.28,4.76-.11,2.31-.17,4.21-.19,5.74,9.25,3.37,32,9.39,55-1.82,0-1.78-.1-5.36-.5-10.27C65.6,173.57,44.9,168,36.7,164.92Z"/><path class="cls-33" d="M90.77,181.17s-6.57,9.27-26.26,9.72C46,191.3,37.44,183,37.44,183a3.37,3.37,0,0,0-2.18-2.28,4.22,4.22,0,0,0-1.78,2.45c-.65,2.35,2.54,1.95,4.9,7.25.14.33.29.68.47,1,0,0,5.64,6.85,20.51,7.8,19.87,1.27,29.39-9.15,29.39-9.15s1.87-3.73,5.21-4.49c-.27-1.31-.77-3.07-1.26-4.87C91.15,180.18,90.77,181.17,90.77,181.17Z"/><path class="cls-32" d="M40.66,136.66l-.14.82c-.1.51-.2,1.26-.36,2.15s-.32,1.92-.54,3-.38,2.28-.57,3.46c-.11.6-.21,1.18-.32,1.77s-.23,1.15-.3,1.7c-.14,1.11-.33,2.15-.46,3s-.28,1.62-.38,2.15l-.16.81s0-.3,0-.83.05-1.27.13-2.18.15-1.94.27-3.08c.05-.55.12-1.13.23-1.71s.2-1.18.31-1.77c.21-1.18.42-2.37.66-3.47s.52-2.12.75-3,.43-1.6.58-2.1S40.66,136.66,40.66,136.66Z"/><path class="cls-32" d="M37.43,134.81s.1.55.24,1.37c.07.4.13.88.21,1.39s.19,1,.27,1.58.22,1.06.31,1.57.24.94.32,1.34c.27.76.42,1.33.42,1.33a13,13,0,0,1-.77-1.19c-.17-.38-.35-.84-.53-1.34s-.27-1.05-.39-1.6-.17-1.1-.19-1.62a11.82,11.82,0,0,1,0-1.44A7.61,7.61,0,0,1,37.43,134.81Z"/><path class="cls-32" d="M85.3,136.61s.2.32.49.92.69,1.47,1.13,2.53c.19.54.41,1.13.63,1.74.1.31.22.62.33.95s.21.67.31,1l.59,2.12c.2.73.34,1.48.5,2.22s.3,1.5.45,2.24.19,1.49.28,2.19.18,1.4.26,2.05.07,1.28.1,1.84c.06,1.15.08,2.09.1,2.76s0,1,0,1l-.14-1c-.07-.67-.22-1.61-.33-2.73-.08-.57-.1-1.18-.23-1.82s-.21-1.33-.32-2-.24-1.42-.35-2.16-.31-1.47-.47-2.21-.27-1.49-.46-2.2-.37-1.43-.54-2.12-.35-1.36-.54-2-.37-1.21-.53-1.76-.35-1-.5-1.46a11.7,11.7,0,0,0-.4-1.13C85.44,137,85.3,136.61,85.3,136.61Z"/><path class="cls-32" d="M91.26,174.46s0,.17.07.46.08.7.11,1.21,0,1.09,0,1.7a19.28,19.28,0,0,1-.15,2c0,.34-.1.67-.14,1s-.14.65-.2,1a15.56,15.56,0,0,1-.54,1.63,11.07,11.07,0,0,1-.55,1.1l-.25.39s0-.17.13-.45.17-.68.31-1.15q.08-.36.18-.78c0-.27.09-.56.15-.86.09-.6.21-1.26.27-1.91s.16-1.31.23-1.92.11-1.19.17-1.68C91.18,175.13,91.26,174.46,91.26,174.46Z"/><g class="cls-34"><path class="cls-35" d="M103.39,146.14a65,65,0,0,0-6.85-14.63c-4.06-6.35-10-12.77-18.1-14.61a35.8,35.8,0,0,1,16.63,14.16c6.44,10.52,6.53,15.86,6.53,15.86,2.12-.6,2.61,1.45-.33,3.53s-6.8,4.09-9.45-4.88a43.08,43.08,0,0,0-8.48-15.32s14.43,57.9-20,57.9c-32.45,0-20.61-58.22-20.61-58.22S39,140.12,38.31,137.5a37.12,37.12,0,0,1-.88-6c-2.48,9,1.48,19.35-4.54,18.17s-10.24-4.36-10-5.58,3.39,0,3.39,0-1.39-2.69,2.3-10.27c4.81-9.86,10.86-14,10.86-14h0a13.53,13.53,0,0,0-2.35,1.2c-2.41,1.59-5.21,4.89-8.12,10a93.17,93.17,0,0,0-5.31,11.41s-2.55.55-2.27,1.9,5.87,6.52,16.41,6.84c0,0-1.09,11.09-1.42,18.47-.12,2.73-.19,4.88-.21,6.52-.05,2.82,0,4.13,0,4.13a4.11,4.11,0,0,0-2.73,2.88c-.65,2.35,2.54,1.95,4.9,7.25s6.91,12.22,24.6,11.81,29.47-10.61,31.12-14.74c.5-1.22-2.45-9.53-2.85-12.63,0,0,0-.16,0-.44a159.39,159.39,0,0,0-1.32-19.12s6.52-.48,11.09-3.58S104.54,146.38,103.39,146.14Z"/></g><g class="cls-34"><path class="cls-35" d="M62.9,194.13c-29.5,0-25.06-42.92-25.06-42.92s-1.09,11.09-1.42,18.47c-.12,2.73-.19,4.88-.21,6.52-.05,2.82,0,4.13,0,4.13a4.11,4.11,0,0,0-2.73,2.88c-.65,2.35,2.54,1.95,4.9,7.25s6.91,12.22,24.6,11.81,29.47-10.61,31.12-14.74c.5-1.22-2.45-9.53-2.85-12.63,0,0,0-.16,0-.44a159.39,159.39,0,0,0-1.32-19.12C88.62,171,91.21,194.13,62.9,194.13Z"/></g><path class="cls-36" d="M46.47,127s-.79,48.53,26.29,55.12c0,0-21,4.76-27.05-16.3C40.69,148.41,46.47,127,46.47,127Z"/><path class="cls-36" d="M27,143.39a39.33,39.33,0,0,1,6.44-15.86c5.52-8,10.35-8.36,12.71-8.8C46.11,118.73,33.87,123.36,27,143.39Z"/><path class="cls-36" d="M81,119.93s11.51,9.67,17.16,27.81C98.12,147.74,96.18,128.08,81,119.93Z"/><g class="cls-37"><path class="cls-38" d="M51.34,122.7c.39,5.59,7.73,7.74,12,7.77,6.52,0,10.54-3.1,11.57-7.72,1.08-4.83-.12-6.84-1.91-6.5.38,0,1.17,0,1.29,1.34.69,7.3-3.72,11.14-10.68,11.68s-11.34-3.59-11.3-9c0-3.08.51-4,.91-4.16C53.24,116.09,51,117.36,51.34,122.7Z"/></g><path class="cls-36" d="M53,127.26s3.28,4,10.28,3.8,10-3.2,10-3.2-2.2,4.08-10,4.08S53,127.26,53,127.26Z"/><path class="cls-8" d="M34.79,199.87a19.21,19.21,0,0,1-.82-4.56s1.16-1.1,2.41-2.57A10.7,10.7,0,0,0,32,186.87s1.19-16.53.86-24.76c0,0,1.57-4.67,3-11a24.15,24.15,0,0,1-12-4.16,69.79,69.79,0,0,0-3.1,11.26c-.89,5.72-2.11,18.51,1.88,28.21,0,0-2.29,3.18-1.54,11.41s1.86,7.46,4,8.66,4.64,1.23,5.24.21c0,0,2.09.53,2.65.08a2.4,2.4,0,0,0,1.8.41s.69,1.31,1.26,1.51,1.61-1.06,1.46-2.53S35.36,201,34.79,199.87Z"/><path class="cls-9" d="M35,199.93a10.87,10.87,0,0,1-.65-3c-.09-.73-.35-1.36.17-1.87.36-.36,2.17-1.88,2.07-2.32a8.07,8.07,0,0,0-.67-1.68,12.53,12.53,0,0,0-2-2.71,10.15,10.15,0,0,0-1.5-1.28c-.29-.21-.27-.06-.25-.35.09-1.27.17-2.54.25-3.82.31-4.95.55-9.91.64-14.86,0-1.09,0-2.19,0-3.28a9.47,9.47,0,0,1,0-2.71c.63-1.92,1.17-3.87,1.69-5.82.45-1.68.86-3.38,1.24-5.08,0-.12-.25-.19-.33-.2a24,24,0,0,1-11.77-4.08c-.06,0-.34-.15-.37,0-3.78,10.68-5.28,22.42-3,33.61a34.18,34.18,0,0,0,1.22,4.46c.23.68.67,1.13.33,1.74A13.25,13.25,0,0,0,20.88,191a33.75,33.75,0,0,0,.18,9.2c.2,1.6.39,3.6,1.48,4.88a4,4,0,0,0,1.39.95,16.77,16.77,0,0,0,3.28,1.35,5.2,5.2,0,0,0,1.8.11c.09,0,1.66-.62,1.32-.7a4.09,4.09,0,0,0,2.8.06l-.36-.06a2.84,2.84,0,0,0,.95.44,2.44,2.44,0,0,0,.76.09c0-.18,0-.2.08,0l.35.55c.46.7,1.15,1.32,1.94.72,1.32-1,.75-2.92.26-4.19-.6-1.51-1.35-3-2.1-4.42-.06-.14-.5-.2-.46-.11a43.67,43.67,0,0,1,2.3,5,3.62,3.62,0,0,1,0,2.92c-.65,1.46-1.49.36-2-.52a.42.42,0,0,0-.36-.14,2,2,0,0,1-1.5-.33.39.39,0,0,0-.36-.06,3.66,3.66,0,0,1-2.46-.09c-.07,0-.16,0-.21,0-1.38,1.88-4.84,0-6.45-1-1.34-.77-1.62-2.62-1.87-4-.82-4.59-1.32-10.29.8-14.64a3.2,3.2,0,0,1,.29-.51,8.6,8.6,0,0,0-.67-1.81c-.29-.85-.53-1.72-.75-2.59a47.12,47.12,0,0,1-1.3-9.54,65,65,0,0,1,1.21-16.17A71.07,71.07,0,0,1,24,147l-.37,0a25,25,0,0,0,12.24,4.24l-.31-.2c-.69,3.05-1.47,6.08-2.36,9.07-.18.62-.36,1.22-.57,1.83a8.25,8.25,0,0,0,0,2.22c.07,5.18-.19,10.38-.47,15.56-.1,1.86-.21,3.72-.34,5.58,0,.44-.05.88-.09,1.31s.58.69,1,1.05a10,10,0,0,1,3.38,5.06c.06.25-1.43,1.55-1.65,1.79l-.73.74c-.22.19.13,1.63.16,1.9a10,10,0,0,0,.62,2.71C34.62,200,35.06,200,35,199.93Z"/><path class="cls-9" d="M23.33,196.13s.09.91.24,2.28c0,.33.07.7.12,1.09s.13.79.18,1.2a3.5,3.5,0,0,0,.15.62l0,.15s0,.08,0,.05l0,.08a2.85,2.85,0,0,0,.12.31,4.14,4.14,0,0,0,.71,1,8.88,8.88,0,0,0,.92.92c.34.29.67.56,1,.8s.69.47,1,.67.66.38,1,.53a14.77,14.77,0,0,0,1.48.7l.59.25-.63-.12a11.65,11.65,0,0,1-1.6-.48c-.32-.13-.67-.28-1-.46a9.94,9.94,0,0,1-1.09-.61,13.44,13.44,0,0,1-1.12-.79,13.29,13.29,0,0,1-1-1,5.26,5.26,0,0,1-.8-1.22c-.05-.13-.07-.23-.12-.33l0-.08a.26.26,0,0,1,0-.11l0-.16c0-.23-.09-.45-.11-.67a15.46,15.46,0,0,1-.12-2.37c0-.68,0-1.26.07-1.66S23.33,196.13,23.33,196.13Z"/><path class="cls-9" d="M26.32,196.52s.05.21.11.59.17.91.3,1.55.25,1.41.44,2.17a3.08,3.08,0,0,0,.17.57l0,.14s.06.07.07.1a1.1,1.1,0,0,0,.15.24,8.9,8.9,0,0,0,.85.92c.59.6,1.23,1.19,1.85,1.73s1.19,1,1.7,1.41a13.66,13.66,0,0,0,1.28.92c.16.1.3.17.38.21l.15.07a2.85,2.85,0,0,1-.58-.17,8.27,8.27,0,0,1-1.44-.72,21.67,21.67,0,0,1-3.81-3,8.24,8.24,0,0,1-.89-1,1.43,1.43,0,0,1-.19-.29.54.54,0,0,1-.08-.17l-.06-.17a6,6,0,0,1-.16-.64,18.63,18.63,0,0,1-.24-2.25C26.28,197.39,26.32,196.52,26.32,196.52Z"/><path class="cls-9" d="M29.68,196.13s.28.81.65,2c.08.3.19.63.29,1s.21.71.34,1.07c.06.19.13.37.19.57s.18.35.25.53c.21.37.43.71.63,1.07.88,1.43,1.77,2.87,2.4,4,.31.55.56,1,.74,1.35s.27.51.27.51-.14-.15-.37-.44-.57-.7-1-1.21l-1.27-1.77c-.45-.66-.9-1.38-1.36-2.1-.21-.39-.45-.76-.64-1.14a4.76,4.76,0,0,1-.25-.59c-.06-.2-.12-.4-.17-.59a20.75,20.75,0,0,1-.44-2.16c-.11-.62-.17-1.15-.23-1.52S29.68,196.13,29.68,196.13Z"/><path class="cls-9" d="M33.6,192s.13.33.27.83.22,1.2.32,1.88a11.59,11.59,0,0,1,.09,1.89,6.76,6.76,0,0,1-.07.89,5.71,5.71,0,0,1-.29-.83,14.1,14.1,0,0,1-.38-1.88c0-.34-.07-.7-.07-1s0-.63,0-.89A6.24,6.24,0,0,1,33.6,192Z"/><path class="cls-9" d="M30.89,157.62l.26.35a10,10,0,0,1,.56,1,6.23,6.23,0,0,1,.3.69,5.89,5.89,0,0,1,.31.77c.09.29.19.57.27.87s.13.6.2.9.11.61.16.91,0,.6.07.89,0,.57,0,.84,0,.52,0,.74c-.06.93-.15,1.54-.15,1.54a13.4,13.4,0,0,1-.23-1.52,7.24,7.24,0,0,0-.09-.73c0-.25-.09-.52-.12-.8s-.09-.57-.12-.86-.13-.59-.18-.89-.1-.59-.18-.87-.14-.57-.19-.85-.14-.53-.23-.78-.12-.49-.18-.71c-.14-.42-.25-.8-.35-1Z"/><g class="cls-4"><path class="cls-26" d="M37.43,206.14c-.16-1.47-2.07-5.13-2.64-6.27a19.21,19.21,0,0,1-.82-4.56s1.16-1.1,2.41-2.57A10.7,10.7,0,0,0,32,186.87s1.19-16.53.86-24.76c0,0,1.57-4.67,3-11a24.15,24.15,0,0,1-12-4.16,69.79,69.79,0,0,0-3.1,11.26c-.89,5.72-2.11,18.51,1.88,28.21,0,0-2.29,3.18-1.54,11.41s1.86,7.46,4,8.66,4.64,1.23,5.24.21c0,0,2.09.53,2.65.08a2.4,2.4,0,0,0,1.8.41s.69,1.31,1.26,1.51S37.58,207.61,37.43,206.14Zm-1.8.5c-1.17-1-3.07-4.48-3.8-6s-2.35-5-2.35-5a27.49,27.49,0,0,0,2.05,6.74c1.42,2.77,2.44,4.34.55,2.66s-3.81-3.23-4.49-4.79a28.65,28.65,0,0,1-1.27-4.42S26,202,28,203.58s3.13,2.61,1,1.79A7.72,7.72,0,0,1,24.7,202c-.77-1.37-1.37-6.85-1.37-6.85a31.12,31.12,0,0,0,0,6.33c.37,2.89,2.55,3.52,4.18,4.45,2.67,1.51-4.22-.35-4.86-2.18A25,25,0,0,1,21.91,192c.94-5.37,3.92-4.76,2.61-5.65s-4.24-6-3.91-17.44c.29-10.11,2.37-19.8,5.71-19.14s3.74,15.55,3.74,25.42-1.54,10.75-.72,12,2.67.23,3.55,6.93c.52,3.93.56,4.73,1.88,7.23S36.8,207.63,35.63,206.64Z"/></g><path class="cls-36" d="M25.23,184.87s-4.87-4-3.82-17,3.82-15.93,3.82-15.93S20.23,174,25.23,184.87Z"/><path class="cls-8" d="M110.72,195.59c-.65-1.71-4.88-8.47-5.37-9.86s-.81-3-1.88-16.22a107.81,107.81,0,0,0-2.65-17.61c-4.56,3-10.88,3.44-10.88,3.44.64,5.22,1,9.61,1.14,12.91,2.48,7.71,5.15,17,5.54,18,.5,1.22-.44,3.1-1.82,6s-1,4.81-.85,7.17-1.28,5.75,1.18,5.14,2.53-3.51,2.56-5.34a5.07,5.07,0,0,1,1.21-3.09,28.41,28.41,0,0,1,1.35,4.72c.08.94-.89,2.24-1.82,3.91s-1.92,4.48,0,4.88,3.5-3.21,3.5-3.21a8.89,8.89,0,0,0,4.8-2.73,4.73,4.73,0,0,0,3.58-3.91S111.37,197.3,110.72,195.59Z"/><path class="cls-9" d="M111,195.63c-1.35-3.37-3.71-6.28-5.25-9.56a14.3,14.3,0,0,1-.91-4.49c-1.17-9.9-1.3-19.94-3.75-29.65,0-.14-.36-.18-.45-.11a24.1,24.1,0,0,1-10.8,3.41s-.09,0-.08.08c.42,3.54.77,7.08,1,10.64a14.61,14.61,0,0,0,.63,3.83c.54,1.71,1.07,3.43,1.59,5.14.86,2.8,1.7,5.61,2.55,8.41.45,1.49,1.25,3.07.87,4.63a23.11,23.11,0,0,1-1.8,4.19,10.31,10.31,0,0,0-1,4.79,34.82,34.82,0,0,1,.12,3.82,10.63,10.63,0,0,0-.15,3.13c.33,1.57,2.62.52,3.26-.13,1.67-1.67.75-4.52,1.65-6.51a4.3,4.3,0,0,1,.71-1.08l-.45-.11c.33.89.62,1.81.89,2.72a5,5,0,0,1,.33,2.74,17.25,17.25,0,0,1-1.84,3.37,8.4,8.4,0,0,0-.94,2.68,1.73,1.73,0,0,0,1.63,2.18c1.37,0,2.23-1.24,2.89-2.32.29-.46.32-.88.84-1a8.64,8.64,0,0,0,2.78-1.22,9.71,9.71,0,0,0,1.59-1.35c.22-.22.67-.25,1-.36a4.22,4.22,0,0,0,1-.58,5,5,0,0,0,1.74-3c.29-1.48.92-2.72.43-4.28,0-.14-.51-.2-.47-.07.59,1.85-.32,5.13-1.6,6.67-.81,1-2,1.05-2.9,1.87a10.54,10.54,0,0,1-1.7,1.26,8.11,8.11,0,0,1-1.5.68c-.27.1-1,.07-1.1.29A7.88,7.88,0,0,1,99.84,209a1.4,1.4,0,0,1-2,.19,1.67,1.67,0,0,1-.29-1.21,6.2,6.2,0,0,1,.72-2.44c.66-1.47,2.38-3.14,2.18-4.85a20.81,20.81,0,0,0-1.33-4.55c0-.11-.37-.21-.45-.12-1.47,1.64-1.07,3.73-1.47,5.72a3.25,3.25,0,0,1-2.51,2.74c-1.35.27-.64-3-.58-3.58a25.67,25.67,0,0,0-.12-3.82,10.56,10.56,0,0,1,1-4.79c.88-1.92,2.47-4.15,1.72-6.32-1.7-5-3.08-10.22-4.67-15.31A11.8,11.8,0,0,1,91.3,168c0-.64-.06-1.29-.11-1.94-.09-1.5-.21-3-.35-4.52-.16-1.75-.35-3.49-.55-5.23,0-.37-.4-.84,0-.89s.68-.08,1-.12A24.53,24.53,0,0,0,101,152l-.46-.11c2.44,9.64,2.61,19.62,3.73,29.45a16.52,16.52,0,0,0,.88,4.57c1.42,3.38,3.93,6.26,5.3,9.67C110.54,195.7,111,195.75,111,195.63Z"/><path class="cls-9" d="M99.76,198.7a7.82,7.82,0,0,1-.36-.72c-.1-.21-.22-.46-.33-.74l-.33-.84c-.09-.29-.24-.56-.33-.84a3.08,3.08,0,0,0-.16-.38c0-.11-.09-.23-.13-.34a1.82,1.82,0,0,0-.14-.28c0-.09-.09-.16-.11-.22a1.91,1.91,0,0,1-.1-.21l.19.11.21.16a1.34,1.34,0,0,1,.26.23l.25.31a2.68,2.68,0,0,1,.26.37,6.66,6.66,0,0,1,.4.85c.06.16.12.31.16.46a6.27,6.27,0,0,1,.25,1.27A4,4,0,0,1,99.76,198.7Z"/><path class="cls-9" d="M103.56,196s0,.19.1.52.17.8.23,1.39.14,1.25.2,2l0,.28a.76.76,0,0,1,0,.17v.13c0,.19,0,.37-.06.57-.09.38-.16.8-.27,1.17-.23.75-.49,1.49-.76,2.16a19.66,19.66,0,0,1-.84,1.81,7.27,7.27,0,0,1-.4.7,4.09,4.09,0,0,1-.34.51c-.21.28-.33.42-.33.42l.22-.48a5,5,0,0,0,.24-.55c.08-.24.18-.47.27-.75.19-.54.4-1.18.65-1.86s.45-1.41.65-2.13c.12-.38.18-.71.28-1.07,0-.18,0-.37.08-.55l0-.14v-.11l0-.27c0-.72,0-1.39,0-2s0-1.07,0-1.41S103.56,196,103.56,196Z"/><path class="cls-9" d="M106.71,196.41s.2.52.44,1.32c.12.39.22.88.33,1.39,0,.26.12.53.16.8l.06.41a1.46,1.46,0,0,1,0,.22v.21a4.37,4.37,0,0,1-.08.88,4.5,4.5,0,0,1-.22.82,5.66,5.66,0,0,1-.34.7,5.19,5.19,0,0,1-.4.57l-.4.43-.35.28-.31.23.22-.32c.06-.1.15-.21.25-.35a3.77,3.77,0,0,1,.27-.47,5.3,5.3,0,0,0,.27-.59,4.41,4.41,0,0,0,.24-.67,5.55,5.55,0,0,0,.14-.73,3.94,3.94,0,0,0,.06-.77v-.2l0-.19L107,200c0-.27-.06-.52-.09-.78-.06-.5-.09-1-.12-1.4A12.15,12.15,0,0,1,106.71,196.41Z"/><path class="cls-9" d="M109,195.71a4.26,4.26,0,0,1,.48,1.06,6.93,6.93,0,0,1,.28,1.17,6.38,6.38,0,0,1,.09,1.39,7,7,0,0,1-.19,1.39,3.51,3.51,0,0,1-.19.6,3.81,3.81,0,0,1-.23.54,3.1,3.1,0,0,1-.46.72,2.34,2.34,0,0,1-.19.26s0-.11.09-.31.06-.22.1-.35.07-.28.11-.46.07-.34.11-.53.06-.38.1-.59,0-.41.06-.63,0-.45,0-.67c0-.43,0-.88,0-1.29s0-.82-.07-1.16C109,196.16,109,195.71,109,195.71Z"/><g class="cls-4"><path class="cls-26" d="M110.72,195.59c-.65-1.71-4.88-8.47-5.37-9.86s-.81-3-1.88-16.22a107.81,107.81,0,0,0-2.65-17.61c-4.56,3-10.88,3.44-10.88,3.44.64,5.22,1,9.61,1.14,12.91,2.48,7.71,5.15,17,5.54,18,.5,1.22-.44,3.1-1.82,6s-1,4.81-.85,7.17-1.28,5.75,1.18,5.14,2.53-3.51,2.56-5.34a5.07,5.07,0,0,1,1.21-3.09,28.41,28.41,0,0,1,1.35,4.72c.08.94-.89,2.24-1.82,3.91s-1.92,4.48,0,4.88,3.5-3.21,3.5-3.21a8.89,8.89,0,0,0,4.8-2.73,4.73,4.73,0,0,0,3.58-3.91S111.37,197.3,110.72,195.59Zm-.92,1.25a4.81,4.81,0,0,0-1.25-2c.87,2.71-.44,5-.65,3.81a23.75,23.75,0,0,0-1.37-3.81s.8,4.94,0,7.4-3.74,3.35-3,1.67,1.57-2.77,1.3-4.69a23.17,23.17,0,0,0-1.57-4.77,37.46,37.46,0,0,1-.55,6.58c-.55,2.22-3.07,8.25-4.34,7.71s-.55-1.74,1.12-4.45,2.41-3.75,1.21-6.79a12.4,12.4,0,0,0-3-4.56,13.69,13.69,0,0,0-1.06,5.71c.06,3.44-2.49,5.2-2.52,3a23.88,23.88,0,0,1,.88-7.87c1.05-3.7,5-6.15,4.45-7.67s-4-8.63-5-17.86c-1.8-15.34,5.37-18.59,7.11-5.93s1.34,20.22,3.26,24.38a28.58,28.58,0,0,0,4.16,6.2C111.4,195.86,110.45,198.37,109.8,196.84Z"/></g><path class="cls-36" d="M97.77,157.62A234.57,234.57,0,0,1,102,184S103.31,166.75,97.77,157.62Z"/><path class="cls-3" d="M34.08,195.14s.2-.29.52-.7l.56-.69c.2-.24.43-.5.64-.76.44-.52.88-1,1.2-1.42a5.91,5.91,0,0,1,.56-.68,5.83,5.83,0,0,1-.24.86,5.21,5.21,0,0,1-.41.82,9,9,0,0,1-.61.85c-.24.25-.49.52-.73.73a6.15,6.15,0,0,1-.71.56A3.34,3.34,0,0,1,34.08,195.14Z"/><path class="cls-31" d="M50.87,291.68c-3.88,1.86-3.53,5.87-19.34,5.87s-15.09-4.18-15.09-4.22c-.52.7-2.13,3.21.85,4.7,3.49,1.74,17.5,2.83,25.06.54s7.54-6.13,12.43-6.13,5.22-2.45,4.78-3.8C59.27,289.53,54.05,290.14,50.87,291.68Z"/><path class="cls-32" d="M50.69,291.63c-1.8.88-3.12,2.46-4.85,3.45-4,2.3-9.3,2.33-13.79,2.36a52,52,0,0,1-9.08-.59,14.26,14.26,0,0,1-4.63-1.44c-.71-.39-1.73-1.16-1.65-2.1,0-.15-.43-.05-.49,0-1,1.44-1.3,3.17.24,4.37,1.22,1,3.07,1.21,4.55,1.48a58.51,58.51,0,0,0,15.41.56,23.91,23.91,0,0,0,13.29-5,14.73,14.73,0,0,1,2.19-1.56,8.76,8.76,0,0,1,3.72-.68c1.59-.13,3.57-.51,4.21-2.18a2.7,2.7,0,0,0,0-1.71c0-.14-.42-.09-.48,0-.22.47-1,.61-1.48.75-.84.26-1.71.46-2.56.69a26.09,26.09,0,0,0-4.59,1.55c-.23.1.25.15.35.1a38.4,38.4,0,0,1,6.22-2c.68-.19,2.18-.39,2.54-1.13l-.49,0c.55,1.83-.72,3.06-2.43,3.48-1.93.48-3.72.06-5.54,1.05-1.55.84-2.82,2.17-4.29,3.14a20.66,20.66,0,0,1-7.89,2.86,55.05,55.05,0,0,1-16.06.08,20,20,0,0,1-5.35-1.2c-2.22-.92-2.37-3-1.07-4.74-.16,0-.32,0-.48,0-.06.87.79,1.58,1.42,2,3.1,2.05,7.67,2.1,11.22,2.23,5.06.19,10.62.2,15.45-1.55,2.18-.79,3.72-2.26,5.56-3.6a6.85,6.85,0,0,1,1.19-.72C51.26,291.62,50.8,291.57,50.69,291.63Z"/><path class="cls-31" d="M42.49,289.13c1.68-1.6,2.09-2.55,1-3.8-2.81-3.09-7.7-4-7.7-4l-.09,0s0,0,0,0a6.23,6.23,0,0,0-3.37,1.54c-1.9,1.53-3.15,1.81-2.17,3.05a16.86,16.86,0,0,1,5.68,2.43C38.78,290.3,40.82,290.71,42.49,289.13Z"/><path class="cls-32" d="M42.72,289.19c.85-.83,1.93-1.84,1.47-3.12s-2.14-2.24-3.22-2.88a23.34,23.34,0,0,0-5.21-2c-.08,0-.24-.05-.31,0s-.08,0-.21,0a8.52,8.52,0,0,0-1,.27,13.33,13.33,0,0,0-3.17,2c-.57.41-1.6.89-1.53,1.72a.84.84,0,0,0,.75.78c2.84.63,5,2.44,7.6,3.61a4.27,4.27,0,0,0,4.82-.47c.09-.08-.34-.22-.45-.12-2,1.77-4.35.47-6.29-.76a18.41,18.41,0,0,0-4.33-2.09c-.8-.25-1.79-.15-1.61-1.21.11-.56,1.08-1.05,1.49-1.33a17.09,17.09,0,0,1,2.87-1.88,4.1,4.1,0,0,1,1.35-.37c.37,0-.31-.07,0,0a14.48,14.48,0,0,1,2.41.71,13.82,13.82,0,0,1,4.34,2.49,3,3,0,0,1,1.34,2.08c0,.92-1,1.78-1.58,2.36C42.18,289.16,42.62,289.29,42.72,289.19Z"/><path class="cls-39" d="M59,284.72c-.24-1.07-.71-4-1-5.9a23.82,23.82,0,0,1-12.42,2.4,23.41,23.41,0,0,1-8.67-2.49,5.31,5.31,0,0,1-1.19,2.57l.09,0s4.89.91,7.7,4c1.11,1.25.7,2.2-1,3.8s-3.71,1.17-6.69-.78a16.86,16.86,0,0,0-5.68-2.43s-9.4-.16-11.51,2.34a7.66,7.66,0,0,0-2,4.88,1.5,1.5,0,0,1-.15.19s-.65,4.22,15.09,4.22,15.46-4,19.34-5.87c3.18-1.54,8.4-2.15,8.69-3A33,33,0,0,0,59,284.72Z"/><path class="cls-40" d="M59.2,284.74c-.44-1.94-.7-3.93-1-5.9,0-.15-.35-.12-.45-.08A23,23,0,0,1,37,278.68c-.08-.05-.38-.1-.42,0a5.39,5.39,0,0,1-1.17,2.54c-.05.06.07.11.1.12a27.09,27.09,0,0,1,4.5,1.6,9.38,9.38,0,0,1,3.54,2.85c.95,1.38-1,3.11-2,3.78-1.91,1.23-4.38-.54-6-1.55a17.44,17.44,0,0,0-3.91-1.83,7.29,7.29,0,0,0-2.6-.41,43.82,43.82,0,0,0-5.49.42c-1.59.23-3.61.54-4.88,1.63a8.3,8.3,0,0,0-2.34,4.54c0,.18,0,.59-.07.74a.67.67,0,0,0,0,.72c.59,1.69,3.05,2.36,4.55,2.76,5.34,1.4,11.34,1.25,16.79.77,3.36-.3,6.86-.92,9.67-2.9.83-.58,1.56-1.27,2.35-1.87a14.74,14.74,0,0,1,5.21-2.2c1.48-.42,3.42-.6,4.71-1.5.35-.23.2-.57.16-.93a30.31,30.31,0,0,0-.53-3.26c0-.16-.5-.14-.48,0a32.36,32.36,0,0,1,.57,3.68c.08.77-1.44,1-2,1.15-2.34.67-4.8,1.1-7,2.26-1.89,1-3.27,2.69-5.23,3.64A19.34,19.34,0,0,1,39.37,297a60.12,60.12,0,0,1-10.47.41,35,35,0,0,1-8-1,8.35,8.35,0,0,1-3.41-1.59c-1-.88-.74-1.65-.51-2.81a8.11,8.11,0,0,1,2-3.84,5.67,5.67,0,0,1,2.68-1.31,28.78,28.78,0,0,1,6.53-.83,8,8,0,0,1,3.29.35,22.6,22.6,0,0,1,4.93,2.49,8,8,0,0,0,3.24,1.28A4.56,4.56,0,0,0,44.3,287c.28-1-.74-1.86-1.36-2.43a13,13,0,0,0-3.38-2.11,17.25,17.25,0,0,0-3.29-1.12c-.47-.12-.39,0-.14-.21a5.63,5.63,0,0,0,1-2.38l-.42,0a23.92,23.92,0,0,0,21.48.1l-.45-.08c.3,2,.56,3.95,1,5.89C58.75,284.86,59.22,284.84,59.2,284.74Z"/><g class="cls-27"><path class="cls-41" d="M59,284.72c-.24-1.07-.71-4-1-5.9a23.82,23.82,0,0,1-12.42,2.4,23.41,23.41,0,0,1-8.67-2.49,5.31,5.31,0,0,1-1.19,2.57l.09,0s4.89.91,7.7,4c1.11,1.25.7,2.2-1,3.8s-3.71,1.17-6.69-.78a16.86,16.86,0,0,0-5.68-2.43s-9.4-.16-11.51,2.34a7.66,7.66,0,0,0-2,4.88,1.5,1.5,0,0,1-.15.19s-.65,4.22,15.09,4.22,15.46-4,19.34-5.87c3.18-1.54,8.4-2.15,8.69-3A33,33,0,0,0,59,284.72Zm-4.83,3.92c-6.51,1.3-6.41,3-10.81,5.61s-15.47,1.88-20.74,1-5.82-3.8-4.13-5.6c3-3.23,11.24-4,14.83-1.9s5.16,4.52,9.08,2.66,4.93-3.2,2-5.86-.77-2,5-2.61,6.79-1.84,7.61.33S60.64,287.33,54.12,288.64Z"/></g><g class="cls-42"><path class="cls-43" d="M43.47,285.33c-2.81-3.09-7.7-4-7.7-4l-.09,0s0,0,0,0a6.23,6.23,0,0,0-3.37,1.54c-1.9,1.53-3.15,1.81-2.17,3.05a16.86,16.86,0,0,1,5.68,2.43c3,1.95,5,2.36,6.69.78S44.58,286.58,43.47,285.33Zm-2.84,2.22c-2,1.33-2.75.54-5.57-.79s-4.75-1.52-3.9-2.39a6.29,6.29,0,0,1,7.46-1.68C41.58,284,42.58,286.22,40.63,287.55Z"/></g><path class="cls-44" d="M18.16,290.81c.82-2.23,6.86-5.09,12.18-3.32C30.34,287.49,22.89,286.9,18.16,290.81Z"/><g class="cls-42"><path class="cls-43" d="M55.55,291.41c-4.32.65-3.38.43-8.16,3.58s-7.41,4.16-20.7,3.69c-6.87-.24-9.82-1.42-11.07-2.5A2.8,2.8,0,0,0,17.29,298c3.49,1.74,17.5,2.83,25.06.54s7.54-6.13,12.43-6.13c3.77,0,4.81-1.46,4.92-2.74A8.42,8.42,0,0,1,55.55,291.41Z"/></g><path class="cls-31" d="M122.29,290.81S120,292.44,110,293.52s-15.44-.32-21.08-3.15-9-2.88-9-2.88-1,3,1.14,3.53,5.33,0,10.2,3.21,10.17,3.59,21.3,2.23S123.06,293,122.29,290.81Z"/><path class="cls-32" d="M122.09,290.75a13.65,13.65,0,0,1-4.61,1.5,59.4,59.4,0,0,1-16.28,1.47,32.79,32.79,0,0,1-12.57-3.62c-2.62-1.29-5.77-2.63-8.75-2.7-.08,0-.22,0-.25.09-.43,1.27-.41,2.87,1,3.51a7.1,7.1,0,0,0,2.14.39,20.88,20.88,0,0,1,3.53.63c2.69.74,4.81,2.52,7.29,3.64a19.08,19.08,0,0,0,5.64,1.46,42.08,42.08,0,0,0,7.53,0,83.32,83.32,0,0,0,10-1.21c1.85-.35,6.4-1,6.22-3.75a5.58,5.58,0,0,0-.36-1.39c0-.12-.52-.11-.47,0a3.35,3.35,0,0,1,.25,2.13c-.36,1.23-2,1.76-3.09,2.11a45.57,45.57,0,0,1-9.43,1.59,59.27,59.27,0,0,1-8.83.4,20.44,20.44,0,0,1-6.42-1.25c-2.27-.87-4.17-2.44-6.41-3.39a21.77,21.77,0,0,0-5.91-1.29c-1.27-.16-2.24-.56-2.34-2a4.32,4.32,0,0,1,.24-1.67l-.25.09c3.66.09,7.17,2.11,10.41,3.59a31.65,31.65,0,0,0,12,2.78A61.2,61.2,0,0,0,118,292.37a13.42,13.42,0,0,0,4.54-1.5C122.65,290.76,122.19,290.68,122.09,290.75Z"/><path class="cls-31" d="M93.05,280.85c-3.51,3.47-.09,6.36,2.92,6.64s4.06-5.45,9.65-7c0,0-3-2.06-5.27-2.17A8.22,8.22,0,0,0,93.05,280.85Z"/><path class="cls-32" d="M92.83,280.82c-1.56,1.64-2.12,3.64-.35,5.33a5.2,5.2,0,0,0,4.31,1.38c1.36-.36,2.26-1.62,3.11-2.65a12.18,12.18,0,0,1,5.84-4.32c.07,0,.17-.08.08-.15-4.18-2.81-9.12-3.26-13,.41-.13.13.34.16.43.07a8.5,8.5,0,0,1,8.14-2.28,13.77,13.77,0,0,1,3.76,1.77c.46.29-.32.21-.68.37a11.23,11.23,0,0,0-1.93,1.05c-2,1.37-3.14,3.6-5,5.08-1.45,1.16-3.63.11-4.79-1-1.62-1.55-.82-3.58.52-5C93.39,280.75,92.92,280.73,92.83,280.82Z"/><path class="cls-39" d="M118,282.76c-1.91-2.54-11.58-2.16-12.33-2.28-5.59,1.56-6.63,7.3-9.65,7s-6.43-3.17-2.92-6.64a8.22,8.22,0,0,1,7.3-2.54A3.21,3.21,0,0,1,99,276.42c-1.05.75-3.13,1.74-7.33,2.61a29.32,29.32,0,0,1-12.53.06c.17,2.18.46,6.05.69,8.4,0,0,3.37.06,9,2.88S100,294.61,110,293.52s12.32-2.71,12.32-2.71A58.07,58.07,0,0,0,118,282.76Z"/><path class="cls-40" d="M118.16,282.75a5.72,5.72,0,0,0-3.11-1.57,26.76,26.76,0,0,0-5.06-.66c-1.35-.08-2.71-.08-4.07-.12a6.67,6.67,0,0,0-3.86,1.72A29.51,29.51,0,0,0,98.4,286a4.74,4.74,0,0,1-1.61,1.24c-1.33.55-3.14-.48-4.07-1.37-2.54-2.43.66-5.47,2.82-6.66a7.21,7.21,0,0,1,4.79-.83c.08,0,.38,0,.2-.13a3.17,3.17,0,0,1-1.25-1.84c0-.13-.37-.15-.47-.08-2.46,1.72-5.75,2.33-8.64,2.82A27.08,27.08,0,0,1,79.26,279s-.33-.06-.33,0c.23,2.8.44,5.6.7,8.4,0,.1.2.14.29.14,3.67.09,7.15,2.11,10.39,3.59a31.81,31.81,0,0,0,12,2.79A61.58,61.58,0,0,0,118,292.38a13.19,13.19,0,0,0,4.51-1.5s0,0,0-.05a45,45,0,0,0-4.37-8.08c-.07-.1-.53-.13-.42,0a40.61,40.61,0,0,1,3.57,6.42c.26.53.51,1.05.75,1.58,0,0-.25.1-.36.16a18.38,18.38,0,0,1-3.75,1.19,68.52,68.52,0,0,1-9.44,1.43c-6,.55-11.85.11-17.4-2.27-3.57-1.54-7.27-3.8-11.29-3.9l.3.15c-.27-2.8-.49-5.6-.7-8.4l-.32,0a28.17,28.17,0,0,0,10,.41c3.32-.39,7.32-1.12,10.13-3.09l-.46-.08a3.51,3.51,0,0,0,1.34,1.92s.33-.11-.15-.18a6,6,0,0,0-.74,0,9.09,9.09,0,0,0-6.43,2.69c-1.69,1.6-2.09,4-.07,5.54,1.23.91,3.08,1.68,4.59,1.05s2.52-2.45,3.57-3.61c1.35-1.5,3.34-3.19,5.46-3.15,1.77,0,3.53.06,5.3.22s4.76.34,6.07,1.94C117.82,282.88,118.28,282.9,118.16,282.75Z"/><g class="cls-27"><path class="cls-41" d="M118,282.76c-1.91-2.54-11.58-2.16-12.33-2.28-5.59,1.56-6.63,7.3-9.65,7s-6.43-3.17-2.92-6.64a8.22,8.22,0,0,1,7.3-2.54A3.21,3.21,0,0,1,99,276.42c-1.05.75-3.13,1.74-7.33,2.61a29.32,29.32,0,0,1-12.53.06c.17,2.18.46,6.05.69,8.4,0,0,3.37.06,9,2.88S100,294.61,110,293.52s12.32-2.71,12.32-2.71A58.07,58.07,0,0,0,118,282.76Zm-5.16,8.92c-9.19.87-11,1.84-20.86-1.58s-10-3.2-11-7.25c-.84-3.25-.17-1.93,3.25-2.14s8.41-1.62,6.69,1-2.35,3.22,1.41,5.23,3.37,2.78,6.33.54,3.56-6.73,9.58-6.57,6.58.42,9.17,3.58S122,290.81,112.79,291.68Z"/></g><g class="cls-42"><path class="cls-43" d="M100.35,278.31a8.22,8.22,0,0,0-7.3,2.54c-3.51,3.47-.09,6.36,2.92,6.64s4.06-5.45,9.65-7C105.62,280.48,102.59,278.42,100.35,278.31Zm.79,3.85c-2.07,1.91-3.94,3.8-5.86,3s-2.8-2.7-1.1-4.22c2.17-1.95,6.07-2.73,7.7-2S103.21,280.24,101.14,282.16Z"/></g><path class="cls-44" d="M106,281.54s6.6-1.33,9.22,1.51a13.44,13.44,0,0,1,3.18,5.91S116.39,281,106,281.54Z"/><g class="cls-42"><path class="cls-43" d="M109.64,295.53c-9,.17-12.6.44-17.28-2.27s-4.78-2.56-9.94-3.56a23.52,23.52,0,0,1-2.79-.71A1.84,1.84,0,0,0,81,291c2.19.54,5.33,0,10.2,3.21s10.17,3.59,21.3,2.23c9-1.11,10.36-2.71,10.11-4.44C120.84,294.93,116.14,295.41,109.64,295.53Z"/></g></g></g></g></svg>