<svg width="2021" height="2954" viewBox="0 0 2021 2954" fill="none" xmlns="http://www.w3.org/2000/svg">
<path d="M1538.52 1257.91H824.38C714.542 1257.91 625.5 1346.95 625.5 1456.79V2152.9C625.5 2262.74 714.542 2351.78 824.38 2351.78H1538.52C1648.36 2351.78 1737.4 2262.74 1737.4 2152.9V1456.79C1737.4 1346.95 1648.36 1257.91 1538.52 1257.91Z" fill="white"/>
<path d="M1538.53 2371.69H824.39C703.75 2371.69 605.6 2273.54 605.6 2152.9V1456.79C605.6 1336.15 703.75 1238.01 824.39 1238.01H1538.53C1659.16 1238.01 1757.31 1336.15 1757.31 1456.79V2152.86C1757.31 2273.54 1659.16 2371.69 1538.53 2371.69ZM824.39 1277.86C725.7 1277.86 645.39 1358.15 645.39 1456.86V2152.86C645.39 2251.55 725.68 2331.86 824.39 2331.86H1538.53C1637.21 2331.86 1717.53 2251.57 1717.53 2152.86V1456.79C1717.53 1358.11 1637.24 1277.79 1538.53 1277.79L824.39 1277.86Z" fill="#371B45"/>
<path d="M1842.36 1917.42C1842.36 1917.42 1888.14 2060.19 1737.68 2090.8C1710.87 2096.34 1685.26 2094.14 1662.3 2085.9C1662.03 2085.84 1661.76 2085.76 1661.5 2085.65C1561.65 2048.86 1513.33 1894.9 1644.5 1740.85C1645.95 1739.15 1647.4 1737.45 1648.9 1735.75C1654.54 1729.31 1660.5 1722.85 1666.77 1716.38C1667.13 1716.08 1667.47 1715.74 1667.77 1715.38C1667.77 1715.38 1660.83 1703.84 1638.51 1687.62C1637.37 1686.77 1636.17 1685.92 1634.92 1685.07C1621.24 1675.44 1602.22 1664.36 1576.41 1653.17L1522.5 1488.17L1522.4 1487.87L1512.81 1458.62L1504.23 1432.46L1454.5 1280.46C1454.5 1280.46 1487.4 1291.64 1534.5 1311.36C1547.5 1316.8 1561.5 1322.84 1576.23 1329.53C1591.23 1336.32 1606.93 1343.76 1623.01 1351.75C1631.1 1355.75 1639.28 1359.99 1647.47 1364.28C1654.21 1367.82 1661 1371.47 1667.74 1375.16C1667.74 1375.16 1682.56 1383.16 1705.74 1397.58C1824.54 1471.42 2161.86 1714.09 1842.36 1917.42Z" fill="white"/>
<g opacity="0.2">
<path d="M1557.04 1518.86L1573.13 1653.13C1646.06 1684.77 1664.53 1715.34 1664.53 1715.34C1664.19 1715.69 1663.84 1716.03 1663.53 1716.34C1683.07 1700.21 1709.3 1681.77 1736.84 1671.44C1736.84 1671.44 1684.97 1644.44 1669.13 1623.63C1618.39 1556.92 1617.32 1532.84 1597.91 1505.38C1591.64 1496.55 1549.91 1504.12 1557.04 1518.86Z" fill="#371B45"/>
</g>
<g opacity="0.2">
<path d="M1734.4 2090.86C1883.08 2060.54 1840.12 1920.77 1839.12 1917.45C1839.12 1917.45 1813.3 2055.81 1678.89 2017.85C1592.94 1993.54 1600.21 1872.4 1616.62 1788.27C1615.17 1784.94 1613.97 1781.5 1613.03 1777.99H1612.98C1494.31 1954.42 1599.76 2118.28 1734.4 2090.86Z" fill="#371B45"/>
</g>
<path d="M1705.39 2112.35C1647.89 2112.35 1595.45 2081.16 1566.29 2027.42C1527.29 1955.5 1527.02 1836.76 1639.34 1714.88C1629.56 1705.77 1611.01 1691.47 1578.92 1676.19C1576.72 1675.14 1574.75 1673.67 1573.11 1671.85C1571.48 1670.04 1570.22 1667.92 1569.41 1665.62C1568.6 1663.32 1568.24 1660.89 1568.37 1658.45C1568.5 1656.01 1569.1 1653.63 1570.16 1651.43C1571.21 1649.22 1572.68 1647.25 1574.49 1645.62C1576.31 1643.99 1578.42 1642.73 1580.72 1641.91C1583.02 1641.1 1585.46 1640.75 1587.9 1640.87C1590.33 1641 1592.72 1641.61 1594.92 1642.66C1659.59 1673.45 1678.51 1702.51 1680.46 1705.72L1687.94 1718.08L1677.81 1728.37C1567.81 1840.15 1564.93 1946.99 1598.96 2009.71C1626.02 2059.56 1676.5 2083.71 1730.7 2072.63C1770.2 2064.57 1797.9 2047.47 1813.03 2021.81C1838.46 1978.65 1821.59 1923.57 1821.42 1923.02L1817.14 1909.44L1829.14 1901.74C1914.59 1847.34 1956.7 1786.39 1954.3 1720.59C1948.1 1550.8 1658.7 1393.05 1655.78 1391.48C1553.23 1334.89 1446.39 1298.4 1445.32 1298.04C1440.73 1296.4 1436.97 1293.02 1434.85 1288.64C1432.73 1284.25 1432.41 1279.21 1433.98 1274.59C1435.54 1269.98 1438.86 1266.16 1443.21 1263.97C1447.56 1261.78 1452.6 1261.38 1457.24 1262.87C1461.72 1264.39 1568.18 1300.72 1673.55 1358.87C1686.07 1365.6 1984.39 1528.19 1991.41 1719.19C1994.24 1795.99 1950.13 1865.43 1860.29 1925.75C1865.02 1949.14 1870.22 1997.62 1845.2 2040.35C1824.55 2075.64 1788.52 2098.74 1738.12 2109.01C1727.35 2111.22 1716.39 2112.34 1705.39 2112.35Z" fill="#371B45"/>
<path d="M1841.86 1932.2C1835.18 1934.85 1828.35 1937.13 1821.41 1939.03C1814.57 1941.03 1807.56 1942.68 1800.54 1944.16C1793.52 1945.64 1786.37 1946.79 1779.17 1947.6C1771.93 1948.42 1764.64 1948.73 1757.36 1948.51C1763.36 1944.29 1769.29 1940.42 1775.11 1936.44L1792.55 1924.78C1798.35 1920.95 1804.08 1917.06 1809.9 1913.41C1815.72 1909.76 1821.53 1905.93 1827.17 1902.6L1841.86 1932.2Z" fill="#371B45"/>
<path d="M1939.51 1840.66C1937.68 1840.66 1935.86 1840.29 1934.17 1839.58C1932.48 1838.88 1930.95 1837.85 1929.66 1836.54C1928.37 1835.24 1927.35 1833.7 1926.65 1832C1925.96 1830.31 1925.61 1828.49 1925.62 1826.66C1925.7 1793.94 1896.03 1758.84 1850.03 1737.25C1794.73 1711.31 1710.76 1704.36 1640.94 1762.68C1638.1 1765 1634.46 1766.11 1630.81 1765.76C1627.16 1765.41 1623.79 1763.64 1621.44 1760.82C1619.09 1758.01 1617.94 1754.38 1618.25 1750.72C1618.56 1747.07 1620.29 1743.68 1623.08 1741.3C1702.95 1674.59 1798.8 1682.45 1861.86 1712.04C1917.62 1738.2 1953.58 1783.22 1953.47 1826.73C1953.47 1828.56 1953.11 1830.38 1952.41 1832.07C1951.71 1833.76 1950.68 1835.3 1949.38 1836.59C1948.08 1837.89 1946.54 1838.91 1944.85 1839.61C1943.16 1840.31 1941.34 1840.66 1939.51 1840.66Z" fill="#371B45"/>
<path d="M1650 1702.31C1657.28 1698.46 1664.15 1695.31 1671.29 1692.02C1678.43 1688.73 1685.54 1685.83 1692.74 1683.02C1707.16 1677.45 1721.92 1672.57 1736.85 1669.73C1723.94 1677.73 1712.41 1687.17 1701.37 1697.11C1695.87 1702.12 1690.51 1707.25 1685.3 1712.48C1680.15 1717.68 1674.87 1723.15 1670.3 1728.39L1650 1702.31Z" fill="#371B45"/>
<path d="M847.93 1277.68L838.99 1430.09L827.76 1622.09L820.97 1737.51L819.47 1763.37C819.47 1763.37 798.31 1772.37 761.71 1781.54C738.095 1787.47 714.163 1792.05 690.03 1795.27C599.62 1807.45 471.32 1805.9 336.48 1743.5C165.6 1664.43 114.13 1535.18 98.76 1459.55C91.37 1423.11 92.32 1399.14 92.32 1399.14C92.32 1399.14 202.64 1339.89 239.39 1335.14C276.14 1330.39 398.39 1329.75 398.39 1329.75C398.39 1329.75 451.8 1439.53 587.04 1452.01C650.19 1457.8 711.24 1420.16 758.42 1378.38C779.813 1359.29 799.754 1338.62 818.08 1316.57C836.95 1293.95 847.93 1277.68 847.93 1277.68Z" fill="white"/>
<g opacity="0.2">
<path d="M825.46 1619.86L818.67 1735.28C799.15 1750.05 779.19 1764.88 759.42 1779.28C675.42 1800.39 510.42 1822.81 334.19 1741.28C163.31 1662.2 111.84 1532.95 96.46 1457.28C130.61 1446.28 151.79 1454.34 207.85 1473.41C207.86 1473.42 414.1 1804.86 825.46 1619.86Z" fill="#371B45"/>
</g>
<path d="M431.91 1795.92C427.703 1795.92 423.62 1794.5 420.328 1791.88C417.037 1789.26 414.732 1785.6 413.791 1781.5C412.849 1777.4 413.328 1773.11 415.148 1769.31C416.969 1765.52 420.022 1762.46 423.81 1760.63C572.63 1688.69 540.46 1450.97 540.12 1448.57C539.723 1446.13 539.817 1443.64 540.395 1441.24C540.973 1438.84 542.024 1436.58 543.486 1434.59C544.948 1432.6 546.792 1430.92 548.911 1429.65C551.029 1428.39 553.379 1427.55 555.823 1427.2C558.268 1426.86 560.757 1427 563.145 1427.62C565.534 1428.25 567.774 1429.34 569.735 1430.84C571.696 1432.34 573.338 1434.22 574.564 1436.36C575.791 1438.5 576.578 1440.87 576.88 1443.32C578.44 1454.18 612.97 1710.44 439.97 1794.06C437.459 1795.28 434.703 1795.92 431.91 1795.92Z" fill="#371B45"/>
<path d="M599.3 1817.95C505.06 1818.14 411.92 1797.71 326.41 1758.1C190.21 1695.1 128.12 1600.47 100.02 1532.22C69.42 1457.88 71.3501 1398.66 71.4501 1396.22C71.6877 1391.33 73.8458 1386.73 77.4549 1383.43C81.0641 1380.12 85.8325 1378.37 90.7232 1378.57C95.6139 1378.76 100.231 1380.87 103.572 1384.45C106.912 1388.03 108.705 1392.78 108.56 1397.67C108.56 1398.17 107.01 1452.58 135.03 1519.72C172.41 1609.3 242.03 1678.17 342.03 1724.43C554.78 1822.89 752.23 1764.61 799.37 1748.03L823.62 1333.86C774.38 1391.04 682.62 1477.35 582.97 1468.18C438.97 1454.91 381.73 1340.45 379.36 1335.58C377.306 1331.17 377.067 1326.12 378.694 1321.54C380.321 1316.95 383.684 1313.18 388.059 1311.05C392.435 1308.92 397.473 1308.59 402.089 1310.13C406.704 1311.68 410.529 1314.97 412.74 1319.31C414.9 1323.68 463.93 1419.92 586.38 1431.2C709.11 1442.4 829.04 1266.74 830.24 1264.96C832.514 1261.58 835.835 1259.05 839.691 1257.74C843.548 1256.44 847.726 1256.44 851.583 1257.74C855.44 1259.04 858.762 1261.58 861.038 1264.95C863.314 1268.33 864.418 1272.36 864.18 1276.42L835.72 1762.17C835.51 1765.63 834.341 1768.95 832.343 1771.78C830.345 1774.61 827.597 1776.82 824.41 1778.17C818.43 1780.76 728.15 1817.95 599.3 1817.95Z" fill="#371B45"/>
<path d="M189.86 1469.6C189.86 1469.6 99.6999 1496.88 51.0699 1405.54C51.0699 1405.54 -67.5602 1266.75 174.44 1142.19C174.44 1142.19 108.3 906.72 206.17 876.47C304.04 846.22 328.06 1037.47 302.25 1123.81C302.25 1123.81 386.99 1142.22 416.43 1237.09C448.43 1340.3 349.12 1412.02 349.12 1412.02C349.12 1412.02 261.22 1468.41 189.86 1469.6Z" fill="white"/>
<g opacity="0.2">
<path d="M22.6401 1331.01C22.6401 1331.01 70.0901 1365.38 135.33 1325.65C200.57 1285.92 176.86 1210.01 176.86 1210.01C176.86 1210.01 171.52 1167.6 199.1 1148.01C199.1 1148.01 200.88 1184.48 295.19 1196.94C389.5 1209.4 425.97 1331.28 358.36 1404.24C290.75 1477.2 132.99 1479.86 89.9801 1462.96C46.9701 1446.06 22.6401 1331.01 22.6401 1331.01Z" fill="#371B45"/>
</g>
<g opacity="0.2">
<path d="M153.69 997.67C153.69 997.67 190.19 1077.74 238.24 1077.74C286.29 1077.74 299.63 968.31 299.63 968.31C299.63 968.31 330.76 1096.43 280.94 1124.9C231.12 1153.37 179.52 1148.03 179.52 1148.03C179.52 1148.03 144.76 1107.1 153.69 997.67Z" fill="#371B45"/>
</g>
<path d="M300.17 1142.25C273.99 1142.06 244.92 1144.88 222.95 1153.97C211.95 1158.55 203.45 1164.97 198.38 1172.24C195.763 1175.99 193.905 1180.22 192.91 1184.69C191.917 1188.86 191.58 1193.16 191.91 1197.43C192.475 1200.98 193.961 1204.33 196.22 1207.13C199.266 1210.88 202.903 1214.12 206.99 1216.7C216.33 1222.82 228.54 1227.58 241.36 1231.32C247.81 1233.17 254.46 1234.75 261.22 1236.15C267.98 1237.55 274.84 1238.83 281.72 1240.56C295.48 1243.98 309.56 1247.87 323.8 1254.89L324.31 1255.14C325.629 1255.79 326.737 1256.8 327.502 1258.05C328.268 1259.31 328.66 1260.75 328.633 1262.22C328.605 1263.69 328.16 1265.12 327.348 1266.35C326.537 1267.57 325.392 1268.54 324.05 1269.14C293.42 1282.88 262.05 1279.96 230.72 1272.91C214.98 1269.23 198.98 1264.1 183.11 1254.67C174.6 1249.48 167.018 1242.9 160.68 1235.21C153.578 1226.48 148.809 1216.09 146.82 1205.02C145.223 1194.62 145.747 1184 148.36 1173.8C150.779 1163.85 155.061 1154.45 160.98 1146.09C166.768 1137.92 173.963 1130.84 182.23 1125.18C189.855 1119.98 198.098 1115.76 206.77 1112.61C223.37 1106.44 239.94 1104.05 256.08 1102.97C264.16 1102.51 272.18 1102.56 280.14 1102.89C284.14 1103.02 288.14 1103.4 292.07 1103.77C296 1104.14 299.81 1104.62 304.4 1105.38C309.015 1106.14 313.172 1108.62 316.041 1112.31C318.91 1116.01 320.28 1120.65 319.877 1125.31C319.475 1129.97 317.329 1134.31 313.868 1137.46C310.408 1140.6 305.888 1142.33 301.21 1142.29L300.17 1142.25Z" fill="#371B45"/>
<path d="M105.16 1435.86C85.54 1435.86 65.16 1431.49 44 1422.75C41.7465 1421.82 39.6989 1420.45 37.974 1418.72C36.2491 1417 34.8807 1414.95 33.947 1412.7C33.0133 1410.45 32.5326 1408.03 32.5322 1405.59C32.5319 1403.15 33.012 1400.74 33.945 1398.49C34.878 1396.23 36.2458 1394.18 37.9702 1392.46C39.6945 1390.73 41.7418 1389.37 43.9951 1388.43C46.2483 1387.5 48.6633 1387.02 51.1023 1387.02C53.5413 1387.02 55.9565 1387.5 58.21 1388.43C90.95 1401.99 119.66 1402.16 145.99 1388.96C211.13 1356.28 237.99 1252.96 238.26 1251.96C239.566 1247.3 242.64 1243.33 246.829 1240.9C251.018 1238.47 255.989 1237.78 260.683 1238.96C265.378 1240.15 269.424 1243.12 271.96 1247.24C274.496 1251.37 275.322 1256.32 274.26 1261.04C273.02 1265.95 243.09 1381.74 162.74 1422.14C144.899 1431.2 125.167 1435.9 105.16 1435.86Z" fill="#371B45"/>
<path d="M191.25 1474.06C184.771 1478.16 177.721 1481.28 170.33 1483.32C166.661 1484.37 162.939 1485.23 159.18 1485.9C155.4 1486.46 151.57 1486.82 147.71 1487.17C131.874 1488.01 116.059 1485.18 101.49 1478.92C86.8901 1472.5 73.0201 1463.52 61.9701 1452.12C55.8801 1446.84 51.4401 1440.38 46.3401 1434.35C41.6501 1428.1 37.8501 1421.35 33.6101 1414.86L36.0401 1418.42C34.1001 1416.14 33.0401 1414.76 31.7201 1412.99C30.4001 1411.22 29.2801 1409.65 28.1401 1407.99C25.8401 1404.63 23.7301 1401.21 21.7501 1397.72C17.8337 1390.72 14.4022 1383.45 11.4801 1375.98C5.56566 1360.8 2.0861 1344.79 1.17009 1328.53C0.31115 1312.11 2.25909 1295.66 6.9301 1279.9C11.5381 1264.47 18.2441 1249.75 26.8601 1236.15C44.2701 1209.8 66.2701 1188 90.2801 1170.42C114.17 1152.56 139.78 1138.1 165.99 1125.68L156.61 1147.22C150.02 1122.4 144.763 1097.24 140.86 1071.86C136.96 1046.56 134.31 1020.86 134.13 994.72C133.973 981.442 134.711 968.168 136.34 954.99C137.939 941.161 141.123 927.561 145.83 914.46C150.92 901.02 158.51 887.23 170.51 876.15C182.34 864.97 198.51 858.02 213.51 855.77C221.618 854.46 229.883 854.46 237.99 855.77C240.06 856.13 242.13 856.48 244.18 856.92L250.18 858.85C254.27 860.01 257.84 862.1 261.58 863.91C276.16 871.91 286.47 883.84 294.48 895.78C302.047 907.522 308.187 920.124 312.77 933.32C317.246 945.915 320.772 958.828 323.32 971.95C328.359 997.681 330.748 1023.86 330.45 1050.08C330.1 1076.26 327.8 1102.45 320.09 1129.08L306.24 1105.61C307.91 1105.98 308.86 1106.26 310.03 1106.61C311.2 1106.96 312.23 1107.24 313.3 1107.61C315.45 1108.24 317.51 1108.95 319.54 1109.68C323.68 1111.07 327.54 1112.76 331.54 1114.47C335.54 1116.18 339.29 1118.05 342.98 1120.14L348.58 1123.14L353.99 1126.5C368.448 1135.5 381.541 1146.52 392.87 1159.24C404.39 1171.8 413.54 1186.34 420.99 1201.42L426.27 1212.89C427.76 1216.8 429.09 1220.77 430.47 1224.72C431.926 1228.68 433.154 1232.71 434.15 1236.81L435.69 1243.04L436.85 1249.37C439.83 1266.32 439.85 1283.67 436.91 1300.63C433.951 1317.29 428.432 1333.38 420.55 1348.35C412.897 1362.93 403.281 1376.39 391.97 1388.35C380.888 1400.29 368.164 1410.59 354.18 1418.94C352.399 1419.99 350.298 1420.35 348.267 1419.97C346.236 1419.59 344.411 1418.49 343.129 1416.87C341.847 1415.25 341.195 1413.22 341.292 1411.16C341.39 1409.09 342.231 1407.13 343.66 1405.64L344.19 1405.1C364.19 1384.37 382.38 1360.6 394.04 1335.29C405.91 1309.94 409.84 1282.06 403.77 1255.76L402.65 1250.83L401.2 1245.97C400.235 1242.66 399.076 1239.42 397.73 1236.25L394.01 1226.52L389.43 1217.25C383.01 1205.11 375.43 1193.61 365.92 1183.83C356.554 1173.93 345.958 1165.27 334.39 1158.06L330.03 1155.38L325.52 1152.98C322.52 1151.29 319.43 1149.98 316.36 1148.5C313.29 1147.02 310.13 1145.79 307.02 1144.72C305.45 1144.13 303.9 1143.58 302.38 1143.12C301.62 1142.89 300.82 1142.61 300.14 1142.44L298.38 1141.95L297.49 1141.71C292.724 1140.39 288.678 1137.23 286.24 1132.93C283.803 1128.62 283.173 1123.53 284.49 1118.76C284.49 1118.7 284.55 1118.55 284.56 1118.49C290.77 1097.23 293.13 1073.3 293.37 1049.73C293.643 1026.08 291.499 1002.46 286.97 979.25C282.39 956.41 275.08 933.91 263.59 916.31C257.84 907.67 251.06 900.31 243.59 896.39C236.186 892.389 227.648 891.008 219.36 892.47C209.83 894.06 202.19 897.52 195.74 903.47C189.29 909.42 184.26 917.86 180.57 927.64C173.33 947.47 171.15 971.08 171.26 994.64C171.37 1018.2 173.85 1042.36 177.55 1066.29C181.238 1090.2 186.185 1113.9 192.37 1137.29C193.618 1141.14 193.505 1145.31 192.049 1149.09C190.592 1152.87 187.882 1156.04 184.37 1158.06L183.02 1158.83C159.31 1172.39 136.46 1186.98 115.66 1203.4C94.8601 1219.82 76.5401 1238.46 63.1401 1259.31C56.6108 1269.48 51.4972 1280.5 47.9401 1292.05C41.0649 1314.87 41.7665 1339.31 49.9401 1361.7C51.9977 1367.39 54.4434 1372.94 57.2601 1378.3C58.7001 1380.96 60.1601 1383.6 61.7201 1386.13C62.5001 1387.4 63.2901 1388.64 64.1001 1389.82L66.1801 1392.82L67.5801 1394.82C67.9201 1395.32 68.3001 1395.89 68.5801 1396.4C71.7101 1401.53 74.4201 1407.06 77.7801 1411.99C81.4601 1416.59 84.5401 1421.88 88.8501 1425.79C96.5501 1434.73 106.21 1441.21 116.4 1446.61C127.012 1452.12 138.269 1456.29 149.91 1459.02C161.91 1462.02 175.03 1463.87 188.53 1465.31L189.1 1465.37C190.095 1465.47 191.033 1465.88 191.786 1466.54C192.539 1467.2 193.069 1468.07 193.303 1469.05C193.536 1470.02 193.463 1471.04 193.091 1471.97C192.72 1472.9 192.07 1473.69 191.23 1474.23L191.25 1474.06Z" fill="#371B45"/>
<path d="M1544.74 1455.24C1457.14 1507.98 1329.01 1541.24 1186.21 1541.24C1032.74 1541.24 896.21 1502.85 808.7 1443.15C811.25 1437.72 813.8 1432.33 816.45 1426.9C816.45 1426.9 767.61 1146.13 1011.98 1050.69C1069.32 1039 1127.69 1033.18 1186.21 1033.32C1249.77 1033.32 1310.4 1039.92 1365.87 1051.89C1576.03 1148.32 1531.33 1426.89 1531.33 1426.89C1535.92 1436.34 1540.42 1445.86 1544.74 1455.24Z" fill="#D8D8D8"/>
<path d="M1159.8 2289.33C1156.92 2335.71 1155.06 2382.04 1153.86 2427.21C1153.58 2438.63 1153.3 2450 1153.07 2461.21C1149.21 2659.34 1156.69 2828.37 1141.88 2871.08C1121.64 2929.2 1069.09 2934.26 1069.09 2934.26H889.33C889.33 2934.26 765.15 2940.48 732.14 2910.12C699.13 2879.76 702.39 2836.63 726.48 2806.78C747.09 2781.16 784.05 2770.39 784.05 2770.39C784.05 2770.39 759.05 2585.53 733.54 2339.44C732.54 2329.44 731.45 2319.38 730.43 2309.22C722.63 2233.22 714.92 2152.03 707.91 2069.11L1159.8 2289.33Z" fill="white"/>
<g opacity="0.2">
<path d="M1159.8 2289.33C1156.92 2335.71 1155.06 2382.04 1153.86 2427.21C1153.58 2438.63 1153.3 2450 1153.07 2461.21C949.17 2473.21 812.22 2401.32 733.54 2339.44C732.54 2329.44 731.45 2319.38 730.43 2309.22C722.63 2233.22 714.92 2152.03 707.91 2069.11L1159.8 2289.33Z" fill="#371B45"/>
</g>
<g opacity="0.2">
<path d="M732.12 2910.18C765.12 2940.48 889.32 2934.3 889.32 2934.3H1069.04C1069.04 2934.3 1121.62 2929.22 1141.86 2871.1C1144.4 2863.83 1146.3 2852.86 1147.69 2838.66C1124.69 2856.5 1101.34 2858.74 1101.34 2858.74H898.14C898.14 2858.74 757.74 2865.74 720.41 2831.43C718.447 2829.65 716.581 2827.77 714.82 2825.8C702.51 2853.16 705.65 2885.86 732.12 2910.18Z" fill="#371B45"/>
</g>
<path d="M860.5 2953.55C818.14 2953.55 747.43 2949.45 719.57 2923.83C682.57 2889.83 679.35 2835.68 711.99 2795.18C727.17 2776.34 749.14 2764.52 763.71 2758.24C754.71 2689.73 716.54 2391.37 689.39 2070.73C689.131 2068.27 689.366 2065.79 690.079 2063.42C690.792 2061.06 691.971 2058.86 693.545 2056.95C695.119 2055.05 697.057 2053.48 699.246 2052.33C701.435 2051.19 703.831 2050.49 706.293 2050.28C708.755 2050.07 711.233 2050.36 713.584 2051.12C715.934 2051.88 718.109 2053.1 719.981 2054.72C721.852 2056.33 723.383 2058.3 724.484 2060.51C725.585 2062.72 726.233 2065.13 726.39 2067.6C757.12 2430.4 802.01 2764.6 802.46 2767.95C803.054 2772.36 802.048 2776.83 799.624 2780.56C797.2 2784.28 793.519 2787.02 789.25 2788.26C788.98 2788.34 757.54 2797.85 740.91 2818.48C723.74 2839.79 718.25 2872.17 744.71 2896.48C763.48 2913.75 840.04 2918.12 888.41 2915.76C888.71 2915.76 889.02 2915.76 889.33 2915.76H1067.86C1073.24 2914.96 1109.34 2908 1124.29 2865.02C1133.11 2839.69 1133.12 2750.93 1133.14 2648.17C1133.14 2545.07 1133.14 2416.75 1141.24 2288.17C1141.64 2283.33 1143.93 2278.83 1147.6 2275.65C1151.28 2272.47 1156.06 2270.86 1160.91 2271.17C1165.76 2271.47 1170.3 2273.67 1173.55 2277.28C1176.8 2280.89 1178.51 2285.63 1178.3 2290.49C1170.3 2417.9 1170.3 2545.57 1170.3 2648.16C1170.3 2767.26 1170.3 2845.94 1159.4 2877.16C1135.54 2945.77 1073.4 2952.5 1070.82 2952.75C1070.23 2952.81 1069.63 2952.84 1069.04 2952.84H889.78C884.27 2953.15 873.77 2953.55 860.5 2953.55Z" fill="#371B45"/>
<path d="M978.86 2597.59C905.51 2597.59 820.76 2588.36 747.97 2556.21C745.738 2555.22 743.721 2553.81 742.035 2552.05C740.35 2550.28 739.028 2548.2 738.146 2545.93C737.264 2543.65 736.838 2541.23 736.894 2538.79C736.95 2536.35 737.485 2533.94 738.47 2531.71C739.455 2529.48 740.87 2527.46 742.634 2525.78C744.398 2524.09 746.477 2522.77 748.753 2521.89C751.028 2521 753.454 2520.58 755.893 2520.63C758.333 2520.69 760.738 2521.22 762.97 2522.21C919.51 2591.34 1145.82 2544.95 1148.09 2544.47C1150.49 2543.92 1152.98 2543.86 1155.41 2544.28C1157.84 2544.7 1160.16 2545.6 1162.24 2546.93C1164.32 2548.26 1166.11 2549.99 1167.51 2552.02C1168.91 2554.05 1169.89 2556.34 1170.4 2558.75C1170.9 2561.17 1170.93 2563.66 1170.46 2566.08C1170 2568.5 1169.05 2570.8 1167.69 2572.86C1166.32 2574.91 1164.56 2576.67 1162.51 2578.04C1160.46 2579.4 1158.15 2580.34 1155.73 2580.81C1150.26 2582 1074.19 2597.59 978.86 2597.59Z" fill="#371B45"/>
<path d="M779.7 2752.38C804.63 2748.04 829.06 2747.43 853.12 2748.38C876.993 2749.45 900.773 2752.06 924.31 2756.2C926.649 2756.59 928.75 2757.87 930.182 2759.76C931.614 2761.65 932.269 2764.01 932.014 2766.37C931.758 2768.73 930.611 2770.9 928.807 2772.44C927.003 2773.98 924.679 2774.78 922.31 2774.66C899.45 2773.71 876.552 2774.23 853.76 2776.23C831.21 2778.29 808.9 2781.98 788.41 2788.47C783.74 2789.83 778.722 2789.32 774.428 2787.03C770.135 2784.74 766.908 2780.86 765.438 2776.22C763.968 2771.59 764.372 2766.56 766.562 2762.21C768.753 2757.87 772.557 2754.56 777.16 2752.98C777.924 2752.74 778.702 2752.55 779.49 2752.4L779.7 2752.38Z" fill="#371B45"/>
<path d="M1187.99 2289.33C1190.87 2335.71 1192.73 2382.04 1193.94 2427.21C1194.21 2438.63 1194.49 2450 1194.72 2461.21C1198.58 2659.34 1191.1 2828.37 1205.91 2871.08C1226.15 2929.2 1278.71 2934.26 1278.71 2934.26H1458.46C1458.46 2934.26 1582.64 2940.48 1615.65 2910.12C1648.66 2879.76 1645.41 2836.63 1621.31 2806.78C1600.7 2781.16 1563.75 2770.39 1563.75 2770.39C1563.75 2770.39 1588.75 2585.53 1614.26 2339.44C1615.26 2329.44 1616.34 2319.38 1617.37 2309.22C1625.16 2233.22 1632.87 2152.03 1639.88 2069.11L1187.99 2289.33Z" fill="white"/>
<g opacity="0.2">
<path d="M1187.99 2289.33C1190.87 2335.71 1192.73 2382.04 1193.94 2427.21C1194.21 2438.63 1194.49 2450 1194.72 2461.21C1398.62 2473.21 1535.57 2401.32 1614.26 2339.44C1615.26 2329.44 1616.34 2319.38 1617.37 2309.22C1625.16 2233.22 1632.87 2152.03 1639.88 2069.11L1187.99 2289.33Z" fill="#371B45"/>
</g>
<g opacity="0.2">
<path d="M1615.67 2910.18C1582.67 2940.48 1458.47 2934.3 1458.47 2934.3H1278.75C1278.75 2934.3 1226.17 2929.22 1205.93 2871.1C1203.39 2863.83 1201.5 2852.86 1200.1 2838.66C1223.1 2856.5 1246.45 2858.74 1246.45 2858.74H1449.65C1449.65 2858.74 1590.05 2865.74 1627.38 2831.43C1629.34 2829.65 1631.21 2827.77 1632.97 2825.8C1645.28 2853.16 1642.14 2885.86 1615.67 2910.18Z" fill="#371B45"/>
</g>
<path d="M1487.3 2953.55C1474.02 2953.55 1463.52 2953.15 1458.01 2952.88H1278.74C1278.15 2952.88 1277.55 2952.85 1276.96 2952.79C1274.33 2952.54 1212.24 2945.79 1188.38 2877.2C1177.51 2845.94 1177.5 2767.26 1177.48 2648.2C1177.48 2545.61 1177.48 2417.94 1169.48 2290.53C1169.17 2285.61 1170.83 2280.78 1174.09 2277.08C1177.35 2273.39 1181.94 2271.14 1186.86 2270.84C1191.77 2270.53 1196.61 2272.19 1200.3 2275.44C1203.99 2278.7 1206.24 2283.29 1206.55 2288.21C1214.61 2416.77 1214.63 2545.09 1214.65 2648.21C1214.65 2750.97 1214.65 2839.73 1223.49 2865.06C1238.36 2907.81 1274.16 2914.92 1279.96 2915.8H1458.46C1458.77 2915.8 1459.08 2915.8 1459.39 2915.8C1507.74 2918.17 1584.31 2913.8 1603.08 2896.52C1629.54 2872.2 1624.08 2839.82 1606.88 2818.52C1590.25 2797.89 1558.82 2788.38 1558.5 2788.28C1554.25 2787.02 1550.59 2784.28 1548.17 2780.57C1545.76 2776.85 1544.75 2772.39 1545.33 2767.99C1545.79 2764.65 1590.67 2430.44 1621.4 2067.64C1621.56 2065.17 1622.21 2062.76 1623.31 2060.55C1624.41 2058.34 1625.94 2056.37 1627.81 2054.76C1629.68 2053.14 1631.86 2051.92 1634.21 2051.16C1636.56 2050.4 1639.04 2050.11 1641.5 2050.32C1643.96 2050.53 1646.36 2051.23 1648.54 2052.37C1650.73 2053.52 1652.67 2055.09 1654.25 2056.99C1655.82 2058.9 1657 2061.1 1657.71 2063.46C1658.42 2065.83 1658.66 2068.31 1658.4 2070.77C1631.24 2391.41 1593.05 2689.77 1584.07 2758.28C1598.65 2764.56 1620.61 2776.38 1635.79 2795.22C1668.43 2835.72 1665.24 2889.82 1628.21 2923.87C1600.36 2949.45 1529.66 2953.55 1487.3 2953.55Z" fill="#371B45"/>
<path d="M1368.86 2597.59C1273.54 2597.59 1197.49 2582 1191.99 2580.84C1187.24 2579.76 1183.11 2576.85 1180.49 2572.75C1177.86 2568.65 1176.95 2563.68 1177.95 2558.92C1178.95 2554.15 1181.79 2549.97 1185.84 2547.27C1189.9 2544.58 1194.85 2543.58 1199.63 2544.5C1201.9 2544.97 1428.43 2591.28 1584.75 2522.24C1586.98 2521.26 1589.39 2520.72 1591.83 2520.66C1594.27 2520.61 1596.69 2521.03 1598.97 2521.92C1601.24 2522.8 1603.32 2524.12 1605.09 2525.81C1606.85 2527.49 1608.26 2529.51 1609.25 2531.74C1610.23 2533.97 1610.77 2536.38 1610.83 2538.82C1610.88 2541.26 1610.46 2543.68 1609.57 2545.96C1608.69 2548.23 1607.37 2550.31 1605.68 2552.08C1604 2553.84 1601.98 2555.26 1599.75 2556.24C1527.01 2588.35 1442.25 2597.59 1368.86 2597.59Z" fill="#371B45"/>
<path d="M1559.39 2788.48C1538.89 2781.99 1516.58 2778.3 1494.04 2776.24C1471.24 2774.24 1448.34 2773.72 1425.48 2774.67C1423.11 2774.79 1420.79 2773.99 1418.98 2772.45C1417.18 2770.91 1416.03 2768.74 1415.78 2766.38C1415.52 2764.02 1416.18 2761.66 1417.61 2759.77C1419.04 2757.88 1421.14 2756.6 1423.48 2756.21C1447.02 2752.07 1470.8 2749.46 1494.67 2748.39C1518.73 2747.39 1543.16 2748.04 1568.09 2752.39H1568.2C1570.61 2752.81 1572.91 2753.7 1574.97 2755.01C1577.04 2756.31 1578.82 2758.02 1580.23 2760.02C1581.64 2762.01 1582.64 2764.27 1583.17 2766.66C1583.7 2769.04 1583.76 2771.51 1583.34 2773.91C1582.93 2776.32 1582.04 2778.62 1580.73 2780.69C1579.42 2782.75 1577.72 2784.54 1575.72 2785.95C1573.72 2787.35 1571.46 2788.35 1569.08 2788.88C1566.69 2789.42 1564.23 2789.48 1561.82 2789.06C1561 2788.92 1560.19 2788.73 1559.39 2788.48Z" fill="#371B45"/>
<path d="M1487.3 2953.55C1474.02 2953.55 1463.53 2953.15 1458.01 2952.88H1278.74C1278.15 2952.88 1277.55 2952.85 1276.96 2952.79C1274.33 2952.54 1212.24 2945.79 1188.38 2877.2C1177.51 2845.94 1177.5 2767.2 1177.48 2648.14C1177.48 2545.56 1177.48 2417.89 1169.48 2290.49C1169.17 2285.57 1170.83 2280.74 1174.09 2277.04C1177.35 2273.35 1181.94 2271.1 1186.86 2270.8C1191.77 2270.49 1196.61 2272.15 1200.3 2275.4C1203.99 2278.66 1206.24 2283.25 1206.55 2288.17C1214.61 2416.72 1214.63 2545.04 1214.65 2648.17C1214.65 2750.94 1214.65 2839.7 1223.49 2865.03C1238.36 2907.78 1274.16 2914.89 1279.96 2915.77H1458.5H1459.42C1507.78 2918.15 1584.34 2913.77 1603.11 2896.49C1629.57 2872.17 1624.11 2839.79 1606.91 2818.49C1590.29 2797.86 1558.85 2788.35 1558.53 2788.25C1554.28 2786.99 1550.62 2784.25 1548.2 2780.53C1545.79 2776.81 1544.78 2772.36 1545.36 2767.96C1545.82 2764.62 1590.7 2430.41 1621.43 2067.61C1621.59 2065.14 1622.24 2062.73 1623.34 2060.52C1624.44 2058.31 1625.97 2056.34 1627.84 2054.73C1629.71 2053.11 1631.89 2051.89 1634.24 2051.13C1636.59 2050.37 1639.07 2050.08 1641.53 2050.29C1643.99 2050.5 1646.39 2051.2 1648.57 2052.34C1650.76 2053.49 1652.7 2055.06 1654.28 2056.96C1655.85 2058.87 1657.03 2061.07 1657.74 2063.43C1658.45 2065.8 1658.69 2068.28 1658.43 2070.74C1631.27 2391.38 1593.08 2689.74 1584.1 2758.25C1598.68 2764.53 1620.64 2776.35 1635.82 2795.19C1668.46 2835.69 1665.27 2889.79 1628.24 2923.84C1600.36 2949.45 1529.66 2953.55 1487.3 2953.55Z" fill="#371B45"/>
<path d="M1531.35 1426.86C1648.18 1668.56 1700.73 1889.75 1665.07 2061.7C1652.35 2123.05 1631.17 2173.54 1603.95 2215.03C1545.29 2304.46 1458.62 2352.03 1368.28 2376.32C1302.28 2394.04 1234.28 2399.32 1173.9 2399.32C1127.37 2399.32 1076.38 2396.2 1025.26 2386.68C1010.92 2384.01 996.57 2380.83 982.26 2377.08C901.76 2355.91 823.96 2316.38 766.06 2245.44C728.06 2198.93 698.69 2138.91 682.68 2061.72C647.03 1889.72 699.58 1668.58 816.4 1426.88" fill="white"/>
<path d="M1678.32 1944.68C1678.72 1986.56 1675.18 2026.45 1667.39 2063.99C1665.84 2071.43 1664.14 2078.76 1662.3 2085.9C1662.05 2087 1661.8 2088.05 1661.5 2089.15C1648.62 2139.32 1629.65 2181.65 1606.23 2217.35C1547.58 2306.76 1460.91 2354.35 1370.56 2378.64C1304.56 2396.36 1236.62 2401.64 1176.21 2401.64C1129.68 2401.64 1078.67 2398.54 1027.55 2389.01C1013.22 2386.31 998.89 2383.17 984.61 2379.37C904.09 2358.2 826.31 2318.67 768.35 2247.73C734.41 2206.09 707.35 2153.58 690.43 2087.68C688.43 2079.94 686.68 2072.11 684.98 2064.02C677.2 2026.48 673.6 1986.59 674.05 1944.71C674.45 1897.38 679.89 1847.46 690.05 1795.34C712.05 1682.12 756.19 1558.56 818.74 1429.22C818.74 1429.22 818.05 1425.12 817.2 1417.69C813.696 1384.1 813.981 1350.22 818.05 1316.69C832.37 1199.93 901.16 1032.84 1176.23 1022.26C1453.23 1011.57 1521.04 1187.45 1534.57 1311.4C1538.32 1345.73 1538.59 1380.35 1535.37 1414.74C1534.47 1424.03 1533.62 1429.27 1533.62 1429.27C1576.4 1517.73 1610.62 1603.54 1634.96 1685.16C1640.1 1702.24 1644.77 1719.13 1648.96 1735.83C1667.69 1809.59 1677.77 1879.58 1678.32 1944.68Z" fill="white"/>
<g opacity="0.2">
<path d="M1665.07 2061.72C1652.35 2123.04 1631.18 2173.55 1603.93 2215.05C1545.3 2304.46 1458.63 2352.05 1368.29 2376.33C1302.29 2394.06 1234.29 2399.33 1173.91 2399.33C1127.39 2399.33 1076.37 2396.22 1025.26 2386.7C1010.92 2384.01 996.57 2380.85 982.32 2377.09C901.78 2355.92 824.02 2316.37 766.08 2245.43C728.15 2198.92 698.72 2138.89 682.7 2061.74C672.86 2014.29 669.75 1963.09 672.86 1908.74C674.278 1934.28 677.567 1959.68 682.7 1984.74C698.7 2061.94 728.15 2121.92 766.08 2168.44C824.02 2239.37 901.78 2278.93 982.32 2300.09C996.57 2303.85 1010.92 2307.01 1025.26 2309.7C1076.37 2319.22 1127.39 2322.33 1173.91 2322.33C1234.31 2322.33 1302.27 2317.09 1368.29 2299.33C1458.63 2275.1 1545.29 2227.47 1603.93 2138.06C1631.18 2096.55 1652.35 2046.06 1665.07 1984.72C1670.2 1959.66 1673.49 1934.26 1674.91 1908.72C1678.02 1963.07 1674.91 2014.27 1665.07 2061.72Z" fill="#371B45"/>
</g>
<path d="M758.91 2251.29C746.94 2241.48 736.195 2230.27 726.91 2217.89C717.507 2205.63 709.256 2192.52 702.26 2178.74C688.32 2151.18 677.8 2122.11 669.65 2092.59C667.73 2085.17 665.89 2077.74 664.29 2070.27C662.69 2062.8 661.16 2054.96 659.95 2047.37C657.61 2032.04 656.14 2016.79 655.21 2001.59C653.592 1971.35 653.776 1941.03 655.76 1910.81C659.46 1850.62 669.39 1791.15 683.88 1732.96C698.76 1674.89 719.2 1618.14 746.88 1565.18C747.924 1563.21 749.67 1561.7 751.772 1560.95C753.874 1560.2 756.181 1560.27 758.236 1561.14C760.292 1562.01 761.947 1563.61 762.875 1565.64C763.803 1567.67 763.937 1569.98 763.25 1572.1C745 1627.86 728.86 1683.86 716.6 1740.64C710.54 1769.05 705.36 1797.64 701.54 1826.37C697.72 1855.1 695.18 1883.99 693.88 1912.84C692.528 1941.57 692.799 1970.36 694.69 1999.06C695.63 2013.3 697.07 2027.46 699.25 2041.3C700.37 2048.3 701.49 2054.93 703.06 2061.91C704.63 2068.89 706.15 2075.79 707.88 2082.67C714.505 2110.18 723.758 2137 735.51 2162.74C741.26 2175.62 747.38 2188.3 753.64 2201.06L773.29 2239.55C774.284 2241.48 774.584 2243.7 774.14 2245.83C773.696 2247.95 772.535 2249.87 770.851 2251.24C769.168 2252.61 767.063 2253.37 764.889 2253.38C762.716 2253.39 760.605 2252.65 758.91 2251.29Z" fill="#371B45"/>
<path d="M1370.69 2385.29C1339.76 2397.54 1307.21 2405.36 1274.42 2410.42C1258.02 2413.12 1241.49 2414.65 1224.98 2416.02C1208.45 2417.21 1191.9 2417.64 1175.37 2417.85C1158.84 2417.75 1142.3 2417.3 1125.76 2416.23C1109.25 2414.89 1092.71 2413.49 1076.31 2410.82C1059.88 2408.42 1043.57 2405.12 1027.44 2401.13C1011.44 2396.66 995.52 2391.57 979.94 2386.04C977.839 2385.26 976.088 2383.76 975.01 2381.79C973.932 2379.83 973.599 2377.54 974.072 2375.35C974.545 2373.16 975.793 2371.22 977.586 2369.87C979.378 2368.53 981.596 2367.88 983.83 2368.04L984.67 2368.11C1000.82 2369.49 1016.52 2372.11 1032.32 2373.87C1048.12 2375.63 1064.02 2376.87 1079.88 2377.95C1095.76 2378.82 1111.62 2379.86 1127.54 2380.12C1143.44 2380.68 1159.37 2380.9 1175.32 2380.77C1191.27 2380.92 1207.19 2380.54 1223.09 2380.03C1239 2379.69 1254.86 2378.62 1270.73 2377.69C1302.47 2375.49 1334.04 2371.94 1365.87 2367.38C1368.13 2367.06 1370.43 2367.59 1372.34 2368.85C1374.24 2370.11 1375.61 2372.03 1376.2 2374.24C1376.79 2376.45 1376.55 2378.79 1375.52 2380.83C1374.5 2382.87 1372.76 2384.47 1370.64 2385.32L1370.69 2385.29Z" fill="#371B45"/>
<path d="M1586.52 1526.86C1614.68 1583.41 1638.09 1642.19 1656.52 1702.61C1658.96 1710.14 1660.85 1717.86 1663.04 1725.48C1665.23 1733.1 1667.4 1740.73 1669.23 1748.48C1672.92 1763.93 1676.77 1779.35 1679.7 1795.01C1683.07 1810.57 1685.54 1826.34 1688.11 1842.09C1689.49 1849.96 1690.19 1857.95 1691.19 1865.88C1692.19 1873.81 1693.13 1881.75 1693.63 1889.76C1696.65 1921.82 1697.11 1954.06 1695.01 1986.19C1694.35 1994.24 1694.01 2002.31 1693.07 2010.35L1690 2034.46C1687.11 2050.46 1684.28 2066.46 1680.2 2082.1C1672.2 2113.44 1661.68 2144.44 1646.56 2173.33C1631.44 2202.22 1612.48 2229.19 1588.85 2251.33C1587.19 2252.88 1585.03 2253.78 1582.77 2253.85C1580.5 2253.93 1578.28 2253.18 1576.52 2251.75C1574.77 2250.32 1573.59 2248.29 1573.21 2246.06C1572.83 2243.82 1573.27 2241.52 1574.46 2239.59C1606.25 2188.26 1629.31 2132.02 1642.72 2073.15C1655.8 2014.44 1657.72 1953.64 1653.51 1892.96C1649.1 1832.24 1637.82 1771.7 1622.7 1711.96C1607.58 1652.22 1589.06 1593.07 1569.34 1533.96C1568.61 1531.73 1568.75 1529.3 1569.73 1527.17C1570.71 1525.04 1572.46 1523.36 1574.63 1522.46C1576.8 1521.56 1579.23 1521.52 1581.43 1522.34C1583.63 1523.16 1585.44 1524.77 1586.5 1526.87L1586.52 1526.86Z" fill="#371B45"/>
<g opacity="0.2">
<path d="M1469.43 1942.36V1831.3C1469.39 1815.37 1463.04 1800.11 1451.78 1788.85C1440.52 1777.59 1425.26 1771.24 1409.33 1771.19H934.72C918.792 1771.24 903.531 1777.59 892.268 1788.85C881.006 1800.11 874.657 1815.37 874.61 1831.3V1942.36H671.75L688.13 2085.36C745.94 2077.54 810.47 2069.19 874.61 2061.63V2134.09C874.66 2150.02 881.009 2165.28 892.272 2176.54C903.534 2187.8 918.794 2194.14 934.72 2194.19H1409.33C1425.25 2194.14 1440.51 2187.8 1451.77 2176.53C1463.04 2165.27 1469.38 2150.02 1469.43 2134.09V2060.64C1535.34 2068.94 1601.43 2078.27 1659.22 2086.84C1661.36 2078.67 1663.31 2070.3 1665.07 2061.73C1672.87 2024.17 1676.45 1984.29 1676.07 1942.37L1469.43 1942.36Z" fill="#371B45"/>
</g>
<path d="M1438.22 1892.86C1438.22 1892.86 1597.09 1880.74 1663.97 1928.86C1735.03 1980.03 1663.43 2039.23 1663.43 2039.23C1663.43 2039.23 1535.43 2011.3 1428.03 2015.28L1438.22 1892.86Z" fill="white"/>
<g opacity="0.2">
<path d="M1663.45 2039.25C1663.45 2039.25 1535.45 2011.3 1428.03 2015.25L1431.89 1968.74C1506.57 1966.46 1590.27 1979.18 1633.69 1987C1656.78 1991.15 1680.18 1979.53 1689.77 1958.12C1689.87 1957.92 1689.96 1957.71 1690.05 1957.5C1711.08 1999.86 1663.45 2039.25 1663.45 2039.25Z" fill="#371B45"/>
</g>
<path d="M922.77 1892.86C922.77 1892.86 763.9 1880.74 697.03 1928.86C625.96 1980.03 697.56 2039.23 697.56 2039.23C697.56 2039.23 825.56 2011.3 932.97 2015.28L922.77 1892.86Z" fill="white"/>
<path d="M1668.3 2059.29L1659.48 2057.37C1658.22 2057.09 1532.48 2030.01 1428.72 2033.83L1407.78 2034.61L1421.03 1875.52L1436.81 1874.31C1443.57 1873.8 1603.27 1862.31 1674.81 1913.79C1699.96 1931.9 1713.12 1953.4 1713.94 1977.68C1715.35 2019.9 1676.89 2052.18 1675.26 2053.54L1668.3 2059.29ZM1449.9 1996.29C1536.44 1996.29 1627.97 2013.09 1657.66 2019.04C1666.08 2010.04 1677.4 1994.28 1676.82 1978.77C1676.37 1966.63 1668.39 1954.9 1653.12 1943.9C1608.12 1911.52 1506.56 1908.45 1455.39 1910.44L1448.24 1996.29H1449.9Z" fill="#371944"/>
<path d="M692.69 2059.3L685.69 2053.54C684.05 2052.18 645.6 2019.9 647.01 1977.68C647.82 1953.4 661.01 1931.9 686.14 1913.79C757.69 1862.27 917.38 1873.79 924.14 1874.31L939.92 1875.52L953.16 2034.61L932.23 2033.83C828.32 2030 702.73 2057.09 701.47 2057.37L692.69 2059.3ZM880.25 1909.99C825.92 1909.99 746.25 1916.28 707.88 1943.93C692.6 1954.93 684.63 1966.66 684.17 1978.8C683.6 1994.3 694.9 2010.01 703.34 2019.07C733.03 2013.12 824.56 1996.32 911.1 1996.32H912.76L905.61 1910.47C898.12 1910.18 889.56 1909.99 880.25 1909.99Z" fill="#371944"/>
<path d="M1448.49 1845.49V2071.71C1448.49 2113.71 1415.42 2148.04 1375.04 2148.04H973.86C933.43 2148.04 900.41 2113.7 900.41 2071.71V1845.49C900.41 1803.56 933.41 1769.21 973.86 1769.21H1375C1407.26 1769.21 1434.87 1791.14 1444.66 1821.36C1447.18 1829.15 1448.48 1837.3 1448.49 1845.49Z" fill="white"/>
<g opacity="0.2">
<path d="M1448.49 1845.49V2071.71C1448.49 2113.71 1415.42 2148.04 1375.04 2148.04H973.86C933.43 2148.04 900.41 2113.7 900.41 2071.71V1995.57C969.62 2035.35 1106.73 2095.09 1244.34 2045.8C1311.56 2021.7 1388.64 1939.11 1388.64 1939.11C1388.64 1939.11 1391.64 2025.77 1403.99 2024.4C1438.41 2020.6 1438.15 1845.27 1444.66 1821.4C1447.18 1829.18 1448.47 1837.31 1448.49 1845.49Z" fill="#371B45"/>
</g>
<path d="M1377.77 2166.59H971.14C947.469 2166.56 924.776 2157.15 908.039 2140.41C891.301 2123.67 881.886 2100.98 881.86 2077.31V1839.92C881.886 1816.25 891.301 1793.56 908.039 1776.82C924.776 1760.08 947.469 1750.67 971.14 1750.64H1377.77C1401.44 1750.67 1424.13 1760.08 1440.87 1776.82C1457.61 1793.56 1467.02 1816.25 1467.05 1839.92V2077.31C1467.02 2100.98 1457.61 2123.67 1440.87 2140.41C1424.13 2157.15 1401.44 2166.56 1377.77 2166.59ZM971.14 1787.78C957.316 1787.8 944.064 1793.29 934.289 1803.07C924.514 1812.84 919.016 1826.1 919 1839.92V2077.31C919.016 2091.13 924.514 2104.39 934.289 2114.16C944.064 2123.94 957.316 2129.43 971.14 2129.45H1377.77C1391.59 2129.43 1404.85 2123.94 1414.62 2114.16C1424.4 2104.39 1429.89 2091.13 1429.91 2077.31V1839.92C1429.89 1826.1 1424.4 1812.84 1414.62 1803.07C1404.85 1793.29 1391.59 1787.8 1377.77 1787.78H971.14Z" fill="#371944"/>
<path d="M1316.56 2024.4C1351.55 2024.4 1379.91 1994.95 1379.91 1958.61C1379.91 1922.28 1351.55 1892.82 1316.56 1892.82C1281.57 1892.82 1253.21 1922.28 1253.21 1958.61C1253.21 1994.95 1281.57 2024.4 1316.56 2024.4Z" fill="#22A7F0"/>
<path d="M1379.93 1958.64C1379.94 1963 1379.52 1967.36 1378.68 1971.64C1372.83 1941.52 1347.23 1918.85 1316.56 1918.85C1285.89 1918.85 1260.28 1941.52 1254.47 1971.64C1253.64 1967.36 1253.22 1963 1253.23 1958.64C1253.23 1922.3 1281.57 1892.82 1316.56 1892.82C1351.55 1892.82 1379.93 1922.3 1379.93 1958.64Z" fill="white"/>
<path d="M1379.91 1958.6C1379.91 1994.96 1351.53 2024.39 1316.57 2024.39C1281.61 2024.39 1253.22 1994.96 1253.22 1958.6C1253.22 1952.66 1253.99 1946.74 1255.52 1940.99C1262.97 1968.72 1287.52 1989.11 1316.57 1989.11C1345.62 1989.11 1370.17 1968.72 1377.57 1940.99C1379.11 1946.73 1379.9 1952.65 1379.91 1958.6Z" fill="#1C7AEA"/>
<path d="M1316.57 2038.33C1273.96 2038.33 1239.29 2002.57 1239.29 1958.62C1239.29 1914.67 1273.96 1878.9 1316.57 1878.9C1359.18 1878.9 1393.84 1914.66 1393.84 1958.62C1393.84 2002.58 1359.17 2038.33 1316.57 2038.33ZM1316.57 1906.76C1289.32 1906.76 1267.15 1930.02 1267.15 1958.62C1267.15 1987.22 1289.32 2010.47 1316.57 2010.47C1343.82 2010.47 1365.99 1987.21 1365.99 1958.62C1365.99 1930.03 1343.86 1906.76 1316.57 1906.76Z" fill="#371944"/>
<path d="M1116.07 2166.59C1111.15 2166.59 1106.42 2164.63 1102.94 2161.15C1099.46 2157.67 1097.5 2152.95 1097.5 2148.02V2032.23C1097.5 2009.39 1087.08 1987.61 1069.62 1973.96L1059.43 1965.96C1033.03 1945.33 1017.28 1912.61 1017.28 1878.44V1769.21C1017.28 1764.29 1019.24 1759.56 1022.72 1756.08C1026.2 1752.6 1030.93 1750.64 1035.85 1750.64C1040.78 1750.64 1045.5 1752.6 1048.98 1756.08C1052.46 1759.56 1054.42 1764.29 1054.42 1769.21V1878.47C1054.42 1901.3 1064.84 1923.09 1082.3 1936.74L1092.49 1944.74C1118.88 1965.37 1134.64 1998.09 1134.64 2032.26V2148.05C1134.63 2152.97 1132.68 2157.69 1129.19 2161.16C1125.71 2164.64 1120.99 2166.59 1116.07 2166.59Z" fill="#371944"/>
<g opacity="0.2">
<path d="M1623.06 1351.71C1595.5 1374.95 1566.17 1396.01 1535.35 1414.71C1525.16 1420.9 1514.8 1426.83 1504.25 1432.48C1401.9 1487.41 1287.48 1515.96 1171.32 1515.55C1055.17 1515.14 940.949 1485.79 838.99 1430.14C831.65 1426.14 824.37 1421.95 817.18 1417.71C796.91 1405.66 777.28 1392.56 758.37 1378.47C779.763 1359.38 799.705 1338.71 818.03 1316.66C832.35 1199.9 901.14 1032.81 1176.21 1022.23C1453.21 1011.54 1521.02 1187.42 1534.55 1311.37C1547.55 1316.81 1561.55 1322.85 1576.28 1329.54C1591.26 1336.28 1606.98 1343.72 1623.06 1351.71Z" fill="#371B45"/>
</g>
<path d="M1822.58 527.33C1822.58 527.33 1972.92 584.93 1988.29 612.85C2016.8 664.61 2010.41 968.27 1930.79 1047.17C1899.62 1078.06 1671.25 1106.24 1671.25 1106.24L1822.58 527.33Z" fill="white"/>
<g opacity="0.2">
<path d="M1671.25 1106.25C1671.25 1106.25 1899.62 1078.06 1930.78 1047.16C1961.94 1016.26 1981.78 951.29 1992.78 880.34C1990.25 882.6 1909.38 951.9 1749.04 809.9C1748.96 809.82 1748.84 809.73 1748.75 809.65L1671.25 1106.25Z" fill="#371B45"/>
</g>
<path d="M1168.88 842L1168.87 844.59L1167.23 843.32L1168.88 842Z" fill="#D8D8D8"/>
<path d="M1167.23 843.32L1165.57 844.58L1165.58 841.99L1167.23 843.32Z" fill="#D8D8D8"/>
<path d="M669.13 1102.75C669.13 1102.75 440.96 1072.97 410.02 1041.86C379.08 1010.75 359.66 945.63 349.16 874.61C332.72 763.75 337.99 638.61 355.59 607.21C371.15 579.4 521.89 522.82 521.89 522.82L593.71 805.67L669.13 1102.75Z" fill="white"/>
<g opacity="0.2">
<path d="M669.13 1102.75C669.13 1102.75 440.96 1072.97 410.02 1041.86C379.08 1010.75 359.66 945.63 349.16 874.61C351.68 876.89 432.06 946.75 593.38 805.87C593.481 805.792 593.578 805.709 593.67 805.62L669.13 1102.75Z" fill="#371B45"/>
</g>
<path d="M1649.08 1125.63L1811.25 505.28L1828.49 511.88C1875.4 529.88 1986.27 574.88 2002.78 604.88C2034.37 662.26 2029.25 972.88 1942.44 1058.93C1908.94 1092.11 1712.34 1117.84 1673.27 1122.66L1649.08 1125.63ZM1833.86 549.51L1693.44 1086.69C1796.22 1072.83 1903.39 1051.03 1919.14 1035.42C1992.68 962.56 1999.33 667.21 1973.8 620.82C1966.13 608.1 1898.41 575.3 1833.86 549.51Z" fill="#371B45"/>
<path d="M691.18 1122.3L667.01 1119.15C628.01 1114.05 431.55 1086.96 398.3 1053.54C312.08 966.9 309.13 656.23 341.12 599.08C357.84 569.21 469.02 524.95 516.05 507.31L533.34 500.82L691.18 1122.3ZM510.41 544.86C445.69 570.19 377.74 602.53 369.96 615.23C344.12 661.39 348.71 956.78 421.74 1030.16C437.38 1045.88 544.4 1068.42 647.08 1083.01L510.41 544.86Z" fill="#371B45"/>
<path d="M1171.49 1413.35C1556.97 1413.35 1869.47 1100.85 1869.47 715.37C1869.47 329.886 1556.97 17.3901 1171.49 17.3901C786.006 17.3901 473.51 329.886 473.51 715.37C473.51 1100.85 786.006 1413.35 1171.49 1413.35Z" fill="white"/>
<g opacity="0.2">
<path d="M1869.48 717.79C1868.14 1103.28 1554.56 1414.67 1169.08 1413.33C783.6 1411.99 472.15 1098.41 473.5 712.93C473.613 672.919 477.166 632.992 484.12 593.59C539.61 922.38 825.12 1173.34 1169.91 1174.59C1514.7 1175.84 1801.91 926.83 1859.69 598.44C1866.37 637.869 1869.65 677.799 1869.48 717.79Z" fill="#371B45"/>
</g>
<path d="M1171.53 1429.86H1169C775 1428.48 455.61 1106.86 457 712.86C457.67 522 532.62 342.86 668 208.35C802.86 74.4998 981.53 0.859863 1171.42 0.859863H1173.98C1567.98 2.22986 1887.38 323.86 1885.98 717.86C1884.64 1110.98 1564.33 1429.86 1171.53 1429.86ZM1171.42 33.8599C990.31 33.8599 819.91 104.09 691.33 231.78C562.17 360.04 490.69 530.91 490.06 712.93C488.75 1088.67 793.38 1395.43 1169.12 1396.74H1171.53C1546.18 1396.74 1851.62 1092.62 1852.93 717.68C1854.24 341.94 1549.61 35.1799 1173.87 33.8699L1171.42 33.8599Z" fill="#371B45"/>
<path d="M1171.53 1429.86H1169C775 1428.48 455.61 1106.86 457 712.86C457.67 522 532.62 342.86 668 208.35C802.86 74.4998 981.53 0.859863 1171.42 0.859863H1173.98C1567.98 2.22986 1887.38 323.86 1885.98 717.86C1884.64 1110.98 1564.33 1429.86 1171.53 1429.86ZM1171.42 33.8599C990.31 33.8599 819.91 104.09 691.33 231.78C562.17 360.04 490.69 530.91 490.06 712.93C488.75 1088.67 793.38 1395.43 1169.12 1396.74H1171.53C1546.18 1396.74 1851.62 1092.62 1852.93 717.68C1854.24 341.94 1549.61 35.1799 1173.87 33.8699L1171.42 33.8599Z" fill="#371B45"/>
<path d="M1171.53 1429.86H1169C775 1428.48 455.61 1106.86 457 712.86C457.67 522 532.62 342.86 668 208.35C802.86 74.4998 981.53 0.859863 1171.42 0.859863H1173.98C1567.98 2.22986 1887.38 323.86 1885.98 717.86C1884.64 1110.98 1564.33 1429.86 1171.53 1429.86ZM1171.42 33.8599C990.31 33.8599 819.91 104.09 691.33 231.78C562.17 360.04 490.69 530.91 490.06 712.93C488.75 1088.67 793.38 1395.43 1169.12 1396.74H1171.53C1546.18 1396.74 1851.62 1092.62 1852.93 717.68C1854.24 341.94 1549.61 35.1799 1173.87 33.8699L1171.42 33.8599Z" fill="#371B45"/>
<path d="M1171.52 1429.86H1168.99C843.44 1428.73 559.99 1208.13 479.37 893.27C479.24 892.89 479.12 892.49 479.02 892.09C464.137 833.524 456.745 773.307 457.02 712.88C457.096 686.144 458.696 659.434 461.81 632.88C503.2 272.2 808.08 0.879883 1171.46 0.879883H1174.01C1538.64 2.14988 1842.95 276.08 1881.86 638.07C1884.72 664.572 1886.11 691.213 1886.02 717.87C1885.85 778.276 1878.05 838.419 1862.8 896.87C1862.69 897.29 1862.57 897.7 1862.43 898.1C1779.7 1211.59 1495.98 1429.86 1171.52 1429.86ZM511.18 884.15C587.78 1184.91 858.3 1395.7 1169.1 1396.78H1171.52C1481.3 1396.78 1752.11 1188.18 1830.66 888.72C1830.77 888.27 1830.91 887.82 1831.05 887.39C1851.76 807.209 1857.82 723.945 1848.93 641.61C1811.86 296.4 1521.61 35.1599 1173.86 33.9499H1171.43C824.85 33.9499 534.12 292.67 494.63 636.71C491.668 662.036 490.146 687.511 490.07 713.01C489.813 770.272 496.774 827.339 510.79 882.86C510.94 883.25 511.07 883.71 511.18 884.17V884.15Z" fill="#371B45"/>
<path d="M1845.79 551.22C1842.55 551.218 1839.38 550.263 1836.67 548.475C1833.96 546.687 1831.84 544.143 1830.57 541.16C1721.18 284.73 1463.29 118.38 1173.57 117.36H1170.92C882.44 117.36 624.72 281.52 513.75 536.2C512.08 540.037 509.017 543.098 505.18 544.767C501.343 546.436 497.015 546.588 493.07 545.193C489.125 543.798 485.855 540.96 483.92 537.25C481.984 533.54 481.527 529.234 482.64 525.2C567.64 216.2 850.7 0.830078 1171.47 0.830078H1173.97C1495.97 1.95008 1778.82 219.72 1861.75 530.39C1862.4 532.842 1862.48 535.411 1861.99 537.899C1861.49 540.386 1860.42 542.726 1858.88 544.738C1857.33 546.749 1855.34 548.378 1853.07 549.499C1850.79 550.619 1848.29 551.201 1845.75 551.2L1845.79 551.22ZM1170.93 84.2801H1173.69C1392.35 85.0401 1593.74 176.03 1731.96 327.61C1607.72 148.53 1401.02 34.7101 1173.86 33.9201H1171.47C945.35 33.9201 738.93 146.07 613.86 323.59C752.58 173.69 953.44 84.2801 1170.93 84.2801Z" fill="#371B45"/>
<path d="M1869.42 717.86C1869.26 776.883 1861.64 835.649 1846.74 892.76C1846.73 892.76 1846.72 892.762 1846.71 892.765C1846.71 892.769 1846.7 892.774 1846.69 892.781C1846.69 892.788 1846.68 892.795 1846.68 892.804C1846.68 892.812 1846.68 892.821 1846.68 892.83C1724.78 1126.33 1466.93 1326.72 1169.33 1325.68C871.73 1324.64 615.33 1122.47 495.09 888.12C495.09 888.101 495.083 888.084 495.07 888.07C495.057 888.057 495.039 888.05 495.02 888.05C480.466 830.843 473.235 772.019 473.5 712.99C473.573 686.879 475.132 660.793 478.17 634.86C573.24 374.65 848.78 187.1 1173.3 188.23C1497.82 189.36 1772.17 378.93 1865.36 639.86C1868.16 665.764 1869.52 691.805 1869.42 717.86Z" fill="#371B45"/>
<g opacity="0.35">
<path d="M1869.45 717.86C1869.29 776.886 1861.67 835.656 1846.77 892.77C1846.76 892.77 1846.75 892.771 1846.74 892.775C1846.74 892.779 1846.73 892.784 1846.72 892.791C1846.72 892.797 1846.71 892.805 1846.71 892.814C1846.71 892.822 1846.71 892.831 1846.71 892.84C1724.81 1126.34 1466.96 1326.71 1169.36 1325.68C871.76 1324.65 615.36 1122.48 495.12 888.12C495.12 888.06 495.05 888.06 495.05 888.06C486.469 854.323 480.428 819.99 476.98 785.35C632.85 961.71 859.98 1090.41 1113.28 1091.29C1436.01 1092.42 1717.8 885.82 1864.12 636.51C1864.57 637.66 1865.01 638.74 1865.39 639.89C1868.19 665.784 1869.55 691.814 1869.45 717.86Z" fill="#111A28"/>
</g>
<g opacity="0.5">
<path d="M1740.48 674.827C1752.08 603.043 1719.32 538.036 1667.3 529.629C1615.29 521.223 1563.72 572.601 1552.12 644.386C1540.52 716.17 1573.28 781.177 1625.29 789.584C1677.3 797.99 1728.87 746.612 1740.48 674.827Z" fill="white"/>
</g>
<g opacity="0.5">
<path d="M1584.05 947.196C1593.92 915.413 1579.81 882.781 1552.54 874.313C1525.26 865.844 1495.15 884.744 1485.28 916.528C1475.41 948.312 1489.52 980.942 1516.8 989.411C1544.07 997.88 1574.18 978.98 1584.05 947.196Z" fill="white"/>
</g>
<g opacity="0.5">
<path d="M647.32 938.63C647.32 938.63 536.38 604.94 714.93 468.23C893.48 331.52 1153.58 327.7 1147.78 344.48C1147.78 344.48 861 419.02 752.15 648.55C668.21 825.55 647.32 938.63 647.32 938.63Z" fill="white"/>
</g>
</svg>
