<svg width="4000" height="4000" viewBox="0 0 4000 4000" fill="none" xmlns="http://www.w3.org/2000/svg">
<g clip-path="url(#clip0_1_436)">
<path d="M2622.31 2569.22C2622.31 2569.22 2659.89 2528.55 2705.92 2469.99C2714.88 2458.49 2724.2 2446.36 2733.63 2433.72C2735.17 2431.77 2736.63 2429.74 2738.1 2427.72C2742.58 2421.66 2747.11 2415.47 2751.61 2409.19C2816.24 2318.93 2879.25 2209.85 2871.17 2136.31C2857.95 2016.13 2539.64 1712.79 2361.75 1650.2C2314.87 1633.67 2249.47 1660.24 2185.08 1700.8C2184.65 1701.05 2184.21 1701.37 2183.78 1701.63C2136.58 1731.47 2090.01 1768.76 2051.85 1801.96C2048.46 1804.89 2045.13 1807.81 2041.92 1810.67C2035.42 1816.42 2029.28 1821.98 2023.42 1827.31C2018.89 1831.47 2014.51 1835.47 2010.38 1839.34C1980.83 1866.86 1962.43 1886.06 1962.43 1886.06L2026.5 1952.41L2059.18 1986.24L2119.73 2048.99L2138.06 2067.96L2622.31 2569.22Z" fill="white"/>
<g opacity="0.35">
<path d="M2026.51 1952.41L2059.16 1986.23L2506.32 2449.11L2622.32 2569.2C2622.32 2569.2 2623.11 2568.34 2624.58 2566.72C2624.99 2566.25 2625.5 2565.7 2626.03 2565.12C2626.44 2564.65 2626.91 2564.13 2627.38 2563.61C2627.76 2563.22 2628.11 2562.81 2628.48 2562.42C2628.61 2562.26 2628.79 2562.09 2628.92 2561.93C2629.58 2561.18 2630.33 2560.36 2631.09 2559.47C2631.28 2559.31 2631.43 2559.12 2631.62 2558.9C2632.25 2558.18 2632.91 2557.44 2633.64 2556.64C2634.61 2555.56 2635.59 2554.43 2636.63 2553.24C2637.35 2552.39 2638.17 2551.51 2638.96 2550.6C2639.78 2549.66 2640.59 2548.72 2641.44 2547.75C2642.51 2546.54 2643.62 2545.24 2644.78 2543.95C2647.08 2541.27 2649.54 2538.45 2652.1 2535.44C2654.4 2532.82 2656.77 2530.03 2659.23 2527.1C2662.07 2523.73 2665.07 2520.22 2668.14 2516.54C2679.49 2502.96 2692.32 2487.26 2705.89 2469.98C2708.53 2466.62 2711.2 2463.18 2713.91 2459.71C2715.78 2457.29 2717.69 2454.79 2719.61 2452.29C2724.23 2446.27 2728.95 2440.04 2733.64 2433.73C2803.97 2339.45 2879.97 2216.7 2871.13 2136.35C2860.3 2037.39 2642.55 1814.21 2466.63 1703.53C2603.33 1817.93 2729 1962.99 2737.15 2037.58C2741.2 2074.46 2725.14 2122.36 2699.64 2172.69C2688.77 2194.14 2658.62 2194.95 2646.02 2174.48C2645.92 2174.32 2645.82 2174.16 2645.72 2173.99C2622.49 2136.56 2591.64 2098.37 2549.5 2059.86C2459.2 1977.34 2317.57 1871.42 2122.9 1873.53C2118.32 1873.55 2076.62 1909.07 2026.51 1952.41Z" fill="#371A45"/>
</g>
<path d="M2622.6 2594.31L1938.48 1886.09L1949.98 1874.12C1952.77 1871.21 2019.4 1802.12 2103.15 1737.43C2219.15 1647.82 2308.08 1612.99 2367.47 1633.91C2553.18 1699.3 2874.43 2008.05 2888.3 2134.46C2905.01 2286.74 2646.01 2568.98 2634.97 2580.91L2622.6 2594.31ZM1986.43 1886.14L2621.85 2543.94C2673.05 2486.03 2867.15 2257.63 2854.04 2138.22C2848.46 2087.31 2774.78 1987.58 2666.33 1884.14C2555.14 1778.08 2436.24 1694.65 2356.03 1666.41C2263.54 1633.84 2068.13 1804.04 1986.43 1886.14Z" fill="#371A45"/>
<path d="M2626.87 1920.96L2526.43 2044.71C2517.46 2055.76 2517.05 2071.45 2525.49 2082.91C2556.4 2124.85 2632.82 2218.03 2695.76 2208.87C2748 2201.27 2791.35 2149.76 2794.16 2098.24C2797.29 2040.61 2715.01 1956.99 2672.32 1917.66C2659.05 1905.43 2638.24 1906.95 2626.87 1920.96Z" fill="white"/>
<g opacity="0.35">
<path d="M2525.51 2082.91C2556.39 2124.86 2632.83 2218.03 2695.76 2208.85C2748.02 2201.26 2791.36 2149.76 2794.17 2098.22C2796.07 2062.77 2765.68 2017.5 2732.08 1978.75C2745.7 2001.46 2753.04 2023.85 2753.32 2043.34C2754.91 2155.02 2647.13 2135.5 2647.13 2135.5C2647.13 2135.5 2656.21 2158.34 2651.45 2165.22C2631.54 2193.99 2557.73 2114.46 2520.5 2072.42C2521.45 2076.1 2523.1 2079.67 2525.51 2082.91Z" fill="#371A45"/>
</g>
<path d="M2687.07 2226.71C2620.4 2226.71 2549.27 2144.21 2511.62 2093.13C2498.54 2075.38 2499.13 2051.01 2513.05 2033.85L2613.5 1910.1C2621.9 1899.74 2634.36 1893.25 2647.65 1892.29C2660.96 1891.35 2674.19 1895.96 2684 1904.99C2743.92 1960.2 2814.65 2038.7 2811.36 2099.18C2808.03 2160.47 2757.28 2217.32 2698.24 2225.92C2694.54 2226.45 2690.81 2226.71 2687.07 2226.71ZM2640.25 1931.82L2539.81 2055.57C2535.78 2060.54 2535.59 2067.57 2539.36 2072.68C2598.34 2152.72 2655.84 2197.21 2693.28 2191.82C2736.19 2185.57 2774.5 2142.29 2776.95 2097.3C2778.9 2061.63 2735.42 1999.22 2660.65 1930.33C2657.77 1927.68 2654.04 1926.34 2650.14 1926.66C2646.24 1926.94 2642.72 1928.77 2640.25 1931.82L2640.25 1931.82Z" fill="#371A45"/>
<path d="M2770.85 2179.73C2767.43 2180.78 2765.44 2181.09 2762.88 2181.53C2760.48 2181.9 2758.1 2182.21 2755.76 2182.36C2751.05 2182.74 2746.42 2182.78 2741.84 2182.52C2732.69 2181.96 2723.69 2180.65 2715.12 2178.11C2697.87 2173.41 2682.03 2165.42 2667.96 2155.56C2661.03 2150.49 2654.21 2145.34 2648.01 2139.55C2641.52 2134.01 2635.89 2128.08 2630.01 2122.12C2624.23 2116.12 2618.65 2109.91 2613.37 2103.4C2608.12 2096.72 2603.14 2090.39 2598.92 2082.14C2597.89 2080.13 2598.68 2077.68 2600.69 2076.65C2602.57 2075.69 2604.84 2076.32 2605.97 2078.06L2606.26 2078.51C2610.12 2084.5 2615.81 2090.74 2621.28 2096.36C2626.89 2102.05 2632.82 2107.47 2638.94 2112.69C2645.07 2117.81 2651.3 2123.18 2657.75 2127.65C2664.02 2132.46 2670.72 2136.54 2677.41 2140.51C2690.94 2148.16 2705.45 2153.64 2720.13 2156.11C2727.44 2157.53 2734.82 2157.81 2742 2157.56C2745.59 2157.41 2749.14 2157.02 2752.55 2156.39C2754.28 2156.12 2755.92 2155.72 2757.53 2155.31C2758.98 2154.94 2760.97 2154.29 2761.43 2154.05C2768.16 2150.49 2776.5 2153.07 2780.06 2159.8C2783.61 2166.53 2781.04 2174.87 2774.31 2178.43C2773.54 2178.83 2772.75 2179.16 2771.95 2179.4L2770.85 2179.73Z" fill="#371A45"/>
<path d="M2180.8 1811.09C2192.3 1794.96 2204.09 1779.33 2216.17 1763.76C2228.25 1748.21 2240.6 1732.85 2253.43 1717.81C2266.26 1702.76 2279.36 1687.88 2293.39 1673.59C2307.44 1659.31 2321.95 1645.32 2338.72 1632.6C2346.3 1626.85 2357.12 1628.34 2362.87 1635.92C2368.63 1643.51 2367.14 1654.33 2359.55 1660.08C2359.23 1660.33 2358.91 1660.56 2358.57 1660.77L2358.43 1660.86C2343.27 1670.72 2328.59 1682.87 2314.33 1695.47C2300.03 1708.09 2286.27 1721.63 2272.73 1735.4C2259.18 1749.17 2245.97 1763.38 2233 1777.82C2220.06 1792.25 2207.23 1806.97 2194.94 1821.83L2194.88 1821.91C2191.76 1825.69 2186.16 1826.22 2182.37 1823.1C2178.76 1820.11 2178.13 1814.85 2180.8 1811.09Z" fill="#371A45"/>
<path d="M1931.36 1907.39L1835.22 2047.58L1674.28 2282.2L1665.28 2295.32C1629.64 2303.38 1594.54 2309.54 1559.92 2313.89C1262.41 2351.34 1002.23 2253.74 757.42 2044.84C663.584 2020.19 593.152 1990.1 557.914 1943.29C525.025 1899.58 522.897 1841.25 561.194 1759.21C613.586 1646.98 730.16 1664.31 808.571 1687.45C850.813 1699.9 950.056 1730.35 1008.43 1761.16C1034.23 1774.77 1061.8 1787.13 1090.74 1798.3C1311.17 1883.85 1610.23 1903.84 1785.84 1907.65C1874.27 1909.56 1931.36 1907.39 1931.36 1907.39Z" fill="white"/>
<g opacity="0.25">
<path d="M865.9 1816.44C866.417 1817.69 866.718 1820.32 866.762 1824.02C865.513 1817.95 865.383 1815.15 865.9 1816.44Z" fill="#371A45"/>
</g>
<g opacity="0.25">
<path d="M1835.22 2047.59L1674.28 2282.2L1665.28 2295.32C1629.64 2303.38 1594.54 2309.54 1559.92 2313.89C1262.41 2351.34 1002.23 2253.74 757.42 2044.84C663.584 2020.19 593.152 1990.1 557.914 1943.29C614.517 1970.15 688.406 1992.4 749.575 1967.67C818.367 1939.88 836.097 1839.79 835.831 1809.56C845.715 1858.1 924.569 2109.82 1287.72 2166.33C1509.04 2200.77 1752.78 2089.74 1835.22 2047.59Z" fill="#371A45"/>
</g>
<path d="M1438.13 2338.77C1195.63 2338.78 968.535 2246.71 749.228 2060.51C622.448 2026.75 556.467 1987.17 528.94 1928.48C506.765 1881.19 512.211 1823.44 545.593 1751.91C589.157 1658.57 679.287 1631.33 813.457 1670.92C876.477 1689.53 962.856 1717.63 1016.49 1745.93C1329.52 1911.06 1924.71 1890.41 1930.69 1890.19C1940.28 1889.84 1948.2 1897.25 1948.56 1906.75C1948.92 1916.26 1941.51 1924.26 1932 1924.62C1907.23 1925.57 1321.64 1945.86 1000.41 1776.41C960.52 1755.36 890.664 1729.64 803.704 1703.97C686.773 1669.47 612.557 1689.91 576.819 1766.49C548.025 1828.18 542.569 1876.38 560.139 1913.85C582.834 1962.24 645.027 1997.5 761.797 2028.19L765.606 2029.2L768.602 2031.75C1048.18 2270.3 1340.24 2351.01 1661.49 2278.5C1670.78 2276.41 1680 2282.24 1682.1 2291.52C1684.19 2300.8 1678.37 2310.02 1669.08 2312.12C1590.47 2329.86 1513.54 2338.77 1438.13 2338.77Z" fill="#371A45"/>
<path d="M1125.98 2284.41C1119.05 2284.41 1112.51 2280.2 1109.89 2273.34C1106.49 2264.46 1110.93 2254.52 1119.79 2251.1C1120.52 2250.82 1173.45 2229.7 1220.08 2171.65C1282.73 2093.67 1305.16 1989.2 1286.74 1861.15C1285.39 1851.73 1291.93 1843 1301.34 1841.65C1310.77 1840.29 1319.5 1846.83 1320.85 1856.25C1345.72 2029.12 1293.69 2135.78 1245.66 2194.83C1193.1 2259.43 1134.6 2282.33 1132.14 2283.27C1130.11 2284.04 1128.03 2284.41 1125.98 2284.41Z" fill="#371A45"/>
<path d="M1066.05 1788.31C1047.08 1783.49 1022.97 1761.64 1016.89 1752.94C1004.37 1735.01 986.843 1713.39 966.376 1685.24C931.302 1636.99 849.263 1575.82 811.177 1606.01C750.397 1654.19 852.019 1718.77 853.296 1734.23C854.573 1749.69 822.542 1826.24 868.415 1899.5L1066.05 1788.31Z" fill="white"/>
<path d="M1061.8 1805.01C1052.29 1802.41 1045.02 1798.45 1038.23 1794.27C1031.53 1790.01 1025.45 1785.39 1019.64 1780.39C1016.74 1777.88 1013.91 1775.3 1011.12 1772.45C1008.35 1769.63 1005.47 1766.65 1002.51 1762.43C998.738 1757.06 994.751 1751.67 990.682 1746.25L965.764 1713.38L953.352 1696.62C949.504 1691.33 945.71 1686.58 941.455 1681.72C924.519 1662.56 904.342 1645.23 882.766 1632.04C872.001 1625.52 860.685 1620.06 849.803 1617.21C838.876 1614.28 829.025 1614.64 823.465 1618.44C822.236 1619.14 820.101 1621.12 818.156 1622.81C816.513 1624.61 814.739 1626.35 813.603 1628.16C811.085 1631.77 809.791 1635.18 809.44 1638.86C808.571 1646.13 812.438 1656.2 819.103 1665.89C825.686 1675.67 834.386 1685.11 843.699 1694.63C848.374 1699.45 853.22 1704.18 858.377 1709.7C860.958 1712.56 863.539 1715.26 866.807 1720.14C867.5 1721.08 868.642 1723.2 869.485 1725.05C869.837 1725.65 870.586 1727.91 870.949 1729.58C871.154 1730.48 871.318 1731.39 871.441 1732.29C871.556 1733.18 871.487 1733.26 871.514 1733.78C871.527 1735.46 871.486 1737.16 871.387 1738.83C871.345 1739.8 871.259 1740.25 871.183 1740.78L870.947 1742.38C869.678 1750.84 868.021 1756.95 866.75 1763.57C865.385 1770.09 864.285 1776.44 863.294 1782.79C861.326 1795.48 860.556 1808.09 860.665 1820.63C860.763 1845.79 866.233 1870.18 875.715 1894.93L875.944 1895.53C877.657 1900 875.423 1905.01 870.954 1906.72C867.36 1908.1 863.41 1906.91 861.113 1904.07C858.825 1901.24 856.505 1898.38 854.3 1895.42L850.963 1890.96C849.968 1889.41 849.062 1887.8 848.105 1886.21C846.193 1883.03 844.343 1879.78 842.553 1876.5C841.046 1873.1 839.448 1869.71 838.017 1866.24C832.538 1852.34 828.65 1837.55 827.36 1822.63C825.908 1807.72 826.448 1792.76 828.03 1778.2C828.778 1770.92 829.971 1763.7 831.245 1756.73C832.474 1749.85 833.991 1742.56 834.774 1737.43L834.922 1736.48C834.973 1736.16 835.042 1735.76 834.989 1735.86C834.95 1735.83 834.967 1735.8 835.039 1735.76C835.055 1735.86 835.087 1735.5 835.098 1735.98C835.114 1736.46 835.173 1736.95 835.27 1737.43C835.39 1738.29 836.052 1739.67 835.935 1739.52C835.986 1739.85 836.443 1740.39 836.095 1739.95C835.562 1739.1 833.534 1736.66 831.462 1734.47C827.282 1729.9 822.374 1724.94 817.529 1719.85C807.796 1709.58 797.939 1698.55 789.391 1685.34C785.145 1678.71 781.237 1671.46 778.327 1663.16C775.436 1654.91 773.661 1645.29 774.749 1635.28C775.75 1625.27 779.884 1615.57 785.385 1608.06C788.079 1604.14 791.193 1601 794.298 1597.85C797.546 1595.03 800.419 1592.28 805.034 1589.32C813.702 1583.67 823.847 1581.29 832.955 1580.88C842.163 1580.47 850.649 1581.83 858.519 1583.88C874.261 1588.07 887.866 1594.91 900.599 1602.56C925.912 1618.1 947.872 1637.05 967.376 1659.02C972.179 1664.49 976.961 1670.49 981.198 1676.33L993.321 1692.7L1018.23 1725.56C1022.41 1731.13 1026.6 1736.79 1030.73 1742.67C1031.69 1744.11 1033.55 1746.15 1035.6 1748.22C1037.62 1750.27 1039.87 1752.34 1042.17 1754.32C1046.77 1758.28 1051.67 1761.99 1056.58 1765.1C1061.44 1768.17 1066.52 1770.59 1070.29 1771.62L1070.85 1771.77C1080.04 1774.26 1085.46 1783.72 1082.97 1792.9C1080.48 1802.09 1071.02 1807.51 1061.84 1805.02L1061.8 1805.01Z" fill="#371A45"/>
<path d="M2851.24 3092.83C2801.36 3146.33 2710.39 3172.39 2632.9 3146.33C2521.86 3108.99 2475.85 2938.11 2475.85 2938.11C2098.66 2929.93 2009.67 2751.43 2009.67 2751.43L2128.04 2583.19L2256.22 2400.9C2311.79 2469.73 2379.07 2513.28 2447.12 2544.55C2569.24 2600.63 2693.98 2617 2758.46 2668.13C2800.93 2701.77 2831.77 2750.4 2852.83 2806.7C2874.58 2864.93 2885.83 2931.4 2888.58 2998.07C2890.09 3034.25 2875.53 3066.77 2851.24 3092.83Z" fill="white"/>
<g opacity="0.25">
<path d="M2852.83 2806.7C2811.39 2778.1 2756.69 2774.31 2687.04 2778.7C2538.4 2788.13 2442.26 2710.6 2442.26 2710.6L2447.12 2544.55C2569.24 2600.63 2693.98 2617 2758.46 2668.13C2800.93 2701.77 2831.77 2750.4 2852.83 2806.7Z" fill="#371A45"/>
</g>
<g opacity="0.25">
<path d="M2851.24 3092.83C2801.36 3146.33 2710.39 3172.39 2632.9 3146.33C2521.86 3108.99 2475.85 2938.11 2475.85 2938.11C2098.66 2929.93 2009.67 2751.43 2009.67 2751.43L2128.04 2583.19C2189.24 2639.83 2335.91 2774.48 2335.91 2774.48C2335.91 2774.48 2330.52 2837.32 2395.91 2872.04C2482.31 2917.96 2655.13 2860.8 2658.96 2859.55C2654.57 2862.61 2490.71 2977.48 2626.22 3073.75C2713.1 3135.43 2821.04 3103.64 2851.24 3092.83Z" fill="#371A45"/>
</g>
<path d="M2696.9 3173.74C2673.12 3173.74 2649.54 3170.12 2627.41 3162.68C2525.9 3128.54 2476.3 2996.61 2462.96 2955C2090.23 2943.09 1998.02 2766.72 1994.23 2759.14C1989.99 2750.62 1993.45 2740.27 2001.96 2736.03C2010.46 2731.8 2020.77 2735.22 2025.04 2743.69C2026.28 2746.08 2116.61 2913.09 2476.24 2920.88C2483.89 2921.05 2490.52 2926.25 2492.51 2933.63C2492.94 2935.24 2537.51 3096.08 2638.39 3130.02C2696.73 3149.63 2767.07 3137.83 2817.59 3099.92C2853.84 3072.72 2872.95 3036.81 2871.38 2998.79C2865.44 2854.79 2820.38 2739.18 2747.76 2681.62C2713.45 2654.43 2658.91 2637.16 2595.77 2617.16C2483.83 2581.7 2344.52 2537.58 2242.82 2411.75C2236.84 2404.35 2237.99 2393.51 2245.39 2387.52C2252.79 2381.54 2263.64 2382.69 2269.62 2390.09C2364.8 2507.86 2498.63 2550.25 2606.17 2584.31C2672.56 2605.34 2729.89 2623.5 2769.16 2654.62C2879.36 2741.95 2902.08 2906.85 2905.81 2997.38C2907.86 3047.06 2883.87 3093.27 2838.28 3127.48C2798.04 3157.67 2747.02 3173.74 2696.9 3173.74Z" fill="#371A45"/>
<path d="M2281.42 2932.52C2271.9 2932.52 2264.19 2924.81 2264.19 2915.29C2264.19 2905.78 2271.9 2898.06 2281.42 2898.06C2357.15 2898.06 2470.61 2871.11 2541.13 2795.17C2587.2 2745.56 2607.75 2682.54 2602.22 2607.87C2601.51 2598.37 2608.63 2590.11 2618.12 2589.41C2627.63 2588.75 2635.88 2595.82 2636.58 2605.32C2642.86 2689.93 2619.24 2761.69 2566.38 2818.61C2488.31 2902.69 2364.08 2932.52 2281.42 2932.52Z" fill="#371A45"/>
<path d="M2666 2864.57C2664.21 2867.06 2662.86 2868.59 2661.27 2870.42C2659.72 2872.16 2658.14 2873.78 2656.55 2875.44C2653.31 2878.61 2650 2881.67 2646.56 2884.52C2643.18 2887.47 2639.58 2890.04 2636.07 2892.8C2632.43 2895.29 2628.83 2897.92 2625.12 2900.31C2610.3 2909.97 2594.59 2917.93 2578.5 2924.81C2562.46 2931.92 2545.89 2937.39 2529.24 2942.6L2504.03 2949.43L2478.58 2955.12C2469.28 2957.21 2460.05 2951.35 2457.97 2942.05C2455.89 2932.75 2461.74 2923.53 2471.04 2921.45C2471.51 2921.34 2471.98 2921.26 2472.45 2921.19L2473.16 2921.09L2497.61 2917.77L2521.85 2913.37C2537.82 2909.81 2553.83 2906.02 2569.24 2900.69C2584.73 2895.57 2599.89 2889.44 2614.13 2881.78C2617.7 2879.9 2621.13 2877.8 2624.65 2875.82C2627.98 2873.62 2631.47 2871.56 2634.67 2869.21C2637.96 2866.93 2641.07 2864.5 2644.11 2862.01C2645.55 2860.72 2647.05 2859.45 2648.43 2858.14C2649.74 2856.9 2651.27 2855.33 2652.05 2854.46L2652.62 2853.82C2655.79 2850.29 2661.22 2849.99 2664.75 2853.16C2668.05 2856.11 2668.51 2861.06 2666 2864.57Z" fill="#371A45"/>
<path d="M2512.47 2686.82C2136.13 2955.13 1745.41 2674.33 1570.41 2314.11C1562.57 2298 1555.16 2281.72 1548.27 2265.31C1520.27 2199.32 1499.68 2131.48 1487.75 2064.46L1789.95 1919.34L2003.55 1816.79L2073.42 1783.23C2127.6 1843.15 2180.41 1889.19 2231.07 1927.66C2309.42 1987.18 2382.64 2028.71 2448.07 2075.91C2515.7 2124.72 2574.97 2179.55 2622.86 2266.56C2708.71 2422.53 2656.29 2584.31 2512.47 2686.82Z" fill="white"/>
<g opacity="0.25">
<path d="M2512.47 2686.82C2265.66 2862.78 2012.69 2802.56 1818.43 2638.71C2003.38 2766.72 2230.81 2799.94 2453.2 2641.38C2597.02 2538.87 2649.44 2377.08 2563.59 2221.11C2527.84 2156.16 2485.76 2109.17 2438.59 2069.15C2441.78 2071.39 2444.93 2073.63 2448.07 2075.91C2515.7 2124.72 2574.97 2179.55 2622.86 2266.56C2708.71 2422.53 2656.29 2584.31 2512.47 2686.82Z" fill="#371A45"/>
</g>
<path d="M2512.5 2704.06C2507.12 2704.06 2501.82 2701.54 2498.45 2696.83C2492.93 2689.08 2494.73 2678.32 2502.48 2672.8C2646.16 2570.37 2686.5 2417.9 2607.76 2274.87C2542.31 2155.98 2453.91 2098.37 2351.55 2031.65C2263.93 1974.54 2164.62 1909.82 2060.62 1794.81C2054.24 1787.75 2054.79 1776.86 2061.85 1770.48C2068.9 1764.1 2079.79 1764.64 2086.18 1771.7C2187.18 1883.39 2284.5 1946.82 2370.36 2002.78C2476.6 2072.02 2568.34 2131.82 2637.95 2258.25C2724.48 2415.44 2679.16 2589.17 2522.48 2700.86C2519.45 2703.02 2515.96 2704.06 2512.5 2704.06Z" fill="#371A45"/>
<path d="M1559.3 2269.24C1592.61 2328.6 1626.39 2386.77 1665.1 2441.79C1684.48 2469.25 1705.17 2495.74 1727.14 2521.07C1749.04 2546.46 1772.17 2570.74 1796.64 2593.53C1821.19 2616.19 1846.55 2638.01 1873.46 2657.67C1900.36 2677.35 1928.43 2695.32 1957.57 2711.28C1972.24 2719.03 1987.04 2726.62 2002.27 2733.16C2009.79 2736.62 2017.59 2739.64 2025.33 2742.75C2032.93 2745.88 2040.52 2748.46 2048.45 2751.09C2064.23 2756.14 2080.11 2761.17 2096.08 2766.06C2112.07 2770.96 2128.11 2775.79 2144.32 2781.36L2144.52 2781.43C2149.09 2783 2151.53 2787.97 2149.96 2792.54C2148.76 2796.03 2145.56 2798.27 2142.08 2798.44C2071.15 2801.7 2002.85 2774.92 1940.42 2743.78C1909.13 2727.76 1879.35 2709.01 1850.96 2688.49C1822.54 2668 1795.63 2645.53 1770.36 2621.42C1719.55 2573.44 1675.08 2519.3 1636.21 2461.7C1597.32 2404.15 1564.75 2342.06 1543.49 2276.08C1542.02 2271.53 1544.52 2266.65 1549.07 2265.19C1553.06 2263.9 1557.3 2265.67 1559.27 2269.19L1559.3 2269.24Z" fill="#371A45"/>
<path d="M3269.91 2827.2C3229.85 2901.2 3133.84 2938.59 3042.61 2918.08C2924.76 2891.55 2859.42 2721.2 2859.42 2721.2C2643.24 2770.39 2501.61 2694.45 2501.61 2694.45C2501.61 2694.45 2449.88 2747.95 2327.25 2776.59L2361.84 2695.87L2577.08 2193.59C2732.66 2356.62 2971.84 2305.24 3104.59 2380.27C3170.88 2417.7 3282.96 2619.59 3289.03 2740.06C3290.71 2772.76 3283.52 2802.09 3269.91 2827.2Z" fill="white"/>
<g opacity="0.25">
<path d="M3269.91 2827.2C3229.85 2901.2 3133.84 2938.59 3042.61 2918.08C2924.76 2891.55 2859.42 2721.2 2859.42 2721.2C2643.24 2770.39 2501.61 2694.45 2501.61 2694.45C2501.61 2694.45 2449.88 2747.95 2327.25 2776.59L2361.84 2695.87C2482.4 2634.49 2522.46 2542.4 2532.5 2542.4C2542.49 2542.4 2563.68 2615.11 2675.24 2646.81C2950.05 2724.86 3042.78 2545.98 3061 2548.17C3079.27 2550.37 2893.79 2751.18 3001.22 2834.31C3072.72 2889.61 3192.25 2865.88 3269.91 2827.2Z" fill="#371A45"/>
</g>
<path d="M2589.54 2181.72C2611.76 2204.79 2637.07 2224.72 2664.68 2241.08C2692.49 2257.11 2722.25 2270.05 2753.41 2279.66C2815.65 2299.47 2881.79 2307.68 2948.55 2318.15C2965.26 2320.77 2982.07 2323.6 2998.9 2326.98C3015.73 2330.32 3032.61 2334.18 3049.4 2339.22C3066.18 2344.21 3082.9 2350.21 3099.14 2357.98L3111.16 2364.25C3113.09 2365.17 3115.34 2366.68 3117.45 2367.99C3119.66 2369.31 3121.7 2370.71 3123.57 2372.17C3131.5 2377.86 3138.13 2384.14 3144.6 2390.5C3169.75 2416.27 3189.43 2444.69 3207.7 2473.9C3225.83 2503.17 3241.82 2533.54 3256.12 2564.76C3270.34 2596.01 3282.73 2628.18 3292.28 2661.6C3297.02 2678.32 3300.93 2695.41 3303.56 2712.97C3304.2 2717.37 3304.69 2721.82 3305.24 2726.25L3306.26 2739.75C3306.32 2744.35 3306.52 2748.94 3306.42 2753.55C3306.15 2758.16 3306.13 2762.78 3305.59 2767.38C3303.82 2785.8 3299.23 2804.1 3291.88 2821.23C3284.63 2838.41 3274.31 2854.19 3262.19 2868.14C3237.89 2896.24 3205.67 2915.99 3171.49 2927.89C3137.12 2939.56 3100.35 2943.31 3064.45 2939.21C3059.97 2938.65 3055.5 2937.95 3051.03 2937.29C3046.58 2936.39 3042.19 2935.62 3037.71 2934.58C3028.59 2932.33 3019.6 2929.56 3011.05 2925.91C2993.87 2918.75 2978.12 2909.07 2963.84 2898.02C2935.25 2875.78 2912.44 2848.38 2892.74 2819.62C2882.98 2805.14 2874.01 2790.23 2865.8 2774.94C2861.67 2767.3 2857.78 2759.54 2854.03 2751.69C2850.27 2743.75 2846.8 2736.1 2843.35 2727.41L2843.34 2727.36L2863.24 2737.99L2840.29 2742.52L2828.81 2744.77C2825 2745.57 2821.16 2746.27 2817.28 2746.72L2794.08 2749.9C2790.21 2750.39 2786.35 2751.02 2782.47 2751.4L2770.79 2752.33L2747.42 2754.16L2723.97 2754.73L2712.25 2754.99L2700.51 2754.63C2692.69 2754.34 2684.87 2754.28 2677.06 2753.77C2645.8 2751.78 2614.67 2747.36 2584.02 2740.41L2572.53 2737.76L2561.14 2734.64C2553.51 2732.69 2546.01 2730.19 2538.48 2727.81C2530.98 2725.28 2523.5 2722.69 2516.09 2719.68C2512.38 2718.2 2508.67 2716.74 2504.96 2715.05C2501.17 2713.4 2497.75 2711.82 2493.46 2709.63L2493.45 2709.62L2513.98 2706.41C2511.71 2708.56 2510.18 2709.78 2508.35 2711.29C2506.57 2712.78 2504.82 2714.04 2503.05 2715.41C2499.51 2718.02 2495.98 2720.6 2492.37 2722.95C2485.21 2727.79 2477.86 2732.11 2470.45 2736.26C2455.6 2744.48 2440.28 2751.47 2424.77 2757.71C2409.22 2763.88 2393.41 2769.11 2377.46 2773.63C2369.51 2775.99 2361.42 2777.76 2353.43 2779.84L2329.21 2784.96C2324.56 2785.94 2319.99 2782.96 2319 2778.31C2318.08 2773.92 2320.67 2769.6 2324.88 2768.3L2325.29 2768.18L2348.21 2761.17C2355.73 2758.48 2363.33 2756.11 2370.72 2753.17C2385.57 2747.51 2400.13 2741.21 2414.21 2734.13C2428.24 2726.98 2441.88 2719.21 2454.73 2710.53C2461.12 2706.16 2467.42 2701.67 2473.3 2696.87C2476.31 2694.52 2479.13 2692.04 2481.91 2689.58C2483.24 2688.33 2484.69 2687.09 2485.91 2685.85C2487.12 2684.68 2488.6 2683.18 2489.2 2682.46C2493.97 2676.77 2501.92 2675.31 2508.27 2678.51L2509.73 2679.25L2509.74 2679.25C2512.24 2680.52 2515.71 2682.17 2518.9 2683.53C2522.11 2685 2525.48 2686.33 2528.84 2687.67C2535.51 2690.38 2542.43 2692.77 2549.34 2695.11C2556.31 2697.31 2563.24 2699.63 2570.37 2701.44L2580.98 2704.35L2591.73 2706.83C2620.41 2713.33 2649.71 2717.5 2679.19 2719.38C2686.55 2719.86 2693.95 2719.9 2701.33 2720.19L2712.41 2720.53L2723.5 2720.27L2745.67 2719.75L2767.8 2718L2778.87 2717.13C2782.56 2716.78 2786.21 2716.16 2789.89 2715.69L2811.91 2712.69C2815.59 2712.27 2819.23 2711.6 2822.86 2710.83L2833.77 2708.68L2855.6 2704.39L2855.98 2704.32C2864.35 2702.67 2872.51 2707.34 2875.51 2715.02L2875.52 2715.05C2878.27 2721.98 2881.71 2729.67 2885.16 2736.9C2888.65 2744.22 2892.3 2751.49 2896.16 2758.64C2903.85 2772.96 2912.24 2786.89 2921.27 2800.29C2939.46 2826.9 2960.36 2851.71 2984.97 2870.8C2997.25 2880.3 3010.42 2888.31 3024.28 2894.09C3031.19 2897.06 3038.32 2899.21 3045.5 2901.02C3049.2 2901.87 3053.1 2902.55 3056.88 2903.34L3068.42 2904.98C3099.3 2908.51 3131 2905.25 3160.32 2895.29C3189.46 2885.14 3216.46 2868.43 3236.22 2845.5C3256.29 2822.84 3268.47 2794.17 3271.29 2764.11C3272.81 2749.13 3271.84 2733.79 3269.48 2718.01C3267.13 2702.33 3263.56 2686.57 3259.12 2670.96C3250.2 2639.73 3238.39 2608.97 3224.77 2579.05C3211.07 2549.15 3195.68 2519.92 3178.4 2492.03C3161.12 2464.29 3142.09 2437.19 3120.19 2414.82C3114.69 2409.41 3109.04 2404.11 3103.28 2400.02C3101.85 2398.88 3100.42 2397.92 3099.01 2397.09C3097.54 2396.21 3096.34 2395.29 3094.47 2394.4L3084.14 2389.01C3070.04 2382.26 3055.04 2376.85 3039.61 2372.26C3024.2 2367.63 3008.28 2363.97 2992.14 2360.77C2976.02 2357.53 2959.66 2354.77 2943.17 2352.18C2877.29 2341.8 2809.22 2333.52 2743.03 2312.52C2709.95 2302.31 2677.64 2288.36 2647.23 2270.79C2616.99 2252.9 2589.02 2230.88 2564.61 2205.51C2558.02 2198.65 2558.23 2187.74 2565.09 2181.15C2571.94 2174.55 2582.85 2174.76 2589.45 2181.62L2589.54 2181.72Z" fill="#371A45"/>
<path d="M3069.24 2550.71C3066.15 2563.04 3061.99 2574.06 3057.22 2585.29C3052.51 2596.46 3046.81 2607.18 3040.65 2617.68C3028.29 2638.65 3013.08 2658.23 2995.17 2675.42C2986.14 2683.92 2976.59 2691.97 2966.34 2699.18C2956.01 2706.23 2945.23 2712.74 2933.85 2718.08C2911.15 2728.91 2886.54 2735.61 2861.81 2738.25C2852.35 2739.26 2843.85 2732.41 2842.84 2722.94C2841.89 2713.98 2847.98 2705.89 2856.67 2704.2L2857.04 2704.13C2878.38 2700.03 2899.08 2694.03 2918.68 2685.28C2928.47 2680.91 2937.92 2675.78 2947.16 2670.21C2956.28 2664.45 2965.14 2658.17 2973.55 2651.24C2990.33 2637.31 3005.48 2621.08 3018.88 2603.25C3025.6 2594.34 3031.6 2584.88 3037.43 2575.27C3043.18 2565.73 3048.46 2555.39 3052.77 2545.64L3053 2545.13C3054.93 2540.77 3060.02 2538.81 3064.37 2540.73C3068.26 2542.46 3070.25 2546.71 3069.24 2550.71Z" fill="#371A45"/>
<path d="M3276.76 1573.85C3267.04 1644.84 3194.39 1693.88 3084.76 1739.57C2883.44 1966.15 2641.05 2052.81 2454.87 2071.35C2437.04 2073.19 2419.71 2074.35 2403 2074.93C2393.78 2075.29 2384.78 2075.43 2375.95 2075.43L2208.54 1955.98L1992.66 1801.91L1939.55 1764.02C1939.55 1764.02 2102.44 1747.72 2298.11 1701.9C2471.98 1661.23 2671.73 1597.23 2806 1500.67C2857.95 1463.32 2949.14 1420.91 2988.06 1403.31C3060.26 1370.61 3169.85 1338.45 3235.06 1439.22C3269.32 1492.16 3281.95 1536.1 3276.76 1573.85Z" fill="white"/>
<g opacity="0.25">
<path d="M3276.76 1573.85C3267.04 1644.84 3194.39 1693.88 3084.76 1739.57C2864.13 1987.87 2594.2 2068.13 2403 2074.93C2516.76 2038.97 2786.02 1941.65 2876.32 1801.55C2952.05 1684.16 2971 1625.09 2960.65 1483.61C2957.25 1436.72 2998.34 1691.75 3155.43 1638.93C3212.24 1619.83 3252.08 1600.46 3276.76 1573.85Z" fill="#371A45"/>
</g>
<path d="M1937.84 1746.89C1974.61 1742.95 2011.88 1737.8 2048.8 1732.21C2085.79 1726.58 2122.69 1720.32 2159.46 1713.42C2232.99 1699.59 2306.08 1683.45 2378.21 1664C2414.31 1654.41 2450.08 1643.74 2485.55 1632.28C2521.07 1620.92 2556.09 1608.21 2590.64 1594.49C2625.24 1580.88 2659.08 1565.6 2692.06 1548.87C2708.66 1540.68 2724.65 1531.49 2740.73 1522.47L2764.22 1508C2772.11 1503.26 2779.45 1497.79 2787.1 1492.72L2798.63 1484.83C2802.67 1482.04 2806.7 1479.17 2810.79 1476.58C2818.93 1471.22 2827.16 1466.16 2835.44 1461.29C2852 1451.52 2868.77 1442.39 2885.66 1433.6C2919.52 1416.05 2953.51 1399.86 2988.43 1384.27C3023.95 1368.93 3062.01 1356.25 3103.03 1354.22C3123.43 1353.32 3144.6 1355.3 3164.8 1361.99C3185.06 1368.41 3203.84 1379.73 3219.4 1393.89C3227.04 1401.09 3234.3 1408.7 3240.42 1417C3243.71 1421.02 3246.36 1425.38 3249.34 1429.57L3257.11 1442.06C3267.18 1458.9 3276.29 1476.62 3283.25 1495.66C3290.2 1514.64 3295.03 1535.15 3295.02 1556.55C3295.26 1567.2 3293.82 1578 3291.5 1588.52C3289.09 1599.07 3285.14 1609.17 3280.49 1618.8C3270.67 1637.79 3257.28 1654.21 3242.42 1667.94C3227.54 1681.73 3211.4 1693.38 3194.81 1703.8C3161.55 1724.54 3126.6 1740.66 3091.45 1755.46L3091.41 1755.48L3097.66 1751.02L3062.99 1788.82L3054.27 1798.23C3051.27 1801.27 3048.13 1804.18 3045.06 1807.16L3026.54 1824.94L3008 1842.71L2988.46 1859.4C2975.32 1870.39 2962.56 1881.85 2948.57 1891.78C2894.25 1933.53 2835.9 1970.43 2773.77 1999.6C2711.83 2029.11 2646.76 2052.04 2579.95 2067.47L2554.77 2072.66C2546.36 2074.34 2538 2076.2 2529.5 2077.33C2512.51 2079.66 2495.62 2082.56 2478.49 2083.59L2452.89 2085.56L2427.2 2086.03L2414.38 2086.12C2410.1 2086 2405.82 2085.82 2401.55 2085.59C2393 2085.17 2384.47 2084.66 2375.96 2084.03C2371.2 2083.69 2367.63 2079.55 2367.98 2074.79C2368.29 2070.62 2371.52 2067.35 2375.52 2066.86L2375.96 2066.81C2384.28 2065.77 2392.57 2064.85 2400.84 2064.01L2413.23 2062.8L2425.58 2061.06L2450.24 2057.87L2474.76 2053.84C2507.44 2048.68 2539.71 2041.48 2571.81 2033.8C2635.93 2017.84 2698.06 1994.48 2757.45 1965.75L2801.39 1942.96L2844.18 1918.07C2858.12 1909.26 2871.78 1899.98 2885.61 1890.97C2892.62 1886.61 2899.1 1881.47 2905.75 1876.58L2925.62 1861.8C2939.16 1852.32 2951.38 1841.15 2964.2 1830.74L2983.33 1814.98L3001.51 1798.11L3019.69 1781.24C3022.71 1778.41 3025.8 1775.66 3028.75 1772.77L3037.33 1763.81L3071.9 1728.13L3074.95 1724.98L3078.15 1723.67L3078.2 1723.65C3112.33 1709.31 3145.9 1693.72 3176.5 1674.61C3191.75 1665.04 3206.19 1654.54 3218.91 1642.75C3231.66 1631 3242.22 1617.68 3249.73 1603.27C3264.72 1574.33 3263.21 1539.95 3250.87 1507.43C3244.91 1491.14 3236.81 1475.23 3227.58 1459.81L3220.45 1448.35C3217.95 1444.9 3215.75 1441.17 3213.05 1437.93C3208.02 1431.06 3202.18 1425.06 3196.18 1419.35C3183.92 1408.26 3169.77 1399.71 3154.14 1394.75C3138.58 1389.58 3121.68 1387.9 3104.58 1388.64C3070.19 1390.27 3035.47 1401.42 3002.19 1415.87C2968.43 1430.94 2934.47 1447.11 2901.56 1464.18C2885.09 1472.75 2868.81 1481.62 2852.98 1490.96C2845.05 1495.61 2837.26 1500.42 2829.7 1505.4C2825.84 1507.83 2822.21 1510.43 2818.51 1512.98L2806.76 1521.02C2798.74 1526.35 2790.96 1532.11 2782.73 1537.07L2758.19 1552.18C2741.48 1561.58 2724.84 1571.11 2707.7 1579.58C2673.61 1596.88 2638.81 1612.57 2603.42 1626.5C2568.06 1640.53 2532.32 1653.49 2496.2 1665.05C2460.1 1676.72 2423.76 1687.55 2387.16 1697.28C2314.03 1716.99 2240.11 1733.31 2165.8 1747.29C2128.65 1754.27 2091.37 1760.59 2053.99 1766.28C2016.54 1771.94 1979.29 1777.1 1941.27 1781.18C1931.81 1782.19 1923.32 1775.34 1922.3 1765.88C1921.29 1756.42 1928.14 1747.93 1937.6 1746.91L1937.84 1746.89Z" fill="#371A45"/>
<g opacity="0.25">
<path d="M2297.31 1720.6C2286.85 1785.9 2267.34 1850.73 2238.13 1913.06C2235.85 1917.97 2233.48 1922.83 2231.07 1927.66C2224.78 1940.41 2218.14 1952.86 2211.17 1964.96C2100.86 2157.63 1913.57 2271.81 1717.85 2282.54C1706.22 2283.14 1694.59 2283.4 1682.92 2283.36C1682.44 2283.36 1682.01 2283.36 1681.54 2283.31C1649.96 2282.97 1618.26 2279.91 1586.78 2273.97C1573.9 2271.56 1561.06 2268.67 1548.27 2265.31C1520.27 2199.32 1499.68 2131.48 1487.75 2064.46L1789.95 1919.34L2003.55 1816.79L1952.47 1780.35C1952.47 1780.35 2109.13 1764.67 2297.31 1720.6Z" fill="#371A45"/>
</g>
<path d="M940.406 1784.2C987.614 1889.24 1061.67 1983.01 1159.12 2054.68C1179 2069.28 1199.77 2082.97 1221.5 2095.62C1232.05 2101.81 1242.92 2107.73 1253.97 2113.5C1287.38 2130.68 1321.54 2144.92 1356.22 2156.3C1386.08 2166.18 1416.34 2173.89 1446.7 2179.58C1483.36 2186.47 1520.25 2190.31 1557.01 2191.32C1570.41 2191.64 1583.79 2191.61 1597.13 2191.23C1841.36 2183.76 2074.84 2050.03 2196.47 1821.22C2375.73 1484.2 2244.32 1068.64 1903.08 893.011C1837.34 859.232 1768.56 836.689 1699.13 824.973C1691.03 823.527 1682.85 822.309 1674.66 821.262C1652.78 818.314 1630.87 816.406 1609 815.541C1558.41 813.555 1508 817.075 1458.7 825.764C1409.42 834.397 1361.14 848.249 1314.89 866.989C1300.18 872.939 1285.67 879.366 1271.36 886.327C1249.91 896.77 1228.97 908.233 1208.59 920.893C1106.95 983.63 1020.27 1073 960.585 1185.29C857.461 1379.15 857.167 1598.97 940.406 1784.2Z" fill="white"/>
<path d="M1575.41 2193.32C1569.25 2193.32 1563.09 2193.24 1556.97 2193.1C1519.7 2192.08 1482.5 2188.12 1446.37 2181.32C1415.46 2175.53 1384.94 2167.68 1355.66 2157.98C1320.67 2146.5 1286.18 2132.07 1253.16 2115.08C1241.05 2108.77 1230.41 2102.91 1220.6 2097.16C1199.26 2084.73 1178.21 2070.92 1158.06 2056.12C1062.88 1986.12 987.053 1892.34 938.782 1784.93C851.712 1591.17 859.085 1372.3 959.012 1184.45C1016.77 1075.78 1102.75 984.123 1207.65 919.374C1227.52 907.043 1248.69 895.382 1270.58 884.723C1284.62 877.894 1299.31 871.371 1314.23 865.336C1360.6 846.547 1409.1 832.641 1458.4 824.008C1508.16 815.236 1558.84 811.791 1609.07 813.759C1630.9 814.623 1653.05 816.552 1674.9 819.494C1683.64 820.612 1691.68 821.83 1699.45 823.22C1770.28 835.171 1839.07 858.12 1903.9 891.426C2070.03 976.929 2191.97 1121.29 2247.25 1297.92C2302.09 1473.15 2284.62 1659.29 2198.05 1822.05C2080.52 2043.14 1850.29 2185.27 1597.19 2193C1589.97 2193.21 1582.69 2193.32 1575.41 2193.32ZM942.029 1783.47C990.049 1890.32 1065.48 1983.61 1160.17 2053.25C1180.22 2067.97 1201.15 2081.71 1222.4 2094.09C1232.16 2099.81 1242.75 2105.64 1254.8 2111.92C1287.65 2128.82 1321.96 2143.18 1356.77 2154.61C1385.91 2164.24 1416.27 2172.06 1447.02 2177.83C1482.97 2184.59 1519.99 2188.53 1557.06 2189.53C1570.36 2189.85 1583.83 2189.83 1597.08 2189.44C1848.9 2181.75 2077.98 2040.34 2194.9 1820.38C2281.02 1658.47 2298.4 1473.29 2243.85 1298.99C2188.85 1123.27 2067.54 979.656 1902.27 894.595C1837.77 861.455 1769.32 838.621 1698.84 826.729C1691.11 825.35 1683.13 824.139 1674.43 823.025C1652.68 820.098 1630.64 818.176 1608.93 817.319C1558.97 815.349 1508.53 818.789 1459.01 827.514C1409.96 836.105 1361.7 849.941 1315.56 868.637C1300.72 874.643 1286.1 881.132 1272.13 887.926C1250.35 898.532 1229.29 910.131 1209.53 922.404C1105.16 986.823 1019.62 1078.01 962.155 1186.12C862.749 1373 855.415 1590.72 942.029 1783.47Z" fill="#371A45"/>
<g opacity="0.25">
<path d="M2196.47 1821.2C2074.86 2050.04 1841.34 2183.79 1597.12 2191.21C1583.78 2191.61 1570.41 2191.64 1557.02 2191.3C1520.25 2190.32 1483.37 2186.45 1446.71 2179.59C1416.35 2173.87 1386.07 2166.18 1356.23 2156.31C1321.54 2144.94 1287.39 2130.7 1253.96 2113.51C1242.93 2107.71 1232.07 2101.82 1221.49 2095.65C1199.76 2082.98 1179.01 2069.26 1159.12 2054.67C1061.67 1983 987.594 1889.26 940.395 1784.18C914.451 1726.48 896.611 1665.38 887.478 1602.77C934.846 1702 1006.54 1790.45 1099.5 1858.83C1119.37 1873.47 1140.14 1887.14 1161.87 1899.81C1172.41 1905.99 1183.28 1911.88 1194.34 1917.67C1227.78 1934.86 1261.92 1949.09 1296.58 1960.48C1326.46 1970.33 1356.69 1978.04 1387.05 1983.76C1423.71 1990.62 1460.64 1994.48 1497.36 1995.48C1510.79 1995.8 1524.16 1995.76 1537.5 1995.37C1781.72 1987.94 2015.2 1854.21 2136.86 1625.36C2207.86 1491.88 2230.07 1346.08 2209.87 1207.78C2299.84 1395.98 2302.29 1622.28 2196.47 1821.2Z" fill="#371A45"/>
</g>
<path d="M1575.4 2205.25C1569.15 2205.25 1562.9 2205.17 1556.68 2205.02C1518.75 2203.99 1480.91 2199.96 1444.16 2193.05C1412.73 2187.16 1381.69 2179.17 1351.91 2169.31C1316.35 2157.65 1281.28 2142.97 1247.7 2125.69C1235.36 2119.26 1224.54 2113.31 1214.56 2107.46C1192.88 2094.83 1171.49 2080.79 1151 2065.73C1054.15 1994.51 977.009 1899.11 927.898 1789.82H927.896C839.305 1592.67 846.805 1369.98 948.477 1178.85C1007.23 1068.32 1094.68 975.08 1201.39 909.221C1221.56 896.689 1243.1 884.831 1265.35 873.996C1279.65 867.045 1294.58 860.41 1309.75 854.274C1356.89 835.172 1406.21 821.032 1456.34 812.253C1506.93 803.337 1558.47 799.839 1609.54 801.835C1631.74 802.714 1654.27 804.674 1676.49 807.668C1685.35 808.801 1693.58 810.048 1701.54 811.474C1773.47 823.608 1843.43 846.945 1909.35 880.812C2078.35 967.792 2202.39 1114.66 2258.63 1294.35C2314.44 1472.65 2296.66 1662.05 2208.58 1827.66C2089.05 2052.5 1854.92 2197.07 1597.55 2204.93C1590.21 2205.14 1582.8 2205.25 1575.4 2205.25ZM952.913 1778.58C1000.09 1883.56 1074.21 1975.22 1167.24 2043.63C1186.95 2058.11 1207.52 2071.62 1228.4 2083.78C1238.02 2089.42 1248.45 2095.15 1260.31 2101.33C1292.55 2117.92 1326.27 2132.04 1360.49 2143.26C1389.15 2152.75 1418.99 2160.43 1449.22 2166.1C1484.56 2172.74 1520.94 2176.61 1557.38 2177.61C1570.44 2177.92 1583.7 2177.89 1596.74 2177.52C1844.27 2169.96 2069.44 2030.96 2184.36 1814.78C2268.98 1655.7 2286.06 1473.79 2232.46 1302.55C2178.42 1129.91 2059.22 988.796 1896.81 905.205C1833.41 872.632 1766.13 850.186 1696.85 838.499C1689.21 837.132 1681.42 835.953 1672.92 834.866C1651.46 831.975 1629.8 830.088 1608.46 829.246C1559.35 827.322 1509.77 830.686 1461.09 839.27C1412.85 847.717 1365.4 861.321 1320.05 879.7C1305.44 885.606 1291.08 891.985 1277.36 898.66C1255.94 909.085 1235.24 920.486 1215.82 932.544C1113.23 995.869 1029.16 1085.49 972.693 1191.72C875.029 1375.33 867.822 1589.22 952.915 1778.58H952.913V1778.58Z" fill="#371A45"/>
<path d="M1575.4 2209.22C1569.12 2209.22 1562.83 2209.15 1556.58 2209C1518.43 2207.96 1480.38 2203.91 1443.43 2196.96C1411.83 2191.03 1380.61 2183 1350.66 2173.09C1314.91 2161.36 1279.65 2146.6 1245.88 2129.23C1233.46 2122.75 1222.59 2116.77 1212.55 2110.89C1190.76 2098.19 1169.24 2084.07 1148.64 2068.94C1051.25 1997.31 973.66 1901.36 924.268 1791.45H924.266C835.167 1593.18 842.711 1369.21 944.962 1176.98C1004.05 1065.83 1091.99 972.066 1199.29 905.838C1219.58 893.24 1241.23 881.317 1263.61 870.421C1277.98 863.429 1293 856.759 1308.26 850.587C1355.66 831.381 1405.25 817.164 1455.65 808.336C1506.51 799.369 1558.35 795.853 1609.69 797.862C1632.02 798.746 1654.67 800.718 1677.02 803.729C1685.92 804.867 1694.21 806.124 1702.24 807.56C1774.54 819.755 1844.89 843.222 1911.17 877.277C2081.12 964.748 2205.86 1112.45 2262.43 1293.17C2318.55 1472.49 2300.68 1662.97 2212.09 1829.53C2091.89 2055.63 1856.46 2201 1597.67 2208.91C1590.29 2209.12 1582.84 2209.22 1575.4 2209.22ZM956.543 1776.95C1003.44 1881.3 1077.11 1972.41 1169.6 2040.43C1189.19 2054.82 1209.65 2068.25 1230.41 2080.34C1239.97 2085.95 1250.34 2091.65 1262.15 2097.81C1294.18 2114.29 1327.71 2128.32 1361.73 2139.48C1390.23 2148.92 1419.9 2156.55 1449.96 2162.19C1485.09 2168.79 1521.26 2172.64 1557.49 2173.63C1570.47 2173.94 1583.66 2173.91 1596.63 2173.54C1842.73 2166.02 2066.6 2027.84 2180.86 1812.91C2264.96 1654.78 2281.94 1473.95 2228.67 1303.73C2174.95 1132.12 2056.45 991.839 1894.99 908.739C1831.96 876.354 1765.07 854.037 1696.19 842.416C1688.57 841.056 1680.85 839.884 1672.42 838.808C1651.05 835.93 1629.52 834.055 1608.3 833.217C1559.47 831.286 1510.18 834.65 1461.78 843.183C1413.81 851.584 1366.64 865.109 1321.54 883.383C1307.02 889.257 1292.74 895.597 1279.09 902.233C1257.81 912.599 1237.22 923.932 1217.92 935.92C1115.92 998.879 1032.35 1087.97 976.204 1193.59C879.123 1376.1 871.958 1588.72 956.543 1776.95Z" fill="#371A45"/>
<path d="M1033.14 1934.68C1417.96 2246.43 1988.7 2088.18 2057.32 1605.59C2104 1277.26 1814.11 979.743 1491.51 956.747C1256.71 940.01 1019.73 1024.95 892.595 1377.18C892.595 1377.18 860.71 1541.59 897.327 1655.44C933.944 1769.28 989.067 1873.85 989.067 1873.85L1033.14 1934.68Z" fill="#371A45"/>
<path d="M2057.3 1605.59C1988.7 2088.17 1417.94 2246.41 1033.14 1934.7L1024.21 1922.36C1466.32 2035.27 1934.74 1804.33 2013.32 1317.64C2054.09 1405.89 2071.69 1504.27 2057.3 1605.59Z" fill="#220F2D"/>
<path d="M1476.95 2183.75C1435.98 2183.75 1394.65 2180.46 1353.38 2173.75L1350.7 2173.11C1314.91 2161.36 1279.65 2146.6 1245.88 2129.23C1233.46 2122.75 1222.59 2116.77 1212.55 2110.89C1190.76 2098.19 1169.24 2084.07 1148.64 2068.94C1051.25 1997.31 973.661 1901.36 924.269 1791.45H924.267C835.168 1593.18 842.712 1369.21 944.965 1176.98C1004.05 1065.83 1091.99 972.066 1199.3 905.838L1200.84 904.883L1202.55 904.263C1289.1 872.835 1387.63 860.801 1495.34 868.477C1689.22 882.298 1880.61 984.239 2007.31 1141.17C2121.39 1282.49 2171.2 1451.8 2147.57 1617.93C2121.84 1798.78 2034.33 1948.74 1894.5 2051.61C1777.29 2137.83 1629.81 2183.75 1476.95 2183.75ZM1360.42 2139.05C1545.91 2168.81 1732.86 2126.59 1873.53 2023.11C2005.53 1926 2088.18 1784.17 2112.55 1612.95C2134.78 1456.64 2087.63 1296.99 1979.78 1163.4C1859.14 1013.96 1677.1 916.905 1492.83 903.77C1390.81 896.502 1297.78 907.64 1216.33 936.905C1115.07 999.783 1032.06 1088.51 976.204 1193.59C879.124 1376.1 871.958 1588.72 956.543 1776.95C1003.44 1881.3 1077.11 1972.42 1169.6 2040.43C1189.19 2054.82 1209.65 2068.25 1230.41 2080.34C1239.97 2085.95 1250.34 2091.66 1262.15 2097.81C1293.77 2114.07 1326.85 2127.96 1360.42 2139.05Z" fill="#371A45"/>
<path d="M1477.25 2113.44C1317.47 2113.44 1155.63 2056.68 1022.01 1948.43L1020.19 1946.96L973.418 1882.1C971.138 1877.78 917.153 1774.86 880.486 1660.86C842.91 1544.03 873.892 1380.71 875.227 1373.81L875.954 1371.17C987.111 1063.22 1194.59 917.826 1492.76 939.101C1665.79 951.435 1836.58 1042.39 1949.62 1182.42C2051.46 1308.56 2095.93 1459.73 2074.83 1608.08C2044.26 1823.09 1912.99 1991.1 1714.67 2069.01C1638.68 2098.86 1558.23 2113.44 1477.25 2113.44ZM1046.09 1922.4C1237.34 2076.32 1488.36 2119.91 1701.73 2036.08C1887.85 1962.95 2011.08 1805.14 2039.81 1603.1C2059.5 1464.57 2017.7 1323.07 1922.1 1204.65C1815.1 1072.12 1653.66 986.042 1490.25 974.394C1210.25 954.406 1014.97 1091.5 909.725 1381.83C906.908 1397.31 881.063 1547.09 914.168 1650.02C947.938 1755.01 998.267 1853.18 1004.15 1864.52L1046.09 1922.4Z" fill="#371A45"/>
<path d="M2368.31 1598.77C2365.73 1734.49 2282.31 1847.03 2181.94 1850.11C2081.57 1853.19 2002.3 1745.66 2004.87 1609.94C2004.87 1609.09 2004.91 1608.19 2004.96 1607.33C2008.52 1472.78 2091.58 1361.66 2191.24 1358.6C2268.78 1356.22 2333.72 1419.85 2358.08 1511.48C2365.24 1538.46 2368.89 1567.91 2368.31 1598.77Z" fill="white"/>
<g opacity="0.25">
<path d="M2368.31 1598.77C2365.73 1734.49 2282.31 1847.03 2181.94 1850.11C2081.57 1853.19 2002.3 1745.66 2004.87 1609.94C2004.87 1609.09 2004.91 1608.19 2004.96 1607.33C2015.73 1620.92 2032.64 1634.11 2056 1628.77C2096.91 1619.41 2171.7 1529.89 2171.7 1529.89C2171.7 1529.89 2252.47 1521.38 2358.08 1511.48C2365.24 1538.46 2368.89 1567.91 2368.31 1598.77Z" fill="#371A45"/>
</g>
<path d="M2177.65 1867.85C2135.29 1867.85 2095.56 1850.66 2062.45 1817.95C2013.03 1769.1 1985.6 1693.16 1987.19 1609.59C1989.94 1464.81 2081.24 1344.28 2190.72 1340.92C2234.85 1339.59 2276.39 1356.8 2310.75 1390.76C2360.17 1439.6 2387.6 1515.54 2386.01 1599.11V1599.11C2383.27 1743.89 2291.96 1864.42 2182.48 1867.78C2180.87 1867.83 2179.25 1867.85 2177.65 1867.85ZM2195.47 1376.23C2194.25 1376.23 2193.03 1376.25 2191.81 1376.29C2100.88 1379.07 2024.96 1484.04 2022.56 1610.26C2021.18 1683.1 2045.39 1751.33 2087.32 1792.78C2114.62 1819.76 2147.16 1833.52 2181.4 1832.41C2272.32 1829.62 2348.24 1724.66 2350.64 1598.44C2352.02 1525.6 2327.81 1457.36 2285.88 1415.92C2259.55 1389.9 2228.36 1376.23 2195.47 1376.23Z" fill="#371A45"/>
<path d="M2391.39 1642.69C2403.77 1535.49 2348.11 1441 2267.07 1431.64C2186.03 1422.28 2110.3 1501.6 2097.92 1608.81C2085.54 1716.01 2141.2 1810.5 2222.24 1819.86C2303.28 1829.22 2379.01 1749.9 2391.39 1642.69Z" fill="white"/>
<path d="M2234.98 1822.58C2216.15 1822.58 2197.62 1817.84 2180.05 1808.39C2105.36 1768.19 2073.43 1653.63 2108.86 1553C2128.61 1496.91 2165.73 1454.75 2210.7 1437.35C2244.12 1424.41 2278.21 1426.41 2309.27 1443.13C2383.96 1483.32 2415.9 1597.88 2380.47 1698.51C2360.71 1754.6 2323.6 1796.75 2278.63 1814.16C2264.1 1819.78 2249.45 1822.58 2234.98 1822.58ZM2254.33 1432.64C2240.31 1432.64 2226.11 1435.35 2212.04 1440.8C2168.07 1457.82 2131.74 1499.16 2112.35 1554.23C2077.49 1653.21 2108.65 1765.76 2181.81 1805.13C2211.89 1821.32 2244.91 1823.25 2277.29 1810.71C2321.25 1793.7 2357.59 1752.36 2376.98 1697.28C2411.83 1598.3 2380.67 1485.75 2307.52 1446.38C2290.51 1437.23 2272.57 1432.64 2254.33 1432.64Z" fill="#371A45"/>
<g opacity="0.25">
<path d="M2103.51 1706.34C2095.04 1670.32 2096.57 1631.85 2106.07 1595.84C2132.4 1676.35 2205.66 1710.15 2276.02 1671.3C2321.5 1646.22 2355.28 1596.53 2369.94 1540.81C2371.64 1545.87 2373.09 1551.2 2374.39 1556.66C2395.91 1648.39 2352.72 1756.27 2277.91 1797.6C2203.09 1838.93 2125.03 1798.02 2103.51 1706.34Z" fill="#371A45"/>
</g>
<path d="M2237.19 1838.79C2206.01 1838.79 2176.59 1826.01 2151.86 1801.66C2111.89 1762.31 2089 1696.48 2090.63 1625.56C2093.37 1505.92 2164.62 1405.92 2249.44 1402.66C2282.29 1401.41 2313.3 1414.2 2339.19 1439.7C2379.16 1479.05 2402.05 1544.88 2400.42 1615.8C2397.68 1735.44 2326.44 1835.43 2241.61 1838.7C2240.14 1838.76 2238.66 1838.79 2237.19 1838.79ZM2253.76 1437.96C2252.78 1437.96 2251.79 1437.97 2250.8 1438.01C2184.31 1440.57 2128.33 1525.07 2126 1626.37C2124.6 1687.71 2143.54 1743.81 2176.69 1776.44C2195.46 1794.92 2217.47 1804.29 2240.25 1803.35C2306.74 1800.79 2362.73 1716.29 2365.05 1614.99C2366.46 1553.65 2347.51 1497.54 2314.37 1464.92C2296.42 1447.24 2275.52 1437.96 2253.76 1437.96Z" fill="#371A45"/>
<g opacity="0.5">
<path d="M1647.98 1089.31C1647.98 1089.31 1330.9 1086.66 1143.61 1253.42C1143.42 1253.6 1143.22 1253.77 1143.02 1253.95C1103.64 1289.08 1074.57 1334.07 1058.54 1383.95C1037.33 1449.92 1032.51 1498.41 1029.94 1541.26C1022.17 1671.56 1043.25 1733.98 1043.25 1733.98C972.19 1661.01 934.493 1580.52 939.873 1471.93C940.432 1461.22 941.409 1450.2 942.775 1438.92C943.08 1436.32 943.442 1433.75 943.846 1431.17C943.79 1431.14 943.819 1431.08 943.892 1431.02C948.286 1408.36 955.2 1378.79 965.823 1346.07C997.802 1247.38 1063.24 1119.94 1194.21 1066.32C1439.1 966.048 1659.68 1076.3 1647.98 1089.31Z" fill="white"/>
</g>
<g opacity="0.5">
<path d="M1886.75 1527.88C1937.1 1516.93 1967.73 1461.16 1955.15 1403.32C1942.57 1345.48 1891.55 1307.46 1841.2 1318.41C1790.84 1329.36 1760.22 1385.13 1772.8 1442.97C1785.38 1500.82 1836.39 1538.83 1886.75 1527.88Z" fill="white"/>
</g>
<g opacity="0.5">
<path d="M1917.11 1655.89C1937.39 1649.46 1947.83 1625.35 1940.44 1602.05C1933.04 1578.74 1910.61 1565.06 1890.34 1571.49C1870.06 1577.92 1859.62 1602.03 1867.01 1625.34C1874.41 1648.65 1896.84 1662.33 1917.11 1655.89Z" fill="white"/>
</g>
<path d="M2754.33 1534.42C2771.89 1527.27 2792.13 1503.08 2796.8 1493.91C2806.43 1475.03 2820.38 1451.95 2836.27 1422.2C2863.51 1371.21 2934.12 1301.56 2974.7 1325.46C3039.46 1363.61 2950.52 1439.15 2951.35 1454.16C2952.19 1469.17 2993.13 1538.39 2958.86 1614.82L2754.33 1534.42Z" fill="white"/>
<path d="M2747.83 1518.46C2751.23 1517.02 2755.75 1514.04 2759.98 1510.47C2764.25 1506.85 2768.44 1502.66 2772.32 1498.26C2774.25 1496.06 2776.13 1493.79 2777.78 1491.56C2779.47 1489.31 2780.96 1487.12 2781.67 1485.66C2784.86 1479.45 2788.13 1473.46 2791.4 1467.55L2810.93 1432.69L2820.39 1415.36C2823.68 1409.19 2827.48 1402.77 2831.37 1396.86C2839.24 1384.94 2847.89 1373.78 2857.31 1363.24C2866.69 1352.68 2876.79 1342.69 2887.97 1333.53C2899.17 1324.42 2911.33 1315.96 2925.98 1309.74C2933.31 1306.68 2941.34 1304.19 2950.36 1303.28C2959.28 1302.4 2969.54 1303.29 2978.84 1307.6C2983.8 1309.86 2986.95 1312.14 2990.5 1314.43C2993.96 1317.08 2997.42 1319.72 3000.6 1323.18C3007.01 1329.76 3012.41 1338.72 3014.77 1348.41C3017.24 1358.09 3016.77 1367.77 3015.04 1376.18C3013.3 1384.67 3010.4 1392.2 3007.13 1399.16C3000.53 1413.04 2992.38 1424.88 2984.34 1436L2972.73 1451.75C2971.02 1454.1 2969.39 1456.7 2969 1457.53C2968.72 1457.99 2969.09 1457.38 2969.1 1457.03C2969.01 1457.18 2969.47 1455.72 2969.46 1454.86C2969.49 1454.37 2969.48 1453.88 2969.43 1453.39C2969.38 1452.92 2969.46 1453.27 2969.45 1453.17C2969.52 1453.17 2969.53 1453.18 2969.49 1453.21C2969.42 1453.1 2969.54 1453.48 2969.63 1453.78L2969.88 1454.66C2971.26 1459.48 2973.69 1466.28 2975.75 1472.74C2977.88 1479.28 2979.91 1486.07 2981.67 1492.95C2985.25 1506.7 2987.66 1521.03 2988.21 1535.55C2989.5 1564.58 2982.14 1594.45 2966.72 1618.35C2964.11 1622.39 2958.73 1623.55 2954.69 1620.94C2951.59 1618.95 2950.19 1615.32 2950.87 1611.92L2951 1611.3C2953.56 1598.69 2956.39 1586.7 2956.79 1574.41C2957.11 1571.38 2957.14 1568.33 2957.16 1565.29C2957.12 1562.24 2957.41 1559.25 2957.07 1556.2L2956.67 1547.13L2955.6 1538.09C2954 1526.06 2951.48 1514.1 2948.02 1502.16C2946.29 1496.18 2944.31 1490.26 2942.11 1484.2C2939.97 1478.02 2937.57 1472.39 2935.16 1464.43L2934.72 1462.92C2934.57 1462.42 2934.42 1462 2934.25 1461.07C2933.92 1459.45 2933.65 1457.82 2933.43 1456.19C2933.38 1455.67 2933.31 1455.61 2933.29 1454.72C2933.29 1453.83 2933.33 1452.92 2933.4 1452.02C2933.53 1450.34 2933.95 1448.02 2934.21 1447.4C2934.77 1445.49 2935.59 1443.26 2936.13 1442.26C2938.62 1437.08 2940.73 1434.13 2942.81 1431.02C2946.99 1424.98 2950.87 1419.69 2954.71 1414.45C2962.32 1404.05 2969.26 1393.76 2974.12 1383.55C2979.08 1373.4 2981.18 1363.45 2979.54 1357.06C2978.78 1353.79 2977.23 1350.89 2974.46 1347.87C2973.19 1346.34 2971.32 1344.94 2969.56 1343.47C2967.52 1342.13 2965.24 1340.53 2964.1 1340.05C2958.74 1337.23 2949.45 1337.93 2939.44 1342.15C2929.47 1346.23 2919.34 1352.9 2909.88 1360.52C2890.89 1375.88 2873.83 1395.18 2860.17 1415.79C2856.74 1421.01 2853.75 1426.06 2850.76 1431.64L2841.08 1449.39L2821.54 1484.26C2818.35 1490 2815.25 1495.71 2812.35 1501.35C2810.04 1505.84 2807.66 1509.1 2805.37 1512.2C2803.06 1515.31 2800.68 1518.18 2798.22 1520.99C2793.29 1526.57 2788.06 1531.84 2782.17 1536.84C2776.18 1541.78 2769.7 1546.58 2760.83 1550.38C2752.08 1554.12 2741.95 1550.07 2738.21 1541.33C2734.46 1532.58 2738.51 1522.46 2747.25 1518.71L2747.29 1518.69L2747.83 1518.46Z" fill="#371A45"/>
<path d="M1572.04 2505.65L1872.88 2748.84L2107.73 2714.72L2231.92 2696.67C2231.92 2696.67 2316.55 2637.81 2336.91 2623.21C2364.54 2603.47 2342.99 2569.41 2323.65 2552.34C2290.57 2523.11 2262.68 2492.73 2238.56 2463.02C2199.65 2415.05 2170.5 2368.69 2144.86 2331.23C2123.82 2300.48 2084.68 2287.65 2049.63 2300.37C1840.46 2376.37 1628.81 2427.43 1628.81 2427.43L1572.04 2505.65Z" fill="white"/>
<path d="M1872.87 2764.05C1869.42 2764.05 1866.04 2762.87 1863.32 2760.67L1562.49 2517.44C1556.2 2512.36 1555 2503.25 1559.75 2496.7L1616.52 2418.52C1618.64 2415.6 1621.73 2413.53 1625.24 2412.68C1627.35 2412.17 1838.53 2360.9 2044.45 2286.09C2085.92 2271.03 2132.37 2286.06 2157.41 2322.65C2163.05 2330.89 2168.87 2339.56 2174.92 2348.59C2213 2405.42 2260.39 2476.15 2333.73 2540.96C2349.71 2555.08 2366.37 2578.42 2365.19 2601.55C2364.49 2615.21 2357.76 2626.99 2345.74 2635.58C2325.55 2650.04 2244.06 2706.73 2240.6 2709.14C2238.66 2710.48 2236.44 2711.36 2234.11 2711.7L1875.06 2763.89C1874.33 2763.99 1873.6 2764.05 1872.87 2764.05ZM1592.8 2502.89L1877.26 2732.87L2226.19 2682.15C2241.32 2671.63 2310.18 2623.68 2328.06 2610.88C2333.79 2606.78 2334.7 2602.9 2334.85 2599.99C2335.41 2588.99 2324.59 2573.42 2313.61 2563.72C2237.33 2496.32 2188.73 2423.78 2149.68 2365.5C2143.69 2356.56 2137.93 2347.97 2132.34 2339.8C2115.13 2314.65 2083.25 2304.31 2054.82 2314.64C1865.81 2383.31 1672.48 2432.28 1637.83 2440.87L1592.8 2502.89Z" fill="#371A45"/>
<g opacity="0.3">
<path d="M2107.73 2714.72L2231.92 2696.67C2231.92 2696.67 2316.55 2637.81 2336.91 2623.21C2358.01 2608.15 2350.43 2584.68 2337.06 2566.86C2332.92 2561.34 2328.21 2556.39 2323.65 2552.35C2290.57 2523.11 2262.68 2492.73 2238.56 2463.02C2237.44 2479.59 2211.64 2498.86 2172.62 2494.18C2154.89 2492.05 2097.35 2428.62 2068.53 2426.1C1984.42 2418.7 2066.81 2632.95 2107.73 2714.72Z" fill="#371A45"/>
</g>
<path d="M2562.31 2108.2C2583.79 2124.61 2595.87 2151.95 2592.51 2176.36C2550.14 2483.83 2272.02 2609.03 2206.63 2551.51C2146.69 2498.78 2182.29 2443 2182.29 2443C2182.29 2443 2397.98 2384.4 2473.34 2120.78C2483.1 2086.63 2522.13 2077.51 2554.03 2101.88L2562.31 2108.2Z" fill="white"/>
<g opacity="0.3">
<path d="M2206.62 2551.51C2272.03 2609.03 2550.15 2483.84 2592.5 2176.35C2595.85 2151.95 2583.8 2124.63 2562.3 2108.19L2554.05 2101.88C2542.46 2093.01 2529.94 2088.58 2518.22 2088.19C2527.07 2102.51 2531.19 2119.25 2529.07 2134.82C2492.78 2398.29 2283.4 2527.92 2183.04 2523.45C2188.36 2532.7 2196 2542.16 2206.62 2551.51Z" fill="#371A45"/>
</g>
<path d="M2251.6 2582.39C2228.19 2582.39 2208.84 2576.4 2195.26 2564.44C2139.07 2515.02 2152.71 2457.33 2167.77 2433.73L2171.35 2428.12L2177.78 2426.37C2179.82 2425.81 2385.17 2366.55 2456.78 2116.04C2462.58 2095.76 2476.9 2080.48 2496.07 2074.13C2517.91 2066.9 2543.49 2072.14 2564.49 2088.19L2572.77 2094.51C2598.97 2114.52 2613.76 2148.36 2609.58 2178.71C2581.23 2384.46 2445.66 2522.28 2323.87 2567.59C2297.33 2577.47 2272.8 2582.39 2251.6 2582.39ZM2194.18 2457.37C2188.39 2470.33 2179.04 2504.28 2218.01 2538.57C2233.37 2552.07 2270.2 2550.79 2311.85 2535.29C2424.03 2493.55 2549.03 2365.66 2575.44 2174C2577.94 2155.84 2568.24 2134.41 2551.85 2121.9H2551.85L2543.58 2115.57C2531.64 2106.45 2517.92 2103.18 2506.91 2106.84C2498.48 2109.64 2492.61 2116.09 2489.91 2125.51C2419.77 2370.9 2234.18 2444.21 2194.18 2457.37Z" fill="#371A45"/>
<path d="M1828.8 2710.29C1848.88 2734.43 1871.02 2766.45 1871.02 2766.45C1871.02 2766.45 1923.83 2730.48 1927.79 2727.18C1940.92 2716.26 1928.23 2679.36 1899.45 2644.77C1870.67 2610.18 1836.7 2590.99 1823.57 2601.91C1813.97 2609.9 1771.25 2638.34 1771.25 2638.34C1771.25 2638.34 1821.08 2701.01 1828.8 2710.29Z" fill="white"/>
<path d="M1873.97 2764.27C1891.45 2749.73 1882.28 2709.9 1853.5 2675.31C1824.72 2640.72 1787.22 2624.47 1769.75 2639.01C1752.27 2653.55 1761.44 2693.37 1790.22 2727.96C1819 2762.55 1856.5 2778.81 1873.97 2764.27Z" fill="white"/>
<path d="M1581.54 2520.61C1605.05 2545.8 1642.27 2585.96 1682.55 2626.8C1740.19 2685.23 1804 2745.01 1842.5 2763.99C1909.48 2797 2108.72 2745.04 2231.96 2696.65C2264.3 2683.96 2274.87 2644.12 2249.2 2620.66C2207.21 2582.28 2169.59 2543.16 2138.35 2508.45C2108.77 2475.6 2084.92 2446.72 2068.53 2426.09C2053.5 2407.17 2027.75 2400.6 2005.41 2409.8C1811.29 2489.92 1660.29 2496.84 1593.18 2494.77C1579.54 2494.35 1572.21 2510.59 1581.54 2520.61Z" fill="white"/>
<g opacity="0.3">
<path d="M1770.27 2700.11C1796.37 2723.86 1820.93 2744.16 1840.89 2756.69C1845.61 2759.69 1850.08 2762.25 1854.24 2764.29C1919.11 2796.26 2112.03 2745.94 2231.37 2699.09C2262.69 2686.8 2272.92 2648.22 2248.07 2625.51C2207.41 2588.34 2170.97 2550.46 2140.72 2516.84C2143.06 2553.38 2133.7 2635.73 2016.37 2692.49C1985.98 2707.15 1951.44 2711.22 1915.55 2708.28C1916.62 2692.1 1907.17 2665.89 1889.66 2640.06C1865.24 2603.98 1834.29 2582.28 1820.62 2591.54C1812.26 2597.23 1780.28 2614.43 1769.96 2619.98C1768.27 2620.57 1766.67 2621.36 1765.16 2622.37C1755.49 2628.9 1752.41 2643.08 1755.25 2660.3C1757.31 2672.59 1762.38 2686.4 1770.27 2700.11Z" fill="#371A45"/>
</g>
<g opacity="0.3">
<path d="M1823.99 2743.67C1814.49 2730.39 1807.88 2716.71 1804.52 2704.29C1783.26 2696.75 1762.89 2688.52 1744.16 2680.29C1770.52 2702.24 1798.01 2724.32 1823.99 2743.67Z" fill="#371A45"/>
</g>
<path d="M1904.37 2789.57C1876.5 2789.57 1852.81 2785.97 1835.79 2777.58C1770.02 2745.16 1639.05 2604.61 1576.11 2537.06L1570.42 2530.95C1561.97 2521.89 1559.82 2508.76 1564.93 2497.49C1570.03 2486.23 1581.37 2479.19 1593.67 2479.58C1664.19 2481.77 1810.65 2473.74 1999.61 2395.77C2028.07 2384.03 2061.3 2392.62 2080.42 2416.66C2112.16 2456.57 2177.63 2534.7 2259.45 2609.46C2274.81 2623.49 2281.48 2643.07 2277.76 2663.17C2273.77 2684.66 2258.73 2702.47 2237.51 2710.8C2144.46 2747.32 1999.88 2789.57 1904.37 2789.57ZM1592.73 2509.94L1598.34 2516.35C1655.22 2577.41 1788.45 2720.37 1849.22 2750.34C1905.2 2777.93 2088.59 2736.62 2226.41 2682.52C2237.79 2678.05 2245.82 2668.75 2247.88 2657.63C2248.92 2652.01 2249.15 2641.19 2238.95 2631.88C2155.58 2555.71 2088.94 2476.19 2056.64 2435.56C2045.9 2422.06 2027.21 2417.23 2011.19 2423.86C1816.99 2503.97 1665.63 2512.14 1592.73 2509.94Z" fill="#371A45"/>
<path d="M1828.8 2710.29C1848.88 2734.43 1871.02 2766.45 1871.02 2766.45C1871.02 2766.45 1923.83 2730.48 1927.79 2727.18C1940.92 2716.26 1928.23 2679.36 1899.45 2644.77C1870.67 2610.18 1836.7 2590.99 1823.57 2601.91C1813.97 2609.9 1771.25 2638.34 1771.25 2638.34C1771.25 2638.34 1821.08 2701.01 1828.8 2710.29Z" fill="#22A7F0"/>
<g opacity="0.8">
<path d="M1771.27 2638.35C1771.27 2638.35 1821.08 2700.99 1828.79 2710.31C1848.88 2734.42 1871.01 2766.47 1871.01 2766.47C1871.01 2766.47 1872.06 2765.74 1873.86 2764.55C1866.21 2754.25 1856.89 2741.92 1847.96 2731.22C1840.22 2721.92 1790.39 2659.24 1790.39 2659.24C1790.39 2659.24 1833.13 2630.8 1842.75 2622.83C1853.37 2613.95 1877.83 2624.93 1902.08 2647.94C1901.19 2646.88 1900.36 2645.84 1899.47 2644.78C1870.68 2610.19 1836.72 2590.99 1823.57 2601.92C1813.95 2609.89 1771.27 2638.35 1771.27 2638.35Z" fill="white"/>
</g>
<g opacity="0.3">
<path d="M1838.14 2721.97C1855.21 2743.6 1871.01 2766.47 1871.01 2766.47C1871.01 2766.47 1923.8 2730.47 1927.79 2727.17C1940.9 2716.26 1928.22 2679.38 1899.47 2644.77C1889.77 2633.11 1879.46 2623.17 1869.55 2615.57C1891.99 2646.56 1900.79 2676.96 1889.12 2686.67C1885.95 2689.28 1852 2712.5 1838.14 2721.97Z" fill="#371A45"/>
</g>
<path d="M1871.03 2779.11C1867.01 2779.12 1863.06 2777.21 1860.61 2773.65C1860.39 2773.34 1838.55 2741.8 1819.07 2718.39C1811.35 2709.11 1763.38 2648.78 1761.34 2646.22C1759.14 2643.45 1758.2 2639.88 1758.74 2636.38C1759.29 2632.88 1761.29 2629.77 1764.24 2627.81C1775.96 2620 1808.03 2598.38 1815.48 2592.18C1838.49 2573.03 1880.18 2601.82 1909.18 2636.67C1924.06 2654.56 1935.47 2673.75 1941.31 2690.74C1951 2718.93 1942.07 2731.76 1935.89 2736.91C1931.77 2740.33 1890.65 2768.39 1878.15 2776.91C1875.97 2778.4 1873.49 2779.11 1871.03 2779.11ZM1789.71 2641.21C1804.29 2659.53 1832.93 2695.47 1838.53 2702.2C1851.89 2718.25 1865.93 2737.43 1874.18 2748.97C1895.94 2734.1 1917.19 2719.45 1919.75 2717.4C1923 2713 1916.91 2685.55 1889.72 2652.87C1862.53 2620.18 1836.63 2609.21 1831.57 2611.7C1824.72 2617.42 1803.34 2632.02 1789.71 2641.21Z" fill="#371A45"/>
<path d="M1873.97 2764.27C1891.45 2749.73 1882.28 2709.9 1853.5 2675.31C1824.72 2640.72 1787.22 2624.47 1769.75 2639.01C1752.27 2653.55 1761.44 2693.37 1790.22 2727.96C1819 2762.55 1856.5 2778.81 1873.97 2764.27Z" fill="#22A7F0"/>
<g opacity="0.8">
<path d="M1790.2 2728.13C1792.1 2730.39 1793.99 2732.55 1795.94 2734.63C1777.95 2705.35 1774.22 2676.04 1788.62 2664.02C1804.96 2650.43 1838.83 2663.77 1866.69 2693.86C1862.88 2687.7 1858.47 2681.52 1853.49 2675.51C1824.7 2640.92 1787.19 2624.64 1769.73 2639.2C1752.26 2653.72 1761.41 2693.55 1790.2 2728.13Z" fill="white"/>
</g>
<g opacity="0.3">
<path d="M1792.71 2731.05C1821.11 2763.65 1856.95 2778.56 1873.95 2764.45C1891.42 2749.93 1882.24 2710.11 1853.49 2675.51C1838.43 2657.43 1821.03 2644.35 1805.33 2638.05C1806.15 2639 1806.97 2639.95 1807.76 2640.92C1836.51 2675.52 1845.7 2715.34 1828.18 2729.88C1819.9 2736.82 1807.02 2736.72 1792.71 2731.05Z" fill="#371A45"/>
</g>
<path d="M1857.61 2782.47C1834.27 2782.47 1804.98 2765.72 1780.46 2736.25C1746.13 2695 1738.04 2649.09 1761.62 2629.46C1785.21 2609.84 1828.88 2626.16 1863.2 2667.41C1897.52 2708.66 1905.61 2754.57 1882.03 2774.19C1875.3 2779.8 1866.93 2782.47 1857.61 2782.47ZM1785.96 2646.57C1782.47 2646.57 1779.68 2647.37 1777.81 2648.92C1768.88 2656.35 1773.05 2687.76 1799.92 2720.05H1799.92C1826.78 2752.35 1856.9 2762.17 1865.84 2754.73C1874.77 2747.3 1870.6 2715.89 1843.73 2683.6C1822.48 2658.05 1799.19 2646.57 1785.96 2646.57Z" fill="#371A45"/>
<path d="M2086.23 2755.65C2083.23 2755.65 2080.23 2754.47 2078 2752.13L1988.58 2658.57C1972.14 2641.37 1969.95 2614.61 1983.37 2594.96C1990.16 2585.04 1989.83 2571.94 1982.56 2562.37L1898.96 2452.25C1895.16 2447.23 1896.13 2440.09 1901.15 2436.29C1906.15 2432.49 1913.3 2433.46 1917.11 2438.47L2000.7 2548.59C2013.91 2565.98 2014.51 2589.78 2002.18 2607.82C1994.8 2618.63 1996 2633.36 2005.05 2642.83L2094.46 2736.39C2098.81 2740.94 2098.65 2748.14 2094.1 2752.49C2091.89 2754.6 2089.06 2755.65 2086.23 2755.65Z" fill="#371A45"/>
<path d="M2680.78 2754.02C2672.2 2754.02 2664.78 2747.63 2663.7 2738.91C2662.53 2729.46 2669.24 2720.86 2678.68 2719.69C2706.73 2716.22 2765.61 2686.89 2804.26 2622.93C2837.21 2568.42 2864.56 2471.82 2807.77 2321.25C2804.42 2312.35 2808.91 2302.41 2817.82 2299.05C2826.72 2295.71 2836.66 2300.19 2840.02 2309.09C2901.68 2472.6 2870.65 2579.7 2833.75 2640.76C2788.48 2715.67 2718.74 2749.46 2682.91 2753.89C2682.2 2753.98 2681.48 2754.02 2680.78 2754.02Z" fill="#371A45"/>
<path d="M2725.05 2018.4C2722.92 2018.4 2720.77 2018.01 2718.68 2017.18C2621.68 1978.55 2558.55 1898.3 2536.09 1785.11C2519.43 1701.1 2530.91 1629.26 2531.41 1626.25C2532.96 1616.86 2541.84 1610.52 2551.21 1612.05C2560.59 1613.59 2566.95 1622.45 2565.41 1631.84C2565.27 1632.72 2554.43 1701.47 2570.09 1779.38C2590.6 1881.46 2644.89 1950.7 2731.43 1985.16C2740.27 1988.68 2744.58 1998.7 2741.06 2007.54C2738.37 2014.29 2731.89 2018.4 2725.05 2018.4Z" fill="#371A45"/>
<path d="M2069.1 2339.84C2066.74 2336.95 2037.4 2378.99 2011.92 2394.57C1998.69 2402.66 2057.97 2428.02 2052.66 2409.72C2046.32 2387.85 2071.47 2342.74 2069.1 2339.84Z" fill="#371A45"/>
</g>
<defs>
<clipPath id="clip0_1_436">
<rect width="4000" height="4000" fill="white"/>
</clipPath>
</defs>
</svg>
