<svg xmlns="http://www.w3.org/2000/svg" viewBox="0 0 666.3 666.3"><defs><style>.cls-1{fill:#f2bb22;}.cls-2{fill:#e59f23;}.cls-3{fill:#ffe97b;}.cls-4{fill:#1d232b;}.cls-5{fill:#fff;}.cls-6{fill:#2aa6dd;}.cls-7{fill:#8de1ff;}.cls-8{fill:#2491ce;}</style></defs><g id="Layer_2" data-name="Layer 2"><g id="Objects"><path class="cls-1" d="M363.76,131a205.33,205.33,0,0,0-103.33,11c.09-25.84,8.5-51.7,24.76-71.82,8.69-10.75,19.32-19.89,27.25-31.22s13-25.9,8.64-39c0,0,49.64,26.58,38.8,78.31C354.76,102.78,358.45,119.84,363.76,131Z"/><path class="cls-1" d="M211.89,168.57a205.22,205.22,0,0,0-65.28,80.86c-18.21-18.33-30.56-42.55-33.28-68.28-1.46-13.75-.41-27.73-2.81-41.34S101.4,112.29,89,106.11c0,0,53.9-16.31,82.82,27.94C185.54,155,200.22,164.43,211.89,168.57Z"/><path class="cls-1" d="M142.05,405.86c-25.84-.08-51.7-8.49-71.82-24.75C59.48,372.42,50.34,361.79,39,353.86s-25.9-13-39-8.64c0,0,26.58-49.64,78.31-38.81,24.47,5.13,41.53,1.44,52.71-3.88a205.33,205.33,0,0,0,11,103.33Z"/><path class="cls-1" d="M249.43,519.69C231.1,537.9,206.88,550.24,181.15,553c-13.75,1.46-27.73.41-41.34,2.81s-27.52,9.11-33.7,21.47c0,0-16.31-53.9,27.94-82.81,20.93-13.69,30.38-28.36,34.52-40A205.31,205.31,0,0,0,249.43,519.69Z"/><path class="cls-1" d="M405.86,524.25c-.08,25.84-8.49,51.69-24.75,71.81-8.69,10.76-19.32,19.9-27.25,31.22s-13,25.9-8.64,39c0,0-49.64-26.58-38.81-78.32,5.13-24.47,1.44-41.52-3.88-52.7a205.69,205.69,0,0,0,103.33-11Z"/><path class="cls-1" d="M577.25,560.18s-53.9,16.31-82.81-27.93c-13.69-20.94-28.36-30.39-40-34.53a205.21,205.21,0,0,0,65.28-80.85c18.21,18.33,30.55,42.55,33.28,68.28,1.46,13.74.41,27.73,2.81,41.34S564.89,554,577.25,560.18Z"/><path class="cls-1" d="M666.3,321.08s-26.58,49.64-78.32,38.8c-24.47-5.12-41.52-1.43-52.7,3.88a205.69,205.69,0,0,0-11-103.33c25.84.09,51.69,8.5,71.81,24.76,10.76,8.69,19.9,19.32,31.22,27.25S653.18,325.45,666.3,321.08Z"/><path class="cls-1" d="M532.25,171.86c-20.94,13.68-30.39,28.36-34.53,40a205.12,205.12,0,0,0-80.85-65.28c18.33-18.21,42.55-30.56,68.28-33.28,13.74-1.46,27.73-.41,41.34-2.81S554,101.4,560.18,89C560.18,89,576.49,142.94,532.25,171.86Z"/><circle class="cls-1" cx="333.15" cy="333.15" r="190.55"/><path class="cls-2" d="M523.7,333.15c0,105.24-85.31,190.55-190.55,190.55-93.77,0-171.72-67.73-187.6-156.94A174.14,174.14,0,1,0,366.76,145.55C456,161.43,523.7,239.38,523.7,333.15Z"/><path class="cls-3" d="M242.48,233.64c-26.32,26.33-40.29,58-55.26,43-11.38-11.38,4.45-41,30.77-67.28s57.46-42.24,68.27-31C300.9,193.72,268.8,207.32,242.48,233.64Z"/><circle class="cls-3" cx="179.69" cy="313.48" r="13.75"/><path class="cls-4" d="M369.7,422.47c-5.16,12.27-15.57,24.76-36.55,24.76s-31.39-12.49-36.55-24.76Z"/><path class="cls-5" d="M373.63,409.17a66,66,0,0,1-3.93,13.3,239.53,239.53,0,0,1-73.1,0,66,66,0,0,1-3.93-13.3,6.07,6.07,0,0,1,7.77-6.92,108.9,108.9,0,0,0,65.43,0A6.06,6.06,0,0,1,373.63,409.17Z"/><circle class="cls-5" cx="268.25" cy="324.01" r="42.68"/><circle class="cls-4" cx="268.25" cy="324.01" r="29.37"/><circle class="cls-5" cx="260.43" cy="317.38" r="6.87"/><circle class="cls-5" cx="272.33" cy="329.27" r="2.38"/><circle class="cls-5" cx="398.05" cy="324.01" r="42.68"/><circle class="cls-4" cx="398.05" cy="324.01" r="29.37"/><circle class="cls-5" cx="390.23" cy="317.38" r="6.87"/><circle class="cls-5" cx="402.13" cy="329.27" r="2.38"/><path class="cls-2" d="M427.08,375a5.52,5.52,0,0,1-2.09-.41c-27.59-11.21-49.15-.65-50.05-.2a5.54,5.54,0,0,1-5-9.87c1.07-.55,26.79-13.4,59.26-.2A5.54,5.54,0,0,1,427.08,375Z"/><path class="cls-2" d="M294.63,375a5.47,5.47,0,0,1-2.08-.41c-27.6-11.21-49.15-.65-50.06-.2a5.54,5.54,0,0,1-5-9.87c1.08-.55,26.79-13.4,59.27-.2A5.54,5.54,0,0,1,294.63,375Z"/><path class="cls-6" d="M202.12,446.7a37.9,37.9,0,0,1-66.53-12.25.14.14,0,0,1,0-.07,37.8,37.8,0,0,1,6.21-33.58c19.15-25.18,58.18-23.5,76.79-38.33-2.44,5.73-3.41,12.5-3.88,19.82C213.41,403,216.26,428.11,202.12,446.7Z"/><path class="cls-7" d="M161.56,398.27a31.89,31.89,0,0,0-4.41,3.57,2.78,2.78,0,0,1-3.51.32l-.17-.11a2.78,2.78,0,0,1-.37-4.3,31.71,31.71,0,0,1,5.55-4.19A2.74,2.74,0,0,1,162,394h0A2.76,2.76,0,0,1,161.56,398.27Z"/><path class="cls-7" d="M144.68,433.57l-.32.07a2.65,2.65,0,0,1-3.2-2.25,38.43,38.43,0,0,1,4.92-24.06,2.62,2.62,0,0,1,3.68-.87h0a2.65,2.65,0,0,1,.85,3.59,31.53,31.53,0,0,0-3.9,20.51A2.67,2.67,0,0,1,144.68,433.57Z"/><path class="cls-8" d="M202.12,446.7a37.9,37.9,0,0,1-66.53-12.25.14.14,0,0,1,0-.07A35.5,35.5,0,0,0,152,447.8,35.89,35.89,0,0,0,186.22,443c7.63-5.83,12.57-14.54,15.88-23.55s5.21-18.47,8-27.67c1.34-4.45.82-13.24,8.5-29.32-2.44,5.73-3.41,12.5-3.88,19.82C213.41,403,216.26,428.11,202.12,446.7Z"/><path class="cls-6" d="M464.18,446.7a37.91,37.91,0,0,0,66.53-12.25.14.14,0,0,0,0-.07,37.8,37.8,0,0,0-6.21-33.58c-19.16-25.18-58.19-23.5-76.79-38.33,2.44,5.73,3.41,12.5,3.87,19.82C452.89,403,450,428.11,464.18,446.7Z"/><path class="cls-7" d="M504.74,398.27a31.22,31.22,0,0,1,4.4,3.57,2.79,2.79,0,0,0,3.51.32l.18-.11a2.78,2.78,0,0,0,.36-4.3,31.64,31.64,0,0,0-5.54-4.19,2.76,2.76,0,0,0-3.35.43h0A2.77,2.77,0,0,0,504.74,398.27Z"/><path class="cls-7" d="M521.62,433.57l.31.07a2.65,2.65,0,0,0,3.2-2.25,38.37,38.37,0,0,0-4.92-24.06,2.61,2.61,0,0,0-3.67-.87h0a2.64,2.64,0,0,0-.85,3.59,31.53,31.53,0,0,1,3.9,20.51A2.66,2.66,0,0,0,521.62,433.57Z"/><path class="cls-8" d="M464.18,446.7a37.91,37.91,0,0,0,66.53-12.25.14.14,0,0,0,0-.07A35,35,0,0,1,480.07,443c-7.63-5.83-12.56-14.54-15.88-23.55s-5.2-18.47-8-27.67c-1.34-4.45-.82-13.24-8.5-29.32,2.44,5.73,3.41,12.5,3.87,19.82C452.89,403,450,428.11,464.18,446.7Z"/></g></g></svg>