<svg xmlns="http://www.w3.org/2000/svg" viewBox="0 0 666.3 666.3"><defs><style>.cls-1{fill:#f2bb22;}.cls-2{fill:#e59f23;}.cls-3{fill:#ffe97b;}.cls-4{fill:#1d232b;}.cls-5{fill:#fff;}.cls-6{fill:#2aa6dd;}.cls-7{fill:#2a2e35;}.cls-8{fill:#3f454c;}</style></defs><g id="Layer_2" data-name="Layer 2"><g id="Objects"><path class="cls-1" d="M363.76,131a205.33,205.33,0,0,0-103.33,11c.09-25.84,8.5-51.7,24.76-71.82,8.69-10.75,19.32-19.89,27.25-31.22s13-25.9,8.64-39c0,0,49.64,26.58,38.8,78.31C354.76,102.78,358.45,119.84,363.76,131Z"/><path class="cls-1" d="M211.89,168.57a205.22,205.22,0,0,0-65.28,80.86c-18.21-18.33-30.56-42.55-33.28-68.28-1.46-13.75-.41-27.73-2.81-41.34S101.4,112.29,89,106.11c0,0,53.9-16.31,82.82,27.94C185.54,155,200.22,164.43,211.89,168.57Z"/><path class="cls-1" d="M142.05,405.86c-25.84-.08-51.7-8.49-71.82-24.75C59.48,372.42,50.34,361.79,39,353.86s-25.9-13-39-8.64c0,0,26.58-49.64,78.31-38.81,24.47,5.13,41.53,1.44,52.71-3.88a205.33,205.33,0,0,0,11,103.33Z"/><path class="cls-1" d="M249.43,519.69C231.1,537.9,206.88,550.24,181.15,553c-13.75,1.46-27.73.41-41.34,2.81s-27.52,9.11-33.7,21.47c0,0-16.31-53.9,27.94-82.81,20.93-13.69,30.38-28.36,34.52-40A205.31,205.31,0,0,0,249.43,519.69Z"/><path class="cls-1" d="M405.86,524.25c-.08,25.84-8.49,51.69-24.75,71.81-8.69,10.76-19.32,19.9-27.25,31.22s-13,25.9-8.64,39c0,0-49.64-26.58-38.81-78.32,5.13-24.47,1.44-41.52-3.88-52.7a205.69,205.69,0,0,0,103.33-11Z"/><path class="cls-1" d="M577.25,560.18s-53.9,16.31-82.81-27.93c-13.69-20.94-28.36-30.39-40-34.53a205.21,205.21,0,0,0,65.28-80.85c18.21,18.33,30.55,42.55,33.28,68.28,1.46,13.74.41,27.73,2.81,41.34S564.89,554,577.25,560.18Z"/><path class="cls-1" d="M666.3,321.08s-26.58,49.64-78.32,38.8c-24.47-5.12-41.52-1.43-52.7,3.88a205.69,205.69,0,0,0-11-103.33c25.84.09,51.69,8.5,71.81,24.76,10.76,8.69,19.9,19.32,31.22,27.25S653.18,325.45,666.3,321.08Z"/><path class="cls-1" d="M532.25,171.86c-20.94,13.68-30.39,28.36-34.53,40a205.12,205.12,0,0,0-80.85-65.28c18.33-18.21,42.55-30.56,68.28-33.28,13.74-1.46,27.73-.41,41.34-2.81S554,101.4,560.18,89C560.18,89,576.49,142.94,532.25,171.86Z"/><circle class="cls-1" cx="333.15" cy="333.15" r="190.55"/><path class="cls-2" d="M523.7,333.15c0,105.24-85.31,190.55-190.55,190.55-93.77,0-171.72-67.73-187.6-156.94A174.14,174.14,0,1,0,366.76,145.55C456,161.43,523.7,239.38,523.7,333.15Z"/><path class="cls-3" d="M242.48,233.64c-26.32,26.33-40.29,58-55.26,43-11.38-11.38,4.45-41,30.77-67.28s57.46-42.24,68.27-31C300.9,193.72,268.8,207.32,242.48,233.64Z"/><circle class="cls-3" cx="179.69" cy="313.48" r="13.75"/><path class="cls-4" d="M369.7,422.47c-5.16,12.27-15.57,24.76-36.55,24.76s-31.39-12.49-36.55-24.76Z"/><path class="cls-5" d="M373.63,409.17a66,66,0,0,1-3.93,13.3,239.53,239.53,0,0,1-73.1,0,66,66,0,0,1-3.93-13.3,6.07,6.07,0,0,1,7.77-6.92,108.9,108.9,0,0,0,65.43,0A6.06,6.06,0,0,1,373.63,409.17Z"/><path class="cls-6" d="M319.44,334a14.19,14.19,0,0,1,13.41-12.17h.59A14.17,14.17,0,0,1,346.85,334a229.81,229.81,0,0,0,5.77,25,64,64,0,0,0,61.49,46.11H442a64,64,0,0,0,64-64v-6.4a40.33,40.33,0,0,1,9.18-29.1,12.86,12.86,0,0,0,3.63-8.91V285.31a12.79,12.79,0,0,0-8.73-12.16c-11-3.74-33.62-9-74.53-9-64,0-89.65,25.62-89.65,25.62H320.34s-25.62-25.62-89.66-25.62c-40.91,0-63.52,5.23-74.53,9a12.81,12.81,0,0,0-8.72,12.13V296.6a12.86,12.86,0,0,0,3.63,8.91,40.37,40.37,0,0,1,9.18,29.12V341a64,64,0,0,0,64,64h27.91a64,64,0,0,0,61.51-46.15A229,229,0,0,0,319.44,334Z"/><path class="cls-7" d="M224.28,388.34A47.37,47.37,0,0,1,177,341V304a21.56,21.56,0,0,1,19.56-21.6c10.21-1,21.64-1.47,34-1.47,1.63-.06,3.27-.08,4.89-.08a147.75,147.75,0,0,1,59.06,12.23l.23.1A21.66,21.66,0,0,1,306.83,317c-2.49,12.22-5.58,24.74-9.2,37.25a47.78,47.78,0,0,1-45.4,34.06H224.28Z"/><path class="cls-7" d="M414.1,388.34a47.77,47.77,0,0,1-45.42-34c-3.63-12.55-6.72-25.07-9.2-37.25a21.66,21.66,0,0,1,12.11-23.92l.22-.1a147.83,147.83,0,0,1,59.07-12.23c1.62,0,3.26,0,4.88.08,12.37,0,23.81.49,34,1.46A21.58,21.58,0,0,1,489.33,304v37A47.36,47.36,0,0,1,442,388.34Z"/><path class="cls-8" d="M201.18,323a6.4,6.4,0,0,1-4.53-10.93l6.4-6.41a6.41,6.41,0,0,1,9.06,9.06l-6.4,6.4A6.43,6.43,0,0,1,201.18,323Z"/><path class="cls-8" d="M214,342.23a6.4,6.4,0,0,1-4.53-10.93l25.61-25.62a6.41,6.41,0,0,1,9.06,9.06l-25.62,25.62A6.4,6.4,0,0,1,214,342.23Z"/><path class="cls-8" d="M386.9,323a6.4,6.4,0,0,1-4.53-10.93l6.4-6.41a6.41,6.41,0,0,1,9.06,9.06l-6.41,6.4A6.41,6.41,0,0,1,386.9,323Z"/><path class="cls-8" d="M399.7,342.23a6.4,6.4,0,0,1-4.52-10.93l25.61-25.62a6.41,6.41,0,0,1,9.06,9.06l-25.62,25.62A6.4,6.4,0,0,1,399.7,342.23Z"/></g></g></svg>